<svg width="471" height="299" viewBox="0 0 471 299" fill="none" xmlns="http://www.w3.org/2000/svg">
<g clip-path="url(#clip0_2151_68077)">
<path d="M60.1054 107.859C60.1054 107.859 60.6879 84.5909 31.8184 86.6909C32.3644 97.7726 35.9395 108.869 60.1054 107.859Z" fill="#D1EAFF"/>
<path d="M116.811 93.7395C116.811 93.7395 81.5119 79.8384 69.0977 117.291C86.3612 122.879 105.277 124.666 116.811 93.7395Z" fill="#E7DFEB"/>
<path d="M62.4868 66.1481C62.4868 66.1481 64.7148 53.1626 49.1405 46.8479C46.7305 60.095 52.0166 63.6774 62.4868 66.1481Z" fill="#D1EAFF"/>
<path d="M40.4538 190.109C40.4538 190.109 35.641 149.954 0 158.471C8.46064 187.595 24.6684 192.144 40.4538 190.109Z" fill="#BDD4E6"/>
<path opacity="0.5" d="M40.4538 190.11L0 158.463C8.46064 187.588 24.6684 192.137 40.4538 190.102V190.11Z" fill="#062A47"/>
<path d="M54.4264 102.91C55.8826 103.695 57.2951 104.574 58.4747 105.693C59.6542 106.798 60.7464 108.004 61.6055 109.334C62.4866 110.649 63.2292 112.044 63.8336 113.483C64.4306 114.929 64.9112 116.39 65.217 117.945C65.2679 118.206 65.0713 118.461 64.7801 118.504C64.4889 118.548 64.2122 118.374 64.1612 118.105C64.1612 118.105 64.1612 118.097 64.1612 118.09V118.061C63.9282 116.63 63.5059 115.154 62.9817 113.752C62.4502 112.342 61.773 110.969 60.9648 109.668C60.1784 108.353 59.1664 107.161 58.0596 106.057C56.9529 104.938 55.6132 104.051 54.2225 103.244H54.2079C54.106 103.179 54.0769 103.056 54.1424 102.968C54.2079 102.881 54.3317 102.852 54.4337 102.903L54.4264 102.91Z" fill="#E2D8E7"/>
<path d="M51.063 90.5204C52.5337 93.9939 53.7424 97.5473 54.8564 101.115C55.9704 104.683 56.9534 108.287 57.8417 111.913C58.7227 115.539 59.5018 119.18 60.0842 122.857C60.2153 123.78 60.3609 124.703 60.4701 125.626C60.5575 126.556 60.6813 127.479 60.7395 128.409C60.7759 129.346 60.8706 130.269 60.8196 131.214C60.7978 131.686 60.8269 132.151 60.7541 132.631L60.5575 134.055C60.5211 134.324 60.2517 134.505 59.9605 134.469C59.6692 134.433 59.4581 134.193 59.4945 133.924V133.851L59.6983 132.529C59.7712 132.093 59.7493 131.628 59.7784 131.177C59.844 130.276 59.7639 129.353 59.742 128.445C59.7056 127.529 59.5891 126.614 59.5163 125.698C59.4144 124.783 59.2833 123.867 59.1741 122.951C58.6499 119.296 57.9218 115.656 57.099 112.037C56.2689 108.418 55.3442 104.814 54.2812 101.239C53.2182 97.6708 52.0677 94.1101 50.6552 90.644C50.6115 90.5422 50.6698 90.426 50.779 90.3896C50.8882 90.3533 51.012 90.4042 51.063 90.5059V90.5204Z" fill="#062A47"/>
<path d="M65.9752 68.5752C67.4168 72.1504 67.9556 75.929 68.327 79.6713C68.6765 83.4209 68.7347 87.185 68.6692 90.9419C68.6036 94.6987 68.3998 98.4556 68.0648 102.198C67.7226 105.94 67.3003 109.675 66.5504 113.403C66.4994 113.665 66.2154 113.839 65.9242 113.788C65.633 113.737 65.4364 113.483 65.4946 113.221V113.207C66.281 109.574 66.7615 105.846 67.1474 102.125C67.526 98.4047 67.7882 94.6697 67.9047 90.9274C68.0212 87.1923 68.0139 83.4427 67.7226 79.7077C67.4095 75.9872 66.929 72.2303 65.5601 68.7133C65.5237 68.6043 65.582 68.488 65.6912 68.4589C65.8004 68.4226 65.9242 68.4807 65.9679 68.5752H65.9752Z" fill="#062A47"/>
<path d="M82.3423 40.3008C83.5364 43.0549 84.2426 45.947 84.6941 48.8536C85.1455 51.7676 85.3275 54.7033 85.3494 57.639C85.3712 63.5104 84.7814 69.3673 83.5946 75.137C83.5436 75.3986 83.2597 75.573 82.9684 75.5222C82.6772 75.4713 82.4879 75.217 82.5388 74.9481C83.813 69.2656 84.5047 63.4523 84.5921 57.6317C84.6212 54.7251 84.4902 51.8112 84.1043 48.9263C83.7111 46.0415 83.0631 43.1711 81.9345 40.4389C81.8908 40.3372 81.9491 40.2209 82.0583 40.1846C82.1675 40.1482 82.2913 40.1991 82.335 40.3008H82.3423Z" fill="#062A47"/>
<path d="M105.576 75.275C102.183 76.4595 99.0234 78.1235 96.0017 79.9547C92.9801 81.7932 90.1186 83.8351 87.3372 85.9642C81.8036 90.2443 76.6121 94.9022 71.8212 99.8507C71.6246 100.054 71.2896 100.076 71.0639 99.8943C70.8382 99.7127 70.8164 99.4075 71.013 99.2113C75.9277 94.2845 81.2138 89.6775 86.8566 85.4483C89.6817 83.341 92.6014 81.3281 95.6741 79.5187C98.7467 77.7166 101.972 76.0816 105.431 74.9189C105.54 74.8826 105.671 74.9335 105.707 75.0352C105.751 75.1369 105.693 75.2459 105.584 75.2895L105.576 75.275Z" fill="#7A4B90"/>
<path d="M76.1895 111.267C73.2043 113.367 70.7214 116.012 68.6681 118.897C66.6003 121.774 64.9184 124.877 63.4913 128.074C62.0569 131.264 60.8919 134.556 59.9017 137.892C58.926 141.22 58.1178 144.628 57.579 147.999V148.021C57.4989 148.486 57.0256 148.806 56.516 148.733C56.0063 148.661 55.6495 148.232 55.7223 147.767C55.7223 147.767 55.7223 147.752 55.7223 147.745C56.3776 144.243 57.2878 140.856 58.3654 137.485C59.4575 134.127 60.7244 130.807 62.2753 127.595C63.8116 124.383 65.6101 121.258 67.8017 118.366C69.9787 115.467 72.5999 112.807 75.7308 110.714C75.8983 110.605 76.1385 110.634 76.2623 110.787C76.3861 110.94 76.357 111.15 76.1968 111.259L76.1895 111.267Z" fill="#E7DFEB"/>
<path d="M39.77 189.121L50.8227 196.468C51.245 196.744 51.3397 197.282 51.0339 197.66C50.7281 198.038 50.1456 198.117 49.7233 197.841C49.7014 197.827 49.6796 197.812 49.665 197.798L39.304 189.666C39.1438 189.543 39.1293 189.325 39.2603 189.18C39.3914 189.041 39.6098 189.027 39.77 189.129V189.121Z" fill="#062A47"/>
<path d="M62.2463 183.686C60.6808 185.161 59.21 186.716 58.0014 188.453C56.7854 190.175 55.686 191.963 54.7977 193.852C53.8948 195.727 53.1303 197.66 52.5041 199.629C51.8925 201.591 51.3829 203.618 51.0843 205.595V205.631C51.0115 206.096 50.5382 206.416 50.0213 206.351C49.5043 206.285 49.1476 205.849 49.2204 205.384C49.2204 205.377 49.2204 205.362 49.2204 205.348C49.6427 203.211 50.247 201.199 50.9751 199.193C51.7105 197.195 52.5842 195.24 53.5963 193.343C54.5938 191.439 55.8098 189.637 57.1349 187.915C58.4601 186.186 60.0474 184.638 61.7147 183.185C61.8676 183.054 62.1079 183.061 62.2535 183.199C62.3919 183.33 62.3919 183.541 62.2535 183.671L62.239 183.686H62.2463Z" fill="#062A47"/>
<path d="M41.5099 153.617C43.0826 155.186 44.5753 156.85 45.7766 158.674C46.9926 160.491 48.0847 162.38 48.9512 164.357C49.8322 166.326 50.5749 168.346 51.1646 170.395C51.7471 172.459 52.2131 174.516 52.4752 176.688C52.5335 177.153 52.1622 177.575 51.6452 177.618C51.1282 177.662 50.6695 177.328 50.6113 176.855C50.6113 176.848 50.6113 176.834 50.6113 176.826V176.79C50.4584 174.799 50.0943 172.728 49.6211 170.722C49.1332 168.709 48.4998 166.718 47.728 164.778C46.9707 162.831 45.9951 160.956 44.8883 159.147C43.7962 157.33 42.42 155.666 40.9565 154.074L40.942 154.06C40.8109 153.915 40.8255 153.697 40.9857 153.58C41.1386 153.464 41.3716 153.479 41.5099 153.617Z" fill="#062A47"/>
<path d="M71.8438 136.736C68.8585 138.836 66.3757 141.481 64.3224 144.366C62.2546 147.244 60.5727 150.347 59.1456 153.544C57.7112 156.734 56.5462 160.026 55.556 163.361C54.5803 166.689 53.7721 170.097 53.2333 173.469V173.491C53.1532 173.956 52.6799 174.276 52.1703 174.203C51.6606 174.13 51.3038 173.702 51.3766 173.237C51.3766 173.237 51.3766 173.222 51.3766 173.215C52.0319 169.712 52.9421 166.326 54.0197 162.954C55.1118 159.597 56.3787 156.276 57.9296 153.064C59.4659 149.853 61.2644 146.728 63.456 143.836C65.633 140.936 68.2542 138.277 71.3851 136.184C71.5526 136.075 71.7928 136.104 71.9166 136.257C72.0404 136.409 72.0113 136.62 71.8511 136.729L71.8438 136.736Z" fill="#062A47"/>
<path d="M49.1841 204.832C49.5846 216.088 51.2228 227.366 54.4556 238.317C56.3924 244.9 58.9044 251.367 61.9988 257.602L66.1636 257.973C62.6687 251.418 59.8363 244.566 57.6739 237.539C54.3828 226.872 52.6208 215.826 52.0893 204.752C51.8344 199.208 51.8708 193.656 52.1912 188.111C52.2931 186.724 52.3587 185.343 52.4897 183.955L52.8683 179.798C53.094 177.023 53.4435 174.261 53.7712 171.493C56.487 149.373 61.8168 127.53 69.6804 106.456C71.6245 101.181 73.7869 95.9779 76.0732 90.8185C78.3595 85.6592 80.8132 80.5581 83.449 75.5441C86.0847 70.5228 88.8734 65.567 91.8805 60.7274C94.8949 55.8951 98.0476 51.1064 101.586 46.5938H101.593C101.71 46.434 101.674 46.216 101.506 46.107C101.339 45.998 101.098 46.027 100.975 46.1796C97.334 50.7067 94.1231 55.4591 91.0286 60.2914C87.9487 65.1237 85.0872 70.065 82.3714 75.079C79.6555 80.0857 77.129 85.1796 74.7699 90.3389C72.4035 95.491 70.1682 100.701 68.1441 105.977C59.9674 127.057 54.3173 148.973 51.3029 171.217C50.9316 174 50.5457 176.776 50.2835 179.573L49.8467 183.759C49.7011 185.154 49.6137 186.556 49.4899 187.959C49.0967 193.569 48.9875 199.2 49.1695 204.832H49.1841Z" fill="#062A47"/>
<path d="M39.7555 72.6445C39.7555 72.6445 34.7461 94.3064 53.6478 97.8307C57.8272 84.6127 53.2037 76.6775 39.7555 72.6445Z" fill="#BDD4E6"/>
<path opacity="0.5" d="M53.64 97.8307C47.2108 88.6675 39.7477 72.6445 39.7477 72.6445C39.7477 72.6445 34.7383 94.3064 53.64 97.8307Z" fill="#062A47"/>
<path d="M62.924 51.1499C62.924 51.1499 51.0485 67.4998 67.8169 75.9509C76.1247 66.3081 74.3481 58.4165 62.924 51.1499Z" fill="#BDD4E6"/>
<path opacity="0.5" d="M67.8169 75.9509C64.7297 66.5188 62.924 51.1499 62.924 51.1499C62.924 51.1499 51.0485 67.4998 67.8169 75.9509Z" fill="#062A47"/>
<path d="M72.5489 30.6802C72.5489 30.6802 69.7894 45.1626 84.0458 46.4851C86.5723 37.5907 82.7643 32.6204 72.5489 30.6802Z" fill="#BDD4E6"/>
<path opacity="0.5" d="M84.0458 46.4773C78.8325 40.802 72.5489 30.6724 72.5489 30.6724C72.5489 30.6724 69.7894 45.1548 84.0458 46.4773Z" fill="#062A47"/>
<path d="M99.1328 77.9274C99.1328 77.9274 125.847 87.0616 133.485 59.3685C112.304 56.2365 103.596 66.2064 99.1328 77.9274Z" fill="#BDD4E6"/>
<path opacity="0.5" d="M99.1328 77.9274L133.485 59.3685C112.304 56.2365 103.596 66.2064 99.1328 77.9274Z" fill="#062A47"/>
<path d="M99.8889 48.9117C99.8889 48.9117 114.553 48.9408 113.905 28.1582C98.7822 30.5126 93.5616 38.2297 99.8889 48.9117Z" fill="#D1EAFF"/>
<path d="M60.1934 185.139C60.1934 185.139 107.44 189.012 105.999 141.394C70.5689 144.926 61.5476 164.48 60.1934 185.139Z" fill="#B69CC2"/>
<path opacity="0.5" d="M60.1934 185.139L105.999 141.394C70.5689 144.926 61.5549 164.48 60.1934 185.139Z" fill="#7A4B90"/>
<path d="M43.192 156.705C43.192 156.705 56.9314 126.28 11.3008 114.479C13.1138 142.114 16.0189 150.296 43.192 156.705Z" fill="#BDD4E6"/>
<path d="M281.838 78.7992C283.877 80.3761 285.558 82.3453 286.942 84.4744C288.333 86.6108 289.461 88.8998 290.415 91.2615C291.369 93.6159 292.133 96.0429 292.781 98.499C293.415 100.948 293.939 103.455 294.274 105.94V105.962C294.325 106.303 294.645 106.543 295.002 106.492C295.359 106.449 295.606 106.129 295.563 105.795V105.78C295.148 103.208 294.558 100.715 293.852 98.2302C293.131 95.7522 292.293 93.3107 291.26 90.9417C290.233 88.5728 289.024 86.262 287.546 84.1111C286.075 81.9602 284.299 79.9837 282.158 78.4068C282.042 78.3196 281.882 78.3414 281.794 78.4577C281.707 78.5667 281.729 78.7193 281.838 78.8065V78.7992Z" fill="#541970"/>
<path d="M228.984 49.2386C240.037 75.9289 258.502 82.9921 284.532 80.456C284.532 80.456 282.617 46.1284 228.984 49.2386Z" fill="#BDD4E6"/>
<path d="M294.238 54.2163C293.226 54.7758 292.236 55.4007 291.413 56.2073C290.583 56.9994 289.818 57.8714 289.214 58.8379C288.595 59.7971 288.064 60.8071 287.634 61.8535C287.204 62.9072 286.855 63.9754 286.629 65.109C286.593 65.3052 286.724 65.4868 286.92 65.5232C287.124 65.5595 287.314 65.4287 287.357 65.2398C287.357 65.2398 287.357 65.2398 287.357 65.2325V65.2107C287.532 64.1643 287.845 63.0888 288.224 62.0643C288.61 61.0397 289.09 60.0441 289.658 59.0995C290.219 58.1475 290.925 57.2828 291.704 56.4907C292.476 55.6841 293.415 55.052 294.383 54.4779H294.391C294.464 54.427 294.485 54.3398 294.442 54.2744C294.398 54.209 294.311 54.1872 294.238 54.2236V54.2163Z" fill="#062A47"/>
<path d="M286.643 28.9139C285.609 31.5227 285.194 34.284 284.903 37.0162C284.619 39.763 284.539 42.5243 284.539 45.2784C284.539 48.0324 284.641 50.7865 284.83 53.5333C285.027 56.2801 285.274 59.0196 285.748 61.7591C285.784 61.9553 285.973 62.0861 286.177 62.0498C286.381 62.0134 286.512 61.8318 286.483 61.6356V61.621C285.981 58.9469 285.689 56.2074 285.464 53.4824C285.245 50.7502 285.107 48.0106 285.063 45.2639C285.02 42.5243 285.063 39.7775 285.311 37.0453C285.566 34.3203 285.944 31.5735 286.927 29.0157C286.956 28.9357 286.913 28.8558 286.84 28.8267C286.76 28.7977 286.68 28.8413 286.651 28.9139H286.643Z" fill="#062A47"/>
<path d="M279.733 21.3276C279.085 23.0862 278.706 24.9537 278.466 26.8285C278.226 28.7105 278.131 30.6071 278.131 32.511C278.138 36.3187 278.488 40.1337 279.165 43.9051C279.194 44.0795 279.354 44.1957 279.514 44.1667C279.674 44.1376 279.784 43.9777 279.747 43.8033C279.019 40.0828 278.619 36.2969 278.553 32.5255C278.524 30.6362 278.59 28.7541 278.793 26.8866C279.005 25.0264 279.347 23.1734 279.966 21.4294C279.988 21.364 279.958 21.2913 279.893 21.2622C279.835 21.2332 279.762 21.2622 279.74 21.3276H279.733Z" fill="#062A47"/>
<path d="M259.23 33.3612C261.56 34.2695 263.723 35.5266 265.79 36.9C267.858 38.2807 269.81 39.8139 271.703 41.4053C275.474 44.6099 279.006 48.0834 282.26 51.7603C282.391 51.9129 282.624 51.9274 282.785 51.8039C282.937 51.6731 282.959 51.4478 282.828 51.3025C279.486 47.6328 275.889 44.1957 272.045 41.0275C270.115 39.4506 268.128 37.9392 266.023 36.573C263.919 35.2142 261.713 33.9788 259.339 33.0923C259.259 33.0632 259.172 33.0996 259.143 33.1722C259.114 33.2449 259.15 33.3321 259.23 33.3612Z" fill="#062A47"/>
<path d="M296.728 128.975C296.327 137.223 295.075 145.471 292.723 153.457C291.31 158.26 289.505 162.969 287.298 167.503L284.415 167.728C286.905 162.961 288.929 157.977 290.502 152.854C292.898 145.071 294.23 136.998 294.718 128.888C294.951 124.826 294.987 120.757 294.834 116.695C294.783 115.677 294.747 114.66 294.674 113.643L294.456 110.591C294.332 108.556 294.121 106.522 293.924 104.494C292.293 88.2532 288.857 72.1794 283.658 56.6434C282.369 52.7557 280.942 48.9117 279.42 45.104C277.899 41.2963 276.26 37.5322 274.498 33.8189C272.736 30.1129 270.865 26.4433 268.841 22.8608C266.817 19.2856 264.691 15.7395 262.295 12.3896C262.215 12.2661 262.244 12.1135 262.361 12.0335C262.477 11.9536 262.645 11.9827 262.725 12.0917C265.186 15.4561 267.356 18.9732 269.431 22.5484C271.506 26.1235 273.428 29.7787 275.241 33.4846C277.061 37.1906 278.75 40.9475 280.323 44.7552C281.896 48.5629 283.381 52.4069 284.721 56.2946C290.131 71.8452 293.793 87.9698 295.628 104.305C295.854 106.347 296.087 108.389 296.24 110.438L296.495 113.512C296.582 114.537 296.626 115.568 296.691 116.593C296.902 120.706 296.917 124.841 296.728 128.968V128.975Z" fill="#062A47"/>
<path d="M251.133 0C251.133 0 250.23 16.4371 265.542 15.8122C266.969 5.5953 262.237 0.653997 251.133 0Z" fill="#BDD4E6"/>
<path opacity="0.5" d="M265.542 15.8122C259.222 10.2895 251.133 0 251.133 0C251.133 0 250.23 16.4371 265.542 15.8122Z" fill="#062A47"/>
<path d="M290.539 21.2476C290.539 21.2476 277.95 28.3979 285.042 38.7238C293.247 34.8798 294.864 29.2627 290.539 21.2476Z" fill="#BDD4E6"/>
<path opacity="0.5" d="M285.042 38.7238C286.403 31.726 290.539 21.2476 290.539 21.2476C290.539 21.2476 277.95 28.3979 285.042 38.7238Z" fill="#062A47"/>
<path d="M264.611 35.5846C264.611 35.5846 262.23 14.2425 232.305 19.2202C238.159 34.6399 251.425 36.8635 264.611 35.5846Z" fill="#BDD4E6"/>
<path opacity="0.5" d="M264.611 35.5847L232.305 19.2202C238.159 34.64 251.425 36.8636 264.611 35.5847Z" fill="#062A47"/>
<path d="M278.626 27.6641C278.626 27.6641 270.908 21.0151 281.954 7.33203C288.689 15.7904 287.451 23.3549 278.626 27.6641Z" fill="#D1EAFF"/>
<path d="M290.262 57.7261C290.262 57.7261 290.087 24.9318 323.347 28.4562C322.481 44.0576 318.119 59.6227 290.262 57.7261Z" fill="#BDD4E6"/>
<path d="M384.151 126.919C412.778 126.919 435.985 103.758 435.985 75.1879C435.985 46.6176 412.778 23.4568 384.151 23.4568C355.523 23.4568 332.316 46.6176 332.316 75.1879C332.316 103.758 355.523 126.919 384.151 126.919Z" fill="white"/>
<path style="mix-blend-mode:multiply" opacity="0.5" d="M433.975 89.4522C393.398 118.214 362.256 100.774 354.706 83.5009C349.201 70.9005 347.701 45.7144 357.058 31.0867C342.219 40.1845 332.316 56.5344 332.316 75.1951C332.316 103.767 355.521 126.926 384.151 126.926C407.821 126.926 427.764 111.092 433.975 89.4595V89.4522Z" fill="url(#paint0_linear_2151_68077)"/>
<path d="M384.557 74.4321L368.488 58.5691C367.781 57.8642 366.813 57.9151 366.332 58.6853C365.852 59.4556 366.041 60.6619 366.748 61.3667L382.817 77.2298C383.523 77.9346 384.492 77.8838 384.972 77.1135C385.453 76.3433 385.263 75.137 384.557 74.4321Z" fill="url(#paint1_linear_2151_68077)"/>
<path opacity="0.5" d="M413.326 59.0051C412.955 58.1331 411.943 57.7262 411.069 58.0968L380.801 70.9732C379.928 71.3438 379.52 72.3539 379.891 73.2259C380.263 74.0979 381.275 74.5048 382.148 74.1342L412.416 61.2578C413.29 60.8872 413.697 59.8771 413.326 59.0051Z" fill="url(#paint2_linear_2151_68077)"/>
<path d="M384.151 23.4568C376.79 23.4568 369.785 24.9973 363.443 27.7659C368.14 26.3707 373.105 25.615 378.253 25.615C406.882 25.615 430.087 48.7737 430.087 77.3461C430.087 98.5647 417.28 116.797 398.961 124.775C420.367 118.417 435.985 98.6301 435.985 75.1952C435.985 46.6228 412.78 23.4641 384.151 23.4641V23.4568Z" fill="#BDD4E6"/>
<path d="M385.657 74.6793L373.723 56.9414C373.199 56.1566 372.129 55.9386 371.342 56.4545C370.556 56.9777 370.338 58.0459 370.855 58.8307L382.788 76.5686C383.312 77.3534 384.383 77.5714 385.169 77.0554C385.956 76.5322 386.174 75.464 385.657 74.6793Z" fill="#104774"/>
<path d="M414.928 57.6898C414.454 56.8687 413.399 56.5925 412.576 57.0649L384.078 73.4875C383.255 73.9598 382.978 75.0134 383.452 75.8346C383.925 76.6557 384.981 76.9318 385.803 76.4595L414.302 60.0369C415.124 59.5646 415.401 58.5109 414.928 57.6898Z" fill="#104774"/>
<path d="M387.913 75.1878C387.913 77.2587 386.231 78.9446 384.149 78.9446C382.067 78.9446 380.385 77.266 380.385 75.1878C380.385 73.1095 382.067 71.4309 384.149 71.4309C386.231 71.4309 387.913 73.1095 387.913 75.1878Z" fill="#072F50"/>
<g style="mix-blend-mode:multiply">
<path d="M382.3 76.6847C381.507 75.6238 381.317 73.3566 382.548 71.8015C381.274 72.4046 380.393 73.6908 380.393 75.195C380.393 77.266 382.075 78.9519 384.157 78.9519C385.467 78.9519 386.618 78.2833 387.295 77.2733C385.38 77.8909 383.145 77.811 382.308 76.692L382.3 76.6847Z" fill="#062A47"/>
</g>
<path d="M384.15 128.75C354.56 128.75 330.488 104.727 330.488 75.1954C330.488 45.6639 354.56 21.6404 384.15 21.6404C413.74 21.6404 437.812 45.6639 437.812 75.1954C437.812 104.727 413.74 128.75 384.15 128.75ZM384.15 25.281C356.576 25.281 334.143 47.6694 334.143 75.1882C334.143 102.707 356.576 125.095 384.15 125.095C411.724 125.095 434.157 102.707 434.157 75.1882C434.157 47.6694 411.724 25.281 384.15 25.281Z" fill="#104774"/>
<path d="M352.158 36.8708C340.086 45.9905 332.266 60.4365 332.266 76.6774C332.266 104.196 354.699 126.585 382.272 126.585C394.432 126.585 405.594 122.225 414.273 114.994C405.892 121.324 395.458 125.095 384.158 125.095C356.584 125.095 334.151 102.707 334.151 75.1878C334.151 59.8043 341.163 46.0341 352.158 36.8708Z" fill="#BDD4E6"/>
<path d="M384.151 21.6328C371.103 21.6328 359.133 26.3052 349.828 34.0587C358.842 27.2063 370.091 23.1224 382.273 23.1224C411.863 23.1224 435.934 47.1459 435.934 76.6775C435.934 93.1872 428.406 107.975 416.596 117.807C429.483 108.018 437.82 92.5551 437.82 75.1805C437.82 45.649 413.749 21.6255 384.159 21.6255L384.151 21.6328Z" fill="#3577AC"/>
<path d="M386.086 75.1878C386.086 76.256 385.22 77.1207 384.15 77.1207C383.079 77.1207 382.213 76.256 382.213 75.1878C382.213 74.1196 383.079 73.2549 384.15 73.2549C385.22 73.2549 386.086 74.1196 386.086 75.1878Z" fill="#B69CC2"/>
<path d="M386.086 29.786C386.086 30.8541 385.22 31.7189 384.15 31.7189C383.079 31.7189 382.213 30.8541 382.213 29.786C382.213 28.7178 383.079 27.853 384.15 27.853C385.22 27.853 386.086 28.7178 386.086 29.786Z" fill="#104774"/>
<path d="M386.086 121.44C386.086 122.508 385.22 123.373 384.15 123.373C383.079 123.373 382.213 122.508 382.213 121.44C382.213 120.372 383.079 119.507 384.15 119.507C385.22 119.507 386.086 120.372 386.086 121.44Z" fill="#B69CC2"/>
<path d="M386.086 75.1878C386.086 76.256 385.22 77.1207 384.15 77.1207C383.079 77.1207 382.213 76.256 382.213 75.1878C382.213 74.1196 383.079 73.2549 384.15 73.2549C385.22 73.2549 386.086 74.1196 386.086 75.1878Z" fill="#AFCCE3"/>
<path d="M430.202 77.1207C431.272 77.1207 432.139 76.2553 432.139 75.1878C432.139 74.1203 431.272 73.2549 430.202 73.2549C429.133 73.2549 428.266 74.1203 428.266 75.1878C428.266 76.2553 429.133 77.1207 430.202 77.1207Z" fill="#104774"/>
<path d="M337.937 77.1207C339.006 77.1207 339.874 76.2553 339.874 75.1878C339.874 74.1203 339.006 73.2549 337.937 73.2549C336.867 73.2549 336 74.1203 336 75.1878C336 76.2553 336.867 77.1207 337.937 77.1207Z" fill="#B69CC2"/>
<path d="M142.245 279.634C214.072 279.634 272.3 278.183 272.3 276.393C272.3 274.604 214.072 273.153 142.245 273.153C70.4171 273.153 12.1895 274.604 12.1895 276.393C12.1895 278.183 70.4171 279.634 142.245 279.634Z" fill="url(#paint3_linear_2151_68077)"/>
<path d="M270.457 276.364C270.457 277.418 224.616 278.276 168.07 278.276C111.525 278.276 65.6836 277.418 65.6836 276.364C65.6836 275.311 111.525 274.453 168.07 274.453C224.616 274.453 270.457 275.311 270.457 276.364Z" fill="url(#paint4_linear_2151_68077)"/>
<path d="M235.551 247.56H188.581C188.581 247.56 191.588 267.688 168.412 267.688H255.713C232.544 267.688 235.544 247.56 235.544 247.56H235.551Z" fill="#062B6B"/>
<g style="mix-blend-mode:multiply">
<path d="M232.362 253.569C231.925 251.44 231.808 249.369 231.845 247.552H188.581C188.581 247.552 189.884 256.316 184.117 262.282L232.369 253.569H232.362Z" fill="#3577AC"/>
</g>
<path d="M343.188 69.9268H80.9448C75.7534 69.9268 71.5449 74.1269 71.5449 79.308V244.188C71.5449 249.369 75.7534 253.569 80.9448 253.569H343.188C348.38 253.569 352.588 249.369 352.588 244.188V79.308C352.588 74.1269 348.38 69.9268 343.188 69.9268Z" fill="#3577AC"/>
<g style="mix-blend-mode:multiply">
<path d="M85.3499 79.9329C77.6611 81.0229 76.9912 83.7042 76.9912 101.464C76.9912 119.224 75.9864 235.097 75.6515 244.856C75.5495 247.727 75.5131 250.016 75.5059 251.81C77.0495 252.908 78.9207 253.569 80.9521 253.569H158.751L337.56 244.856V214.395L204.593 153.406L85.3499 79.9329Z" fill="#1D5C9F"/>
</g>
<path d="M88.6038 79.3151H335.535C340.421 79.3151 344.389 83.2754 344.389 88.1513V236.027C344.389 240.903 340.421 244.863 335.535 244.863H88.6038C83.7182 244.863 79.75 240.903 79.75 236.027V88.1441C79.75 83.2682 83.7182 79.3079 88.6038 79.3079V79.3151Z" fill="white"/>
<path d="M212.07 76.0452C212.826 76.0452 213.439 75.4336 213.439 74.6791C213.439 73.9246 212.826 73.313 212.07 73.313C211.314 73.313 210.701 73.9246 210.701 74.6791C210.701 75.4336 211.314 76.0452 212.07 76.0452Z" fill="white"/>
<path d="M270.327 277.062H153.815C151.23 277.062 149.111 274.947 149.111 272.368C149.111 269.788 151.23 267.674 153.815 267.674H270.327C272.912 267.674 275.031 269.788 275.031 272.368C275.031 274.947 272.912 277.062 270.327 277.062Z" fill="#3577AC"/>
<path opacity="0.5" d="M343.188 69.9268H183.434C218.354 71.6417 333.162 71.2493 342.591 72.6663C351.947 74.076 350.054 81.1464 349.639 158.093C349.377 207.564 349.945 236.776 349.042 251.498C351.197 249.776 352.588 247.131 352.588 244.181V79.3152C352.588 74.1559 348.358 69.934 343.188 69.934V69.9268Z" fill="white"/>
<path opacity="0.5" d="M266.534 270.137C271.594 269.984 273.269 272.862 272.774 276.364C274.121 275.536 275.024 274.054 275.024 272.368C275.024 269.788 272.905 267.674 270.32 267.674H184.25C184.25 267.674 258.743 270.37 266.526 270.13L266.534 270.137Z" fill="white"/>
<path d="M141.269 177.059H140.541V180.147H141.269V177.059Z" fill="#104774"/>
<path d="M141.269 205.791H140.541V212.2H141.269V205.791Z" fill="#104774"/>
<path d="M141.269 184.42H140.541V190.829H141.269V184.42Z" fill="#104774"/>
<path d="M141.269 195.102H140.541V201.511H141.269V195.102Z" fill="#104774"/>
<path d="M141.269 216.473H140.541V219.924H144V219.198H141.269V216.473Z" fill="#104774"/>
<path d="M184.475 219.198H178.402V219.924H184.475V219.198Z" fill="#104774"/>
<path d="M194.588 219.198H188.516V219.924H194.588V219.198Z" fill="#104774"/>
<path d="M174.354 219.198H168.281V219.924H174.354V219.198Z" fill="#104774"/>
<path d="M154.119 219.198H148.047V219.924H154.119V219.198Z" fill="#104774"/>
<path d="M164.235 219.198H158.162V219.924H164.235V219.198Z" fill="#104774"/>
<path d="M204.709 219.198H198.637V219.924H204.709V219.198Z" fill="#104774"/>
<path d="M255.299 219.198H249.227V219.924H255.299V219.198Z" fill="#104774"/>
<path d="M275.539 219.198H269.467V219.924H275.539V219.198Z" fill="#104774"/>
<path d="M285.653 219.198H279.58V219.924H285.653V219.198Z" fill="#104774"/>
<path d="M295.774 219.198H289.701V219.924H295.774V219.198Z" fill="#104774"/>
<path d="M214.83 219.198H208.758V219.924H214.83V219.198Z" fill="#104774"/>
<path d="M305.895 219.198H299.822V219.924H305.895V219.198Z" fill="#104774"/>
<path d="M224.944 219.198H218.871V219.924H224.944V219.198Z" fill="#104774"/>
<path d="M265.42 219.198H259.348V219.924H265.42V219.198Z" fill="#104774"/>
<path d="M235.065 219.198H228.992V219.924H235.065V219.198Z" fill="#104774"/>
<path d="M245.186 219.198H239.113V219.924H245.186V219.198Z" fill="#104774"/>
<path d="M313.03 219.198H309.936V219.924H313.03V219.198Z" fill="#104774"/>
<path d="M180.544 96.1011H100.488V175.998H180.544V96.1011Z" fill="white"/>
<path d="M150.968 166.515C127.697 166.515 108.832 147.687 108.832 124.463C108.832 113.534 113.011 103.578 119.855 96.1011H100.48V175.998H180.536V154.409C172.927 161.893 162.486 166.515 150.968 166.515Z" fill="#FFEA92"/>
<path d="M181.497 176.95H99.541V95.1565H181.497V176.95ZM101.441 175.053H179.589V97.0604H101.441V175.053Z" fill="#104774"/>
<path opacity="0.5" d="M219.141 103.477H188.801V110.852H219.141V103.477Z" fill="#104774"/>
<path opacity="0.5" d="M231.496 103.477H223.254V110.852H231.496V103.477Z" fill="#104774"/>
<g opacity="0.3">
<path d="M254.724 119.122H249.664V120.67H254.724V119.122Z" fill="#104774"/>
<path d="M245.732 119.122H226.91V120.67H245.732V119.122Z" fill="#104774"/>
<path d="M222.505 119.122H207.025V120.67H222.505V119.122Z" fill="#104774"/>
<path d="M200.414 119.122H188.801V120.67H200.414V119.122Z" fill="#104774"/>
<path d="M265.02 124.877H248.725V126.425H265.02V124.877Z" fill="#104774"/>
<path d="M243.483 124.877H222.506V126.425H243.483V124.877Z" fill="#104774"/>
<path d="M220.262 124.877H212.02V126.425H220.262V124.877Z" fill="#104774"/>
<path d="M206.218 124.877H197.51V126.425H206.218V124.877Z" fill="#104774"/>
<path d="M193.111 124.877H188.801V126.425H193.111V124.877Z" fill="#104774"/>
<path d="M241.734 130.632H208.576V132.18H241.734V130.632Z" fill="#104774"/>
<path d="M196.482 130.632H188.801V132.18H196.482V130.632Z" fill="#104774"/>
<path d="M251.724 136.38H241.734V137.928H251.724V136.38Z" fill="#104774"/>
<path d="M236.325 136.38H225.258V137.928H236.325V136.38Z" fill="#104774"/>
<path d="M219.141 136.38H188.801V137.928H219.141V136.38Z" fill="#104774"/>
<path d="M212.019 142.135H205.088V143.683H212.019V142.135Z" fill="#104774"/>
<path d="M200.414 142.135H188.801V143.683H200.414V142.135Z" fill="#104774"/>
<path d="M225.25 147.89H213.229V149.438H225.25V147.89Z" fill="#104774"/>
<path d="M207.025 147.89H196.475V149.438H207.025V147.89Z" fill="#104774"/>
<path d="M193.111 147.89H188.801V149.438H193.111V147.89Z" fill="#104774"/>
<path d="M235.239 153.638H209.959V155.186H235.239V153.638Z" fill="#104774"/>
<path d="M205.096 153.638H188.801V155.186H205.096V153.638Z" fill="#104774"/>
</g>
<path d="M173.925 173.709C171.617 168.964 168.763 163.267 167.751 161.951C165.959 159.604 156.676 160.702 153.261 160.404C149.846 160.106 145.281 157.235 145.478 150.223C145.674 143.203 134.905 148.421 134.905 148.421C134.905 148.421 130.697 155.419 129.357 158.1C128.018 160.781 110.892 161.951 109.043 162.961C108.053 163.499 106.196 168.862 104.682 173.716H173.925V173.709Z" fill="#258BC0"/>
<path d="M136.05 149.802C134.237 152.069 132.154 154.3 136.05 156.618L138.598 158.1L140.513 168.15L142.974 158.972C142.974 158.972 145.864 156.48 144.641 151.059C143.418 145.638 139.974 146.553 139.974 146.553" fill="#FDC4BF"/>
<path d="M127.697 126.476C127.697 126.476 127.981 144.475 133.355 150.332C138.728 156.189 145.798 155.041 149.475 146.88C153.152 138.72 153.997 125.059 153.997 125.059C153.997 125.059 129.954 113.091 127.697 126.476Z" fill="#FDC4BF"/>
<g style="mix-blend-mode:multiply">
<path d="M127.697 126.476C127.697 126.476 127.981 144.475 133.355 150.332C136.121 153.348 139.332 154.503 142.303 153.806C131.17 152.73 130.136 135.552 131.614 131.177C133.231 126.389 135.765 124.078 137.221 124.158C138.677 124.238 136.762 121.077 136.762 121.077H138.306L151.077 126.381L152.118 135.145L152.81 134.825C153.727 129.499 154.004 125.066 154.004 125.066C154.004 125.066 129.962 113.098 127.705 126.483L127.697 126.476Z" fill="#FDC4BF"/>
</g>
<path d="M128.244 134.164C128.244 134.164 127.975 129.368 125.433 130.32C122.885 131.272 125.899 136.853 129.059 139.505C128.987 139.127 128.244 134.164 128.244 134.164Z" fill="#FDC4BF"/>
<g style="mix-blend-mode:multiply">
<path d="M128.244 134.164C128.244 134.164 127.975 129.368 125.433 130.32C122.885 131.272 125.899 136.853 129.059 139.505C128.987 139.127 128.244 134.164 128.244 134.164Z" fill="#FDC4BF"/>
</g>
<path d="M152.112 135.138C152.112 135.138 152.454 130.342 155.701 131.293C158.948 132.245 155.104 137.826 151.07 140.479C151.165 140.101 152.112 135.138 152.112 135.138Z" fill="#FDC4BF"/>
<path opacity="0.8" d="M155.701 131.294C154.398 130.908 153.568 131.461 153.036 132.246C155.745 131.78 156.327 134.535 151.18 139.948C151.129 140.224 151.085 140.42 151.07 140.479C155.104 137.826 158.948 132.246 155.701 131.294Z" fill="#FFEA92"/>
<path d="M152.112 135.138L152.796 125.517L138.3 121.07C138.3 121.07 139.523 123.075 138.97 123.075C138.416 123.075 133.057 121.07 133.057 121.07L128.492 135.828C128.492 135.828 126.257 120.183 127.262 117.291C128.266 114.399 135.846 111.841 138.853 111.281C141.86 110.722 150.954 113.948 153.991 117.291C157.027 120.634 152.105 135.145 152.105 135.145L152.112 135.138Z" fill="#C36357"/>
<g style="mix-blend-mode:multiply" opacity="0.6">
<path d="M152.112 135.138L152.796 125.517L138.3 121.07C138.3 121.07 139.523 123.075 138.97 123.075C138.416 123.075 133.057 121.07 133.057 121.07L128.492 135.828C128.492 135.828 126.257 120.183 127.262 117.291C128.266 114.399 135.846 111.841 138.853 111.281C141.86 110.722 150.954 113.948 153.991 117.291C157.027 120.634 152.105 135.145 152.105 135.145L152.112 135.138Z" fill="#541970"/>
</g>
<path d="M135.961 142.76C135.961 142.76 138.189 144.206 145.215 142.76C142.427 147.098 138.859 148.544 135.961 142.76Z" fill="white"/>
<g style="mix-blend-mode:multiply">
<path d="M140.352 140.9C140.352 140.9 137.826 140.115 137.848 138.495C137.877 136.874 140.047 136.642 140.047 130.356C140.047 128.213 141.401 135.494 140.185 137.223C138.969 138.96 140.352 140.9 140.352 140.9Z" fill="#FDC4BF"/>
</g>
<g style="mix-blend-mode:multiply" opacity="0.6">
<path d="M140.992 118.01C142.441 118.78 139.274 115.249 139.274 115.249C139.274 115.249 143.679 116.092 145.215 115.707C146.752 115.322 143.985 113.33 143.985 113.33L149.264 114.05C145.47 112.182 140.847 110.903 138.859 111.274C135.852 111.834 128.265 114.391 127.268 117.283C126.372 119.878 128.068 132.703 128.433 135.341C128.607 133.793 130.1 120.488 130.464 118.395C130.85 116.172 139.551 117.247 141 118.01H140.992Z" fill="#541970"/>
</g>
<g style="mix-blend-mode:multiply">
<path d="M137.171 132.224C137.215 132.565 136.567 132.936 135.722 133.045C134.877 133.161 134.149 132.972 134.106 132.631C134.062 132.289 134.71 131.918 135.555 131.809C136.399 131.7 137.127 131.882 137.171 132.224Z" fill="#FDC4BF"/>
</g>
<g style="mix-blend-mode:multiply">
<path d="M146.789 132.965C146.723 133.307 145.995 133.452 145.158 133.299C144.321 133.147 143.687 132.747 143.753 132.405C143.818 132.064 144.546 131.919 145.384 132.071C146.221 132.224 146.854 132.623 146.789 132.965Z" fill="#FDC4BF"/>
</g>
<path opacity="0.3" d="M150.662 115.787C150.662 115.787 155.475 117.378 153.99 125.059C153.429 119.929 152.774 117.858 150.662 115.787Z" fill="#FFEA92"/>
<path opacity="0.8" d="M151.18 139.941C151.18 139.941 147.998 151.858 142.297 153.798C145.1 153.137 147.685 150.841 149.469 146.881C150.401 144.817 151.143 142.404 151.748 139.948H151.18V139.941Z" fill="#FFEA92"/>
<g style="mix-blend-mode:multiply" opacity="0.5">
<path d="M143.307 169.523L148.135 163.121L143.911 160.128L140.897 171.049L139.667 170.49L137.642 159.365L134.286 165.403C134.286 165.403 130.813 163.724 129.699 160.128C121.864 162.111 109.778 163.681 109.778 163.681L106.865 172.285H171.114L143.307 169.523Z" fill="#258BC0"/>
</g>
<path opacity="0.5" d="M191.545 201.729C191.545 203.902 189.776 205.667 187.599 205.667C185.422 205.667 183.652 203.902 183.652 201.729C183.652 199.556 185.422 197.79 187.599 197.79C189.776 197.79 191.545 199.556 191.545 201.729Z" fill="#104774"/>
<path d="M203.785 201.729C203.785 203.902 202.016 205.667 199.839 205.667C197.662 205.667 195.893 203.902 195.893 201.729C195.893 199.556 197.662 197.79 199.839 197.79C202.016 197.79 203.785 199.556 203.785 201.729Z" fill="#062A47"/>
<path opacity="0.5" d="M216.018 201.729C216.018 203.902 214.248 205.667 212.071 205.667C209.894 205.667 208.125 203.902 208.125 201.729C208.125 199.556 209.894 197.79 212.071 197.79C214.248 197.79 216.018 199.556 216.018 201.729Z" fill="#104774"/>
<path opacity="0.5" d="M228.248 201.729C228.248 203.902 226.479 205.667 224.302 205.667C222.125 205.667 220.355 203.902 220.355 201.729C220.355 199.556 222.125 197.79 224.302 197.79C226.479 197.79 228.248 199.556 228.248 201.729Z" fill="#104774"/>
<path opacity="0.5" d="M240.481 201.729C240.481 203.902 238.711 205.667 236.534 205.667C234.357 205.667 232.588 203.902 232.588 201.729C232.588 199.556 234.357 197.79 236.534 197.79C238.711 197.79 240.481 199.556 240.481 201.729Z" fill="#104774"/>
<path style="mix-blend-mode:multiply" opacity="0.5" d="M325.414 117.77L310.699 244.072H328.283L330.613 117.981L325.414 117.77Z" fill="url(#paint5_linear_2151_68077)"/>
<path d="M357.816 291.516C418.268 291.516 467.273 288.776 467.273 285.397C467.273 282.018 418.268 279.279 357.816 279.279C297.365 279.279 248.359 282.018 248.359 285.397C248.359 288.776 297.365 291.516 357.816 291.516Z" fill="url(#paint6_linear_2151_68077)"/>
<path d="M358.283 111.092C334.517 111.514 325.518 107.888 325.416 117.77C325.314 127.653 320.574 276.815 320.348 282.97C320.122 289.125 324.447 288.543 345.49 288.173C366.532 287.802 458.602 286.167 466.094 286.036C473.586 285.906 470.98 265.864 468.227 244.261C465.475 222.657 457.888 142.724 455.704 126.483C453.519 110.242 455.733 110.918 441.032 110.831C426.332 110.743 358.29 111.1 358.29 111.1L358.283 111.092Z" fill="#062A47"/>
<g style="mix-blend-mode:multiply" opacity="0.5">
<path d="M379.863 122.653L384.013 110.969C378.705 110.991 373.827 111.012 369.772 111.034C369.327 112.211 368.665 113.759 368.133 114.122C367.245 114.726 330.621 117.981 330.621 117.981L379.87 122.653H379.863Z" fill="#826160"/>
</g>
<path d="M466.691 240.3C464.04 219.496 456.73 142.513 454.626 126.868C452.522 111.223 454.655 111.877 440.493 111.79C435.644 111.761 424.773 111.783 412.57 111.819L413.16 112.64C413.16 112.64 443.398 112.662 446.311 112.64C449.223 112.618 452.034 111.775 453.527 121.251C455.449 133.459 467.783 254.15 468.81 263.873C469.661 271.917 469.421 278.457 468.176 282.49C471.707 277.462 468.89 257.631 466.683 240.3H466.691Z" fill="white"/>
<g style="mix-blend-mode:multiply" opacity="0.7">
<path d="M469.429 283.733C468.671 283.747 344.689 286.523 333.454 286.138C322.19 285.753 323.144 285.782 322.853 276.205C322.562 266.62 326.697 131.235 326.857 121.164C326.952 115.045 326.945 113.338 327.476 112.451C326.1 113.498 325.445 115.162 325.416 117.77C325.314 127.653 320.574 276.815 320.348 282.97C320.122 289.125 324.447 288.543 345.49 288.173C366.532 287.802 458.602 286.167 466.094 286.036C467.579 286.007 468.664 285.186 469.436 283.733H469.429Z" fill="#826160"/>
</g>
<g style="mix-blend-mode:multiply" opacity="0.5">
<path d="M332.273 117.981H330.613L324.752 281.88C324.752 281.88 420.222 278.588 427.685 278.196C435.155 277.803 438.534 280.616 445.64 274.148C452.754 267.681 460.989 254.877 460.989 254.877L436.568 145.071L332.259 117.981H332.273Z" fill="#826160"/>
</g>
<path d="M374.708 117.981H332.273L328.283 277.622C328.283 277.622 434.682 275.885 438.242 275.573C441.796 275.26 461.003 254.885 461.003 254.885C460.057 232.198 448.676 117.988 448.676 117.988H374.715L374.708 117.981Z" fill="white"/>
<g style="mix-blend-mode:multiply">
<path d="M348.512 117.981C355.116 120.089 367.807 124.049 370.799 124.31C374.891 124.667 413.292 120.939 413.292 120.939L405.195 117.981H348.512Z" fill="#E7DFEB"/>
</g>
<path d="M460.996 254.884C460.945 253.584 460.85 251.978 460.734 250.117C459.263 251.527 451.166 256.534 439.189 255.858C433.735 268.633 410.232 271.59 395.67 273.073C384.384 274.221 345.328 275.899 328.312 276.597L328.283 277.629C328.283 277.629 434.682 275.892 438.242 275.58C441.803 275.267 461.003 254.892 461.003 254.892L460.996 254.884Z" fill="#D1EAFF"/>
<g style="mix-blend-mode:multiply">
<path d="M449.616 259.877L438.236 260.945C438.236 260.945 433.976 271.002 420.965 275.994C430.678 275.798 437.384 275.645 438.236 275.573C440.216 275.398 447.046 269.004 452.71 263.365L449.609 259.877H449.616Z" fill="#BDD4E6"/>
</g>
<path d="M438.244 275.573C438.244 275.573 442.751 270.057 445.117 257.987C453.891 255.618 460.997 254.885 460.997 254.885C460.997 254.885 442.991 275.42 438.236 275.573H438.244Z" fill="white"/>
<path d="M383.955 93.965C382.921 94.8951 382.178 100.178 382.71 101.421C383.241 102.663 387.69 106.391 386.62 108.876C385.549 111.361 396.063 106.958 396.063 106.958L389.321 100.694C389.321 100.694 386.263 95.8834 392.488 95.9197C398.714 95.956 399.493 96.4138 398.75 100.694C400.847 99.2914 400.847 96.7336 400.847 96.7336C400.847 96.7336 401.735 94.6044 398 92.7732C394.265 90.9421 385.731 92.3663 383.955 93.965Z" fill="#072F50"/>
<path d="M413.291 106.921C413.291 106.921 404.757 107.808 401.736 105.504C398.714 103.201 408.492 100.178 401.91 92.904C395.335 85.6301 385.906 91.487 383.955 93.9722C381.996 96.4574 386.445 101.958 387.865 103.375C389.285 104.792 388.222 106.921 384.13 106.921C380.038 106.921 373.769 106.405 373.638 107.633C373.492 109.043 371.504 120.052 371.861 120.939C372.218 121.825 409.912 120.764 413.291 120.939C416.669 121.113 413.291 106.921 413.291 106.921ZM398.357 97.8744C397.644 100.89 391.425 102.307 389.292 97.8744C387.159 93.4417 392.008 91.8939 397.097 93.26C398.903 93.7469 399.071 94.8587 398.357 97.8744Z" fill="#104774"/>
<g style="mix-blend-mode:multiply" opacity="0.4">
<path d="M413.291 120.939C414.303 120.99 414.704 119.762 414.776 118.01C408.544 118.134 382.747 118.613 377.912 118.454C372.422 118.279 374.789 107.038 374.811 106.95C374.119 107.067 373.682 107.27 373.646 107.626C373.5 109.036 371.512 120.045 371.869 120.931C372.226 121.818 409.92 120.757 413.298 120.931L413.291 120.939Z" fill="#541970"/>
</g>
<path d="M401.378 94.321C401.378 94.321 404.225 96.7554 401.378 100.774C398.531 104.792 398.728 106.035 402.012 107.452C405.288 108.869 411.958 108.426 411.958 108.426L413.378 116.673L410.531 110.286C410.531 110.286 404.75 109.755 401.371 108.426C397.993 107.096 397.214 105.853 399.383 102.481C401.553 99.1098 402.339 97.1405 401.371 94.321H401.378Z" fill="#BDD4E6"/>
<path d="M338.973 223.42L339.351 207.986L356.025 207.644L356.236 222.555L338.973 223.42ZM340.363 208.996L340.036 222.337L355.195 221.581L355.013 208.698L340.363 208.996Z" fill="#3577AC"/>
<path d="M356.528 244.777H338.521L338.9 229.4L356.302 228.717L356.528 244.769V244.777ZM339.577 243.745H355.479L355.283 229.793L339.905 230.396L339.577 243.752V243.745Z" fill="#3577AC"/>
<path d="M339.453 202.092L339.795 187.937H355.77L355.967 201.634L339.453 202.099V202.092ZM340.807 188.961L340.516 201.031L354.925 200.632L354.758 188.969H340.807V188.961Z" fill="#3577AC"/>
<path d="M355.232 143.538H340.729L341.012 131.838H355.065L355.232 143.538ZM341.792 142.513H354.191L354.053 132.87H342.025L341.792 142.513Z" fill="#3577AC"/>
<path d="M355.479 162.54H340.312L340.626 149.627H355.29L355.472 162.54H355.479ZM341.368 161.508H354.431L354.278 150.652H341.638L341.376 161.508H341.368Z" fill="#3577AC"/>
<path d="M355.705 181.971H339.912L340.247 168.404H355.516L355.712 181.971H355.705ZM340.975 180.946H354.664L354.503 169.436H341.259L340.975 180.946Z" fill="#3577AC"/>
<path d="M345.191 135.668H343.902L345.191 140.994H348.511L358.348 127.508L346.793 137.688L345.191 135.668Z" fill="#3577AC"/>
<path d="M343.574 193.605H342.125L343.574 199.578H347.295L358.347 184.434L345.372 195.872L343.574 193.605Z" fill="#3577AC"/>
<path d="M343.574 214.366H342.125L343.574 220.339H347.295L358.347 205.195L345.372 216.633L343.574 214.366Z" fill="#3577AC"/>
<path d="M420.77 131.64L419.738 131.708L424.339 200.479L425.371 200.41L420.77 131.64Z" fill="#3577AC"/>
<path d="M391.973 134.658H364.516V136.206H391.973V134.658Z" fill="#87A3B9"/>
<path d="M384.719 139.047H365.461V140.595H384.719V139.047Z" fill="#87A3B9"/>
<path d="M399.458 139.047H389.482V140.595H399.458V139.047Z" fill="#87A3B9"/>
<path d="M393.756 151.691H364.748V153.239H393.756V151.691Z" fill="#87A3B9"/>
<path d="M379.252 155.31H364.748V156.857H379.252V155.31Z" fill="#87A3B9"/>
<path d="M399.836 168.143H365.936V169.69H399.836V168.143Z" fill="#87A3B9"/>
<path d="M389.876 174.414H365.936V175.961H389.876V174.414Z" fill="#87A3B9"/>
<path d="M405.777 174.414H394.885V175.961H405.777V174.414Z" fill="#87A3B9"/>
<path d="M380.898 180.147H365.936V181.695H380.898V180.147Z" fill="#87A3B9"/>
<path d="M384.013 191.236H367.361V192.784H384.013V191.236Z" fill="#87A3B9"/>
<path d="M388.775 195.465H367.361V197.013H388.775V195.465Z" fill="#87A3B9"/>
<path d="M386.802 210.841H367.361V212.389H386.802V210.841Z" fill="#87A3B9"/>
<path d="M405.778 210.841H391.732V212.389H405.778V210.841Z" fill="#87A3B9"/>
<path d="M398.757 215.245H367.361V216.793H398.757V215.245Z" fill="#87A3B9"/>
<path d="M381.823 232.605H367.836V234.153H381.823V232.605Z" fill="#87A3B9"/>
<path d="M390.028 237.335H368.068V238.883H390.028V237.335Z" fill="#87A3B9"/>
<path d="M407.182 248.562V247.531C408.347 247.531 452.259 246.593 452.703 246.586L452.725 247.618C450.912 247.654 408.361 248.562 407.182 248.562Z" fill="#3577AC"/>
<path d="M410.226 248.083L409.01 228.746H416.429V229.771H410.109L411.26 248.017L410.226 248.083Z" fill="#3577AC"/>
<path d="M417.558 247.843L416.43 222.882L427.097 222.504L428.793 247.611L417.558 247.843Z" fill="#FDE0DD"/>
<path d="M417.063 248.366L415.891 222.381L427.577 221.967L429.346 248.112L417.063 248.366ZM416.968 223.376L418.046 247.32L428.239 247.109L426.616 223.035L416.968 223.376Z" fill="#3577AC"/>
<path d="M441.229 247.349L440.137 215.528H426.623L428.793 247.61L441.229 247.349Z" fill="#FFEA92"/>
<path d="M428.311 248.133L426.076 215.012H440.638L441.767 247.85L428.319 248.133H428.311ZM427.176 216.044L429.273 247.087L440.697 246.847L439.641 216.044H427.176Z" fill="#3577AC"/>
<path d="M450.802 247.102L449.615 231.311H440.674L441.227 247.349L450.802 247.102Z" fill="#FDC4BF"/>
<path d="M440.733 247.872L440.15 230.795H450.104L451.363 247.596L440.733 247.865V247.872ZM441.213 231.827L441.73 246.818L450.249 246.6L449.143 231.827H441.213Z" fill="#3577AC"/>
<path d="M389.49 260.037L339.99 260.718L340.004 261.75L389.504 261.069L389.49 260.037Z" fill="#87A3B9"/>
<path d="M394.867 264.63L339.717 265.312L339.73 266.344L394.88 265.662L394.867 264.63Z" fill="#87A3B9"/>
<path d="M440.676 142.513H429.951V143.545H440.676V142.513Z" fill="#87A3B9"/>
<path d="M437.559 146.037H430.664V147.069H437.559V146.037Z" fill="#87A3B9"/>
<path d="M440.682 172.771H432.316V173.803H440.682V172.771Z" fill="#87A3B9"/>
<path d="M442.895 176.318H432.498V177.349H442.895V176.318Z" fill="#87A3B9"/>
<path opacity="0.6" d="M64.569 280.935C64.4598 282.745 78.7307 285.106 97.3339 286.211C115.937 287.315 131.111 286.741 131.22 284.932C131.329 283.122 116.33 280.761 97.7271 279.656C79.1239 278.552 64.6782 279.126 64.569 280.935Z" fill="url(#paint7_linear_2151_68077)"/>
<path d="M61.3513 287.584C60.9145 289.764 71.1735 293.783 85.1678 296.558C99.1548 299.334 110.848 299.821 111.285 297.641C111.722 295.461 100.735 291.443 86.7405 288.667C72.7535 285.891 61.7882 285.404 61.3513 287.584Z" fill="url(#paint8_linear_2151_68077)"/>
<path d="M94.7856 200.116C94.7856 200.116 87.9924 202.419 82.4151 202.15C76.8377 201.882 71.1876 186.033 70.1974 182.211C69.2144 178.389 69.36 169.77 70.1974 167.779C71.0347 165.795 78.2503 176.71 80.3763 181.237C82.5024 185.764 86.5653 192.457 86.5653 192.457L94.4653 190.647C94.4653 190.647 96.8098 197.129 94.7784 200.108L94.7856 200.116Z" fill="#205972"/>
<g style="mix-blend-mode:multiply" opacity="0.85">
<path d="M94.7856 200.116C94.7856 200.116 87.9924 202.419 82.4151 202.15C76.8377 201.882 71.1876 186.033 70.1974 182.211C69.2144 178.389 69.36 169.77 70.1974 167.779C71.0347 165.795 78.2503 176.71 80.3763 181.237C82.5024 185.764 86.5653 192.457 86.5653 192.457L94.4653 190.647C94.4653 190.647 96.8098 197.129 94.7784 200.108L94.7856 200.116Z" fill="#205972"/>
</g>
<path d="M79.132 224.721C80.246 223.943 84.5492 223.071 84.5492 223.071C84.5492 223.071 83.9521 198.59 83.1075 191.548C82.2629 184.507 82.2993 171.463 71.9019 166.726C68.5817 171.819 72.346 224.728 72.346 224.728H79.1247L79.132 224.721Z" fill="#205972"/>
<g style="mix-blend-mode:multiply" opacity="0.9">
<path d="M79.132 224.721C80.246 223.943 84.5492 223.071 84.5492 223.071C84.5492 223.071 83.9521 198.59 83.1075 191.548C82.2629 184.507 82.2993 171.463 71.9019 166.726C68.5817 171.819 72.346 224.728 72.346 224.728H79.1247L79.132 224.721Z" fill="#205972"/>
</g>
<path d="M76.8738 278.843C76.8738 278.843 81.5701 280.703 82.189 281.698C82.8079 282.701 68.6899 282.665 65.377 279.823C67.4302 278.377 76.8811 278.843 76.8811 278.843H76.8738Z" fill="black"/>
<path d="M71.217 288.122C71.217 288.122 76.6195 291.058 76.8889 291.966C77.1583 292.874 70.1321 292.685 66.3677 291.515C62.6034 290.345 58.1328 285.964 58.1328 285.964C58.1328 285.964 68.7123 286.676 71.217 288.122Z" fill="black"/>
<path d="M80.3847 220.23C80.3847 220.23 79.6929 240.482 78.7974 250.968C77.9018 261.446 76.4893 275.086 76.8824 278.842C74.8947 280.703 68.2398 280.855 65.3783 279.823C67.0675 264.44 67.9777 252.45 68.1597 246.549C68.3417 240.649 63.791 218.755 63.791 218.755L80.3847 220.23Z" fill="#205972"/>
<g style="mix-blend-mode:multiply" opacity="0.8">
<path d="M80.3847 220.23C80.3847 220.23 79.6929 240.482 78.7974 250.968C77.9018 261.446 76.4893 275.086 76.8824 278.842C74.8947 280.703 68.2398 280.855 65.3783 279.823C67.0675 264.44 67.9777 252.45 68.1597 246.549C68.3417 240.649 63.791 218.755 63.791 218.755L80.3847 220.23Z" fill="#205972"/>
</g>
<path d="M57.959 217.04C57.959 217.04 62.5752 231.951 62.4005 241.092C62.2184 250.226 57.7551 275.863 58.1337 285.956C62.0582 288.42 71.2179 288.115 71.2179 288.115C71.2179 288.115 75.2225 238.098 75.1642 231.646C75.106 225.193 74.7128 217.04 74.7128 217.04H57.9663H57.959Z" fill="#205972"/>
<g style="mix-blend-mode:multiply" opacity="0.4">
<path d="M58.1259 285.695C59.8515 285.281 62.9169 284.365 63.7833 282.934C65.0138 280.899 68.7418 266.075 69.2078 263.713C69.6738 261.352 70.562 241.368 69.5136 237.917C68.6107 234.93 61.4097 225.142 59.4875 222.562C58.6502 219.285 57.9512 217.04 57.9512 217.04H74.6977C74.6977 217.04 75.0909 225.193 75.1491 231.646C75.2074 238.098 71.2028 288.115 71.2028 288.115C71.2028 288.115 62.0432 288.42 58.1186 285.956C58.1186 285.877 58.1186 285.782 58.1186 285.695H58.1259Z" fill="#205972"/>
</g>
<g style="mix-blend-mode:multiply" opacity="0.4">
<path d="M74.7047 217.04C74.7047 217.04 75.0397 223.972 75.1416 230.12L59.5164 222.592C59.5164 222.592 59.5018 222.57 59.4945 222.562C59.196 221.407 58.9193 220.375 58.6863 219.532C58.5917 218.733 58.497 217.861 58.4023 217.04H74.7047Z" fill="#205972"/>
</g>
<path d="M71.7042 219.932C71.7042 219.932 78.4902 221.312 81.1478 219.932C80.5362 212.847 80.1867 200.857 80.6236 194.411C81.1478 186.745 79.3785 178.49 77.6092 174.065C75.8399 169.639 72.7964 168.222 72.7964 168.222L66.3672 164.8L71.7042 219.939V219.932Z" fill="white"/>
<path opacity="0.5" d="M71.7773 186.999C71.7773 186.999 73.6267 177.262 72.5272 168.077L72.7966 168.222C72.7966 168.222 75.8401 169.639 77.6094 174.065C79.3787 178.49 81.1481 186.745 80.6238 194.411C80.187 200.864 80.5364 212.847 81.1481 219.932C78.4905 221.312 71.7045 219.932 71.7045 219.932L70.1172 203.509L71.7773 186.992V186.999Z" fill="#B69CC2"/>
<path d="M73.7583 206.67C81.3015 194.346 78.5857 176.971 78.5711 176.884C79.9472 181.52 81.0467 188.162 80.6171 194.411C80.1802 200.864 80.5297 212.847 81.1413 219.932C78.4837 221.312 71.6978 219.932 71.6978 219.932L70.9551 212.244C71.6249 210.521 72.5278 208.661 73.751 206.67H73.7583Z" fill="#B69CC2"/>
<path d="M75.8629 225.273C75.8629 225.273 77.3628 210.056 76.7148 198.517C76.0668 186.978 73.8824 176.347 72.3534 172.51C70.8244 168.68 67.6207 166.413 67.6207 166.413L65.7859 163.179L65.7058 162.562C65.7058 162.562 59.4659 163.063 57.0121 174.326C54.5875 185.452 55.9636 214.475 54.6895 220.375C58.512 226.37 67.9192 224.517 75.8629 225.266V225.273Z" fill="#205972"/>
<path opacity="0.3" d="M55.082 216.626C55.6427 206.663 54.9218 183.897 57.0042 174.334C59.458 163.07 65.6979 162.569 65.6979 162.569L65.7561 162.998L64.4164 164.16C64.4164 164.16 60.1497 165.207 57.9581 175.605C55.7665 186.004 57.5139 209.519 55.2131 216.299C55.1694 216.415 55.1257 216.524 55.082 216.626Z" fill="white"/>
<g style="mix-blend-mode:multiply" opacity="0.2">
<path d="M54.6816 220.39C54.9583 219.111 55.1112 216.756 55.1986 213.733C55.5554 216.894 56.1524 219.903 57.1499 220.542C70.7438 224.546 73.7727 214.845 73.7509 210.79C73.729 206.743 73.132 199.098 67.5838 197.819C63.2952 196.831 62.2467 186.731 62.2467 186.731C62.2467 186.731 59.094 165.178 64.2053 166.355C67.1615 167.031 70.9258 172.277 73.5834 176.586C74.8721 181.738 76.2191 189.87 76.707 198.517C77.3623 210.056 75.8551 225.273 75.8551 225.273C67.9041 224.532 58.5042 226.377 54.6816 220.382V220.39Z" fill="#205972"/>
</g>
<path d="M82.1688 147.389C82.1688 147.389 82.1688 151.19 81.9722 152.41C81.7829 153.624 82.875 156.654 83.0862 156.981C83.2973 157.308 82.2707 157.628 81.1421 158.02C80.7126 160.229 79.7078 163.15 79.1762 163.739C78.6447 164.328 73.1693 162.969 73.1693 162.969L72.7106 167.183L65.4004 162.969C65.4004 162.969 67.359 160.186 67.1551 158.936C66.944 157.679 64.4903 149.816 68.6769 146.851C72.8635 143.887 79.9553 144.076 82.1688 147.404V147.389Z" fill="#E8A6A3"/>
<g style="mix-blend-mode:multiply" opacity="0.7">
<path d="M65.7062 162.569C72.798 164.676 72.0844 161.595 72.0844 161.595C72.0844 161.595 77.7855 163.005 78.2879 162.322C78.7903 161.639 80.0645 156.559 80.0645 156.559L81.9139 156.836C81.9139 156.836 81.1858 155.142 81.1494 153.202C81.113 151.262 81.1858 148.479 78.2952 147.992C77.5817 150.535 74.8003 151.865 74.8003 151.865L73.1475 154.714L71.8514 145.333C75.8051 144.126 80.4577 144.809 82.176 147.396C82.176 147.396 82.176 151.197 81.9794 152.417C81.7901 153.631 82.8823 156.661 83.0935 156.988C83.3046 157.315 82.278 157.635 81.1494 158.027C80.7198 160.236 79.715 163.158 79.1835 163.746C78.652 164.335 73.1766 162.976 73.1766 162.976L72.7179 167.191L65.4805 163.012C65.5606 162.867 65.6334 162.722 65.7207 162.576L65.7062 162.569Z" fill="#E8A6A3"/>
</g>
<path d="M73.131 154.714C73.131 154.714 74.2887 153.166 74.2377 150.703C76.8589 150.703 77.4997 148.61 77.6016 147.396C80.3757 147.091 83.3973 147.266 84.2201 146.662C85.0502 146.059 79.0287 141.997 75.4245 141.699C71.8204 141.401 67.8158 142.419 65.8717 144.759C63.9277 147.636 67.328 159.328 67.328 159.328C67.328 159.328 69.4613 155.971 70.1239 155.382C70.7865 154.786 73.131 154.728 73.131 154.728V154.714Z" fill="#C36357"/>
<g style="mix-blend-mode:multiply" opacity="0.4">
<path d="M78.2871 152.766H80.3768C80.3768 152.766 79.5904 154.699 78.2871 152.766Z" fill="black"/>
</g>
<path d="M64.4238 164.16L65.5597 161.603L73.7072 166.159L74.2533 171.115L64.4238 164.16Z" fill="white"/>
<path d="M63.0917 165.919C64.8391 166.123 69.8849 169.908 73.409 186.535C78.1417 187.654 91.9175 187.93 91.9175 187.93C91.9175 187.93 93.6796 193.946 91.9175 198.524C83.6025 197.587 66.1497 195.952 65.043 195.952C63.7542 195.829 59.007 179.668 59.0215 175.562C59.0361 171.449 59.9899 165.556 63.0844 165.919H63.0917Z" fill="#205972"/>
<g style="mix-blend-mode:multiply" opacity="0.4">
<path d="M63.0917 165.919C64.8391 166.123 69.8849 169.908 73.409 186.535C78.1417 187.654 91.9175 187.93 91.9175 187.93C91.9175 187.93 93.6796 193.946 91.9175 198.524C83.6025 197.587 66.1497 195.952 65.043 195.952C63.7542 195.829 59.007 179.668 59.0215 175.562C59.0361 171.449 59.9899 165.556 63.0844 165.919H63.0917Z" fill="#205972"/>
</g>
<g style="mix-blend-mode:multiply" opacity="0.4">
<path d="M87.25 195.167C90.7668 193.663 90.8687 190.168 90.5047 187.893C91.3857 187.915 91.9172 187.93 91.9172 187.93C91.9172 187.93 93.6792 193.946 91.9172 198.524C85.3933 197.79 73.263 196.628 67.7949 196.163C72.7825 196.482 83.1945 196.904 87.25 195.167Z" fill="#205972"/>
</g>
<g style="mix-blend-mode:multiply" opacity="0.2">
<path d="M73.4016 186.535L71.778 187L92.4199 190.328C92.7621 192.5 92.9805 195.77 91.9175 198.524C89.4419 198.248 86.1654 197.907 82.7506 197.565C77.2461 191.992 65.2832 187.479 65.2832 187.479C65.2832 187.479 64.8027 186.753 67.7151 186.542C67.7151 186.222 66.7904 169.894 64.2129 166.37C66.47 167.75 70.4674 172.677 73.4016 186.542V186.535Z" fill="#205972"/>
</g>
<g style="mix-blend-mode:multiply" opacity="0.8">
<path d="M90.6797 195.792C91.3277 194.724 91.6408 192.137 91.7937 190.219L92.4199 190.32C92.7621 192.493 92.9805 195.763 91.9175 198.517C89.4419 198.241 86.1654 197.899 82.7506 197.558C82.6778 197.478 82.5904 197.405 82.5176 197.333C86.1873 197.136 90.1191 196.715 90.687 195.792H90.6797Z" fill="#205972"/>
</g>
<path d="M91.918 187.93H94.7066C94.7066 187.93 95.4347 193.045 92.7043 195.167C92.6752 192.74 92.7771 190.073 91.918 187.93Z" fill="white"/>
<path d="M94.6989 187.93L98.507 186.745C98.507 186.745 99.1331 184.994 99.9195 184.209C100.706 183.424 102.344 183.962 103.312 184.209C104.281 184.456 106.225 184.274 106.465 184.638C106.705 185.001 107.011 187.239 106.465 187.937C105.919 188.634 99.4244 191.556 99.4244 191.556L94.2402 192.922C94.2402 192.922 95.114 190.814 94.6917 187.937L94.6989 187.93Z" fill="#E8A6A3"/>
<g style="mix-blend-mode:multiply" opacity="0.7">
<path d="M104.143 184.318C105.119 184.391 106.284 184.354 106.473 184.631C106.713 184.994 107.019 187.232 106.473 187.93C105.927 188.627 99.4322 191.548 99.4322 191.548L94.248 192.915C94.248 192.915 94.7432 191.723 94.8087 189.906C96.3669 189.579 98.2963 189.063 99.2938 188.358C100.685 187.377 103.051 185.299 104.143 184.325V184.318Z" fill="#E8A6A3"/>
</g>
<path d="M101.163 183.795C101.163 183.795 100.348 182.451 99.9184 180.997C99.4888 179.544 102.525 182.203 103.311 184.202C102.059 183.897 101.156 183.795 101.156 183.795H101.163Z" fill="#258BC0"/>
<g style="mix-blend-mode:multiply">
<path d="M89.9668 200.348L94.4738 190.655L109.99 187L110.412 188.773L98.8861 196.693L89.9668 200.348Z" fill="black"/>
</g>
<path d="M91.918 199.709C91.918 199.709 92.8718 200.435 95.7624 200.007C98.6457 199.585 99.4321 197.064 99.2864 196.177C99.1335 195.283 96.1774 197.805 96.1774 197.805C96.1774 197.805 96.4687 195.828 96.2211 195.53C95.9808 195.225 93.8693 199.069 91.918 199.709Z" fill="#E8A6A3"/>
<path opacity="0.5" d="M91.0153 199.92L89.9668 200.348L94.4738 190.655L109.99 187L110.412 188.773L95.0563 191.955L91.0153 199.92Z" fill="#B69CC2"/>
<g style="mix-blend-mode:multiply" opacity="0.4">
<path d="M71.9956 141.801C73.1315 141.634 74.2965 141.598 75.425 141.692C79.0292 141.99 85.0434 146.052 84.2206 146.655C83.3906 147.258 80.3762 147.084 77.6021 147.389C77.5001 148.603 76.8594 150.695 74.2382 150.695C74.2892 153.159 73.1315 154.707 73.1315 154.707C73.1315 154.707 72.265 154.728 71.435 154.881L70.5977 150.47C70.5977 150.47 71.6753 151.051 73.1315 151.378C73.3354 149.438 74.5003 148.595 75.1556 147.389C75.8109 146.183 77.5366 146.176 77.5293 144.889C77.5293 143.792 76.4517 142.288 71.9883 141.794L71.9956 141.801Z" fill="#7A4B90"/>
</g>
<path d="M72.3453 156.836C72.3453 156.836 69.0906 155.985 69.2144 152.476C69.3382 148.966 72.7457 150.296 73.1316 154.714C73.037 155.862 72.3453 156.836 72.3453 156.836Z" fill="#E8A6A3"/>
<path opacity="0.2" d="M63.0922 165.919C63.3106 165.948 63.58 166.028 63.8858 166.181C61.6432 167.321 60.3254 172.03 62.2549 182.211C63.9077 190.923 64.8396 194.586 65.2401 195.959C65.16 195.959 65.0872 195.959 65.0508 195.959C63.762 195.836 59.0148 179.675 59.0293 175.569C59.0439 171.456 59.9977 165.563 63.0922 165.926V165.919Z" fill="white"/>
<path opacity="0.3" d="M61.0379 229.291C62.3267 233.695 63.8994 239.435 63.7829 240.882C63.5863 243.301 62.6907 259.048 62.1009 260.501C61.6204 261.7 59.1157 279.729 58.2492 286.029C58.2055 286.007 58.1619 285.985 58.1255 285.956C57.7541 275.863 62.2174 250.226 62.3922 241.092C62.4577 237.619 61.8315 233.302 61.0306 229.291H61.0379Z" fill="white"/>
</g>
<defs>
<linearGradient id="paint0_linear_2151_68077" x1="386.138" y1="73.0587" x2="323.335" y2="140.61" gradientUnits="userSpaceOnUse">
<stop stop-opacity="0"/>
<stop offset="1" stop-opacity="0.5"/>
</linearGradient>
<linearGradient id="paint1_linear_2151_68077" x1="370.274" y1="62.7474" x2="387.368" y2="79.1129" gradientUnits="userSpaceOnUse">
<stop stop-opacity="0"/>
<stop offset="1" stop-opacity="0.5"/>
</linearGradient>
<linearGradient id="paint2_linear_2151_68077" x1="379.753" y1="66.1119" x2="413.464" y2="66.1119" gradientUnits="userSpaceOnUse">
<stop stop-opacity="0"/>
<stop offset="1" stop-opacity="0.5"/>
</linearGradient>
<linearGradient id="paint3_linear_2151_68077" x1="12.1895" y1="276.394" x2="272.3" y2="276.394" gradientUnits="userSpaceOnUse">
<stop stop-opacity="0"/>
<stop offset="1" stop-opacity="0.5"/>
</linearGradient>
<linearGradient id="paint4_linear_2151_68077" x1="65.6836" y1="276.364" x2="270.457" y2="276.364" gradientUnits="userSpaceOnUse">
<stop stop-opacity="0"/>
<stop offset="1" stop-opacity="0.5"/>
</linearGradient>
<linearGradient id="paint5_linear_2151_68077" x1="320.099" y1="237.226" x2="327.888" y2="148.861" gradientUnits="userSpaceOnUse">
<stop stop-opacity="0"/>
<stop offset="1" stop-opacity="0.5"/>
</linearGradient>
<linearGradient id="paint6_linear_2151_68077" x1="248.359" y1="285.397" x2="467.273" y2="285.397" gradientUnits="userSpaceOnUse">
<stop stop-opacity="0"/>
<stop offset="1" stop-opacity="0.5"/>
</linearGradient>
<linearGradient id="paint7_linear_2151_68077" x1="131.235" y1="285.038" x2="64.579" y2="281.058" gradientUnits="userSpaceOnUse">
<stop stop-opacity="0"/>
<stop offset="1" stop-opacity="0.5"/>
</linearGradient>
<linearGradient id="paint8_linear_2151_68077" x1="117.746" y1="299.771" x2="67.4846" y2="289.753" gradientUnits="userSpaceOnUse">
<stop stop-opacity="0"/>
<stop offset="1" stop-opacity="0.5"/>
</linearGradient>
<clipPath id="clip0_2151_68077">
<rect width="471" height="299" fill="white"/>
</clipPath>
</defs>
</svg>
