<svg width="392" height="302" viewBox="0 0 392 302" fill="none" xmlns="http://www.w3.org/2000/svg">
<g clip-path="url(#clip0_2345_33748)">
<path d="M65.8569 181.834C65.8569 181.834 44.2049 142.622 63.5135 124.481C82.8222 106.339 93.3589 96.3919 101.546 68.8874C109.734 41.3828 127.88 32.6043 164.159 35.5324C200.439 38.4605 244.912 53.6739 244.912 53.6739C244.912 53.6739 294.65 32.0198 320.983 44.3109C347.316 56.602 348.485 82.9319 337.954 112.78C327.423 142.628 339.707 159.595 343.22 173.055C346.732 186.515 345.563 239.771 300.506 238.596C255.448 237.427 66.4471 184.172 66.4471 184.172L65.8627 181.828L65.8569 181.834Z" fill="#D1EAFF"/>
<path d="M72.25 273.802L64.6297 275.195C64.4177 274.839 64.2057 274.484 63.9765 274.146C63.6499 273.665 63.3004 273.195 62.928 272.765C59.1923 268.462 53.3424 265.522 47.8019 266.829C44.1579 267.688 40.8061 270.272 37.0934 269.826C31.0143 269.086 28.7798 261.219 23.583 257.987C17.6644 254.308 8.93826 257.288 3.66706 252.727C-0.555633 249.071 -0.102997 242.355 2.76752 237.416C3.15713 236.746 3.58685 236.115 4.05667 235.519C8.27363 230.225 15.046 227.056 21.8126 227.228C28.585 227.4 35.1854 230.907 39.1274 236.413C43.287 242.224 44.92 250.337 51.1824 253.781C54.2076 255.449 57.8287 255.672 60.9857 257.082C63.7015 258.297 66.2741 260.887 68.3081 264.101C69.9525 266.68 71.2416 269.665 71.9865 272.685C72.0781 273.057 72.1641 273.435 72.2386 273.802H72.25Z" fill="#3577AC"/>
<path d="M69.7896 274.45C69.5833 274.106 69.3714 273.762 69.1536 273.424C68.4947 272.393 67.7671 271.39 66.9936 270.433C64.6158 267.488 61.837 265.081 58.743 263.287C55.1792 261.219 51.4607 260.886 47.5245 260.531C43.7373 260.193 39.8182 259.838 36.0883 257.798C32.6563 255.924 30.0092 252.366 27.4481 248.928C24.8984 245.507 22.2686 241.966 18.9397 240.247C13.955 237.668 5.32622 237.863 2.79948 237.983L2.74219 236.837C6.07107 236.677 14.3675 236.591 19.4611 239.227C23.0249 241.066 25.7407 244.716 28.3648 248.24C30.8515 251.581 33.424 255.036 36.6383 256.789C40.162 258.72 43.955 259.059 47.6276 259.391C51.5123 259.74 55.5344 260.101 59.3217 262.296C62.536 264.164 65.4179 266.657 67.8874 269.717C68.6838 270.708 69.4344 271.745 70.1162 272.805C70.3454 273.149 70.5631 273.51 70.7751 273.865L69.7896 274.45Z" fill="white"/>
<path d="M76.1965 226.724C74.5178 231.938 72.8275 238.499 76.8726 242.195C78.5342 243.708 80.8489 244.327 82.5621 245.793C85.467 248.275 85.9712 252.664 85.0831 256.377C83.983 260.995 82.1782 266.25 80.3963 271.149C80.2416 271.567 80.0869 271.986 79.9379 272.398L66.7656 274.805C66.8 274.415 66.8401 274.014 66.8917 273.619C67.0407 272.479 67.2297 271.292 67.436 270.083C67.7626 268.112 68.1121 266.078 68.3184 264.101C68.92 258.182 68.1579 252.79 61.2538 251.185C58.2801 250.492 54.8711 251.552 52.2641 249.971C48.1503 247.461 49.5998 241.272 48.5513 236.568C47.5716 232.156 44.025 228.718 40.0888 226.5C36.1468 224.283 31.7522 223.051 27.5754 221.326C18.3737 217.521 10.0085 211.006 5.58529 202.09C1.15634 193.18 1.25374 181.748 7.21249 173.772C13.1655 165.801 25.295 162.598 33.7347 167.87C42.7473 173.497 45.9902 186.578 56.0227 190.074C59.7756 191.38 63.9352 191.088 67.6766 192.406C73.8474 194.595 77.818 200.961 78.7863 207.436C79.7488 213.911 78.1904 220.495 76.1908 226.724H76.1965Z" fill="#3577AC"/>
<path d="M72.288 273.688V272.524C72.2651 270.851 72.3797 269.115 72.5 267.27C72.8667 261.58 73.2506 255.701 69.5435 252.314C62.9431 246.286 61.2758 239.8 59.6658 233.531C57.5172 225.159 55.2941 216.501 41.1535 208.439C39.6466 207.579 38.0653 206.725 36.5355 205.9C24.9216 199.643 11.7665 192.555 9.73828 170.546L10.8785 170.442C12.8437 191.839 25.1623 198.474 37.0741 204.892C38.6096 205.723 40.1967 206.576 41.715 207.442C56.2738 215.75 58.56 224.644 60.7716 233.244C62.4102 239.634 63.9629 245.667 70.3113 251.466C74.4194 255.219 74.0241 261.379 73.6345 267.339C73.5141 269.161 73.4053 270.88 73.4225 272.507V273.676H72.2823L72.288 273.688Z" fill="white"/>
<path d="M27.3565 221.853C17.1292 217.624 9.2167 210.696 5.07422 202.348L6.09981 201.838C10.122 209.94 17.8282 216.673 27.7977 220.799L27.3622 221.859L27.3565 221.853Z" fill="#062B6B"/>
<path d="M66.1338 275.498L66.1969 274.753C66.2312 274.358 66.2771 273.951 66.3229 273.544C66.4833 272.284 66.7011 270.977 66.8672 269.98L66.9532 269.47C67.2511 267.682 67.5605 265.826 67.7438 264.038C68.271 258.841 67.8985 253.317 61.1147 251.741C59.9917 251.483 58.7599 251.483 57.5624 251.483C55.643 251.489 53.6663 251.489 51.9589 250.452C48.8592 248.561 48.6586 244.836 48.4696 241.232C48.3893 239.691 48.3034 238.092 47.9883 236.688L49.1055 236.436C49.4436 237.937 49.5295 239.582 49.6155 241.169C49.7988 244.63 49.9764 247.896 52.5605 249.472C53.9929 250.343 55.7289 250.349 57.5681 250.332C58.8286 250.332 60.135 250.332 61.384 250.618C69.0731 252.406 69.4341 258.789 68.8897 264.147C68.7007 265.969 68.3913 267.843 68.0876 269.648L68.0017 270.164C67.8355 271.149 67.6235 272.444 67.4631 273.676C67.4459 273.814 67.4287 273.951 67.4115 274.089L79.5124 271.877L79.8619 270.931C81.4318 266.611 83.3798 261.03 84.5257 256.228C85.2935 253.008 85.0872 248.687 82.1881 246.212C81.4089 245.547 80.4921 245.066 79.5238 244.556C78.4753 244.006 77.3924 243.433 76.4814 242.607L77.2549 241.759C78.0571 242.493 79.0311 243.003 80.0567 243.541C81.0364 244.057 82.0506 244.59 82.9272 245.341C86.216 248.148 86.4853 252.944 85.6373 256.491C84.4799 261.351 82.5147 266.972 80.9333 271.327L80.3603 272.885L66.1281 275.487L66.1338 275.498Z" fill="#062B6B"/>
<path d="M76.7392 226.895L75.6506 226.546C77.4783 220.856 79.2087 214.146 78.2232 207.516C77.1919 200.606 72.9749 194.887 67.486 192.939C65.664 192.297 63.6758 192.039 61.7507 191.793C59.7854 191.541 57.7514 191.277 55.832 190.607L56.2102 189.524C58.0207 190.154 59.9917 190.406 61.8996 190.653C63.8821 190.91 65.9333 191.174 67.8699 191.856C73.7541 193.942 78.2633 200.021 79.3576 207.344C80.3775 214.209 78.6071 221.079 76.7392 226.895Z" fill="#633F3F"/>
<path d="M3.0756 187.604L1.92969 187.552C2.15887 182.223 3.83191 177.341 6.75399 173.428C13.1253 164.89 25.6215 162.122 34.0382 167.382C38.1807 169.967 41.1257 174.087 43.979 178.069C44.9931 179.484 46.0416 180.951 47.1188 182.304L46.2193 183.014C45.1249 181.639 44.0649 180.161 43.0451 178.734C40.2548 174.843 37.3728 170.815 33.4251 168.351C25.4897 163.394 13.6925 166.036 7.66499 174.11C4.88042 177.84 3.29333 182.504 3.06987 187.598L3.0756 187.604Z" fill="#062B6B"/>
<path d="M37.967 270.45C37.6576 270.45 37.3425 270.433 37.0273 270.393L37.1649 269.252C39.3593 269.522 41.4448 268.639 43.645 267.711C44.9399 267.161 46.2806 266.599 47.6672 266.273L47.9307 267.39C46.6358 267.694 45.341 268.244 44.0919 268.771C42.1324 269.602 40.1099 270.45 37.967 270.45Z" fill="#062B6B"/>
<path d="M3.293 253.157C-1.2219 249.249 -0.637486 242.132 2.27314 237.124C2.66848 236.442 3.12111 235.777 3.60813 235.158C7.92249 229.732 14.9068 226.477 21.8282 226.649C28.7552 226.827 35.5619 230.437 39.5956 236.069L38.6616 236.734C34.8343 231.382 28.3713 227.956 21.7938 227.789C15.2277 227.617 8.59858 230.717 4.49621 235.863C4.04357 236.436 3.62531 237.055 3.25289 237.691C0.577183 242.292 -0.0129625 248.779 4.03211 252.28L3.28154 253.145L3.293 253.157Z" fill="#062B6B"/>
<path d="M199.236 302.006C305.701 302.006 392.008 296.339 392.008 289.348C392.008 282.357 305.701 276.69 199.236 276.69C92.7715 276.69 6.46484 282.357 6.46484 289.348C6.46484 296.339 92.7715 302.006 199.236 302.006Z" fill="#E4EDFC"/>
<path d="M294.721 163.022L301.808 166.145C302.095 165.847 302.387 165.554 302.685 165.279C303.114 164.884 303.561 164.511 304.025 164.179C308.655 160.861 315.026 159.36 320.12 161.916C323.466 163.6 326.124 166.889 329.837 167.314C335.922 168.001 339.921 160.873 345.725 158.936C352.337 156.736 360.129 161.652 366.317 158.443C371.273 155.87 372.396 149.229 370.746 143.757C370.523 143.012 370.248 142.296 369.933 141.614C367.062 135.483 361.212 130.83 354.583 129.426C347.96 128.022 340.718 129.896 335.607 134.337C330.21 139.024 326.737 146.53 319.845 148.427C316.516 149.344 312.941 148.719 309.543 149.355C306.621 149.905 303.515 151.825 300.788 154.484C298.594 156.61 296.646 159.211 295.219 161.979C295.041 162.323 294.875 162.666 294.715 163.01L294.721 163.022Z" fill="#3577AC"/>
<path d="M296.964 164.231L296.145 163.428C296.437 163.131 296.735 162.833 297.038 162.546C297.938 161.681 298.906 160.844 299.92 160.065C302.585 158.008 305.69 156.678 308.687 155.389C309.093 155.211 309.5 155.04 309.907 154.862C314.319 152.948 318.461 153.464 322.466 153.962C326.368 154.449 330.396 154.948 334.705 153.183C337.862 151.888 340.411 149.596 342.869 147.384C345.843 144.708 348.92 141.941 353.091 140.915C357.858 139.734 365.541 141.666 370.904 143.218L370.583 144.319C367.564 143.442 358.385 140.777 353.366 142.027C349.475 142.989 346.639 145.539 343.637 148.238C341.104 150.519 338.48 152.874 335.14 154.243C330.551 156.123 326.368 155.601 322.323 155.097C318.289 154.593 314.485 154.117 310.36 155.911C309.953 156.088 309.54 156.266 309.133 156.438C306.062 157.756 303.163 158.999 300.614 160.97C299.64 161.721 298.7 162.529 297.823 163.371C297.525 163.652 297.239 163.938 296.958 164.225L296.964 164.231Z" fill="white"/>
<path d="M301.814 116.315C302.238 121.776 302.358 128.555 297.563 131.202C295.592 132.285 293.197 132.354 291.191 133.38C287.788 135.116 286.281 139.265 286.281 143.087C286.281 147.831 286.814 153.366 287.41 158.541C287.467 158.982 287.513 159.423 287.565 159.864L299.815 165.268C299.872 164.878 299.923 164.483 299.969 164.082C300.09 162.941 300.181 161.738 300.261 160.518C300.399 158.523 300.531 156.466 300.794 154.495C301.585 148.599 303.579 143.533 310.666 143.574C313.72 143.591 316.785 145.413 319.69 144.479C324.28 142.995 324.297 136.634 326.411 132.308C328.388 128.246 332.639 125.724 336.982 124.481C341.331 123.243 345.892 123.06 350.355 122.355C360.187 120.791 369.836 116.396 376.213 108.757C382.59 101.119 385.145 89.9798 381.203 80.8403C377.267 71.7007 366.209 65.7701 356.778 68.9388C346.705 72.3196 340.512 84.2898 329.941 85.3556C325.987 85.7567 322.011 84.5018 318.063 84.9144C311.554 85.6077 306.209 90.8794 303.768 96.9534C301.327 103.027 301.316 109.795 301.814 116.321V116.315Z" fill="#3577AC"/>
<path d="M293.108 160.546L291.996 160.271C292.38 158.73 292.695 157.062 293.027 155.298C294.127 149.459 295.371 142.846 299.737 139.408C309.408 131.798 311.396 124.578 313.322 117.599C315.149 110.964 316.88 104.701 325.48 99.6352C328.236 98.0079 333.484 97.4922 339.557 96.8962C353.629 95.5096 372.903 93.6186 378.415 76.7549L379.504 77.1102C373.757 94.6844 354.053 96.6212 339.666 98.0365C333.73 98.621 328.602 99.1253 326.058 100.621C317.854 105.451 316.267 111.222 314.422 117.903C312.542 124.727 310.405 132.463 300.441 140.308C296.414 143.476 295.21 149.871 294.145 155.51C293.807 157.292 293.492 158.976 293.096 160.552L293.108 160.546Z" fill="white"/>
<path d="M350.455 122.922L350.277 121.788C360.934 120.092 369.993 115.33 375.785 108.385L376.668 109.118C370.698 116.275 361.393 121.18 350.461 122.917L350.455 122.922Z" fill="#062B6B"/>
<path d="M300.274 166.093L287.038 160.26L286.844 158.615C286.316 154.003 285.709 148.078 285.715 143.087C285.715 139.437 287.084 134.835 290.94 132.87C291.966 132.343 293.077 132.062 294.155 131.787C295.278 131.5 296.343 131.225 297.294 130.704L297.844 131.707C296.767 132.303 295.581 132.606 294.435 132.898C293.375 133.168 292.373 133.426 291.462 133.896C288.07 135.626 286.861 139.78 286.861 143.092C286.861 148.026 287.462 153.905 287.984 158.483L288.104 159.48L299.363 164.443C299.38 164.305 299.397 164.162 299.409 164.024C299.54 162.787 299.632 161.486 299.701 160.483L299.735 159.979C299.861 158.145 299.993 156.249 300.234 154.427C300.944 149.103 302.766 143.006 310.587 143.006C310.616 143.006 310.65 143.006 310.679 143.006C311.962 143.012 313.228 143.322 314.454 143.614C316.242 144.044 317.932 144.45 319.525 143.94C322.401 143.006 323.335 139.872 324.315 136.549C324.768 135.024 325.232 133.443 325.908 132.062L326.939 132.566C326.303 133.861 325.851 135.397 325.415 136.875C324.389 140.336 323.329 143.912 319.88 145.029C317.978 145.642 316.053 145.178 314.191 144.731C313.028 144.45 311.83 144.164 310.679 144.152C310.65 144.152 310.621 144.152 310.593 144.152C303.7 144.152 302.067 149.418 301.374 154.576C301.139 156.363 301.007 158.243 300.881 160.059L300.847 160.563C300.778 161.572 300.686 162.89 300.549 164.151C300.503 164.563 300.451 164.964 300.394 165.36L300.279 166.099L300.274 166.093Z" fill="#062B6B"/>
<path d="M301.248 116.356C300.784 110.264 300.658 103.176 303.242 96.7357C306.01 89.8652 311.802 85.0004 318.013 84.3414C320.053 84.1237 322.11 84.3414 324.098 84.5592C326.012 84.7654 327.988 84.9775 329.896 84.7826L330.011 85.9229C327.982 86.1292 325.949 85.9115 323.978 85.6994C322.052 85.4932 320.059 85.2811 318.133 85.4817C312.347 86.1006 306.915 90.6847 304.308 97.1654C301.81 103.388 301.936 110.316 302.394 116.275L301.254 116.361L301.248 116.356Z" fill="#062B6B"/>
<path d="M383.145 95.4636L382.022 95.2459C382.99 90.2378 382.526 85.3328 380.687 81.0581C376.699 71.804 365.836 66.4979 356.967 69.4718C352.555 70.9502 348.819 74.1992 345.204 77.3335C343.875 78.4853 342.505 79.6771 341.119 80.7601L340.414 79.8605C341.778 78.7947 343.136 77.6086 344.453 76.4683C348.155 73.2594 351.976 69.9359 356.606 68.3831C366.02 65.2258 377.524 70.8184 381.741 80.5997C383.678 85.0864 384.165 90.2206 383.151 95.4579L383.145 95.4636Z" fill="#062B6B"/>
<path d="M329.775 167.887C327.272 167.6 325.243 166.11 323.278 164.666C322.184 163.858 321.049 163.027 319.863 162.431L320.379 161.406C321.651 162.048 322.825 162.907 323.96 163.744C325.885 165.159 327.707 166.5 329.907 166.752L329.775 167.892V167.887Z" fill="#062B6B"/>
<path d="M366.587 158.959L366.06 157.939C370.804 155.469 371.738 149.023 370.208 143.929C369.996 143.224 369.732 142.525 369.423 141.86C366.633 135.901 360.909 131.357 354.48 129.993C348.046 128.629 340.964 130.463 335.997 134.778L335.246 133.913C340.477 129.369 347.937 127.438 354.715 128.876C361.488 130.314 367.521 135.104 370.46 141.385C370.792 142.101 371.079 142.846 371.302 143.608C372.97 149.155 371.887 156.214 366.587 158.965V158.959Z" fill="#062B6B"/>
<path d="M316.299 152.948L214.461 214.111L112.75 152.965L316.299 152.948Z" fill="#062B6B"/>
<path d="M316.809 152.965L220.65 80.1872C216.943 77.3794 211.86 77.3852 208.153 80.1929L112.246 152.965H316.809Z" fill="#062B6B"/>
<path d="M294.757 136.279L220.645 80.1872C216.938 77.3794 211.856 77.3852 208.149 80.1929L121.191 146.169L294.757 136.274V136.279Z" fill="#062B6B"/>
<path d="M131.126 47.2562V46.9926C131.126 34.7473 121.197 24.8228 108.953 24.8228C96.7088 24.8228 86.7852 34.7473 86.7852 46.9926V47.2562H131.126Z" fill="#062B6B"/>
<path d="M303.557 265.642H154.273C142.029 265.642 132.099 255.712 132.099 243.467L131.068 46.9868C131.068 34.7416 121.139 24.8113 108.895 24.8113H275.327C287.571 24.8113 297.501 34.7416 297.501 46.9868L298.532 207.837V243.467C298.532 255.712 291.307 265.642 303.551 265.642H303.557Z" fill="white"/>
<path d="M170.832 217.767H152.641V218.627H170.832V217.767Z" fill="#5E3B3B"/>
<path d="M242.732 217.767H179.793V218.627H242.732V217.767Z" fill="#5E3B3B"/>
<path d="M170.832 98.9875H152.641V99.8471H170.832V98.9875Z" fill="#062B6B"/>
<path d="M232.396 98.9875H179.793V99.8471H232.396V98.9875Z" fill="#062B6B"/>
<path d="M197.509 106.74H152.641V107.6H197.509V106.74Z" fill="#062B6B"/>
<path d="M170.832 185.564H152.641V186.423H170.832V185.564Z" fill="#062B6B"/>
<path d="M242.732 185.564H179.793V186.423H242.732V185.564Z" fill="#062B6B"/>
<path d="M197.509 193.317H152.641V194.176H197.509V193.317Z" fill="#062B6B"/>
<path d="M262.448 193.317H206.207V194.176H262.448V193.317Z" fill="#062B6B"/>
<path d="M181.672 169.113H152.641V169.972H181.672V169.113Z" fill="#062B6B"/>
<path d="M198.976 176.865H152.641V177.725H198.976V176.865Z" fill="#062B6B"/>
<path d="M227.981 176.865H207.812V177.725H227.981V176.865Z" fill="#062B6B"/>
<path d="M198.976 91.1316H152.641V91.9911H198.976V91.1316Z" fill="#062B6B"/>
<path d="M228.551 91.1316H208.383V91.9911H228.551V91.1316Z" fill="#062B6B"/>
<path d="M210.43 169.113H190.262V169.972H210.43V169.113Z" fill="#062B6B"/>
<path d="M269.512 169.113H219.109V169.972H269.512V169.113Z" fill="#062B6B"/>
<path d="M181.672 201.299H152.641V202.158H181.672V201.299Z" fill="#5E3B3B"/>
<path d="M198.976 209.052H152.641V209.911H198.976V209.052Z" fill="#5E3B3B"/>
<path d="M227.981 209.052H207.812V209.911H227.981V209.052Z" fill="#5E3B3B"/>
<path d="M210.43 201.299H190.262V202.158H210.43V201.299Z" fill="#062B6B"/>
<path d="M269.512 201.299H219.109V202.158H269.512V201.299Z" fill="#062B6B"/>
<path d="M269.049 91.1316H237.605V91.9911H269.049V91.1316Z" fill="#062B6B"/>
<path d="M209.626 59.5015H152.617V66.8933H209.626V59.5015Z" fill="#062B6B"/>
<path d="M209.626 71.3914H152.617V74.0731H209.626V71.3914Z" fill="#062B6B"/>
<path d="M285.051 114.923H152.641V161.446H285.051V114.923Z" fill="#DCE7F9"/>
<path d="M297.897 208.135L296.866 47.2848C296.866 35.3719 287.177 25.6765 275.266 25.6765V24.5305C287.808 24.5305 298.012 34.7359 298.012 47.2791L299.043 208.123H297.897V208.135Z" fill="#062B6B"/>
<path d="M155.094 266.445H154.206C141.664 266.445 131.46 256.268 131.46 243.759L130.429 47.2848C130.429 35.3719 120.74 25.6765 108.828 25.6765V24.5305H208.013V25.6765H115.961C125.02 28.6791 131.575 37.2285 131.575 47.2791L132.606 243.753C132.606 255.632 142.295 265.293 154.206 265.293H155.094C168.479 265.293 173.75 253.483 175.813 243.57L176.936 243.805C173.853 258.611 166.301 266.439 155.094 266.439V266.445Z" fill="#062B6B"/>
<path d="M69.5457 29.7314L68.9961 30.7371L77.6084 35.4448L78.1579 34.4392L69.5457 29.7314Z" fill="#5E3B3B"/>
<path d="M76.7048 39.8967L66.9297 40.7778L67.0325 41.9192L76.8077 41.0381L76.7048 39.8967Z" fill="#5E3B3B"/>
<path d="M316.425 152.965V271.201C316.425 276.57 312.162 280.925 306.902 280.925H122.273C117.013 280.925 112.75 276.57 112.75 271.201V152.965L214.587 214.134L316.425 152.965Z" fill="#AFCAF9"/>
<path d="M250.897 231.095L220.811 208.696C217.041 205.889 211.873 205.894 208.108 208.702L132.363 265.241L250.897 231.095Z" fill="#AFCAF9"/>
<path d="M156.93 247.616L156.242 246.699L207.762 208.244C211.699 205.304 217.205 205.299 221.152 208.238L251.238 230.637L250.557 231.554L220.471 209.155C216.93 206.519 211.991 206.525 208.45 209.161L156.93 247.616Z" fill="#062B6B"/>
<path d="M215.398 281.492H122.275C116.712 281.492 112.18 276.873 112.18 271.195V198.554H113.326V271.195C113.326 276.237 117.342 280.346 122.275 280.346H215.398V281.492Z" fill="#062B6B"/>
<path d="M306.903 281.492H295.461V280.346H306.903C311.836 280.346 315.852 276.243 315.852 271.195V217.75H316.998V271.195C316.998 276.873 312.472 281.492 306.903 281.492Z" fill="#062B6B"/>
<path d="M206.287 209.539L113.279 153.974V183.358H112.133V151.951L206.877 208.553L206.287 209.539Z" fill="#062B6B"/>
<path d="M216.062 12.2626V36.2259C216.062 39.8874 216.126 53.5194 216.126 53.5194L228.794 42.8556H260.988C264.741 42.8556 267.778 39.8874 267.778 36.2259V12.2626C267.778 8.60101 264.735 5.63281 260.988 5.63281H222.852C219.105 5.63281 216.068 8.60101 216.068 12.2626H216.062Z" fill="#062B6B"/>
<path d="M216.685 7.20274V31.1661C216.685 34.8276 216.748 48.4596 216.748 48.4596L229.107 37.7958H260.522C264.184 37.7958 267.151 34.8276 267.151 31.1661V7.20274C267.151 3.5412 264.184 0.572998 260.522 0.572998H223.303C219.648 0.572998 216.68 3.5412 216.68 7.20274H216.685Z" fill="#FFC76C"/>
<path d="M239.915 25.2525H243.983L246.309 5.83887L237.531 5.85033L239.915 25.2525Z" fill="#062B6B"/>
<path d="M244.504 29.722C244.504 31.1488 243.347 32.3063 241.92 32.3063C240.493 32.3063 239.336 31.1488 239.336 29.722C239.336 28.2952 240.493 27.1377 241.92 27.1377C243.347 27.1377 244.504 28.2952 244.504 29.722Z" fill="#062B6B"/>
<path d="M216.113 49.703V7.20276C216.113 3.23179 219.339 0 223.31 0H260.529C264.499 0 267.731 3.23179 267.731 7.20276V31.1661C267.731 35.1371 264.499 38.3689 260.529 38.3689H229.326L216.113 49.703ZM223.31 1.14602C219.975 1.14602 217.259 3.8621 217.259 7.20276V47.2104L228.896 37.2228H260.529C263.869 37.2228 266.585 34.5068 266.585 31.1661V7.20276C266.585 3.8621 263.869 1.14602 260.529 1.14602H223.31Z" fill="#062B6B"/>
<path d="M308.053 19.1552L299.383 23.7559L299.92 24.7682L308.59 20.1676L308.053 19.1552Z" fill="#062B6B"/>
<path d="M299.809 11.3496L295.168 19.9985L296.178 20.5404L300.819 11.8915L299.809 11.3496Z" fill="#062B6B"/>
<path d="M64.2931 284.179H127.336C131.157 284.179 134.291 281.051 134.291 277.223L137.156 159.458C137.156 155.636 134.028 152.501 130.2 152.501H61.4284C57.6067 152.501 54.4727 155.63 54.4727 159.458L57.3374 277.223C57.3374 281.045 60.4658 284.179 64.2931 284.179Z" fill="#062B6B"/>
<path d="M127.334 284.752H64.2919C60.1437 284.752 56.7632 281.377 56.7632 277.223L53.8984 159.475C53.8984 155.309 57.2732 151.934 61.4271 151.934H130.199C134.347 151.934 137.728 155.309 137.728 159.463L134.863 277.24C134.863 281.377 131.488 284.752 127.34 284.752H127.334ZM61.4271 153.08C57.9091 153.08 55.0444 155.945 55.0444 159.463L57.9091 277.212C57.9091 280.747 60.7739 283.606 64.2919 283.606H127.334C130.852 283.606 133.717 280.741 133.717 277.223L136.582 159.446C136.582 155.939 133.717 153.08 130.199 153.08H61.4271Z" fill="#062B6B"/>
<path d="M69.4494 284.179H132.492C136.313 284.179 139.448 281.051 139.448 277.223L142.312 159.458C142.312 155.636 139.184 152.501 135.357 152.501H66.5846C62.763 152.501 59.6289 155.63 59.6289 159.458L62.4937 277.223C62.4937 281.045 65.622 284.179 69.4494 284.179Z" fill="white"/>
<path d="M76.6567 203.425H125.576C129.519 203.425 132.715 200.228 132.715 196.285V170.477C132.715 166.533 129.519 163.337 125.576 163.337H76.6567C72.714 163.337 69.5177 166.533 69.5177 170.477V196.285C69.5177 200.228 72.714 203.425 76.6567 203.425Z" fill="#DCE7F9"/>
<path d="M132.491 284.752H69.4481C65.2999 284.752 61.9195 281.377 61.9195 277.223L59.0547 159.475C59.0547 155.309 62.4294 151.934 66.5833 151.934H135.355C139.504 151.934 142.884 155.309 142.884 159.463H141.738C141.738 155.945 138.873 153.08 135.355 153.08H66.5833C63.0654 153.08 60.2006 155.945 60.2006 159.463L63.0654 277.212C63.0654 280.747 65.9302 283.606 69.4481 283.606H132.491C136.009 283.606 138.873 280.741 138.873 277.223L139.148 265.906L140.294 265.935L140.019 277.235C140.019 281.372 136.645 284.747 132.496 284.747L132.491 284.752Z" fill="#062B6B"/>
<path d="M125.575 203.992H76.6612C72.4099 203.992 68.9492 200.531 68.9492 196.279V170.477C68.9492 166.225 72.4099 162.764 76.6612 162.764H125.575C129.826 162.764 133.287 166.225 133.287 170.477V196.279C133.287 200.531 129.826 203.992 125.575 203.992ZM76.6555 163.904C73.0344 163.904 70.0894 166.849 70.0894 170.471V196.274C70.0894 199.895 73.0344 202.84 76.6555 202.84H125.569C129.19 202.84 132.135 199.895 132.135 196.274V170.471C132.135 166.849 129.19 163.904 125.569 163.904H76.6555Z" fill="#062B6B"/>
<path d="M58.2107 190.249L57.3516 190.27L58.8105 250.836L59.6697 250.816L58.2107 190.249Z" fill="white"/>
<path d="M119.416 226.277H125.999C127.736 226.277 129.145 224.868 129.145 223.131V220.352C129.145 218.614 127.736 217.206 125.999 217.206H119.416C117.678 217.206 116.27 218.614 116.27 220.352V223.131C116.27 224.868 117.678 226.277 119.416 226.277Z" fill="#AFC9F9"/>
<path d="M126.006 217.211H119.423C117.686 217.211 116.277 218.62 116.277 220.357V223.136C116.277 224.874 117.686 226.282 119.423 226.282H126.006C127.743 226.282 129.152 224.874 129.152 223.136V220.357C129.152 218.62 127.743 217.211 126.006 217.211Z" fill="#F2695F"/>
<path d="M119.416 241.054H125.999C127.736 241.054 129.145 239.646 129.145 237.909V235.13C129.145 233.392 127.736 231.984 125.999 231.984H119.416C117.678 231.984 116.27 233.392 116.27 235.13V237.909C116.27 239.646 117.678 241.054 119.416 241.054Z" fill="#AFC9F9"/>
<path d="M119.416 255.689H125.999C127.736 255.689 129.145 254.281 129.145 252.543V249.764C129.145 248.027 127.736 246.618 125.999 246.618H119.416C117.678 246.618 116.27 248.027 116.27 249.764V252.543C116.27 254.281 117.678 255.689 119.416 255.689Z" fill="#AFC9F9"/>
<path d="M119.416 270.427H125.999C127.736 270.427 129.145 269.019 129.145 267.281V264.502C129.145 262.765 127.736 261.356 125.999 261.356H119.416C117.678 261.356 116.27 262.765 116.27 264.502V267.281C116.27 269.019 117.678 270.427 119.416 270.427Z" fill="#AFC9F9"/>
<path d="M98.5368 226.277H105.12C106.857 226.277 108.266 224.868 108.266 223.131V220.352C108.266 218.614 106.857 217.206 105.12 217.206H98.5368C96.7996 217.206 95.3913 218.614 95.3913 220.352V223.131C95.3913 224.868 96.7996 226.277 98.5368 226.277Z" fill="#AFCAF9"/>
<path d="M77.6579 226.277H84.2412C85.9784 226.277 87.3867 224.868 87.3867 223.131V220.352C87.3867 218.614 85.9784 217.206 84.2412 217.206H77.6579C75.9207 217.206 74.5124 218.614 74.5124 220.352V223.131C74.5124 224.868 75.9207 226.277 77.6579 226.277Z" fill="#AFCAF9"/>
<path d="M119.416 241.054H125.999C127.736 241.054 129.145 239.646 129.145 237.909V235.13C129.145 233.392 127.736 231.984 125.999 231.984H119.416C117.678 231.984 116.27 233.392 116.27 235.13V237.909C116.27 239.646 117.678 241.054 119.416 241.054Z" fill="#AFCAF9"/>
<path d="M98.5368 241.054H105.12C106.857 241.054 108.266 239.646 108.266 237.909V235.13C108.266 233.392 106.857 231.984 105.12 231.984H98.5368C96.7996 231.984 95.3913 233.392 95.3913 235.13V237.909C95.3913 239.646 96.7996 241.054 98.5368 241.054Z" fill="#AFCAF9"/>
<path d="M77.6579 241.054H84.2412C85.9784 241.054 87.3867 239.646 87.3867 237.909V235.13C87.3867 233.392 85.9784 231.984 84.2412 231.984H77.6579C75.9207 231.984 74.5124 233.392 74.5124 235.13V237.909C74.5124 239.646 75.9207 241.054 77.6579 241.054Z" fill="#AFCAF9"/>
<path d="M119.416 255.689H125.999C127.736 255.689 129.145 254.281 129.145 252.543V249.764C129.145 248.027 127.736 246.618 125.999 246.618H119.416C117.678 246.618 116.27 248.027 116.27 249.764V252.543C116.27 254.281 117.678 255.689 119.416 255.689Z" fill="#AFCAF9"/>
<path d="M98.5368 255.689H105.12C106.857 255.689 108.266 254.281 108.266 252.543V249.764C108.266 248.027 106.857 246.618 105.12 246.618H98.5368C96.7996 246.618 95.3913 248.027 95.3913 249.764V252.543C95.3913 254.281 96.7996 255.689 98.5368 255.689Z" fill="#AFCAF9"/>
<path d="M77.6579 255.689H84.2412C85.9784 255.689 87.3867 254.281 87.3867 252.543V249.764C87.3867 248.027 85.9784 246.618 84.2412 246.618H77.6579C75.9207 246.618 74.5124 248.027 74.5124 249.764V252.543C74.5124 254.281 75.9207 255.689 77.6579 255.689Z" fill="#AFCAF9"/>
<path d="M77.6579 270.427H84.2412C85.9784 270.427 87.3867 269.019 87.3867 267.281V264.502C87.3867 262.765 85.9784 261.356 84.2412 261.356H77.6579C75.9207 261.356 74.5124 262.765 74.5124 264.502V267.281C74.5124 269.019 75.9207 270.427 77.6579 270.427Z" fill="#AFCAF9"/>
<path d="M119.416 270.427H125.999C127.736 270.427 129.145 269.019 129.145 267.281V264.502C129.145 262.765 127.736 261.356 125.999 261.356H119.416C117.678 261.356 116.27 262.765 116.27 264.502V267.281C116.27 269.019 117.678 270.427 119.416 270.427Z" fill="#AFCAF9"/>
<path d="M98.5368 270.427H105.12C106.857 270.427 108.266 269.019 108.266 267.281V264.502C108.266 262.765 106.857 261.356 105.12 261.356H98.5368C96.7996 261.356 95.3913 262.765 95.3913 264.502V267.281C95.3913 269.019 96.7996 270.427 98.5368 270.427Z" fill="#AFCAF9"/>
<path d="M126.005 226.85H119.422C117.37 226.85 115.703 225.182 115.703 223.131V220.352C115.703 218.3 117.37 216.633 119.422 216.633H126.005C128.056 216.633 129.723 218.3 129.723 220.352V223.131C129.723 225.182 128.056 226.85 126.005 226.85ZM119.422 217.779C118.001 217.779 116.849 218.931 116.849 220.352V223.131C116.849 224.552 118.001 225.704 119.422 225.704H126.005C127.426 225.704 128.577 224.552 128.577 223.131V220.352C128.577 218.931 127.426 217.779 126.005 217.779H119.422Z" fill="#5E3B3B"/>
<path d="M105.118 226.85H98.5349C96.4837 226.85 94.8164 225.182 94.8164 223.131V220.352C94.8164 218.3 96.4837 216.633 98.5349 216.633H105.118C107.169 216.633 108.837 218.3 108.837 220.352V223.131C108.837 225.182 107.169 226.85 105.118 226.85ZM98.5349 217.779C97.114 217.779 95.9623 218.931 95.9623 220.352V223.131C95.9623 224.552 97.114 225.704 98.5349 225.704H105.118C106.539 225.704 107.691 224.552 107.691 223.131V220.352C107.691 218.931 106.539 217.779 105.118 217.779H98.5349Z" fill="#5E3B3B"/>
<path d="M84.2354 226.85H77.6521C75.6009 226.85 73.9336 225.182 73.9336 223.131V220.352C73.9336 218.3 75.6009 216.633 77.6521 216.633H84.2354C86.2866 216.633 87.9539 218.3 87.9539 220.352V223.131C87.9539 225.182 86.2866 226.85 84.2354 226.85ZM77.6521 217.779C76.2312 217.779 75.0795 218.931 75.0795 220.352V223.131C75.0795 224.552 76.2312 225.704 77.6521 225.704H84.2354C85.6563 225.704 86.8079 224.552 86.8079 223.131V220.352C86.8079 218.931 85.6563 217.779 84.2354 217.779H77.6521Z" fill="#5E3B3B"/>
<path d="M126.005 241.628H119.422C117.37 241.628 115.703 239.96 115.703 237.909V235.13C115.703 233.078 117.37 231.411 119.422 231.411H126.005C128.056 231.411 129.723 233.078 129.723 235.13V237.909C129.723 239.96 128.056 241.628 126.005 241.628ZM119.422 232.557C118.001 232.557 116.849 233.709 116.849 235.13V237.909C116.849 239.33 118.001 240.482 119.422 240.482H126.005C127.426 240.482 128.577 239.33 128.577 237.909V235.13C128.577 233.709 127.426 232.557 126.005 232.557H119.422Z" fill="#5E3B3B"/>
<path d="M105.118 241.628H98.5349C96.4837 241.628 94.8164 239.96 94.8164 237.909V235.13C94.8164 233.078 96.4837 231.411 98.5349 231.411H105.118C107.169 231.411 108.837 233.078 108.837 235.13V237.909C108.837 239.96 107.169 241.628 105.118 241.628ZM98.5349 232.557C97.114 232.557 95.9623 233.709 95.9623 235.13V237.909C95.9623 239.33 97.114 240.482 98.5349 240.482H105.118C106.539 240.482 107.691 239.33 107.691 237.909V235.13C107.691 233.709 106.539 232.557 105.118 232.557H98.5349Z" fill="#5E3B3B"/>
<path d="M84.2354 241.628H77.6521C75.6009 241.628 73.9336 239.96 73.9336 237.909V235.13C73.9336 233.078 75.6009 231.411 77.6521 231.411H84.2354C86.2866 231.411 87.9539 233.078 87.9539 235.13V237.909C87.9539 239.96 86.2866 241.628 84.2354 241.628ZM77.6521 232.557C76.2312 232.557 75.0795 233.709 75.0795 235.13V237.909C75.0795 239.33 76.2312 240.482 77.6521 240.482H84.2354C85.6563 240.482 86.8079 239.33 86.8079 237.909V235.13C86.8079 233.709 85.6563 232.557 84.2354 232.557H77.6521Z" fill="#5E3B3B"/>
<path d="M126.005 256.257H119.422C117.37 256.257 115.703 254.589 115.703 252.538V249.759C115.703 247.707 117.37 246.04 119.422 246.04H126.005C128.056 246.04 129.723 247.707 129.723 249.759V252.538C129.723 254.589 128.056 256.257 126.005 256.257ZM119.422 247.186C118.001 247.186 116.849 248.338 116.849 249.759V252.538C116.849 253.959 118.001 255.111 119.422 255.111H126.005C127.426 255.111 128.577 253.959 128.577 252.538V249.759C128.577 248.338 127.426 247.186 126.005 247.186H119.422Z" fill="#5E3B3B"/>
<path d="M105.118 256.257H98.5349C96.4837 256.257 94.8164 254.589 94.8164 252.538V249.759C94.8164 247.707 96.4837 246.04 98.5349 246.04H105.118C107.169 246.04 108.837 247.707 108.837 249.759V252.538C108.837 254.589 107.169 256.257 105.118 256.257ZM98.5349 247.186C97.114 247.186 95.9623 248.338 95.9623 249.759V252.538C95.9623 253.959 97.114 255.111 98.5349 255.111H105.118C106.539 255.111 107.691 253.959 107.691 252.538V249.759C107.691 248.338 106.539 247.186 105.118 247.186H98.5349Z" fill="#5E3B3B"/>
<path d="M84.2354 256.257H77.6521C75.6009 256.257 73.9336 254.589 73.9336 252.538V249.759C73.9336 247.707 75.6009 246.04 77.6521 246.04H84.2354C86.2866 246.04 87.9539 247.707 87.9539 249.759V252.538C87.9539 254.589 86.2866 256.257 84.2354 256.257ZM77.6521 247.186C76.2312 247.186 75.0795 248.338 75.0795 249.759V252.538C75.0795 253.959 76.2312 255.111 77.6521 255.111H84.2354C85.6563 255.111 86.8079 253.959 86.8079 252.538V249.759C86.8079 248.338 85.6563 247.186 84.2354 247.186H77.6521Z" fill="#5E3B3B"/>
<path d="M126.005 271H119.422C117.37 271 115.703 269.333 115.703 267.281V264.502C115.703 262.451 117.37 260.783 119.422 260.783H126.005C128.056 260.783 129.723 262.451 129.723 264.502V267.281C129.723 269.333 128.056 271 126.005 271ZM119.422 261.929C118.001 261.929 116.849 263.081 116.849 264.502V267.281C116.849 268.702 118.001 269.854 119.422 269.854H126.005C127.426 269.854 128.577 268.702 128.577 267.281V264.502C128.577 263.081 127.426 261.929 126.005 261.929H119.422Z" fill="#5E3B3B"/>
<path d="M105.118 271H98.5349C96.4837 271 94.8164 269.333 94.8164 267.281V264.502C94.8164 262.451 96.4837 260.783 98.5349 260.783H105.118C107.169 260.783 108.837 262.451 108.837 264.502V267.281C108.837 269.333 107.169 271 105.118 271ZM98.5349 261.929C97.114 261.929 95.9623 263.081 95.9623 264.502V267.281C95.9623 268.702 97.114 269.854 98.5349 269.854H105.118C106.539 269.854 107.691 268.702 107.691 267.281V264.502C107.691 263.081 106.539 261.929 105.118 261.929H98.5349Z" fill="#5E3B3B"/>
<path d="M84.2354 271H77.6521C75.6009 271 73.9336 269.333 73.9336 267.281V264.502C73.9336 262.451 75.6009 260.783 77.6521 260.783H84.2354C86.2866 260.783 87.9539 262.451 87.9539 264.502V267.281C87.9539 269.333 86.2866 271 84.2354 271ZM77.6521 261.929C76.2312 261.929 75.0795 263.081 75.0795 264.502V267.281C75.0795 268.702 76.2312 269.854 77.6521 269.854H84.2354C85.6563 269.854 86.8079 268.702 86.8079 267.281V264.502C86.8079 263.081 85.6563 261.929 84.2354 261.929H77.6521Z" fill="#5E3B3B"/>
<path d="M74.5355 199.225C75.2886 199.225 75.8992 198.614 75.8992 197.861C75.8992 197.108 75.2886 196.497 74.5355 196.497C73.7824 196.497 73.1719 197.108 73.1719 197.861C73.1719 198.614 73.7824 199.225 74.5355 199.225Z" fill="#633F3F"/>
<path d="M364.271 275.997H309.852V286.529H364.271V275.997Z" fill="#FFC76C"/>
<path d="M352.81 264.353H298.391V274.885H352.81V264.353Z" fill="#FFC76C"/>
<path d="M364.236 252.75H309.816V263.282H364.236V252.75Z" fill="#FFC76C"/>
<path d="M316.119 252.75H314.973V263.282H316.119V252.75Z" fill="#062B6B"/>
<path d="M321.849 252.75H320.703V263.282H321.849V252.75Z" fill="#062B6B"/>
<path d="M339.037 252.75H337.891V263.282H339.037V252.75Z" fill="#062B6B"/>
<path d="M350.494 252.75H349.348V263.282H350.494V252.75Z" fill="#062B6B"/>
<path d="M304.693 264.353H303.547V274.885H304.693V264.353Z" fill="#062B6B"/>
<path d="M310.423 264.353H309.277V274.885H310.423V264.353Z" fill="#062B6B"/>
<path d="M327.611 264.353H326.465V274.885H327.611V264.353Z" fill="#062B6B"/>
<path d="M333.341 264.353H332.195V274.885H333.341V264.353Z" fill="#062B6B"/>
<path d="M339.072 275.997H337.926V286.529H339.072V275.997Z" fill="#062B6B"/>
<path d="M350.529 275.997H349.383V286.529H350.529V275.997Z" fill="#062B6B"/>
<path d="M356.259 275.997H355.113V286.529H356.259V275.997Z" fill="#062B6B"/>
<path d="M364.241 263.219H310.113V264.365H364.241V263.219Z" fill="#062B6B"/>
<path d="M352.776 274.937H298.391V276.083H352.776V274.937Z" fill="#062B6B"/>
</g>
<defs>
<clipPath id="clip0_2345_33748">
<rect width="392" height="302" fill="white"/>
</clipPath>
</defs>
</svg>
