<svg width="436" height="271" viewBox="0 0 436 271" fill="none" xmlns="http://www.w3.org/2000/svg">
<g clip-path="url(#clip0_2604_57278)">
<path d="M409.189 109.842C406.419 104.027 402.224 99.0006 397.129 95.0459C375.472 78.2216 274.176 1.60053 224.342 0.0114001C168.352 -1.77637 -14.8472 207.272 2.17436 226.925C19.1959 246.579 229.714 276.062 254.353 270.253C278.986 264.444 394.969 153.392 405.749 140.715C415.213 129.585 413.107 118.064 409.195 109.836L409.189 109.842Z" fill="#E4F5FF"/>
<path opacity="0.3" d="M390.067 64.7792C390.067 64.7792 386.035 45.1258 372.592 46.4681C366.484 47.0761 362.392 50.1339 358.854 54.8772C354.309 60.9629 352.68 57.4234 346.173 59.4219C340.348 61.2096 341.247 66.1215 337.662 67.0184C334.077 67.9093 331.391 63.8943 326.465 64.7852C321.54 65.6761 318.848 70.5939 318.848 70.5939H408.434C408.434 70.5939 407.988 65.2366 402.163 63.4489C396.338 61.6611 393.652 66.1275 390.067 64.7912V64.7792Z" stroke="black" stroke-miterlimit="10"/>
<path opacity="0.3" d="M115.743 23.2583C115.743 23.2583 112.99 9.82898 103.803 10.7439C99.6265 11.1593 96.8318 13.248 94.4114 16.4865C91.3028 20.6459 90.1922 18.2261 85.7436 19.5925C81.7659 20.8144 82.3755 24.1732 79.9309 24.7812C77.4803 25.3892 75.6454 22.6443 72.2773 23.2523C68.9092 23.8602 67.0742 27.2191 67.0742 27.2191H128.292C128.292 27.2191 127.984 23.5532 124.006 22.3373C120.028 21.1154 118.193 24.1672 115.743 23.2523V23.2583Z" stroke="black" stroke-miterlimit="10"/>
<g opacity="0.3">
<path d="M301.309 5.95232L288.875 31.9961L334.087 53.4631L346.521 27.4193L301.309 5.95232Z" stroke="black" stroke-miterlimit="10"/>
<path d="M306.592 11.5652C305.765 13.2988 303.683 14.0392 301.945 13.2086C301.812 13.1484 301.685 13.0761 301.57 12.9979L294.43 27.9501C294.562 27.9922 294.701 28.0464 294.834 28.1066C296.572 28.9313 297.315 31.008 296.482 32.7415C296.452 32.8078 296.416 32.868 296.379 32.9281L328.684 48.2716C328.708 48.2054 328.738 48.1392 328.769 48.073C329.596 46.3394 331.678 45.599 333.416 46.4297C333.549 46.4899 333.676 46.5621 333.791 46.6404L340.931 31.6881C340.798 31.646 340.66 31.5918 340.527 31.5316C338.788 30.707 338.046 28.6303 338.879 26.8967C338.939 26.7643 339.012 26.6379 339.09 26.5235L306.755 11.168C306.713 11.3004 306.659 11.4388 306.598 11.5713L306.592 11.5652ZM322.883 32.1757C321.525 35.0229 318.115 36.2268 315.26 34.8724C312.405 33.518 311.198 30.1171 312.556 27.2699C313.914 24.4227 317.324 23.2188 320.179 24.5732C323.034 25.9276 324.242 29.3285 322.883 32.1757Z" stroke="black" stroke-miterlimit="10"/>
</g>
<g opacity="0.3">
<path d="M32.149 20.7101L19.7148 46.7539L64.9267 68.2209L77.3608 42.1771L32.149 20.7101Z" stroke="black" stroke-miterlimit="10"/>
<path d="M37.4048 26.3131C36.5778 28.0467 34.4954 28.7871 32.757 27.9564C32.6242 27.8962 32.4975 27.824 32.3828 27.7458L25.2422 42.698C25.375 42.7401 25.5138 42.7943 25.6466 42.8545C27.385 43.6791 28.1274 45.7558 27.2944 47.4894C27.2643 47.5556 27.228 47.6158 27.1918 47.6821L59.4966 63.0255C59.5208 62.9593 59.5509 62.8931 59.5811 62.8269C60.4081 61.0933 62.4905 60.3529 64.2289 61.1836C64.3617 61.2438 64.4884 61.316 64.6031 61.3943L71.7437 46.4421C71.6109 46.3999 71.4721 46.3457 71.3393 46.2855C69.6009 45.4609 68.8585 43.3842 69.6915 41.6506C69.7518 41.5182 69.8242 41.3918 69.9027 41.2774L37.5677 25.9219C37.5255 26.0543 37.4712 26.1927 37.4108 26.3252L37.4048 26.3131ZM53.696 46.9236C52.3379 49.7708 48.9275 50.9747 46.0725 49.6203C43.2175 48.2659 42.0103 44.865 43.3684 42.0178C44.7265 39.1706 48.1368 37.9667 50.9919 39.3211C53.8469 40.6755 55.0541 44.0764 53.696 46.9236Z" stroke="black" stroke-miterlimit="10"/>
</g>
<g opacity="0.3">
<path d="M355.079 101.101L342.645 127.145L387.856 148.612L400.291 122.568L355.079 101.101Z" stroke="black" stroke-miterlimit="10"/>
<path d="M360.354 106.715C359.527 108.449 357.445 109.189 355.706 108.359C355.573 108.299 355.447 108.226 355.332 108.148L348.191 123.1C348.324 123.142 348.463 123.197 348.596 123.257C350.334 124.081 351.077 126.158 350.244 127.892C350.213 127.958 350.177 128.018 350.141 128.084L382.446 143.428C382.47 143.362 382.5 143.295 382.53 143.229C383.357 141.496 385.44 140.755 387.178 141.586C387.311 141.646 387.438 141.718 387.552 141.797L394.693 126.844C394.56 126.802 394.421 126.748 394.289 126.688C392.55 125.863 391.808 123.787 392.641 122.053C392.701 121.921 392.773 121.794 392.852 121.68L360.517 106.324C360.475 106.457 360.42 106.595 360.36 106.728L360.354 106.715ZM376.651 127.332C375.293 130.173 371.883 131.383 369.028 130.029C366.173 128.674 364.966 125.273 366.324 122.426C367.682 119.579 371.092 118.375 373.947 119.729C376.802 121.084 378.009 124.485 376.651 127.332Z" stroke="black" stroke-miterlimit="10"/>
</g>
<g opacity="0.3">
<path d="M212.828 58.2282L229.805 81.582L270.347 52.2721L253.37 28.9182L212.828 58.2282Z" stroke="black" stroke-miterlimit="10"/>
<path d="M220.268 56.3084C221.397 57.8614 221.053 60.0404 219.489 61.1661C219.369 61.2503 219.248 61.3286 219.121 61.3948L228.869 74.8C228.972 74.7037 229.081 74.6074 229.201 74.5231C230.759 73.3975 232.944 73.7406 234.072 75.2996C234.115 75.3598 234.151 75.42 234.193 75.4802L263.16 54.5387C263.112 54.4845 263.069 54.4303 263.027 54.3702C261.898 52.8111 262.242 50.6381 263.806 49.5125C263.926 49.4282 264.047 49.35 264.174 49.2837L254.426 35.8785C254.323 35.9748 254.215 36.0711 254.094 36.1554C252.537 37.281 250.351 36.9379 249.223 35.3789C249.138 35.2585 249.06 35.1381 248.993 35.0117L219.996 55.9773C220.093 56.0797 220.189 56.188 220.274 56.3084H220.268ZM246.217 51.9022C248.07 54.4544 247.502 58.0179 244.943 59.8659C242.384 61.7138 238.811 61.148 236.958 58.5958C235.104 56.0435 235.672 52.4801 238.231 50.6321C240.79 48.7841 244.364 49.35 246.217 51.9022Z" stroke="black" stroke-miterlimit="10"/>
</g>
<g opacity="0.15">
<path d="M19.8754 103.185C23.7023 103.311 31.6094 99.9646 31.6155 99.9586C31.7 99.9225 27.8249 95.432 27.5472 95.1792C24.3421 92.2236 16.3987 88.3953 12.1372 90.785C9.07094 92.5126 8.55787 96.4673 10.5075 99.2182C12.4994 102.035 16.622 103.071 19.8815 103.179L19.8754 103.185Z" fill="black"/>
<path d="M31.8273 125.132C35.4066 124.284 41.7022 119.396 42.2032 119.005C44.9134 122.532 47.9797 125.933 51.2753 129.202C53.1586 131.074 55.1082 132.897 57.0941 134.709C56.0679 134.017 55.1444 133.409 55.0056 133.337C51.1305 131.332 42.4567 129.731 38.98 133.162C36.475 135.636 37.0303 139.585 39.6379 141.728C42.2998 143.919 46.5552 143.835 49.7301 143.082C52.9473 142.318 58.4039 138.261 59.8284 137.165C60.595 137.851 61.3555 138.544 62.1281 139.224C65.8222 142.498 69.5222 145.749 73.0593 149.048C74.3028 150.209 75.4858 151.401 76.6749 152.587C75.7635 151.973 74.9848 151.467 74.8581 151.401C70.9829 149.397 62.3092 147.789 58.8324 151.227C56.3275 153.701 56.8828 157.649 59.4904 159.792C62.1583 161.983 66.4076 161.899 69.5826 161.147C72.6549 160.418 77.7192 156.716 79.4213 155.428C80.6044 156.68 81.7874 157.932 82.8739 159.196C83.5982 160.075 84.3527 160.876 85.0288 161.803C85.7169 162.706 86.3989 163.596 87.075 164.481C88.3124 166.233 89.6041 168.033 90.769 169.772C91.5899 170.976 92.3505 172.138 93.117 173.306C91.8917 172.132 89.4411 169.893 89.2178 169.724C85.6927 167.154 77.363 164.259 73.4034 167.13C70.5544 169.195 70.5001 173.179 72.7575 175.696C75.0573 178.26 79.2764 178.826 82.5238 178.555C86.1032 178.26 92.8152 174.564 93.6482 174.1C94.9097 176.039 96.123 177.935 97.2397 179.741C98.2416 181.36 99.1712 182.901 100.052 184.382L102.901 183.25C101.905 181.649 100.843 179.969 99.6963 178.2C98.4227 176.225 97.0163 174.149 95.5556 172.024C96.0023 171.602 98.5314 169.189 100.608 166.642C103.934 168.231 111.068 168.803 111.992 168.869C111.974 171.181 111.937 173.426 111.865 175.551C111.823 177.014 111.762 178.41 111.702 179.765L114.72 178.567C114.738 177.604 114.756 176.629 114.768 175.611C114.798 173.264 114.78 170.754 114.732 168.183C115.656 168.021 123.219 166.66 126.182 164.632C128.874 162.79 131.784 159.702 131.947 156.265C132.104 152.9 129.538 149.842 126.019 150.035C121.136 150.3 116.507 157.794 115.402 162.001C115.336 162.248 114.931 165.023 114.702 166.781C114.678 165.727 114.666 164.71 114.629 163.627C114.569 161.484 114.448 159.347 114.328 157.053C114.231 155.946 114.128 154.826 114.032 153.695C113.953 152.575 113.73 151.395 113.585 150.233C113.193 147.549 112.662 144.846 112.064 142.137C113.941 142.083 120.617 141.788 123.569 140.368C126.508 138.953 129.858 136.341 130.534 132.964C131.198 129.659 129.128 126.246 125.621 125.909C120.75 125.433 115.04 132.139 113.308 136.136C113.199 136.383 112.275 139.392 111.805 141.054C111.436 139.429 111.074 137.803 110.646 136.172C109.408 131.459 108.014 126.722 106.644 121.996C106.221 120.546 105.823 119.101 105.412 117.65C106.082 117.638 114.02 117.458 117.328 115.869C120.267 114.46 123.617 111.842 124.293 108.465C124.957 105.16 122.887 101.747 119.38 101.41C114.515 100.934 108.799 107.64 107.066 111.637C106.934 111.938 105.612 116.266 105.334 117.385C104.435 114.195 103.571 111.011 102.847 107.833C101.839 103.451 101.097 99.0985 100.686 94.8247C101 94.8247 109.288 94.6682 112.674 93.0429C115.613 91.6284 118.963 89.0159 119.645 85.6391C120.309 82.3344 118.239 78.9214 114.732 78.5843C109.861 78.1088 104.151 84.8144 102.419 88.8113C102.286 89.1243 100.861 93.7833 100.668 94.6441C100.644 94.3913 100.59 94.1264 100.572 93.8736C100.191 89.3049 100.403 84.8385 100.801 80.661C101.03 78.2352 101.386 75.9297 101.779 73.6905C103.324 73.8229 110.398 74.3346 113.609 73.209C116.688 72.1255 120.303 69.8983 121.348 66.6177C122.374 63.4033 120.69 59.7917 117.243 59.0633C112.456 58.0581 106.04 64.0956 103.873 67.8818C103.759 68.0864 102.793 70.3076 102.111 71.9389C102.304 70.9336 102.485 69.8923 102.69 68.9292C103.451 65.3175 104.368 62.061 105.207 59.1837C105.696 57.5525 106.173 56.0837 106.632 54.7173C108.213 54.0552 114.569 51.3103 116.851 48.8785C119.078 46.5068 121.263 42.8651 120.678 39.4702C120.104 36.1474 116.941 33.7096 113.543 34.6546C108.829 35.9608 105.925 44.2676 105.75 48.6197C105.738 48.9989 106.179 54.9039 106.257 54.8738C106.257 54.8738 106.336 54.8437 106.354 54.8317C105.883 56.1379 105.4 57.5464 104.899 59.0934C103.994 61.9587 103.004 65.2092 102.159 68.8148C101.308 72.4204 100.487 76.3571 99.9921 80.5827C99.4911 84.8204 99.1893 89.2989 99.4669 93.9579C99.4669 94.0121 99.479 94.0662 99.4851 94.1204C98.978 92.7841 97.4388 89.0942 97.2879 88.8233C95.1633 85.0191 88.8194 78.9093 84.0208 79.8604C80.5681 80.5466 78.8418 84.1402 79.8318 87.3666C80.8458 90.6592 84.4372 92.9286 87.4975 94.0422C90.9501 95.3002 98.9056 94.6923 99.5394 94.6381C99.8472 99.0684 100.529 103.595 101.465 108.134C102.002 110.728 102.618 113.328 103.27 115.929C102.793 114.785 102.358 113.768 102.286 113.635C100.161 109.831 93.8172 103.721 89.0186 104.672C85.5599 105.359 83.8397 108.952 84.8296 112.179C85.8376 115.471 89.4351 117.741 92.4953 118.86C95.6039 119.992 102.394 119.607 104.193 119.48C104.453 120.473 104.706 121.473 104.972 122.46C106.245 127.221 107.531 131.97 108.654 136.666C109.052 138.321 109.378 139.964 109.716 141.608C109.294 140.596 108.925 139.748 108.859 139.621C106.734 135.817 100.39 129.707 95.5918 130.658C92.1332 131.344 90.4129 134.944 91.4028 138.164C92.4108 141.457 96.0083 143.726 99.0686 144.84C102.032 145.923 108.31 145.623 110.44 145.484C110.73 147.176 111.026 148.873 111.237 150.528C111.352 151.66 111.545 152.743 111.593 153.887C111.672 155.019 111.744 156.138 111.817 157.246C111.883 159.389 111.962 161.598 111.974 163.687C111.992 165.143 111.98 166.528 111.974 167.924C111.599 166.275 110.797 163.055 110.7 162.796C109.686 160.081 106.988 156.096 103.855 153.779C103.71 153.376 103.529 152.99 103.306 152.623C101.574 149.728 97.7406 148.59 94.9158 150.685C90.9924 153.592 91.2761 162.387 92.6824 166.51C92.767 166.751 93.9621 169.291 94.7407 170.88C94.1371 170.013 93.5637 169.17 92.936 168.286C91.7046 166.534 90.4189 164.818 89.0488 162.97C88.3546 162.104 87.6544 161.225 86.9422 160.334C86.2601 159.437 85.4211 158.582 84.6606 157.691C82.8437 155.669 80.9122 153.707 78.9143 151.774C80.4535 150.691 85.8557 146.778 87.5337 143.967C89.2057 141.174 90.5517 137.147 89.254 133.963C87.9804 130.839 84.3708 129.135 81.2563 130.779C76.9345 133.06 75.8782 141.794 76.6387 146.086C76.687 146.351 77.5803 149.367 78.1055 151.016C76.8982 149.866 75.6971 148.704 74.4356 147.579C70.7958 144.322 67.0112 141.144 63.2508 137.954C62.0979 136.979 60.9632 135.991 59.8223 135.01C60.3716 134.631 66.8966 130.11 68.7798 126.968C70.4518 124.175 71.7978 120.148 70.5001 116.964C69.2265 113.84 65.6169 112.137 62.5023 113.78C58.1805 116.061 57.1242 124.795 57.8848 129.087C57.9451 129.412 59.2368 133.746 59.6171 134.836C57.1061 132.669 54.6193 130.49 52.2592 128.238C48.9937 125.138 45.9697 121.918 43.2655 118.577C43.5251 118.403 50.3518 113.714 52.2773 110.493C53.9493 107.7 55.2953 103.673 53.9976 100.489C52.724 97.3649 49.1144 95.6614 45.9999 97.3047C41.6781 99.586 40.6218 108.32 41.3883 112.612C41.4487 112.949 42.843 117.614 43.1569 118.445C42.9939 118.246 42.8068 118.06 42.6499 117.861C39.8069 114.261 37.5132 110.415 35.5334 106.713C34.3805 104.564 33.4027 102.445 32.4912 100.363C33.8554 99.6221 40.0423 96.161 42.0945 93.4523C44.0623 90.8579 45.8429 87.0055 44.9073 83.6948C43.9838 80.4503 40.5795 78.3616 37.308 79.6558C32.7629 81.4495 30.7529 90.0152 31.0366 94.3612C31.0547 94.5959 31.4772 96.9856 31.8092 98.7132C31.4168 97.7682 30.9883 96.799 30.6261 95.8841C29.262 92.453 28.2298 89.2326 27.3365 86.3674C26.8415 84.7361 26.425 83.2493 26.0508 81.8589C27.0045 80.4323 30.783 74.6476 31.3444 71.361C31.8937 68.1527 31.6945 63.915 29.3284 61.4109C27.0105 58.955 23.0268 58.6661 20.715 61.3146C17.5098 64.9985 19.6828 73.522 21.9463 77.248C22.1395 77.567 25.7792 82.2561 25.8275 82.1839C25.8275 82.1839 25.8758 82.1117 25.8818 82.0996C26.2138 83.448 26.588 84.8926 27.0286 86.4577C27.8616 89.347 28.8274 92.5975 30.1191 96.0707C31.4048 99.5439 32.8957 103.282 34.8211 107.074C36.7466 110.878 38.9679 114.785 41.7807 118.517C41.8109 118.559 41.8531 118.601 41.8833 118.644C40.7183 117.807 37.3925 115.58 37.1209 115.435C33.2457 113.431 24.572 111.824 21.0952 115.261C18.5903 117.735 19.1456 121.683 21.7532 123.826C24.4211 126.017 28.6704 125.933 31.8454 125.181L31.8273 125.132Z" fill="black"/>
<path d="M101.246 72.901C101.337 72.9191 100.588 67.0381 100.498 66.6709C99.4598 62.4393 94.9508 54.8789 90.0737 54.5298C86.5608 54.283 83.9472 57.2987 84.0498 60.6696C84.1524 64.1127 87.0135 67.2488 89.6754 69.1329C92.796 71.342 101.24 72.901 101.246 72.901Z" fill="black"/>
</g>
<g opacity="0.15">
<path d="M226.918 165.808C231.348 165.952 240.505 162.076 240.511 162.076C240.607 162.034 236.117 156.833 235.797 156.538C232.085 153.113 222.886 148.683 217.954 151.452C214.399 153.45 213.808 158.025 216.065 161.215C218.371 164.472 223.145 165.675 226.918 165.802V165.808Z" fill="black"/>
<path d="M316.485 254.436C316.606 254.635 316.715 254.815 316.835 255.008H320.837C320.342 254.237 319.841 253.449 319.316 252.648C317.837 250.367 316.214 247.953 314.523 245.497C315.043 245.01 317.97 242.217 320.372 239.267C324.229 241.103 332.487 241.771 333.549 241.849C333.531 244.528 333.483 247.129 333.404 249.584C333.35 251.276 333.289 252.895 333.217 254.46L336.706 253.076C336.73 251.962 336.748 250.83 336.76 249.657C336.79 246.942 336.772 244.035 336.724 241.055C337.798 240.868 346.551 239.291 349.985 236.944C353.1 234.813 356.474 231.237 356.661 227.252C356.842 223.352 353.872 219.812 349.798 220.035C344.142 220.342 338.788 229.016 337.503 233.892C337.424 234.181 336.953 237.395 336.688 239.424C336.664 238.208 336.645 237.022 336.603 235.77C336.537 233.29 336.392 230.816 336.253 228.155C336.138 226.873 336.024 225.579 335.909 224.267C335.819 222.967 335.565 221.606 335.396 220.258C334.943 217.146 334.328 214.022 333.64 210.88C335.819 210.813 343.545 210.476 346.961 208.833C350.365 207.196 354.24 204.174 355.031 200.261C355.804 196.433 353.408 192.484 349.345 192.093C343.708 191.545 337.098 199.31 335.088 203.933C334.961 204.222 333.893 207.701 333.344 209.628C332.915 207.743 332.499 205.865 332.004 203.969C330.573 198.51 328.956 193.026 327.368 187.554C326.879 185.875 326.414 184.202 325.944 182.522C326.716 182.51 335.915 182.299 339.742 180.464C343.146 178.832 347.021 175.804 347.812 171.892C348.585 168.064 346.188 164.115 342.126 163.724C336.489 163.176 329.879 170.935 327.869 175.564C327.718 175.913 326.185 180.927 325.859 182.221C324.821 178.525 323.819 174.835 322.98 171.157C321.815 166.083 320.952 161.045 320.481 156.097C320.843 156.097 330.44 155.916 334.358 154.032C337.762 152.395 341.637 149.373 342.428 145.461C343.201 141.632 340.804 137.684 336.742 137.292C331.104 136.745 324.495 144.504 322.485 149.132C322.328 149.494 320.686 154.887 320.457 155.886C320.433 155.591 320.366 155.29 320.348 154.995C319.908 149.71 320.155 144.534 320.62 139.7C320.885 136.889 321.296 134.216 321.755 131.628C323.547 131.778 331.738 132.374 335.456 131.068C339.018 129.816 343.207 127.234 344.42 123.436C345.609 119.716 343.659 115.526 339.67 114.689C334.128 113.528 326.698 120.516 324.193 124.898C324.054 125.133 322.938 127.709 322.153 129.593C322.376 128.426 322.588 127.222 322.823 126.108C323.704 121.931 324.767 118.157 325.738 114.822C326.306 112.932 326.855 111.234 327.386 109.645C329.221 108.881 336.573 105.696 339.223 102.879C341.806 100.128 344.329 95.9148 343.653 91.9841C342.989 88.1377 339.325 85.3146 335.396 86.4102C329.939 87.9271 326.577 97.5401 326.378 102.584C326.36 103.018 326.873 109.862 326.97 109.82C326.97 109.82 327.06 109.784 327.078 109.772C326.535 111.288 325.974 112.914 325.394 114.707C324.35 118.024 323.197 121.786 322.225 125.964C321.242 130.135 320.288 134.692 319.714 139.586C319.135 144.491 318.779 149.674 319.105 155.068C319.105 155.128 319.123 155.194 319.123 155.254C318.537 153.707 316.751 149.433 316.576 149.12C314.119 144.714 306.767 137.641 301.214 138.743C297.212 139.538 295.22 143.703 296.367 147.435C297.538 151.245 301.697 153.876 305.246 155.17C309.248 156.627 318.459 155.922 319.189 155.862C319.545 160.997 320.33 166.234 321.417 171.489C322.038 174.498 322.751 177.502 323.511 180.512C322.962 179.187 322.461 178.014 322.37 177.857C319.908 173.451 312.562 166.378 307.009 167.48C303.007 168.274 301.015 172.44 302.162 176.172C303.333 179.982 307.491 182.612 311.041 183.907C314.638 185.219 322.503 184.773 324.585 184.629C324.887 185.779 325.177 186.934 325.485 188.084C326.958 193.598 328.449 199.1 329.746 204.535C330.205 206.449 330.585 208.357 330.972 210.26C330.483 209.086 330.06 208.105 329.982 207.96C327.519 203.554 320.173 196.481 314.62 197.583C310.618 198.377 308.626 202.543 309.767 206.275C310.938 210.085 315.097 212.716 318.646 214.004C322.081 215.256 329.342 214.907 331.817 214.75C332.155 216.712 332.499 218.675 332.734 220.589C332.867 221.901 333.09 223.153 333.151 224.477C333.235 225.79 333.326 227.084 333.41 228.372C333.483 230.852 333.579 233.41 333.591 235.83C333.615 237.516 333.603 239.123 333.591 240.736C333.157 238.822 332.227 235.096 332.118 234.795C330.947 231.653 327.821 227.036 324.193 224.351C324.024 223.888 323.813 223.436 323.559 223.015C321.555 219.662 317.119 218.344 313.841 220.77C309.296 224.14 309.628 234.319 311.252 239.093C311.348 239.376 312.731 242.313 313.636 244.155C312.936 243.156 312.278 242.175 311.548 241.151C310.117 239.123 308.632 237.136 307.045 234.993C306.242 233.988 305.427 232.971 304.606 231.942C303.816 230.906 302.844 229.913 301.962 228.884C299.862 226.542 297.617 224.267 295.311 222.028C297.091 220.776 303.351 216.237 305.288 212.986C307.22 209.754 308.783 205.095 307.28 201.399C305.807 197.781 301.624 195.807 298.015 197.709C293.011 200.352 291.792 210.464 292.673 215.43C292.727 215.737 293.766 219.235 294.369 221.137C292.969 219.8 291.581 218.464 290.12 217.158C285.907 213.39 281.525 209.706 277.173 206.016C275.839 204.884 274.523 203.747 273.201 202.603C273.841 202.163 281.392 196.933 283.571 193.291C285.502 190.058 287.066 185.399 285.557 181.703C284.084 178.086 279.901 176.111 276.297 178.02C271.293 180.662 270.074 190.775 270.955 195.741C271.022 196.114 272.519 201.134 272.959 202.398C270.05 199.888 267.171 197.366 264.437 194.76C260.658 191.172 257.151 187.44 254.018 183.576C254.314 183.371 262.227 177.947 264.455 174.221C266.386 170.983 267.95 166.33 266.441 162.634C264.968 159.016 260.785 157.042 257.175 158.95C252.171 161.593 250.952 171.705 251.833 176.671C251.9 177.063 253.517 182.462 253.88 183.419C253.692 183.19 253.475 182.974 253.294 182.739C250.004 178.567 247.343 174.119 245.055 169.833C243.721 167.347 242.586 164.891 241.536 162.478C243.111 161.617 250.276 157.608 252.654 154.478C254.93 151.474 256.994 147.014 255.908 143.179C254.839 139.423 250.898 137.003 247.107 138.502C241.844 140.579 239.514 150.499 239.846 155.531C239.864 155.808 240.353 158.565 240.745 160.575C240.286 159.48 239.791 158.36 239.375 157.301C237.8 153.328 236.598 149.596 235.566 146.285C234.993 144.395 234.51 142.674 234.081 141.06C235.186 139.411 239.562 132.711 240.208 128.907C240.842 125.193 240.612 120.287 237.872 117.386C235.192 114.545 230.574 114.208 227.9 117.278C224.188 121.545 226.705 131.417 229.325 135.727C229.554 136.1 233.761 141.524 233.822 141.44C233.822 141.44 233.876 141.361 233.888 141.337C234.275 142.896 234.703 144.57 235.21 146.382C236.176 149.728 237.293 153.497 238.789 157.511C240.274 161.532 242.001 165.86 244.234 170.255C246.467 174.661 249.039 179.187 252.292 183.503C252.328 183.551 252.377 183.6 252.413 183.648C251.067 182.679 247.216 180.096 246.896 179.934C242.405 177.61 232.367 175.756 228.341 179.729C225.444 182.594 226.084 187.163 229.102 189.649C232.186 192.183 237.111 192.087 240.781 191.214C244.928 190.227 252.214 184.575 252.793 184.117C255.932 188.198 259.481 192.141 263.302 195.927C265.481 198.094 267.744 200.207 270.038 202.302C268.849 201.501 267.774 200.797 267.618 200.713C263.127 198.389 253.089 196.535 249.063 200.508C246.165 203.373 246.805 207.942 249.823 210.422C252.908 212.956 257.833 212.86 261.503 211.987C265.233 211.102 271.541 206.401 273.195 205.137C274.082 205.932 274.963 206.732 275.857 207.521C280.136 211.313 284.422 215.075 288.514 218.897C289.957 220.246 291.327 221.624 292.703 222.997C291.647 222.286 290.748 221.696 290.603 221.624C286.112 219.301 276.074 217.447 272.048 221.42C269.151 224.285 269.79 228.854 272.808 231.334C275.893 233.868 280.818 233.771 284.494 232.899C288.049 232.05 293.916 227.77 295.89 226.271C297.254 227.722 298.631 229.173 299.886 230.635C300.725 231.659 301.6 232.58 302.385 233.651C303.182 234.698 303.972 235.728 304.757 236.757C306.194 238.786 307.685 240.868 309.031 242.879C309.978 244.269 310.86 245.618 311.747 246.972C310.328 245.618 307.491 243.017 307.226 242.831C303.146 239.857 293.5 236.504 288.919 239.827C285.617 242.217 285.557 246.834 288.17 249.747C290.832 252.721 295.715 253.371 299.482 253.058C303.628 252.715 311.397 248.441 312.363 247.899C313.823 250.144 315.23 252.335 316.515 254.43L316.485 254.436Z" fill="black"/>
<path d="M321.133 130.744C321.236 130.762 320.366 123.954 320.264 123.533C319.057 118.633 313.841 109.881 308.192 109.478C304.123 109.189 301.099 112.68 301.214 116.587C301.335 120.571 304.649 124.201 307.727 126.38C311.343 128.938 321.121 130.744 321.127 130.744H321.133Z" fill="black"/>
</g>
<path d="M93.9568 184.598H24.0234V198.244H93.9568V184.598Z" fill="white" stroke="#263238" stroke-linecap="round" stroke-linejoin="round"/>
<path d="M113.328 170.254H43.3945V184.592H113.328V170.254Z" fill="white" stroke="#263238" stroke-linecap="round" stroke-linejoin="round"/>
<path d="M132.691 155.914H62.7578V170.252H132.691V155.914Z" fill="white" stroke="#263238" stroke-linecap="round" stroke-linejoin="round"/>
<path d="M152.058 141.57H82.125V155.909H152.058V141.57Z" fill="white" stroke="#263238" stroke-linecap="round" stroke-linejoin="round"/>
<path d="M172.146 255.006V141.57H152.058V155.915H132.694V170.253H113.324V184.597H93.9609V255.006H172.146Z" fill="#034DCD" stroke="#263238" stroke-linecap="round" stroke-linejoin="round"/>
<path d="M172.14 241.359H102.207V255.005H172.14V241.359Z" fill="white" stroke="#263238" stroke-linecap="round" stroke-linejoin="round"/>
<path d="M82.844 241.359H152.777V227.021H82.844V241.359Z" fill="white" stroke="#263238" stroke-linecap="round" stroke-linejoin="round"/>
<path d="M63.4807 227.023H133.414V212.679H63.4807V227.023Z" fill="white" stroke="#263238" stroke-linecap="round" stroke-linejoin="round"/>
<path d="M44.1096 212.68H114.043V198.341H44.1096V212.68Z" fill="white" stroke="#263238" stroke-linecap="round" stroke-linejoin="round"/>
<path d="M24.0234 255.007V198.34H44.1113V212.678H63.4749V227.022H82.8445V241.361H102.208V255.007H24.0234Z" fill="#034DCD" stroke="#263238" stroke-linecap="round" stroke-linejoin="round"/>
<g clip-path="url(#clip1_2604_57278)">
<path d="M320.081 254.096L185.253 254.888C181.982 254.91 179.312 252.274 179.29 249.008L178.133 52.9576C178.111 49.6917 180.751 47.0257 184.022 47.0035L318.85 46.2111C322.121 46.1889 324.791 48.8253 324.813 52.0912L325.97 248.141C325.992 251.407 323.352 254.073 320.081 254.096Z" fill="#9FC9E1"/>
<path d="M320.079 254.096C320.079 254.096 320.235 254.081 320.532 254.067C320.836 254.044 321.281 253.97 321.852 253.8C322.416 253.615 323.098 253.296 323.788 252.741C324.463 252.186 325.138 251.371 325.553 250.282C325.768 249.742 325.894 249.134 325.924 248.49C325.953 247.846 325.924 247.157 325.924 246.439C325.916 245.002 325.901 243.432 325.887 241.729C325.864 238.33 325.835 234.405 325.805 229.983C325.694 212.306 325.523 186.734 325.316 155.134C325.219 139.331 325.108 122.024 324.997 103.443C324.937 94.156 324.878 84.5434 324.819 74.6495C324.789 69.7025 324.759 64.6814 324.73 59.5937C324.707 57.0536 324.693 54.4912 324.67 51.9141C324.641 50.6477 324.144 49.4109 323.343 48.4334C322.519 47.4632 321.392 46.7523 320.131 46.4857C319.501 46.345 318.87 46.3376 318.203 46.3524C317.55 46.3524 316.89 46.3598 316.23 46.3672C314.917 46.3746 313.597 46.382 312.27 46.3894C309.622 46.4042 306.959 46.419 304.282 46.4413C298.927 46.4709 293.505 46.5079 288.032 46.5375C277.077 46.6042 265.9 46.6708 254.516 46.7375C231.747 46.8708 208.176 47.0115 184.028 47.1522C182.552 47.1522 181.091 47.7447 180.038 48.7741C178.977 49.7886 178.332 51.2179 178.272 52.6768C178.257 55.6613 178.302 58.6532 178.309 61.6303C178.346 67.5844 178.376 73.5016 178.413 79.3669C178.48 91.1123 178.547 102.68 178.613 114.048C178.747 136.79 178.873 158.719 178.992 179.617C179.11 200.509 179.222 220.363 179.325 238.952C179.34 241.277 179.355 243.58 179.363 245.861C179.377 247.002 179.363 248.142 179.392 249.268C179.437 250.379 179.822 251.46 180.46 252.356C181.098 253.252 181.996 253.948 183.004 254.363C183.509 254.563 184.043 254.696 184.584 254.755C185.118 254.8 185.674 254.785 186.223 254.785C188.426 254.77 190.606 254.763 192.765 254.748C201.405 254.703 209.689 254.652 217.603 254.607C249.25 254.437 274.86 254.304 292.563 254.215C301.412 254.178 308.279 254.141 312.945 254.118C315.273 254.111 317.046 254.104 318.247 254.104C319.442 254.104 320.05 254.104 320.05 254.104C320.05 254.104 319.442 254.118 318.247 254.126C317.053 254.133 315.273 254.148 312.945 254.17C308.287 254.207 301.412 254.252 292.563 254.318C274.86 254.437 249.25 254.6 217.603 254.807C209.689 254.859 201.398 254.911 192.765 254.963C190.606 254.977 188.426 254.992 186.223 255C185.674 255 185.125 255.015 184.554 254.97C183.991 254.903 183.442 254.77 182.915 254.563C181.869 254.133 180.935 253.408 180.275 252.474C179.615 251.549 179.207 250.423 179.162 249.268C179.133 248.127 179.14 247.002 179.125 245.854C179.11 243.573 179.096 241.27 179.081 238.944C178.969 220.363 178.843 200.509 178.717 179.61C178.591 158.719 178.458 136.783 178.324 114.04C178.257 102.673 178.191 91.0975 178.117 79.3595C178.079 73.4868 178.05 67.5696 178.013 61.6155C178.005 58.6384 177.961 55.6613 177.976 52.6472C178.035 51.1142 178.71 49.6109 179.822 48.5519C180.928 47.4781 182.463 46.856 184.005 46.856C208.147 46.7153 231.724 46.5746 254.494 46.4413C265.878 46.3746 277.063 46.308 288.01 46.2487C293.483 46.2191 298.905 46.1895 304.26 46.1524C306.937 46.1376 309.6 46.1228 312.247 46.108C313.568 46.1006 314.888 46.0932 316.208 46.0858C316.868 46.0858 317.521 46.0784 318.181 46.071C318.826 46.0562 319.508 46.071 320.161 46.2117C321.474 46.4931 322.66 47.2411 323.513 48.2482C324.351 49.2702 324.863 50.5662 324.9 51.8844C324.915 54.4616 324.937 57.024 324.952 59.5715C324.982 64.6592 325.011 69.6803 325.041 74.6272C325.1 84.5212 325.152 94.1338 325.204 103.42C325.308 122.001 325.405 139.308 325.494 155.112C325.664 186.712 325.798 212.284 325.894 229.961C325.916 234.382 325.931 238.307 325.953 241.707C325.961 243.41 325.968 244.98 325.976 246.417C325.976 247.135 325.998 247.816 325.968 248.468C325.931 249.12 325.805 249.734 325.583 250.275C325.16 251.371 324.477 252.186 323.795 252.748C323.105 253.304 322.416 253.622 321.845 253.807C321.266 253.97 320.821 254.037 320.517 254.059C320.213 254.074 320.065 254.074 320.065 254.074L320.079 254.096Z" fill="#263238"/>
<g opacity="0.3">
<path d="M193.211 249.682L316.202 248.282L317.47 224.547L313.621 210.262L191.973 229.976L193.211 249.682Z" fill="black"/>
</g>
<path d="M320.079 254.096C320.079 254.096 320.235 254.081 320.532 254.067C320.836 254.044 321.281 253.97 321.852 253.8C322.416 253.615 323.098 253.296 323.788 252.741C324.463 252.186 325.138 251.371 325.553 250.282C325.768 249.742 325.894 249.134 325.924 248.49C325.953 247.846 325.924 247.157 325.924 246.439C325.916 245.002 325.901 243.432 325.887 241.729C325.864 238.33 325.835 234.405 325.805 229.983C325.694 212.306 325.523 186.734 325.316 155.134C325.219 139.331 325.108 122.024 324.997 103.443C324.937 94.156 324.878 84.5434 324.819 74.6495C324.789 69.7025 324.759 64.6814 324.73 59.5937C324.707 57.0536 324.693 54.4912 324.67 51.9141C324.641 50.6477 324.144 49.4109 323.343 48.4334C322.519 47.4632 321.392 46.7523 320.131 46.4857C319.501 46.345 318.87 46.3376 318.203 46.3524C317.55 46.3524 316.89 46.3598 316.23 46.3672C314.917 46.3746 313.597 46.382 312.27 46.3894C309.622 46.4042 306.959 46.419 304.282 46.4413C298.927 46.4709 293.505 46.5079 288.032 46.5375C277.077 46.6042 265.9 46.6708 254.516 46.7375C231.747 46.8708 208.176 47.0115 184.028 47.1522C182.552 47.1522 181.091 47.7447 180.038 48.7741C178.977 49.7886 178.332 51.2179 178.272 52.6768C178.257 55.6613 178.302 58.6532 178.309 61.6303C178.346 67.5844 178.376 73.5016 178.413 79.3669C178.48 91.1123 178.547 102.68 178.613 114.048C178.747 136.79 178.873 158.719 178.992 179.617C179.11 200.509 179.222 220.363 179.325 238.952C179.34 241.277 179.355 243.58 179.363 245.861C179.377 247.002 179.363 248.142 179.392 249.268C179.437 250.379 179.822 251.46 180.46 252.356C181.098 253.252 181.996 253.948 183.004 254.363C183.509 254.563 184.043 254.696 184.584 254.755C185.118 254.8 185.674 254.785 186.223 254.785C188.426 254.77 190.606 254.763 192.765 254.748C201.405 254.703 209.689 254.652 217.603 254.607C249.25 254.437 274.86 254.304 292.563 254.215C301.412 254.178 308.279 254.141 312.945 254.118C315.273 254.111 317.046 254.104 318.247 254.104C319.442 254.104 320.05 254.104 320.05 254.104C320.05 254.104 319.442 254.118 318.247 254.126C317.053 254.133 315.273 254.148 312.945 254.17C308.287 254.207 301.412 254.252 292.563 254.318C274.86 254.437 249.25 254.6 217.603 254.807C209.689 254.859 201.398 254.911 192.765 254.963C190.606 254.977 188.426 254.992 186.223 255C185.674 255 185.125 255.015 184.554 254.97C183.991 254.903 183.442 254.77 182.915 254.563C181.869 254.133 180.935 253.408 180.275 252.474C179.615 251.549 179.207 250.423 179.162 249.268C179.133 248.127 179.14 247.002 179.125 245.854C179.11 243.573 179.096 241.27 179.081 238.944C178.969 220.363 178.843 200.509 178.717 179.61C178.591 158.719 178.458 136.783 178.324 114.04C178.257 102.673 178.191 91.0975 178.117 79.3595C178.079 73.4868 178.05 67.5696 178.013 61.6155C178.005 58.6384 177.961 55.6613 177.976 52.6472C178.035 51.1142 178.71 49.6109 179.822 48.5519C180.928 47.4781 182.463 46.856 184.005 46.856C208.147 46.7153 231.724 46.5746 254.494 46.4413C265.878 46.3746 277.063 46.308 288.01 46.2487C293.483 46.2191 298.905 46.1895 304.26 46.1524C306.937 46.1376 309.6 46.1228 312.247 46.108C313.568 46.1006 314.888 46.0932 316.208 46.0858C316.868 46.0858 317.521 46.0784 318.181 46.071C318.826 46.0562 319.508 46.071 320.161 46.2117C321.474 46.4931 322.66 47.2411 323.513 48.2482C324.351 49.2702 324.863 50.5662 324.9 51.8844C324.915 54.4616 324.937 57.024 324.952 59.5715C324.982 64.6592 325.011 69.6803 325.041 74.6272C325.1 84.5212 325.152 94.1338 325.204 103.42C325.308 122.001 325.405 139.308 325.494 155.112C325.664 186.712 325.798 212.284 325.894 229.961C325.916 234.382 325.931 238.307 325.953 241.707C325.961 243.41 325.968 244.98 325.976 246.417C325.976 247.135 325.998 247.816 325.968 248.468C325.931 249.12 325.805 249.734 325.583 250.275C325.16 251.371 324.477 252.186 323.795 252.748C323.105 253.304 322.416 253.622 321.845 253.807C321.266 253.97 320.821 254.037 320.517 254.059C320.213 254.074 320.065 254.074 320.065 254.074L320.079 254.096Z" fill="#263238"/>
<g opacity="0.3">
<path d="M193.211 249.682L316.202 248.282L317.47 224.547L313.621 210.262L191.973 229.976L193.211 249.682Z" fill="black"/>
</g>
<path d="M318.521 244.293L186.793 245.063L185.703 55.3744L317.401 54.7227L318.521 244.293Z" fill="white"/>
<path d="M318.522 244.291C318.522 243.195 318.01 166.546 317.276 54.6021L317.402 54.7205C277.411 54.9575 232.681 55.2241 185.585 55.5055H185.57L185.704 55.3722C186.112 126.607 186.497 192.422 186.794 245.068L186.683 244.957C266.865 244.55 317.624 244.291 318.514 244.291C317.624 244.291 266.865 244.639 186.683 245.172H186.571V245.061C186.253 192.422 185.852 126.607 185.422 55.3648V55.2315H185.555H185.57C232.666 54.9575 277.396 54.6983 317.387 54.4688H317.513V54.5872C318.099 166.539 318.507 243.187 318.507 244.283L318.522 244.291Z" fill="#263238"/>
<path d="M315.52 237.553C315.513 236.153 314.964 164.355 314.155 58.9871L314.311 59.1427C276.657 59.4019 234.537 59.6907 190.193 59.9943H190.178L190.349 59.824C190.786 126.882 191.194 188.831 191.52 238.389L191.38 238.249C266.859 237.827 314.37 237.56 315.513 237.553C314.37 237.56 266.859 237.938 191.38 238.523H191.239V238.382C190.897 188.823 190.467 126.875 190 59.8166V59.6462H190.171H190.185C234.53 59.35 276.649 59.076 314.304 58.8242H314.459V58.9797C315.075 164.348 315.498 236.146 315.505 237.545L315.52 237.553Z" fill="#034DCD"/>
<path d="M313.403 235.553C313.395 234.153 312.854 163.814 312.068 60.6825L312.223 60.838C275.667 61.0898 234.845 61.3712 191.888 61.66H191.873L192.044 61.4897C192.474 127.222 192.874 187.927 193.186 236.36L193.045 236.219C266.27 235.812 312.261 235.553 313.395 235.545C312.261 235.553 266.262 235.915 193.045 236.493H192.904V236.352C192.57 187.919 192.147 127.215 191.688 61.4823V61.3119H191.858H191.873C234.83 61.0305 275.652 60.7565 312.209 60.5195H312.364V60.675C312.965 163.806 313.381 234.145 313.388 235.545L313.403 235.553Z" fill="#034DCD"/>
<path d="M227.117 97.6026L198.281 97.7734L198.317 103.868L227.153 103.697L227.117 97.6026Z" fill="#E0E0E0"/>
<path d="M305.179 107.759L197.973 108.395L198.014 115.341L305.22 114.706L305.179 107.759Z" fill="#E0E0E0"/>
<path d="M305.37 121.476C305.37 121.557 281.511 121.809 252.081 122.031C222.645 122.254 198.793 122.365 198.785 122.276C198.785 122.194 222.637 121.943 252.074 121.72C281.503 121.498 305.363 121.387 305.363 121.476H305.37Z" fill="#263238"/>
<path d="M305.402 127.496C305.402 127.577 281.542 127.829 252.113 128.051C222.676 128.273 198.824 128.384 198.816 128.295C198.816 128.214 222.668 127.962 252.105 127.74C281.535 127.518 305.394 127.407 305.394 127.496H305.402Z" fill="#263238"/>
<path d="M305.425 133.523C305.425 133.604 281.566 133.856 252.136 134.078C222.699 134.3 198.847 134.412 198.84 134.323C198.832 134.234 222.692 133.989 252.129 133.767C281.558 133.545 305.418 133.434 305.418 133.523H305.425Z" fill="#263238"/>
<path d="M246.409 139.998C246.409 140.079 235.766 140.227 222.645 140.331C209.518 140.427 198.875 140.442 198.875 140.353C198.875 140.272 209.511 140.124 222.645 140.02C235.773 139.924 246.409 139.909 246.416 139.99L246.409 139.998Z" fill="#263238"/>
<path d="M305.476 145.581C305.476 145.663 281.616 145.915 252.187 146.137C222.75 146.359 198.898 146.47 198.891 146.381C198.891 146.3 222.743 146.048 252.18 145.826C281.609 145.604 305.468 145.493 305.468 145.581H305.476Z" fill="#263238"/>
<path d="M305.507 151.609C305.507 151.69 281.648 151.942 252.218 152.164C222.781 152.386 198.929 152.497 198.922 152.409C198.922 152.327 222.774 152.075 252.211 151.853C281.64 151.631 305.5 151.52 305.5 151.609H305.507Z" fill="#263238"/>
<path d="M284.5 187.373C284.5 187.454 265.38 187.669 241.795 187.847C218.203 188.025 199.09 188.099 199.09 188.017C199.09 187.936 218.21 187.721 241.795 187.543C265.38 187.365 284.5 187.291 284.5 187.373Z" fill="#263238"/>
<path d="M305.64 181.16C305.64 181.241 281.78 181.493 252.351 181.715C222.914 181.937 199.062 182.048 199.055 181.959C199.055 181.878 222.907 181.626 252.344 181.404C281.773 181.182 305.632 181.071 305.632 181.16H305.64Z" fill="#263238"/>
<path d="M225.507 41.5816L283.72 41.2366C286.308 41.2213 288.427 43.3046 288.442 45.8965L288.531 60.7891L220.929 61.1896L220.84 46.2971C220.825 43.7125 222.911 41.5969 225.507 41.5816Z" fill="#263238"/>
<path d="M263.179 34L245.973 34.1037L248.072 48.8113L261.029 48.7373L263.179 34Z" fill="#263238"/>
<path d="M284.071 41.2443C284.071 41.3257 270.884 41.4665 254.619 41.5627C238.347 41.659 225.16 41.6738 225.16 41.5924C225.16 41.5109 238.347 41.3702 254.619 41.2739C270.884 41.1776 284.071 41.1628 284.071 41.2443Z" fill="#455A64"/>
<path d="M222.433 58.0237C222.352 58.0237 222.277 55.254 222.255 51.84C222.233 48.426 222.285 45.6562 222.359 45.6562C222.441 45.6562 222.515 48.426 222.537 51.84C222.559 55.254 222.507 58.0237 222.433 58.0237Z" fill="#455A64"/>
<path d="M286.318 56.1801C286.236 56.1801 286.162 53.6696 286.14 50.5666C286.125 47.4636 286.169 44.9531 286.251 44.9531C286.332 44.9531 286.407 47.4636 286.429 50.5666C286.444 53.6696 286.399 56.1801 286.318 56.1801Z" fill="#455A64"/>
<path d="M283.07 58.8007C283.07 58.8822 269.534 59.0229 252.839 59.1192C236.137 59.2155 222.602 59.2303 222.602 59.1562C222.602 59.0748 236.137 58.934 252.839 58.8378C269.534 58.7415 283.077 58.7267 283.077 58.8007H283.07Z" fill="#455A64"/>
<path d="M283.247 213.93C285.954 212.567 288.32 210.286 289.358 207.391C289.795 206.169 289.907 204.628 289.002 203.577C288.149 202.584 286.769 202.399 285.553 202.673C282.839 203.295 281.318 205.976 281.793 208.642C282.327 211.619 284.96 213.523 287.778 214.122C290.485 214.7 294.416 214.448 296.433 212.286C297.279 211.375 297.694 209.99 297.019 208.857C296.315 207.68 294.839 207.206 293.578 206.909C289.892 206.043 285.998 205.858 282.238 206.235C281.036 206.361 273.857 206.85 275.259 209.405C275.585 210.005 276.356 210.205 276.979 210.301C277.958 210.457 278.967 210.508 279.954 210.553C282.112 210.664 284.285 210.62 286.436 210.427C290.656 210.049 294.809 209.094 298.755 207.568C299.237 207.383 299.022 206.606 298.532 206.791C292.992 208.924 287.059 209.938 281.118 209.79C279.709 209.753 278.092 209.805 276.727 209.427C276.364 209.324 275.83 209.146 275.986 208.687C276.075 208.413 276.401 208.257 276.646 208.146C277.313 207.835 278.092 207.717 278.804 207.568C281.793 206.946 284.871 206.739 287.919 206.917C289.477 207.006 291.019 207.206 292.547 207.509C293.711 207.739 295.128 207.991 295.996 208.872C297.153 210.042 296.226 211.612 295.069 212.338C293.934 213.056 292.532 213.389 291.205 213.508C288.713 213.73 285.887 213.175 284.07 211.345C282.364 209.627 281.845 206.687 283.506 204.754C284.359 203.762 285.835 203.14 287.148 203.399C288.876 203.74 289.083 205.532 288.638 206.954C287.756 209.753 285.375 211.945 282.816 213.226C282.349 213.463 282.764 214.152 283.232 213.922L283.247 213.93Z" fill="#455A64"/>
<path d="M251.978 207.871H202.168V213.418H251.978V207.871Z" fill="#E0E0E0"/>
<path d="M237.182 215.891H202.168V221.437H237.182V215.891Z" fill="#E0E0E0"/>
<path d="M273.417 170.391V171.591H272.12V170.436C271.037 170.362 270.013 170.051 269.383 169.614L270.087 168.036C270.755 168.481 271.712 168.784 272.587 168.784C273.462 168.784 273.818 168.533 273.818 168.17C273.818 166.97 269.516 167.844 269.516 165.037C269.516 163.852 270.369 162.845 272.12 162.63V161.445H273.417V162.608C274.218 162.675 275.005 162.889 275.613 163.245L274.953 164.83C274.226 164.445 273.514 164.245 272.854 164.245C271.956 164.245 271.63 164.548 271.63 164.926C271.63 166.081 275.924 165.215 275.924 167.999C275.924 169.147 275.101 170.14 273.417 170.384V170.391Z" fill="#E0E0E0"/>
<path d="M280.41 170.391V171.591H279.112V170.436C278.029 170.362 277.005 170.051 276.375 169.614L277.08 168.036C277.747 168.481 278.704 168.784 279.579 168.784C280.454 168.784 280.81 168.533 280.81 168.17C280.81 166.97 276.509 167.844 276.509 165.037C276.509 163.852 277.361 162.845 279.112 162.63V161.445H280.41V162.608C281.211 162.675 281.997 162.889 282.605 163.245L281.945 164.83C281.218 164.445 280.506 164.245 279.846 164.245C278.949 164.245 278.622 164.548 278.622 164.926C278.622 166.081 282.917 165.215 282.917 167.999C282.917 169.147 282.093 170.14 280.41 170.384V170.391Z" fill="#E0E0E0"/>
<path d="M287.406 170.391V171.591H286.108V170.436C285.025 170.362 284.002 170.051 283.371 169.614L284.076 168.036C284.743 168.481 285.7 168.784 286.575 168.784C287.45 168.784 287.806 168.533 287.806 168.17C287.806 166.97 283.505 167.844 283.505 165.037C283.505 163.852 284.358 162.845 286.108 162.63V161.445H287.406V162.608C288.207 162.675 288.993 162.889 289.601 163.245L288.941 164.83C288.214 164.445 287.502 164.245 286.842 164.245C285.945 164.245 285.618 164.548 285.618 164.926C285.618 166.081 289.913 165.215 289.913 167.999C289.913 169.147 289.089 170.14 287.406 170.384V170.391Z" fill="#E0E0E0"/>
<path d="M294.39 170.391V171.591H293.092V170.436C292.009 170.362 290.986 170.051 290.355 169.614L291.06 168.036C291.728 168.481 292.684 168.784 293.559 168.784C294.435 168.784 294.791 168.533 294.791 168.17C294.791 166.97 290.489 167.844 290.489 165.037C290.489 163.852 291.342 162.845 293.092 162.63V161.445H294.39V162.608C295.191 162.675 295.977 162.889 296.585 163.245L295.925 164.83C295.199 164.445 294.487 164.245 293.826 164.245C292.929 164.245 292.603 164.548 292.603 164.926C292.603 166.081 296.897 165.215 296.897 167.999C296.897 169.147 296.074 170.14 294.39 170.384V170.391Z" fill="#E0E0E0"/>
<path d="M246.413 164.082H200.57V170.303H246.413V164.082Z" fill="#E0E0E0"/>
</g>
<path d="M184.152 108.736C195.639 108.736 204.952 99.4489 204.952 87.9929C204.952 76.5369 195.639 67.25 184.152 67.25C172.664 67.25 163.352 76.5369 163.352 87.9929C163.352 99.4489 172.664 108.736 184.152 108.736Z" fill="white" stroke="#263238" stroke-linecap="round" stroke-linejoin="round"/>
<path d="M186.249 108.736C197.737 108.736 207.049 99.4489 207.049 87.9929C207.049 76.5369 197.737 67.25 186.249 67.25C174.762 67.25 165.449 76.5369 165.449 87.9929C165.449 99.4489 174.762 108.736 186.249 108.736Z" fill="white" stroke="#263238" stroke-linecap="round" stroke-linejoin="round"/>
<path d="M198.729 100.438C205.621 93.5643 205.621 82.4201 198.729 75.5466C191.836 68.673 180.662 68.673 173.769 75.5466C166.877 82.4201 166.877 93.5643 173.769 100.438C180.662 107.311 191.836 107.311 198.729 100.438Z" fill="white" stroke="#263238" stroke-linecap="round" stroke-linejoin="round"/>
<path d="M175 92L178.069 83H179.457L182.521 92H181.251L180.451 89.6411H177.082L176.276 92H175ZM177.393 88.4336H180.122L178.757 84.2946L177.393 88.4336Z" fill="#034DCD"/>
<path d="M184.042 92V83H189.534L189.528 84.1577H185.306V86.89H189.075V88.029H185.3V90.8237L189.634 90.8299V92H184.042Z" fill="#034DCD"/>
<path d="M191.449 92V83C191.481 83 191.573 83.0021 191.726 83.0062C191.883 83.0062 192.071 83.0062 192.29 83.0062C192.51 83.0021 192.733 83.0021 192.961 83.0062C193.192 83.0062 193.398 83.0083 193.578 83.0124C194.617 83.029 195.462 83.2116 196.112 83.5602C196.763 83.9087 197.24 84.4108 197.541 85.0664C197.847 85.7178 198 86.5124 198 87.4502C198 88.4253 197.837 89.2531 197.512 89.9336C197.187 90.61 196.689 91.1245 196.018 91.4772C195.352 91.8257 194.507 92 193.484 92H191.449ZM192.731 90.8797H193.496C194.139 90.8797 194.697 90.7697 195.172 90.5498C195.65 90.3257 196.02 89.9647 196.283 89.4668C196.546 88.9647 196.677 88.2946 196.677 87.4564C196.677 86.6349 196.552 85.9813 196.301 85.4959C196.05 85.0062 195.689 84.6556 195.219 84.444C194.752 84.2282 194.19 84.1203 193.531 84.1203H192.731V90.8797Z" fill="#034DCD"/>
<path d="M134.006 85.433L134.664 115.837L134.398 137.465L137.948 136.941C137.948 136.941 141.756 116.626 141.756 115.446C141.756 114.266 143.857 99.1934 143.857 99.1934L147.798 118.72L149.845 137.465L153.394 136.941C153.394 136.941 153.846 116.626 153.846 112.954C153.846 109.282 153.665 85.6859 153.665 85.6859L142.541 82.8086L134 85.427L134.006 85.433Z" fill="#263238" stroke="#263238" stroke-linecap="round" stroke-linejoin="round"/>
<path d="M137.948 136.941C137.948 136.941 143.205 140.348 142.414 141.137C141.624 141.925 137.29 141.137 136.107 141.005C134.924 140.872 134.531 140.613 134.531 140.613L134.398 137.465L137.948 136.941Z" fill="white" stroke="#263238" stroke-linecap="round" stroke-linejoin="round"/>
<path d="M153.397 136.941C153.397 136.941 158.654 140.348 157.864 141.137C157.073 141.925 152.739 141.137 151.556 141.005C150.373 140.872 149.98 140.613 149.98 140.613L149.848 137.465L153.397 136.941Z" fill="white" stroke="#263238" stroke-linecap="round" stroke-linejoin="round"/>
<path d="M180.494 66.6265L185.233 65.543C185.233 65.543 189.778 67.9688 190.164 68.2878C190.55 68.6068 189.778 68.6731 188.945 68.6731C188.112 68.6731 185.1 67.9086 185.1 67.9086C185.1 67.9086 187.086 68.4804 186.766 68.8055C186.446 69.1245 185.806 69.1907 185.486 69.1245C185.166 69.0583 183.947 68.8717 183.947 68.8717C183.947 68.8717 181.834 68.8055 181.195 68.6791L180.555 68.5527L180.488 66.6385L180.494 66.6265Z" fill="white" stroke="#263238" stroke-linecap="round" stroke-linejoin="round"/>
<path d="M149.843 47.889C149.843 47.889 139.063 53.9024 137.674 55.636C136.286 57.3696 135.821 66.0375 134.892 72.1653C133.962 78.2931 133.848 85.9197 133.848 85.9197C133.848 85.9197 141.616 86.961 145.902 86.8466C150.193 86.7323 153.67 85.6909 153.67 85.6909C153.67 85.6909 155.179 77.9439 155.523 76.7882C155.867 75.6325 158.656 61.7577 158.656 61.7577L167.233 68.5777H180.476L180.494 66.6214C180.494 66.6214 170.016 64.1836 169.895 63.8344C169.774 63.4853 160.967 50.8867 158.306 49.3878C155.638 47.883 151.696 46.4985 149.843 47.883V47.889Z" fill="#104774" stroke="#263238" stroke-linecap="round" stroke-linejoin="round"/>
<path d="M150.888 44.5352L148.92 49.2724C148.92 49.2724 147.99 49.5012 148.226 51.3552C148.455 53.2031 150.773 58.4039 151.588 58.2895C152.397 58.1751 154.95 51.2408 154.95 51.2408L150.894 44.5352H150.888Z" fill="white" stroke="#263238" stroke-linecap="round" stroke-linejoin="round"/>
<path d="M151.992 49.7695L152.819 56.0839L154.364 52.9779L151.992 49.7695Z" fill="#263238" stroke="#263238" stroke-linecap="round" stroke-linejoin="round"/>
<path d="M161.896 41.762C161.896 41.762 162.94 42.8034 164.678 41.9907C166.416 41.1841 167.225 39.4506 165.722 38.0601C164.213 36.6756 163.405 38.1744 162.94 36.3265C162.475 34.4785 160.622 33.2024 158.998 33.6659C157.375 34.1294 157.954 34.7073 156.795 35.0504C155.636 35.3995 154.127 34.3581 152.624 35.857C151.121 37.3558 150.886 40.9434 150.536 42.5626C150.186 44.1818 151.695 44.6453 152.968 44.5249C154.242 44.4106 155.286 41.75 156.33 40.9434C157.375 40.1368 161.896 41.75 161.896 41.75V41.762Z" fill="#263238" stroke="#263238" stroke-linecap="round" stroke-linejoin="round"/>
<path d="M150.652 45.0011C150.652 45.0011 150.766 47.5413 151.231 48.3539C151.696 49.1605 153.664 52.9768 154.358 52.9768C155.052 52.9768 156.096 52.9768 156.561 52.7481C157.026 52.5194 158.879 50.0875 160.038 48.0108C161.196 45.9281 161.891 41.7687 161.891 41.7687C161.891 41.7687 156.325 38.3015 155.981 38.9937C155.631 39.686 155.752 40.7273 155.173 40.8417C154.593 40.9561 153.319 41.0704 153.319 41.0704C153.319 41.0704 153.67 42.6897 153.205 43.0328C152.74 43.3819 151.581 42.6836 151.581 42.6836C151.581 42.6836 150.193 42.9124 150.652 44.9951V45.0011Z" fill="white" stroke="#263238" stroke-linecap="round" stroke-linejoin="round"/>
<path d="M157.103 45.409C157 45.8484 156.716 46.1614 156.469 46.1073C156.221 46.0471 156.107 45.6438 156.209 45.2043C156.312 44.7649 156.596 44.4519 156.843 44.5061C157.091 44.5663 157.205 44.9696 157.103 45.409Z" fill="#263238"/>
<path d="M160.126 46.2528C160.024 46.6922 159.74 47.0052 159.492 46.951C159.245 46.8908 159.13 46.4875 159.233 46.0481C159.335 45.6087 159.619 45.2957 159.867 45.3498C160.114 45.404 160.229 45.8133 160.126 46.2528Z" fill="#263238"/>
<path d="M155.836 43.7569C155.836 43.7569 156.295 43.3898 157.665 43.7569" stroke="#263238" stroke-linecap="round" stroke-linejoin="round"/>
<path d="M159.68 44.5742C159.68 44.5742 160.501 44.6645 160.869 45.3026" stroke="#263238" stroke-linecap="round" stroke-linejoin="round"/>
<path d="M158.672 46.2188L158.213 48.6867L156.746 48.5001" stroke="#263238" stroke-linecap="round" stroke-linejoin="round"/>
<path d="M156.294 49.9593C156.294 49.9593 154.924 49.9593 154.465 48.0391" stroke="#263238" stroke-linecap="round" stroke-linejoin="round"/>
<path d="M152.161 43.7231C152.161 43.7231 151.932 41.0625 150.888 41.0625C149.843 41.0625 148.92 43.4883 149.499 44.5297C150.079 45.571 151.588 45.9141 151.588 45.9141" fill="white"/>
<path d="M152.161 43.7231C152.161 43.7231 151.932 41.0625 150.888 41.0625C149.843 41.0625 148.92 43.4883 149.499 44.5297C150.079 45.571 151.588 45.9141 151.588 45.9141" stroke="#263238" stroke-linecap="round" stroke-linejoin="round"/>
<path d="M142.915 57.6999L144.925 74.3195L161.802 80.0801L162.062 82.0303L139.493 78.9424C139.493 78.9424 136.288 62.5154 135.847 60.2461C135.407 57.9768 136.584 55.5148 138.201 54.1364C139.825 52.764 142.372 52.6797 142.372 52.6797" fill="#104774"/>
<path d="M142.915 57.6999L144.925 74.3195L161.802 80.0801L162.062 82.0303L139.493 78.9424C139.493 78.9424 136.288 62.5154 135.847 60.2461C135.407 57.9768 136.584 55.5148 138.201 54.1364C139.825 52.764 142.372 52.6797 142.372 52.6797" stroke="#263238" stroke-linecap="round" stroke-linejoin="round"/>
<path d="M161.801 80.0826C161.801 80.0826 164.487 79.3302 164.831 79.264C165.175 79.1978 166.98 80.6123 167.348 80.6605C167.71 80.7086 168.326 80.823 168.302 81.2985C168.277 81.7741 168.114 82.1593 167.227 81.8583C166.34 81.5574 165.766 81.2504 165.766 81.2504C165.766 81.2504 168.012 83.4715 168.398 83.6341C168.621 83.7244 169.008 84.0795 169.304 84.3624C169.497 84.549 169.436 84.8741 169.189 84.9824C168.64 85.2232 167.722 85.5663 166.889 85.5723C165.591 85.5844 162.066 82.0269 162.066 82.0269L161.807 80.0766L161.801 80.0826Z" fill="white" stroke="#263238" stroke-linecap="round" stroke-linejoin="round"/>
<path d="M0.300781 255.008H435.697" stroke="#263238" stroke-linecap="round" stroke-linejoin="round"/>
<path d="M382.088 168.839L377.542 183.707L367.45 175.972C367.45 175.972 367.052 173.57 366.847 173.107C366.647 172.637 365.44 171.241 365.175 170.705C364.909 170.169 364.505 170.639 364.505 171.036C364.505 171.433 365.44 172.77 365.44 172.77L364.969 173.239L361.227 171.463C361.04 171.373 360.823 171.457 360.738 171.644C360.672 171.795 360.714 171.975 360.847 172.077L362.893 173.636L362.627 174.172L359.217 172.776C359.036 172.703 358.831 172.794 358.77 172.98C358.722 173.131 358.782 173.299 358.921 173.378L362.024 175.171L359.996 175.563C359.796 175.605 359.67 175.81 359.736 176.002C359.784 176.141 359.911 176.237 360.062 176.237H362.157L360.352 176.905C360.352 176.905 360.587 177.429 360.949 177.411L363.092 177.308L366.237 177.507C366.237 177.507 376.462 188.191 376.794 188.516C377.126 188.842 379.136 189.576 379.534 189.173C379.933 188.775 384.411 183.376 384.411 183.376L383.741 169.375C383.741 169.375 383.071 168.044 382.069 168.839H382.088Z" fill="white" stroke="#263238" stroke-linecap="round" stroke-linejoin="round"/>
<path d="M384.502 151.696C384.502 151.696 382.546 151.829 381.635 148.704C380.724 145.586 383.066 144.677 384.369 144.419C385.673 144.16 385.933 141.301 388.148 140.909C390.363 140.518 392.711 142.336 393.23 143.901C393.749 145.46 397.142 143.118 399.097 145.201C401.053 147.278 400.92 151.311 400.92 152.737C400.92 154.164 405.351 154.429 405.351 157.806C405.351 161.183 404.831 162.874 405.091 163.392C405.351 163.909 407.306 174.552 407.306 174.552H382.939C382.939 174.552 382.154 166.769 383.072 164.818C383.983 162.868 384.768 162.742 385.154 160.918C385.546 159.1 385.154 156.241 384.894 154.941C384.635 153.64 384.502 151.69 384.502 151.69V151.696Z" fill="#263238" stroke="#263238" stroke-linecap="round" stroke-linejoin="round"/>
<path d="M389.192 165.343L381.895 165.47L383.331 183.275L397.142 184.317L403.66 165.861L395.838 165.211L389.192 165.343Z" fill="#263238" stroke="#263238" stroke-linecap="round" stroke-linejoin="round"/>
<path d="M386.849 147.538C386.849 147.538 384.894 150.265 384.501 151.697C384.109 153.124 383.783 154.845 384.169 156.79C384.562 158.74 385.672 161.96 386.451 162.219C387.236 162.478 389.318 162.219 389.318 162.219L389.185 165.337H388.141L388.274 170.014L393.223 170.273L395.831 165.205L394.527 164.946L393.616 157.277C393.616 157.277 394.919 155.851 395.046 154.809C395.179 153.768 395.179 153.25 395.179 153.25C395.179 153.25 393.616 154.418 392.312 153.25C391.008 152.083 390.616 150.782 390.229 149.482C389.843 148.182 389.058 147.141 388.407 147.141C387.755 147.141 386.843 147.532 386.843 147.532L386.849 147.538Z" fill="white" stroke="#263238" stroke-linecap="round" stroke-linejoin="round"/>
<path d="M389.324 162.224L391.539 161.441L389.451 163.783L389.324 162.224Z" fill="#263238" stroke="#263238" stroke-linecap="round" stroke-linejoin="round"/>
<path d="M383.33 183.273L381.899 187.824C381.899 187.824 376.684 193.41 375.646 203.806C374.602 214.201 376.298 224.47 376.817 228.63C377.336 232.789 382.37 251.172 382.37 251.172H385.756C385.756 251.172 384.507 234.089 384.507 232.398V222.911L394.086 249.18L397.213 249.312C397.213 249.312 395.963 236.906 395.178 231.838C394.394 226.77 392.975 222.002 392.975 222.002C392.975 222.002 399.88 208.356 399.88 199.002C399.88 189.648 397.532 187.565 397.532 187.565L397.14 184.315L383.33 183.273Z" fill="#BABABA" stroke="#263238" stroke-linecap="round" stroke-linejoin="round"/>
<path d="M387.512 197.556C387.964 195.528 388.278 194.191 388.278 194.191" stroke="#263238" stroke-linecap="round" stroke-linejoin="round"/>
<path d="M384.502 222.912C384.502 222.912 383.983 220.312 384.369 214.726C384.599 211.427 385.921 204.878 386.959 200.062" stroke="#263238" stroke-linecap="round" stroke-linejoin="round"/>
<path d="M382.365 251.172C382.365 251.172 376.238 254.031 376.238 254.681C376.238 255.331 386.011 254.681 386.011 254.681C386.011 254.681 386.403 253.64 386.27 252.731C386.137 251.822 385.751 251.172 385.751 251.172H382.365Z" fill="white" stroke="#263238" stroke-linecap="round" stroke-linejoin="round"/>
<path d="M394.079 249.182C394.079 249.182 391.212 252.824 390.301 253.732C389.389 254.641 389.649 255.291 390.433 255.291C391.218 255.291 395.649 255.033 396.427 254.509C397.212 253.991 397.598 253.468 397.598 253.468L397.206 249.308L394.079 249.176V249.182Z" fill="white" stroke="#263238" stroke-linecap="round" stroke-linejoin="round"/>
<path d="M402.874 168.199C402.874 168.199 404.045 185.481 403.007 187.305C401.963 189.123 398.969 188.087 398.709 187.305C398.45 186.522 398.969 179.769 398.969 179.769L402.88 168.205L402.874 168.199Z" fill="white" stroke="#263238" stroke-linecap="round" stroke-linejoin="round"/>
<path d="M371.14 126.86L315.902 134.887L329.837 230.257L385.075 222.23L371.14 126.86Z" fill="#85AAD6" stroke="#263238" stroke-linecap="round" stroke-linejoin="round"/>
<path d="M367.771 141.3C364.089 141.836 360.672 139.295 360.135 135.624C360.093 135.347 360.075 135.07 360.069 134.793L328.355 139.398C328.428 139.663 328.488 139.934 328.53 140.21C329.068 143.882 326.52 147.289 322.838 147.825C322.7 147.843 322.561 147.855 322.422 147.861L332.375 216.001C332.514 215.971 332.647 215.941 332.786 215.923C336.468 215.387 339.884 217.927 340.421 221.599C340.464 221.876 340.482 222.153 340.488 222.43L372.201 217.825C372.129 217.56 372.068 217.289 372.026 217.012C371.489 213.34 374.036 209.933 377.718 209.398C377.996 209.355 378.273 209.337 378.551 209.331L368.591 141.119C368.326 141.192 368.054 141.252 367.777 141.294L367.771 141.3ZM352.077 189.473C346.047 190.352 340.439 186.181 339.564 180.167C338.683 174.154 342.866 168.562 348.896 167.689C354.926 166.81 360.533 170.982 361.409 176.995C362.29 183.008 358.107 188.601 352.077 189.473Z" fill="white" stroke="#263238" stroke-linecap="round" stroke-linejoin="round"/>
<path d="M360.209 128.873L306.285 143.262L331.266 236.363L385.19 221.974L360.209 128.873Z" fill="#85AAD6" stroke="#263238" stroke-linecap="round" stroke-linejoin="round"/>
<path d="M358.546 143.591C354.954 144.548 351.26 142.424 350.3 138.842C350.228 138.571 350.18 138.294 350.137 138.023L319.179 146.282C319.281 146.535 319.378 146.8 319.45 147.071C320.41 150.652 318.279 154.336 314.688 155.293C314.549 155.329 314.416 155.353 314.277 155.377L332.126 221.898C332.259 221.856 332.385 221.808 332.524 221.772C336.116 220.814 339.81 222.939 340.769 226.521C340.842 226.792 340.89 227.069 340.932 227.339L371.891 219.081C371.789 218.828 371.692 218.563 371.62 218.292C370.66 214.711 372.791 211.027 376.382 210.07C376.654 209.998 376.931 209.949 377.203 209.907L359.336 143.314C359.083 143.417 358.817 143.513 358.546 143.585V143.591ZM348.586 193.264C342.695 194.835 336.647 191.349 335.071 185.474C333.496 179.6 336.991 173.568 342.882 171.997C348.773 170.426 354.821 173.911 356.397 179.786C357.972 185.661 354.477 191.693 348.586 193.264Z" fill="white" stroke="#263238" stroke-linecap="round" stroke-linejoin="round"/>
<path d="M399.881 184.441L380.463 184.05C380.463 184.05 376.552 182.75 375.9 182.75C375.393 182.75 373.86 183.226 373.202 183.43C373.027 183.484 372.93 183.659 372.96 183.84C372.996 184.026 373.184 184.153 373.371 184.122L375.242 183.791L375.761 184.183L372 186.602C371.844 186.705 371.789 186.909 371.88 187.078C371.97 187.247 372.176 187.313 372.351 187.234L375.175 185.91L375.272 186.62L372.248 188.192C372.049 188.294 371.958 188.535 372.043 188.739C372.121 188.938 372.332 189.052 372.544 189.004L373.654 188.751C373.914 189.07 374.336 189.203 374.735 189.088L376.793 188.511L375.489 189.341C375.284 189.474 375.26 189.757 375.441 189.925C375.568 190.039 375.755 190.052 375.9 189.955L378.507 188.18L380.741 186.759L400.412 190.22C400.412 190.22 402.078 190.365 402.362 190.033C402.645 189.702 403.219 186.572 403.267 185.766" fill="white"/>
<path d="M399.881 184.441L380.463 184.05C380.463 184.05 376.552 182.75 375.9 182.75C375.393 182.75 373.86 183.226 373.202 183.43C373.027 183.484 372.93 183.659 372.96 183.84C372.996 184.026 373.184 184.153 373.371 184.122L375.242 183.791L375.761 184.183L372 186.602C371.844 186.705 371.789 186.909 371.88 187.078C371.97 187.247 372.176 187.313 372.351 187.234L375.175 185.91L375.272 186.62L372.248 188.192C372.049 188.294 371.958 188.535 372.043 188.739C372.121 188.938 372.332 189.052 372.544 189.004L373.654 188.751C373.914 189.07 374.336 189.203 374.735 189.088L376.793 188.511L375.489 189.341C375.284 189.474 375.26 189.757 375.441 189.925C375.568 190.039 375.755 190.052 375.9 189.955L378.507 188.18L380.741 186.759L400.412 190.22C400.412 190.22 402.078 190.365 402.362 190.033C402.645 189.702 403.219 186.572 403.267 185.766" stroke="#263238" stroke-linecap="round" stroke-linejoin="round"/>
<path d="M373.668 188.751L376.33 187.758" stroke="#263238" stroke-linecap="round" stroke-linejoin="round"/>
<path d="M386.245 153.4C386.245 153.846 386.016 154.207 385.726 154.207C385.436 154.207 385.207 153.846 385.207 153.4C385.207 152.955 385.436 152.594 385.726 152.594C386.016 152.594 386.245 152.955 386.245 153.4Z" fill="#263238"/>
<path d="M389.159 154.014C389.159 154.459 388.93 154.82 388.64 154.82C388.35 154.82 388.121 154.459 388.121 154.014C388.121 153.568 388.35 153.207 388.64 153.207C388.93 153.207 389.159 153.568 389.159 154.014Z" fill="#263238"/>
<path d="M385.082 151.557C385.082 151.557 385.601 150.913 386.633 151.623" stroke="#263238" stroke-linecap="round" stroke-linejoin="round"/>
<path d="M388.055 151.95C388.055 151.95 389.153 151.432 389.932 152.726" stroke="#263238" stroke-linecap="round" stroke-linejoin="round"/>
<path d="M386.764 153.434C386.764 153.434 386.891 154.144 386.697 154.595C386.504 155.047 385.599 155.89 385.659 156.082C385.719 156.275 386.178 156.407 386.178 156.407" stroke="#263238" stroke-linecap="round" stroke-linejoin="round"/>
<path d="M385.594 157.958C385.594 157.958 387.405 158.795 388.829 157.633" stroke="#263238" stroke-linecap="round" stroke-linejoin="round"/>
<path d="M295.75 77.2133V71.0859H299.958L299.954 72.1284H296.992V73.6157H299.564V74.6369H296.983V76.1582L300 76.1624V77.2133H295.75Z" fill="#034DCD"/>
<path d="M292.162 77.2969C291.592 77.2969 291.099 77.1641 290.683 76.8985C290.268 76.633 289.947 76.2601 289.721 75.7798C289.498 75.2996 289.387 74.7388 289.387 74.0976C289.387 73.4535 289.498 72.9012 289.721 72.4407C289.945 71.9774 290.264 71.6215 290.679 71.3729C291.094 71.1243 291.589 71 292.162 71C292.623 71 293.032 71.0932 293.391 71.2797C293.753 71.4633 294.044 71.7147 294.264 72.0339C294.487 72.3532 294.619 72.7133 294.658 73.1145H293.361C293.322 72.9026 293.25 72.7148 293.145 72.5509C293.041 72.3842 292.904 72.2543 292.734 72.1611C292.565 72.065 292.361 72.017 292.124 72.017C291.839 72.017 291.593 72.0862 291.387 72.2246C291.181 72.363 291.022 72.5862 290.912 72.8941C290.802 73.2021 290.747 73.6089 290.747 74.1145C290.747 74.8773 290.868 75.4296 291.111 75.7714C291.357 76.1104 291.695 76.2799 292.124 76.2799C292.361 76.2799 292.565 76.2262 292.734 76.1188C292.904 76.0087 293.041 75.8646 293.145 75.6866C293.25 75.5058 293.322 75.3081 293.361 75.0934H294.658C294.621 75.3844 294.551 75.6626 294.446 75.9282C294.342 76.1909 294.193 76.4254 294.001 76.6316C293.809 76.8378 293.562 77.0002 293.26 77.1189C292.957 77.2375 292.592 77.2969 292.162 77.2969Z" fill="#034DCD"/>
<path d="M283.039 77.2133V71.0859H284.264L287.06 75.1412V71.0859H288.298V77.2133H287.183L284.272 72.997V77.2133H283.039Z" fill="#034DCD"/>
<path d="M276.426 77.2133L278.617 71.0859H279.926L282.117 77.2133H280.884L280.384 75.7937H278.176L277.667 77.2133H276.426ZM278.456 74.7132H280.083L279.273 72.2767L278.456 74.7132Z" fill="#034DCD"/>
<path d="M270.887 77.2133L269.082 71.0859H270.294L271.434 75.1327L272.574 71.0859H273.468L274.62 75.1327L275.76 71.0859H276.968L275.159 77.2133H274.171L273.019 73.2089L271.858 77.2133H270.887Z" fill="#034DCD"/>
<path d="M265.971 77.2969C265.392 77.2969 264.89 77.1711 264.467 76.9197C264.046 76.6655 263.719 76.3053 263.488 75.8392C263.259 75.3702 263.145 74.8109 263.145 74.1611C263.145 73.5086 263.26 72.9464 263.492 72.4746C263.726 72.0029 264.056 71.6399 264.479 71.3856C264.903 71.1285 265.4 71 265.971 71C266.539 71 267.033 71.1271 267.454 71.3814C267.875 71.6356 268.2 71.9986 268.429 72.4704C268.66 72.9422 268.776 73.5057 268.776 74.1611C268.776 74.8081 268.662 75.366 268.433 75.8349C268.207 76.3039 267.883 76.6655 267.462 76.9197C267.042 77.1711 266.544 77.2969 265.971 77.2969ZM265.971 76.2799C266.27 76.2799 266.529 76.2092 266.746 76.068C266.967 75.9239 267.136 75.6979 267.255 75.39C267.374 75.0793 267.433 74.6753 267.433 74.1781C267.433 73.6668 267.372 73.2529 267.251 72.9365C267.132 72.6201 266.962 72.3885 266.742 72.2416C266.525 72.0919 266.268 72.017 265.971 72.017C265.674 72.017 265.416 72.0919 265.195 72.2416C264.975 72.3885 264.804 72.6215 264.683 72.9408C264.561 73.2572 264.501 73.6696 264.501 74.1781C264.501 74.6781 264.561 75.0821 264.683 75.39C264.804 75.6979 264.975 75.9239 265.195 76.068C265.416 76.2092 265.674 76.2799 265.971 76.2799Z" fill="#034DCD"/>
<path d="M258.695 77.2133V71.0859H259.941V76.1666H262.602V77.2133H258.695Z" fill="#034DCD"/>
<path d="M253.805 77.2133V71.0859H255.051V76.1666H257.712V77.2133H253.805Z" fill="#034DCD"/>
<path d="M247.195 77.2133L249.386 71.0859H250.695L252.886 77.2133H251.653L251.153 75.7937H248.945L248.437 77.2133H247.195ZM249.225 74.7132H250.852L250.043 72.2767L249.225 74.7132Z" fill="#034DCD"/>
<path d="M240.844 77.2133V71.0859H242.09V76.1666H244.751V77.2133H240.844Z" fill="#034DCD"/>
<path d="M234.234 77.2133L236.425 71.0859H237.735L239.925 77.2133H238.692L238.192 75.7937H235.984L235.476 77.2133H234.234ZM236.264 74.7132H237.891L237.082 72.2767L236.264 74.7132Z" fill="#034DCD"/>
<path d="M232.078 77.2133V71.0859H233.311V77.2133H232.078Z" fill="#034DCD"/>
<path d="M228.494 77.2969C227.924 77.2969 227.431 77.1641 227.015 76.8985C226.6 76.633 226.28 76.2601 226.054 75.7798C225.83 75.2996 225.719 74.7388 225.719 74.0976C225.719 73.4535 225.83 72.9012 226.054 72.4407C226.277 71.9774 226.596 71.6215 227.011 71.3729C227.426 71.1243 227.921 71 228.494 71C228.955 71 229.364 71.0932 229.723 71.2797C230.085 71.4633 230.376 71.7147 230.596 72.0339C230.819 72.3532 230.951 72.7133 230.99 73.1145H229.693C229.654 72.9026 229.582 72.7148 229.477 72.5509C229.373 72.3842 229.236 72.2543 229.066 72.1611C228.897 72.065 228.693 72.017 228.456 72.017C228.171 72.017 227.925 72.0862 227.719 72.2246C227.513 72.363 227.354 72.5862 227.244 72.8941C227.134 73.2021 227.079 73.6089 227.079 74.1145C227.079 74.8773 227.2 75.4296 227.443 75.7714C227.689 76.1104 228.027 76.2799 228.456 76.2799C228.693 76.2799 228.897 76.2262 229.066 76.1188C229.236 76.0087 229.373 75.8646 229.477 75.6866C229.582 75.5058 229.654 75.3081 229.693 75.0934H230.99C230.953 75.3844 230.883 75.6626 230.778 75.9282C230.674 76.1909 230.525 76.4254 230.333 76.6316C230.141 76.8378 229.894 77.0002 229.592 77.1189C229.29 77.2375 228.924 77.2969 228.494 77.2969Z" fill="#034DCD"/>
<path d="M220.652 77.2133V71.0859H224.86L224.856 72.1284H221.894V73.6157H224.466V74.6369H221.885V76.1582L224.903 76.1624V77.2133H220.652Z" fill="#034DCD"/>
<path d="M215.121 77.2133V71.0859H217.375C217.822 71.0859 218.221 71.1636 218.575 71.319C218.928 71.4715 219.206 71.6975 219.409 71.997C219.616 72.2964 219.719 72.6623 219.719 73.0945C219.719 73.5013 219.628 73.8488 219.448 74.1369C219.267 74.4251 219.012 74.6454 218.685 74.7979C218.36 74.9505 217.977 75.0268 217.536 75.0268H216.367V77.2133H215.121ZM216.354 74.0691H217.503C217.813 74.0691 218.068 73.9702 218.265 73.7725C218.463 73.5719 218.562 73.3247 218.562 73.0309C218.562 72.7258 218.457 72.4843 218.248 72.3063C218.039 72.1255 217.785 72.0351 217.486 72.0351H216.354V74.0691Z" fill="#034DCD"/>
<path d="M211.559 77.2962C211.254 77.2962 210.956 77.2581 210.665 77.1818C210.374 77.1055 210.109 76.9911 209.869 76.8385C209.629 76.686 209.431 76.4953 209.275 76.2665C209.123 76.0377 209.031 75.7693 209 75.4614H210.267C210.309 75.6478 210.39 75.8046 210.509 75.9317C210.63 76.0589 210.785 76.1563 210.975 76.2241C211.167 76.2919 211.386 76.3258 211.631 76.3258C211.826 76.3258 212.011 76.2976 212.187 76.2411C212.362 76.1846 212.504 76.0984 212.615 75.9826C212.725 75.8668 212.78 75.7213 212.78 75.5461C212.78 75.3371 212.704 75.1803 212.551 75.0758C212.398 74.9684 212.191 74.8837 211.928 74.8215L210.78 74.5715C210.455 74.5037 210.171 74.3992 209.928 74.2579C209.688 74.1139 209.503 73.9274 209.373 73.6986C209.243 73.4669 209.178 73.1859 209.178 72.8553C209.178 72.474 209.282 72.1449 209.492 71.868C209.703 71.5912 209.99 71.3793 210.352 71.2324C210.716 71.0827 211.124 71.0078 211.576 71.0078C212.088 71.0078 212.519 71.0911 212.869 71.2578C213.222 71.4217 213.492 71.6448 213.678 71.9273C213.865 72.207 213.959 72.5192 213.962 72.8638H212.725C212.702 72.6519 212.637 72.4824 212.53 72.3553C212.422 72.2254 212.284 72.1322 212.115 72.0757C211.948 72.0163 211.757 71.9867 211.542 71.9867C211.172 71.9867 210.903 72.0615 210.733 72.2112C210.564 72.361 210.479 72.5347 210.479 72.7325C210.479 72.9189 210.542 73.07 210.67 73.1859C210.8 73.2989 211.007 73.385 211.292 73.4443L212.356 73.6732C212.752 73.7494 213.072 73.8709 213.318 74.0376C213.564 74.2014 213.743 74.4006 213.856 74.6351C213.969 74.8695 214.026 75.1323 214.026 75.4232C214.026 75.7933 213.92 76.1196 213.708 76.4021C213.499 76.6818 213.209 76.9007 212.839 77.0589C212.469 77.2171 212.042 77.2962 211.559 77.2962Z" fill="#034DCD"/>
</g>
<defs>
<clipPath id="clip0_2604_57278">
<rect width="436" height="271" fill="white"/>
</clipPath>
<clipPath id="clip1_2604_57278">
<rect width="148" height="221" fill="white" transform="translate(178 34)"/>
</clipPath>
</defs>
</svg>
