<svg width="201" height="182" viewBox="0 0 201 182" fill="none" xmlns="http://www.w3.org/2000/svg">
<path d="M166.166 106.744H171.086V101.187H166.166V106.744Z" fill="white"/>
<path d="M191.618 78.0938H186.98V84.8087H191.618V78.0938Z" fill="#FAFAFA"/>
<path d="M191.618 102.678H186.98V109.393H191.618V102.678Z" fill="#FAFAFA"/>
<path d="M173.435 109.709C173.361 109.709 173.305 102.785 173.305 94.2461C173.305 85.7071 173.361 78.7832 173.435 78.7832C173.508 78.7832 173.565 85.7071 173.565 94.2461C173.565 102.785 173.508 109.709 173.435 109.709Z" fill="#E0E0E0"/>
<path d="M151.637 158.955H160.121V149.366H151.637V158.955Z" fill="white"/>
<path d="M195.545 109.528H187.547V121.117H195.545V109.528Z" fill="#FAFAFA"/>
<path d="M195.545 151.947H187.547V163.536H195.545V151.947Z" fill="#FAFAFA"/>
<path d="M164.175 164.073C164.051 164.073 163.949 152.128 163.949 137.394C163.949 122.659 164.051 110.715 164.175 110.715C164.299 110.715 164.401 122.659 164.401 137.394C164.401 152.128 164.299 164.073 164.175 164.073Z" fill="#E0E0E0"/>
<path d="M51.3764 157.888L54.2742 163.761L60.7646 164.704L56.0705 169.279L57.1776 175.74L51.3764 172.69L45.5752 175.74L46.6823 169.279L41.9883 164.704L48.473 163.761L51.3764 157.888Z" fill="#BDD4E6"/>
<path d="M59.0369 152.043L60.2344 154.471L62.9119 154.861L60.9744 156.753L61.432 159.419L59.0369 158.159L56.6362 159.419L57.0938 156.753L55.1562 154.861L57.8337 154.471L59.0369 152.043Z" fill="#BDD4E6"/>
<path d="M166.163 129.543L168.716 134.71L174.416 135.535L170.292 139.562L171.264 145.237L166.163 142.555L161.062 145.237L162.034 139.562L157.91 135.535L163.615 134.71L166.163 129.543Z" fill="#062B6B"/>
<path d="M178.332 124.963L179.535 127.397L182.224 127.787L180.28 129.684L180.738 132.361L178.332 131.096L175.931 132.361L176.388 129.684L174.445 127.787L177.134 127.397L178.332 124.963Z" fill="#062B6B"/>
<g clip-path="url(#clip0_2332_102239)">
<path d="M43.3597 168.133H12.1797" stroke="#303030" stroke-width="1.5" stroke-linecap="round" stroke-linejoin="round"/>
<path d="M9.29558 168.133H8.33203" stroke="#303030" stroke-width="1.5" stroke-linecap="round" stroke-linejoin="round"/>
<path d="M39.2527 162.858H21.8555" stroke="#303030" stroke-width="1.5" stroke-linecap="round" stroke-linejoin="round"/>
<path d="M36.6178 157.579H31.4492" stroke="#303030" stroke-width="1.5" stroke-linecap="round" stroke-linejoin="round"/>
<path d="M149.067 168.133H117.887" stroke="#303030" stroke-width="1.5" stroke-linecap="round" stroke-linejoin="round"/>
<path d="M114.998 168.133H114.039" stroke="#303030" stroke-width="1.5" stroke-linecap="round" stroke-linejoin="round"/>
<path d="M144.96 162.858H127.562" stroke="#303030" stroke-width="1.5" stroke-linecap="round" stroke-linejoin="round"/>
<path d="M79.1969 166.079C87.8939 157.344 87.8445 143.23 79.0866 134.556C70.3286 125.882 56.1786 125.931 47.4817 134.666C38.7847 143.401 38.8341 157.514 47.592 166.189C56.3499 174.863 70.4999 174.814 79.1969 166.079Z" fill="#062B6B" stroke="#303030" stroke-width="1.5" stroke-linecap="round" stroke-linejoin="round"/>
<path d="M82.5288 165.981C91.166 157.187 91.0202 143.074 82.2033 134.459C73.3864 125.845 59.2371 125.99 50.5999 134.784C41.9627 143.578 42.1085 157.691 50.9254 166.305C59.7423 174.92 73.8916 174.775 82.5288 165.981Z" fill="#258BC0" stroke="#303030" stroke-width="1.5" stroke-linecap="round" stroke-linejoin="round"/>
<path d="M77.5117 161.294C83.5566 155.265 83.5566 145.489 77.5117 139.46C71.4667 133.431 61.666 133.431 55.6211 139.46C49.5762 145.489 49.5762 155.265 55.6211 161.294C61.666 167.323 71.4667 167.323 77.5117 161.294Z" fill="#062B6B" stroke="#303030" stroke-width="1.5" stroke-linecap="round" stroke-linejoin="round"/>
<path d="M71.6776 155.235C74.3706 152.423 74.2676 147.965 71.4476 145.279C68.6277 142.594 64.1587 142.696 61.4658 145.509C58.7729 148.321 58.8758 152.779 61.6958 155.465C64.5157 158.151 68.9847 158.048 71.6776 155.235Z" fill="#D1EAFF"/>
<path d="M69.4102 150.376C69.4102 151.94 68.1358 153.211 66.5684 153.211C65.0009 153.211 63.7266 151.94 63.7266 150.376C63.7266 148.813 65.0009 147.542 66.5684 147.542C68.1358 147.542 69.4102 148.813 69.4102 150.376Z" fill="#062B6B"/>
<path d="M67.5824 154.655C62.1075 156.139 59.5277 148.424 64.6163 146.09C67.1562 144.894 70.4909 146.573 70.8638 149.367C69.8204 145.864 64.9893 145.129 63.1066 148.238C61.1528 151.303 63.9724 155.293 67.5824 154.655Z" fill="#062B6B"/>
<path d="M65.8129 151.782C65.9639 151.914 66.1149 152.021 66.2881 152.114C66.7809 152.375 67.3404 152.446 67.8777 152.335C74.9955 150.807 86.3095 146.21 90.1593 144.594L88.7162 134.066C80.3772 141.511 70.4664 146.374 66.5145 147.853V147.862C66.1948 147.991 65.8884 148.185 65.6353 148.464C64.7695 149.425 64.8494 150.914 65.8174 151.782H65.8129Z" fill="white" stroke="#303030" stroke-width="1.5" stroke-linecap="round" stroke-linejoin="round"/>
<path d="M68.1749 150.108C68.1749 150.604 67.7709 151.011 67.2691 151.011C66.7673 151.011 66.3633 150.608 66.3633 150.108C66.3633 149.607 66.7673 149.204 67.2691 149.204C67.7709 149.204 68.1749 149.607 68.1749 150.108Z" fill="#303030"/>
<path d="M185.052 165.986C193.689 157.192 193.544 143.079 184.727 134.464C175.91 125.85 161.761 125.995 153.123 134.789C144.486 143.583 144.632 157.696 153.449 166.31C162.266 174.925 176.415 174.78 185.052 165.986Z" fill="#062B6B" stroke="#303030" stroke-width="1.5" stroke-linecap="round" stroke-linejoin="round"/>
<path d="M188.17 166.073C196.867 157.338 196.817 143.225 188.059 134.55C179.301 125.876 165.151 125.925 156.454 134.66C147.757 143.395 147.807 157.509 156.565 166.183C165.323 174.857 179.473 174.808 188.17 166.073Z" fill="#258BC0" stroke="#303030" stroke-width="1.5" stroke-linecap="round" stroke-linejoin="round"/>
<path d="M183.147 161.397C189.252 155.428 189.35 145.654 183.365 139.565C177.381 133.476 167.58 133.379 161.476 139.348C155.371 145.316 155.273 155.091 161.258 161.18C167.242 167.269 177.042 167.366 183.147 161.397Z" fill="#062B6B" stroke="#303030" stroke-width="1.5" stroke-linecap="round" stroke-linejoin="round"/>
<path d="M177.357 155.297C180.085 152.517 180.037 148.059 177.251 145.339C174.465 142.618 169.995 142.665 167.267 145.445C164.539 148.224 164.587 152.682 167.373 155.403C170.16 158.123 174.63 158.076 177.357 155.297Z" fill="#D1EAFF"/>
<path d="M175.156 150.377C175.156 151.941 173.882 153.212 172.314 153.212C170.747 153.212 169.473 151.941 169.473 150.377C169.473 148.814 170.747 147.543 172.314 147.543C173.882 147.543 175.156 148.814 175.156 150.377Z" fill="#062B6B"/>
<path d="M173.329 154.655C167.854 156.139 165.274 148.424 170.362 146.09C172.902 144.894 176.237 146.573 176.61 149.367C175.566 145.864 170.735 145.129 168.853 148.238C166.899 151.303 169.719 155.293 173.329 154.655Z" fill="#062B6B"/>
<path d="M172.674 152.392C172.478 152.436 172.292 152.463 172.101 152.463C171.541 152.463 171.013 152.264 170.595 151.914C165.032 147.228 157.208 137.87 154.57 134.641L160.805 126.027C164.663 136.51 171.119 145.443 173.912 148.601L173.904 148.61C174.13 148.871 174.308 149.19 174.401 149.553C174.712 150.806 173.943 152.086 172.678 152.392H172.674Z" fill="white" stroke="#303030" stroke-width="1.5" stroke-linecap="round" stroke-linejoin="round"/>
<path d="M173.015 150.107C173.015 150.603 172.611 151.01 172.109 151.01C171.607 151.01 171.203 150.607 171.203 150.107C171.203 149.606 171.607 149.203 172.109 149.203C172.611 149.203 173.015 149.606 173.015 150.107Z" fill="#303030"/>
<path d="M150.173 139.855C151.341 140.909 153.166 140.736 154.103 139.474C157.713 134.602 163.237 131.028 170.013 131.028C175.772 131.028 179.253 132.069 180.807 132.685C181.473 132.946 182.215 132.928 182.872 132.631L185.776 131.329C187.463 130.572 187.889 128.38 186.606 127.051C184.048 124.412 179.386 120.944 172.703 121.223C163.645 121.595 157.864 123.907 152.757 131.099C151.399 133.012 150.342 134.934 149.529 136.803C149.072 137.857 149.325 139.08 150.178 139.855H150.173Z" fill="#156BA8"/>
<path d="M165.04 122.246C160.067 123.535 156.249 126.17 152.75 131.104C151.391 133.017 150.334 134.939 149.522 136.808C149.064 137.862 149.317 139.084 150.17 139.859C150.49 140.147 150.854 140.333 151.24 140.444L165.036 122.246H165.04Z" fill="#062B6B"/>
<path d="M173.281 123.495C177.016 123.074 182.406 125.443 185.101 128.499" stroke="white" stroke-width="1.5" stroke-linecap="round" stroke-linejoin="round"/>
<path d="M147.679 89.8482L146.387 87.0359C145.934 86.0483 144.771 85.6054 143.772 86.035L139.207 87.9925C138.19 88.431 137.724 89.6046 138.159 90.6188L139.877 94.6091L160.587 95.1805V91.7703C160.587 91.7703 157.235 89.8703 147.683 89.8571L147.679 89.8482Z" fill="#062B6B" stroke="#303030" stroke-width="1.5" stroke-linecap="round" stroke-linejoin="round"/>
<path d="M149.392 87.4883L148.637 91.2749C150.444 91.3059 152.162 91.5052 153.783 91.9038L154.911 87.6211C152.975 87.6344 151.003 87.6964 149.392 87.4883Z" fill="#062B6B"/>
<path d="M139.754 80.193L137.953 80.9717L141.367 88.8261L143.168 88.0474L139.754 80.193Z" fill="#062B6B" stroke="#303030" stroke-width="1.5" stroke-linecap="round" stroke-linejoin="round"/>
<path d="M50.2779 115.161L45.4069 112.738L43.3555 119.054L46.1262 119.461L50.2779 115.161Z" fill="#303030" stroke="#303030" stroke-width="1.5" stroke-linecap="round" stroke-linejoin="round"/>
<path d="M41.4164 116.17L42.1624 113.885C42.5354 112.738 43.792 112.135 44.9243 112.556L45.4172 112.738L43.3613 119.053L42.6953 118.805C41.6296 118.411 41.0701 117.246 41.4209 116.17H41.4164Z" fill="#FF4C51" stroke="#303030" stroke-width="1.5" stroke-linecap="round" stroke-linejoin="round"/>
<path d="M130.665 142.498H100.648V145.005H130.665V142.498Z" fill="#303030" stroke="#303030" stroke-width="1.5" stroke-linecap="round" stroke-linejoin="round"/>
<path d="M92.1442 145.005L84.7422 133.105L101.544 121.209V145.005H92.1442Z" fill="#303030" stroke="#303030" stroke-width="1.5" stroke-linecap="round" stroke-linejoin="round"/>
<path d="M172.424 118.291L165.839 117.76C163.441 117.565 161.594 115.572 161.594 113.171C161.594 110.775 163.441 108.778 165.839 108.583L172.424 108.052C174.782 111.462 174.782 114.872 172.424 118.287V118.291Z" fill="#062B6B"/>
<path d="M171.731 117.193C173.583 114.514 173.583 111.834 171.731 109.159C170.532 111.839 170.532 114.518 171.731 117.193Z" fill="white"/>
<path d="M45.9358 129.045L46.1609 129.203C46.513 129.45 46.5978 129.938 46.3497 130.289L37.1266 143.349C36.8786 143.7 36.3898 143.785 36.0376 143.537L35.8126 143.379C35.4604 143.132 35.3757 142.644 35.6237 142.293L44.8468 129.233C45.0949 128.882 45.5837 128.797 45.9358 129.045Z" fill="#062B6B" stroke="#303030" stroke-width="1.5" stroke-linecap="round" stroke-linejoin="round"/>
<path d="M61.7565 115.785C61.57 115.785 61.3791 115.705 61.2503 115.555L47.2588 99.3189C47.0191 99.0399 47.0501 98.6192 47.3299 98.3756C47.6096 98.1364 48.0314 98.1674 48.2757 98.4465L62.2671 114.682C62.5069 114.961 62.4758 115.382 62.1961 115.626C62.0718 115.732 61.9164 115.785 61.7609 115.785H61.7565Z" fill="#062B6B" stroke="#303030" stroke-width="1.5" stroke-linecap="round" stroke-linejoin="round"/>
<path d="M53.1745 115.785C52.988 115.785 52.797 115.705 52.6683 115.555L38.6768 99.3189C38.437 99.0399 38.4681 98.6192 38.7478 98.3756C39.0276 98.1364 39.4494 98.1674 39.6936 98.4465L53.6851 114.682C53.9249 114.961 53.8938 115.382 53.6141 115.626C53.4897 115.732 53.3343 115.785 53.1789 115.785H53.1745Z" fill="#062B6B" stroke="#303030" stroke-width="1.5" stroke-linecap="round" stroke-linejoin="round"/>
<path d="M29.1023 97.7725H57.6181C58.2308 97.7725 58.7281 98.2685 58.7281 98.8797C58.7281 99.4908 58.2308 99.9869 57.6181 99.9869H29.1023C28.4895 99.9869 27.9922 99.4908 27.9922 98.8797C27.9922 98.2685 28.4895 97.7725 29.1023 97.7725Z" fill="#062B6B" stroke="#303030" stroke-width="1.5" stroke-linecap="round" stroke-linejoin="round"/>
<path d="M59.5941 97.7723H21.0121C19.4491 97.7723 18.1836 96.7271 18.1836 95.4339V68.3872C18.1836 67.0985 19.4535 66.0488 21.0165 66.0488H59.5985C61.1615 66.0488 62.427 67.094 62.427 68.3872V95.4339C62.427 96.7227 61.1571 97.7723 59.5941 97.7723Z" fill="#156BA8" stroke="#303030" stroke-width="1.5" stroke-linecap="round" stroke-linejoin="round"/>
<path d="M55.6973 65.5978H24.424C23.1585 65.5978 22.1328 64.5526 22.1328 63.2594V54.4107C22.1328 53.1219 23.163 52.0723 24.4285 52.0723H55.7017C56.9672 52.0723 57.9929 53.1175 57.9929 54.4107V63.2638C57.9929 64.5526 56.9627 65.6022 55.6973 65.6022V65.5978Z" fill="#258BC0" stroke="#303030" stroke-width="1.5" stroke-linecap="round" stroke-linejoin="round"/>
<path d="M45.6523 51.332H47.3619C48.5119 51.332 49.4488 52.2621 49.4488 53.4136V98.1178" stroke="white" stroke-width="1.5" stroke-linecap="round" stroke-linejoin="round"/>
<path d="M42.9102 51.332H44.6197C45.7697 51.332 46.7066 52.2621 46.7066 53.4136V98.1178" stroke="white" stroke-width="1.5" stroke-linecap="round" stroke-linejoin="round"/>
<path d="M172.817 103.898L144.759 148.606C141.535 153.744 135.865 156.844 129.786 156.791L95.7728 156.494C93.7613 156.467 92.1406 154.833 92.1406 152.827V145.006H124.346C126.535 145.006 128.494 143.655 129.275 141.618L140.829 111.307C141.446 109.686 141.45 107.892 140.842 106.267L138.444 99.8896C137.796 98.1624 137.889 96.2049 138.844 94.6238C139.368 93.7557 140.163 92.9408 141.371 92.4404C145.003 90.9479 150.02 91.0852 153.759 91.7628C157.498 92.4404 158.99 93.2907 159.314 92.5467C159.634 91.8026 157.205 90.5759 155.389 90.1507L155.793 89.3535C155.793 89.3535 160.917 90.3101 166.578 94.2518C169.971 96.6123 171.867 99.088 172.839 100.696C173.439 101.683 173.439 102.919 172.826 103.902L172.817 103.898Z" fill="white" stroke="#303030" stroke-width="1.5" stroke-linecap="round" stroke-linejoin="round"/>
<path d="M166.573 94.2515C160.912 90.3098 155.002 88.7598 155.002 88.7598L154.771 89.6942C156.587 90.1194 160.192 91.6252 159.313 92.5464C158.754 93.131 157.497 92.4401 153.758 91.7625C150.02 91.0849 145.002 90.9476 141.37 92.4401C140.158 92.9361 139.363 93.7554 138.843 94.6235C138.737 94.8051 138.643 94.9866 138.555 95.1771C145.601 98.2772 151.623 101.236 156.836 107.427C160.903 112.259 163.86 116.803 161.316 122.224L172.816 103.902C173.433 102.923 173.433 101.683 172.83 100.695C171.853 99.0877 169.957 96.6164 166.569 94.2559L166.573 94.2515Z" fill="#258BC0" stroke="#303030" stroke-width="1.5" stroke-linecap="round" stroke-linejoin="round"/>
<path d="M151.758 92.79C155.683 94.2781 159.99 97.148 164.133 101.506C169.27 99.8407 171.202 98.4323 171.202 98.4323" stroke="#303030" stroke-width="1.5" stroke-linecap="round" stroke-linejoin="round"/>
<path d="M144.783 94.601C144.783 94.9465 144.504 95.2255 144.157 95.2255C143.811 95.2255 143.531 94.9465 143.531 94.601C143.531 94.2556 143.811 93.9766 144.157 93.9766C144.504 93.9766 144.783 94.2556 144.783 94.601Z" fill="#303030" stroke="#303030" stroke-width="1.5" stroke-linecap="round" stroke-linejoin="round"/>
<path d="M148.506 94.601C148.506 94.9465 148.226 95.2255 147.88 95.2255C147.534 95.2255 147.254 94.9465 147.254 94.601C147.254 94.2556 147.534 93.9766 147.88 93.9766C148.226 93.9766 148.506 94.2556 148.506 94.601Z" fill="#303030" stroke="#303030" stroke-width="1.5" stroke-linecap="round" stroke-linejoin="round"/>
<path d="M151.412 108.061C156.843 115.784 154.995 120.244 152.189 123.446C148.113 128.096 141.102 134.943 141.102 134.943" stroke="#303030" stroke-width="1.5" stroke-linecap="round" stroke-linejoin="round"/>
<path d="M171.619 102.086C170.642 100.478 168.746 98.007 165.358 95.6464C164.057 94.743 162.787 93.9945 161.602 93.3789" stroke="white" stroke-width="1.5" stroke-linecap="round" stroke-linejoin="round"/>
<path d="M36.7476 129.948L69.1087 142.269C70.201 142.685 71.431 142.53 72.3856 141.853L101.545 121.205C102.944 120.213 103.694 118.539 103.503 116.839L103.437 116.245C103.197 114.124 101.554 112.428 99.4361 112.118L67.3103 107.388C63.3762 106.807 59.371 107.808 56.174 110.169L39.6471 122.379C39.1542 122.742 39.1231 123.469 39.5849 123.872L40.5929 124.757L36.4589 127.813C35.6774 128.389 35.8462 129.602 36.752 129.948H36.7476Z" fill="white" stroke="#303030" stroke-width="1.5" stroke-linecap="round" stroke-linejoin="round"/>
<path d="M42.0117 127.441L71.7886 138.775" stroke="#303030" stroke-width="1.5" stroke-linecap="round" stroke-linejoin="round"/>
<path d="M103.438 116.245C103.198 114.124 101.555 112.428 99.4368 112.118L67.311 107.388C63.3769 106.807 59.3717 107.808 56.1747 110.169L39.6477 122.379C39.1549 122.742 39.1238 123.469 39.5856 123.872L40.5935 124.757L55.5308 113.725C56.5743 112.955 57.8043 112.476 59.0919 112.339C60.2065 112.219 61.3254 112.361 62.3778 112.746C65.9878 114.075 74.7974 117.326 79.0335 118.902C90.3341 123.11 89.5659 129.687 83.3894 134.058L101.55 121.201C102.954 120.209 103.699 118.535 103.509 116.834L103.442 116.241L103.438 116.245Z" fill="#258BC0" stroke="#303030" stroke-width="1.5" stroke-linecap="round" stroke-linejoin="round"/>
<path d="M58.2968 106.059L104.41 112.848C105.884 113.065 107.207 111.927 107.207 110.443V103.654C107.207 102.312 106.115 101.223 104.769 101.223H58.6565C57.3111 101.223 56.2188 102.312 56.2188 103.654C56.2188 104.859 57.1068 105.886 58.3013 106.059H58.2968Z" fill="#062B6B" stroke="#303030" stroke-width="1.5" stroke-linecap="round" stroke-linejoin="round"/>
<path d="M65.6484 109.912L98.4447 114.739" stroke="white" stroke-width="1.5" stroke-linecap="round" stroke-linejoin="round"/>
<path d="M79.5391 116.179C88.0689 117.649 95.653 118.907 97.3359 119.328C99.0188 119.748 100.462 121.967 97.3359 124.159" stroke="#303030" stroke-width="1.5" stroke-linecap="round" stroke-linejoin="round"/>
<path d="M150.086 72.8688C144.385 73.1256 139.572 74.5916 139.629 80.752C139.687 86.9081 146.117 87.4927 151.236 87.5989C157.688 87.7362 161.463 87.2402 163.576 85.2783C165.89 83.1347 164.229 77.6607 160.894 75.2648C158.186 73.3205 154.691 72.6606 150.086 72.8688Z" fill="#258BC0" stroke="#303030" stroke-width="1.5" stroke-linecap="round" stroke-linejoin="round"/>
<path d="M157.829 73.7061C157.559 73.8212 157.314 73.9718 157.115 74.1755C156.551 74.7424 156.48 75.6592 156.706 76.4253C157.505 79.1136 160.503 81.4786 159.939 84.4946C159.717 85.6948 158.797 86.678 157.732 87.2759C157.625 87.3379 157.514 87.391 157.408 87.4442C160.281 87.1607 162.252 86.5053 163.575 85.2785C165.889 83.135 164.228 77.661 160.893 75.265C159.97 74.6007 158.948 74.0914 157.825 73.7105L157.829 73.7061Z" fill="white" stroke="#303030" stroke-width="1.5" stroke-linecap="round" stroke-linejoin="round"/>
<path d="M143.062 76.4652C146.228 74.7556 149.967 74.1312 153.519 74.7202C153.684 74.7468 153.857 74.7822 153.968 74.9018C154.083 75.0214 154.141 75.1941 154.141 75.3624C154.141 78.4005 155.202 79.0383 156.748 81.4387C157.605 82.7718 157.605 84.034 156.588 85.026" stroke="#303030" stroke-width="1.5" stroke-linecap="round" stroke-linejoin="round"/>
<path d="M92.1465 150.108C94.9716 150.108 97.2618 147.824 97.2618 145.006C97.2618 142.189 94.9716 139.904 92.1465 139.904C89.3214 139.904 87.0312 142.189 87.0312 145.006C87.0312 147.824 89.3214 150.108 92.1465 150.108Z" fill="white" stroke="#303030" stroke-width="1.5" stroke-linecap="round" stroke-linejoin="round"/>
<path d="M94.6642 145.006C94.6642 146.392 93.5364 147.517 92.1466 147.517C90.7567 147.517 89.6289 146.392 89.6289 145.006C89.6289 143.62 90.7567 142.495 92.1466 142.495C93.5364 142.495 94.6642 143.62 94.6642 145.006Z" fill="#F55571" stroke="#F55571" stroke-width="1.5" stroke-linecap="round" stroke-linejoin="round"/>
<path d="M56.9004 113.358C59.1517 113.358 60.9767 111.538 60.9767 109.292C60.9767 107.047 59.1517 105.227 56.9004 105.227C54.6492 105.227 52.8242 107.047 52.8242 109.292C52.8242 111.538 54.6492 113.358 56.9004 113.358Z" fill="white" stroke="#303030" stroke-width="1.5" stroke-linecap="round" stroke-linejoin="round"/>
<path d="M58.9086 109.293C58.9086 110.4 58.0116 111.295 56.9016 111.295C55.7915 111.295 54.8945 110.4 54.8945 109.293C54.8945 108.186 55.7915 107.291 56.9016 107.291C58.0116 107.291 58.9086 108.186 58.9086 109.293Z" fill="#258BC0" stroke="#062B6B" stroke-width="1.5" stroke-linecap="round" stroke-linejoin="round"/>
<path d="M133.301 81.9316V79.2257H142.621C143.256 79.2257 143.776 79.7394 143.776 80.3771V80.7802C143.776 81.4135 143.26 81.9316 142.621 81.9316H133.301Z" fill="#062B6B" stroke="#303030" stroke-width="1.5" stroke-linecap="round" stroke-linejoin="round"/>
<path d="M133.157 76.9619H132.882C132.455 76.9619 132.109 77.3069 132.109 77.7325V83.4191C132.109 83.8447 132.455 84.1897 132.882 84.1897H133.157C133.584 84.1897 133.93 83.8447 133.93 83.4191V77.7325C133.93 77.3069 133.584 76.9619 133.157 76.9619Z" fill="#156BA8"/>
<path d="M122.505 78.6182H132.11V82.5376H122.505C122.03 82.5376 121.648 82.1568 121.648 81.6829V79.4729C121.648 78.999 122.03 78.6182 122.505 78.6182Z" fill="#156BA8"/>
<path d="M132.109 78.6182V82.5332" stroke="#303030" stroke-width="1.5" stroke-linecap="round" stroke-linejoin="round"/>
<path d="M138.533 70.5889C140.114 72.9096 139.43 75.7838 137.219 80.1905" stroke="#303030" stroke-width="1.5" stroke-linecap="round" stroke-linejoin="round"/>
<path d="M136.301 66.9705C136.212 67.121 136.141 67.2716 136.079 67.4178C135.648 68.4275 135.333 69.5879 135.199 70.6818C134.995 72.316 135.95 73.6668 137.419 72.2186C138.645 71.014 142.011 65.5222 138.827 65.2521C137.77 65.1635 136.824 66.0714 136.305 66.9705H136.301Z" fill="#303030" stroke="#303030" stroke-width="1.5" stroke-linecap="round" stroke-linejoin="round"/>
</g>
<path d="M71.9276 65.4322L75.1782 55.2496C72.6459 50.1767 71.4488 44.358 71.9921 38.3C73.5667 20.8717 89.0004 8.0191 106.451 9.60266C123.91 11.177 136.784 26.5891 135.2 44.0174C133.625 61.4457 118.192 74.2983 100.741 72.7148C93.4482 72.0519 87.4534 69.4188 82.4715 64.797L71.9184 65.4322H71.9276Z" fill="#FAFAFA"/>
<path d="M71.9263 65.4327C71.9263 65.4327 72.1749 65.405 72.6262 65.3774C73.0958 65.3406 73.7773 65.2946 74.6521 65.2301C76.4385 65.1104 79.063 64.9263 82.4702 64.6961H82.5162L82.5531 64.7237C85.5551 67.495 90.1318 70.5608 96.3292 71.8774C97.867 72.2088 99.4877 72.4666 101.173 72.5679C102.02 72.5955 102.877 72.6323 103.751 72.6691C104.626 72.6691 105.51 72.5679 106.413 72.5218C110.004 72.1904 113.761 71.2237 117.371 69.456C120.981 67.6975 124.425 65.1472 127.307 61.8604C130.18 58.5736 132.519 54.5595 133.818 50.0574C135.116 45.5645 135.438 40.6389 134.6 35.7778C134.453 34.5533 134.066 33.3656 133.762 32.1595C133.624 31.5519 133.366 30.9719 133.155 30.3826C132.934 29.8026 132.722 29.2042 132.482 28.6242C131.396 26.3593 130.208 24.0852 128.587 22.0874C127.85 21.0286 126.948 20.1263 126.091 19.1873C125.686 18.6993 125.171 18.3126 124.71 17.8799C124.231 17.4656 123.789 17.0145 123.292 16.637L121.782 15.523L121.027 14.9706L120.226 14.4918L118.623 13.5343C118.089 13.2305 117.509 12.9911 116.957 12.7241C112.5 10.6342 107.674 9.62147 102.996 9.72275C98.3183 9.81482 93.8337 10.9564 89.9016 12.853C85.9695 14.7496 82.5899 17.3827 79.9378 20.3841C77.2765 23.3855 75.3427 26.746 74.0627 30.1156C73.9062 30.5392 73.7588 30.9627 73.6115 31.377C73.4549 31.7913 73.3168 32.2056 73.2247 32.6383C73.0129 33.4853 72.8103 34.3231 72.5985 35.1425C72.3775 36.8181 72.0644 38.4293 72.0368 40.0037C71.779 46.3103 73.4457 51.5489 75.2598 55.2224L75.2783 55.2592V55.296C74.1916 58.5736 73.3628 61.0963 72.7919 62.8179C72.5064 63.665 72.2947 64.3186 72.1473 64.7698C72 65.2117 71.9171 65.4419 71.9171 65.4419C71.9171 65.4419 71.9723 65.2301 72.1013 64.7974C72.2394 64.3463 72.442 63.7018 72.6998 62.8548C73.2431 61.1055 74.0351 58.546 75.0664 55.2224V55.296C73.2155 51.6226 71.4935 46.3471 71.7145 39.9761C71.7421 38.3833 72.0368 36.7629 72.2578 35.0689C72.4604 34.2403 72.663 33.3932 72.8748 32.537C72.9669 32.1043 73.105 31.6808 73.2616 31.2573C73.4089 30.8338 73.5654 30.4103 73.7128 29.9775C74.9836 26.5711 76.9358 23.1554 79.6247 20.1079C82.3044 17.0605 85.7116 14.3814 89.699 12.4479C93.6771 10.5145 98.2354 9.35448 102.978 9.25321C107.72 9.14272 112.619 10.1647 117.15 12.2822C117.712 12.5584 118.292 12.7978 118.835 13.1016L120.456 14.0683L121.266 14.5563L122.03 15.1179L123.568 16.2503C124.075 16.637 124.526 17.0973 125.014 17.5116C125.484 17.9536 125.999 18.3402 126.414 18.8374C127.279 19.7949 128.2 20.7064 128.946 21.7744C130.585 23.7998 131.801 26.1107 132.897 28.4124C133.145 29.0016 133.348 29.6093 133.578 30.1985C133.79 30.7969 134.057 31.377 134.195 32.003C134.508 33.2275 134.904 34.4336 135.051 35.6765C135.899 40.6113 135.558 45.6106 134.241 50.1679C132.915 54.7344 130.539 58.8038 127.611 62.1274C124.683 65.4603 121.183 68.0289 117.518 69.7966C113.853 71.5735 110.041 72.5402 106.413 72.8625C105.501 72.9085 104.608 72.9914 103.724 73.0006C102.84 72.9638 101.974 72.9269 101.118 72.8901C99.4141 72.7796 97.7842 72.5126 96.2279 72.172C89.9752 70.8186 85.3709 67.6791 82.3873 64.8618L82.461 64.8895C79.0169 65.0736 76.3741 65.2117 74.5692 65.3038C73.7036 65.3498 73.0313 65.3774 72.5617 65.405C72.1197 65.4234 71.8987 65.4327 71.8987 65.4327H71.9263Z" fill="#062B6B" stroke="#062B6B"/>
<g clip-path="url(#clip1_2332_102239)">
<path d="M96.7074 30.3515C96.0541 30.1503 95.5638 29.8328 95.2835 29.2501C95.0015 28.6643 94.6982 28.0879 94.4313 27.4959C93.3067 24.9975 91.6047 22.9109 89.6651 20.9944C88.032 19.3805 86.9241 17.4897 86.4821 15.2363C86.2168 13.8837 86.2327 12.5233 86.3261 11.1591C86.4402 9.48594 86.5748 7.81123 86.1843 6.15291C85.3203 2.47744 81.4958 0.89868 78.1116 2.82767C76.5403 3.72314 75.6003 5.13108 74.9603 6.75352C73.968 9.26987 74.006 11.8283 74.6823 14.4079C75.1536 16.2043 75.8212 17.9437 76.2639 19.7487C76.5562 20.9374 76.736 22.1418 76.7779 23.3508C76.6615 23.4678 76.5372 23.4187 76.4239 23.4164C74.0495 23.3594 71.6752 23.2198 69.3 23.3758C67.8507 23.471 66.4227 23.6745 65.0328 24.1316C61.5362 25.2822 60.9422 28.6628 62.0494 30.9935C62.2735 31.4646 62.5167 31.9248 62.8232 32.3484C62.9261 32.4903 62.961 32.5972 62.8279 32.7556C60.9366 35.0005 61.4158 37.7438 63.7268 39.7562C64.0008 39.9949 64.3002 40.2055 64.5917 40.4333C63.5502 41.952 63.6627 43.4863 64.4942 45.0354C64.9077 45.8053 65.5674 46.2733 66.391 46.5222C66.6936 46.6134 66.776 46.7624 66.7403 47.0534C66.688 47.4785 66.6777 47.9083 66.6334 48.3341C66.5906 48.7491 66.7055 49.1095 66.9922 49.4082C67.5363 49.9745 68.0788 50.5416 68.6427 51.0884C69.0204 51.455 69.5043 51.6321 70.0271 51.6968C70.2702 51.7272 70.3969 51.8169 70.4706 52.0861C70.9062 53.6828 72.2137 54.7569 73.8904 54.9604C76.3233 55.2568 78.7381 55.0899 81.1402 54.6843C83.5344 54.2795 85.9309 53.9144 88.3702 53.9589C89.7047 53.9831 91.0273 54.125 92.3349 54.3965C92.5376 54.4386 92.6018 54.5143 92.643 54.7139C92.8806 55.8653 93.4627 56.7935 94.5556 57.3356C97.2951 58.6944 100.157 59.6772 103.234 59.9307C105.388 60.1086 107.253 59.4089 108.872 58.0244C109.613 57.391 110.269 56.6819 110.863 55.9144C111.112 55.5923 111.381 55.2958 111.733 55.0735C112.262 54.7397 112.79 54.7069 113.332 55.0306C113.479 55.118 113.616 55.2233 113.768 55.2974C114.11 55.4628 114.443 55.3005 114.457 54.9316C114.506 53.5283 115.188 52.4378 116.173 51.4964C116.443 51.2382 116.458 50.9979 116.334 50.6617C115.832 49.2975 115.979 48.0089 116.875 46.8295C117.059 46.5877 117.292 46.3974 117.528 46.2078C118.145 45.7117 118.195 45.4785 117.808 44.7757C117.475 44.1696 117.17 43.5557 117.007 42.8787C116.666 41.4598 116.833 40.0675 117.199 38.6822C117.396 37.9419 117.587 37.2009 117.693 36.4404C117.89 35.0465 117.188 34.1183 115.767 34.0769C114.838 34.0496 114.331 33.6526 114.098 32.8086C114.005 32.4716 113.896 32.1354 113.757 31.8148C113.531 31.2899 113.136 30.995 112.528 31.0099C111.91 31.0247 111.368 30.8578 110.831 30.5044C109.249 29.4631 107.437 28.9896 105.601 28.6043C104.166 28.3032 102.712 28.1495 101.248 28.0801C100.652 28.052 100.058 28.0676 99.4707 28.1589C98.1386 28.3656 97.2016 29.0778 96.7074 30.3523V30.3515ZM101.824 48.7405L101.832 48.7304C101.804 48.8115 101.841 48.9129 101.75 48.973L101.757 48.9675C101.731 49.246 101.619 49.4956 101.499 49.7436L101.503 49.739C101.482 49.9075 101.432 50.0666 101.34 50.2101L101.342 50.2062C101.309 50.3084 101.276 50.4106 101.242 50.512C100.629 52.253 99.7843 53.8676 98.5773 55.2873C98.0998 55.9175 97.5169 56.4347 96.8421 56.8504C96.214 57.2373 95.9994 57.2225 95.3642 56.7615C96.2061 56.3746 96.8009 55.7178 97.3806 55.0455C98.015 54.214 98.571 53.3356 99.0375 52.402C99.8524 50.7686 100.452 49.0564 100.976 47.3162C101.601 44.9013 102.15 42.4738 102.311 39.977C102.515 36.8109 102.427 33.6721 101.433 30.616C101.352 30.4389 101.27 30.2618 101.189 30.0848C100.998 29.7657 100.808 29.4467 100.585 29.0731C100.756 29.0731 100.869 29.0668 100.982 29.0738C102.26 29.1597 101.867 28.9022 102.42 30.0824C102.479 30.2618 102.54 30.4412 102.599 30.6206C103.169 32.3078 103.398 34.0527 103.475 35.8195C103.588 38.4224 103.373 41.0074 102.983 43.5799C102.805 44.7577 102.601 45.9325 102.28 47.083C102.279 47.1095 102.277 47.1368 102.277 47.1633C102.26 47.1961 102.243 47.2296 102.227 47.2624L102.236 47.2546C102.217 47.4106 102.2 47.5658 102.121 47.7062C102.127 47.7663 102.138 47.8271 102.083 47.8732C102.032 48.1079 102.017 48.3529 101.885 48.565C101.883 48.5916 101.882 48.6189 101.881 48.6454C101.892 48.6937 101.871 48.7242 101.826 48.7413L101.824 48.7405ZM99.0288 58.1679L99.0335 58.1726C98.8458 58.1726 98.6732 58.1242 98.5211 58.0127L98.5037 58.0236L98.4855 58.0142C98.4585 58.0088 98.4316 58.0033 98.4047 57.9986C97.9715 57.8699 97.5422 57.7303 97.0631 57.5095C98.0214 56.9495 98.6953 56.1944 99.3574 55.4261C99.6679 54.9604 99.9997 54.5072 100.286 54.0283C101.683 51.6898 102.486 49.1337 103.073 46.5042C103.309 45.4434 103.488 44.3693 103.694 43.3014C103.702 43.2094 103.712 43.1174 103.72 43.0253C103.709 42.9996 103.712 42.9746 103.727 42.9512C103.735 42.8951 103.743 42.8389 103.751 42.7827C103.761 42.7484 103.77 42.7149 103.78 42.6806C103.789 42.5604 103.8 42.4411 103.809 42.321C103.798 42.2484 103.801 42.1798 103.859 42.1244C103.866 42.009 103.873 41.8943 103.88 41.7788C103.869 41.6587 103.865 41.5402 103.928 41.4302C103.937 41.3132 103.946 41.1954 103.955 41.0784C103.946 40.9091 103.935 40.7399 104.013 40.58C104.028 40.3272 104.043 40.0745 104.057 39.8218C104.041 39.7516 104.042 39.6845 104.097 39.6283C104.103 39.3834 104.109 39.1393 104.116 38.8943C104.11 38.5683 104.094 38.2414 104.165 37.9185C104.147 37.5808 104.122 37.243 104.18 36.9068C104.088 36.6658 104.124 36.4162 104.129 36.1681C104.116 35.814 104.101 35.4599 104.088 35.105C104.017 34.942 104.029 34.7703 104.037 34.5995C104.028 34.4552 104.019 34.3101 104.01 34.1658C103.945 34.0574 103.946 33.9388 103.957 33.8195L103.902 33.4396C103.897 33.4092 103.892 33.3796 103.888 33.3491C103.874 33.2306 103.861 33.1128 103.848 32.9942C103.666 32.2275 103.484 31.4615 103.302 30.6947C103.179 30.5083 103.13 30.2946 103.073 30.0848C102.898 29.8149 102.796 29.5146 102.66 29.1776C103.069 29.2205 103.433 29.2509 103.796 29.2977C105.77 29.5528 107.711 29.9373 109.531 30.7696C110.223 31.0863 110.874 31.4732 111.396 32.0372C111.474 32.1347 111.553 32.2314 111.632 32.3289C111.682 32.3866 111.738 32.4412 111.782 32.5036C112.299 33.2251 112.603 34.0449 112.904 34.8671C112.978 35.0699 113.013 35.3062 113.257 35.4599C113.336 34.8437 113.288 34.2852 113.091 33.7392C112.901 33.2111 112.659 32.7103 112.317 32.2602C112.245 32.1651 112.192 32.0325 112.249 31.9592C112.308 31.8827 112.444 31.8546 112.573 31.878C112.858 31.9287 112.995 32.1105 113.075 32.3648C113.25 32.9217 113.456 33.4669 113.693 34.0012C113.911 34.4927 114.267 34.7961 114.823 34.8468C115.059 34.8679 115.296 34.8881 115.527 34.9349C115.843 34.9989 116.193 34.9139 116.471 35.1416L116.467 35.1393C116.502 35.1713 116.536 35.2025 116.571 35.2345C116.931 35.6409 116.829 36.1221 116.741 36.5691C116.375 38.4216 115.776 40.2406 115.981 42.1681C116.026 42.4083 116.072 42.6478 116.114 42.888C116.252 43.6774 116.59 44.3927 116.962 45.0924C117.091 45.3334 117.094 45.491 116.849 45.6743C116.396 46.0151 116.041 46.4504 115.767 46.9473C115.287 47.8186 115.169 48.7593 115.2 49.7312C115.258 49.994 115.291 50.2663 115.382 50.5182C115.485 50.8014 115.419 51.0042 115.22 51.2171C114.818 51.6492 114.508 52.1461 114.235 52.6672C113.981 53.15 113.819 53.6679 113.654 54.2093C113.041 53.9464 112.432 53.9706 111.748 54.1266C112.43 52.7717 112.9 51.4168 113.309 50.0393C113.344 49.877 113.376 49.7132 113.414 49.5518C113.988 47.1212 114.312 44.6556 114.503 42.1696C114.528 41.8568 114.477 41.5269 114.629 41.2281C114.611 40.243 114.663 39.2563 114.558 38.2734C114.518 37.892 114.442 37.5184 114.175 37.1861C114.076 37.3694 114.099 37.5402 114.092 37.704C114.004 39.8054 113.949 41.9083 113.696 43.9996C113.444 46.0877 113.158 48.1703 112.568 50.1992C112.362 50.8138 112.169 51.4332 111.947 52.0424C111.183 54.1297 110.022 55.9573 108.269 57.384C107.119 58.32 105.837 58.9557 104.311 59.0431C103.304 59.1008 102.323 58.9534 101.341 58.7716C101.285 58.7576 101.229 58.7435 101.173 58.7303C100.525 58.6219 99.8833 58.4885 99.2703 58.2443L99.2751 58.249C99.1856 58.2459 99.0929 58.2529 99.0319 58.1687L99.0288 58.1679ZM72.3888 27.2424C72.4093 27.2751 72.4299 27.3087 72.4505 27.3414C72.5567 27.4756 72.5947 27.6339 72.6343 27.8157C71.7274 27.6035 70.8373 27.3898 69.9439 27.1878C69.0608 26.9881 68.1754 26.8016 67.2789 26.6066C67.2519 26.9015 67.4705 26.9553 67.5363 27.1043C67.564 27.1035 67.5838 27.1152 67.5941 27.141C67.617 27.1589 67.64 27.1776 67.663 27.1956C68.7361 27.8929 69.9249 28.3281 71.1485 28.6807C72.7301 29.1362 74.3632 29.3172 75.9867 29.5489C76.2932 29.5395 76.5863 29.6206 76.8777 29.6908C77.9453 29.949 78.5361 30.5387 78.6755 31.4662C78.9749 33.4552 77.4242 35.4458 75.3809 35.6962C73.9117 35.8764 72.46 35.7228 71.0186 35.4568C69.2319 35.1268 67.4729 34.6923 65.8279 33.9006C64.2353 33.1346 63.2532 31.8531 62.6751 30.2376C62.0098 28.6495 62.5943 26.6971 64.0278 25.7135C64.8205 25.1691 65.7218 24.8937 66.6524 24.7003C68.6918 24.2759 70.7596 24.2767 72.8307 24.2986C73.5854 24.3064 74.2871 24.4787 74.9587 24.8009C75.0055 24.7868 75.0292 24.8095 75.0403 24.8508C75.1955 24.8992 75.35 24.9475 75.5187 25.0006C75.5496 24.7283 75.3349 24.5474 75.3001 24.2978C75.6105 24.3243 76.0121 24.2003 76.1523 24.4171C76.4603 24.8945 76.9039 25.3414 76.8722 25.9748C76.8262 26.8921 76.8049 27.8063 77.1026 28.7408C76.7177 28.6565 76.3835 28.5832 76.0564 28.5115C76.1119 27.5668 76.104 27.499 75.902 27.1254C75.2454 28.187 74.8613 28.3905 73.9909 28.137C73.7066 28.1682 73.6179 27.9927 73.5371 27.7626C73.0746 26.4358 72.1226 25.6082 70.7794 25.1831C71.3893 25.8126 72.0727 26.3828 72.3911 27.2299L72.3888 27.2408V27.2424ZM79.2196 50.3435C79.2347 50.3092 79.2505 50.2748 79.2743 50.221C79.3067 50.2998 79.3067 50.3435 79.2584 50.3778C79.2846 50.6485 79.1737 50.9254 79.2663 51.2148C79.4929 51.0845 79.6196 50.9004 79.7637 50.7366C80.1906 50.2538 80.4702 49.6844 80.745 49.1118C80.7521 49.0853 80.7584 49.058 80.7648 49.0315C80.7814 49.0003 80.798 48.9683 80.8147 48.9371C82.0438 43.6267 82.8232 40.8569 83.2825 40.2079C83.7997 41.2328 84.4111 42.1813 85.1714 43.0308C85.4961 43.3054 85.7646 43.6517 86.2517 43.8506C86.1099 43.5331 85.999 43.2827 85.8873 43.0323C85.4478 42.2648 85.1389 41.4528 84.99 40.4801C85.9119 41.3249 86.871 41.9692 87.8697 42.5589C88.6324 42.9364 88.9111 43.0191 89.3079 42.9692C87.9869 42.0004 86.8179 40.9232 85.938 39.5815C85.9642 39.5527 85.9903 39.523 86.0164 39.4942C86.1843 39.5589 86.353 39.6236 86.5209 39.6884C87.9204 40.0449 89.3333 40.2921 90.838 40.204C90.6979 39.9723 90.4983 39.9084 90.313 39.8327C89.5352 39.5176 88.7607 39.1962 87.9758 38.8974C85.2664 37.8663 83.5518 35.9123 82.5689 33.2727L82.5673 33.268C82.5515 33.2446 82.5357 33.2204 82.5198 33.197C82.4018 33.1042 82.4295 32.857 82.1888 32.8928C82.1626 33.4256 82.2569 33.9412 82.3828 34.4568C82.557 35.1728 82.919 35.8195 83.1392 36.5192C83.1803 36.5309 83.2057 36.566 83.1756 36.5925C83.1376 36.6268 83.1249 36.5823 83.117 36.5511C83.0251 36.4614 82.9269 36.3772 82.8422 36.2812C81.4348 34.7064 80.5486 32.8507 79.8698 30.8874C79.5245 29.8898 79.2656 28.8695 79.108 27.7361C78.7048 28.3157 78.7555 28.8999 78.7207 29.4693C77.9754 29.1238 77.9635 29.1246 77.916 28.6823C77.8218 27.8032 77.7521 26.9194 77.9041 26.0427C78.0095 25.4327 78.0966 24.7868 78.7848 24.492C79.7661 24.0708 80.779 23.7642 81.8585 23.719C81.9084 23.7151 81.9575 23.7112 82.0074 23.7073C82.0351 23.7065 82.0629 23.705 82.0906 23.7042C82.5499 23.6628 83.018 23.6956 83.5209 23.5747C83.0148 23.2167 82.4786 23.1106 81.9314 23.0334C81.1362 22.9889 80.3569 23.0833 79.5491 23.3134C79.6901 22.0794 79.5657 20.8984 79.26 19.7362C78.9575 18.5849 78.6423 17.4367 78.3326 16.287C77.9881 18.1309 78.3785 19.9796 78.2605 21.8243C78.1599 21.5295 78.0887 21.2307 78.0047 20.9359C77.4876 19.1122 76.7217 17.3735 76.1055 15.5842C75.3223 13.3127 74.9215 11.0132 75.4331 8.62402C75.7792 7.00703 76.4025 5.52499 77.6562 4.37212C78.308 3.77306 79.0486 3.31207 79.953 3.16776H79.9546C79.9926 3.11238 80.0449 3.09444 80.1106 3.11004C80.5359 2.98524 80.9731 3.00084 81.4071 3.02424C83.4274 3.13266 84.6756 4.15215 85.1793 6.0788C85.5911 7.65445 85.4953 9.25037 85.371 10.844C85.2427 12.4828 85.2348 14.1099 85.6125 15.7246C86.1527 18.0311 87.3462 19.9616 89.0402 21.6161C90.9172 23.4483 92.5194 25.474 93.587 27.8804C94.2966 29.4787 95.1362 31.0036 96.3677 32.2852C96.5459 32.4708 96.6156 32.7095 96.6568 32.9552C96.9102 34.481 96.9672 36.0231 97.0646 37.562C97.086 37.6619 97.1177 37.7617 97.1256 37.8624C97.2484 39.3545 97.2175 40.8483 97.2024 42.3428C97.1818 44.3584 96.7494 46.2726 95.8782 48.0994C95.1702 49.5853 94.379 51.0182 93.2885 52.2686C92.6588 52.9901 91.8946 53.4254 90.8658 53.2522C89.7974 53.072 88.7139 53.0525 87.6313 53.0564C85.5405 53.0642 83.4765 53.3364 81.4198 53.6711C81.198 53.7069 81.0784 53.6562 80.966 53.4768C80.7371 53.1133 80.6824 52.7257 80.7735 52.3169C80.9073 51.7194 81.0547 51.1258 81.2004 50.512C81.0158 50.5642 80.9905 50.7335 80.8804 50.8201C80.33 51.7881 79.7914 52.7577 80.3284 53.9269C78.8387 54.1126 77.3735 54.2093 75.8996 54.1757C75.879 53.9916 75.9669 53.8707 76.0295 53.7452C76.3669 53.0728 76.8294 52.4948 77.4163 52.0166C78.0554 51.4964 78.6945 50.9776 79.2196 50.3396V50.3435ZM74.3291 47.7944C74.5509 47.7858 74.779 47.8069 74.9944 47.764C75.8553 47.5947 76.7114 47.4067 77.5699 47.225C78.1481 47.0034 78.7397 46.817 79.2988 46.5401C79.3194 46.6002 79.3313 46.6236 79.3353 46.6485C79.5443 48.0705 78.8189 49.3958 77.3878 50.1165C75.4363 51.1001 73.3431 51.3006 71.1968 51.0954C70.1799 50.9987 69.1875 50.7756 68.3742 50.1095C67.8079 49.6446 67.3897 49.0908 67.5157 48.2983C67.5735 47.9317 67.6305 47.5643 67.6891 47.1844C69.041 47.6423 70.4143 47.7827 71.8011 47.8069C72.6438 47.8217 73.4872 47.7998 74.3299 47.7944H74.3291ZM78.3698 41.9364C78.8213 41.626 79.2703 41.3108 79.6703 40.9341C80.7513 42.2695 80.5723 44.2351 79.2751 45.2819C78.7595 45.6977 78.1576 45.959 77.5256 46.1532C75.4822 46.7811 73.3803 46.8357 71.2657 46.7764C69.578 46.7289 67.9457 46.4223 66.3918 45.7562C65.9911 45.5846 65.6062 45.3864 65.3361 45.0284C64.5449 43.9816 64.2915 42.232 65.3757 40.9411C65.4771 40.9918 65.5832 41.0409 65.6862 41.0963C67.2749 41.9403 68.9571 42.5097 70.7509 42.7383C71.3623 42.8163 71.9761 42.874 72.5883 42.9411C72.7063 42.9411 72.8243 42.9411 72.9423 42.9426C74.8194 42.9606 76.6726 42.8553 78.3706 41.9356L78.3698 41.9364ZM100.301 45.1314C100.294 45.1953 100.294 45.2616 100.278 45.3233C99.8184 47.1875 99.0945 48.9511 98.1679 50.6344C97.5826 51.6976 96.934 52.7218 96.1111 53.6258C95.723 54.0517 95.2565 54.4331 94.6404 54.306C93.9228 54.1578 93.2283 53.9004 92.4751 53.6757C92.9511 53.3614 93.3352 53.0533 93.6678 52.6773C94.6625 51.5533 95.4419 50.2959 96.1103 48.9636C96.4952 48.1969 96.7771 47.3888 97.1335 46.6111C97.1391 46.5596 97.1327 46.5034 97.1518 46.4582C97.7394 45.0604 97.7893 43.5807 97.8495 42.1002C97.9596 39.4052 97.6745 36.7274 97.5074 34.0449C97.4535 33.1877 97.3442 32.3304 96.7059 31.6534C96.6433 31.5871 96.538 31.5364 96.5491 31.3929C96.6211 31.4131 96.6821 31.4303 96.7423 31.4475C97.8804 31.7641 98.9892 32.2033 100.187 32.2758C100.394 32.2883 100.435 32.4061 100.471 32.5769C100.761 33.9521 100.954 35.3405 101.017 36.743C101.098 38.5753 101.072 40.4068 100.848 42.2297C100.728 43.2071 100.604 44.1868 100.3 45.1322L100.301 45.1314ZM78.1433 35.2867C78.7927 35.5215 79.5261 36.0457 79.9079 36.5441C80.3039 37.0605 80.425 37.6432 80.3078 38.2734C80.1724 39.0027 79.7914 39.5987 79.2561 40.1057C78.2312 41.076 76.9427 41.4115 75.5828 41.5331C72.5883 41.8007 69.6643 41.4263 66.8092 40.5207C65.4494 40.0893 64.2123 39.445 63.2698 38.3444C62.873 37.8811 62.6481 37.3507 62.6418 36.7446C62.6283 35.5496 63.2508 34.5847 63.8337 33.5208C64.4538 34.5761 65.3924 35.0886 66.4663 35.4193C68.7361 36.119 71.0495 36.6018 73.4239 36.7711C74.0939 36.8187 74.7687 36.8265 75.4403 36.7586C76.5578 36.6455 77.4717 36.1603 78.1441 35.2867H78.1433ZM76.7716 51.5603C76.6726 51.6882 76.6457 51.7311 76.6108 51.767C75.9709 52.4386 75.3072 53.0946 75.0348 54.0166C75.0047 54.1188 74.9374 54.1594 74.8296 54.1562C73.9355 54.1313 73.0667 54.0143 72.342 53.4332C71.9769 53.1406 71.6775 52.7943 71.4819 52.3177C73.3043 52.4464 74.9983 52.1024 76.7716 51.5595V51.5603Z" fill="#0E0E0E"/>
<path d="M81.9308 23.0342C82.4781 23.1114 83.0143 23.2182 83.5203 23.5755C83.0174 23.6964 82.5502 23.6636 82.09 23.705C82.0639 23.7557 82.037 23.758 82.0069 23.7081C81.957 23.712 81.9079 23.7159 81.858 23.7198C81.5602 23.9554 81.1729 23.9242 80.8379 24.0505C80.3619 24.2299 79.874 24.4117 79.7473 24.9624C79.6578 25.35 79.5897 25.7533 79.6388 26.1566C79.7299 26.9124 79.7616 27.6761 79.9493 28.4194C80.3326 29.9381 80.8347 31.4046 81.8089 32.6737C81.9126 32.8086 82.0053 32.9147 82.189 32.8921C82.4298 32.8562 82.4013 33.1035 82.5201 33.1963C82.5359 33.2197 82.5517 33.2439 82.5676 33.2673L82.5692 33.2719C82.7371 33.2758 82.8226 33.4053 82.9153 33.5091C83.5861 34.261 84.2965 34.9755 85.0354 35.6604C85.8314 36.3983 86.6891 37.0613 87.6561 37.5792C88.757 38.1689 89.9188 38.5605 91.1709 38.6471C92.3819 38.7313 93.4518 38.4396 94.1686 37.3866C94.7547 36.5254 94.9915 35.5434 95.0722 34.5254C95.1182 33.9404 95.0786 33.3531 94.9772 32.7642C95.1712 33.0075 95.4571 33.1783 95.4762 33.5184C95.8484 33.942 95.869 34.4802 95.9719 34.9911C96.0551 35.0754 96.0393 35.1705 96.0052 35.268C96.0012 35.3819 95.9981 35.495 95.9941 35.6089C96.1462 35.6885 96.1018 35.832 96.1034 35.9552C96.1066 36.2649 96.0654 36.573 96.0416 36.8811C95.9007 38.7149 94.8133 39.8109 93.162 40.4052C91.4164 41.0332 89.6361 40.9513 87.8739 40.4115C87.3773 40.2594 86.8784 40.0979 86.5204 39.6884C86.3525 39.6237 86.1838 39.5589 86.0159 39.4942C85.9898 39.523 85.9636 39.5527 85.9375 39.5815C86.8174 40.9232 87.9863 42.0004 89.3074 42.9692C88.9106 43.0191 88.6318 42.9364 87.8691 42.5589C87.2807 42.6595 86.693 42.7625 86.1038 42.86C85.9921 42.8787 85.8979 42.899 85.8868 43.0324C85.9985 43.2827 86.1093 43.5323 86.2511 43.8506C85.7632 43.6517 85.4948 43.3054 85.1708 43.0308C84.6782 43.5745 84.2616 44.1712 83.9155 44.8139C83.3485 45.8685 83.0151 46.9988 82.8947 48.1797C82.8289 48.8225 82.8479 49.4753 83.042 50.1072C83.1616 50.4964 83.4111 50.7327 83.834 50.7476C84.915 50.7858 85.9953 50.7632 87.0463 50.4831C89.6741 49.7842 91.4434 48.0822 92.6567 45.7539C92.8365 45.4083 92.8127 45.0245 92.7351 44.6486C92.705 44.5027 92.6511 44.3514 92.7858 44.2086C93.3814 44.5628 93.8352 45.0518 94.2652 45.5534C94.7008 46.0612 95.092 46.6056 95.5142 47.1485C95.5649 47.0838 95.5997 47.0573 95.6092 47.0237C96.4471 44.0604 97.129 41.0745 96.9817 37.9653C96.9754 37.8304 96.9271 37.676 97.0625 37.5636C96.9651 36.0246 96.9073 34.4818 96.6546 32.9568C96.6142 32.7111 96.5445 32.4724 96.3656 32.2868C95.1332 31.0052 94.2945 29.4803 93.5849 27.882C92.5165 25.4764 90.9151 23.4507 89.0381 21.6176C87.3433 19.9632 86.1497 18.0327 85.6104 15.7261C85.2326 14.1115 85.2405 12.4844 85.3688 10.8455C85.4932 9.25118 85.589 7.65603 85.1772 6.08039C84.6735 4.15296 83.4253 3.13425 81.405 3.02582C80.9709 3.00242 80.5338 2.98682 80.1085 3.11163C80.072 3.17169 80.0182 3.18573 79.9524 3.16935H79.9509C79.9532 3.25281 79.9144 3.31677 79.8574 3.37605C79.0037 4.25436 78.4239 5.28087 78.1127 6.45792C77.6937 8.04214 77.5559 9.64197 77.906 11.2519C78.0754 12.032 78.2885 12.8104 78.7803 13.4742C78.9284 13.4243 79.0757 13.3705 79.2254 13.3237C79.9604 13.092 80.6977 12.9797 81.5428 13.3089C80.594 13.5163 79.7394 13.7386 78.9989 14.241C79.223 14.943 79.4495 15.6442 79.6705 16.3463C80.1053 17.7253 80.5512 19.1013 80.849 20.5194C81.0177 21.3228 81.1523 22.1301 81.2521 22.9273C81.4905 23.0225 81.7312 22.8938 81.93 23.0357L81.9308 23.0342Z" fill="#FBFAFA"/>
<path d="M67.5957 27.142C67.5846 27.117 67.5656 27.1045 67.5379 27.1053C67.3945 27.1412 67.286 27.0757 67.1775 26.9946C66.9954 26.8565 66.6881 26.7442 66.7594 26.4969C66.8346 26.2348 67.1569 26.2613 67.404 26.2574C68.9809 26.2325 70.5047 26.4758 71.9429 27.1428C72.0807 27.2067 72.2256 27.2871 72.3927 27.2317C72.0744 26.3846 71.3909 25.8152 70.7811 25.1849C72.1251 25.61 73.077 26.4384 73.5388 27.7644C73.6187 27.9946 73.7074 28.1701 73.9926 28.1389C74.1193 28.1077 74.2492 28.085 74.3727 28.0445C75.1235 27.7964 75.5742 27.2637 75.7199 26.5211C75.8331 25.9431 75.6161 25.4337 75.1441 25.0508C75.0784 24.9977 75.0427 24.9353 75.0419 24.8526C75.015 24.8362 74.9873 24.8191 74.9604 24.8027C74.2888 24.4806 73.5871 24.309 72.8323 24.3004C70.7613 24.2785 68.6934 24.2777 66.654 24.7021C65.7242 24.8955 64.823 25.1709 64.0294 25.7153C62.5959 26.6982 62.0114 28.6513 62.6767 30.2395C62.9507 30.2457 63.1788 30.3448 63.3633 30.5507C63.4734 30.6731 63.5827 30.8167 63.7862 30.78C63.7379 30.0312 63.8789 29.3346 64.3707 28.7364C64.5553 28.5117 64.7651 28.3159 65.139 28.174C64.4 29.2168 63.9454 30.241 64.1727 31.45C64.1878 31.5725 64.2622 31.6591 64.339 31.7504C65.0962 32.6528 66.0822 33.2332 67.1625 33.6622C69.3943 34.5483 71.7148 34.9438 74.124 34.8424C74.8566 34.8119 75.5536 34.6848 76.2006 34.3369C76.1864 34.3018 76.1499 34.2558 76.1618 34.2339C76.5055 33.5662 76.6853 32.8471 76.8595 32.1193C76.9997 32.6123 76.949 33.0959 76.8033 33.5772C77.0845 33.6138 77.0908 33.3455 77.2009 33.2098C78.1711 32.0148 77.8178 30.1615 76.2204 29.7184C76.127 29.6927 75.9994 29.6919 75.9884 29.5491C74.3648 29.3175 72.7317 29.1365 71.1501 28.681C69.9265 28.3284 68.7377 27.8931 67.6646 27.1958C67.6416 27.1779 67.6187 27.1591 67.5957 27.1412V27.142ZM75.9313 31.9656C76.3994 32.7067 76.1111 33.9251 75.4134 34.3681C75.6161 33.5865 75.9107 32.8486 75.9313 31.9656ZM63.4528 30.0062C63.0315 29.2395 63.418 27.9953 64.1506 27.7473C63.7411 28.4509 63.5954 29.2067 63.4528 30.0062Z" fill="#F9F8F8"/>
<path d="M103.72 43.0259C103.711 43.1179 103.702 43.21 103.693 43.302C103.952 43.2474 104.211 43.1928 104.459 43.1405C104.48 42.9892 104.306 42.9229 104.357 42.816C104.803 42.5204 105.111 42.0586 105.795 42.0118C105.381 41.671 105.401 41.3317 105.503 40.983C105.628 40.5485 105.591 40.0953 105.652 39.664C105.726 39.1468 105.793 38.657 105.719 38.1351C105.701 38.0064 105.821 37.657 106.143 37.7677C106.419 37.8629 106.706 38.6055 106.508 38.7833C106.179 39.0782 106.292 39.3442 106.429 39.6429C106.475 39.7451 106.449 39.8379 106.434 39.9424C106.378 40.334 106.297 40.7154 106.778 40.9752C106.935 41.0594 107.269 41.0836 107.253 41.4323C106.69 41.412 106.945 41.9775 106.639 42.1733C107.461 42.4026 107.571 42.5017 107.418 42.8371C107.226 42.8199 107.321 42.5727 107.133 42.522C107.024 42.717 106.684 42.9346 106.859 43.1132C107.077 43.334 106.985 43.5547 107.11 43.7997C106.749 43.7396 106.781 44.0719 106.639 44.1803C106.35 44.2029 106.459 43.8566 106.205 43.8293C106.106 43.9112 105.957 43.9822 106.041 44.1834C106.109 44.3449 106.247 44.4596 106.409 44.4205C106.918 44.2989 106.976 44.7302 107.151 44.9939C107.332 45.2669 106.967 45.3035 106.888 45.4549C106.958 45.8675 107.336 46.0414 107.591 46.3098C107.451 46.3979 107.358 46.387 107.269 46.3667C107.145 46.3394 107.013 46.2411 106.908 46.3761C106.853 46.4455 106.852 46.5586 106.912 46.6343C107.012 46.7591 107.141 46.7848 107.3 46.7263C107.564 46.6288 107.748 46.7575 107.895 46.9392C107.897 47.1358 107.661 47.1935 107.682 47.3628C107.721 47.6912 107.592 47.9767 107.475 48.2668C107.38 48.5024 107.746 49.2286 107.958 49.1685C108.402 49.0437 108.633 49.2333 108.841 49.5578C108.853 49.5765 108.933 49.5531 108.934 49.5531C109.083 49.433 108.878 49.2988 109.045 49.1958C109.269 49.174 109.378 49.5289 109.649 49.4244C109.665 49.3175 109.612 49.1233 109.758 49.1381C110.045 49.1678 110.255 48.8433 110.538 48.993C110.66 49.0578 110.7 49.1849 110.59 49.3214C110.493 49.4431 110.388 49.5874 110.534 49.7348C110.683 49.8838 110.842 49.8191 110.99 49.7114C111.046 49.6717 111.108 49.6568 111.187 49.6966C111.237 49.8362 111.372 49.9681 111.245 50.1482C111.051 50.422 110.844 50.1381 110.636 50.1638C110.596 50.3433 110.558 50.5172 110.52 50.6911C110.672 50.6576 110.827 50.6342 110.976 50.589C111.498 50.4291 112.022 50.2793 112.564 50.2005C113.155 48.1717 113.441 46.089 113.693 44.0009C113.945 41.9097 114 39.8067 114.089 37.7053C114.096 37.5423 114.074 37.3707 114.172 37.1874C114.438 37.5197 114.513 37.8933 114.554 38.2748C114.659 39.2576 114.607 40.2443 114.626 41.2295C114.801 41.2123 114.931 41.3028 114.934 41.458C114.941 41.9292 115.432 42.121 115.483 42.6374C115.685 42.4096 115.683 42.114 115.977 42.1686C115.772 40.2412 116.37 38.4222 116.736 36.5696C116.824 36.1227 116.926 35.6422 116.567 35.235C116.532 35.203 116.497 35.1718 116.462 35.1406L116.466 35.143C116.241 35.2264 115.985 34.9207 115.772 35.1882C116.057 35.7943 115.559 36.3863 115.065 36.5376C114.93 36.579 114.703 36.6437 114.634 36.4035C114.552 36.1242 114.332 36.1258 114.127 36.1749C113.721 36.2709 113.317 36.2592 112.913 36.2046C112.806 36.1905 112.715 36.1882 112.686 36.2919C112.561 36.7428 112.312 37.1866 112.588 37.6671C112.684 37.8364 112.681 38.0158 112.616 38.1944C112.536 38.4198 112.577 38.6039 112.799 38.7264C112.911 38.788 113.042 38.9066 112.941 38.9932C112.703 39.1983 112.752 39.5119 112.574 39.7482C112.346 40.0509 112.115 40.0002 111.807 39.9393C111.914 39.774 112.218 39.8535 112.163 39.6094C112.112 39.3878 111.877 39.4206 111.711 39.3644C111.675 39.3527 111.633 39.3605 111.593 39.3605C111.09 39.3605 110.605 39.061 110.087 39.2716C110.05 39.2864 109.987 39.2482 109.939 39.2272C109.204 38.9097 108.966 38.5158 109.125 37.6991C109.173 37.4565 109.124 37.2295 108.958 37.1476C108.618 36.9791 108.557 36.6749 108.483 36.3863C108.429 36.1757 108.327 36.008 108.16 35.9222C107.729 35.7007 107.255 35.5579 106.944 35.1492C106.889 35.0759 106.76 35.0377 106.655 35.1141C106.551 35.189 106.576 35.2842 106.6 35.3934C106.665 35.6882 106.695 35.9815 106.484 36.2451C106.438 36.3021 106.392 36.4027 106.413 36.4596C106.59 36.955 106.146 37.1531 105.944 37.5259C105.641 37.2311 105.526 36.8988 105.579 36.5712C105.632 36.2451 105.509 36.1562 105.252 36.0985C105.113 36.2436 104.997 36.3957 105.009 36.5571C105.028 36.8231 105.286 36.962 105.455 37.1429C104.864 37.6273 104.819 37.7529 105.028 38.3325C104.739 38.5127 104.586 38.7966 104.519 39.1203C104.473 39.341 104.458 39.5478 104.793 39.6125C105.013 39.6546 105.205 39.8301 105.103 40.1031C105.043 40.2615 104.986 40.4643 104.723 40.4066C104.478 40.3527 104.186 40.3995 104.18 40.0033C104.175 39.6336 104.261 39.2552 104.116 38.8918C104.11 39.1367 104.103 39.3808 104.097 39.6258C104.084 39.6905 104.071 39.7545 104.057 39.8192C104.042 40.0719 104.027 40.3247 104.013 40.5774C104.146 40.6601 104.196 40.3231 104.283 40.4885C104.441 40.7895 104.76 40.809 104.992 40.9729C105.18 41.1055 105.265 41.2911 105.204 41.515C105.166 41.6554 105.07 41.8215 104.904 41.7264C104.496 41.4923 104.377 41.749 104.291 42.0696C104.12 41.9767 104.11 41.7256 103.882 41.7755C103.874 41.8909 103.867 42.0056 103.86 42.121C103.866 42.192 103.873 42.2638 103.81 42.3176C103.801 42.4377 103.79 42.5571 103.781 42.6772C103.771 42.7115 103.762 42.7451 103.753 42.7794C103.745 42.8355 103.737 42.8917 103.729 42.9479C103.737 42.9557 103.753 42.9666 103.752 42.9705C103.745 42.9884 103.733 43.0048 103.722 43.022L103.72 43.0259ZM111.978 50.142C111.942 49.933 111.891 49.7208 111.871 49.5063C111.856 49.3511 111.835 49.2255 111.654 49.1849C111.29 49.1022 110.876 49.0476 111.22 48.5149C111.234 48.4923 111.192 48.4408 111.196 48.4049C111.245 47.8909 111.329 47.3839 111.603 46.9307C111.713 46.7505 111.858 46.7489 111.972 46.926C112.079 47.0929 112.163 47.2746 112.273 47.4806C112.405 47.2325 112.574 47.0367 112.603 46.8222C112.627 46.646 112.761 46.3987 112.555 46.2497C112.233 46.0165 112.17 45.6881 112.132 45.3379C112.098 45.0212 111.999 44.7466 111.736 44.5235C111.537 44.3527 111.571 42.621 111.763 42.4331C112.075 42.1281 112.111 41.7443 112.159 41.3785C112.012 41.242 111.858 41.4845 111.732 41.2981C111.836 41.054 112.164 41.2326 112.292 41.0189C112.354 40.9159 112.466 40.7973 112.62 40.8761C112.783 40.9588 112.739 41.1226 112.735 41.2607C112.733 41.3488 112.711 41.4424 112.674 41.5228C112.562 41.7693 112.56 41.9955 112.757 42.2037C112.919 42.3738 112.92 42.5703 112.864 42.7848C112.812 42.9837 112.778 43.1881 112.746 43.3917C112.728 43.5087 112.73 43.6351 112.861 43.6967C112.98 43.7528 113.092 43.7326 113.181 43.628C113.221 43.5812 113.248 43.511 113.381 43.568C113.396 43.8012 113.45 44.0649 113.42 44.3184C113.314 45.2255 113.202 46.1327 113.046 47.0321C112.972 47.4634 112.978 47.9197 112.828 48.3207C112.693 48.6795 112.593 49.0125 112.63 49.394C112.66 49.7013 112.312 50.103 111.98 50.142H111.978ZM107.856 45.8628C107.725 45.745 107.572 45.7185 107.637 45.5422C107.661 45.4775 107.738 45.4377 107.798 45.4619C107.969 45.5313 107.904 45.6639 107.856 45.862V45.8628ZM107.994 45.912C108.234 46.0095 108.382 46.0992 108.339 46.4041C108.19 46.2396 108.055 46.1413 107.994 45.912ZM109.566 49.0203C109.463 48.9611 109.398 48.9072 109.468 48.8035C109.498 48.759 109.561 48.7294 109.599 48.766C109.67 48.8362 109.669 48.9213 109.566 49.0203ZM103.927 42.8426C103.917 42.8207 103.896 42.795 103.902 42.7794C103.908 42.7638 103.943 42.7591 103.964 42.7505C103.973 42.7724 103.995 42.7981 103.988 42.8137C103.982 42.8293 103.948 42.834 103.927 42.8433V42.8426Z" fill="#1C8BBB"/>
<path d="M97.0645 37.5645C96.9291 37.6768 96.9774 37.832 96.9838 37.9662C97.1311 41.0746 96.4484 44.0613 95.6112 47.0246C95.6017 47.0581 95.5661 47.0846 95.5162 47.1494C95.0949 46.6065 94.7028 46.062 94.2673 45.5542C93.8364 45.0527 93.3834 44.5644 92.7878 44.2095C92.6532 44.3522 92.707 44.5035 92.7371 44.6494C92.8148 45.0254 92.8385 45.4091 92.6587 45.7547C91.4454 48.0838 89.6761 49.7851 87.0483 50.484C85.9973 50.764 84.9171 50.7866 83.836 50.7484C83.4131 50.7336 83.1636 50.4972 83.044 50.108C82.85 49.4762 82.831 48.8225 82.8967 48.1805C83.0171 46.9996 83.3505 45.8693 83.9176 44.8148C84.2637 44.172 84.6803 43.5753 85.1729 43.0316C84.4126 42.1822 83.802 41.2337 83.284 40.2087C82.8246 40.8569 82.0453 43.6276 80.8162 48.938C80.7995 48.9692 80.7829 49.0011 80.7663 49.0323C80.7599 49.0589 80.7528 49.0862 80.7465 49.1127C80.7346 49.3459 80.7758 49.5885 80.8122 49.8046C80.8708 50.1478 80.7948 50.4902 80.8819 50.824C80.992 50.7375 81.0165 50.5682 81.2019 50.5159C81.0561 51.1298 80.9088 51.7242 80.775 52.3209C80.6831 52.7296 80.7386 53.1173 80.9674 53.4808C81.0799 53.6594 81.1995 53.7109 81.4212 53.675C83.478 53.3412 85.5419 53.0682 87.6328 53.0604C88.7154 53.0565 89.7981 53.076 90.8673 53.2562C91.8968 53.4301 92.6611 52.9941 93.2899 52.2725C94.3805 51.0229 95.1717 49.5893 95.8797 48.1033C96.7501 46.2765 97.1833 44.3623 97.2039 42.3468C97.219 40.8522 97.2499 39.3577 97.1271 37.8663C97.1192 37.7649 97.0867 37.6659 97.0661 37.566L97.0645 37.5645ZM85.2735 51.1782C85.6607 51.2016 86.0393 51.2999 86.4361 51.3116C88.0304 51.3591 89.3657 50.6704 90.6764 49.906C91.7337 49.2897 92.4172 48.3802 92.7744 47.2289C92.9692 46.6002 93.0547 45.9528 93.0579 45.2492C93.1157 45.3148 93.1521 45.3374 93.1593 45.3662C93.7232 47.6891 92.6445 49.8607 90.4333 50.863C89.6389 51.2234 88.8049 51.459 87.9448 51.5908C87.019 51.7335 86.1138 51.661 85.2735 51.1774V51.1782Z" fill="#D4D5D6"/>
<path d="M110.519 50.6904C110.557 50.5157 110.595 50.3418 110.635 50.1624C110.843 50.1366 111.051 50.4206 111.244 50.1468C111.371 49.9666 111.236 49.8348 111.186 49.6951C111.107 49.6554 111.045 49.6702 110.989 49.71C110.841 49.8176 110.682 49.8823 110.533 49.7334C110.387 49.5867 110.491 49.4424 110.59 49.3199C110.699 49.1834 110.659 49.0563 110.537 48.9916C110.255 48.8418 110.044 49.1655 109.757 49.1366C109.611 49.1218 109.664 49.3153 109.648 49.4221C109.672 49.4268 109.698 49.426 109.718 49.4369C109.764 49.4603 109.805 49.5134 109.741 49.5352C109.661 49.5617 109.659 49.4775 109.647 49.4221C109.376 49.5259 109.268 49.171 109.044 49.1936C108.876 49.2965 109.082 49.4307 108.932 49.5508C108.932 49.5508 108.851 49.5742 108.839 49.5555C108.632 49.231 108.4 49.0415 107.956 49.1663C107.743 49.2263 107.378 48.4994 107.473 48.2646C107.59 47.9744 107.72 47.6897 107.68 47.3605C107.659 47.1913 107.896 47.1343 107.893 46.937C107.746 46.756 107.563 46.6265 107.298 46.724C107.139 46.7825 107.011 46.7568 106.911 46.632C106.851 46.5563 106.851 46.444 106.906 46.3738C107.011 46.2389 107.144 46.3371 107.267 46.3644C107.357 46.3847 107.449 46.3956 107.589 46.3075C107.334 46.0392 106.956 45.8652 106.886 45.4526C106.965 45.3013 107.33 45.2638 107.149 44.9916C106.973 44.728 106.915 44.2966 106.407 44.4183C106.245 44.4573 106.108 44.3426 106.04 44.1812C105.955 43.9799 106.105 43.9089 106.204 43.827C106.458 43.8535 106.348 44.2007 106.638 44.178C106.779 44.0696 106.747 43.7373 107.109 43.7974C106.984 43.5525 107.075 43.3325 106.858 43.111C106.682 42.9323 107.022 42.7147 107.131 42.5197C107.319 42.5704 107.224 42.8177 107.416 42.8348C107.569 42.4987 107.458 42.4004 106.638 42.171C106.943 41.9753 106.688 41.4097 107.251 41.43C107.267 41.0814 106.932 41.058 106.776 40.9729C106.295 40.7132 106.376 40.3318 106.432 39.9402C106.447 39.8357 106.474 39.7428 106.427 39.6407C106.29 39.3427 106.177 39.0767 106.506 38.7811C106.704 38.6032 106.418 37.8599 106.141 37.7655C105.819 37.6547 105.699 38.0049 105.717 38.1329C105.79 38.6547 105.724 39.1453 105.651 39.6617C105.59 40.0931 105.627 40.5463 105.501 40.9807C105.4 41.3294 105.379 41.6687 105.793 42.0096C105.108 42.0572 104.8 42.5182 104.355 42.8138C104.304 42.9214 104.478 42.9869 104.457 43.1383C104.208 43.1905 103.95 43.2451 103.691 43.2997C103.486 44.3676 103.307 45.4409 103.07 46.5017C102.484 49.1312 101.68 51.6873 100.284 54.0258C99.9983 54.5055 99.6665 54.9587 99.3552 55.4236C99.6847 55.4252 100.014 55.4236 100.344 55.4298C101.399 55.4509 102.44 55.3542 103.474 55.1334C104.735 54.8643 105.842 54.2957 106.87 53.55C107.257 53.1834 107.659 52.8316 108.026 52.4463C108.421 52.0321 108.78 51.5804 109.293 51.2989C109.693 51.0797 110.11 50.8901 110.519 50.6881V50.6904Z" fill="#1D8AB9"/>
<path d="M104.115 38.8951C104.26 39.2578 104.173 39.6361 104.179 40.0066C104.184 40.4021 104.477 40.3561 104.722 40.4099C104.986 40.4676 105.042 40.2648 105.101 40.1065C105.204 39.8335 105.013 39.658 104.792 39.6158C104.457 39.5511 104.473 39.3444 104.518 39.1236C104.585 38.7999 104.739 38.516 105.026 38.3358C104.818 37.7563 104.863 37.6307 105.454 37.1463C105.284 36.9653 105.027 36.8265 105.008 36.5605C104.997 36.399 105.112 36.2469 105.25 36.1018C105.508 36.1596 105.63 36.2485 105.577 36.5745C105.524 36.9021 105.639 37.2344 105.943 37.5293C106.144 37.1557 106.588 36.9583 106.411 36.463C106.391 36.4053 106.438 36.3054 106.483 36.2485C106.695 35.9848 106.664 35.6916 106.598 35.3967C106.574 35.2875 106.549 35.1923 106.654 35.1175C106.76 35.0418 106.887 35.08 106.943 35.1526C107.254 35.5613 107.728 35.704 108.159 35.9256C108.325 36.0114 108.427 36.1791 108.482 36.3897C108.555 36.6775 108.617 36.9817 108.957 37.151C109.122 37.2329 109.171 37.4599 109.124 37.7024C108.964 38.5191 109.202 38.913 109.938 39.2305C109.986 39.2508 110.049 39.2898 110.085 39.275C110.603 39.0644 111.089 39.3631 111.592 39.3639C111.631 39.3639 111.674 39.3553 111.71 39.3678C111.875 39.424 112.111 39.3912 112.161 39.6127C112.217 39.8569 111.913 39.7773 111.806 39.9427C112.114 40.0035 112.344 40.0534 112.572 39.7516C112.75 39.516 112.701 39.2024 112.94 38.9965C113.04 38.9099 112.909 38.7914 112.798 38.7297C112.576 38.6073 112.534 38.4232 112.615 38.1978C112.679 38.0184 112.684 37.839 112.586 37.6705C112.311 37.19 112.56 36.7461 112.685 36.2953C112.713 36.1915 112.806 36.1939 112.911 36.2079C113.316 36.2625 113.72 36.2742 114.125 36.1783C114.33 36.1299 114.551 36.1276 114.632 36.4068C114.702 36.6471 114.929 36.5823 115.064 36.541C115.557 36.3905 116.055 35.7984 115.771 35.1916C115.984 34.924 116.24 35.2298 116.465 35.1463C116.187 34.9186 115.837 35.0044 115.522 34.9396C115.29 34.8928 115.053 34.8725 114.818 34.8515C114.261 34.8008 113.905 34.4973 113.687 34.0059C113.45 33.4716 113.245 32.9256 113.07 32.3694C112.99 32.1152 112.853 31.9342 112.567 31.8827C112.438 31.8593 112.302 31.8882 112.243 31.9638C112.187 32.0364 112.239 32.1698 112.312 32.2649C112.653 32.715 112.896 33.2158 113.085 33.7438C113.282 34.2899 113.33 34.8484 113.251 35.4646C113.007 35.3101 112.972 35.0738 112.898 34.8718C112.597 34.0496 112.293 33.2298 111.776 32.5083C111.732 32.4459 111.677 32.3921 111.626 32.3343C111.288 32.3343 110.976 32.1542 110.633 32.1908C110.793 32.488 110.965 32.7797 111.113 33.0824C111.737 34.3632 112.237 35.6806 112.246 37.1276C112.248 37.4138 112.238 37.7063 112.072 37.9801C111.907 37.8483 111.916 37.6783 111.884 37.5355C111.787 37.1096 111.722 36.6767 111.627 36.25C111.299 34.7859 110.759 33.4069 109.893 32.1643C109.704 32.1721 109.516 32.1799 109.327 32.1877C109.82 33.0683 110.477 33.8827 110.532 35.0574C110.104 34.5972 109.888 34.1229 109.595 33.7009C109.299 33.2743 109.004 32.846 108.708 32.4194C108.37 32.3187 108.17 32.0216 107.873 31.8554C106.451 31.0613 104.907 30.7579 103.297 30.7002C103.479 31.467 103.661 32.2329 103.843 32.9997C104.021 33.1003 103.939 33.229 103.883 33.3546C103.887 33.385 103.892 33.4147 103.897 33.4451C104.093 33.5465 104.04 33.6838 103.952 33.825C103.941 33.9443 103.94 34.0629 104.005 34.1713C104.02 34.1276 104.015 34.0707 104.092 34.0621C104.083 34.2454 104.161 34.4342 104.031 34.605C104.024 34.7758 104.01 34.9474 104.082 35.1104C104.12 35.0309 104.048 34.9178 104.148 34.8671C104.305 36.0184 104.249 37.1783 104.196 38.3397C104.184 38.2009 104.171 38.0628 104.159 37.924C104.088 38.2461 104.104 38.573 104.11 38.8998L104.115 38.8951Z" fill="#1D8AB9"/>
<path d="M78.7847 13.474C78.2928 12.8102 78.0798 12.0317 77.9103 11.2517C77.5603 9.64176 77.6981 8.04194 78.117 6.45771C78.4283 5.27988 79.0088 4.25337 79.8618 3.37585C79.9188 3.31657 79.9576 3.25338 79.9552 3.16992C79.0508 3.31423 78.3103 3.77522 77.6585 4.37428C76.4047 5.52637 75.7815 7.00919 75.4354 8.62617C74.9237 11.0146 75.3253 13.3141 76.1077 15.5863C76.7247 17.3765 77.4898 19.1143 78.0069 20.938C78.0909 21.2329 78.1622 21.5316 78.2627 21.8265C78.3807 19.9817 77.9903 18.1331 78.3348 16.2891C78.6445 17.4389 78.9597 18.5871 79.2622 19.7384C79.5679 20.9006 79.6923 22.0816 79.5513 23.3155C80.3591 23.0854 81.1392 22.9911 81.9336 23.0355C81.734 22.8936 81.494 23.0223 81.2557 22.9271C81.1559 22.1299 81.0212 21.3226 80.8525 20.5192C80.554 19.1011 80.1081 17.7259 79.6741 16.3461C79.4531 15.6433 79.2266 14.942 79.0025 14.2408C78.3427 14.584 77.8747 15.1409 77.3765 15.7041C77.2411 14.832 77.7551 14.0387 78.7839 13.4748L78.7847 13.474Z" fill="#D4D5D6"/>
<path d="M100.304 45.1319C100.608 44.1865 100.732 43.2068 100.852 42.2294C101.076 40.4065 101.101 38.575 101.021 36.7427C100.958 35.3403 100.764 33.9518 100.475 32.5767C100.439 32.4058 100.397 32.288 100.191 32.2756C98.9923 32.203 97.8843 31.7639 96.7462 31.4472C96.6852 31.43 96.625 31.4129 96.5529 31.3926C96.5418 31.5361 96.6472 31.5868 96.7097 31.6531C97.3481 32.3302 97.4582 33.1874 97.5112 34.0447C97.6791 36.7271 97.9643 39.4057 97.8534 42.0999C97.7924 43.5796 97.7433 45.0601 97.1556 46.4579C97.1366 46.5039 97.143 46.5601 97.1374 46.6108C97.8225 46.6654 98.4751 46.5843 99.0714 46.2099C99.5419 45.9142 99.9284 45.5289 100.305 45.1311L100.304 45.1319Z" fill="#1C8BBB"/>
<path d="M78.1413 35.2865C77.4689 36.1609 76.5549 36.6453 75.4374 36.7584C74.7658 36.8262 74.091 36.8184 73.421 36.7709C71.0467 36.6016 68.7333 36.1188 66.4634 35.4191C65.3895 35.0884 64.4518 34.5759 63.8309 33.5205C63.248 34.5837 62.6255 35.5486 62.6389 36.7443C62.6461 37.3504 62.8702 37.8808 63.267 38.3442C64.2094 39.4448 65.4465 40.0891 66.8064 40.5204C69.6615 41.426 72.5855 41.8004 75.58 41.5329C76.9398 41.4112 78.2276 41.0758 79.2532 40.1054C79.7886 39.5984 80.1695 39.0025 80.305 38.2732C80.4222 37.6421 80.301 37.0602 79.905 36.5439C79.5233 36.0454 78.7899 35.5213 78.1405 35.2865H78.1413ZM77.986 36.6234C78.0628 36.7935 78.1246 36.9089 78.1682 37.0306C78.5444 38.0883 78.4351 39.0938 77.3976 39.8231C76.5209 40.4393 75.519 40.6405 74.4934 40.6717C73.3236 40.7076 72.1507 40.7357 70.9785 40.6195C69.5577 40.4775 68.1702 40.2201 66.8523 39.671C66.4262 39.4931 66.0358 39.2404 65.8536 38.7833C65.4267 37.7123 65.818 36.7677 66.5886 36.0384C66.8666 35.7748 67.1477 35.749 67.5168 35.8816C69.4072 36.5626 71.3294 37.1382 73.3212 37.4588C74.1702 37.5953 75.0185 37.6211 75.873 37.4978C76.6436 37.3863 77.3271 37.0751 77.9868 36.6242L77.986 36.6234ZM64.1366 35.0876C63.9045 35.8442 63.8333 36.54 63.8483 37.3005C63.2591 36.7997 63.4246 35.5782 64.1366 35.0876ZM64.5848 37.4518C64.1318 36.8879 64.4724 35.7872 65.186 35.5423C64.8573 36.1562 64.7417 36.7958 64.5848 37.4518Z" fill="#D4D5D6"/>
<path d="M78.3751 41.9365C76.6771 42.8562 74.8238 42.9623 72.9468 42.9435C72.8288 42.9428 72.7108 42.942 72.5928 42.942C72.4811 43.0793 72.3243 43.0223 72.1873 43.0239C71.0294 43.0387 69.8747 42.8905 68.7161 42.9513C68.0437 42.9864 67.3863 43.0964 66.7749 43.3959C66.4565 43.552 66.3401 43.7696 66.4763 44.1237C66.7694 44.8905 67.258 45.4505 68.0452 45.7672C68.7034 46.0324 69.3956 46.1143 70.0838 46.1346C71.6329 46.1798 73.186 46.1908 74.7209 45.9131C75.7861 45.7204 76.8284 45.456 77.7257 44.8242C78.6864 44.1479 78.8297 43.3406 78.6182 42.2501C78.5921 42.1144 78.5612 41.9615 78.3751 41.9365Z" fill="#F9F8F8"/>
<path d="M78.3681 41.9351C78.5542 41.9601 78.5851 42.113 78.6113 42.2487C78.8235 43.3384 78.6794 44.1465 77.7187 44.8228C76.8206 45.4546 75.7783 45.719 74.7139 45.9117C73.1782 46.1894 71.6259 46.1777 70.0768 46.1332C69.3878 46.1129 68.6964 46.031 68.0382 45.7658C67.251 45.4491 66.7624 44.8891 66.4693 44.1223C66.3339 43.7674 66.4495 43.5506 66.7679 43.3946C67.3793 43.095 68.0367 42.9851 68.7091 42.95C69.8677 42.8891 71.0224 43.0373 72.1803 43.0225C72.3181 43.0209 72.4742 43.0779 72.5858 42.9406C71.9728 42.8735 71.359 42.8158 70.7484 42.7378C68.9546 42.5092 67.2732 41.9398 65.6837 41.0958C65.5807 41.0412 65.4746 40.9913 65.3732 40.9406C64.289 42.2315 64.5424 43.9819 65.3336 45.0279C65.6037 45.3852 65.9886 45.5841 66.3893 45.7557C67.9432 46.421 69.5755 46.7284 71.2632 46.776C73.377 46.8352 75.4797 46.7806 77.5231 46.1527C78.1559 45.9585 78.7578 45.6972 79.2726 45.2814C80.5698 44.2346 80.7488 42.269 79.6678 40.9336C79.2678 41.3103 78.8195 41.6255 78.3673 41.9359L78.3681 41.9351ZM65.7843 44.2502C65.3867 44.0974 65.2378 43.8283 65.2148 43.4866C65.1784 42.9359 65.3051 42.4453 65.8508 42.017C65.6544 42.808 65.4445 43.5061 65.7843 44.2502Z" fill="#D4D5D6"/>
<path d="M106.872 53.5527C105.845 54.2984 104.738 54.8671 103.477 55.1362C102.442 55.3569 101.402 55.4544 100.346 55.4326C100.017 55.4263 99.6871 55.4287 99.3576 55.4263C98.6955 56.1939 98.0215 56.9497 97.0632 57.5098C97.5432 57.7305 97.9717 57.8702 98.4049 57.9989C98.4453 57.9396 98.4674 57.9669 98.4856 58.0145L98.5039 58.0238L98.5213 58.0129C98.7129 58.0012 98.8919 58.0285 99.0329 58.1728L99.0282 58.1681C99.1208 58.1619 99.2182 58.1408 99.2713 58.2485L99.2665 58.2438C99.7449 58.2407 100.186 58.4201 100.642 58.5223C100.826 58.5636 101.041 58.5472 101.17 58.7297C101.226 58.7438 101.282 58.7578 101.338 58.7719C101.408 58.6915 101.505 58.6962 101.594 58.7079C102.06 58.768 102.526 58.8304 102.99 58.899C103.511 58.9762 104.028 58.9294 104.505 58.931C104.673 58.6985 104.352 58.4739 104.605 58.3085L104.665 58.179C104.69 58.0971 104.754 58.0847 104.829 58.0909L104.825 58.0956C104.894 57.8897 105.065 57.9263 105.224 57.9349L105.232 57.9435C105.245 57.7797 105.121 57.6635 105.071 57.5137C105.374 57.1065 105.782 56.8889 106.284 56.8351C106.491 56.8132 106.621 56.7298 106.624 56.5192C106.527 56.4162 106.417 56.4536 106.318 56.4435C106.297 56.4622 106.276 56.4802 106.256 56.4989C106.221 56.5761 106.157 56.5987 106.077 56.5917L106.078 56.5862C106.067 56.6416 106.048 56.6596 106.008 56.6042C105.979 56.6174 105.95 56.6307 105.921 56.6447C105.884 56.7742 105.778 56.7524 105.682 56.7485L105.686 56.7438C105.504 56.8273 105.327 57.0917 105.135 56.7555C105.016 56.5964 105.164 56.5644 105.258 56.5075C105.467 56.3795 105.693 56.2766 105.861 56.0917C105.75 55.8749 105.535 56.1681 105.383 55.9568C105.405 55.7797 105.473 55.6112 105.726 55.5644C105.933 55.5254 106.048 55.4123 106.006 55.1869C105.96 54.9303 106.078 54.7469 106.268 54.5824C106.445 54.4303 106.615 54.2665 106.766 54.0894C106.894 53.9381 107.062 53.7743 106.87 53.5535L106.872 53.5527Z" fill="#155E86"/>
<path d="M100.304 45.1318C99.9277 45.5304 99.5412 45.915 99.0708 46.2106C98.4752 46.585 97.8218 46.6661 97.1367 46.6115C96.7811 47.3892 96.4984 48.1973 96.1135 48.9641C95.4451 50.2964 94.6658 51.5538 93.671 52.6778C93.3384 53.0537 92.9535 53.3618 92.4783 53.6762C93.2315 53.9008 93.926 54.1582 94.6436 54.3065C95.2597 54.4336 95.7254 54.0529 96.1143 53.6263C96.9372 52.7222 97.5858 51.6981 98.1711 50.6349C99.0977 48.9508 99.8216 47.188 100.281 45.3237C100.296 45.2613 100.297 45.1958 100.305 45.1318H100.304Z" fill="#155E86"/>
<path d="M104.604 58.3083C104.35 58.4745 104.67 58.6983 104.503 58.9308C104.026 58.93 103.509 58.976 102.989 58.8988C102.524 58.8302 102.059 58.7678 101.593 58.7077C101.503 58.696 101.407 58.6921 101.336 58.7717C102.317 58.9534 103.299 59.1008 104.306 59.0431C105.832 58.9557 107.114 58.3208 108.264 57.384C110.016 55.9573 111.177 54.1297 111.942 52.0424C112.164 51.434 112.357 50.8139 112.562 50.1992C112.02 50.2772 111.496 50.427 110.975 50.5877C110.826 50.6329 110.67 50.6563 110.518 50.6899C110.109 50.8927 109.692 51.0822 109.292 51.3014C108.779 51.5822 108.42 52.0346 108.025 52.4488C107.658 52.8334 107.255 53.1859 106.869 53.5525C107.061 53.7725 106.893 53.9371 106.764 54.0884C106.614 54.2655 106.444 54.4293 106.267 54.5814C106.077 54.7452 105.958 54.9293 106.005 55.1859C106.046 55.4121 105.932 55.5252 105.724 55.5634C105.471 55.611 105.404 55.7795 105.382 55.9558C105.533 56.1672 105.748 55.8739 105.859 56.0907C107.133 55.1391 107.792 53.7374 108.615 52.4496C108.405 54.0947 107.662 55.4378 106.315 56.4433C106.414 56.4534 106.525 56.416 106.621 56.519C106.617 56.7296 106.487 56.813 106.28 56.8349C105.779 56.8887 105.37 57.1055 105.068 57.5135C105.118 57.6632 105.241 57.7795 105.229 57.9433C105.352 57.9004 105.48 57.8668 105.599 57.8138C107.313 57.0478 108.496 55.7764 109.248 54.0939C109.313 53.9496 109.345 53.7764 109.534 53.6766C109.635 54.09 109.527 54.4519 109.394 54.7974C108.607 56.8325 107.068 57.9721 104.934 58.3871C104.818 58.4097 104.696 58.4058 104.603 58.3083H104.604Z" fill="#146087"/>
<path d="M86.5215 39.6889C86.8795 40.0992 87.3784 40.2599 87.875 40.412C89.6372 40.9518 91.4176 41.0337 93.1631 40.4057C94.8144 39.8121 95.9018 38.7154 96.0428 36.8816C96.0665 36.5735 96.1077 36.2654 96.1045 35.9557C96.1029 35.8325 96.1473 35.689 95.9952 35.6094C95.9533 35.8512 95.9208 36.0953 95.8677 36.3348C95.5478 37.7732 94.8294 38.9065 93.3722 39.4643C93.2019 39.529 93.0285 39.6265 92.8178 39.5625C92.8907 39.3207 93.0807 39.231 93.2399 39.1304C94.3574 38.4229 94.9617 37.3746 95.3157 36.1515C95.5668 35.2841 95.4939 34.4004 95.4773 33.5189C95.4583 33.1788 95.1724 33.008 94.9783 32.7646C95.0797 33.3536 95.1193 33.9409 95.0734 34.5259C94.9926 35.5439 94.7558 36.5251 94.1697 37.3871C93.453 38.4401 92.383 38.7318 91.172 38.6476C89.9191 38.561 88.7573 38.1694 87.6572 37.5797C86.6902 37.0618 85.8333 36.3988 85.0365 35.6609C84.2976 34.976 83.5872 34.2615 82.9164 33.5096C82.8237 33.4058 82.7382 33.2771 82.5703 33.2724C83.5532 35.9113 85.2678 37.866 87.9772 38.8972C88.7612 39.1959 89.5366 39.5173 90.3143 39.8324C90.4997 39.9073 90.6992 39.972 90.8394 40.2037C89.3346 40.2926 87.9225 40.0446 86.5223 39.6881L86.5215 39.6889Z" fill="#D4D5D6"/>
<path d="M74.3264 47.7943C73.4838 47.7998 72.6403 47.8216 71.7976 47.8068C70.4101 47.7818 69.0376 47.6422 67.6856 47.1843C67.6262 47.565 67.57 47.9316 67.5122 48.2982C67.3863 49.0915 67.8044 49.6453 68.3707 50.1094C69.1841 50.7763 70.1764 50.9986 71.1933 51.0954C73.3396 51.3005 75.4328 51.1 77.3843 50.1164C78.8154 49.3949 79.5409 48.0704 79.3318 46.6485C79.3278 46.6235 79.3159 46.6001 79.2953 46.54C78.7362 46.8169 78.1446 47.0041 77.5664 47.2249C77.5118 48.2062 76.9709 48.8832 76.1559 49.3778C74.7612 50.2249 73.2327 50.5423 71.6052 50.5291C70.8686 50.5228 70.273 50.3146 69.7931 49.7654C69.626 49.5743 69.4264 49.3926 69.5112 49.1227C69.5911 48.8661 69.8232 48.7623 70.0861 48.7132C71.3074 48.4854 72.5286 48.2569 73.7459 48.0104C73.9431 47.9706 74.2013 48.0408 74.3264 47.7951V47.7943ZM68.4032 48.1211C68.3319 48.7436 68.4198 49.2795 68.678 49.8426C67.9676 49.4628 67.8187 48.5868 68.4032 48.1211Z" fill="#D4D5D6"/>
<path d="M75.9851 29.5489C75.997 29.6917 76.1245 29.6924 76.2171 29.7182C77.8146 30.1612 78.167 32.0146 77.1976 33.2096C77.0875 33.3453 77.0812 33.6136 76.8 33.5769C76.6385 33.8609 76.5609 34.2088 76.1973 34.3367C75.5503 34.6846 74.8533 34.8109 74.1207 34.8421C71.7115 34.9428 69.391 34.5481 67.1592 33.662C66.0789 33.233 65.0921 32.6526 64.3358 31.7501C64.2589 31.6581 64.1845 31.5715 64.1695 31.4498C63.8796 31.3157 63.9002 31.0091 63.783 30.779C63.5794 30.8157 63.4701 30.6729 63.36 30.5497C63.1755 30.3438 62.9474 30.2447 62.6734 30.2384C63.2515 31.8539 64.2344 33.1354 65.8263 33.9014C67.4712 34.6924 69.2302 35.1276 71.017 35.4576C72.4584 35.7236 73.9101 35.8772 75.3792 35.697C77.4217 35.4459 78.9732 33.456 78.6739 31.467C78.5345 30.5395 77.9437 29.9506 76.8761 29.6917C76.5838 29.6207 76.2908 29.5396 75.9851 29.5497V29.5489Z" fill="#D4D5D6"/>
<path d="M102.274 47.0803C102.596 45.9298 102.8 44.7551 102.978 43.5772C103.367 41.0055 103.584 38.4205 103.47 35.8168C103.393 34.0501 103.164 32.3051 102.594 30.618C102.206 30.6164 101.817 30.6148 101.429 30.6133C102.423 33.6702 102.511 36.8082 102.306 39.9751C102.145 42.472 101.597 44.8994 100.972 47.3143C101.273 46.915 101.402 46.4579 101.485 45.9313C101.69 45.9009 101.935 45.8502 101.881 46.2348C101.84 46.5249 102.02 46.6146 102.245 46.6576C102.252 46.8167 102.126 46.9594 102.274 47.0811V47.0803Z" fill="#1C8BBB"/>
<path d="M115.979 42.1688C115.685 42.1134 115.688 42.4098 115.485 42.6376C115.434 42.1212 114.942 41.9293 114.936 41.4582C114.934 41.3029 114.802 41.2125 114.628 41.2296C114.476 41.5284 114.527 41.8575 114.502 42.1711C114.31 44.657 113.986 47.1227 113.412 49.5532C113.374 49.7147 113.343 49.8785 113.308 50.0407C113.938 49.9378 114.569 49.8356 115.199 49.7326C115.166 48.7607 115.286 47.82 115.766 46.9487C116.04 46.4519 116.395 46.0166 116.848 45.6757C117.092 45.4917 117.089 45.3349 116.961 45.0938C116.589 44.3934 116.251 43.6781 116.113 42.8895C116.071 42.6493 116.024 42.409 115.98 42.1695L115.979 42.1688Z" fill="#1D8AB9"/>
<path d="M82.1934 32.893C82.0096 32.9148 81.917 32.8095 81.8132 32.6746C80.8391 31.4055 80.3369 29.939 79.9536 28.4203C79.7659 27.677 79.735 26.9133 79.6432 26.1575C79.5941 25.7542 79.6622 25.3509 79.7517 24.9633C79.8784 24.4126 80.3662 24.2308 80.8422 24.0514C81.1772 23.9251 81.5645 23.957 81.8623 23.7207C80.7828 23.7652 79.7699 24.0725 78.7886 24.4937C78.1004 24.7886 78.0133 25.4344 77.9079 26.0444C77.7559 26.9219 77.8264 27.8049 77.9198 28.684C77.9673 29.127 77.9792 29.1255 78.7245 29.471C78.7593 28.9008 78.7094 28.3174 79.1117 27.7378C79.2693 28.8704 79.5291 29.8915 79.8736 30.8891C80.5532 32.8524 81.4394 34.7081 82.846 36.283C82.9315 36.3781 83.0289 36.4631 83.1208 36.5528C83.1295 36.5411 83.1374 36.5294 83.1445 36.5177C82.9228 35.8204 82.5608 35.1738 82.3858 34.4577C82.2599 33.9413 82.1656 33.4257 82.1918 32.8938L82.1934 32.893Z" fill="#CDCCCD"/>
<path d="M74.3264 47.7948C74.2013 48.0405 73.9431 47.9703 73.7459 48.0101C72.5286 48.2566 71.3073 48.4851 70.0861 48.7129C69.8232 48.762 69.5911 48.8658 69.5111 49.1224C69.4272 49.3923 69.626 49.574 69.7931 49.7651C70.2738 50.3143 70.8694 50.5233 71.6051 50.5288C73.2335 50.542 74.7612 50.2246 76.1559 49.3775C76.9708 48.8829 77.5118 48.2059 77.5664 47.2246C76.7087 47.4056 75.8518 47.5943 74.9909 47.7636C74.7754 47.8057 74.5474 47.7854 74.3256 47.794L74.3264 47.7948Z" fill="#F9F8F8"/>
<path d="M80.8789 50.8227C80.7918 50.4896 80.8678 50.1464 80.8092 49.8032C80.772 49.5871 80.7308 49.3453 80.7435 49.1113C80.4695 49.6839 80.1891 50.2541 79.7622 50.7361C79.6173 50.8999 79.4913 51.084 79.2648 51.2143C79.1722 50.9241 79.2831 50.648 79.2569 50.3773C79.2443 50.3656 79.2308 50.3539 79.2181 50.343C78.693 50.981 78.0539 51.4998 77.4148 52.02C76.8287 52.4974 76.3654 53.0754 76.028 53.7486C75.9654 53.8734 75.8775 53.9943 75.8981 54.1791C77.3712 54.2127 78.8372 54.116 80.3269 53.9303C79.7891 52.7611 80.3277 51.7907 80.8789 50.8235V50.8227Z" fill="#CDCCCD"/>
<path d="M102.281 47.0815C102.133 46.9598 102.258 46.817 102.252 46.6579C102.026 46.615 101.846 46.5261 101.888 46.2351C101.941 45.8506 101.697 45.9013 101.492 45.9317C101.408 46.4582 101.279 46.9153 100.978 47.3147C100.454 49.0549 99.8546 50.7671 99.0397 52.4004C98.5732 53.3349 98.0172 54.2132 97.3828 55.0439C97.7622 55.2194 98.1701 55.2553 98.5787 55.2857C99.7857 53.8661 100.631 52.2514 101.244 50.5104C101.114 50.3568 101.205 50.2733 101.344 50.2047L101.341 50.2086C101.353 50.037 101.266 49.8318 101.504 49.7374L101.5 49.7421C101.485 49.4504 101.504 49.1704 101.759 48.966L101.751 48.9714C101.736 48.8763 101.705 48.7764 101.835 48.7289L101.826 48.739C101.844 48.707 101.862 48.675 101.881 48.6431C101.882 48.6165 101.883 48.5892 101.884 48.5627C101.821 48.2959 101.84 48.0526 102.082 47.8708C102.138 47.8248 102.128 47.764 102.12 47.7039C101.986 47.5105 102.05 47.3662 102.235 47.2523L102.227 47.2601C102.243 47.2273 102.26 47.1938 102.276 47.161C102.277 47.1345 102.279 47.1072 102.28 47.0807L102.281 47.0815ZM101.749 47.2687C101.756 47.2086 101.797 47.1766 101.851 47.1766C101.906 47.1766 101.952 47.2086 101.953 47.2687C101.954 47.3443 101.912 47.3857 101.833 47.3763C101.77 47.3693 101.753 47.3233 101.749 47.2687Z" fill="#1D8AB9"/>
<path d="M115.196 49.7324C114.566 49.8354 113.935 49.9376 113.305 50.0405C112.896 51.4181 112.426 52.7729 111.744 54.1278C112.428 53.9718 113.036 53.9477 113.649 54.2105C113.816 53.6684 113.977 53.1513 114.231 52.6684C114.504 52.1482 114.814 51.6505 115.216 51.2184C115.415 51.0054 115.481 50.8018 115.378 50.5195C115.287 50.2683 115.254 49.9961 115.196 49.7324Z" fill="#146087"/>
<path d="M76.7695 51.5596C74.9963 52.1017 73.3022 52.4465 71.4799 52.3178C71.6747 52.7936 71.9741 53.1407 72.34 53.4332C73.0654 54.0143 73.9334 54.1305 74.8276 54.1563C74.9353 54.1594 75.0026 54.1188 75.0327 54.0166C75.3052 53.0954 75.9688 52.4394 76.6088 51.7671C76.6436 51.7312 76.6705 51.6883 76.7695 51.5604V51.5596Z" fill="#CDCCCD"/>
<path d="M111.395 32.0383C110.872 31.4743 110.222 31.0874 109.53 30.7707C107.71 29.9377 105.769 29.5531 103.795 29.2988C103.432 29.252 103.068 29.2216 102.659 29.1787C102.796 29.5157 102.897 29.816 103.072 30.0859C103.611 30.0336 104.144 30.135 104.678 30.167C105.528 30.2169 106.368 30.3589 107.176 30.6374C107.427 30.7239 107.708 30.7879 107.809 31.0866C107.808 30.9096 107.855 30.7926 108.059 30.9158C108.223 31.0157 108.38 31.1288 108.54 31.2356C108.609 31.1436 108.709 31.1584 108.788 31.1951C109.153 31.3612 109.553 31.4431 109.898 31.6545C110.077 31.6264 110.201 31.7465 110.346 31.8105C110.377 31.8339 110.409 31.8573 110.439 31.8807H110.413C110.762 31.8043 111.063 32.0086 111.394 32.0391L111.395 32.0383Z" fill="#1D8AB9"/>
<path d="M75.0392 24.8519C75.0392 24.9345 75.0757 24.9969 75.1414 25.05C75.6142 25.433 75.8312 25.9423 75.7172 26.5203C75.5714 27.2621 75.1208 27.7957 74.37 28.0437C74.2465 28.0843 74.1174 28.1069 73.9899 28.1381C74.8595 28.3908 75.2444 28.1872 75.9009 27.1264C76.1029 27.4992 76.1108 27.5679 76.0554 28.5125C76.3817 28.5843 76.7167 28.6576 77.1016 28.7418C76.8038 27.8066 76.8252 26.8924 76.8711 25.9759C76.9028 25.3425 76.4593 24.8955 76.1512 24.4182C76.011 24.2013 75.6095 24.3253 75.299 24.2988C75.3346 24.5484 75.5485 24.7302 75.5176 25.0016C75.3489 24.9486 75.1945 24.9002 75.0392 24.8519Z" fill="#CDCCCD"/>
<path d="M107.808 31.0858C107.707 30.787 107.426 30.7231 107.174 30.6365C106.367 30.358 105.528 30.2168 104.677 30.1661C104.142 30.1342 103.61 30.0328 103.07 30.085C103.127 30.2956 103.177 30.5093 103.3 30.695C104.91 30.7535 106.455 31.0561 107.875 31.8502C108.172 32.0163 108.372 32.3135 108.711 32.4142C108.461 31.9376 108.044 31.571 107.808 31.085V31.0858Z" fill="#7ECAEB"/>
<path d="M72.3897 27.2318C72.2226 27.2872 72.0776 27.2069 71.9398 27.1429C70.5008 26.4752 68.9778 26.2326 67.401 26.2576C67.1539 26.2615 66.8315 26.235 66.7563 26.4971C66.685 26.7451 66.9915 26.8566 67.1745 26.9947C67.2822 27.0766 67.3915 27.1414 67.5348 27.1055C67.4691 26.9565 67.2513 26.9027 67.2774 26.6078C68.1739 26.8028 69.0594 26.9893 69.9424 27.1889C70.8358 27.391 71.726 27.6047 72.6328 27.8169C72.594 27.6359 72.5552 27.4768 72.4491 27.3426C72.4039 27.3247 72.3667 27.3013 72.3873 27.2435L72.3897 27.2326V27.2318Z" fill="#D4D5D6"/>
<path d="M98.5773 55.2867C98.1679 55.2563 97.76 55.2204 97.3814 55.0449C96.8017 55.7181 96.2069 56.3741 95.365 56.761C96.0002 57.222 96.2148 57.2368 96.8429 56.8499C97.5177 56.4341 98.1013 55.917 98.5781 55.2867H98.5773Z" fill="#146087"/>
<path d="M85.8888 43.0327C85.8998 42.8993 85.9941 42.879 86.1058 42.8603C86.695 42.7636 87.2826 42.6606 87.8711 42.5592C86.8732 41.9687 85.9133 41.3245 84.9914 40.4805C85.1395 41.4532 85.4492 42.2652 85.8888 43.0327Z" fill="#D4D5D6"/>
<path d="M102.418 30.0816C101.866 28.9014 102.258 29.1588 100.98 29.073C100.867 29.0652 100.754 29.0722 100.583 29.0722C100.805 29.4459 100.996 29.7649 101.186 30.0839C101.597 30.0839 102.008 30.0824 102.418 30.0816Z" fill="#1C8BBB"/>
<path d="M103.881 41.7787C104.11 41.728 104.119 41.9799 104.29 42.0727C104.376 41.7521 104.495 41.4947 104.903 41.7295C105.069 41.8255 105.165 41.6585 105.203 41.5181C105.264 41.2943 105.179 41.1086 104.991 40.976C104.759 40.8114 104.441 40.7927 104.282 40.4916C104.195 40.3263 104.145 40.6632 104.012 40.5806C103.934 40.7405 103.946 40.9097 103.954 41.079C104.083 41.2264 104.012 41.3801 103.965 41.5345C103.952 41.5002 103.94 41.4651 103.927 41.4308C103.865 41.5408 103.869 41.6593 103.88 41.7794L103.881 41.7787Z" fill="#1D8AB9"/>
<path d="M102.419 30.082C102.009 30.082 101.598 30.0836 101.188 30.0844C101.269 30.2614 101.351 30.4385 101.433 30.6156C101.821 30.6171 102.21 30.6187 102.598 30.6202C102.538 30.4408 102.478 30.2614 102.419 30.082H102.419Z" fill="#6EC0DF"/>
<path d="M104.162 37.9192C104.174 38.0581 104.187 38.1961 104.199 38.335C104.252 37.1735 104.308 36.0136 104.151 34.8623C104.051 34.913 104.123 35.0261 104.085 35.1057C104.098 35.4598 104.113 35.8147 104.126 36.1688C104.24 36.4083 104.16 36.661 104.177 36.9075C104.119 37.2437 104.144 37.5815 104.162 37.9192Z" fill="#1C8BBB"/>
<path d="M111.394 32.0384C111.063 32.008 110.762 31.8029 110.413 31.8809C110.454 32.0072 110.544 32.0977 110.636 32.1866C110.979 32.15 111.291 32.3301 111.629 32.3301C111.55 32.2326 111.471 32.1359 111.393 32.0384H111.394Z" fill="#6EC0DF"/>
<path d="M101.172 58.7301C101.043 58.5476 100.828 58.564 100.644 58.5226C100.188 58.4205 99.7471 58.2411 99.2687 58.2442C99.8809 58.4883 100.523 58.6217 101.172 58.7301Z" fill="#146087"/>
<path d="M101.758 48.9678C101.503 49.1721 101.485 49.4529 101.5 49.7439C101.619 49.4958 101.732 49.2455 101.758 48.9678Z" fill="#1C8BBB"/>
<path d="M102.082 47.8711C101.84 48.0528 101.821 48.2962 101.884 48.563C102.016 48.3508 102.031 48.1059 102.082 47.8711Z" fill="#1C8BBB"/>
<path d="M102.234 47.2539C102.049 47.3686 101.985 47.5129 102.12 47.7055C102.199 47.5651 102.216 47.4091 102.234 47.2539Z" fill="#1C8BBB"/>
<path d="M104.179 36.9076C104.163 36.6611 104.243 36.4084 104.129 36.1689C104.123 36.417 104.088 36.6666 104.179 36.9076Z" fill="#1D8AB9"/>
<path d="M104.038 34.5995C104.168 34.4287 104.088 34.2399 104.098 34.0566C104.021 34.0652 104.026 34.1222 104.011 34.1658C104.02 34.3101 104.029 34.4552 104.039 34.5995H104.038Z" fill="#1C8BBB"/>
<path d="M101.504 49.7393C101.265 49.8344 101.352 50.0388 101.341 50.2104C101.434 50.0661 101.483 49.9077 101.504 49.7393Z" fill="#1C8BBB"/>
<path d="M103.931 41.4299C103.944 41.4642 103.956 41.4993 103.969 41.5337C104.016 41.3792 104.087 41.2255 103.958 41.0781C103.95 41.1951 103.94 41.3129 103.931 41.4299Z" fill="#1C8BBB"/>
<path d="M99.0312 58.1719C98.8903 58.0275 98.7113 58.001 98.5196 58.012C98.6717 58.1235 98.8435 58.1719 99.0312 58.1719Z" fill="#146087"/>
<path d="M101.34 50.207C101.201 50.2757 101.11 50.3591 101.24 50.5128C101.273 50.4106 101.307 50.3084 101.34 50.207Z" fill="#1C8BBB"/>
<path d="M103.888 33.35C103.944 33.2244 104.027 33.0957 103.849 32.9951C103.862 33.1137 103.875 33.2315 103.888 33.35Z" fill="#1C8BBB"/>
<path d="M103.956 33.8203C104.044 33.6783 104.098 33.5418 103.901 33.4404C103.919 33.5668 103.937 33.6939 103.956 33.8203Z" fill="#1C8BBB"/>
<path d="M101.832 48.7305C101.704 48.7781 101.733 48.8779 101.749 48.9731C101.84 48.913 101.804 48.8108 101.832 48.7305Z" fill="#1C8BBB"/>
<path d="M99.2773 58.2483C99.2243 58.1407 99.1269 58.1617 99.0342 58.168C99.0952 58.253 99.1878 58.2452 99.2773 58.2483Z" fill="#146087"/>
<path d="M103.806 42.3216C103.869 42.267 103.861 42.196 103.856 42.125C103.799 42.1804 103.795 42.249 103.806 42.3216Z" fill="#1D8AB9"/>
<path d="M104.058 39.8214C104.072 39.7566 104.084 39.6927 104.098 39.6279C104.043 39.6841 104.042 39.7512 104.058 39.8214Z" fill="#1D8AB9"/>
<path d="M79.9534 3.16858C80.0191 3.18496 80.0729 3.17092 80.1094 3.11086C80.0444 3.09526 79.9914 3.1132 79.9534 3.16858Z" fill="#D4D5D6"/>
<path d="M79.262 50.3785C79.3103 50.3441 79.3111 50.2997 79.2778 50.2217C79.254 50.2755 79.2382 50.3098 79.2231 50.3441C79.2358 50.3558 79.2493 50.3668 79.262 50.3785Z" fill="#CDCCCD"/>
<path d="M82.0076 23.7091C82.0366 23.7585 82.064 23.7562 82.0898 23.7061C82.0624 23.7068 82.035 23.7084 82.0076 23.7091Z" fill="#CDCCCD"/>
<path d="M103.75 42.7828C103.759 42.7485 103.769 42.715 103.777 42.6807C103.768 42.715 103.758 42.7485 103.75 42.7828Z" fill="#1D8AB9"/>
<path d="M83.1207 36.5527C83.1286 36.5835 83.1411 36.6275 83.1787 36.5936C83.2077 36.5673 83.1834 36.5319 83.1435 36.5195C83.1372 36.5303 83.1294 36.5419 83.1207 36.5527Z" fill="#CDCCCD"/>
<path d="M101.88 48.6445C101.862 48.6762 101.844 48.7078 101.826 48.7394C101.87 48.7224 101.891 48.6923 101.88 48.6445Z" fill="#1C8BBB"/>
<path d="M98.4883 58.0139C98.4703 57.9661 98.4483 57.9399 98.4084 57.9985C98.435 58.0039 98.4617 58.0093 98.4883 58.0139Z" fill="#146087"/>
<path d="M103.725 43.0244C103.735 43.0075 103.747 42.9913 103.754 42.9735C103.755 42.9697 103.739 42.9589 103.731 42.9512C103.716 42.9743 103.715 42.999 103.725 43.0244Z" fill="#1D8AB9"/>
<path d="M72.3874 27.2422C72.3669 27.2999 72.4041 27.3233 72.4492 27.3413C72.4286 27.3085 72.408 27.2749 72.3874 27.2422Z" fill="#F9F8F8"/>
<path d="M74.9545 24.802C74.9811 24.8182 75.0085 24.8352 75.0352 24.8514C75.0242 24.8098 75.0007 24.7882 74.9545 24.802Z" fill="#CDCCCD"/>
<path d="M95.4788 33.5186C95.4962 34.4 95.5683 35.2837 95.3172 36.1511C94.9632 37.3742 94.3589 38.4218 93.2414 39.13C93.0822 39.2307 92.8921 39.3204 92.8193 39.5622C93.0299 39.6261 93.2042 39.5294 93.3737 39.4639C94.8309 38.9062 95.5493 37.7728 95.8692 36.3344C95.9223 36.095 95.9547 35.8508 95.9967 35.609C96.0007 35.4951 96.0039 35.382 96.0078 35.2681C95.9532 35.1808 95.9563 35.0872 95.9745 34.9912C95.8708 34.4803 95.851 33.9421 95.4788 33.5186Z" fill="#171818"/>
<path d="M78.7766 13.4737C77.7478 14.0384 77.2338 14.8309 77.3693 15.703C77.8666 15.1406 78.3355 14.5828 78.9952 14.2396C79.7357 13.7373 80.5903 13.5158 81.5391 13.3075C80.694 12.9791 79.9559 13.0914 79.2217 13.3223C79.072 13.3691 78.9247 13.4222 78.7766 13.4729V13.4737Z" fill="#171818"/>
<path d="M95.9707 34.9922C95.9525 35.0881 95.9493 35.1817 96.004 35.2691C96.038 35.1716 96.0531 35.0756 95.9707 34.9922Z" fill="#D4D5D6"/>
<path d="M63.784 30.7791C63.9012 31.0092 63.8806 31.3165 64.1705 31.4499C63.9432 30.2409 64.3986 29.2159 65.1367 28.1738C64.7629 28.315 64.553 28.5116 64.3685 28.7362C63.8767 29.3337 63.7357 30.0311 63.784 30.7799V30.7791Z" fill="#171818"/>
<path d="M75.931 31.9648C75.9104 32.8478 75.6158 33.5857 75.413 34.3673C76.1108 33.9243 76.3999 32.7051 75.931 31.9648Z" fill="#171818"/>
<path d="M63.4507 30.006C63.5933 29.2065 63.739 28.4514 64.1484 27.7471C63.4166 27.9951 63.0294 29.2393 63.4507 30.006Z" fill="#171818"/>
<path d="M76.1995 34.3367C76.563 34.208 76.6406 33.8601 76.8022 33.577C76.9487 33.0957 76.9986 32.6121 76.8584 32.1191C76.6842 32.8469 76.5036 33.5661 76.1607 34.2338C76.1496 34.2556 76.1852 34.3024 76.1995 34.3367Z" fill="#171818"/>
<path d="M111.98 50.1418C112.313 50.1028 112.661 49.7003 112.631 49.3937C112.593 49.0123 112.694 48.6792 112.829 48.3204C112.979 47.9195 112.973 47.4632 113.047 47.0318C113.203 46.1325 113.315 45.2253 113.421 44.3181C113.45 44.0646 113.397 43.8018 113.382 43.5678C113.249 43.5108 113.222 43.581 113.182 43.6278C113.093 43.7323 112.981 43.7526 112.862 43.6965C112.731 43.6341 112.729 43.5085 112.747 43.3915C112.779 43.1879 112.813 42.9835 112.865 42.7846C112.921 42.5701 112.92 42.3735 112.758 42.2035C112.561 41.9952 112.563 41.769 112.675 41.5225C112.712 41.4422 112.734 41.3486 112.736 41.2605C112.74 41.1232 112.784 40.9586 112.621 40.8759C112.467 40.7979 112.355 40.9157 112.293 41.0186C112.165 41.2324 111.837 41.053 111.733 41.2979C111.859 41.4843 112.013 41.2417 112.16 41.3782C112.112 41.7441 112.076 42.1278 111.764 42.4328C111.573 42.6208 111.538 44.3525 111.737 44.5233C111.999 44.7464 112.099 45.0209 112.133 45.3376C112.171 45.6879 112.234 46.0162 112.555 46.2495C112.761 46.3985 112.628 46.6457 112.604 46.822C112.574 47.0365 112.406 47.2323 112.274 47.4803C112.164 47.2744 112.08 47.0927 111.973 46.9258C111.859 46.7487 111.714 46.7495 111.604 46.9304C111.33 47.3828 111.246 47.8899 111.196 48.4047C111.193 48.4406 111.235 48.4928 111.221 48.5147C110.876 49.0474 111.291 49.102 111.655 49.1847C111.836 49.2253 111.858 49.3508 111.872 49.5061C111.893 49.7206 111.942 49.9327 111.979 50.1418H111.98Z" fill="#1D8AB9"/>
<path d="M107.861 45.8624C107.909 45.6642 107.974 45.5316 107.803 45.4622C107.743 45.438 107.666 45.4778 107.642 45.5426C107.577 45.7181 107.73 45.7454 107.861 45.8632V45.8624Z" fill="#1D8AB9"/>
<path d="M107.995 45.9111C108.056 46.1405 108.192 46.2387 108.341 46.4033C108.383 46.0983 108.235 46.0086 107.995 45.9111Z" fill="#1D8AB9"/>
<path d="M109.567 49.0192C109.669 48.9201 109.67 48.8351 109.599 48.7649C109.561 48.7275 109.498 48.7579 109.468 48.8024C109.398 48.9061 109.463 48.9607 109.567 49.0192Z" fill="#1D8AB9"/>
<path d="M103.93 42.8408C103.952 42.8315 103.985 42.8269 103.991 42.8115C103.997 42.7961 103.976 42.7706 103.967 42.749C103.945 42.7583 103.911 42.7629 103.906 42.7776C103.899 42.793 103.921 42.8192 103.93 42.84V42.8408Z" fill="#1D8AB9"/>
<path d="M85.2749 51.1782C86.1159 51.6618 87.0204 51.7335 87.9462 51.5916C88.8063 51.4598 89.6403 51.2242 90.4346 50.8638C92.6467 49.8615 93.7246 47.6899 93.1607 45.367C93.1535 45.3374 93.1171 45.3155 93.0593 45.25C93.0561 45.9544 92.9706 46.601 92.7758 47.2297C92.4186 48.381 91.7351 49.2905 90.6778 49.9067C89.367 50.6712 88.0318 51.3599 86.4375 51.3123C86.0407 51.3006 85.6621 51.2023 85.2749 51.1789V51.1782Z" fill="#171818"/>
<path d="M109.647 49.4229C109.658 49.4782 109.661 49.5625 109.74 49.536C109.804 49.5141 109.764 49.4611 109.717 49.4377C109.697 49.4275 109.67 49.4275 109.647 49.4236V49.4229Z" fill="#1C8BBB"/>
<path d="M110.636 32.1864C110.545 32.0975 110.454 32.007 110.414 31.8806L110.44 31.8798C110.385 31.8884 110.363 31.8517 110.347 31.8096C110.202 31.7449 110.077 31.6255 109.899 31.6536C109.787 31.8221 109.856 31.9906 109.897 32.1599C110.763 33.4032 111.303 34.7815 111.63 36.2464C111.725 36.6731 111.79 37.106 111.888 37.5319C111.92 37.6746 111.911 37.8447 112.076 37.9765C112.242 37.7027 112.252 37.4102 112.25 37.1239C112.241 35.677 111.74 34.3595 111.117 33.0787C110.97 32.7753 110.797 32.4836 110.636 32.1872V32.1864Z" fill="#0E0E0E"/>
<path d="M107.808 31.0872C108.045 31.5724 108.461 31.9398 108.711 32.4164C109.007 32.8438 109.302 33.2713 109.598 33.6979C109.89 34.1199 110.107 34.5942 110.535 35.0544C110.48 33.8797 109.822 33.0653 109.331 32.1847C109.067 31.8688 108.803 31.5521 108.539 31.2362C108.379 31.1293 108.223 31.0162 108.058 30.9164C107.854 30.7931 107.807 30.9094 107.808 31.0872Z" fill="#0E0E0E"/>
<path d="M108.539 31.2347C108.803 31.5506 109.067 31.8673 109.331 32.1832C109.519 32.1754 109.708 32.1676 109.896 32.1598C109.856 31.9906 109.786 31.8213 109.898 31.6536C109.553 31.4422 109.152 31.3603 108.788 31.1942C108.709 31.1583 108.609 31.1427 108.54 31.2347H108.539Z" fill="#6EC0DF"/>
<path d="M77.9843 36.6235C77.3246 37.0744 76.6411 37.3864 75.8705 37.4971C75.0159 37.6204 74.1677 37.5947 73.3187 37.4581C71.3269 37.1376 69.4047 36.5611 67.5142 35.8809C67.1452 35.7483 66.864 35.7741 66.586 36.0377C65.8154 36.767 65.4234 37.7117 65.8511 38.7826C66.0332 39.2397 66.4237 39.4924 66.8498 39.6703C68.1676 40.2194 69.5552 40.4776 70.976 40.6188C72.1489 40.7358 73.3219 40.7077 74.4908 40.6711C75.5173 40.6391 76.5183 40.4386 77.395 39.8224C78.4325 39.0931 78.5411 38.0876 78.1657 37.0299C78.1221 36.9082 78.0603 36.7928 77.9835 36.6227L77.9843 36.6235Z" fill="#FBFAFA"/>
<path d="M64.1367 35.0879C63.4247 35.5785 63.2584 36.8 63.8484 37.3008C63.8334 36.5403 63.9047 35.8445 64.1367 35.0879Z" fill="#171818"/>
<path d="M64.5864 37.4525C64.7432 36.7965 64.8588 36.1568 65.1875 35.543C64.4739 35.7879 64.1334 36.8885 64.5864 37.4525Z" fill="#171818"/>
<path d="M65.785 44.2518C65.4453 43.5076 65.6552 42.8095 65.8516 42.0186C65.3059 42.4468 65.18 42.9374 65.2156 43.4881C65.2378 43.8298 65.3875 44.0989 65.785 44.2518Z" fill="#171818"/>
<path d="M104.607 58.3076C104.7 58.4051 104.823 58.409 104.938 58.3863C107.073 57.9714 108.611 56.8317 109.398 54.7967C109.532 54.4511 109.639 54.0892 109.538 53.6758C109.349 53.7756 109.317 53.9488 109.252 54.0931C108.501 55.7756 107.317 57.0478 105.603 57.813C105.484 57.8661 105.356 57.8996 105.233 57.9425L105.225 57.9339C105.116 58.047 104.981 58.0954 104.826 58.0946L104.83 58.0899C104.796 58.1562 104.729 58.164 104.667 58.1781L104.607 58.3076Z" fill="#0E0E0E"/>
<path d="M106.32 56.4429C107.668 55.4375 108.41 54.0943 108.621 52.4492C107.798 53.737 107.138 55.1387 105.865 56.0904C105.697 56.2752 105.471 56.379 105.261 56.5061C105.168 56.5631 105.02 56.595 105.139 56.7542C105.322 56.7503 105.506 56.7464 105.69 56.7425L105.685 56.7471C105.743 56.6637 105.842 56.6723 105.924 56.6434C105.954 56.6301 105.982 56.6169 106.012 56.6028C106.033 56.5888 106.057 56.5826 106.082 56.5849L106.08 56.5904C106.118 56.5194 106.189 56.5077 106.259 56.4975C106.28 56.4788 106.301 56.4609 106.321 56.4422L106.32 56.4429Z" fill="#0E0E0E"/>
<path d="M105.688 56.7422C105.504 56.7461 105.32 56.75 105.136 56.7539C105.327 57.0901 105.505 56.8256 105.688 56.7422Z" fill="#146087"/>
<path d="M104.823 58.0955C104.98 58.0955 105.114 58.0479 105.223 57.9348C105.063 57.9262 104.893 57.8895 104.823 58.0955Z" fill="#146087"/>
<path d="M105.918 56.6436C105.836 56.6724 105.737 56.6646 105.679 56.7473C105.776 56.7512 105.881 56.773 105.918 56.6436Z" fill="#146087"/>
<path d="M106.254 56.498C106.183 56.5082 106.113 56.5199 106.075 56.5909C106.155 56.5979 106.219 56.5753 106.254 56.498Z" fill="#146087"/>
<path d="M104.665 58.1774C104.728 58.1634 104.795 58.1556 104.828 58.0893C104.754 58.083 104.69 58.0955 104.665 58.1774Z" fill="#146087"/>
<path d="M106.078 56.5854C106.053 56.5831 106.03 56.5893 106.008 56.6032C106.048 56.6579 106.068 56.6402 106.078 56.5854Z" fill="#146087"/>
<path d="M68.4088 48.1211C67.8251 48.5868 67.974 49.4627 68.6836 49.8426C68.4246 49.2794 68.3375 48.7436 68.4088 48.1211Z" fill="#171818"/>
<path d="M101.75 47.2688C101.754 47.3226 101.77 47.3686 101.833 47.3764C101.913 47.3858 101.955 47.3445 101.953 47.2688C101.952 47.2087 101.906 47.1768 101.852 47.1768C101.797 47.1768 101.757 47.2087 101.75 47.2688Z" fill="#1C8BBB"/>
<path d="M110.349 31.8105C110.365 31.8522 110.386 31.8884 110.441 31.88C110.411 31.8568 110.38 31.8337 110.349 31.8105Z" fill="#6EC0DF"/>
</g>
<defs>
<clipPath id="clip0_2332_102239">
<rect width="187" height="122" fill="white" transform="translate(8 51)"/>
</clipPath>
<clipPath id="clip1_2332_102239">
<rect width="56.5105" height="57.9595" fill="white" transform="matrix(-1 0 0 1 118.055 2)"/>
</clipPath>
</defs>
</svg>
