<svg width="416" height="374" viewBox="0 0 416 374" fill="none" xmlns="http://www.w3.org/2000/svg">
<g clip-path="url(#clip0_2362_36271)">
<path d="M231.095 264.387H229.023" stroke="#303030" stroke-width="1.5" stroke-linecap="round" stroke-linejoin="round"/>
<path d="M153.772 259.945C172.556 241.048 172.449 210.518 153.533 191.753C134.618 172.988 104.057 173.095 85.2729 191.991C66.489 210.888 66.5957 241.418 85.5111 260.183C104.427 278.948 134.988 278.841 153.772 259.945Z" fill="#062B6B" stroke="#303030" stroke-width="1.5" stroke-linecap="round" stroke-linejoin="round"/>
<path d="M160.972 259.733C179.627 240.71 179.312 210.181 160.269 191.545C141.226 172.909 110.666 173.223 92.0116 192.247C73.357 211.271 73.6717 241.8 92.7145 260.435C111.757 279.071 142.317 278.757 160.972 259.733Z" fill="#258BC0" stroke="#303030" stroke-width="1.5" stroke-linecap="round" stroke-linejoin="round"/>
<path d="M150.13 249.594C163.186 236.552 163.186 215.405 150.13 202.363C137.074 189.32 115.907 189.32 102.851 202.363C89.7948 215.405 89.7948 236.552 102.851 249.594C115.907 262.637 137.074 262.637 150.13 249.594Z" fill="#062B6B" stroke="#303030" stroke-width="1.5" stroke-linecap="round" stroke-linejoin="round"/>
<path d="M137.528 236.488C143.344 230.404 143.122 220.761 137.031 214.951C130.941 209.141 121.289 209.363 115.472 215.447C109.656 221.532 109.879 231.174 115.969 236.984C122.06 242.795 131.712 242.572 137.528 236.488Z" fill="#D1EAFF"/>
<path d="M132.635 225.978C132.635 229.36 129.883 232.109 126.497 232.109C123.112 232.109 120.359 229.36 120.359 225.978C120.359 222.596 123.112 219.846 126.497 219.846C129.883 219.846 132.635 222.596 132.635 225.978Z" fill="#062B6B"/>
<path d="M128.682 235.233C116.858 238.442 111.286 221.753 122.276 216.704C127.762 214.117 134.964 217.748 135.77 223.794C133.516 216.215 123.082 214.625 119.015 221.351C114.796 227.98 120.886 236.612 128.682 235.233Z" fill="#062B6B"/>
<path d="M124.867 229.016C125.193 229.303 125.52 229.533 125.894 229.734C126.958 230.299 128.166 230.453 129.327 230.213C144.7 226.908 169.136 216.963 177.451 213.466L174.334 190.693C156.323 206.798 134.918 217.318 126.383 220.518V220.537C125.692 220.815 125.03 221.236 124.484 221.84C122.614 223.919 122.786 227.138 124.877 229.016H124.867Z" fill="white" stroke="#303030" stroke-width="1.5" stroke-linecap="round" stroke-linejoin="round"/>
<path d="M129.968 225.394C129.968 226.467 129.095 227.349 128.011 227.349C126.927 227.349 126.055 226.477 126.055 225.394C126.055 224.312 126.927 223.44 128.011 223.44C129.095 223.44 129.968 224.312 129.968 225.394Z" fill="#303030"/>
<path d="M382.398 259.744C401.052 240.72 400.738 210.191 381.695 191.556C362.652 172.92 332.092 173.234 313.437 192.258C294.783 211.281 295.097 241.81 314.14 260.446C333.183 279.082 363.743 278.768 382.398 259.744Z" fill="#062B6B" stroke="#303030" stroke-width="1.5" stroke-linecap="round" stroke-linejoin="round"/>
<path d="M389.127 259.932C407.911 241.036 407.804 210.505 388.889 191.74C369.973 172.976 339.412 173.082 320.628 191.979C301.844 210.875 301.951 241.405 320.867 260.17C339.782 278.935 370.343 278.828 389.127 259.932Z" fill="#258BC0" stroke="#303030" stroke-width="1.5" stroke-linecap="round" stroke-linejoin="round"/>
<path d="M378.286 249.818C391.471 236.906 391.682 215.76 378.756 202.589C365.831 189.417 344.664 189.206 331.479 202.119C318.294 215.031 318.084 236.176 331.009 249.348C343.934 262.52 365.101 262.73 378.286 249.818Z" fill="#062B6B" stroke="#303030" stroke-width="1.5" stroke-linecap="round" stroke-linejoin="round"/>
<path d="M365.776 236.619C371.668 230.607 371.565 220.962 365.547 215.077C359.529 209.192 349.875 209.294 343.983 215.306C338.092 221.318 338.195 230.963 344.213 236.848C350.231 242.733 359.885 242.631 365.776 236.619Z" fill="#D1EAFF"/>
<path d="M361.026 225.978C361.026 229.36 358.273 232.11 354.888 232.11C351.502 232.11 348.75 229.36 348.75 225.978C348.75 222.596 351.502 219.847 354.888 219.847C358.273 219.847 361.026 222.596 361.026 225.978Z" fill="#062B6B"/>
<path d="M357.073 235.233C345.248 238.443 339.676 221.753 350.667 216.704C356.152 214.118 363.355 217.749 364.16 223.794C361.907 216.216 351.472 214.625 347.406 221.351C343.186 227.981 349.276 236.613 357.073 235.233Z" fill="#062B6B"/>
<path d="M355.666 230.338C355.244 230.434 354.841 230.491 354.429 230.491C353.22 230.491 352.079 230.06 351.178 229.303C339.161 219.167 322.263 198.923 316.566 191.939L330.031 173.305C338.365 195.982 352.309 215.306 358.342 222.137L358.322 222.156C358.812 222.721 359.195 223.411 359.397 224.197C360.068 226.908 358.409 229.677 355.676 230.338H355.666Z" fill="white" stroke="#303030" stroke-width="1.5" stroke-linecap="round" stroke-linejoin="round"/>
<path d="M356.405 225.394C356.405 226.467 355.532 227.349 354.449 227.349C353.365 227.349 352.492 226.477 352.492 225.394C352.492 224.312 353.365 223.44 354.449 223.44C355.532 223.44 356.405 224.312 356.405 225.394Z" fill="#303030"/>
<path d="M307.071 203.215C309.593 205.495 313.535 205.122 315.559 202.391C323.355 191.853 335.286 184.121 349.92 184.121C362.359 184.121 369.878 186.373 373.234 187.704C374.673 188.27 376.274 188.231 377.694 187.589L383.966 184.773C387.61 183.134 388.531 178.392 385.759 175.518C380.235 169.808 370.165 162.306 355.732 162.91C336.168 163.714 323.681 168.716 312.653 184.274C309.718 188.413 307.436 192.571 305.681 196.614C304.693 198.894 305.239 201.539 307.081 203.215H307.071Z" fill="#156BA8"/>
<path d="M339.179 165.123C328.438 167.911 320.19 173.611 312.633 184.284C309.699 188.423 307.416 192.581 305.661 196.624C304.673 198.904 305.22 201.548 307.061 203.225C307.752 203.848 308.538 204.25 309.372 204.49L339.169 165.123H339.179Z" fill="#062B6B"/>
<path d="M356.98 167.825C365.046 166.915 376.688 172.04 382.51 178.651" stroke="white" stroke-width="1.5" stroke-linecap="round" stroke-linejoin="round"/>
<path d="M301.679 95.041L298.888 88.9573C297.91 86.8208 295.397 85.8628 293.239 86.7921L283.381 91.0267C281.185 91.9752 280.178 94.514 281.117 96.708L284.829 105.34L329.558 106.576V99.1989C329.558 99.1989 322.317 95.0889 301.689 95.0601L301.679 95.041Z" fill="#062B6B" stroke="#303030" stroke-width="1.5" stroke-linecap="round" stroke-linejoin="round"/>
<path d="M305.38 89.9346L303.75 98.126C307.653 98.193 311.365 98.6242 314.865 99.4864L317.301 90.222C313.12 90.2507 308.862 90.3849 305.38 89.9346Z" fill="#062B6B"/>
<path d="M284.565 74.1539L280.676 75.8384L288.05 92.8294L291.939 91.1449L284.565 74.1539Z" fill="#062B6B" stroke="#303030" stroke-width="1.5" stroke-linecap="round" stroke-linejoin="round"/>
<path d="M91.3184 149.794L80.7979 144.554L76.3672 158.216L82.3515 159.097L91.3184 149.794Z" fill="#303030" stroke="#303030" stroke-width="1.5" stroke-linecap="round" stroke-linejoin="round"/>
<path d="M72.177 151.978L73.7882 147.035C74.5938 144.553 77.3078 143.25 79.7533 144.161L80.8178 144.553L76.3775 158.215L74.939 157.679C72.6373 156.826 71.429 154.306 72.1866 151.978H72.177Z" fill="#FF4C51" stroke="#303030" stroke-width="1.5" stroke-linecap="round" stroke-linejoin="round"/>
<path d="M264.928 208.935H200.098V214.357H264.928V208.935Z" fill="#303030" stroke="#303030" stroke-width="1.5" stroke-linecap="round" stroke-linejoin="round"/>
<path d="M181.733 214.357L165.746 188.614L202.036 162.881V214.357H181.733Z" fill="#303030" stroke="#303030" stroke-width="1.5" stroke-linecap="round" stroke-linejoin="round"/>
<path d="M355.129 156.567L340.907 155.418C335.728 154.996 331.738 150.685 331.738 145.492C331.738 140.309 335.728 135.988 340.907 135.567L355.129 134.417C360.221 141.794 360.221 149.171 355.129 156.558V156.567Z" fill="#062B6B"/>
<path d="M353.633 154.192C357.633 148.395 357.633 142.599 353.633 136.812C351.044 142.609 351.044 148.405 353.633 154.192Z" fill="white"/>
<path d="M81.9385 179.83L82.4246 180.172C83.1852 180.708 83.3683 181.762 82.8326 182.522L62.9123 210.774C62.3766 211.534 61.3209 211.717 60.5604 211.182L60.0743 210.84C59.3137 210.304 59.1306 209.25 59.6663 208.49L79.5866 180.238C80.1223 179.478 81.178 179.295 81.9385 179.83Z" fill="#062B6B" stroke="#303030" stroke-width="1.5" stroke-linecap="round" stroke-linejoin="round"/>
<path d="M116.102 151.145C115.699 151.145 115.287 150.972 115.008 150.647L84.7895 115.524C84.2716 114.921 84.3388 114.01 84.943 113.484C85.5471 112.966 86.4582 113.033 86.9857 113.637L117.205 148.759C117.722 149.363 117.655 150.273 117.051 150.8C116.783 151.03 116.447 151.145 116.111 151.145H116.102Z" fill="#062B6B" stroke="#303030" stroke-width="1.5" stroke-linecap="round" stroke-linejoin="round"/>
<path d="M97.5705 151.145C97.1677 151.145 96.7553 150.972 96.4772 150.647L66.2583 115.524C65.7404 114.921 65.8075 114.01 66.4117 113.484C67.0159 112.966 67.927 113.033 68.4544 113.637L98.6734 148.759C99.1912 149.363 99.1241 150.273 98.5199 150.8C98.2514 151.03 97.9157 151.145 97.5801 151.145H97.5705Z" fill="#062B6B" stroke="#303030" stroke-width="1.5" stroke-linecap="round" stroke-linejoin="round"/>
<path d="M45.5733 112.18H107.162C108.485 112.18 109.56 113.253 109.56 114.575C109.56 115.897 108.485 116.97 107.162 116.97H45.5733C44.2499 116.97 43.1758 115.897 43.1758 114.575C43.1758 113.253 44.2499 112.18 45.5733 112.18Z" fill="#062B6B" stroke="#303030" stroke-width="1.5" stroke-linecap="round" stroke-linejoin="round"/>
<path d="M111.431 112.18H28.1012C24.7254 112.18 21.9922 109.919 21.9922 107.122V48.6132C21.9922 45.8253 24.735 43.5547 28.1108 43.5547H111.441C114.816 43.5547 117.55 45.8157 117.55 48.6132V107.122C117.55 109.91 114.807 112.18 111.431 112.18Z" fill="#156BA8" stroke="#303030" stroke-width="1.5" stroke-linecap="round" stroke-linejoin="round"/>
<path d="M103.02 42.5774H35.4759C32.7427 42.5774 30.5273 40.3164 30.5273 37.5189V18.3769C30.5273 15.589 32.7523 13.3184 35.4855 13.3184H103.03C105.763 13.3184 107.978 15.5794 107.978 18.3769V37.5285C107.978 40.3164 105.753 42.587 103.02 42.587V42.5774Z" fill="#258BC0" stroke="#303030" stroke-width="1.5" stroke-linecap="round" stroke-linejoin="round"/>
<path d="M81.3164 11.7188H85.0087C87.4925 11.7188 89.5161 13.7307 89.5161 16.2216V112.928" stroke="white" stroke-width="1.5" stroke-linecap="round" stroke-linejoin="round"/>
<path d="M75.3984 11.7188H79.0907C81.5746 11.7188 83.5981 13.7307 83.5981 16.2216V112.928" stroke="white" stroke-width="1.5" stroke-linecap="round" stroke-linejoin="round"/>
<path d="M355.972 125.43L295.371 222.146C288.409 233.26 276.162 239.966 263.033 239.851L189.571 239.209C185.227 239.152 181.727 235.617 181.727 231.277V214.357H251.285C256.013 214.357 260.242 211.435 261.93 207.028L286.884 141.459C288.217 137.952 288.226 134.072 286.913 130.556L281.734 116.76C280.334 113.024 280.535 108.789 282.597 105.369C283.729 103.491 285.445 101.728 288.054 100.645C295.899 97.4168 306.736 97.7138 314.811 99.1796C322.886 100.645 326.108 102.485 326.808 100.875C327.499 99.2658 322.253 96.612 318.33 95.6923L319.203 93.9678C319.203 93.9678 330.27 96.0372 342.498 104.564C349.825 109.67 353.92 115.026 356.02 118.504C357.315 120.64 357.315 123.313 355.991 125.44L355.972 125.43Z" fill="white" stroke="#303030" stroke-width="1.5" stroke-linecap="round" stroke-linejoin="round"/>
<path d="M342.487 104.564C330.26 96.0373 317.495 92.6841 317.495 92.6841L316.996 94.7056C320.919 95.6253 328.706 98.8827 326.807 100.875C325.599 102.14 322.885 100.646 314.81 99.1797C306.735 97.7139 295.898 97.4169 288.053 100.646C285.435 101.719 283.718 103.491 282.596 105.369C282.366 105.762 282.164 106.154 281.973 106.566C297.192 113.273 310.197 119.673 321.456 133.066C330.24 143.519 336.628 153.348 331.132 165.075L355.971 125.44C357.304 123.323 357.304 120.64 356 118.504C353.89 115.026 349.795 109.68 342.478 104.574L342.487 104.564Z" fill="#258BC0" stroke="#303030" stroke-width="1.5" stroke-linecap="round" stroke-linejoin="round"/>
<path d="M310.488 101.402C318.966 104.621 328.269 110.83 337.216 120.257C348.312 116.655 352.484 113.608 352.484 113.608" stroke="#303030" stroke-width="1.5" stroke-linecap="round" stroke-linejoin="round"/>
<path d="M295.427 105.321C295.427 106.068 294.823 106.671 294.075 106.671C293.327 106.671 292.723 106.068 292.723 105.321C292.723 104.573 293.327 103.97 294.075 103.97C294.823 103.97 295.427 104.573 295.427 105.321Z" fill="#303030" stroke="#303030" stroke-width="1.5" stroke-linecap="round" stroke-linejoin="round"/>
<path d="M303.462 105.321C303.462 106.068 302.858 106.671 302.11 106.671C301.362 106.671 300.758 106.068 300.758 105.321C300.758 104.573 301.362 103.97 302.11 103.97C302.858 103.97 303.462 104.573 303.462 105.321Z" fill="#303030" stroke="#303030" stroke-width="1.5" stroke-linecap="round" stroke-linejoin="round"/>
<path d="M309.737 134.436C321.466 151.145 317.477 160.792 311.416 167.719C302.612 177.779 287.469 192.59 287.469 192.59" stroke="#303030" stroke-width="1.5" stroke-linecap="round" stroke-linejoin="round"/>
<path d="M353.382 121.512C351.272 118.034 347.177 112.688 339.859 107.582C337.05 105.628 334.307 104.008 331.746 102.677" stroke="white" stroke-width="1.5" stroke-linecap="round" stroke-linejoin="round"/>
<path d="M62.0896 181.783L131.983 208.436C134.343 209.337 136.999 209.002 139.061 207.536L202.04 162.871C205.061 160.725 206.682 157.104 206.27 153.425L206.126 152.141C205.608 147.552 202.06 143.882 197.485 143.212L128.099 132.98C119.602 131.725 110.952 133.89 104.047 138.996L68.352 165.41C67.2875 166.196 67.2204 167.767 68.2178 168.639L70.3947 170.555L61.4662 177.165C59.7783 178.411 60.1427 181.036 62.0992 181.783H62.0896Z" fill="white" stroke="#303030" stroke-width="1.5" stroke-linecap="round" stroke-linejoin="round"/>
<path d="M73.4648 176.361L137.777 200.878" stroke="#303030" stroke-width="1.5" stroke-linecap="round" stroke-linejoin="round"/>
<path d="M206.124 152.141C205.606 147.552 202.057 143.882 197.483 143.212L128.097 132.98C119.6 131.725 110.95 133.89 104.045 138.996L68.35 165.41C67.2855 166.196 67.2184 167.767 68.2157 168.639L70.3927 170.555L102.654 146.69C104.908 145.023 107.565 143.988 110.346 143.691C112.753 143.432 115.17 143.739 117.443 144.572C125.239 147.446 144.267 154.479 153.416 157.889C177.823 166.991 176.164 181.218 162.824 190.674L202.048 162.862C205.078 160.716 206.69 157.094 206.277 153.415L206.133 152.131L206.124 152.141Z" fill="#258BC0" stroke="#303030" stroke-width="1.5" stroke-linecap="round" stroke-linejoin="round"/>
<path d="M108.633 130.106L208.228 144.793C211.412 145.262 214.27 142.8 214.27 139.59V124.903C214.27 122 211.91 119.644 209.004 119.644H109.41C106.504 119.644 104.145 122 104.145 124.903C104.145 127.509 106.063 129.732 108.642 130.106H108.633Z" fill="#062B6B" stroke="#303030" stroke-width="1.5" stroke-linecap="round" stroke-linejoin="round"/>
<path d="M124.512 138.44L195.345 148.883" stroke="white" stroke-width="1.5" stroke-linecap="round" stroke-linejoin="round"/>
<path d="M154.512 151.997C172.935 155.178 189.315 157.899 192.95 158.809C196.584 159.719 199.701 164.519 192.95 169.261" stroke="#303030" stroke-width="1.5" stroke-linecap="round" stroke-linejoin="round"/>
<path d="M306.879 58.309C294.565 58.8647 284.169 62.0358 284.294 75.3624C284.419 88.6794 298.305 89.944 309.363 90.174C323.298 90.471 331.449 89.398 336.014 85.1538C341.011 80.5168 337.424 68.6752 330.222 63.4921C324.372 59.2862 316.824 57.8587 306.879 58.309Z" fill="#258BC0" stroke="#303030" stroke-width="1.5" stroke-linecap="round" stroke-linejoin="round"/>
<path d="M323.604 60.1196C323.019 60.3687 322.491 60.6945 322.06 61.1352C320.842 62.3615 320.688 64.3447 321.177 66.0021C322.904 71.8175 329.377 76.9335 328.159 83.4579C327.68 86.0543 325.694 88.1811 323.393 89.4745C323.163 89.6087 322.923 89.7236 322.693 89.8386C328.898 89.2254 333.156 87.8075 336.014 85.1537C341.01 80.5167 337.423 68.6751 330.221 63.492C328.226 62.0549 326.021 60.9531 323.594 60.1292L323.604 60.1196Z" fill="white" stroke="#303030" stroke-width="1.5" stroke-linecap="round" stroke-linejoin="round"/>
<path d="M291.707 66.0884C298.545 62.3903 306.62 61.0394 314.292 62.3136C314.647 62.3711 315.021 62.4478 315.261 62.7064C315.51 62.9651 315.635 63.3388 315.635 63.7028C315.635 70.2751 317.927 71.6547 321.264 76.8474C323.115 79.7311 323.115 82.4616 320.919 84.6076" stroke="#303030" stroke-width="1.5" stroke-linecap="round" stroke-linejoin="round"/>
<path d="M181.735 225.394C187.837 225.394 192.783 220.453 192.783 214.357C192.783 208.262 187.837 203.32 181.735 203.32C175.634 203.32 170.688 208.262 170.688 214.357C170.688 220.453 175.634 225.394 181.735 225.394Z" fill="white" stroke="#303030" stroke-width="1.5" stroke-linecap="round" stroke-linejoin="round"/>
<path d="M187.172 214.357C187.172 217.356 184.736 219.789 181.735 219.789C178.733 219.789 176.297 217.356 176.297 214.357C176.297 211.358 178.733 208.925 181.735 208.925C184.736 208.925 187.172 211.358 187.172 214.357Z" fill="#F55571" stroke="#F55571" stroke-width="1.5" stroke-linecap="round" stroke-linejoin="round"/>
<path d="M105.62 145.895C110.483 145.895 114.424 141.957 114.424 137.1C114.424 132.242 110.483 128.305 105.62 128.305C100.758 128.305 96.8164 132.242 96.8164 137.1C96.8164 141.957 100.758 145.895 105.62 145.895Z" fill="white" stroke="#303030" stroke-width="1.5" stroke-linecap="round" stroke-linejoin="round"/>
<path d="M109.955 137.1C109.955 139.495 108.018 141.43 105.62 141.43C103.222 141.43 101.285 139.495 101.285 137.1C101.285 134.705 103.222 132.77 105.62 132.77C108.018 132.77 109.955 134.705 109.955 137.1Z" fill="#258BC0" stroke="#062B6B" stroke-width="1.5" stroke-linecap="round" stroke-linejoin="round"/>
<path d="M270.625 77.9111V72.0574H290.755C292.126 72.0574 293.248 73.1688 293.248 74.5484V75.4202C293.248 76.7902 292.136 77.9111 290.755 77.9111H270.625Z" fill="#062B6B" stroke="#303030" stroke-width="1.5" stroke-linecap="round" stroke-linejoin="round"/>
<path d="M270.318 67.1611H269.723C268.802 67.1611 268.055 67.9075 268.055 68.8282V81.1296C268.055 82.0503 268.802 82.7966 269.723 82.7966H270.318C271.24 82.7966 271.987 82.0503 271.987 81.1296V68.8282C271.987 67.9075 271.24 67.1611 270.318 67.1611Z" fill="#156BA8"/>
<path d="M247.312 70.7446H268.056V79.2234H247.312C246.286 79.2234 245.461 78.3995 245.461 77.3744V72.5937C245.461 71.5686 246.286 70.7446 247.312 70.7446Z" fill="#156BA8"/>
<path d="M268.055 70.7446V79.2139" stroke="#303030" stroke-width="1.5" stroke-linecap="round" stroke-linejoin="round"/>
<path d="M281.932 53.375C285.347 58.3952 283.87 64.613 279.094 74.1457" stroke="#303030" stroke-width="1.5" stroke-linecap="round" stroke-linejoin="round"/>
<path d="M277.11 45.5476C276.918 45.8734 276.764 46.1991 276.63 46.5153C275.7 48.6996 275.019 51.2097 274.731 53.5761C274.29 57.1114 276.352 60.0335 279.526 56.9006C282.173 54.2947 289.443 42.4148 282.566 41.8304C280.284 41.6387 278.241 43.6028 277.119 45.5476H277.11Z" fill="#303030" stroke="#303030" stroke-width="1.5" stroke-linecap="round" stroke-linejoin="round"/>
</g>
<path d="M259.792 239.03L141.102 307.712L238.301 363.885L356.991 295.203L259.792 239.03Z" fill="#263238"/>
<path d="M259.793 150.357V239.03L356.968 295.215V206.518L259.793 150.369V150.357Z" fill="#37474F"/>
<path d="M141.125 219.028V307.724L259.791 239.042V150.357L141.125 219.028ZM207.367 204.005L193.526 211.994C190.673 213.646 188.339 212.466 188.339 209.374C188.339 206.282 190.673 202.376 193.526 200.712L207.367 192.723C210.255 191.071 212.577 192.251 212.577 195.343C212.577 198.435 210.255 202.341 207.367 204.005Z" fill="#455A64"/>
<path d="M335.516 281.786L332.074 283.45L268.379 246.631L271.821 244.979L335.516 281.786Z" fill="#062B6B"/>
<path d="M271.82 244.978L332.415 279.992L341.221 189.254L280.627 154.264L271.82 244.978Z" fill="#FAFAFA"/>
<path d="M261.895 249.663L337.308 293.245L347.705 186.233L272.292 142.652L261.895 249.663ZM277.527 152.447L341.222 189.266L332.073 283.462L268.378 246.642L277.527 152.458V152.447Z" fill="#BA68C8"/>
<path d="M261.895 249.663L337.308 293.245L347.705 186.233L272.292 142.652L261.895 249.663ZM277.527 152.447L341.222 189.266L332.073 283.462L268.378 246.642L277.527 152.458V152.447Z" fill="#BA68C8"/>
<path d="M261.895 249.663L337.308 293.245L347.705 186.233L272.292 142.652L261.895 249.663ZM277.527 152.447L341.222 189.266L332.073 283.462L268.378 246.642L277.527 152.458V152.447Z" fill="#258BC0"/>
<path d="M268.379 246.63L271.821 244.978L280.628 154.264L277.527 152.446L268.379 246.63Z" fill="#156BA8"/>
<path d="M272.293 142.652L275.853 140.657L351.266 184.25L347.706 186.233L272.293 142.652Z" fill="#BA68C8"/>
<path d="M272.293 142.652L275.853 140.657L351.266 184.25L347.706 186.233L272.293 142.652Z" fill="#91CBE9"/>
<path d="M351.267 184.25L347.706 186.233L337.309 293.244L340.869 291.262L351.267 184.25Z" fill="#91CBE9"/>
<path d="M317.077 184.18C317.218 184.262 317.372 184.333 317.537 184.392C318.81 184.876 320.095 185.206 321.309 185.855C322.712 186.611 323.938 187.625 325.129 188.688C326.437 189.856 327.711 191.107 328.536 192.641C329.231 193.951 329.585 195.426 329.738 196.901C330.174 201.09 328.913 205.646 325.671 208.324C325.541 208.431 325.412 208.537 325.388 208.702C325.365 208.879 325.471 209.033 325.565 209.174C326.932 211.228 326.343 213.977 325.612 216.326C325.341 217.187 325.046 218.072 324.516 218.804C323.667 219.972 321.946 220.68 320.578 221.022C317.218 221.872 313.599 221.648 310.369 220.373C310.004 220.232 309.579 220.066 309.226 220.243C309.025 220.338 308.884 220.527 308.742 220.704C306.962 223.029 305.064 225.306 303.473 227.761C302.919 228.622 301.858 229.318 301.091 229.979C299.83 231.065 299.512 229.92 298.851 228.728C292.509 217.281 288.796 204.1 291.012 191.001C291.884 185.855 293.476 179.023 298.769 176.674C302.86 174.857 306.998 176.167 310.499 178.61C312.291 179.86 313.906 181.336 315.486 182.834C316.04 183.365 316.499 183.837 317.077 184.156V184.18Z" fill="#37474F"/>
<path d="M290.207 236.47C285.798 236.352 282.474 235.667 279.739 236.033C277.016 236.399 274.87 237.91 274.375 243.078L330.667 275.602C330.926 269.466 329.511 264.568 325.916 260.721C321.802 256.343 316.909 251.493 316.909 251.493L290.644 236.364" fill="#91CBE9"/>
<path opacity="0.2" d="M279.683 236.117C281.02 235.931 282.506 235.997 284.168 236.117C287.59 242.178 286.953 251.988 286.953 252.001L274 244.052C274.525 238.23 276.798 236.529 279.683 236.117Z" fill="black"/>
<path opacity="0.2" d="M323.098 257.983L323.463 258.172C324.277 259.022 325.114 259.883 325.903 260.745C329.511 264.58 330.914 269.478 330.654 275.626L324.206 271.897C324.395 267.837 324.418 261.477 323.086 257.995L323.098 257.983Z" fill="black"/>
<path d="M317.431 192.57C321.77 196.653 323.243 206.614 322.453 212.066C321.652 217.518 321.888 224.964 319.919 229.944C317.95 234.924 315.109 236.364 312.15 234.794C312.15 234.794 312.044 235.88 311.82 238.205C311.596 240.53 310.7 244.164 312.881 246.808C315.062 249.451 316.889 251.493 316.889 251.493C316.889 251.493 319.247 264.509 306.821 257.322C294.396 250.136 290.199 236.458 290.199 236.458C293.311 236.482 293.889 236.777 295.316 235.668C296.494 234.747 296.73 231.75 297.155 227.454C297.567 223.147 298.428 214.166 298.428 214.166C296.129 214.19 293.866 210.614 293.689 205.752C293.5 200.89 293.913 197.999 296.412 197.727C298.911 197.456 300.408 200.796 300.255 203.085C300.102 205.374 300.42 206.165 301.458 206.767C302.507 207.369 303.249 206.13 303.462 203.97C303.674 201.799 303.756 200.571 304.098 197.043C310.629 198.919 314.803 198.837 317.42 192.57H317.431Z" fill="#BA68C8"/>
<path d="M317.431 192.57C321.77 196.653 323.243 206.614 322.453 212.066C321.652 217.518 321.888 224.964 319.919 229.944C317.95 234.924 315.109 236.364 312.15 234.794C312.15 234.794 312.044 235.88 311.82 238.205C311.596 240.53 310.7 244.164 312.881 246.808C315.062 249.451 316.889 251.493 316.889 251.493C316.889 251.493 319.247 264.509 306.821 257.322C294.396 250.136 290.199 236.458 290.199 236.458C293.311 236.482 293.889 236.777 295.316 235.668C296.494 234.747 296.73 231.75 297.155 227.454C297.567 223.147 298.428 214.166 298.428 214.166C296.129 214.19 293.866 210.614 293.689 205.752C293.5 200.89 293.913 197.999 296.412 197.727C298.911 197.456 300.408 200.796 300.255 203.085C300.102 205.374 300.42 206.165 301.458 206.767C302.507 207.369 303.249 206.13 303.462 203.97C303.674 201.799 303.756 200.571 304.098 197.043C310.629 198.919 314.803 198.837 317.42 192.57H317.431Z" fill="#D4EFFD"/>
<path d="M312.15 234.795C307.918 232.34 301.799 226.121 300.267 217.73C300.184 225.519 305.418 233.933 311.879 237.662L312.15 234.795Z" fill="#062B6B"/>
<path d="M313.943 209.222L313.023 222.58L318.01 223.17L313.943 209.222Z" fill="#062B6B"/>
<path d="M308.283 220.315C308.472 220.751 308.614 221.211 308.814 221.648C309.014 222.085 309.238 222.498 309.486 222.864C309.722 223.218 309.969 223.536 310.24 223.819C310.512 224.103 310.736 224.469 311.007 224.716C311.136 224.834 311.089 225.212 310.96 225.153C310.594 225 310.24 224.893 309.899 224.539C309.592 224.232 309.309 223.89 309.038 223.501C308.767 223.111 308.531 222.698 308.307 222.25C308.083 221.79 307.859 221.294 307.741 220.775C307.659 220.35 308.071 219.772 308.295 220.291L308.283 220.315Z" fill="#062B6B"/>
<path d="M306.316 203.852C306.894 202.967 307.648 202.554 308.532 202.495C309.475 202.424 310.466 202.695 311.432 203.309C311.739 203.51 312.022 203.958 311.927 204.442C311.833 204.879 311.42 205.126 311.09 204.902C310.383 204.407 309.629 204.1 308.909 203.994C308.025 203.864 307.212 204.123 306.375 204.23C306.257 204.241 306.281 203.911 306.328 203.852H306.316Z" fill="#263238"/>
<path d="M318.645 209.009C318.314 208.855 317.984 208.171 317.984 207.675C317.984 207.121 318.314 207.026 318.633 207.192C319.611 207.699 320.543 208.549 321.38 209.646C321.828 210.236 322.205 210.873 322.523 211.581C322.499 211.735 322.488 211.912 322.464 212.054C322.441 212.254 322.417 212.478 322.393 212.679C321.875 211.924 321.356 211.18 320.778 210.567C320.118 209.87 319.387 209.328 318.656 208.985L318.645 209.009Z" fill="#263238"/>
<path d="M341.223 252.861L344.818 250.607L346.209 236.363L342.649 238.299L341.223 252.861Z" fill="black"/>
<path d="M149.587 298.378C149.103 298.107 148.691 297.434 148.655 296.867L140.002 168.968C139.967 168.402 140.344 167.729 140.863 167.469L218.681 122L220.402 122.956L229.232 252.885L151.39 298.378C150.883 298.638 150.082 298.638 149.598 298.378H149.587Z" fill="#455A64"/>
<path d="M220.401 122.968L142.583 168.425C142.312 168.555 142.1 168.815 141.946 169.074C141.781 169.358 141.687 169.641 141.711 169.936L150.387 297.835C150.423 298.402 150.871 298.649 151.389 298.39L229.231 252.897L220.401 122.98V122.968Z" fill="#37474F"/>
<path d="M220.402 122.968L218.681 122.012L140.863 167.469C140.592 167.599 140.38 167.859 140.238 168.118L141.959 169.074C142.113 168.815 142.313 168.567 142.596 168.425L220.414 122.968H220.402Z" fill="#263238"/>
<path d="M219.129 123.604L227.923 253.557L250.629 266.196L241.563 136.102L219.129 123.604Z" fill="#455A64"/>
<path d="M162.331 304.243C161.694 304.573 160.609 304.526 159.926 304.137L155.328 301.576C154.644 301.198 154.043 300.313 153.996 299.605L145.378 172.213C145.331 171.505 145.814 170.667 146.451 170.349L214.72 133.093L221.805 137.034L230.623 266.963L162.319 304.243H162.331Z" fill="#EBEBEB"/>
<path d="M230.636 266.963L162.331 304.243C161.695 304.573 161.141 304.255 161.082 303.547L152.464 176.155C152.417 175.446 152.9 174.609 153.537 174.29L221.806 137.034L230.624 266.963H230.636Z" fill="#FAFAFA"/>
<path d="M217.078 143.985C217.078 143.726 217.102 143.478 217.184 143.207C217.29 142.817 217.503 142.439 217.786 142.203C217.88 142.097 217.974 142.026 218.104 141.967C218.717 141.625 219.283 142.026 219.33 142.829C219.342 143.171 219.271 143.561 219.118 143.891C218.941 144.316 218.646 144.67 218.292 144.847C218.245 144.87 218.198 144.906 218.139 144.894C217.573 145.106 217.114 144.741 217.066 143.985H217.078Z" fill="#263238"/>
<path d="M152.77 175.093L145.673 171.139C145.472 171.481 145.354 171.871 145.378 172.225L153.984 299.605C154.031 300.313 154.644 301.198 155.316 301.576L159.925 304.137C160.503 304.455 161.364 304.538 162 304.349C161.517 304.455 161.128 304.148 161.081 303.547L152.475 176.166C152.451 175.812 152.546 175.411 152.77 175.081V175.093Z" fill="#E6E6E6"/>
<path d="M232.628 139.465C232.746 140.988 231.874 142.309 230.153 143.183C227.264 144.658 222.525 144.67 218.104 143.442C218.293 142.935 218.517 142.321 218.611 142.05C222.561 143.1 226.769 143.112 229.245 141.849C229.799 141.566 230.4 141.153 230.742 140.563C230.931 140.232 231.037 139.855 231.001 139.418C230.884 138.002 229.327 136.385 226.84 135.087C222.065 132.585 215.417 131.96 212.01 133.695C211.361 134.025 210.63 134.544 210.359 135.311L208.638 136.197C208.638 136.197 208.638 136.114 208.638 136.079C208.579 135.394 208.721 134.757 209.062 134.179C209.475 133.459 210.159 132.845 211.114 132.361C215.004 130.379 222.219 131.016 227.536 133.801C230.612 135.406 232.475 137.483 232.64 139.477L232.628 139.465Z" fill="#263238"/>
<path d="M164.005 306.403C163.521 306.131 163.109 305.459 163.073 304.892L154.42 176.993C154.385 176.426 154.762 175.754 155.281 175.494L241.28 134.58L243.002 135.536L251.831 265.465L165.808 306.403C165.301 306.662 164.5 306.662 164.016 306.403H164.005Z" fill="#37474F"/>
<path d="M243.001 135.548L157.001 176.45C156.73 176.58 156.518 176.84 156.364 177.099C156.199 177.382 156.105 177.666 156.129 177.961L164.805 305.86C164.841 306.427 165.289 306.674 165.795 306.415L251.819 265.465L242.989 135.548H243.001Z" fill="#455A64"/>
<path d="M243.002 135.548L241.281 134.592L155.293 175.494C155.022 175.624 154.81 175.884 154.656 176.143L156.377 177.099C156.531 176.839 156.731 176.592 157.014 176.45L243.014 135.548H243.002Z" fill="#263238"/>
<path d="M220.402 122.968L242.954 135.524L241.563 136.102L219.129 123.605L220.402 122.968Z" fill="#263238"/>
<path d="M241.95 138.167C242.539 137.872 243.081 137.861 243.494 138.097C243.907 138.333 245.25 139.076 245.25 139.076L252.736 264.662C252.819 265.961 251.946 267.507 250.768 268.097L168.564 309.884L159.77 179.931L241.938 138.167H241.95Z" fill="#156BA8"/>
<path d="M243.66 139.123C244.839 138.521 245.865 139.1 245.947 140.398L254.447 265.618C254.53 266.916 253.657 268.462 252.479 269.052L170.275 310.84L161.48 180.887L243.649 139.123H243.66Z" fill="#BA68C8"/>
<path d="M243.66 139.123C244.839 138.521 245.865 139.1 245.947 140.398L254.447 265.618C254.53 266.916 253.657 268.462 252.479 269.052L170.275 310.84L161.48 180.887L243.649 139.123H243.66Z" fill="#062B6B"/>
<path d="M190.585 301.978L251.428 271.035C252.607 270.433 253.479 268.899 253.396 267.601L245.427 150.169L253.385 146.169L244.649 141.307L244.496 141.378C244.083 140.87 243.388 140.705 242.61 141.106L172.926 176.545L181.72 306.497L191.257 311.808L190.597 301.989L190.585 301.978Z" fill="#EBEBEB"/>
<path d="M252.137 146.417C253.316 145.815 254.342 146.393 254.424 147.691L262.924 272.912C263.018 274.21 262.134 275.756 260.955 276.346L191.236 311.796L182.441 181.843L252.125 146.405L252.137 146.417Z" fill="#FAFAFA"/>
<path d="M182.455 181.855L172.918 176.545L181.712 306.498L191.25 311.808L182.455 181.855Z" fill="#E6E6E6"/>
<path d="M185.66 184.841C185.66 184.581 185.684 184.333 185.778 184.062C185.884 183.673 186.096 183.295 186.379 183.059C186.474 182.953 186.568 182.882 186.698 182.823C187.311 182.481 187.876 182.882 187.924 183.684C187.935 184.027 187.865 184.416 187.711 184.746C187.535 185.171 187.24 185.525 186.886 185.702C186.839 185.726 186.792 185.761 186.733 185.75C186.167 185.95 185.707 185.596 185.66 184.841Z" fill="#263238"/>
<path d="M185.423 189.892C186.449 189.361 187.18 188.723 187.628 187.944C188.205 186.93 188.217 185.808 187.71 184.746C187.451 184.156 186.991 183.578 186.378 183.059C186.095 183.295 185.883 183.672 185.777 184.062C186.343 184.605 186.673 185.183 186.743 185.749C186.991 186.906 186.307 188.039 184.728 188.841C181.828 190.316 176.912 190.092 173.799 188.357C170.687 186.623 170.475 184.05 173.328 182.54L173.245 181.206C173.057 181.277 172.868 181.395 172.703 181.477C171.689 181.985 170.946 182.646 170.51 183.401V183.425C169.933 184.416 169.909 185.561 170.44 186.635C170.935 187.673 171.89 188.594 173.233 189.349C176.782 191.32 182.146 191.556 185.423 189.88V189.892Z" fill="#263238"/>
<path d="M183.655 191.909L258.714 146.558L257.465 145.861C256.828 145.507 255.838 145.472 255.26 145.767L181.922 190.941L183.655 191.909Z" fill="#156BA8"/>
<path d="M257.183 146.641C258.362 146.039 259.387 146.617 259.47 147.915L267.969 273.136C268.064 274.434 267.18 275.98 266.001 276.57L191.236 322.5L182.441 192.547L257.171 146.641H257.183Z" fill="#BA68C8"/>
<path d="M257.183 146.641C258.362 146.039 259.387 146.617 259.47 147.915L267.969 273.136C268.064 274.434 267.18 275.98 266.001 276.57L191.236 322.5L182.441 192.547L257.171 146.641H257.183Z" fill="#91CBE9"/>
<path d="M159.77 179.931L168.564 309.872L191.269 322.523L182.439 192.546L159.77 179.931Z" fill="#BA68C8"/>
<path d="M159.77 179.931L168.564 309.872L191.269 322.523L182.439 192.546L159.77 179.931Z" fill="#258BC0"/>
<path d="M165.682 203.155C166.248 202.164 167.239 201.551 168.453 201.433C169.608 201.326 170.917 201.657 172.249 202.4C175.797 204.371 178.768 208.785 179.016 212.443C179.086 213.564 178.91 214.532 178.462 215.299C177.318 217.305 174.677 217.612 171.895 216.054C168.347 214.083 165.376 209.67 165.128 206.011C165.058 204.89 165.234 203.923 165.682 203.155Z" fill="#455A64"/>
<path d="M171.67 203.38C168.546 201.633 166.188 202.837 166.4 206.058C166.624 209.28 169.335 213.304 172.459 215.051C175.595 216.797 177.953 215.594 177.729 212.372C177.505 209.15 174.794 205.126 171.67 203.38Z" fill="#F5F5F5"/>
<path d="M175.317 241.533L173.608 240.577C170.166 238.665 167.584 239.975 167.82 243.515L171.51 297.611C171.745 301.152 174.74 305.565 178.17 307.489L179.891 308.445C183.334 310.356 185.915 309.046 185.68 305.506L181.99 251.41C181.754 247.87 178.771 243.456 175.329 241.533H175.317Z" fill="#F5F5F5"/>
<path d="M161.031 179.271L183.607 191.839L182.439 192.547L159.77 179.931L161.031 179.271Z" fill="#156BA8"/>
<path d="M260.518 259.765C254.187 259.765 248.269 258.36 243.883 255.823C240.005 253.581 237.859 250.772 237.859 247.928C237.859 245.084 239.993 242.276 243.883 240.033C248.281 237.496 254.187 236.092 260.529 236.092C266.872 236.092 272.778 237.496 277.175 240.033C281.054 242.276 283.199 245.084 283.199 247.928C283.199 250.772 281.065 253.581 277.175 255.823C272.778 258.36 266.872 259.765 260.529 259.765H260.518Z" fill="#263238"/>
<path d="M272.276 165.557L269.329 237.059L268.445 258.974C267.808 259.139 267.184 259.245 266.512 259.328C264.59 259.635 262.574 259.764 260.511 259.764C256.303 259.764 252.283 259.163 248.781 257.971L249.63 237.602L252.99 155.597L254.947 154.582L272.265 165.557H272.276Z" fill="#FAFAFA"/>
<path d="M270.331 166.584L267.466 236.682L266.535 259.34C264.613 259.647 262.598 259.776 260.535 259.776C256.326 259.776 252.306 259.175 248.805 257.983L249.653 237.614L253.013 155.609L270.331 166.584Z" fill="#F0F0F0"/>
<path opacity="0.25" d="M272.276 165.557L269.329 237.059L268.445 258.973C267.809 259.139 267.184 259.245 266.512 259.327L267.443 236.67L270.308 166.572L272.265 165.557H272.276Z" fill="black"/>
<path d="M251.668 258.785C249.027 258.207 246.599 257.322 244.512 256.165L242.39 240.978L237.18 203.852C238.064 204.737 240.292 205.197 242.744 204.949C243.345 204.89 243.923 204.784 244.512 204.619C246.634 204.147 248.367 203.191 248.862 202.105L253.684 236.67L254.839 244.884C254.839 244.884 254.863 244.966 254.863 244.99L256.902 259.6C256.678 259.6 256.431 259.576 256.219 259.541C254.651 259.375 253.13 259.127 251.68 258.773L251.668 258.785Z" fill="#455A64"/>
<path d="M241.962 190.693C240.264 191.13 239.663 190.776 239.663 190.776L237.188 203.84C238.543 205.775 241.832 206.188 244.626 205.374L244.544 204.725L241.974 190.682L241.962 190.693Z" fill="#FFA8A7"/>
<path d="M248.845 202.117V202.129V202.117L242.773 190.021L248.845 202.117Z" fill="#FAFAFA"/>
<path d="M242.774 190.021L241.301 187.083L242.774 190.021Z" fill="#E0E0E0"/>
<path d="M240.336 187.224L239.664 190.776C239.664 190.776 240.242 191.177 241.963 190.694L241.303 187.094C241.161 186.823 240.855 186.752 240.631 186.858C240.489 186.917 240.383 187.047 240.348 187.224H240.336Z" fill="#455A64"/>
<path opacity="0.1" d="M256.202 259.553C254.634 259.388 253.113 259.14 251.663 258.786L248.904 237.839L244.613 205.398C246.511 204.843 248.197 203.722 248.857 202.117L253.679 236.682L254.834 244.896C254.834 244.896 254.858 244.978 254.858 245.002L256.897 259.612C256.673 259.612 256.426 259.588 256.213 259.553H256.202Z" fill="black"/>
<path d="M248.846 202.129V202.117L242.763 190.021C242.574 190.328 242.291 190.576 241.949 190.694L244.519 204.737L244.602 205.386C246.5 204.831 248.174 203.71 248.834 202.129H248.846Z" fill="#F28F8F"/>
<path d="M241.961 190.694C242.385 190.599 242.739 190.198 242.774 190.021L241.301 187.083L241.961 190.682V190.694Z" fill="#37474F"/>
<path d="M282.39 205.338L282.166 206.825L281.942 208.477L281.918 208.584L281.588 211.038V211.062H281.565V211.086L281.482 211.746L281.152 214.225L281.128 214.284V214.307L277.521 240.246L275.21 256.838C273.206 257.747 270.943 258.467 268.514 258.962C266.887 259.293 265.213 259.54 263.48 259.647L266.675 236.552L270.035 212.596L270.365 210.165L270.778 207.156V207.132L270.837 206.884V206.825L271.273 203.792C271.273 203.875 271.296 203.958 271.332 204.04C271.355 204.147 271.414 204.229 271.497 204.312C271.556 204.394 271.638 204.477 271.721 204.56C271.992 204.807 272.381 204.996 272.853 205.197C273.018 205.279 273.183 205.338 273.348 205.386C274.032 205.657 274.833 205.858 275.694 206.023C275.776 206.046 275.882 206.046 275.965 206.082C276.401 206.164 276.849 206.223 277.309 206.271C277.533 206.294 277.745 206.294 277.969 206.33C278.193 206.353 278.405 206.353 278.629 206.353C279.761 206.412 280.751 206.33 281.435 206.129C281.576 206.07 281.706 206.046 281.824 205.987C281.883 205.964 281.93 205.928 281.989 205.881C282.013 205.881 282.048 205.881 282.048 205.858C282.107 205.834 282.107 205.799 282.13 205.775C282.295 205.669 282.378 205.504 282.402 205.303L282.39 205.338Z" fill="#455A64"/>
<path d="M281.624 210.944L281.164 214.224C281.058 215.18 278.948 215.511 276.578 215.393C273.431 215.239 269.894 213.882 270.035 212.62L270.377 210.2L270.507 209.339C270.377 210.602 273.902 211.97 277.05 212.124C279.313 212.23 281.364 211.935 281.6 211.062C281.6 211.062 281.624 210.991 281.624 210.956V210.944Z" fill="#EBEBEB"/>
<path d="M281.496 211.758C281.26 213.976 270.143 212.36 270.379 210.141L270.827 206.849C270.591 209.067 281.708 210.684 281.944 208.465L281.496 211.758Z" fill="#062B6B"/>
<path d="M282.378 205.35L281.93 208.595C281.717 210.778 270.978 209.315 270.777 207.167C270.777 207.132 270.777 207.085 270.777 207.037L271.249 203.769C271.06 205.987 282.154 207.557 282.366 205.338L282.378 205.35Z" fill="#EBEBEB"/>
<path opacity="0.15" d="M282.387 205.338L282.163 206.825L281.939 208.478L281.916 208.584L281.586 211.038V211.062H281.562V211.086L281.479 211.746L281.149 214.225L281.126 214.284V214.307L277.518 240.246L275.208 256.838C273.204 257.747 270.94 258.467 268.512 258.962L271.482 237.626L274.595 215.133L274.984 212.454L275.066 211.853L275.42 209.339V209.174L275.833 206.283C275.833 206.283 275.774 206.259 275.75 206.259C275.75 206.259 275.726 206.259 275.691 206.235C275.609 206.176 275.609 206.129 275.668 206.047C275.75 206.07 275.856 206.07 275.939 206.106C276.375 206.188 276.823 206.247 277.283 206.294C277.507 206.318 277.719 206.318 277.943 206.353C278.167 206.377 278.379 206.377 278.603 206.377C279.735 206.436 280.725 206.353 281.409 206.153C281.633 206.07 281.821 205.988 281.963 205.905C282.022 205.846 282.069 205.822 282.104 205.799C282.269 205.692 282.352 205.527 282.375 205.327L282.387 205.338Z" fill="black"/>
<path d="M284.287 191.578L282.377 205.35C282.283 206.294 280.196 206.636 277.85 206.53C274.702 206.389 271.154 205.043 271.26 203.781C271.26 203.781 271.26 203.777 271.26 203.769L273.17 189.962C273.559 187.212 279.229 187.318 282.389 188.935C283.579 189.537 284.358 190.422 284.287 191.59V191.578Z" fill="#91CBE9"/>
<path opacity="0.1" d="M281.08 193.643C278.298 194.009 275.009 192.971 273.724 191.295C273.252 190.681 273.123 190.068 273.276 189.525C274.16 187.212 279.383 187.389 282.377 188.923C283.544 189.513 284.31 190.375 284.275 191.507C284.122 192.546 282.966 193.384 281.08 193.632V193.643Z" fill="black"/>
<path d="M257.207 292.099H203.332L208.908 315.323C209.333 318.12 211.396 320.858 215.097 323.005C223.479 327.844 237.06 327.844 245.442 323.005C249.438 320.692 251.501 317.707 251.69 314.686L257.207 292.11V292.099Z" fill="#37474F"/>
<path d="M250.629 308.031C251.855 307.323 252.916 306.567 253.859 305.765L256.889 293.35C255.51 294.908 253.694 296.383 251.442 297.681C240.078 304.254 221.864 304.419 210.111 298.212L211.478 292.677L211.054 292.087H203.32L208.885 315.312C209.309 318.109 211.372 320.846 215.074 322.994C221.039 326.44 229.645 327.42 237.131 325.956C223.703 326.959 214.496 321.082 213.117 315.666C212.563 313.506 211.608 308.727 211.608 308.727C222.819 314.427 239.901 314.202 250.605 308.019L250.629 308.031Z" fill="#263238"/>
<path d="M260.002 285.231C259.719 286.659 259.13 288.063 258.199 289.42C256.749 291.615 254.485 293.668 251.444 295.427C239.749 302.189 220.781 302.189 209.086 295.427C206.033 293.657 203.781 291.603 202.331 289.42C201.424 288.063 200.822 286.659 200.54 285.231C199.502 280.156 202.355 274.858 209.098 270.951C220.793 264.189 239.761 264.189 251.456 270.951C258.199 274.846 261.052 280.144 260.014 285.231H260.002Z" fill="#455A64"/>
<path d="M258.21 289.42C256.76 291.615 254.497 293.668 251.455 295.427C239.76 302.189 220.792 302.189 209.098 295.427C206.044 293.656 203.793 291.603 202.343 289.42C201.435 288.063 200.834 286.658 200.551 285.23L201.883 294.376C202.496 298.058 205.231 301.634 210.112 304.454C221.264 310.886 239.324 310.886 250.476 304.454C255.286 301.669 258.033 298.129 258.682 294.506L258.752 294.034L260.037 285.23C259.754 286.658 259.165 288.063 258.234 289.42H258.21Z" fill="#37474F"/>
<path d="M247.92 272.993C238.171 267.352 222.362 267.352 212.624 272.993C207.107 276.179 204.714 280.487 205.433 284.652C205.987 287.85 208.392 290.954 212.624 293.397C222.362 299.038 238.171 299.038 247.92 293.397C252.141 290.954 254.546 287.85 255.1 284.664C255.83 280.498 253.437 276.191 247.92 273.005V272.993Z" fill="#263238"/>
<path d="M207.082 288.511C208.296 290.281 210.135 291.957 212.623 293.385C222.36 299.026 238.169 299.026 247.919 293.385C250.406 291.945 252.233 290.281 253.448 288.511C253.377 285.136 251.113 281.773 246.669 279.2C237.615 273.961 222.926 273.961 213.872 279.2C209.416 281.773 207.153 285.136 207.082 288.511Z" fill="#FAFAFA"/>
<path d="M232.135 278.021C227.655 276.805 226.9 267.093 229.411 256.838C231.852 246.866 239.668 231.914 241.33 232.245C242.992 232.575 245.067 248.825 243.9 259.564C242.485 272.569 236.626 279.236 232.146 278.021H232.135Z" fill="#BA68C8"/>
<path opacity="0.3" d="M232.135 278.021C227.655 276.805 226.9 267.093 229.411 256.838C231.852 246.866 239.668 231.914 241.33 232.245C242.992 232.575 245.067 248.825 243.9 259.564C242.485 272.569 236.626 279.236 232.146 278.021H232.135Z" fill="black"/>
<path opacity="0.5" d="M234.317 246.618C235.119 247.893 235.614 250.04 237.5 250.052C239.009 250.052 239.799 248.459 241.166 248.093C242.263 247.798 243.3 248.377 244.172 248.99C244.161 248.601 244.137 248.211 244.125 247.822C243.347 247.314 242.475 246.878 241.532 246.901C240.683 246.925 240.011 247.385 239.363 247.881C238.667 248.424 237.806 249.238 236.852 248.849C235.767 248.4 235.449 247.031 234.895 246.111C234.588 245.603 234.199 245.178 233.704 244.883C233.586 245.155 233.456 245.438 233.338 245.71C233.739 245.91 234.081 246.217 234.34 246.618H234.317ZM239.634 242.618C240.282 242.311 240.648 241.674 241.143 241.19C241.779 240.576 242.64 240.446 243.453 240.741C243.477 240.741 243.5 240.777 243.536 240.788C243.489 240.446 243.453 240.104 243.406 239.774C243.265 239.726 243.123 239.691 242.982 239.667C242.333 239.573 241.65 239.691 241.107 240.08C240.494 240.529 240.141 241.284 239.492 241.685C238.325 242.382 237.394 241.107 237.04 240.151C236.887 239.715 236.757 239.278 236.616 238.841C236.498 239.066 236.38 239.29 236.262 239.526C236.345 239.833 236.415 240.139 236.51 240.434C236.91 241.697 238.101 243.361 239.634 242.629V242.618ZM239.48 255.587C238.667 256.083 237.971 256.92 237.028 257.192C234.718 257.853 234.187 254.289 232.714 253.227C232.089 252.778 231.346 252.613 230.615 252.684C230.521 252.955 230.438 253.227 230.344 253.498C230.721 253.427 231.122 253.416 231.511 253.498C232.501 253.734 233.055 254.442 233.527 255.292C234.258 256.614 235.201 258.514 237.052 258.148C237.877 257.983 238.537 257.416 239.198 256.932C240.129 256.26 241.154 255.847 242.322 256.094C243.017 256.236 243.559 256.614 244.078 257.027C244.102 256.673 244.113 256.33 244.137 255.965C243.5 255.481 242.817 255.115 242.003 255.021C241.119 254.914 240.223 255.103 239.469 255.563L239.48 255.587ZM240.895 263.423C239.869 263.163 238.773 263.364 237.842 263.824C236.769 264.355 236.003 265.382 234.883 265.807C232.443 266.727 232.065 263.199 230.285 262.325C229.696 262.042 229.059 261.924 228.434 261.971C228.399 262.255 228.352 262.526 228.316 262.797C228.552 262.786 228.788 262.774 229.024 262.809C230.25 262.974 230.981 263.718 231.535 264.756C232.395 266.373 233.539 267.671 235.508 266.715C236.557 266.196 237.323 265.24 238.408 264.768C239.587 264.261 241.037 264.225 242.05 265.099C242.239 265.264 242.475 265.571 242.734 265.936C242.828 265.594 242.911 265.228 242.994 264.874C242.439 264.19 241.779 263.635 240.895 263.411V263.423Z" fill="#BA68C8"/>
<path opacity="0.1" d="M232.135 278.021C236.614 279.237 242.473 272.569 243.888 259.564C244.254 256.177 244.301 252.224 244.136 248.412C240.481 251.422 236.803 257.558 236.803 257.558C236.803 257.558 234.41 251.28 232.453 247.751C231.18 250.879 230.083 254.053 229.4 256.85C226.889 267.105 227.643 276.817 232.123 278.033L232.135 278.021Z" fill="black"/>
<path d="M228.479 283.414C222.585 287.202 217.091 273.737 214.156 263.576C211.22 253.416 213.142 226.851 216.113 225.388C218.211 224.361 229.34 248.164 231.533 259.753C233.112 268.131 233.171 280.404 228.479 283.414Z" fill="#BA68C8"/>
<path opacity="0.1" d="M228.479 283.414C222.585 287.202 217.091 273.737 214.156 263.576C211.22 253.416 213.142 226.851 216.113 225.388C218.211 224.361 229.34 248.164 231.533 259.753C233.112 268.131 233.171 280.404 228.479 283.414Z" fill="black"/>
<path d="M215.768 244.14C217.618 245.049 219.092 245.06 220.53 243.491C221.874 242.039 222.864 240.21 224.951 240.434C224.751 239.962 224.55 239.502 224.338 239.042C223.996 239.03 223.666 239.042 223.324 239.148C221.497 239.632 220.672 241.544 219.399 242.747C217.418 244.6 215.32 242.169 213.08 242.299C213.009 242.299 212.95 242.323 212.879 242.323C212.856 242.724 212.844 243.137 212.82 243.538C213.799 243.455 214.824 243.656 215.779 244.116L215.768 244.14ZM231.954 262.432C231.647 262.314 231.329 262.219 230.987 262.148C230.008 261.959 229.006 262.196 228.205 262.786C226.425 264.095 226.342 267.01 223.454 266.243C221.261 265.665 219.611 264.213 217.312 265.37C216.522 265.759 215.827 266.326 215.19 266.963C215.296 267.305 215.414 267.636 215.52 267.978C216.357 267.152 217.288 266.479 218.385 266.196C220.872 265.559 222.735 268.072 225.21 267.659C227.226 267.329 227.439 265.11 228.841 264.013C229.879 263.199 230.987 263.399 232.107 263.812C232.06 263.34 232.001 262.892 231.93 262.432H231.954ZM215.862 234.499C216.546 235.454 217.524 236.493 218.797 235.844C220.165 235.136 220.271 233.484 221.143 232.398C220.978 232.091 220.825 231.784 220.66 231.489C219.811 232.634 219.387 235.112 217.748 235.03C216.463 234.959 215.968 233.059 214.895 232.516C214.53 232.327 214.176 232.28 213.822 232.315C213.787 232.575 213.74 232.835 213.705 233.094C213.787 233.094 213.87 233.071 213.964 233.082C214.86 233.106 215.379 233.873 215.85 234.522L215.862 234.499ZM220.306 254.666C222.629 255.174 223.772 252.401 224.821 250.855C225.599 249.71 226.767 248.53 228.052 248.117C227.898 247.704 227.733 247.279 227.58 246.866C227.144 246.96 226.731 247.114 226.366 247.314C225.305 247.916 224.515 248.884 223.843 249.875C223.136 250.926 222.558 252.33 221.473 253.038C220.224 253.84 218.774 252.578 217.477 252.342C216.275 252.117 215.037 252.224 213.893 252.637C213.516 252.766 213.15 252.955 212.809 253.168C212.832 253.746 212.868 254.312 212.903 254.879C213.881 253.958 215.39 253.581 216.675 253.604C218.031 253.628 219.045 254.383 220.318 254.666H220.306Z" fill="#BA68C8"/>
<path opacity="0.1" d="M228.444 249.202C225.32 252.955 223.67 257.026 223.67 257.026C223.67 257.026 217.269 248.341 212.777 244.399C212.529 251.61 212.883 259.139 214.156 263.564C217.092 273.725 222.585 287.19 228.48 283.402C233.16 280.393 233.113 268.119 231.533 259.741C230.979 256.802 229.847 253.085 228.444 249.191V249.202Z" fill="black"/>
<path d="M228.076 290.329C217.301 290.907 207.233 284.381 200.702 276.144C194.171 267.907 189.067 250.902 190.552 249.851C192.026 248.801 209.414 259.54 215.933 267.281C224.492 277.43 228.076 290.329 228.076 290.329Z" fill="#BA68C8"/>
<path opacity="0.2" d="M228.076 290.329C217.301 290.907 207.233 284.381 200.702 276.144C194.171 267.907 189.067 250.902 190.552 249.851C192.026 248.801 209.414 259.54 215.933 267.281C224.492 277.43 228.076 290.329 228.076 290.329Z" fill="black"/>
<path d="M204.557 263.317C205.182 262.302 204.828 261.074 204.686 259.977C204.58 259.174 204.745 258.466 205.123 257.888C204.722 257.593 204.309 257.31 203.908 257.027C203.378 257.935 203.319 258.915 203.472 259.953C203.649 261.192 203.955 262.75 202.281 262.974C200.466 263.222 197.955 261.605 196.505 263.399C195.798 264.272 196.069 265.382 196.045 266.397C196.045 266.821 195.892 267.293 195.656 267.706C195.857 268.12 196.045 268.521 196.257 268.922C196.682 268.403 196.976 267.754 197.059 267.093C197.212 265.842 196.729 264.225 198.415 263.954C199.582 263.765 200.714 264.308 201.869 264.39C202.895 264.461 203.979 264.249 204.557 263.317ZM198.544 254.312C198.674 254.112 198.839 253.947 199.016 253.805C198.686 253.604 198.368 253.404 198.049 253.215C197.259 254.253 197.259 255.681 196.458 256.72C195.927 257.416 195.232 257.463 194.418 257.298C193.64 257.145 192.921 257.027 192.178 257.369C192.013 257.44 191.872 257.534 191.73 257.628C191.813 257.888 191.896 258.148 191.978 258.407C192.308 258.218 192.685 258.1 193.11 258.089C193.923 258.065 194.678 258.49 195.503 258.443C196.069 258.407 196.552 258.124 196.929 257.711C197.814 256.743 197.861 255.386 198.544 254.312ZM210.487 268.769C211.324 268.072 211.854 267.034 212.125 265.995C212.314 265.264 212.314 264.461 212.408 263.706C212.078 263.399 211.736 263.104 211.382 262.797C211.158 264.06 211.276 265.334 210.628 266.526C209.885 267.884 208.765 268.285 207.28 268.285C206.207 268.285 205.158 268.344 204.403 269.205C203.696 269.996 203.472 271.082 203.331 272.096C203.107 273.595 202.883 274.988 201.492 275.837C201.256 275.979 200.996 276.097 200.749 276.191C200.996 276.51 201.268 276.817 201.527 277.124C202.105 276.864 202.635 276.486 203.071 275.967C204.875 273.831 203.413 269.571 207.245 269.583C208.447 269.583 209.532 269.583 210.498 268.769H210.487ZM216.275 269.854C216.487 269.441 216.77 269.064 217.088 268.721C216.782 268.332 216.475 267.943 216.157 267.565C215.237 268.509 214.742 269.677 214.436 270.952C214.106 272.321 213.929 273.819 213.033 274.976C212.102 276.18 210.604 276.05 209.367 276.746C208.306 277.336 207.504 278.304 207.068 279.425C206.738 280.298 206.632 281.23 206.49 282.139C206.867 282.458 207.245 282.776 207.634 283.083C207.634 283.024 207.657 282.965 207.669 282.918C207.917 281.384 208.093 279.826 209.284 278.705C210.428 277.631 211.995 277.796 213.21 276.935C215.532 275.295 215.131 272.144 216.298 269.854H216.275ZM220.943 274.35C220.637 274.598 220.342 274.858 220.071 275.153C218.232 277.171 218.456 279.803 217.784 282.281C217.442 283.543 216.77 284.83 215.497 285.361C214.471 285.786 213.304 285.373 212.42 286.187C212.384 286.222 212.361 286.258 212.337 286.281C212.868 286.588 213.41 286.871 213.952 287.143C214.235 287.072 214.554 287.06 214.848 287.037C215.45 287.001 215.98 286.907 216.522 286.635C217.454 286.163 218.126 285.314 218.574 284.393C219.694 282.08 219.198 279.26 220.59 277.053C220.92 276.534 221.32 276.085 221.757 275.708C221.497 275.259 221.238 274.799 220.955 274.35H220.943Z" fill="#BA68C8"/>
<path opacity="0.2" d="M203.816 256.955C204.83 265.889 209.593 289.915 228.078 290.328C228.078 290.328 224.494 277.442 215.935 267.281C213.165 264 208.449 260.177 203.816 256.943V256.955Z" fill="black"/>
<path d="M228.074 290.329C219.598 289.09 212.325 283.72 208.588 267.742C204.85 251.763 204.285 244.541 206.855 242.96C209.814 241.13 221.378 257.239 225.104 264.331C234.452 282.139 228.086 290.341 228.086 290.341L228.074 290.329Z" fill="#BA68C8"/>
<path opacity="0.2" d="M212.349 260.803C214.459 261.464 217.206 262.172 218.798 260.083C219.576 259.056 219.788 257.676 220.318 256.602C219.953 256.059 219.564 255.516 219.187 254.973C218.255 256.484 218.279 258.702 216.64 259.564C215.414 260.213 213.953 259.788 212.715 259.41C211.441 259.021 210.168 258.643 208.824 258.82C208.082 258.915 207.398 259.174 206.797 259.54C206.891 260.012 206.997 260.508 207.091 260.992C207.363 260.838 207.645 260.697 207.94 260.591C209.437 260.024 210.876 260.343 212.349 260.803ZM209.85 252.53C210.487 252.79 211.111 253.05 211.819 252.908C213.104 252.637 213.776 251.398 214.436 250.383C214.625 250.088 214.837 249.793 215.084 249.545C214.813 249.214 214.554 248.896 214.283 248.577C214.224 248.636 214.177 248.683 214.118 248.742C213.316 249.71 212.644 251.693 211.147 251.716C210.428 251.728 209.732 251.256 209.037 251.103C208.435 250.973 207.822 250.961 207.209 251.067C206.596 251.162 206.019 251.398 205.512 251.716C205.547 252.082 205.606 252.471 205.653 252.861C206.349 252.46 207.127 252.2 207.928 252.165C208.6 252.141 209.225 252.271 209.838 252.53H209.85ZM219.092 270.279C219.906 269.099 220.484 267.754 221.686 266.904C223.077 265.901 224.492 265.96 226.001 266.137C225.718 265.547 225.411 264.945 225.093 264.332C224.114 264.225 223.16 264.214 222.169 264.52C220.849 264.933 219.741 265.759 218.939 266.881C218.208 267.907 217.713 269.158 216.77 270.008C215.049 271.589 212.715 270.208 210.781 269.819C210.215 269.713 209.65 269.666 209.096 269.689C209.249 270.244 209.402 270.798 209.555 271.318C210.263 271.318 211.005 271.412 211.783 271.66C214.66 272.557 217.171 273.088 219.092 270.267V270.279ZM228.854 273.395C228.712 273.442 228.571 273.465 228.429 273.513C227.286 273.949 226.307 274.705 225.553 275.672C224.728 276.734 224.291 278.021 223.525 279.106C222.617 280.381 221.603 280.688 220.153 280.227C218.88 279.826 217.737 279.531 216.428 279.956C215.532 280.251 214.742 280.77 214.07 281.431C214.353 281.856 214.66 282.257 214.955 282.658C215.485 282.198 216.11 281.797 216.77 281.596C217.843 281.278 218.703 281.561 219.694 281.962C222.122 282.954 224.197 282.328 225.694 280.133C226.413 279.071 226.838 277.808 227.651 276.805C228.134 276.215 228.736 275.767 229.408 275.46C229.254 274.787 229.078 274.103 228.865 273.383L228.854 273.395Z" fill="white"/>
<path opacity="0.15" d="M225.09 264.332C224.419 263.045 223.487 261.476 222.391 259.753C218.725 271.094 217.546 287.639 228.061 290.329C228.061 290.329 234.427 282.128 225.079 264.32L225.09 264.332Z" fill="black"/>
<path d="M258.669 264.39C259.824 264.308 260.956 263.765 262.123 263.954C263.809 264.225 263.326 265.842 263.479 267.093C263.561 267.754 263.856 268.403 264.281 268.922C264.481 268.521 264.681 268.108 264.882 267.706C264.646 267.293 264.504 266.821 264.493 266.397C264.469 265.382 264.74 264.261 264.033 263.399C262.583 261.605 260.072 263.222 258.256 262.974C256.594 262.75 256.889 261.192 257.066 259.953C257.219 258.915 257.148 257.935 256.63 257.027C256.229 257.31 255.816 257.593 255.415 257.888C255.793 258.478 255.958 259.174 255.851 259.977C255.71 261.074 255.356 262.302 255.981 263.317C256.559 264.261 257.643 264.473 258.669 264.39ZM263.597 257.711C263.974 258.124 264.457 258.407 265.023 258.443C265.848 258.502 266.603 258.065 267.416 258.089C267.841 258.1 268.218 258.218 268.548 258.407C268.631 258.136 268.713 257.876 268.796 257.628C268.654 257.534 268.501 257.44 268.348 257.369C267.605 257.027 266.886 257.133 266.108 257.298C265.306 257.463 264.611 257.416 264.08 256.72C263.278 255.681 263.278 254.253 262.489 253.215C262.17 253.404 261.852 253.604 261.522 253.805C261.699 253.947 261.864 254.112 261.993 254.312C262.677 255.386 262.724 256.743 263.609 257.711H263.597ZM253.305 269.583C257.136 269.583 255.675 273.831 257.478 275.967C257.915 276.486 258.445 276.852 259.023 277.124C259.282 276.817 259.553 276.498 259.801 276.191C259.553 276.097 259.294 275.991 259.058 275.837C257.667 274.988 257.431 273.595 257.219 272.096C257.066 271.082 256.854 269.996 256.146 269.205C255.38 268.344 254.342 268.285 253.27 268.285C251.784 268.285 250.664 267.884 249.922 266.526C249.273 265.334 249.391 264.06 249.167 262.797C248.814 263.104 248.483 263.399 248.142 263.706C248.236 264.461 248.224 265.264 248.425 265.995C248.696 267.034 249.214 268.072 250.063 268.769C251.042 269.571 252.114 269.583 253.317 269.583H253.305ZM247.34 276.935C248.554 277.796 250.122 277.631 251.266 278.705C252.456 279.826 252.633 281.396 252.881 282.918C252.881 282.965 252.904 283.024 252.916 283.083C253.305 282.776 253.682 282.458 254.06 282.139C253.918 281.219 253.824 280.298 253.482 279.425C253.046 278.292 252.244 277.336 251.183 276.746C249.945 276.05 248.448 276.18 247.517 274.976C246.621 273.819 246.444 272.332 246.114 270.952C245.807 269.677 245.312 268.509 244.393 267.565C244.074 267.943 243.768 268.332 243.461 268.721C243.768 269.064 244.063 269.441 244.275 269.854C245.442 272.144 245.041 275.295 247.364 276.935H247.34ZM238.781 275.708C239.217 276.085 239.618 276.534 239.948 277.053C241.339 279.26 240.844 282.068 241.964 284.393C242.412 285.314 243.084 286.163 244.015 286.635C244.558 286.907 245.088 287.001 245.689 287.037C245.996 287.06 246.303 287.072 246.585 287.143C247.128 286.871 247.67 286.576 248.201 286.281C248.165 286.246 248.153 286.21 248.118 286.187C247.222 285.384 246.067 285.786 245.041 285.361C243.768 284.83 243.096 283.543 242.754 282.281C242.082 279.803 242.306 277.183 240.467 275.153C240.196 274.858 239.901 274.598 239.595 274.35C239.324 274.811 239.052 275.259 238.793 275.708H238.781Z" fill="#BA68C8"/>
<path opacity="0.2" d="M256.722 256.956C255.709 265.889 250.946 289.916 232.461 290.329C232.461 290.329 236.045 277.442 244.603 267.282C247.374 264.001 252.089 260.177 256.722 256.944V256.956Z" fill="black"/>
<path d="M232.449 290.329C240.925 289.09 248.199 283.72 251.936 267.742C255.673 251.763 256.239 244.541 253.669 242.96C250.71 241.13 239.145 257.239 235.419 264.331C226.071 282.139 232.437 290.341 232.437 290.341L232.449 290.329Z" fill="#BA68C8"/>
<path opacity="0.2" d="M252.585 260.59C252.879 260.697 253.162 260.838 253.433 260.992C253.54 260.508 253.634 260 253.728 259.54C253.127 259.174 252.443 258.927 251.7 258.82C250.357 258.643 249.083 259.021 247.81 259.41C246.572 259.788 245.11 260.213 243.884 259.564C242.246 258.702 242.269 256.484 241.338 254.973C240.949 255.516 240.572 256.059 240.206 256.602C240.749 257.676 240.961 259.068 241.727 260.083C243.307 262.172 246.065 261.464 248.176 260.803C249.649 260.343 251.087 260.024 252.585 260.59ZM252.596 252.176C253.398 252.212 254.176 252.471 254.872 252.873C254.919 252.483 254.978 252.094 255.013 251.728C254.506 251.409 253.94 251.185 253.316 251.079C252.702 250.984 252.089 250.984 251.488 251.114C250.793 251.268 250.097 251.74 249.378 251.728C247.881 251.704 247.209 249.722 246.407 248.754C246.36 248.695 246.301 248.648 246.242 248.589C245.983 248.907 245.712 249.226 245.441 249.557C245.688 249.804 245.9 250.099 246.089 250.394C246.749 251.398 247.421 252.648 248.706 252.92C249.413 253.061 250.038 252.802 250.675 252.542C251.288 252.294 251.913 252.153 252.585 252.176H252.596ZM248.753 271.672C249.531 271.424 250.274 271.329 250.981 271.329C251.135 270.798 251.288 270.256 251.441 269.701C250.875 269.677 250.309 269.724 249.755 269.831C247.822 270.208 245.5 271.589 243.767 270.02C242.823 269.158 242.328 267.907 241.597 266.892C240.796 265.771 239.688 264.933 238.367 264.532C237.377 264.225 236.41 264.237 235.444 264.343C235.125 264.957 234.819 265.559 234.536 266.149C236.057 265.972 237.46 265.913 238.851 266.916C240.041 267.777 240.631 269.111 241.444 270.291C243.366 273.1 245.877 272.58 248.753 271.683V271.672ZM231.129 275.472C231.801 275.767 232.39 276.215 232.874 276.817C233.687 277.82 234.111 279.083 234.831 280.145C236.328 282.328 238.391 282.965 240.831 281.974C241.821 281.573 242.682 281.289 243.755 281.608C244.427 281.809 245.04 282.21 245.57 282.67C245.865 282.281 246.171 281.88 246.454 281.443C245.782 280.782 244.993 280.263 244.097 279.968C242.788 279.543 241.645 279.838 240.371 280.239C238.921 280.699 237.908 280.381 237 279.118C236.222 278.032 235.786 276.746 234.972 275.684C234.229 274.716 233.239 273.961 232.096 273.524C231.954 273.465 231.813 273.442 231.671 273.406C231.459 274.126 231.282 274.811 231.129 275.483V275.472Z" fill="white"/>
<path opacity="0.15" d="M235.431 264.331C236.103 263.045 237.034 261.475 238.131 259.752C241.797 271.093 242.976 287.638 232.46 290.329C232.46 290.329 226.094 282.127 235.443 264.319L235.431 264.331Z" fill="black"/>
<path d="M230.269 292.088C237.413 292.088 239.794 282.352 239.075 274.504C238.356 266.668 233.416 251.752 230.269 251.752C227.121 251.752 222.17 266.668 221.462 274.504C220.743 282.34 223.125 292.088 230.269 292.088Z" fill="#BA68C8"/>
<path opacity="0.3" d="M230.269 292.088C237.413 292.088 239.794 282.352 239.075 274.504C238.356 266.668 233.416 251.752 230.269 251.752C227.121 251.752 222.17 266.668 221.462 274.504C220.743 282.34 223.125 292.088 230.269 292.088Z" fill="white"/>
<path opacity="0.2" d="M230.221 261.96C231.364 261.736 232.083 260.803 232.885 260.06C233.533 259.446 234.3 259.092 235.09 258.915C234.901 258.455 234.724 257.995 234.536 257.558C233.427 257.853 232.425 258.49 231.518 259.411C231.081 259.848 230.622 260.32 230.02 260.532C229.16 260.839 228.629 260.367 228.063 259.8C227.38 259.128 226.672 258.597 225.717 258.396C225.694 258.396 225.67 258.396 225.647 258.396C225.493 258.762 225.352 259.139 225.199 259.529C226.095 259.694 226.955 260.143 227.686 260.933C228.37 261.665 229.183 262.184 230.209 261.972L230.221 261.96ZM224.892 270.551C227.274 272.416 229.242 269.772 230.763 268.191C232.036 266.869 233.38 266.598 234.83 267.813C235.691 268.533 236.469 269.395 237.553 269.784C237.836 269.89 238.108 269.949 238.379 269.985C238.284 269.536 238.19 269.088 238.084 268.627C236.976 268.344 236.162 267.495 235.184 266.692C233.05 264.946 231.14 265.677 229.455 267.613C228.488 268.722 226.908 270.645 225.305 269.454C224.362 268.745 223.914 267.554 222.935 266.869C222.924 266.869 222.912 266.857 222.9 266.846C222.794 267.235 222.7 267.624 222.605 268.014C223.537 268.639 224.008 269.831 224.892 270.527V270.551ZM227.557 279.13C228.912 280.924 230.586 281.361 232.425 279.827C233.321 279.083 233.911 278.009 234.877 277.36C236.233 276.44 237.789 276.924 239.192 277.466C239.192 277.042 239.192 276.617 239.169 276.192C238.52 275.932 237.872 275.696 237.188 275.566C236.092 275.378 235.031 275.543 234.111 276.192C233.097 276.912 232.472 278.033 231.506 278.788C230.975 279.201 230.138 279.709 229.443 279.449C228.629 279.142 228.134 278.127 227.533 277.525C226.778 276.758 225.812 276.204 224.774 275.944C223.572 275.649 222.381 275.791 221.356 276.286C221.344 276.688 221.332 277.101 221.332 277.502C223.489 276.558 225.965 277.018 227.557 279.13ZM234.347 286.423C233.203 287.308 231.765 287.792 230.315 287.639C229.537 287.556 228.83 287.32 228.287 286.754C227.887 286.341 227.604 285.845 227.203 285.444C226.472 284.712 225.529 284.252 224.515 284.11C223.749 284.004 222.994 284.087 222.275 284.299C222.405 284.736 222.535 285.172 222.688 285.586C223.867 285.208 225.081 285.22 226.248 286.081C227.109 286.718 227.521 287.769 228.429 288.359C229.242 288.89 230.256 289.079 231.223 289.079C232.249 289.079 233.274 288.819 234.182 288.347C235.208 287.804 235.938 286.872 236.94 286.294C237.2 286.14 237.483 286.022 237.766 285.916C237.966 285.397 238.143 284.854 238.296 284.299C237.966 284.335 237.636 284.394 237.294 284.512C236.115 284.901 235.325 285.692 234.359 286.435L234.347 286.423Z" fill="white"/>
<g clip-path="url(#clip1_2362_36271)">
<path d="M224.073 221.584C224.886 221.388 225.661 221.066 226.483 220.884C226.462 220.904 226.44 220.925 226.418 220.945C226.083 221.248 225.275 221.682 224.859 221.96C223.027 223.178 221.181 224.375 219.323 225.552C217.963 226.426 216.634 227.345 215.287 228.238L207.117 233.576C206.042 234.256 204.973 234.943 203.908 235.639C203.094 236.166 202.169 236.667 201.49 237.369C200.754 238.131 200.383 239.059 200.302 240.113C200.216 241.227 200.481 242.345 200.937 243.356C201.647 244.931 202.564 246.454 203.372 247.984C204.144 249.445 204.887 250.917 205.678 252.369C206.878 254.542 208.103 256.7 209.354 258.844L219.434 276.535C221.792 280.686 224.098 284.869 226.539 288.971C227.232 290.136 227.819 291.508 228.707 292.535C229.56 293.52 230.935 294.417 232.261 294.504C232.572 294.524 233.061 294.462 233.328 294.61C231.996 295.063 230.806 294.997 229.513 294.475C228.86 294.122 228.233 293.649 227.81 293.026C227.282 292.249 226.84 291.368 226.369 290.552L223.126 284.898L210.18 262.295L202.752 249.294L200.824 245.873C200.411 245.142 199.959 244.422 199.623 243.65C199.579 243.549 199.538 243.447 199.499 243.344C199.46 243.241 199.424 243.137 199.39 243.032C199.356 242.927 199.325 242.821 199.296 242.715C199.267 242.608 199.241 242.501 199.218 242.393C199.195 242.286 199.174 242.177 199.156 242.068C199.138 241.96 199.123 241.85 199.11 241.741C199.098 241.631 199.088 241.521 199.081 241.411C199.073 241.301 199.069 241.191 199.067 241.081C199.066 240.97 199.066 240.86 199.07 240.75C199.074 240.639 199.08 240.529 199.089 240.419C199.098 240.309 199.11 240.2 199.124 240.09C199.139 239.981 199.156 239.872 199.176 239.763C199.196 239.655 199.218 239.547 199.243 239.439C199.269 239.332 199.296 239.225 199.327 239.119C199.357 239.013 199.39 238.908 199.426 238.804C199.461 238.7 199.5 238.596 199.54 238.494C199.587 238.372 199.637 238.251 199.691 238.133C199.745 238.014 199.803 237.897 199.865 237.782C199.926 237.667 199.992 237.554 200.06 237.443C200.129 237.332 200.201 237.223 200.277 237.117C200.352 237.011 200.431 236.908 200.513 236.806C200.595 236.705 200.681 236.606 200.769 236.511C200.857 236.415 200.949 236.322 201.043 236.232C201.137 236.142 201.234 236.055 201.334 235.971C201.936 235.476 202.626 235.067 203.28 234.644L206.357 232.671L217.049 225.976L221.719 223.045C222.474 222.565 223.259 221.94 224.073 221.583V221.584Z" fill="white"/>
<path d="M228.151 296.283C227.327 295.653 226.741 295.017 226.191 294.139C225.298 292.715 224.502 291.22 223.651 289.768C221.567 286.252 219.518 282.715 217.504 279.158L205.99 259.133L200.01 248.727C199.219 247.32 198.211 245.851 197.618 244.355C196.932 242.628 196.83 240.685 197.248 238.881C197.273 238.774 197.301 238.667 197.33 238.56C197.36 238.454 197.391 238.348 197.424 238.242C197.457 238.137 197.492 238.032 197.529 237.928C197.566 237.824 197.605 237.721 197.646 237.618C197.686 237.515 197.729 237.413 197.773 237.312C197.817 237.211 197.863 237.111 197.911 237.011C197.959 236.912 198.009 236.813 198.06 236.716C198.112 236.618 198.165 236.521 198.22 236.425C198.275 236.33 198.331 236.235 198.39 236.141C198.448 236.047 198.508 235.955 198.569 235.863C198.631 235.772 198.694 235.681 198.759 235.592C198.824 235.503 198.89 235.415 198.958 235.328C199.026 235.242 199.096 235.156 199.167 235.072C199.238 234.988 199.311 234.904 199.385 234.823C199.459 234.741 199.534 234.661 199.611 234.582C199.688 234.503 199.767 234.426 199.846 234.35C200.876 233.378 202.162 232.68 203.358 231.935L207.41 229.397L225.004 218.404C227.042 217.119 229.188 216.68 231.56 217.237C233.144 217.609 234.641 218.568 236.093 219.287L242.684 222.535L247.069 224.701C247.813 225.07 248.634 225.406 249.327 225.859C250.131 226.386 250.758 227.059 251.261 227.877C252.023 229.12 252.721 230.413 253.447 231.678L257.349 238.481L266.499 254.478L271.16 262.603L272.404 264.792C272.798 265.477 273.228 266.162 273.513 266.902C274.059 268.319 274.14 269.996 273.789 271.471C273.766 271.568 273.742 271.665 273.716 271.76C273.69 271.856 273.661 271.952 273.632 272.046C273.602 272.141 273.57 272.235 273.537 272.329C273.504 272.422 273.469 272.515 273.432 272.608C273.395 272.7 273.356 272.792 273.316 272.882C273.276 272.973 273.234 273.063 273.19 273.152C273.146 273.242 273.101 273.33 273.054 273.417C273.007 273.505 272.959 273.592 272.908 273.677C272.858 273.763 272.806 273.847 272.753 273.931C272.699 274.015 272.644 274.097 272.588 274.179C272.531 274.26 272.473 274.341 272.414 274.42C272.354 274.499 272.293 274.578 272.231 274.655C272.168 274.732 272.104 274.808 272.039 274.882C271.973 274.957 271.907 275.03 271.839 275.102C271.771 275.174 271.701 275.245 271.63 275.315C271.559 275.384 271.487 275.452 271.414 275.519C270.609 276.24 269.614 276.772 268.7 277.342L263.853 280.351C260.724 282.337 257.541 284.222 254.391 286.172L239.52 295.434C238.047 296.33 236.642 297.417 234.945 297.842C233.834 298.092 232.672 298.008 231.555 297.855C230.28 297.518 229.238 297.033 228.152 296.283L228.151 296.283Z" fill="#062B6B"/>
<path d="M224.075 221.584C224.401 221.269 224.83 221.025 225.208 220.778C226.561 219.895 227.811 219.241 229.464 219.268C230.29 219.282 231.054 219.425 231.825 219.726C232.713 220.073 233.571 220.552 234.427 220.971C236.143 221.808 237.852 222.659 239.554 223.525C242.231 224.872 245.078 226.138 247.681 227.596C248.112 227.837 248.709 228.167 249.036 228.538C249.575 229.15 249.982 229.984 250.386 230.691C251.011 231.78 251.626 232.873 252.233 233.972C253.625 236.475 255.072 238.958 256.497 241.444C260.057 247.547 263.561 253.683 267.01 259.851L270.02 265.163C270.48 265.989 270.981 266.8 271.379 267.659C271.913 268.811 271.788 270.604 271.344 271.767C271.053 272.53 270.528 273.304 269.884 273.81C269.16 274.38 268.337 274.833 267.556 275.32C266.229 276.142 264.907 276.972 263.59 277.81L248.592 287.261C245.498 289.24 242.387 291.193 239.261 293.12L237.152 294.438C236.581 294.8 235.998 295.218 235.377 295.488C233.989 296.093 232.286 295.951 230.911 295.391C230.455 295.206 229.877 294.966 229.541 294.595L229.514 294.475C230.807 294.998 231.997 295.063 233.329 294.611C234.111 294.349 234.877 293.694 235.567 293.239C236.342 292.731 237.121 292.227 237.903 291.728L251.985 282.633L261.398 276.649C262.992 275.642 264.819 274.615 266.312 273.505C267.036 272.967 267.621 272.232 268.033 271.429C268.827 269.88 268.986 267.94 268.441 266.286C267.976 264.875 266.613 262.755 265.83 261.407L261.524 253.963L253.237 239.587L249.822 233.563C249.297 232.631 248.81 231.671 248.259 230.755C248.017 230.352 247.734 229.9 247.395 229.573C246.412 228.626 243.609 227.394 242.27 226.707L233.691 222.353C231.36 221.182 229.176 219.981 226.484 220.884C225.663 221.066 224.887 221.389 224.074 221.584H224.075Z" fill="#D1EAFF"/>
<path d="M236.814 287.277C235.482 287.688 235.093 287.57 233.8 287.095C233.147 286.774 232.279 286.815 231.856 286.249C231.328 285.542 230.886 284.741 230.415 283.999L231.42 283.973L218.475 263.418L213.328 253.97" fill="#FCC95C"/>
<path d="M249.505 279.279L237.184 287.277L249.505 279.279Z" fill="#FCC95C"/>
<path d="M241.848 233.188C243.359 233.194 244.816 233.706 245.928 234.752C246.91 235.675 247.527 237.078 248.191 238.236C248.892 239.44 249.586 240.648 250.274 241.859C252.575 245.822 254.852 249.799 257.106 253.789C258.694 256.538 260.332 259.262 261.891 262.027C262.422 262.969 263.03 263.889 263.501 264.861C263.594 265.057 263.677 265.257 263.75 265.462C263.822 265.666 263.884 265.874 263.936 266.085C263.987 266.296 264.027 266.508 264.056 266.724C264.086 266.939 264.104 267.155 264.111 267.372C264.153 268.827 263.616 270.334 262.611 271.391C261.843 272.199 260.685 272.751 259.742 273.339C258.167 274.327 256.584 275.302 254.993 276.262C252.647 277.689 250.33 279.184 248.021 280.671C245.586 282.238 243.197 283.878 240.765 285.451C239.94 285.984 239.138 286.618 238.277 287.083C237.448 287.531 236.624 287.703 235.69 287.73C234.103 287.664 232.734 287.116 231.536 286.061C231.082 285.662 230.719 285.224 230.392 284.715C229.902 283.954 229.469 283.146 229.017 282.361L226.719 278.376L220.508 267.578C218.857 264.695 217.136 261.851 215.499 258.959C214.99 258.06 214.401 257.185 213.945 256.258C213.857 256.079 213.778 255.896 213.709 255.709C213.639 255.522 213.578 255.332 213.527 255.139C213.476 254.946 213.435 254.751 213.403 254.554C213.371 254.357 213.348 254.159 213.336 253.96C213.255 252.524 213.806 250.917 214.763 249.846C215.578 248.934 216.767 248.316 217.787 247.66L220.94 245.622L232.119 238.391L236.568 235.498C237.383 234.965 238.188 234.371 239.049 233.917C239.945 233.445 240.845 233.245 241.848 233.188H241.848Z" fill="#040303"/>
<path d="M250.808 273.674C251.419 274.699 252.06 275.716 252.635 276.762C251.128 277.772 249.575 278.721 248.043 279.693C247.236 280.207 246.449 280.77 245.632 281.265C245.01 280.227 244.361 279.198 243.766 278.145C246.112 276.655 248.483 275.197 250.808 273.674H250.808Z" fill="#DC8906"/>
<path d="M243.053 278.693C243.666 279.712 244.271 280.737 244.867 281.766C243.158 282.87 241.459 283.988 239.77 285.121C239.003 285.624 238.078 286.396 237.221 286.685C236.458 286.941 235.575 286.944 234.795 286.773C233.906 286.579 233.004 286.151 232.312 285.554C233.531 284.594 234.924 283.797 236.234 282.964C238.496 281.522 240.769 280.098 243.053 278.693H243.053Z" fill="#DC8906"/>
<path d="M240.699 234.265C242.178 234.027 243.613 234.105 244.869 235.026C245.289 235.334 245.646 235.718 245.951 236.14C246.645 237.1 247.189 238.21 247.778 239.239C248.64 240.742 249.541 242.235 250.382 243.748C249.297 244.406 248.237 245.113 247.144 245.756C246.798 244.982 246.094 243.92 245.663 243.15L242.186 236.899C241.952 236.475 240.927 234.437 240.699 234.265Z" fill="#DC8906"/>
<path d="M250.819 244.514L254.442 250.838C255.19 252.147 255.922 253.461 256.716 254.742C255.513 255.379 254.407 256.184 253.228 256.86C252.803 255.824 252.122 254.839 251.581 253.857L247.516 246.57C248.592 245.869 249.693 245.126 250.819 244.514V244.514Z" fill="#DC8906"/>
<path d="M237.578 267.6L244.648 263.215C246.699 266.702 248.801 270.162 250.811 273.674C248.486 275.196 246.115 276.655 243.769 278.145L237.578 267.6Z" fill="#FCC95C"/>
<path d="M253.68 257.603C255.26 260.917 257.951 263.959 256.575 267.893C255.617 270.63 253.76 271.629 251.609 273.236C250.14 270.835 248.7 268.417 247.289 265.981C246.666 264.906 246.01 263.847 245.414 262.757C246.233 262.151 247.177 261.65 248.045 261.109L253.68 257.603Z" fill="#FCC95C"/>
<path d="M230.793 240.289C231.106 240.585 232.032 242.37 232.317 242.853C233.469 244.774 234.605 246.704 235.724 248.645C236.335 249.685 237.039 250.727 237.542 251.823C236.255 252.682 234.916 253.484 233.599 254.296C232.691 254.856 231.795 255.444 230.877 255.986C230.8 255.922 224.605 245.365 224.156 244.581L228.108 242.03C229.001 241.447 229.883 240.842 230.793 240.289V240.289Z" fill="#FCC95C"/>
<path d="M253.681 257.603C254.805 256.883 255.989 256.234 257.07 255.45C257.556 256.204 257.992 256.995 258.444 257.77C259.243 259.114 260.024 260.468 260.79 261.831C261.542 263.149 262.535 264.507 263.003 265.957C263.279 266.811 263.315 267.763 263.129 268.64C262.807 270.151 262.058 270.903 260.803 271.707C259.525 272.527 258.207 273.286 256.921 274.094C256.115 274.602 255.306 275.103 254.491 275.596C254.134 275.814 253.776 276.064 253.405 276.256L252.159 274.185C251.984 273.893 251.729 273.551 251.609 273.236C253.76 271.629 255.618 270.63 256.575 267.893C257.952 263.959 255.26 260.917 253.68 257.603H253.681Z" fill="#DC8906"/>
<path d="M231.559 239.795C233.216 238.677 234.912 237.612 236.593 236.53C237.507 235.942 238.412 235.264 239.373 234.761C239.805 234.534 240.224 234.368 240.701 234.266C240.929 234.438 241.954 236.476 242.188 236.9L245.665 243.15C246.096 243.921 246.799 244.983 247.146 245.756C246.518 246.181 245.853 246.568 245.211 246.975C242.917 248.431 240.588 249.829 238.311 251.313C236.038 247.487 233.787 243.648 231.559 239.795Z" fill="#FCC95C"/>
<path d="M225.762 274.941C227.2 273.982 228.719 273.109 230.188 272.196L236.801 268.069C237.732 269.484 238.561 270.994 239.414 272.457L243.056 278.693C240.772 280.098 238.499 281.522 236.237 282.964C234.927 283.796 233.534 284.594 232.315 285.553C231.97 285.271 231.652 284.929 231.391 284.567C231.092 284.154 230.847 283.693 230.587 283.254C230.102 282.447 229.627 281.634 229.163 280.814C228.041 278.849 226.907 276.892 225.762 274.941L225.762 274.941Z" fill="#FCC95C"/>
<path d="M223.363 245.094C223.619 245.275 229.832 255.842 230.121 256.521C226.814 258.559 223.522 260.622 220.245 262.708C219.853 262.93 219.474 263.18 219.092 263.419C218.092 261.588 216.995 259.8 215.948 257.996C215.426 257.097 214.752 256.139 214.427 255.148C214.396 255.052 214.367 254.955 214.342 254.858C214.317 254.76 214.295 254.662 214.276 254.563C214.257 254.464 214.242 254.364 214.229 254.264C214.216 254.164 214.207 254.064 214.201 253.963C214.194 253.863 214.191 253.762 214.191 253.661C214.191 253.56 214.195 253.46 214.201 253.359C214.208 253.258 214.217 253.158 214.23 253.058C214.243 252.958 214.259 252.859 214.278 252.76C214.447 251.923 214.844 251.079 215.419 250.448C216.175 249.618 217.507 248.899 218.458 248.282C220.094 247.222 221.749 246.186 223.363 245.094L223.363 245.094Z" fill="#FCC95C"/>
<path d="M219.523 264.197L247.516 246.569L251.581 253.857C252.123 254.839 252.804 255.824 253.229 256.86C252.839 257.133 252.406 257.368 252.001 257.619L249.054 259.436L240.009 265.03L228.973 271.898C227.764 272.641 226.575 273.433 225.346 274.139C223.408 270.825 221.515 267.479 219.523 264.197Z" fill="#FCC95C"/>
</g>
<path d="M238.312 275.201V363.885L357.003 295.191V206.507L238.312 275.201ZM304.554 264.379L290.714 272.392C287.849 274.044 285.515 272.876 285.515 269.737C285.515 266.598 287.849 262.774 290.714 261.11L304.554 253.097C307.43 251.445 309.765 252.613 309.765 255.729C309.765 258.844 307.43 262.715 304.554 264.367V264.379Z" fill="#455A64"/>
<path d="M141.102 219.016V307.712L238.301 363.897V275.2L141.102 219.016Z" fill="#37474F"/>
<defs>
<clipPath id="clip0_2362_36271">
<rect width="403.884" height="263.916" fill="white" transform="translate(0 11)"/>
</clipPath>
<clipPath id="clip1_2362_36271">
<rect width="77" height="81" fill="white" transform="translate(197 217)"/>
</clipPath>
</defs>
</svg>
