<svg width="373" height="318" viewBox="0 0 373 318" fill="none" xmlns="http://www.w3.org/2000/svg">
<g clip-path="url(#clip0_2381_107883)">
<path d="M186.498 317.999C289.498 317.999 372.996 309.458 372.996 298.923C372.996 288.388 289.498 279.848 186.498 279.848C83.498 279.848 0 288.388 0 298.923C0 309.458 83.498 317.999 186.498 317.999Z" fill="#C3E3F4" fill-opacity="0.5"/>
<path d="M238.536 24.5237C240.232 28.4419 248.047 32.8998 247.938 37.2167C243.033 38.2838 242.698 31.0111 239.731 28.3292C236.679 26.1224 235.21 36.8744 238.375 41.457C240.801 45.3028 246.367 43.551 254.804 47.582C262.066 50.9244 262.344 53.5137 266.656 53.7191C274.543 54.0976 281.551 45.8142 281.022 44.9565C280.808 44.6101 279.476 45.629 275.944 46.1243C275.661 46.4424 261.711 46.676 266.224 42.9873C271.968 40.3577 276.388 46.8491 282.875 42.3228C287.735 38.9281 287.408 30.4313 286.795 30.2621C285.878 34.5911 274.846 37.5549 270.349 35.7871C267.737 34.5025 269.889 33.3911 272.493 32.9602C280.861 30.4111 285.446 29.646 288.688 23.3962C292.66 15.7329 285.305 9.93812 283.452 0.402303C283.452 0.402303 271.677 -1.57896 265.303 3.27352C259.172 7.94478 265.206 14.1302 263.842 19.1679C263.467 21.4069 260.617 22.0351 259.196 20.686C256.322 18.8135 255.954 14.3114 255.724 11.0616C255.345 5.6776 256.451 3.72856 255.43 3.14465C252.786 1.50569 245.822 10.0831 247.582 14.6013C247.284 20.3719 257.202 26.5332 254.844 32.3964C250.259 32.6622 244.846 21.3465 244.385 16.4336C244.438 13.8241 245.564 12.0241 245.156 11.7865C242.646 13.0872 237.261 20.9075 238.548 24.5277L238.536 24.5237Z" fill="#C3E3F4"/>
<path d="M239.665 34.1884C239.863 35.5052 240.392 36.7576 241.179 37.8328C241.942 38.8758 242.947 39.6892 244.078 40.3094C245.317 40.9859 246.657 41.441 247.977 41.9363C249.406 42.4719 250.811 43.084 252.167 43.7846C252.777 44.1028 253.402 44.4169 253.975 44.7994C254.452 45.1176 254.912 45.5404 254.985 46.1404C254.985 46.1485 254.993 46.1485 254.993 46.1565C254.94 46.2491 254.896 46.3458 254.843 46.4384C254.666 46.7485 254.48 47.0545 254.282 47.3565C254.331 47.3726 254.375 47.3928 254.419 47.4169C254.775 46.8733 255.098 46.3055 255.388 45.7256C255.388 45.7256 255.396 45.7256 255.396 45.7176C255.582 45.5082 255.816 45.335 256.058 45.19C256.284 45.0531 256.551 44.9082 256.821 44.9082C257.225 44.9082 257.633 45.0612 258.008 45.2021C258.379 45.3471 258.755 45.5001 259.122 45.6612C261.706 46.7968 264.148 48.2827 266.869 49.0841C269.105 49.7405 271.559 49.9378 273.759 49.0438C273.848 49.0076 273.783 48.8707 273.691 48.9109C272.407 49.4304 271.014 49.5754 269.638 49.4667C266.945 49.2452 264.479 48.0894 262.085 46.9136C260.761 46.2612 259.441 45.5927 258.061 45.0652C257.552 44.8719 256.959 44.6424 256.422 44.8518C256.123 44.9645 255.828 45.1457 255.574 45.3592C256.349 43.7041 256.854 41.9403 257.358 40.1886C257.382 40.108 257.407 40.0235 257.431 39.9429C258.388 39.0087 259.619 38.4167 260.914 38.0986C263.55 37.4462 266.211 38.006 268.79 38.6463C269.496 38.8234 270.203 39.0006 270.909 39.1657C271.575 39.3228 272.249 39.4758 272.932 39.5362C274.094 39.6369 275.366 39.4194 276.201 38.5416C276.266 38.4731 276.169 38.3563 276.104 38.4288C275.051 39.5362 273.42 39.5161 272.023 39.2543C269.246 38.7348 266.55 37.6959 263.696 37.6435C261.504 37.6033 259.163 38.1711 257.508 39.6651C257.984 38.0261 258.492 36.3831 259.259 34.8488C259.679 34.0112 260.184 33.226 260.741 32.481C260.745 32.477 260.753 32.477 260.757 32.4689C260.757 32.4609 260.765 32.4528 260.769 32.4407C261.278 31.7642 261.823 31.1199 262.392 30.4957C263.341 29.4568 264.338 28.4621 265.294 27.4312C266.638 26.807 268.124 26.5292 269.589 26.36C272.217 26.05 274.95 26.199 277.473 25.2969C279.717 24.4915 281.861 22.5707 281.905 20.0377C281.905 19.9411 281.76 19.929 281.756 20.0297C281.732 21.4391 281.001 22.7116 279.976 23.6539C277.994 25.4741 275.204 25.8043 272.629 25.9734C270.255 26.1305 267.765 26.2271 265.545 27.1614C265.666 27.0285 265.791 26.8956 265.916 26.7627C267.119 25.4177 268.172 23.964 269.052 22.3935C270.857 19.1679 271.995 15.6322 273.113 12.1288C273.146 12.0402 273.004 11.9879 272.972 12.0805C272.835 12.5114 272.702 12.9382 272.56 13.3651C271.47 16.7356 270.284 20.1263 268.427 23.1586C268.6 22.2123 268.354 21.2216 268.132 20.3035C267.853 19.1558 267.583 17.8108 268.322 16.7719C268.378 16.6913 268.253 16.6108 268.197 16.6873C267.502 17.6618 267.656 18.9303 267.91 20.0256C268.172 21.1653 268.568 22.4136 268.164 23.5613C268.164 23.5653 268.164 23.5694 268.164 23.5734C267.2 25.0795 266.045 26.4245 264.818 27.7211C263.643 28.9614 262.424 30.1615 261.33 31.4783C261.225 31.6031 261.124 31.732 261.023 31.8608C261.472 30.5642 261.213 29.0863 260.668 27.842C260.039 26.4043 258.957 25.2244 257.915 24.0687C256.882 22.921 255.921 21.7411 255.134 20.4122C253.62 17.8551 252.704 14.9597 252.47 12.004C252.466 11.9073 252.316 11.9395 252.324 12.0322C252.45 13.647 252.781 15.2376 253.297 16.7719C253.761 18.1451 254.379 19.4699 255.134 20.7102C255.917 21.9868 256.862 23.1304 257.863 24.2419C258.908 25.4016 259.982 26.5936 260.592 28.0514C261.153 29.4004 261.367 31.0393 260.636 32.3682C259.825 33.4636 259.138 34.6354 258.61 35.9039C257.887 37.6435 257.411 39.4718 256.878 41.2718C256.829 41.4248 256.785 41.5779 256.737 41.7309C256.559 40.7121 256.079 39.7496 255.461 38.9241C254.799 38.0342 253.951 37.3013 253.112 36.5804C252.24 35.8354 251.384 35.0864 250.593 34.2529C249.059 32.6421 247.743 30.834 246.681 28.8849C246.633 28.8004 246.496 28.8648 246.544 28.9494C247.129 30.0205 247.783 31.0514 248.514 32.0259C249.168 32.8998 249.878 33.7334 250.637 34.5186C251.42 35.32 252.26 36.0489 253.108 36.7737C253.955 37.5026 254.807 38.2516 255.457 39.1698C256.058 40.0194 256.515 41.006 256.636 42.049C256.636 42.049 256.64 42.049 256.64 42.0531C256.224 43.3981 255.744 44.7189 255.098 45.9632C254.972 45.4437 254.577 45.0491 254.145 44.7471C253.515 44.3001 252.801 43.9538 252.115 43.6034C250.786 42.9229 249.418 42.3269 248.021 41.8034C246.673 41.3 245.297 40.8369 244.037 40.1322C242.891 39.4919 241.898 38.6422 241.155 37.563C240.457 36.5522 239.992 35.3885 239.807 34.1723C239.791 34.0797 239.645 34.1079 239.661 34.2005L239.665 34.1884Z" fill="white"/>
<path d="M254.397 98.7896C255.055 97.5896 256.807 97.3721 258.002 98.0366C259.196 98.701 259.907 99.9896 260.375 101.274C261.126 103.356 261.368 105.41 261.522 107.568C262.232 105.643 263.015 103.743 263.855 101.874C264.408 100.638 264.993 99.4138 265.603 98.2017C262.91 96.7077 260.682 94.3962 259.293 91.6498C258.769 90.6109 258.369 89.3343 258.934 88.3155C259.592 87.1235 261.344 86.9061 262.539 87.5665C263.73 88.2269 264.444 89.5075 264.908 90.784C265.687 92.9344 265.913 95.0526 266.067 97.2876C267.988 93.5747 270.168 89.9948 272.647 86.6282C270.281 84.7315 268.481 82.1342 267.564 79.2468C267.209 78.1354 267.02 76.8146 267.738 75.8964C268.578 74.8252 270.342 74.8857 271.415 75.7273C272.489 76.5689 272.99 77.9421 273.244 79.279C273.656 81.4455 273.567 83.5033 273.377 85.6497C276.046 82.1422 279.134 78.7515 282.92 76.4602C282.997 76.4119 283.081 76.3676 283.158 76.3233C281.047 74.1004 279.618 71.2413 279.117 68.217C278.928 67.0693 278.928 65.7324 279.767 64.927C280.752 63.9847 282.492 64.2988 283.433 65.2814C284.373 66.268 284.672 67.6975 284.732 69.0587C284.841 71.4547 284.377 73.6373 283.82 75.9367C288.264 73.4118 293.193 71.6923 297.545 69.0184C295.373 66.7794 293.9 63.876 293.391 60.7994C293.201 59.6517 293.201 58.3148 294.041 57.5094C295.026 56.5671 296.766 56.8812 297.706 57.8637C298.647 58.8463 298.946 60.2799 299.006 61.641C299.115 64.1015 298.623 66.3364 298.049 68.7043C299.123 68.0157 300.161 67.2667 301.141 66.421C303.128 64.7136 304.726 62.5954 305.945 60.2558C303.184 58.653 300.94 56.1764 299.624 53.273C299.143 52.2099 298.796 50.9213 299.406 49.9266C300.112 48.7628 301.876 48.6179 303.039 49.3306C304.201 50.0394 304.859 51.3481 305.271 52.6448C306.022 55.0247 306.119 57.3443 306.171 59.8128C308.06 55.9952 308.96 51.63 308.876 47.4702C306.567 45.7225 304.758 43.3184 303.737 40.6123C303.325 39.521 303.063 38.2122 303.733 37.2578C304.512 36.1424 306.28 36.1102 307.394 36.8914C308.508 37.6726 309.086 39.0217 309.409 40.3425C309.929 42.4486 309.958 44.4782 309.885 46.5963C309.925 46.6648 309.949 46.7453 309.953 46.842C310.103 50.3776 309.518 53.9334 308.351 57.2718C308.093 58.0087 307.81 58.7376 307.495 59.4584C309.509 57.4933 312.069 56.0798 314.814 55.4395C315.952 55.1737 317.288 55.0851 318.148 55.8744C319.153 56.7926 318.955 58.5443 318.031 59.547C317.106 60.5497 315.694 60.9403 314.337 61.0893C311.806 61.3672 309.473 60.9967 306.987 60.5578C306.264 62.0397 305.404 63.4491 304.355 64.7176C302.768 66.6385 300.875 68.1768 298.824 69.4936C301.586 68.5875 304.609 68.4667 307.431 69.1674C308.565 69.4493 309.792 69.9808 310.2 71.0721C310.676 72.3487 309.695 73.8145 308.416 74.2856C307.136 74.7568 305.699 74.4588 304.423 73.9756C301.981 73.0453 300.035 71.5997 297.961 70.0332C294.517 72.1111 290.691 73.6615 287.122 75.4253C286 75.981 284.898 76.5609 283.836 77.2011C286.783 76.0655 290.077 75.8521 293.145 76.6132C294.279 76.8951 295.506 77.4226 295.914 78.5139C296.39 79.7905 295.413 81.2563 294.134 81.7274C292.854 82.1986 291.417 81.9046 290.142 81.4214C287.643 80.4751 285.661 78.9851 283.529 77.3783C282.403 78.071 281.325 78.8361 280.312 79.7099C278.459 81.3127 276.788 83.1208 275.246 85.0174C274.835 85.5208 274.435 86.0363 274.039 86.5517C276.599 85.2752 279.521 84.7114 282.375 84.9691C283.538 85.0738 284.833 85.4081 285.403 86.4269C286.069 87.6148 285.33 89.2135 284.139 89.8739C282.948 90.5344 281.483 90.4659 280.147 90.18C277.68 89.6565 275.597 88.5894 273.397 87.4095C270.975 90.6954 268.86 94.219 266.995 97.8473C269.26 95.8983 272.094 94.6177 275.057 94.219C276.215 94.062 277.551 94.1022 278.334 94.968C279.247 95.9788 278.883 97.7023 277.866 98.6124C276.849 99.5225 275.408 99.7762 274.043 99.7963C271.456 99.8326 269.131 99.2165 266.652 98.5319C266.41 99.0151 266.168 99.4983 265.934 99.9856C264.642 102.655 263.463 105.39 262.446 108.184C264.678 106.32 267.443 105.096 270.33 104.705C271.488 104.548 272.824 104.588 273.607 105.454C274.52 106.465 274.156 108.189 273.139 109.099C272.122 110.009 270.681 110.262 269.316 110.283C266.798 110.319 264.533 109.739 262.127 109.074C261.001 112.272 260.089 115.542 259.447 118.864C259.314 119.557 258.248 119.303 258.381 118.61C259.031 115.256 259.959 111.954 261.098 108.728C258.397 107.222 256.153 104.894 254.764 102.124C254.239 101.077 253.84 99.7963 254.401 98.7695L254.397 98.7896Z" fill="#85AAD6"/>
<path d="M131.439 190.874C131.621 193.785 130.64 196.918 130.64 196.918C130.64 196.918 129.235 204.984 125.917 211.556C124.726 213.872 122.938 217.431 119.289 220.697C118.893 221.027 118.497 221.358 118.102 221.688C117.702 222.006 117.294 222.304 116.858 222.562C116.54 222.775 116.225 222.985 115.898 223.174C115.728 223.291 115.571 223.391 115.393 223.484C109.863 226.762 104.325 227.197 102.197 227.293C100.155 227.346 92.804 227.342 85.8609 222.682C81.5699 219.795 76.5322 214.6 77.9854 211.673C78.2962 211.125 78.7725 210.714 78.829 209.905C78.9986 208.302 77.4122 207.227 75.4463 205.6C71.7972 202.596 69.9524 201.122 69.6295 199.475C69.4559 198.718 69.7384 196.958 70.2834 193.475C70.6588 191.055 70.7718 190.934 70.6225 190.459C69.799 188.111 65.9359 189.11 62.5936 186.661C60.0424 184.765 58.3026 181.225 58.9807 178.152C59.4086 176.348 60.3371 176.099 61.544 172.805C62.3917 170.473 62.8035 169.265 62.6904 168.025C62.2383 163.192 53.9995 162.83 53.9833 158.815C53.9793 156.83 55.9734 154.812 57.8787 152.879C59.8527 150.93 60.7569 150.842 61.4633 149.964C65.5645 144.999 50.0799 130.24 52.1911 128.102C53.8057 126.483 66.9653 131.291 73.8236 137.617C74.8691 138.62 76.8591 140.621 79.9472 140.774C83.5075 140.98 84.9446 138.527 87.2697 139.156C88.4322 139.498 88.9005 140.339 92.7474 148.297C93.9625 150.842 94.7981 152.614 96.1705 152.602C97.5107 152.602 98.3463 150.874 100.252 150.914C100.558 150.894 101.208 150.963 102.121 151.555C105.172 153.455 106.835 158.284 107.598 160.667C109.148 165.431 109.524 167.976 110.67 167.993C111.809 167.96 112.196 165.548 114.251 165.041C115.712 164.719 117.177 165.58 117.985 166.325C119.119 167.392 119.244 168.79 119.2 172.966C119.159 177.25 119.006 177.911 119.075 180.182C119.127 184.096 119.188 187.656 120.774 188.059C122.207 188.421 123.382 185.912 126.224 185.784C126.345 185.776 128.512 185.711 129.957 187.068C130.922 187.962 131.358 189.416 131.447 190.882L131.439 190.874Z" fill="#C3E3F4"/>
<path d="M122.19 195.53C123.091 197.946 120.947 200.104 119.72 201.957C118.553 203.72 117.532 205.581 116.672 207.514C115.033 211.199 114.012 215.133 113.592 219.14C113.584 219.128 113.576 219.111 113.568 219.099C111.118 215.105 108.316 211.295 105.632 207.502C102.867 203.592 100.158 199.609 97.9744 195.332C96.1579 191.76 94.9227 188.023 93.8247 184.222C93.8247 184.222 93.8247 184.218 93.8247 184.214C95.4475 180.066 98.588 176.841 100.542 172.89C102.253 169.427 102.701 164.84 99.6052 161.985C99.3307 161.732 98.9715 162.187 99.246 162.44C102.52 165.46 101.385 170.333 99.4357 173.732C97.5627 176.998 95.0882 179.869 93.5785 183.332C93.5785 183.324 93.5785 183.32 93.5744 183.312C93.4493 182.861 93.3201 182.414 93.195 181.963C92.1697 178.282 91.0677 174.594 89.126 171.283C87.7939 168.984 86.264 166.814 84.6696 164.703C85.9613 160.737 86.1349 156.255 84.8351 152.268C84.718 151.914 84.1771 152.127 84.2941 152.482C85.5051 156.198 85.376 160.395 84.2376 164.124C84.1569 164.011 84.0681 163.91 83.9874 163.797C80.1364 158.752 76.0069 153.891 71.6513 149.28C71.2678 148.882 70.8803 148.471 70.4888 148.076C70.2344 147.814 69.7702 148.157 70.0245 148.422C74.2146 152.711 78.1342 157.294 81.852 161.993C83.8259 164.49 85.7393 167.035 87.4831 169.713C87.8787 170.333 88.2582 170.945 88.5932 171.577C86.4901 172.214 84.5041 171.022 82.6956 170.091C81.1011 169.27 79.4098 168.674 77.6458 168.344C74.1581 167.691 70.513 168.074 67.2392 169.435C66.8921 169.58 67.106 170.12 67.4532 169.975C70.9287 168.533 74.8039 168.235 78.4692 169.113C80.3544 169.564 82.0054 170.414 83.725 171.279C85.3316 172.089 87.0916 172.677 88.8758 172.109C88.8838 172.109 88.8838 172.101 88.8879 172.097C89.9737 174.094 90.8416 176.164 91.548 178.371C92.9811 182.865 93.9297 187.5 95.7381 191.873C97.5021 196.126 99.8918 200.096 102.455 203.91C102.673 204.236 102.899 204.558 103.125 204.884C98.1439 204.876 92.9003 204.82 88.4196 202.355C87.3822 201.784 86.4255 201.083 85.5738 200.265C84.7503 199.472 84.0075 198.574 83.0468 197.934C81.2545 196.734 79.0828 196.834 77.0241 196.987C76.6487 197.016 76.7133 197.595 77.0847 197.567C78.2634 197.479 79.4582 197.39 80.6289 197.595C81.8318 197.805 82.8087 198.385 83.6927 199.206C84.5606 200.016 85.3316 200.91 86.2721 201.643C87.1198 202.299 88.0482 202.855 89.017 203.314C93.4574 205.428 98.475 205.456 103.295 205.464C103.375 205.464 103.428 205.428 103.468 205.388C103.468 205.388 103.468 205.392 103.472 205.396C106.831 210.272 110.464 215.016 113.503 220.094C113.512 220.11 113.524 220.126 113.532 220.142C113.552 220.195 113.568 220.239 113.608 220.271C113.608 220.275 113.616 220.283 113.616 220.287C114.246 221.338 114.852 222.401 115.401 223.485C115.578 223.392 115.736 223.291 115.905 223.175C115.336 222.075 114.723 221.004 114.093 219.941C114.093 219.941 114.093 219.937 114.089 219.933C114.48 215.415 115.663 210.993 117.613 206.894C118.606 204.804 119.797 202.835 121.141 200.95C122.311 199.307 123.514 197.398 122.743 195.32C122.614 194.97 122.069 195.183 122.202 195.534L122.19 195.53Z" fill="white"/>
<path d="M89.2774 241.743C88.349 240.756 86.811 240.491 85.5233 240.901C84.2356 241.312 83.1941 242.311 82.5079 243.475C81.8257 244.638 81.4664 245.963 81.2081 247.288C80.7802 249.483 80.6268 251.798 81.1879 253.941C78.3865 252.229 75.7142 250.296 73.2074 248.174C72.9773 247.981 72.7553 247.783 72.5293 247.586C74.1682 245.915 75.807 244.24 77.4459 242.568C78.5399 241.453 79.658 240.297 80.2554 238.856C80.8529 237.414 80.8125 235.59 79.7388 234.454C78.8103 233.468 77.2724 233.202 75.9847 233.613C74.697 234.023 73.6555 235.022 72.9693 236.186C72.283 237.35 71.9278 238.674 71.6695 239.999C71.2295 242.262 71.0801 244.654 71.7018 246.857C68.9891 244.417 66.4823 241.747 64.2178 238.888C65.8123 237.128 67.4108 235.372 69.0053 233.613C70.0548 232.457 71.1285 231.261 71.6695 229.795C72.2104 228.329 72.1014 226.513 70.9832 225.414C70.0185 224.463 68.4684 224.258 67.1968 224.717C65.9253 225.176 64.9242 226.215 64.2824 227.403C63.6446 228.591 63.3337 229.932 63.1279 231.265C62.7969 233.399 62.7242 235.642 63.3015 237.708C61.711 235.602 60.2457 233.403 58.9257 231.12C58.5341 230.443 58.1628 229.759 57.7954 229.066C59.3778 227.206 60.9602 225.341 62.5385 223.481C63.5517 222.289 64.5851 221.061 65.0776 219.579C65.5701 218.097 65.4005 216.285 64.2501 215.221C63.253 214.303 61.6989 214.15 60.4435 214.65C59.1881 215.149 58.2193 216.22 57.6219 217.428C57.0244 218.636 56.758 219.985 56.5966 221.326C56.3624 223.243 56.3422 225.232 56.7984 227.093C55.6479 224.709 54.6468 222.253 53.8112 219.736C54.2997 217.408 54.7881 215.076 55.2806 212.749C55.6035 211.219 55.9224 209.648 55.652 208.11C55.3775 206.572 54.3643 205.057 52.8465 204.671C51.5346 204.337 50.0935 204.937 49.2296 205.976C48.3658 207.011 48.0227 208.416 48.0751 209.765C48.1236 211.114 48.5353 212.427 49.0318 213.683C49.9441 215.999 51.2278 218.266 53.1694 219.804C53.1694 219.812 53.1694 219.82 53.1735 219.828C54.0575 222.506 55.1272 225.12 56.3665 227.653C54.9213 226.255 53.0725 225.257 51.1915 224.5C49.9361 223.996 48.6241 223.573 47.2719 223.513C45.9196 223.453 44.5148 223.779 43.4693 224.636C42.4238 225.494 41.8102 226.924 42.1332 228.237C42.5086 229.755 44.0183 230.778 45.5563 231.063C47.0942 231.349 48.6766 231.039 50.2105 230.729C52.5478 230.258 54.881 229.791 57.2182 229.32C58.8248 232.372 60.6857 235.292 62.7646 238.05C60.9562 236.947 58.8127 236.395 56.6934 236.113C55.3533 235.936 53.9768 235.852 52.6527 236.129C51.3287 236.403 50.0491 237.072 49.2498 238.159C48.4506 239.246 48.2124 240.789 48.8542 241.981C49.5929 243.358 51.3126 243.978 52.8707 243.873C54.4329 243.768 55.8861 243.076 57.2949 242.399C59.4384 241.364 61.5818 240.334 63.7293 239.299C63.798 239.383 63.8625 239.472 63.9312 239.556C66.1594 242.335 68.6137 244.932 71.2618 247.316C69.0941 246.346 66.6075 246.193 64.2258 246.362C62.8776 246.459 61.5132 246.656 60.274 247.191C59.0347 247.731 57.9165 248.641 57.3514 249.869C56.7903 251.098 56.871 252.656 57.7389 253.691C58.7441 254.891 60.5484 255.149 62.0582 254.73C63.5638 254.311 64.8475 253.341 66.0868 252.39C68.0365 250.896 69.9862 249.406 71.9399 247.912C71.9762 247.944 72.0166 247.977 72.0529 248.009L72.0449 248.077C72.0449 248.077 72.0731 248.049 72.0852 248.037C74.697 250.316 77.4903 252.386 80.4331 254.222C78.3017 254.186 76.1542 254.786 74.1641 255.608C72.8926 256.135 71.6372 256.763 70.6119 257.678C69.5865 258.596 68.7954 259.836 68.646 261.201C68.4966 262.566 69.0739 264.048 70.2445 264.769C71.6008 265.607 73.4294 265.276 74.7535 264.39C76.0775 263.501 77.0019 262.152 77.898 260.835C79.1696 258.966 80.4411 257.094 81.7127 255.225C81.7611 255.177 81.8096 255.129 81.858 255.076C85.156 257.009 88.6235 258.644 92.2201 259.945C92.5996 260.082 92.8862 259.518 92.5027 259.377C88.9666 258.1 85.5596 256.498 82.3182 254.609C83.8723 253.022 85.4305 251.436 86.9846 249.849C88.0785 248.734 89.1967 247.578 89.7941 246.136C90.3915 244.695 90.3511 242.87 89.2774 241.735V241.743Z" fill="#85AAD6"/>
<path d="M261.796 36.7337L94.0163 35.9766C90.6941 35.9605 87.9855 38.6384 87.9734 41.9526L86.8634 286.32C86.8472 289.634 89.5316 292.336 92.8538 292.348L260.634 293.105C263.956 293.121 266.665 290.443 266.677 287.129L267.787 42.762C267.803 39.4479 265.118 36.7458 261.796 36.7337Z" fill="#156BA8"/>
<path d="M106.683 43.8223H247.966C252.225 43.8223 255.68 47.2734 255.68 51.5178V266.661C255.68 270.91 252.225 274.357 247.966 274.357H106.683C102.424 274.357 98.9688 270.906 98.9688 266.661V51.5218C98.9688 47.2734 102.424 43.8263 106.683 43.8263V43.8223Z" fill="white"/>
<path d="M165.999 58.1094H117.151C114.229 58.1094 111.859 60.473 111.859 63.3887V116.206C111.859 119.122 114.229 121.485 117.151 121.485H165.999C168.922 121.485 171.291 119.122 171.291 116.206V63.3887C171.291 60.473 168.922 58.1094 165.999 58.1094Z" fill="#D1EEFF"/>
<path d="M137.337 112.587H137.321C137.281 112.595 137.22 112.607 137.16 112.619C136.926 112.663 136.558 112.732 136.134 112.812C136.07 112.824 136.005 112.837 135.941 112.849C135.085 113.014 134.076 113.211 133.555 113.328C132.941 113.469 132.235 113.666 131.48 113.9C131.476 113.867 131.46 113.843 131.448 113.815C131.448 113.815 125.776 115.478 123.152 117.991C122.087 118.949 121.118 120.137 120.246 121.486H162.97C161.529 119.05 159.818 117.109 157.787 116.03C157.783 116.022 157.775 116.022 157.775 116.022C155.95 114.87 153.775 114.355 152.757 114.161C152.749 114.153 152.745 114.153 152.737 114.153C150.691 113.586 148.592 113.219 146.989 113.034C146.92 113.026 146.852 113.022 146.779 113.018C146.71 113.01 146.638 113.002 146.565 112.994C146.557 112.994 146.549 112.994 146.541 112.99C146.48 112.985 146.424 112.981 146.367 112.977C146.331 112.977 146.299 112.973 146.262 112.969C146.242 112.965 146.222 112.961 146.198 112.961C145.843 112.72 145.6 112.305 145.447 111.765C145.378 111.52 145.326 111.242 145.286 110.952C145.273 110.722 145.221 109.663 145.213 108.504C152.124 106.575 154.61 102.081 155.422 98.2227C159.289 97.0911 159.301 92.142 158.38 90.4306C158.041 89.7983 157.533 89.6735 157.008 89.7863C158.049 88.0023 158.97 85.4492 158.711 82.1592C158.675 80.8223 158.437 79.8196 158.162 79.1108C158.154 79.0826 158.15 79.0585 158.142 79.0303H158.134C157.751 78.0799 157.327 77.6732 157.327 77.6732C155.934 70.4891 146.787 69.9092 143.199 70.3764C144.151 69.1361 147.691 69.4824 147.691 69.4824C144.728 68.2219 143.134 69.3092 142.355 70.3039C142.815 68.8864 143.542 68.3105 143.542 68.3105C142.355 68.6528 141.996 69.6072 141.895 70.2958C141.564 69.6797 140.89 68.8864 139.642 68.983C139.642 68.983 140.437 69.2528 141.309 70.2757C136.328 68.834 128.885 71.9871 126.818 78.0316C126.454 78.5994 126.051 79.3887 125.635 80.5082C124.892 82.5055 125.102 85.264 125.102 85.264L125.849 84.672C125.849 84.672 125.579 87.3057 126.576 89.754C126.192 89.7702 125.837 89.9554 125.579 90.4306C124.642 92.1662 124.674 97.2401 128.719 98.271C128.981 99.1046 129.292 99.9261 129.672 100.723C131.27 104.082 134.407 107.291 138.282 108.528C138.266 109.446 138.25 110.275 138.133 111.004C138.003 111.822 137.858 112.059 137.333 112.587H137.337Z" fill="white"/>
<path d="M241.167 62.6113H181.881C180.984 62.6113 180.258 63.3362 180.258 64.2302C180.258 65.1241 180.984 65.849 181.881 65.849H241.167C242.063 65.849 242.79 65.1241 242.79 64.2302C242.79 63.3362 242.063 62.6113 241.167 62.6113Z" fill="#D1EEFF"/>
<path d="M215.853 78.7188H181.206C180.682 78.7188 180.258 79.1416 180.258 79.6651C180.258 80.1886 180.682 80.6114 181.206 80.6114H215.853C216.378 80.6114 216.802 80.1886 216.802 79.6651C216.802 79.1416 216.378 78.7188 215.853 78.7188Z" fill="#D1EEFF"/>
<path d="M227.455 94.8965H181.513C180.819 94.8965 180.254 95.3193 180.254 95.8428C180.254 96.3663 180.819 96.7892 181.513 96.7892H227.455C228.149 96.7892 228.714 96.3663 228.714 95.8428C228.714 95.3193 228.149 94.8965 227.455 94.8965Z" fill="#D1EEFF"/>
<path d="M128.435 139.04H226.223C226.84 139.04 227.341 138.54 227.341 137.924C227.341 137.308 226.84 136.809 226.223 136.809H128.435C127.817 136.809 127.316 137.308 127.316 137.924C127.316 138.54 127.817 139.04 128.435 139.04Z" fill="#D1EEFF"/>
<path d="M127.316 191.467C127.316 192.083 127.817 192.582 128.435 192.582H226.223C226.84 192.582 227.341 192.083 227.341 191.467C227.341 190.851 226.84 190.352 226.223 190.352H128.435C127.817 190.352 127.316 190.851 127.316 191.467Z" fill="#D1EEFF"/>
<path d="M119.634 151.161H150.058C150.676 151.161 151.176 150.661 151.176 150.045C151.176 149.429 150.676 148.93 150.058 148.93H119.634C119.016 148.93 118.516 149.429 118.516 150.045C118.516 150.661 119.016 151.161 119.634 151.161Z" fill="#D1EEFF"/>
<path d="M119.634 165.288H139.975C140.592 165.288 141.093 164.788 141.093 164.172C141.093 163.556 140.592 163.057 139.975 163.057H119.634C119.016 163.057 118.516 163.556 118.516 164.172C118.516 164.788 119.016 165.288 119.634 165.288Z" fill="#D1EEFF"/>
<path d="M158.043 150.045C158.043 150.661 158.544 151.161 159.161 151.161H236.871C237.489 151.161 237.985 150.661 237.985 150.045C237.985 149.429 237.485 148.93 236.871 148.93H159.161C158.544 148.93 158.043 149.429 158.043 150.045Z" fill="#D1EEFF"/>
<path d="M119.634 207.04H139.975C140.592 207.04 141.093 206.54 141.093 205.924C141.093 205.308 140.592 204.809 139.975 204.809H119.634C119.016 204.809 118.516 205.308 118.516 205.924C118.516 206.54 119.016 207.04 119.634 207.04Z" fill="#D1EEFF"/>
<path d="M145.186 253.613H117.099C116.481 253.613 115.98 254.113 115.98 254.729C115.98 255.345 116.481 255.844 117.099 255.844H145.186C145.803 255.844 146.304 255.345 146.304 254.729C146.304 254.113 145.803 253.613 145.186 253.613Z" fill="#D1EEFF"/>
<path d="M236.959 253.613H208.872C208.254 253.613 207.754 254.113 207.754 254.729C207.754 255.345 208.254 255.844 208.872 255.844H236.959C237.577 255.844 238.077 255.345 238.077 254.729C238.077 254.113 237.577 253.613 236.959 253.613Z" fill="#D1EEFF"/>
<path d="M237.985 205.924C237.985 205.308 237.485 204.809 236.871 204.809H159.161C158.544 204.809 158.043 205.308 158.043 205.924C158.043 206.54 158.544 207.04 159.161 207.04H236.871C237.489 207.04 237.985 206.54 237.985 205.924Z" fill="#D1EEFF"/>
<path d="M230.64 165.288C231.258 165.288 231.759 164.788 231.759 164.172C231.759 163.556 231.258 163.057 230.64 163.057H152.931C152.313 163.057 151.812 163.556 151.812 164.172C151.812 164.788 152.313 165.288 152.931 165.288H230.64Z" fill="#D1EEFF"/>
<path d="M119.634 180.526H150.058C150.676 180.526 151.176 180.027 151.176 179.41C151.176 178.794 150.676 178.295 150.058 178.295H119.634C119.016 178.295 118.516 178.794 118.516 179.41C118.516 180.027 119.016 180.526 119.634 180.526Z" fill="#D1EEFF"/>
<path d="M236.63 179.414C236.63 178.798 236.129 178.299 235.515 178.299H157.806C157.188 178.299 156.688 178.798 156.688 179.414C156.688 180.03 157.188 180.53 157.806 180.53H235.515C236.133 180.53 236.63 180.03 236.63 179.414Z" fill="#D1EEFF"/>
<path d="M122.007 230.053H140.277C141.734 230.053 142.917 231.233 142.917 232.686V237.95C142.917 239.403 141.734 240.583 140.277 240.583H122.007C120.55 240.583 119.367 239.403 119.367 237.95V232.686C119.367 231.233 120.55 230.053 122.007 230.053Z" fill="#D1EEFF"/>
<path d="M213.777 230.053H232.047C233.504 230.053 234.687 231.233 234.687 232.686V237.95C234.687 239.403 233.504 240.583 232.047 240.583H213.777C212.319 240.583 211.137 239.403 211.137 237.95V232.686C211.137 231.233 212.319 230.053 213.777 230.053Z" fill="#D1EEFF"/>
<path d="M217.135 34.5474L183.502 34.3944L183.526 29.1795C183.542 25.7807 180.793 23.0142 177.386 22.9981C173.979 22.982 171.206 25.7244 171.194 29.1231L171.17 34.338L137.536 34.185C136.116 34.1769 134.961 35.3206 134.957 36.7381C134.953 38.1555 136.095 39.3073 137.516 39.3113L143.236 39.3354L143.2 47.333V48.0296C143.196 48.4847 143.563 48.8592 144.023 48.8592H144.851L170.912 48.98C171.255 48.98 171.562 49.1974 171.683 49.5156C171.747 49.6928 171.824 49.8659 171.905 50.031C172.873 52.0042 174.9 53.3653 177.253 53.3774C179.603 53.3895 181.645 52.0445 182.63 50.0793C182.715 49.9142 182.792 49.7411 182.856 49.5639C182.981 49.2417 183.288 49.0323 183.631 49.0323L209.692 49.1491H210.519C210.976 49.1531 211.351 48.7867 211.351 48.3316V47.635L211.391 39.6375L217.111 39.6616C218.532 39.6697 219.687 38.526 219.691 37.1085C219.695 35.6911 218.552 34.5393 217.131 34.5353L217.135 34.5474ZM177.374 26.3123C178.803 26.3203 179.954 27.4801 179.95 28.9016C179.942 30.3272 178.779 31.4748 177.354 31.4708C175.925 31.4628 174.775 30.303 174.779 28.8775C174.787 27.4519 175.949 26.3042 177.374 26.3083V26.3123ZM209.704 46.8135C209.704 47.2685 209.329 47.639 208.872 47.635L182.509 47.5142C182.117 47.5142 181.794 47.784 181.698 48.1625C181.189 50.1317 179.397 51.5854 177.265 51.5733C175.134 51.5653 173.35 50.0954 172.861 48.1222C172.768 47.7437 172.446 47.4699 172.054 47.4659L145.687 47.345C145.23 47.345 144.859 46.9705 144.863 46.5155L144.895 39.3435L171.15 39.4603V39.9032L183.482 39.9596V39.5167L209.74 39.6334L209.708 46.8054L209.704 46.8135Z" fill="#265D9E"/>
<path d="M320.901 151.332L230.722 125.225C226.193 123.912 221.458 126.514 220.146 131.032L179.392 271.125C178.076 275.644 180.684 280.367 185.213 281.68L275.392 307.787C282.771 309.925 290.493 305.689 292.632 298.323L330.387 168.535C332.531 161.174 328.284 153.47 320.901 151.336V151.332Z" fill="#062B6B"/>
<path d="M283 232.47C283.064 232.248 283.125 232.019 283.182 231.797C283.282 231.395 283.379 230.988 283.46 230.585C283.484 230.485 283.508 230.388 283.529 230.283C283.682 229.502 283.811 228.717 283.9 227.936C284.11 226.196 284.162 224.464 284.07 222.761C284.049 222.258 284.005 221.762 283.952 221.267C283.928 221.074 283.908 220.88 283.884 220.687C283.799 220.019 283.694 219.358 283.569 218.702L283.444 218.106C282.992 215.992 282.314 213.938 281.422 211.977C281.321 211.755 281.22 211.534 281.115 211.312C280.84 210.736 280.542 210.169 280.227 209.609C280.001 209.194 279.762 208.791 279.512 208.393C275.673 202.215 269.606 197.367 262.054 195.18C254.505 192.994 246.791 193.847 240.223 197.017C239.799 197.218 239.38 197.431 238.96 197.661C238.399 197.959 237.842 198.285 237.297 198.627C237.091 198.76 236.885 198.893 236.679 199.026C234.879 200.206 233.204 201.579 231.686 203.126L231.262 203.565C230.802 204.052 230.354 204.551 229.93 205.075C229.805 205.228 229.684 205.377 229.558 205.53C229.248 205.92 228.949 206.319 228.654 206.73C227.661 208.119 226.777 209.609 226.018 211.192C225.679 211.9 225.36 212.629 225.078 213.374C225.041 213.471 225.009 213.563 224.973 213.664C224.827 214.051 224.686 214.441 224.557 214.836C224.484 215.049 224.416 215.275 224.351 215.5C224.315 215.609 224.283 215.718 224.25 215.827C224.129 216.249 224.012 216.676 223.911 217.099C223.705 217.925 223.544 218.75 223.415 219.572C223.289 220.361 223.197 221.158 223.136 221.944C223.104 222.338 223.084 222.733 223.072 223.123C223.043 223.8 223.047 224.472 223.063 225.145C223.1 226.184 223.185 227.215 223.322 228.242C223.342 228.395 223.366 228.548 223.39 228.705C223.499 229.426 223.633 230.134 223.79 230.835C223.822 230.992 223.863 231.149 223.907 231.306C224.089 232.071 224.307 232.832 224.553 233.577C224.799 234.342 225.078 235.095 225.389 235.84C225.812 236.863 226.297 237.866 226.834 238.837C227.403 239.871 228.033 240.878 228.723 241.841C232.57 247.237 238.201 251.425 245.055 253.422C245.071 253.426 245.087 253.434 245.104 253.438C245.124 253.442 245.14 253.446 245.16 253.45C252.022 255.424 259.022 254.888 265.162 252.387C266.264 251.944 267.334 251.433 268.371 250.861C269.348 250.325 270.292 249.742 271.201 249.101C271.867 248.638 272.505 248.151 273.122 247.635C273.732 247.14 274.321 246.609 274.886 246.061C275.007 245.952 275.124 245.839 275.237 245.723C275.746 245.215 276.242 244.692 276.719 244.14C276.816 244.019 276.921 243.902 277.022 243.786C277.688 242.996 278.313 242.167 278.903 241.309C279.278 240.753 279.641 240.186 279.98 239.598C280.178 239.255 280.372 238.913 280.558 238.563C280.929 237.862 281.276 237.141 281.595 236.408C281.926 235.643 282.233 234.862 282.503 234.053C282.649 233.642 282.782 233.219 282.903 232.796C282.935 232.687 282.968 232.579 282.992 232.47H283ZM281.078 227.122C280.998 227.907 280.885 228.689 280.735 229.478C280.715 229.579 280.695 229.679 280.671 229.78L272.706 227.472C273.32 224.895 273.707 222.322 273.861 219.809L281.103 221.907C281.26 223.627 281.26 225.37 281.074 227.122H281.078ZM269.445 229.047C268.75 231.439 267.874 233.698 266.869 235.8L261.363 234.206C262.211 232.003 262.994 229.691 263.684 227.307C263.725 227.174 263.757 227.042 263.797 226.909L269.574 228.58C269.529 228.737 269.493 228.89 269.445 229.043V229.047ZM237.648 219.841C237.692 219.684 237.745 219.535 237.789 219.382L243.566 221.054C243.525 221.186 243.485 221.315 243.449 221.448C242.754 223.832 242.173 226.2 241.709 228.515L236.203 226.921C236.477 224.609 236.954 222.237 237.648 219.841ZM261.392 226.643C260.689 229.055 259.894 231.363 259.038 233.529L252.676 231.689L254.824 224.311L261.505 226.244C261.468 226.377 261.432 226.51 261.392 226.643ZM245.741 222.113C245.782 221.98 245.822 221.851 245.858 221.718L252.539 223.651L250.392 231.028L244.03 229.188C244.47 226.901 245.039 224.525 245.737 222.113H245.741ZM261.941 199.832C262.946 200.75 263.62 202.518 263.959 204.897L260.738 203.963L261.941 199.832ZM259.664 199.171L258.461 203.303L255.24 202.369C256.806 200.54 258.324 199.409 259.664 199.171ZM257.92 205.171L255.773 212.549L249.988 210.873C251.264 208.208 252.612 205.884 253.956 204.024L257.92 205.171ZM255.232 214.413L253.084 221.79L246.436 219.866C247.263 217.308 248.184 214.884 249.169 212.657L255.232 214.413ZM249.855 232.893L247.707 240.27L242.924 238.885C242.976 236.533 243.231 233.904 243.691 231.109L249.855 232.893ZM247.166 242.135L245.192 248.92C243.808 247.656 243.053 244.776 242.932 240.906L247.166 242.131V242.135ZM247.469 249.58L249.443 242.795L253.678 244.019C251.502 247.221 249.318 249.25 247.469 249.58ZM249.984 240.931L252.131 233.553L258.295 235.337C257.181 237.947 255.986 240.302 254.767 242.316L249.984 240.931ZM255.361 222.451L257.508 215.074L263.571 216.829C263.208 219.233 262.687 221.774 262.009 224.376L255.361 222.451ZM258.049 213.205L260.197 205.828L264.161 206.975C264.294 209.267 264.189 211.949 263.834 214.88L258.049 213.205ZM266.744 207.724L270.034 208.675C270.761 211.175 271.152 213.994 271.176 217.002L266.207 215.565C266.583 212.782 266.768 210.141 266.744 207.72V207.724ZM266.672 205.683C266.567 204.011 266.345 202.526 266.022 201.237C267.346 202.626 268.432 204.386 269.263 206.432L266.672 205.683ZM255.466 198.18C254.501 199.095 253.516 200.23 252.531 201.587L249.94 200.838C251.74 199.554 253.605 198.648 255.466 198.18ZM251.369 203.275C250.053 205.304 248.789 207.636 247.614 210.185L242.645 208.747C244.28 206.218 246.125 204.048 248.079 202.32L251.369 203.271V203.275ZM246.819 211.977C245.846 214.252 244.946 216.676 244.139 219.201L238.391 217.538C239.283 214.993 240.369 212.621 241.604 210.471L246.819 211.981V211.977ZM241.354 230.432C240.881 233.134 240.579 235.74 240.453 238.172L236.34 236.98C235.932 234.471 235.815 231.745 236.017 228.886L241.354 230.432ZM240.389 240.173C240.381 240.854 240.389 241.523 240.413 242.171C240.494 244.321 240.756 246.19 241.176 247.752C239.129 245.654 237.632 242.67 236.772 239.126L240.389 240.173ZM251.49 250.74C252.68 249.645 253.904 248.207 255.127 246.435C255.494 245.904 255.857 245.34 256.221 244.76L259.837 245.807C257.206 248.34 254.344 250.06 251.49 250.74ZM257.242 243.033C258.441 240.91 259.583 238.551 260.637 236.014L265.973 237.56C264.609 240.081 263.047 242.32 261.355 244.225L257.242 243.033ZM264.306 225.04C264.98 222.479 265.521 219.95 265.917 217.506L271.132 219.016C271.019 221.497 270.668 224.078 270.054 226.703L264.306 225.04ZM280.247 217.176C280.303 217.377 280.352 217.578 280.404 217.78C280.574 218.444 280.715 219.121 280.832 219.797L273.938 217.8C273.974 214.925 273.707 212.154 273.122 209.565L277.643 210.873C278.765 212.851 279.641 214.969 280.251 217.172L280.247 217.176ZM276.049 208.397L272.537 207.382C272.004 205.654 271.338 204.08 270.547 202.679C272.23 203.987 273.744 205.469 275.068 207.104C275.407 207.523 275.738 207.954 276.049 208.397ZM244.672 198.305C246.666 197.629 248.745 197.186 250.868 196.98C249.447 197.742 248.038 198.716 246.662 199.892L243.15 198.877C243.65 198.668 244.163 198.482 244.672 198.309V198.305ZM234.431 204.475C234.58 204.33 234.737 204.189 234.891 204.048C236.586 202.505 238.467 201.193 240.478 200.121L244.995 201.43C243.114 203.307 241.398 205.506 239.888 207.95L232.986 205.952C233.45 205.441 233.93 204.946 234.431 204.479V204.475ZM227.875 214.171C228.17 213.426 228.497 212.702 228.852 212.001C229.639 210.422 230.572 208.949 231.629 207.579L238.871 209.677C237.652 211.884 236.602 214.264 235.735 216.769L227.766 214.461C227.798 214.365 227.835 214.272 227.875 214.171ZM225.998 222.765C226.034 221.976 226.119 221.178 226.232 220.377C226.349 219.551 226.511 218.726 226.705 217.896C226.809 217.47 226.918 217.043 227.04 216.62C227.072 216.511 227.104 216.402 227.14 216.294L235.141 218.609C235.097 218.762 235.044 218.915 235 219.068C234.314 221.428 233.817 223.8 233.514 226.136L225.958 223.949C225.958 223.55 225.974 223.156 225.998 222.761V222.765ZM227.169 232.24C227.116 232.083 227.068 231.922 227.019 231.761C226.818 231.048 226.636 230.328 226.491 229.595C226.458 229.438 226.43 229.281 226.398 229.124C226.208 228.089 226.075 227.042 226.006 225.991L233.304 228.105C233.07 230.871 233.107 233.569 233.422 236.138L228 234.568C227.681 233.803 227.407 233.03 227.169 232.24ZM230.987 240.033C230.281 239.03 229.647 237.987 229.086 236.904L233.753 238.253C233.922 239.147 234.124 240.02 234.362 240.87C234.851 242.606 235.48 244.192 236.223 245.618C235.315 244.881 234.451 244.096 233.648 243.258C232.679 242.247 231.787 241.172 230.991 240.033H230.987ZM264.233 249.657C262.95 250.188 261.618 250.627 260.257 250.962C259.131 251.244 257.981 251.445 256.814 251.582C258.207 250.776 259.587 249.774 260.935 248.566C261.593 247.978 262.231 247.345 262.853 246.681L267.519 248.03C266.466 248.646 265.364 249.186 264.233 249.657ZM273.966 242.896C273.857 243.012 273.748 243.129 273.639 243.242C273.126 243.782 272.585 244.293 272.028 244.788C271.903 244.901 271.774 245.01 271.645 245.115C271.019 245.65 270.369 246.158 269.691 246.637L264.27 245.066C265.913 243.065 267.394 240.806 268.682 238.345L275.98 240.459C275.354 241.313 274.684 242.127 273.97 242.896H273.966ZM269.558 236.577C270.555 234.439 271.411 232.176 272.097 229.816C272.141 229.663 272.182 229.506 272.226 229.353L280.223 231.669C280.194 231.777 280.166 231.886 280.134 231.995C280.013 232.418 279.88 232.836 279.738 233.251C279.464 234.057 279.153 234.838 278.806 235.599C278.479 236.336 278.115 237.053 277.728 237.741C277.534 238.088 277.328 238.43 277.118 238.764L269.562 236.577H269.558Z" fill="white"/>
<path d="M224.749 160.807L223.465 165.213L221.875 164.754L225.302 152.971L228.79 153.981C229.537 154.199 230.162 154.473 230.663 154.803C231.163 155.137 231.551 155.512 231.821 155.935C232.092 156.357 232.249 156.82 232.298 157.32C232.346 157.823 232.29 158.347 232.128 158.902C231.967 159.458 231.724 159.925 231.402 160.324C231.079 160.723 230.683 161.033 230.215 161.254C229.746 161.476 229.214 161.6 228.612 161.625C228.011 161.649 227.353 161.56 226.646 161.355L224.749 160.807ZM225.116 159.543L227.014 160.09C227.47 160.223 227.89 160.28 228.273 160.259C228.657 160.239 229 160.155 229.298 160.01C229.597 159.861 229.851 159.655 230.061 159.39C230.271 159.124 230.429 158.81 230.534 158.447C230.752 157.698 230.691 157.042 230.348 156.486C230.005 155.931 229.367 155.516 228.427 155.242L226.529 154.694L225.116 159.547V159.543Z" fill="white"/>
<path d="M242.014 170.584L240.779 170.226C240.637 170.185 240.532 170.117 240.464 170.02C240.395 169.924 240.359 169.815 240.347 169.69L240.068 166.525L234.768 164.991L232.834 167.516C232.766 167.604 232.677 167.673 232.56 167.721C232.443 167.769 232.318 167.777 232.181 167.737L230.945 167.379L239.095 156.961L240.718 157.432L242.014 170.584ZM235.547 163.968L239.955 165.244L239.495 159.913C239.459 159.582 239.451 159.176 239.463 158.701C239.338 158.906 239.216 159.099 239.103 159.268C238.99 159.442 238.885 159.591 238.789 159.715L235.543 163.964L235.547 163.968Z" fill="white"/>
<path d="M254.096 163.305C254.023 163.373 253.951 163.417 253.886 163.445C253.817 163.47 253.741 163.47 253.652 163.445C253.559 163.417 253.462 163.341 253.365 163.212C253.268 163.083 253.143 162.934 252.986 162.769C252.828 162.6 252.631 162.435 252.392 162.262C252.154 162.092 251.843 161.951 251.464 161.843C251.105 161.738 250.778 161.698 250.475 161.714C250.172 161.73 249.906 161.794 249.672 161.903C249.442 162.016 249.244 162.169 249.086 162.362C248.929 162.556 248.812 162.785 248.735 163.043C248.638 163.373 248.642 163.667 248.739 163.933C248.84 164.194 248.998 164.444 249.22 164.674C249.442 164.903 249.704 165.125 250.011 165.334C250.318 165.544 250.628 165.761 250.947 165.982C251.266 166.204 251.573 166.442 251.868 166.691C252.162 166.941 252.409 167.219 252.606 167.525C252.804 167.831 252.937 168.177 253.002 168.56C253.067 168.942 253.026 169.377 252.885 169.864C252.736 170.38 252.505 170.839 252.199 171.238C251.892 171.64 251.521 171.958 251.085 172.196C250.649 172.434 250.156 172.575 249.611 172.627C249.062 172.675 248.477 172.611 247.851 172.43C247.088 172.208 246.43 171.87 245.881 171.411C245.332 170.952 244.904 170.424 244.598 169.82L245.28 169.196C245.34 169.148 245.409 169.111 245.486 169.091C245.562 169.067 245.635 169.067 245.716 169.091C245.833 169.123 245.946 169.224 246.059 169.389C246.172 169.554 246.317 169.744 246.499 169.957C246.681 170.17 246.907 170.384 247.189 170.597C247.468 170.811 247.839 170.984 248.295 171.117C248.675 171.226 249.026 171.274 249.353 171.254C249.68 171.238 249.974 171.161 250.237 171.032C250.499 170.903 250.721 170.722 250.907 170.493C251.093 170.263 251.234 169.985 251.327 169.659C251.432 169.305 251.436 168.987 251.339 168.713C251.242 168.439 251.085 168.185 250.867 167.956C250.649 167.726 250.386 167.509 250.079 167.303C249.773 167.098 249.458 166.888 249.135 166.675C248.812 166.462 248.505 166.228 248.21 165.982C247.916 165.737 247.67 165.459 247.476 165.145C247.282 164.831 247.153 164.476 247.092 164.078C247.032 163.679 247.08 163.216 247.23 162.696C247.351 162.282 247.548 161.899 247.823 161.557C248.097 161.215 248.432 160.937 248.828 160.723C249.224 160.51 249.676 160.381 250.18 160.329C250.685 160.28 251.234 160.341 251.819 160.51C252.477 160.699 253.05 160.981 253.535 161.343C254.019 161.71 254.407 162.149 254.697 162.66L254.088 163.305H254.096Z" fill="white"/>
<path d="M264.483 166.312C264.41 166.381 264.337 166.425 264.273 166.453C264.204 166.477 264.127 166.477 264.039 166.453C263.946 166.425 263.849 166.349 263.752 166.22C263.655 166.091 263.53 165.942 263.373 165.777C263.215 165.608 263.017 165.443 262.779 165.269C262.541 165.1 262.23 164.959 261.851 164.851C261.491 164.746 261.165 164.706 260.862 164.722C260.559 164.738 260.293 164.802 260.058 164.911C259.828 165.024 259.631 165.177 259.473 165.37C259.316 165.563 259.199 165.793 259.122 166.051C259.025 166.381 259.029 166.675 259.126 166.941C259.227 167.202 259.384 167.452 259.606 167.681C259.828 167.911 260.091 168.133 260.398 168.342C260.704 168.551 261.015 168.769 261.334 168.99C261.653 169.212 261.96 169.449 262.254 169.699C262.549 169.949 262.795 170.227 262.993 170.533C263.191 170.839 263.324 171.185 263.389 171.568C263.453 171.95 263.413 172.385 263.272 172.872C263.122 173.388 262.892 173.847 262.585 174.245C262.279 174.648 261.907 174.966 261.471 175.204C261.035 175.441 260.543 175.582 259.998 175.635C259.449 175.683 258.864 175.619 258.238 175.437C257.475 175.216 256.817 174.878 256.268 174.419C255.719 173.96 255.291 173.432 254.984 172.828L255.667 172.204C255.727 172.155 255.796 172.119 255.872 172.099C255.949 172.075 256.022 172.075 256.103 172.099C256.22 172.131 256.333 172.232 256.446 172.397C256.559 172.562 256.704 172.751 256.886 172.965C257.067 173.178 257.293 173.392 257.576 173.605C257.854 173.819 258.226 173.992 258.682 174.125C259.061 174.233 259.413 174.282 259.74 174.262C260.067 174.245 260.361 174.169 260.624 174.04C260.886 173.911 261.108 173.73 261.294 173.5C261.479 173.271 261.621 172.993 261.714 172.667C261.818 172.312 261.822 171.994 261.726 171.721C261.629 171.447 261.471 171.193 261.253 170.963C261.035 170.734 260.773 170.516 260.466 170.311C260.159 170.106 259.845 169.896 259.522 169.683C259.199 169.469 258.892 169.236 258.597 168.99C258.303 168.745 258.056 168.467 257.863 168.153C257.669 167.839 257.54 167.484 257.479 167.086C257.418 166.687 257.467 166.224 257.616 165.704C257.737 165.289 257.935 164.907 258.21 164.565C258.484 164.222 258.819 163.944 259.215 163.731C259.61 163.518 260.063 163.389 260.567 163.336C261.072 163.288 261.621 163.349 262.206 163.518C262.864 163.707 263.437 163.989 263.922 164.351C264.406 164.718 264.793 165.157 265.084 165.668L264.475 166.312H264.483Z" fill="white"/>
<path d="M268.964 173.608L267.68 178.013L266.09 177.554L269.517 165.771L273.005 166.782C273.751 167 274.377 167.274 274.878 167.604C275.378 167.938 275.766 168.312 276.036 168.735C276.307 169.158 276.464 169.621 276.513 170.121C276.561 170.624 276.504 171.147 276.343 171.703C276.182 172.259 275.939 172.726 275.616 173.125C275.293 173.523 274.898 173.833 274.43 174.055C273.961 174.276 273.429 174.401 272.827 174.425C272.226 174.45 271.568 174.361 270.861 174.156L268.964 173.608ZM269.331 172.339L271.229 172.887C271.685 173.02 272.104 173.076 272.488 173.056C272.871 173.036 273.215 172.952 273.513 172.807C273.812 172.658 274.066 172.452 274.276 172.186C274.486 171.921 274.644 171.607 274.748 171.244C274.966 170.495 274.906 169.839 274.563 169.283C274.22 168.727 273.582 168.312 272.641 168.039L270.744 167.491L269.331 172.343V172.339Z" fill="white"/>
<path d="M290.327 178.187C290.069 179.069 289.693 179.838 289.201 180.495C288.704 181.151 288.127 181.671 287.461 182.053C286.795 182.436 286.06 182.673 285.257 182.758C284.454 182.843 283.618 182.758 282.75 182.508C281.882 182.259 281.132 181.88 280.506 181.381C279.876 180.881 279.384 180.289 279.029 179.613C278.673 178.932 278.459 178.183 278.395 177.366C278.33 176.548 278.423 175.699 278.681 174.813C278.94 173.927 279.315 173.162 279.808 172.505C280.304 171.849 280.881 171.329 281.547 170.943C282.213 170.556 282.948 170.319 283.747 170.23C284.547 170.142 285.382 170.222 286.25 170.472C287.118 170.721 287.869 171.1 288.499 171.603C289.128 172.107 289.625 172.699 289.98 173.383C290.335 174.064 290.545 174.817 290.614 175.634C290.678 176.452 290.586 177.301 290.327 178.187ZM288.688 177.716C288.898 176.991 288.987 176.315 288.959 175.683C288.926 175.05 288.789 174.483 288.543 173.979C288.297 173.476 287.946 173.045 287.489 172.678C287.033 172.316 286.488 172.042 285.851 171.857C285.213 171.672 284.611 171.615 284.034 171.68C283.457 171.744 282.924 171.921 282.444 172.215C281.963 172.509 281.539 172.912 281.176 173.432C280.813 173.951 280.522 174.571 280.312 175.296C280.102 176.021 280.014 176.697 280.042 177.326C280.074 177.954 280.215 178.522 280.462 179.025C280.708 179.528 281.063 179.959 281.519 180.322C281.975 180.684 282.516 180.954 283.15 181.135C283.784 181.316 284.393 181.381 284.975 181.32C285.552 181.26 286.081 181.083 286.561 180.789C287.037 180.495 287.461 180.092 287.824 179.577C288.188 179.061 288.478 178.441 288.688 177.716Z" fill="white"/>
<path d="M295.637 180.776L294.208 185.693L292.617 185.234L296.044 173.451L299.383 174.418C300.129 174.635 300.755 174.897 301.256 175.203C301.756 175.513 302.14 175.859 302.414 176.246C302.685 176.632 302.846 177.055 302.903 177.506C302.955 177.957 302.911 178.433 302.765 178.932C302.644 179.347 302.467 179.717 302.228 180.043C301.99 180.365 301.708 180.635 301.373 180.853C301.038 181.066 300.662 181.223 300.242 181.324C299.823 181.425 299.371 181.457 298.886 181.429C299.052 181.602 299.177 181.819 299.27 182.081L301.353 187.759L299.936 187.348C299.645 187.264 299.463 187.09 299.391 186.825L297.55 181.727C297.493 181.569 297.421 181.445 297.328 181.356C297.235 181.267 297.078 181.191 296.86 181.127L295.649 180.776H295.637ZM295.972 179.616L297.643 180.1C298.111 180.237 298.539 180.297 298.922 180.289C299.31 180.281 299.653 180.204 299.952 180.071C300.251 179.935 300.501 179.741 300.707 179.492C300.908 179.242 301.062 178.944 301.163 178.598C301.369 177.897 301.288 177.301 300.929 176.81C300.569 176.318 299.928 175.94 299.011 175.674L297.263 175.167L295.968 179.616H295.972Z" fill="white"/>
<path d="M315.761 179.158L315.369 180.499L311.554 179.396L308.515 189.838L306.916 189.375L309.956 178.933L306.121 177.821L306.513 176.48L315.761 179.158Z" fill="white"/>
<path d="M266.996 276.626L214.188 261.34C213.712 261.203 213.216 261.477 213.078 261.948C212.941 262.419 213.216 262.919 213.688 263.055L266.496 278.342C266.972 278.479 267.468 278.205 267.606 277.734C267.743 277.263 267.468 276.763 266.996 276.626Z" fill="white"/>
<path d="M255.861 278.274L222.704 268.674C222.228 268.537 221.731 268.811 221.594 269.282C221.457 269.753 221.731 270.253 222.203 270.389L255.361 279.99C255.837 280.127 256.333 279.853 256.471 279.382C256.608 278.91 256.333 278.411 255.861 278.274Z" fill="white"/>
<g style="mix-blend-mode:multiply">
<path d="M185.213 281.675L275.392 307.782C277.35 308.35 279.332 308.463 281.229 308.193C199.809 273.267 200.617 208.304 207.467 174.627L179.396 271.121C178.08 275.639 180.688 280.363 185.217 281.675H185.213Z" fill="#E6E6E6"/>
</g>
</g>
<defs>
<clipPath id="clip0_2381_107883">
<rect width="373" height="318" fill="white"/>
</clipPath>
</defs>
</svg>
