<svg width="438" height="291" viewBox="0 0 438 291" fill="none" xmlns="http://www.w3.org/2000/svg">
<g clip-path="url(#clip0_2384_112498)">
<path d="M31.3773 290.217C31.3773 290.217 -23.1629 236.64 11.5694 173.64C46.3001 110.639 92.9071 142.345 90.6768 69.0029C88.4466 -4.34045 197.915 -10.6049 232.752 10.6735C267.59 31.9519 267.371 57.5641 339.306 49.1145C411.24 40.6649 424.959 111.31 406.233 147.306C379.662 198.379 479.91 189.989 416.711 290.348L31.3773 290.216V290.217Z" fill="#D1EEFF" fill-opacity="0.5"/>
<g opacity="0.5">
<path d="M223.751 98.512C223.751 98.512 219.865 66.0338 203.186 46.6528C200.97 44.077 196.728 45.7163 196.798 49.1119C196.798 49.1677 196.801 49.2252 196.803 49.2828C197.018 55.0763 215.693 79.5148 223.749 98.512H223.751Z" fill="#85AAD6"/>
<path d="M225.778 107.809C225.778 107.809 209.158 67.2142 180.77 49.2616C179.04 48.1664 176.694 48.564 175.534 50.2487C174.779 51.3457 174.438 53.0618 175.287 55.7388C177.549 62.8787 209.209 86.9126 225.778 107.809Z" fill="#85AAD6"/>
</g>
<g opacity="0.5">
<path d="M240.935 89.6898C240.935 89.6898 236.301 72.1052 240.959 58.6869C241.578 56.9046 244.107 56.8871 244.764 58.6573C244.775 58.6869 244.785 58.7166 244.798 58.748C245.871 61.7877 241.215 78.2265 240.935 89.6898Z" fill="#85AAD6"/>
<path d="M241.789 94.9105C241.789 94.9105 242.079 70.5366 253.083 55.472C253.755 54.5529 255.048 54.2809 255.993 54.9157C256.609 55.329 257.135 56.1469 257.245 57.7043C257.537 61.8567 246.082 80.7319 241.789 94.9105Z" fill="#85AAD6"/>
</g>
<path opacity="0.5" d="M183.959 79.5235C183.959 79.5235 182.825 106.383 177.83 105.863C172.835 105.343 181.257 76.0251 181.257 76.0251C181.257 76.0251 159.964 58.9654 150.347 57.694C150.347 57.694 159.366 86.2675 154.652 84.5375C149.938 82.8075 139.168 53.5085 139.168 53.5085C139.168 53.5085 115.648 43.2713 108.321 56.8901C100.995 70.5089 105.675 79.2515 109.104 81.0042C112.534 82.7569 135.968 87.8668 134.657 90.7548C133.346 93.6411 116.44 94.8305 108.276 90.0659C108.276 90.0659 112.418 116.234 125.445 117.977C138.471 119.719 144.247 112.76 152.277 113.983C160.306 115.206 165.579 118.66 161.142 119.865C156.704 121.071 143.685 116.552 136.056 120.481C128.426 124.41 122.493 126.545 133.762 131.709C145.032 136.873 166.625 140.281 172.987 132.181C173.265 131.829 173.528 131.491 173.782 131.168C173.35 131.859 172.987 132.181 172.987 132.181C174.874 133.959 176.737 140.776 177.928 145.952C178.067 146.819 178.324 148.031 178.74 149.695C178.892 150.438 179.011 151.044 179.092 151.468C180.84 162.85 174.444 180.321 174.444 180.321L176.814 181.583C186.635 164.757 180.273 147.59 180.273 147.59C176.65 134.306 179.349 124.082 179.349 124.082C179.349 124.082 205.064 116.639 198.461 96.9215C198.461 96.9215 192.431 84.3561 183.963 79.5218L183.959 79.5235Z" fill="#B7DFF3"/>
<path d="M351.366 86.6555C350.695 72.6216 327.385 71.8386 327.385 71.8386C327.385 71.8386 307.061 91.6729 302.515 91.2526C297.969 90.8323 316.573 70.909 316.573 70.909C308.183 68.1971 284.025 73.8808 284.025 73.8808C284.025 73.8808 279.439 101.225 275.138 99.7005C270.835 98.1763 280.437 75.6963 280.437 75.6963C271.593 76.3572 261.72 84.3116 261.72 84.3116C248.571 97.9112 266.752 114.057 266.752 114.057C266.752 114.057 264.957 123.499 256.775 132.983C256.775 132.983 255.026 134.681 252.949 137.767L255.211 138.264C255.529 137.699 255.861 137.16 256.211 136.647C256.211 136.642 256.214 136.64 256.218 136.638C256.223 136.631 256.228 136.624 256.233 136.615C256.466 136.302 256.798 135.853 257.209 135.309C257.209 135.309 257.209 135.309 257.209 135.307C257.209 135.307 257.209 135.307 257.21 135.306C258.2 134.108 258.887 133.213 259.341 132.559C259.341 132.557 259.344 132.555 259.344 132.552C262.351 128.771 266.551 123.905 268.795 123.185C268.795 123.185 268.622 122.779 268.54 122.044C268.622 122.409 268.706 122.787 268.795 123.185C270.84 132.313 289.891 137.946 301.162 138.11C312.434 138.272 308.404 134.205 303.683 128.002C298.964 121.8 286.511 120.424 283.342 117.704C280.173 114.983 285.853 114.205 292.922 116.338C299.99 118.469 302 126.434 313.371 130.089C324.74 133.745 338.401 113.893 338.401 113.893C329.833 114.613 316.43 107.039 316.485 104.158C316.541 101.277 337.772 106.233 341.273 106.134C344.774 106.036 352.043 100.689 351.372 86.6555H351.366Z" fill="#B7DFF3"/>
<path d="M382.579 258.543C391.549 246.677 373.123 230.302 373.123 230.302C373.123 230.302 343.147 232.711 339.735 229.3C336.323 225.888 364.961 222.247 364.961 222.247C359.978 214.378 336.475 202.69 336.475 202.69C336.475 202.69 314.205 221.83 311.74 217.686C309.274 213.543 332.326 201.743 332.326 201.743C324.686 196.309 311.262 196.113 311.262 196.113C291.345 198.297 295.184 223.7 295.184 223.7C295.184 223.7 287.322 230.166 274.238 232.357C274.238 232.357 271.663 232.557 267.883 233.663L269.384 235.594C270.026 235.35 270.662 235.135 271.295 234.954C271.298 234.95 271.302 234.95 271.307 234.95C271.315 234.948 271.324 234.945 271.335 234.943C271.737 234.844 272.31 234.704 273.013 234.54H273.014C273.014 234.54 273.016 234.54 273.018 234.54C274.635 234.233 275.799 233.97 276.613 233.743C276.617 233.743 276.618 233.743 276.62 233.74C281.628 232.693 288.343 231.574 290.657 232.503C290.657 232.503 290.791 232.057 291.223 231.403C291.043 231.753 290.854 232.12 290.657 232.503C286.13 241.307 297.803 258.75 306.859 266.492C315.914 274.233 315.395 268.204 315.762 259.975C316.129 251.745 306.934 242.219 306.203 237.866C305.473 233.513 310.618 236.717 314.92 243.222C319.221 249.727 315.458 257.561 322.226 268.21C328.993 278.859 353.564 271.937 353.564 271.937C346.108 266.74 340.343 251.53 342.341 249.225C344.341 246.919 358.246 265.283 361.16 267.566C364.073 269.849 373.609 270.409 382.579 258.543Z" fill="#85AAD6"/>
<path d="M64.1846 265.365C53.8149 252.908 73.0285 234.148 73.0285 234.148C73.0285 234.148 105.777 235.239 109.315 231.354C112.854 227.468 81.4984 224.964 81.4984 224.964C86.5198 216.146 111.498 202.227 111.498 202.227C111.498 202.227 136.715 221.922 139.186 217.287C141.658 212.651 115.965 200.984 115.965 200.984C124.001 194.681 138.601 193.781 138.601 193.781C160.387 195.142 157.512 222.984 157.512 222.984C157.512 222.984 166.4 229.622 180.751 231.336C180.751 231.336 183.563 231.423 187.735 232.433L186.199 234.611C185.488 234.378 184.783 234.177 184.088 234.013C184.084 234.01 184.079 234.01 184.075 234.01C184.065 234.008 184.054 234.005 184.046 234.003C183.603 233.916 182.972 233.794 182.198 233.649C182.198 233.649 182.196 233.649 182.195 233.649C182.195 233.649 182.193 233.649 182.191 233.649C180.417 233.398 179.134 233.171 178.238 232.965C178.234 232.965 178.232 232.965 178.229 232.963C172.725 232.081 165.36 231.204 162.888 232.334C162.888 232.334 162.719 231.854 162.215 231.165C162.43 231.539 162.654 231.927 162.888 232.334C168.266 241.683 156.455 261.263 146.997 270.15C137.538 279.038 137.795 272.449 136.974 263.511C136.152 254.573 145.671 243.736 146.244 238.963C146.817 234.189 141.38 237.937 137.031 245.236C132.683 252.534 137.18 260.869 130.362 272.805C123.542 284.739 96.4473 278.459 96.4473 278.459C104.295 272.421 109.79 255.576 107.497 253.169C105.204 250.763 91.0099 271.457 87.9565 274.09C84.9031 276.724 74.5526 277.819 64.1829 265.363L64.1846 265.365Z" fill="#85AAD6"/>
<path d="M90.8193 165.451C90.2268 164.312 103.734 160.21 103.947 171.452C103.947 171.452 129.248 170.831 117.167 156.761C112.985 151.89 113.415 147.861 113.541 144.113C113.668 140.364 110.937 129.466 101.572 130.563C101.572 130.563 99.1196 129.567 96.0592 131.152C89.0995 134.755 73.5073 169.598 90.8211 165.453L90.8193 165.451Z" fill="#282828"/>
<path d="M132.184 176.219C132.184 176.219 133.83 173.718 135.158 173.667C136.485 173.619 138.944 172.931 138.747 173.422C138.549 173.912 137.027 173.96 136.878 174.255C136.731 174.55 139.14 174.991 139.828 175.04C140.517 175.089 142.139 175.04 142.09 175.384C142.041 175.727 139.166 177.148 137.139 176.953C135.111 176.758 132.603 177.543 132.603 177.543L132.185 176.219H132.184Z" fill="#FFB27D"/>
<path d="M108.367 177.03C108.367 177.03 109.262 178.799 110.886 180.83C112.843 183.276 115.86 186.101 119.649 186.659C121.458 186.926 123.229 186.537 124.856 185.817C124.861 185.817 124.861 185.817 124.861 185.817C129.463 183.778 132.922 179.092 132.922 179.092C133.733 176.884 132.406 175.387 132.406 175.387C132.406 175.387 123.115 177.473 122.231 177.03C121.346 176.589 116.183 161.751 114.956 159.887C113.726 158.023 109.538 157.055 109.538 157.055L108.369 177.03H108.367Z" fill="#AEC3FF"/>
<path d="M110.885 180.831C112.842 183.276 115.859 186.102 119.648 186.66C121.457 186.926 123.228 186.538 124.855 185.817C124.675 185.842 120.08 186.407 118.248 183.137C116.38 179.801 114.359 174.504 111.584 176.269C110.387 177.031 110.439 178.925 110.886 180.831H110.885Z" fill="#94B0ED"/>
<path d="M73.7017 277.1C73.7017 277.1 70.8667 279.681 71.419 281.515C71.9713 283.35 74.5301 284.573 74.8762 286.815C75.2222 289.058 76.6048 290.281 77.8492 290.281H83.783C83.783 290.281 84.6988 288.702 82.4861 288.228C80.2734 287.752 79.4397 285.119 79.5778 282.672C79.7158 280.227 79.3698 276.965 79.3698 276.965L74.6682 275.879L73.6999 277.101L73.7017 277.1Z" fill="black"/>
<path d="M97.6982 278.197C97.6982 278.197 96.6775 289.134 97.9237 289.746L113.853 289.713C113.853 289.713 113.853 287.878 111.294 287.47C108.736 287.062 104.242 285.567 103.48 282.238C102.72 278.909 97.6982 278.195 97.6982 278.195V278.197Z" fill="black"/>
<path d="M85.4455 169.653C85.4455 169.653 85.2078 172.993 85.4455 176.999C85.6028 179.655 88.2962 183.212 88.6772 184.093C89.635 186.301 90.7169 186.66 90.7169 186.66L99.0801 188.706L102.02 189.425L111.294 186.66C111.294 186.66 115.518 174.897 113.821 168.275C112.126 161.653 109.534 157.054 109.534 157.054C109.534 157.054 102.415 155.577 92.1134 156.428L85.4437 169.655L85.4455 169.653Z" fill="#AEC3FF"/>
<path d="M87.8906 178.084C88.0479 180.74 88.2926 183.213 88.6754 184.094C89.6332 186.302 90.7151 186.661 90.7151 186.661L99.0783 188.707L102.71 187.641C102.71 187.641 90.584 185.808 91.9281 175.398L87.8906 178.086V178.084Z" fill="#F2CCAA"/>
<path d="M110.705 188.445C110.705 188.445 115.297 202.708 115.592 207.565C115.888 212.42 106.813 276.55 106.449 278.787C106.105 280.896 103.48 282.24 103.48 282.24C103.48 282.24 102.272 282.95 100.551 282.465C98.1596 281.792 97.4046 280.985 97.4046 280.985C97.4046 280.985 93.8303 235.249 96.043 218.911C98.2558 202.573 98.282 188.445 98.282 188.445H110.707H110.705Z" fill="#ED7D2B"/>
<path d="M91.2498 188.017C91.2498 188.017 84.2446 197.397 83.5909 203.736C82.9372 210.075 82.5667 232.344 81.1755 238.525C79.7842 244.706 74.6719 256.6 74.6719 275.876C74.6719 275.876 75.2032 276.982 76.8444 277.569C77.3687 277.758 78.0714 277.941 78.7547 278.096C80.1075 278.405 81.4953 277.746 82.114 276.506C85.5694 269.563 96.5789 247.168 97.1434 242.52C97.5437 239.231 101.018 217.459 108.6 204.683C110.421 201.615 107.483 189.42 107.483 189.42L91.2498 188.016V188.017Z" fill="#F99746"/>
<path d="M111.44 186.242C111.44 186.242 109.596 187.697 105.935 187.772C101.56 187.859 90.7199 186.659 90.7199 186.659C90.7199 186.659 90.2375 188.002 90.2585 189.42C90.2585 189.42 103.498 192.752 111.169 189.906C111.169 189.906 112.158 188.049 111.442 186.244L111.44 186.242Z" fill="#282828"/>
<path d="M104.984 189.278C104.984 188.035 105.879 187.023 106.98 187.023C108.081 187.023 108.976 188.035 108.976 189.278C108.976 190.522 108.081 191.533 106.98 191.533C105.879 191.533 104.984 190.522 104.984 189.278ZM105.645 189.278C105.645 190.157 106.245 190.872 106.98 190.872C107.716 190.872 108.316 190.157 108.316 189.278C108.316 188.399 107.716 187.684 106.98 187.684C106.245 187.684 105.645 188.399 105.645 189.278Z" fill="white"/>
<path d="M76.4721 188.824L90.0352 200.609L106.203 182.083L92.6402 170.298L76.4721 188.824Z" fill="#062B6B"/>
<path d="M93.778 188.867C93.778 188.867 98.7488 189.448 98.733 190.625C98.7173 191.802 97.4938 194.221 96.8804 194.328C96.2669 194.436 92.8359 191.058 92.8359 191.058L93.778 188.867Z" fill="#FFB27D"/>
<path d="M92.1146 156.426C92.1146 156.426 85.48 156.89 82.9352 163.06C80.3921 169.23 75.5664 179.588 75.5664 181.33C75.5664 183.072 78.2615 188.444 92.7386 191.532C92.7386 191.532 94.2365 189.961 94.1456 188.717C94.1456 188.717 85.1077 180.972 85.1321 180.067C85.1776 178.355 86.6143 176.094 94.5476 168.175C96.7044 166.021 92.1129 156.426 92.1129 156.426H92.1146Z" fill="#AEC3FF"/>
<path d="M96.3644 157.15C96.922 155.59 97.6316 151.51 97.6211 148.625L98.0406 148.707L105.1 150.102C105.1 150.102 104.939 152.319 104.934 154.408C104.934 154.425 104.934 154.443 104.934 154.46C104.925 156.274 104.941 157.734 104.75 158.227C104.079 159.968 95.8995 158.444 96.3627 157.15H96.3644Z" fill="#FFB27D"/>
<path d="M105.1 150.102C105.1 150.102 104.939 152.319 104.934 154.408C100.984 154.297 98.8955 150.7 98.0391 148.707L105.098 150.102H105.1Z" fill="#E8945B"/>
<path d="M106.42 152.078C106.42 152.078 97.073 152.232 97.0661 146.422C97.0591 140.613 95.8496 136.719 101.817 136.375C107.784 136.032 108.946 138.247 109.421 140.186C109.897 142.125 108.852 151.888 106.42 152.078Z" fill="#FFB27D"/>
<path d="M106.075 136.236C106.075 136.236 103.516 143.051 99.5885 144.059C95.6611 145.067 93.957 144.017 93.957 144.017C93.957 144.017 96.9702 141.63 97.5942 137.46C97.5942 137.46 104.143 132.992 106.075 136.236Z" fill="#282828"/>
<path d="M105.441 136.787C105.441 136.787 107.34 137.495 108.121 138.876C108.885 140.226 109.535 142.015 109.384 144.209C109.384 144.209 111.312 139.577 109.145 136.956C106.847 134.178 105.441 136.787 105.441 136.787Z" fill="black"/>
<path d="M104.594 148.629C104.594 148.629 104.755 149.314 106.462 149.208C106.462 149.208 107.895 149.119 107.852 148.367C107.852 148.367 106.462 147.832 104.594 148.629Z" fill="white"/>
<path d="M303.131 161.064C303.064 159.687 302.835 157.048 302.035 155.449C300.913 153.208 297.748 150.763 296.421 151.579C295.094 152.393 298.361 156.162 297.851 157.589C297.34 159.015 299.282 161.45 300.862 163.185L303.159 161.968C303.159 161.968 303.159 161.617 303.133 161.064H303.131Z" fill="#FFB27D"/>
<path d="M332.711 164.096C330.649 167.913 328.08 171.769 325.446 174.907C322.688 178.194 319.863 180.692 317.481 181.537L317.462 181.544C317.338 181.588 317.215 181.628 317.093 181.661C317.086 181.665 317.081 181.665 317.076 181.665H317.074C316.59 181.803 316.128 181.864 315.689 181.844C307.87 181.494 299.629 164.757 299.629 164.757C299.629 164.757 299.844 162.772 301.364 161.372C302.691 160.149 303.712 159.83 303.712 159.83C303.712 159.83 312.133 168.459 314.192 169.08C315.487 169.469 317.187 163.444 319.624 155.875C322.064 148.307 330.628 146.441 330.628 146.441C330.628 146.441 339.297 151.916 332.713 164.098L332.711 164.096Z" fill="#AEC3FF"/>
<path d="M325.448 174.908C322.69 178.196 319.865 180.693 317.483 181.539L317.464 181.546L317.095 181.663L317.074 181.67H317.076C317.162 181.61 319.712 180.29 320.112 177.842C320.521 175.339 317.868 173.292 324.536 169.42C328.423 167.163 325.446 174.91 325.446 174.91L325.448 174.908Z" fill="#94B0ED"/>
<path d="M319.34 289.706H337.667C338.98 288.818 337.313 280.13 337.313 280.13C337.313 280.13 332.31 278.236 331.447 282.087C330.58 285.936 325.076 287.158 322.163 287.629C320.168 287.953 319.539 289.045 319.34 289.706Z" fill="black"/>
<path d="M347.29 199.658C347.29 199.658 346.714 210.326 345.99 222.687C345.469 231.55 344.877 241.287 344.37 248.577C344.302 249.545 344.235 250.469 344.172 251.343C344.155 251.613 344.134 251.882 344.113 252.152C342.8 268.5 338.413 282.824 338.413 282.824C333.261 283.907 330.933 281.925 330.933 281.925C330.933 281.925 327.383 240.406 326.067 223.661C325.098 211.334 324.273 193.387 324.273 193.387L347.29 199.656V199.658Z" fill="#062B6B"/>
<path d="M345.992 222.688C345.471 231.551 344.879 241.288 344.372 248.578C341.004 240.65 334.121 209.746 334.121 209.746L345.992 222.688Z" fill="#0C1A37"/>
<path d="M346.523 289.706H364.851C366.164 288.818 364.496 280.13 364.496 280.13C364.496 280.13 359.494 278.236 358.63 282.087C357.764 285.936 352.26 287.158 349.346 287.629C347.352 287.953 346.723 289.045 346.523 289.706Z" fill="black"/>
<path d="M329.25 197.536C329.25 197.536 342.338 230.042 346.522 242.365C349.502 251.142 357.907 281.932 357.907 281.932C357.907 281.932 361.562 283.042 364.634 280.896C364.634 280.896 367.761 249.438 361.445 240.569C358.094 235.863 360.613 191.648 347.025 191.269C333.438 190.891 329.252 197.536 329.252 197.536H329.25Z" fill="#062B6B"/>
<path d="M356.049 187.081C355.993 191.703 355.943 195.097 355.955 195.955C355.992 198.752 354.198 199.384 352.351 199.809C352.351 199.809 350.645 200.175 348.49 200.54C346.38 200.892 343.837 201.241 342.041 201.229C332.851 201.155 325.16 198.456 325.16 198.456C323.432 198.456 322.643 195.787 322.358 192.061C322.166 189.539 322.946 164.389 323.045 158.107C323.112 153.602 325.592 149.441 326.284 148.832C332.7 143.171 351.636 143.885 355.044 147.789C355.887 148.756 356.133 158.067 356.161 168.267C356.18 174.833 356.112 181.768 356.049 187.08V187.081Z" fill="#AEC3FF"/>
<path d="M344.68 145.551C342.263 148.165 334.143 147.778 334.384 145.495C334.417 145.214 334.47 143.544 334.496 143.285C334.517 143.078 334.536 142.874 334.554 142.682C334.608 142.12 334.653 141.623 334.69 141.193C334.798 139.942 334.833 139.264 334.833 139.264H334.842C335.075 139.199 340.295 137.72 342.892 137.107C343.765 136.901 344.341 136.793 344.333 136.868C343.536 142.687 345.474 144.693 344.682 145.549L344.68 145.551Z" fill="#FFB27D"/>
<path d="M343.168 138.825C343.168 138.825 340.989 141.035 334.691 141.196C334.8 139.945 334.835 139.267 334.835 139.267H334.843C335.076 139.202 340.297 137.723 342.894 137.109C343.352 137.296 342.745 138.513 343.17 138.827L343.168 138.825Z" fill="#ED975D"/>
<path d="M333.238 138.953C333.238 138.953 334.832 139.523 336.865 139.797C339.838 140.198 343.746 139.961 344.973 136.374C347.041 130.334 349.683 126.714 343.597 124.246C340.339 122.926 338.256 122.856 336.84 123.36C335.61 123.794 334.886 124.663 334.336 125.523C333.154 127.371 330.777 137.896 333.238 138.953Z" fill="#FFB27D"/>
<path d="M334.795 120.851C332.621 122.275 333.33 125.613 335.893 126.063C337.427 126.332 338.715 126.386 339.46 126.717C340.974 127.389 342.274 128.1 341.917 130.442C341.795 131.239 341.407 132.209 343.462 131.728C343.8 131.649 344.043 131.672 344.209 131.773C345.062 132.277 343.971 134.724 343.642 135.254C343.642 135.254 343.169 137.007 344.219 137.86C344.347 137.961 346.407 138.861 351.377 131.274C352.158 130.083 352.902 127.401 351.696 124.818C350.492 122.235 347.131 118.969 340.802 118.969C339.154 118.969 336.677 119.619 334.795 120.854V120.851Z" fill="#282828"/>
<path d="M333.189 135.055C333.189 135.055 333.062 135.836 334.883 136.461C334.883 136.461 336.412 136.984 336.692 136.183C336.692 136.183 335.477 135.029 333.189 135.055Z" fill="white"/>
<path d="M356.053 187.081C355.128 191.37 353.625 192.854 352.781 191.255C349.82 185.653 349.855 183.304 351.139 179.331C352.424 175.358 347.916 169.144 351.139 166.497C354.292 163.907 356.089 168.082 356.166 168.267C356.185 174.833 356.117 181.767 356.054 187.08L356.053 187.081Z" fill="#94B0ED"/>
<path d="M355.908 186.531C355.908 186.531 353.73 190.086 352.301 189.96C350.873 189.834 348.945 189.302 347.831 190.363C346.718 191.423 344.925 194.156 345.426 194.883C345.928 195.61 347.943 194.965 349.39 194.168C350.838 193.371 353.119 194.561 354.333 193.655C355.548 192.75 358.458 189.156 358.458 189.156L355.906 186.531H355.908Z" fill="#FFB27D"/>
<path d="M355.049 147.793C355.049 147.793 373.128 164.769 370.781 176.061C369.711 181.206 366.392 185.549 357.545 192.577C357.545 192.577 353.359 189.691 352.441 187.348C352.441 187.348 360.471 176.063 360.161 174.141C359.782 171.788 354.299 165.89 352.333 164.975C350.367 164.057 350.547 149.765 355.051 147.795L355.049 147.793Z" fill="#AEC3FF"/>
<path d="M352.302 189.96C352.302 189.96 350.397 189.128 349.783 188.773C349.172 188.417 349.306 188.994 349.493 189.282C349.68 189.571 350.191 190.215 350.939 190.283C351.687 190.351 352.3 189.96 352.3 189.96H352.302Z" fill="#FFB27D"/>
<path d="M146.48 90.4727H291.302C296.773 90.4727 301.214 94.9041 301.214 100.363V279.925C301.214 285.529 296.655 290.077 291.04 290.077H146.48V90.4727Z" fill="#062B6B"/>
<path d="M169.15 115.724V121.976H166.219V105.148H172.67C173.65 105.148 174.521 105.281 175.281 105.548C176.041 105.813 176.685 106.186 177.209 106.664C177.733 107.142 178.134 107.709 178.408 108.363C178.682 109.018 178.819 109.73 178.819 110.501C178.819 111.317 178.682 112.049 178.408 112.696C178.134 113.343 177.735 113.891 177.209 114.338C176.685 114.784 176.041 115.128 175.281 115.366C174.521 115.605 173.65 115.724 172.67 115.724H169.148H169.15ZM169.15 113.378H172.672C173.234 113.378 173.72 113.309 174.126 113.171C174.531 113.033 174.865 112.836 175.127 112.581C175.389 112.327 175.58 112.025 175.701 111.674C175.819 111.324 175.881 110.94 175.881 110.525C175.881 110.133 175.821 109.754 175.701 109.393C175.58 109.031 175.389 108.71 175.127 108.429C174.865 108.148 174.531 107.925 174.126 107.759C173.72 107.594 173.236 107.512 172.672 107.512H169.15V113.382V113.378Z" fill="white"/>
<path d="M188.759 118.057H182.226L180.859 121.976H177.812L184.183 105.148H186.812L193.193 121.976H190.135L188.756 118.057H188.759ZM183.049 115.7H187.938L185.494 108.718L183.051 115.7H183.049Z" fill="white"/>
<path d="M203.919 117.64C203.919 117.302 203.868 116.999 203.769 116.733C203.669 116.468 203.485 116.223 203.218 115.999C202.952 115.776 202.585 115.562 202.117 115.357C201.65 115.153 201.049 114.939 200.317 114.716C199.513 114.477 198.772 114.203 198.093 113.896C197.414 113.587 196.83 113.23 196.339 112.822C195.847 112.414 195.465 111.943 195.187 111.413C194.909 110.881 194.769 110.272 194.769 109.587C194.769 108.901 194.914 108.284 195.203 107.715C195.493 107.145 195.9 106.651 196.424 106.236C196.949 105.82 197.578 105.497 198.312 105.265C199.046 105.033 199.857 104.918 200.745 104.918C201.694 104.918 202.549 105.056 203.305 105.328C204.062 105.602 204.702 105.973 205.223 106.442C205.744 106.913 206.144 107.457 206.422 108.078C206.7 108.699 206.839 109.36 206.839 110.061H203.921C203.921 109.653 203.858 109.278 203.73 108.934C203.603 108.591 203.409 108.294 203.145 108.045C202.882 107.794 202.55 107.6 202.148 107.461C201.746 107.321 201.273 107.253 200.724 107.253C200.207 107.253 199.759 107.311 199.38 107.426C199.002 107.541 198.686 107.703 198.436 107.911C198.184 108.118 197.999 108.366 197.88 108.65C197.76 108.934 197.7 109.243 197.7 109.574C197.7 110.199 197.996 110.718 198.586 111.135C199.177 111.552 200.079 111.938 201.29 112.292C202.239 112.569 203.062 112.878 203.758 113.216C204.454 113.554 205.03 113.938 205.49 114.365C205.95 114.792 206.291 115.274 206.516 115.809C206.74 116.345 206.852 116.948 206.852 117.618C206.852 118.327 206.71 118.964 206.429 119.531C206.147 120.098 205.745 120.579 205.224 120.975C204.704 121.372 204.073 121.676 203.332 121.889C202.591 122.1 201.764 122.206 200.853 122.206C200.042 122.206 199.243 122.096 198.455 121.877C197.667 121.657 196.961 121.325 196.335 120.882C195.709 120.439 195.206 119.887 194.823 119.224C194.44 118.561 194.25 117.783 194.25 116.889H197.181C197.181 117.421 197.275 117.878 197.464 118.258C197.653 118.64 197.912 118.952 198.24 119.194C198.569 119.437 198.957 119.615 199.404 119.726C199.852 119.838 200.334 119.894 200.851 119.894C201.87 119.894 202.638 119.688 203.15 119.274C203.664 118.863 203.921 118.317 203.921 117.639L203.919 117.64Z" fill="white"/>
<path d="M218.237 117.64C218.237 117.302 218.186 116.999 218.087 116.733C217.987 116.468 217.804 116.223 217.536 115.999C217.27 115.776 216.903 115.562 216.435 115.357C215.968 115.153 215.367 114.939 214.635 114.716C213.831 114.477 213.09 114.203 212.412 113.896C211.732 113.587 211.146 113.23 210.657 112.822C210.166 112.414 209.783 111.943 209.505 111.413C209.227 110.881 209.087 110.272 209.087 109.587C209.087 108.901 209.232 108.284 209.522 107.715C209.813 107.145 210.22 106.651 210.744 106.236C211.269 105.82 211.898 105.497 212.632 105.265C213.366 105.033 214.175 104.918 215.065 104.918C216.014 104.918 216.867 105.056 217.624 105.328C218.38 105.602 219.02 105.973 219.541 106.442C220.062 106.913 220.462 107.457 220.74 108.078C221.018 108.699 221.158 109.36 221.158 110.061H218.239C218.239 109.653 218.176 109.278 218.048 108.934C217.921 108.591 217.725 108.294 217.463 108.045C217.201 107.794 216.868 107.6 216.466 107.461C216.065 107.321 215.589 107.253 215.042 107.253C214.525 107.253 214.077 107.311 213.698 107.426C213.319 107.541 213.004 107.703 212.754 107.911C212.502 108.118 212.317 108.366 212.198 108.65C212.079 108.934 212.018 109.243 212.018 109.574C212.018 110.199 212.314 110.718 212.904 111.135C213.495 111.552 214.397 111.938 215.608 112.292C216.557 112.569 217.381 112.878 218.076 113.216C218.772 113.554 219.349 113.938 219.808 114.365C220.268 114.792 220.609 115.274 220.834 115.809C221.058 116.345 221.17 116.948 221.17 117.618C221.17 118.327 221.028 118.964 220.747 119.531C220.465 120.098 220.063 120.579 219.543 120.975C219.022 121.372 218.391 121.676 217.648 121.889C216.907 122.1 216.08 122.206 215.17 122.206C214.359 122.206 213.56 122.096 212.772 121.877C211.983 121.657 211.277 121.325 210.652 120.882C210.026 120.439 209.522 119.887 209.14 119.224C208.757 118.561 208.566 117.783 208.566 116.889H211.497C211.497 117.421 211.592 117.878 211.781 118.258C211.969 118.64 212.228 118.952 212.557 119.194C212.885 119.437 213.273 119.615 213.721 119.726C214.168 119.838 214.651 119.894 215.168 119.894C216.187 119.894 216.954 119.688 217.466 119.274C217.98 118.863 218.237 118.317 218.237 117.639V117.64Z" fill="white"/>
<path d="M226.669 115.724V121.976H223.738V105.148H230.189C231.17 105.148 232.04 105.281 232.801 105.548C233.561 105.813 234.204 106.186 234.728 106.664C235.253 107.142 235.653 107.709 235.927 108.363C236.202 109.018 236.338 109.73 236.338 110.501C236.338 111.317 236.202 112.049 235.927 112.696C235.653 113.343 235.255 113.891 234.728 114.338C234.202 114.784 233.561 115.128 232.801 115.366C232.04 115.605 231.17 115.724 230.189 115.724H226.668H226.669ZM226.669 113.378H230.191C230.754 113.378 231.24 113.309 231.645 113.171C232.051 113.033 232.385 112.836 232.647 112.581C232.909 112.327 233.1 112.025 233.22 111.674C233.339 111.324 233.4 110.94 233.4 110.525C233.4 110.133 233.341 109.754 233.22 109.393C233.1 109.031 232.909 108.71 232.647 108.429C232.385 108.148 232.051 107.925 231.645 107.759C231.24 107.594 230.756 107.512 230.191 107.512H226.669V113.382V113.378Z" fill="white"/>
<path d="M252.358 114.001C252.358 115.279 252.191 116.427 251.855 117.438C251.519 118.451 251.046 119.311 250.436 120.016C249.826 120.72 249.092 121.263 248.235 121.639C247.379 122.016 246.428 122.206 245.386 122.206C244.345 122.206 243.406 122.018 242.548 121.639C241.692 121.263 240.952 120.72 240.33 120.016C239.708 119.311 239.225 118.451 238.883 117.438C238.538 116.425 238.367 115.279 238.367 114.001V113.146C238.367 111.868 238.538 110.718 238.883 109.702C239.227 108.685 239.706 107.822 240.319 107.114C240.933 106.406 241.669 105.861 242.525 105.485C243.382 105.108 244.329 104.918 245.364 104.918C246.398 104.918 247.358 105.106 248.218 105.485C249.079 105.863 249.817 106.406 250.431 107.114C251.044 107.823 251.519 108.685 251.855 109.702C252.191 110.718 252.358 111.868 252.358 113.146V114.001ZM249.427 113.123C249.427 112.183 249.336 111.353 249.155 110.633C248.973 109.913 248.709 109.309 248.361 108.825C248.013 108.34 247.587 107.972 247.082 107.721C246.577 107.471 246.003 107.346 245.362 107.346C244.72 107.346 244.173 107.471 243.67 107.721C243.168 107.972 242.742 108.34 242.391 108.825C242.039 109.309 241.768 109.913 241.58 110.633C241.391 111.353 241.297 112.183 241.297 113.123V114.002C241.297 114.942 241.391 115.774 241.58 116.498C241.768 117.222 242.041 117.829 242.396 118.319C242.751 118.809 243.181 119.179 243.688 119.428C244.193 119.679 244.759 119.803 245.385 119.803C246.682 119.803 247.679 119.309 248.379 118.324C249.078 117.339 249.427 115.896 249.427 114.002V113.123Z" fill="white"/>
<path d="M261.475 115.492H258.208V121.976H255.277V105.148H261.208C262.172 105.148 263.034 105.258 263.791 105.478C264.548 105.698 265.187 106.02 265.708 106.449C266.229 106.877 266.626 107.407 266.895 108.038C267.166 108.67 267.301 109.402 267.301 110.234C267.301 111.359 267.028 112.301 266.484 113.059C265.939 113.818 265.18 114.402 264.209 114.81L267.996 121.826V121.976H264.857L261.475 115.492ZM258.21 113.146H261.222C261.746 113.146 262.206 113.077 262.601 112.939C262.994 112.801 263.322 112.607 263.585 112.362C263.847 112.116 264.044 111.823 264.175 111.483C264.307 111.144 264.373 110.769 264.373 110.361C264.373 109.93 264.312 109.538 264.188 109.188C264.064 108.837 263.875 108.537 263.62 108.286C263.364 108.035 263.038 107.843 262.641 107.709C262.242 107.574 261.767 107.506 261.211 107.506H258.212V113.146H258.21Z" fill="white"/>
<path d="M281.686 107.506H276.427V121.976H273.521V107.506H268.309V105.148H281.686V107.506Z" fill="white"/>
<path d="M235.582 268.66H212.329C211.579 268.66 210.973 268.055 210.973 267.306C210.973 266.558 211.579 265.953 212.329 265.953H235.582C236.332 265.953 236.938 266.558 236.938 267.306C236.938 268.055 236.332 268.66 235.582 268.66Z" fill="white"/>
<path d="M252.15 275.109H195.759C195.009 275.109 194.402 274.504 194.402 273.756C194.402 273.008 195.009 272.402 195.759 272.402H252.15C252.9 272.402 253.506 273.008 253.506 273.756C253.506 274.504 252.9 275.109 252.15 275.109Z" fill="white"/>
<path d="M223.954 248.943C209.222 248.943 195.37 243.217 184.952 232.823C174.535 222.429 168.797 208.608 168.797 193.908C168.797 179.208 174.535 165.387 184.952 154.991C195.369 144.597 209.22 138.871 223.954 138.871C238.688 138.871 252.538 144.597 262.955 154.991C273.372 165.385 279.11 179.206 279.11 193.908C279.11 208.61 273.372 222.429 262.955 232.823C252.538 243.217 238.686 248.943 223.954 248.943ZM223.954 139.476C209.383 139.476 195.685 145.137 185.382 155.418C175.078 165.699 169.405 179.368 169.405 193.906C169.405 208.444 175.078 222.113 185.382 232.394C195.685 242.675 209.384 248.336 223.954 248.336C238.524 248.336 252.223 242.675 262.526 232.394C272.83 222.113 278.503 208.444 278.503 193.906C278.503 179.368 272.83 165.699 262.526 155.418C252.223 145.137 238.524 139.476 223.954 139.476Z" fill="white"/>
<path d="M268.182 193.909C268.182 196.621 267.937 199.277 267.467 201.858C266.338 208.048 263.915 213.787 260.486 218.789C252.523 230.411 239.131 238.039 223.957 238.039C205.906 238.039 190.378 227.249 183.507 211.777C182.6 209.738 181.844 207.619 181.255 205.43C180.26 201.759 179.73 197.896 179.73 193.911C179.73 190.688 180.077 187.546 180.734 184.521C180.741 184.487 180.749 184.453 180.756 184.419C182.593 176.054 186.809 168.581 192.661 162.734C194.319 161.074 196.111 159.546 198.02 158.166C198.928 157.509 199.865 156.883 200.825 156.295C207.554 152.164 215.475 149.781 223.957 149.781C225.083 149.781 226.196 149.823 227.299 149.907C228.856 150.022 230.389 150.217 231.895 150.489C238.24 151.637 244.111 154.134 249.202 157.675H249.204C252.376 159.877 255.244 162.484 257.735 165.423C259.044 166.967 260.248 168.599 261.336 170.313C262.014 171.381 262.646 172.477 263.232 173.604C264.642 176.311 265.775 179.185 266.603 182.185C267.631 185.918 268.182 189.851 268.182 193.911V193.909Z" fill="#85AAD6"/>
<path opacity="0.5" d="M208.93 174.153C207.164 176.941 209.667 181.784 204.371 180.464C199.077 179.144 195.84 178.556 195.547 181.49C195.251 184.427 199.518 184.427 199.518 187.508C199.518 190.59 197.606 191.608 194.664 190.145C191.721 188.682 190.876 186.552 187.456 187.873C184.037 189.193 182.052 188.312 181.279 185.672C181.143 185.208 180.952 184.831 180.73 184.515C180.737 184.481 180.746 184.447 180.753 184.413C182.59 176.048 186.806 168.575 192.657 162.728C194.316 161.068 196.108 159.54 198.016 158.16C198.925 157.503 199.862 156.877 200.821 156.289C202.2 156.34 203.849 156.861 205.254 158.596C208.342 162.414 210.401 160.504 209.665 164.908C208.928 169.31 210.106 169.897 212.607 169.751C215.106 169.603 218.05 169.603 218.343 171.512C218.637 173.42 210.695 171.364 208.93 174.154V174.153Z" fill="white"/>
<path opacity="0.5" d="M227.241 200.568C227.241 200.568 223.343 201.815 222.313 199.101C221.284 196.386 222.46 195.8 219.005 194.992C215.549 194.185 215.254 191.838 213.048 192.131C210.843 192.424 211.945 193.304 209.371 195.212C206.796 197.12 204.444 196.239 204.517 199.761C204.591 203.282 208.415 203.833 209.187 206.144C209.96 208.454 208.635 209.445 210.29 211.206C211.945 212.968 215.034 212.197 213.599 214.618C212.166 217.038 209.958 218.91 211.063 222.652C212.166 226.395 211.393 226.614 213.269 229.257C215.144 231.899 218.783 232.779 219.335 231.018C219.888 229.257 216.797 226.946 217.79 225.184C218.783 223.423 220.438 224.633 221.099 221.993C221.761 219.351 224.444 219.351 224.666 217.516C224.886 215.681 221.431 212.893 222.754 211.719C224.077 210.545 226.725 213.847 228.784 210.912C230.843 207.976 229.446 205.629 231.579 202.84C233.711 200.052 228.71 198.951 227.241 200.566V200.568Z" fill="white"/>
<path opacity="0.5" d="M268.182 193.908C268.182 196.62 267.937 199.276 267.467 201.857C266.338 208.047 263.916 213.786 260.486 218.788C259.317 219.172 258.123 219.163 256.951 218.694C251.436 216.493 255.517 210.549 257.723 207.578C259.929 204.606 254.304 205.926 250.221 203.176C246.14 200.424 250.662 193.05 246.471 194.261C242.279 195.471 237.206 197.013 234.778 192.94C232.352 188.868 236.984 188.207 234.888 184.796C232.792 181.385 236.101 179.404 240.292 179.072C244.483 178.743 243.933 175.771 249.117 175.33C254.301 174.89 254.191 181.493 259.927 181.053C265.663 180.614 265.405 181.934 265.405 181.934C265.817 181.924 266.219 182.009 266.602 182.185C267.63 185.919 268.18 189.852 268.18 193.912L268.182 193.908Z" fill="white"/>
<path opacity="0.5" d="M263.231 173.602C258.461 175.918 256.547 169.621 252.469 171.513C248.36 173.421 249.079 169.752 245.845 167.404C242.608 165.057 236.138 169.312 236.432 165.643C236.725 161.975 241.579 163.001 242.608 160.067C243.638 157.132 248.345 157.866 248.345 157.866C248.612 157.765 248.899 157.699 249.201 157.673C249.201 157.673 249.201 157.671 249.203 157.673C252.375 159.875 255.243 162.483 257.734 165.421C259.043 166.965 260.247 168.597 261.334 170.311C262.012 171.379 262.645 172.476 263.231 173.602Z" fill="white"/>
<path opacity="0.5" d="M223.05 160.948C223.05 160.948 225.549 157.348 221.58 156.286C217.609 155.224 217.682 156.614 214.594 156.286C211.506 155.958 210.293 158.342 212.609 160.948C214.924 163.553 216.8 168.551 218.895 165.887C220.991 163.222 220.587 161.204 223.05 160.948Z" fill="white"/>
<path d="M434.653 291L12.9709 290.855C12.6877 290.855 12.457 290.625 12.457 290.342V290.079C12.457 289.797 12.6877 289.566 12.9709 289.566L434.653 289.711C434.937 289.711 435.167 289.941 435.167 290.224V290.487C435.167 290.77 434.937 291 434.653 291Z" fill="#2E3552"/>
</g>
<defs>
<clipPath id="clip0_2384_112498">
<rect width="438" height="291" fill="white"/>
</clipPath>
</defs>
</svg>
