<svg width="201" height="186" viewBox="0 0 201 186" fill="none" xmlns="http://www.w3.org/2000/svg">
<g clip-path="url(#clip0_6525_83522)">
<path d="M76.0071 58.6389C77.3582 58.3137 78.6475 57.7762 80.0138 57.4727C79.9774 57.5065 79.9419 57.5407 79.9055 57.5741C79.3486 58.0789 78.0051 58.8036 77.3143 59.267C74.2681 61.296 71.1999 63.2912 68.1105 65.253C65.8497 66.7095 63.6404 68.2414 61.4012 69.7301L47.8195 78.6268C46.0333 79.7597 44.2555 80.9054 42.4861 82.0645C41.1334 82.9425 39.5953 83.7779 38.4667 84.9486C37.243 86.2175 36.6261 87.7651 36.4911 89.5207C36.3485 91.3783 36.7883 93.241 37.5466 94.9266C38.7275 97.5519 40.2517 100.09 41.5956 102.64C42.8784 105.074 44.1133 107.528 45.4277 109.947C47.4224 113.569 49.4595 117.167 51.5381 120.739L68.2946 150.225C72.2154 157.144 76.0491 164.115 80.1069 170.952C81.259 172.894 82.2342 175.18 83.7108 176.892C85.1275 178.534 87.4142 180.029 89.6179 180.173C90.1345 180.206 90.9483 180.103 91.3921 180.35C89.1777 181.104 87.1993 180.995 85.05 180.125C83.9641 179.536 82.9218 178.747 82.2183 177.709C81.3413 176.414 80.6062 174.946 79.8232 173.586L74.4319 164.163L52.9124 126.492L40.5645 104.824L37.3596 99.122C36.6733 97.9037 35.9206 96.7028 35.3633 95.417C35.2902 95.2487 35.2211 95.0784 35.1563 94.9065C35.0916 94.7346 35.0313 94.5611 34.975 94.3864C34.9186 94.2112 34.8667 94.0353 34.8192 93.8578C34.7716 93.6802 34.7285 93.5019 34.6897 93.3219C34.651 93.1424 34.6166 92.9616 34.5867 92.7805C34.5567 92.5989 34.5315 92.4169 34.5103 92.2341C34.4896 92.0514 34.4732 91.8686 34.4612 91.685C34.4492 91.5014 34.4416 91.3179 34.4388 91.1339C34.436 90.9499 34.4376 90.7663 34.4436 90.5823C34.4496 90.3984 34.4604 90.2152 34.4752 90.0316C34.49 89.848 34.5099 89.6657 34.5339 89.4833C34.5579 89.3009 34.5867 89.1194 34.6194 88.9386C34.6526 88.7578 34.6897 88.5779 34.7317 88.3987C34.7736 88.2196 34.8196 88.042 34.8703 87.8653C34.921 87.6886 34.9758 87.5135 35.0349 87.3395C35.094 87.1656 35.1575 86.9933 35.2251 86.8226C35.3026 86.6193 35.3861 86.4188 35.4764 86.2208C35.5662 86.0231 35.6625 85.8282 35.7648 85.6362C35.8671 85.4446 35.9753 85.2562 36.0896 85.0714C36.2039 84.8866 36.3237 84.7054 36.4496 84.5287C36.575 84.3516 36.706 84.1789 36.8427 84.0098C36.9793 83.8411 37.1207 83.6768 37.2677 83.5174C37.4148 83.358 37.5666 83.203 37.7232 83.0532C37.8798 82.9035 38.0412 82.7585 38.207 82.6188C39.2073 81.7923 40.3551 81.1116 41.4422 80.4062L46.5571 77.1175L64.3299 65.9603L72.0944 61.0742C73.3492 60.275 74.6532 59.2323 76.0071 58.6377V58.6389Z" fill="white"/>
<path d="M82.7843 183.138C81.414 182.088 80.4404 181.028 79.5255 179.565C78.0413 177.191 76.7174 174.699 75.3035 172.281C71.839 166.42 68.4328 160.526 65.0853 154.597L45.9441 121.221L36.0032 103.878C34.688 101.533 33.0133 99.0842 32.0265 96.5922C30.8867 93.7141 30.7177 90.4749 31.4121 87.4688C31.4544 87.2897 31.5 87.1114 31.5491 86.9338C31.5979 86.7563 31.6498 86.5799 31.7049 86.404C31.7601 86.2285 31.8184 86.0538 31.8799 85.8803C31.941 85.7067 32.0058 85.5344 32.0733 85.3633C32.1408 85.1922 32.2115 85.0223 32.285 84.8537C32.3585 84.685 32.4352 84.5179 32.5147 84.352C32.5942 84.1862 32.6769 84.0219 32.7624 83.8593C32.8479 83.6966 32.9362 83.5352 33.0277 83.3758C33.1188 83.2164 33.2131 83.0581 33.3101 82.9019C33.4068 82.7457 33.5067 82.5915 33.609 82.439C33.7112 82.2864 33.8163 82.1358 33.9242 81.9873C34.0321 81.8383 34.1423 81.6918 34.2554 81.5472C34.3684 81.4027 34.4843 81.2598 34.6021 81.1197C34.7204 80.9792 34.8411 80.8407 34.9641 80.7046C35.0871 80.5686 35.213 80.4349 35.3408 80.3033C35.4687 80.1716 35.5989 80.0428 35.7316 79.916C37.4438 78.2972 39.5816 77.1341 41.5683 75.8922L48.3044 71.661L77.5519 53.3406C80.9405 51.1977 84.5069 50.467 88.4501 51.3949C91.0836 52.0149 93.5714 53.6132 95.9864 54.8125L106.942 60.2256L114.231 63.8344C115.469 64.4499 116.833 65.0099 117.985 65.7656C119.322 66.6428 120.365 67.7652 121.2 69.1292C122.467 71.2 123.627 73.3555 124.833 75.4638L131.32 86.8018L146.531 113.463L154.279 127.005L156.347 130.653C157.001 131.796 157.717 132.937 158.191 134.17C159.098 136.532 159.232 139.327 158.649 141.785C158.611 141.947 158.571 142.108 158.528 142.267C158.484 142.427 158.437 142.586 158.388 142.744C158.338 142.902 158.286 143.059 158.23 143.215C158.175 143.371 158.116 143.526 158.055 143.68C157.994 143.833 157.93 143.986 157.863 144.137C157.796 144.289 157.727 144.439 157.654 144.587C157.581 144.736 157.506 144.883 157.428 145.029C157.349 145.175 157.269 145.319 157.185 145.462C157.102 145.604 157.015 145.746 156.927 145.885C156.838 146.024 156.747 146.162 156.653 146.298C156.559 146.434 156.462 146.568 156.363 146.7C156.264 146.832 156.162 146.963 156.059 147.091C155.955 147.22 155.848 147.346 155.74 147.47C155.631 147.595 155.52 147.717 155.407 147.837C155.294 147.957 155.179 148.075 155.061 148.191C154.943 148.307 154.823 148.42 154.701 148.531C153.363 149.733 151.709 150.62 150.19 151.57L142.133 156.586C136.931 159.895 131.64 163.036 126.402 166.286L101.682 181.723C99.2336 183.217 96.8988 185.029 94.0767 185.736C92.2302 186.153 90.2994 186.013 88.4429 185.758C86.3223 185.196 84.59 184.388 82.7855 183.139L82.7843 183.138Z" fill="#062B6B"/>
<path d="M76.0094 58.6395C76.5507 58.1157 77.2643 57.7079 77.8927 57.2965C80.1411 55.8254 82.2197 54.7344 84.9672 54.7807C86.3411 54.8041 87.6107 55.042 88.8923 55.5436C90.3677 56.1209 91.7943 56.9196 93.2178 57.6189C96.0707 59.0135 98.9115 60.4322 101.741 61.875C106.19 64.1207 110.923 66.2306 115.251 68.6594C115.966 69.0612 116.959 69.6111 117.502 70.2295C118.399 71.2508 119.075 72.6397 119.747 73.8189C120.785 75.6325 121.809 77.4554 122.817 79.2868C125.13 83.4592 127.537 87.5973 129.905 91.7399C135.823 101.912 141.648 112.138 147.381 122.418L152.385 131.271C153.15 132.649 153.983 134 154.645 135.432C155.533 137.352 155.325 140.34 154.587 142.278C154.102 143.55 153.229 144.841 152.159 145.684C150.955 146.633 149.587 147.388 148.29 148.199C146.084 149.57 143.886 150.954 141.696 152.35L116.764 168.102C111.621 171.4 106.451 174.655 101.254 177.867L97.7474 180.064C96.7989 180.667 95.8289 181.363 94.7974 181.814C92.4899 182.821 89.659 182.585 87.373 181.652C86.6151 181.343 85.6535 180.943 85.0958 180.325L85.0507 180.126C87.2 180.996 89.1784 181.105 91.3928 180.351C92.692 179.915 93.9664 178.824 95.1122 178.064C96.4018 177.218 97.6962 176.378 98.9954 175.546L122.406 160.388L138.053 150.415C140.702 148.737 143.739 147.024 146.221 145.175C147.425 144.278 148.398 143.053 149.082 141.714C150.402 139.133 150.667 135.9 149.76 133.143C148.987 130.791 146.721 127.259 145.421 125.011L138.262 112.606L124.486 88.6448L118.809 78.6052C117.937 77.0516 117.127 75.4518 116.211 73.9244C115.809 73.2537 115.338 72.5 114.774 71.9557C113.141 70.3764 108.482 68.3228 106.255 67.1783L91.9949 59.9213C88.1197 57.97 84.4889 55.9683 80.0145 57.4732C78.6482 57.7767 77.3589 58.3142 76.0078 58.6395H76.0094Z" fill="#D1EAFF"/>
<path d="M97.1859 168.128C94.9715 168.814 94.3251 168.617 92.1757 167.825C91.0899 167.291 89.6476 167.359 88.9441 166.414C88.0672 165.237 87.3321 163.902 86.5491 162.665L88.2198 162.622L66.7004 128.364L58.1445 112.617" fill="#FCC95C"/>
<path d="M118.283 154.798L97.8008 168.128L118.283 154.798Z" fill="#FCC95C"/>
<path d="M105.554 77.9795C108.066 77.9908 110.489 78.8438 112.337 80.5866C113.969 82.1261 114.995 84.4631 116.098 86.3943C117.263 88.4008 118.418 90.4129 119.562 92.4314C123.386 99.037 127.172 105.665 130.919 112.315C133.558 116.898 136.28 121.436 138.872 126.046C139.755 127.615 140.765 129.149 141.548 130.769C141.703 131.096 141.841 131.429 141.962 131.77C142.083 132.111 142.186 132.457 142.271 132.808C142.356 133.16 142.423 133.514 142.472 133.873C142.521 134.231 142.551 134.592 142.563 134.953C142.632 137.378 141.74 139.891 140.069 141.653C138.792 142.998 136.868 143.919 135.3 144.899C132.682 146.546 130.051 148.17 127.405 149.771C123.506 152.148 119.654 154.641 115.816 157.118C111.769 159.731 107.797 162.464 103.754 165.085C102.383 165.973 101.05 167.03 99.6179 167.806C98.2396 168.552 96.8705 168.838 95.318 168.883C92.6801 168.773 90.4041 167.86 88.4114 166.102C87.6571 165.437 87.0546 164.707 86.5105 163.859C85.6951 162.59 84.9764 161.243 84.2245 159.935L80.4044 153.293L70.0792 135.297C67.3346 130.491 64.4741 125.752 61.7539 120.933C60.9073 119.434 59.9277 117.975 59.1698 116.43C59.024 116.132 58.893 115.826 58.7771 115.515C58.6613 115.203 58.5606 114.887 58.4759 114.565C58.3908 114.243 58.3217 113.919 58.2686 113.59C58.2154 113.262 58.1783 112.932 58.1575 112.6C58.0233 110.208 58.9393 107.528 60.5302 105.744C61.8845 104.224 63.8617 103.193 65.5572 102.1L70.7979 98.7041L89.3814 86.6524L96.777 81.831C98.1326 80.9417 99.4697 79.9526 100.902 79.1961C102.391 78.4095 103.887 78.0749 105.555 77.9795H105.554Z" fill="#040303"/>
<path d="M120.449 145.456C121.464 147.165 122.53 148.86 123.486 150.602C120.98 152.287 118.399 153.867 115.853 155.489C114.511 156.344 113.202 157.283 111.844 158.108C110.81 156.378 109.732 154.663 108.742 152.908C112.642 150.424 116.584 147.994 120.449 145.456H120.449Z" fill="#DC8906"/>
<path d="M107.558 153.821C108.577 155.52 109.582 157.228 110.573 158.943C107.732 160.782 104.908 162.646 102.1 164.534C100.825 165.373 99.2881 166.66 97.8631 167.141C96.5942 167.569 95.1272 167.572 93.8296 167.289C92.3527 166.966 90.8525 166.251 89.7031 165.256C91.729 163.656 94.045 162.327 96.2215 160.939C99.9816 158.536 103.761 156.164 107.558 153.821H107.558Z" fill="#DC8906"/>
<path d="M103.645 79.7748C106.103 79.3787 108.488 79.5083 110.576 81.043C111.274 81.5562 111.868 82.1972 112.375 82.9005C113.529 84.5007 114.432 86.3502 115.412 88.0644C116.845 90.5701 118.342 93.0581 119.741 95.5807C117.937 96.6773 116.174 97.8552 114.358 98.9261C113.782 97.6375 112.612 95.8665 111.897 94.5826L106.116 84.165C105.726 83.4581 104.023 80.0623 103.645 79.7748Z" fill="#DC8906"/>
<path d="M120.464 96.8564L126.487 107.398C127.731 109.578 128.947 111.769 130.267 113.904C128.267 114.965 126.429 116.307 124.469 117.434C123.763 115.708 122.631 114.065 121.73 112.429L114.973 100.283C116.761 99.1153 118.592 97.8766 120.464 96.8568V96.8564Z" fill="#DC8906"/>
<path d="M98.4531 135.333L110.205 128.024C113.615 133.836 117.11 139.603 120.45 145.456C116.586 147.994 112.644 150.424 108.744 152.908L98.4531 135.333Z" fill="#FCC95C"/>
<path d="M125.221 118.672C127.847 124.195 132.322 129.265 130.034 135.821C128.442 140.384 125.354 142.048 121.779 144.727C119.337 140.725 116.943 136.694 114.597 132.635C113.561 130.844 112.471 129.078 111.48 127.261C112.842 126.252 114.411 125.416 115.853 124.516L125.221 118.672Z" fill="#FCC95C"/>
<path d="M87.1738 89.8149C87.6932 90.3072 89.2321 93.2831 89.7063 94.0883C91.6223 97.2892 93.5104 100.507 95.3709 103.741C96.386 105.475 97.5554 107.212 98.3924 109.037C96.2526 110.469 94.0277 111.805 91.8376 113.159C90.3279 114.093 88.8393 115.073 87.3132 115.976C87.1854 115.87 76.8861 98.2747 76.1406 96.9676L82.7101 92.7159C84.1943 91.7448 85.6597 90.7368 87.1738 89.8145V89.8149Z" fill="#FCC95C"/>
<path d="M125.224 118.672C127.093 117.472 129.062 116.389 130.859 115.083C131.667 116.341 132.391 117.658 133.143 118.95C134.47 121.19 135.77 123.446 137.042 125.718C138.292 127.915 139.944 130.179 140.722 132.595C141.18 134.018 141.24 135.605 140.93 137.067C140.396 139.586 139.15 140.838 137.064 142.179C134.939 143.544 132.749 144.811 130.61 146.157C129.272 147.003 127.926 147.838 126.572 148.66C125.978 149.024 125.384 149.439 124.766 149.76L122.695 146.308C122.404 145.822 121.98 145.251 121.781 144.727C125.356 142.048 128.444 140.384 130.036 135.821C132.324 129.265 127.85 124.195 125.224 118.672H125.224Z" fill="#DC8906"/>
<path d="M88.4453 88.9913C91.2003 87.1282 94.0196 85.3524 96.8138 83.5492C98.3331 82.5689 99.8384 81.4401 101.436 80.6007C102.154 80.2231 102.851 79.9465 103.643 79.7754C104.022 80.0632 105.726 83.459 106.115 84.1656L111.896 94.5832C112.611 95.8671 113.78 97.638 114.357 98.9267C113.312 99.6348 112.207 100.279 111.141 100.958C107.327 103.384 103.455 105.715 99.6707 108.188C95.8913 101.812 92.1495 95.4129 88.4453 88.9913Z" fill="#FCC95C"/>
<path d="M78.809 147.568C81.2 145.97 83.7249 144.514 86.1671 142.994L97.1599 136.115C98.7064 138.474 100.086 140.989 101.504 143.429L107.558 153.821C103.761 156.163 99.9817 158.536 96.2215 160.939C94.045 162.327 91.729 163.656 89.7031 165.255C89.1295 164.785 88.6009 164.215 88.1662 163.612C87.6701 162.924 87.2626 162.154 86.8291 161.424C86.0233 160.078 85.2343 158.722 84.462 157.357C82.5971 154.082 80.7126 150.819 78.8086 147.568L78.809 147.568Z" fill="#FCC95C"/>
<path d="M74.8241 97.8227C75.2504 98.125 85.5785 115.735 86.0579 116.867C80.5611 120.265 75.089 123.702 69.6417 127.179C68.9897 127.549 68.3597 127.967 67.7241 128.365C66.0629 125.313 64.2392 122.333 62.4977 119.325C61.63 117.827 60.5106 116.231 59.9697 114.579C59.9177 114.419 59.8706 114.258 59.829 114.096C59.7871 113.933 59.7507 113.769 59.7192 113.604C59.6876 113.439 59.6616 113.273 59.6405 113.106C59.6193 112.94 59.6037 112.773 59.5933 112.605C59.5829 112.437 59.5777 112.269 59.5781 112.101C59.5781 111.933 59.5837 111.765 59.5945 111.598C59.6053 111.43 59.6213 111.263 59.6429 111.096C59.664 110.93 59.6908 110.764 59.7228 110.599C60.0024 109.205 60.6636 107.798 61.6196 106.746C62.8761 105.363 65.0889 104.165 66.671 103.136C69.3896 101.369 72.1406 99.6423 74.8245 97.8223L74.8241 97.8227Z" fill="#FCC95C"/>
<path d="M68.4414 129.662L114.974 100.282L121.732 112.428C122.633 114.064 123.765 115.707 124.471 117.433C123.823 117.888 123.103 118.28 122.43 118.699L117.531 121.726L102.495 131.05L84.1496 142.496C82.1393 143.734 80.1641 145.054 78.1199 146.232C74.899 140.708 71.7521 135.131 68.4414 129.662Z" fill="#FCC95C"/>
</g>
<path d="M166.166 106.744H171.086V101.187H166.166V106.744Z" fill="white"/>
<path d="M191.618 78.0938H186.98V84.8087H191.618V78.0938Z" fill="#FAFAFA"/>
<path d="M191.618 102.678H186.98V109.393H191.618V102.678Z" fill="#FAFAFA"/>
<path d="M151.637 158.955H160.121V149.366H151.637V158.955Z" fill="white"/>
<path d="M195.545 109.528H187.547V121.117H195.545V109.528Z" fill="#FAFAFA"/>
<path d="M195.545 151.947H187.547V163.536H195.545V151.947Z" fill="#FAFAFA"/>
<path d="M21.3881 115.845L24.2859 121.718L30.7763 122.661L26.0822 127.236L27.1894 133.697L21.3881 130.647L15.5869 133.697L16.6941 127.236L12 122.661L18.4847 121.718L21.3881 115.845Z" fill="#BDD4E6"/>
<path d="M29.0486 110L30.2461 112.428L32.9236 112.818L30.9861 114.71L31.4437 117.376L29.0486 116.116L26.6479 117.376L27.1055 114.71L25.168 112.818L27.8454 112.428L29.0486 110Z" fill="#BDD4E6"/>
<path d="M171.253 120.58L173.806 125.748L179.506 126.572L175.382 130.599L176.354 136.275L171.253 133.592L166.152 136.275L167.124 130.599L163 126.572L168.705 125.748L171.253 120.58Z" fill="#062B6B"/>
<path d="M183.421 116L184.625 118.434L187.313 118.824L185.37 120.721L185.828 123.398L183.421 122.133L181.021 123.398L181.478 120.721L179.535 118.824L182.224 118.434L183.421 116Z" fill="#062B6B"/>
<path d="M92.3846 73.4322L95.6353 63.2496C93.1029 58.1767 91.9058 52.358 92.4491 46.3C94.0238 28.8717 109.457 16.0191 126.908 17.6027C144.367 19.177 157.241 34.5891 155.657 52.0174C154.083 69.4457 138.649 82.2983 121.198 80.7148C113.905 80.0519 107.91 77.4188 102.929 72.797L92.3754 73.4322H92.3846Z" fill="#FAFAFA"/>
<path d="M92.3833 73.4327C92.3833 73.4327 92.632 73.405 93.0832 73.3774C93.5528 73.3406 94.2343 73.2946 95.1091 73.2301C96.8956 73.1104 99.52 72.9263 102.927 72.6961H102.973L103.01 72.7237C106.012 75.495 110.589 78.5608 116.786 79.8774C118.324 80.2088 119.945 80.4666 121.63 80.5679C122.477 80.5955 123.334 80.6323 124.208 80.6691C125.083 80.6691 125.967 80.5679 126.87 80.5218C130.461 80.1904 134.218 79.2237 137.828 77.456C141.438 75.6975 144.882 73.1472 147.764 69.8604C150.637 66.5736 152.976 62.5595 154.275 58.0574C155.573 53.5645 155.895 48.6389 155.057 43.7778C154.91 42.5533 154.523 41.3656 154.219 40.1595C154.081 39.5519 153.823 38.9719 153.612 38.3826C153.391 37.8026 153.179 37.2042 152.939 36.6242C151.853 34.3593 150.665 32.0852 149.044 30.0874C148.307 29.0286 147.405 28.1263 146.549 27.1873C146.143 26.6993 145.628 26.3126 145.167 25.8799C144.688 25.4656 144.246 25.0145 143.749 24.637L142.239 23.523L141.484 22.9706L140.683 22.4918L139.08 21.5343C138.546 21.2305 137.966 20.9911 137.414 20.7241C132.957 18.6342 128.131 17.6215 123.453 17.7227C118.775 17.8148 114.291 18.9564 110.359 20.853C106.427 22.7496 103.047 25.3827 100.395 28.3841C97.7336 31.3855 95.7997 34.746 94.5197 38.1156C94.3632 38.5392 94.2159 38.9627 94.0685 39.377C93.912 39.7913 93.7738 40.2056 93.6817 40.6383C93.4699 41.4853 93.2674 42.3231 93.0556 43.1425C92.8346 44.8181 92.5215 46.4293 92.4938 48.0037C92.236 54.3103 93.9027 59.5489 95.7168 63.2224L95.7353 63.2592V63.296C94.6487 66.5736 93.8199 69.0963 93.2489 70.8179C92.9635 71.665 92.7517 72.3186 92.6044 72.7698C92.457 73.2117 92.3741 73.4419 92.3741 73.4419C92.3741 73.4419 92.4294 73.2301 92.5583 72.7974C92.6964 72.3463 92.899 71.7018 93.1568 70.8548C93.7002 69.1055 94.4921 66.546 95.5235 63.2224V63.296C93.6725 59.6226 91.9505 54.3471 92.1715 47.9761C92.1992 46.3833 92.4938 44.7629 92.7149 43.0689C92.9174 42.2403 93.12 41.3932 93.3318 40.537C93.4239 40.1043 93.562 39.6808 93.7186 39.2573C93.8659 38.8338 94.0225 38.4103 94.1698 37.9775C95.4406 34.5711 97.3928 31.1554 100.082 28.1079C102.761 25.0605 106.169 22.3814 110.156 20.4479C114.134 18.5145 118.692 17.3545 123.435 17.2532C128.177 17.1427 133.076 18.1647 137.607 20.2822C138.169 20.5584 138.749 20.7978 139.292 21.1016L140.913 22.0683L141.723 22.5563L142.488 23.1179L144.025 24.2503C144.532 24.637 144.983 25.0973 145.471 25.5116C145.941 25.9536 146.456 26.3402 146.871 26.8374C147.736 27.7949 148.657 28.7064 149.403 29.7744C151.042 31.7998 152.258 34.1107 153.354 36.4124C153.602 37.0016 153.805 37.6093 154.035 38.1985C154.247 38.7969 154.514 39.377 154.652 40.003C154.965 41.2275 155.361 42.4336 155.509 43.6765C156.356 48.6113 156.015 53.6106 154.698 58.1679C153.372 62.7344 150.996 66.8038 148.068 70.1274C145.14 73.4603 141.64 76.0289 137.975 77.7966C134.31 79.5735 130.498 80.5402 126.87 80.8625C125.958 80.9085 125.065 80.9914 124.181 81.0006C123.297 80.9638 122.431 80.9269 121.575 80.8901C119.871 80.7796 118.241 80.5126 116.685 80.172C110.432 78.8186 105.828 75.6791 102.844 72.8618L102.918 72.8895C99.474 73.0736 96.8311 73.2117 95.0262 73.3038C94.1606 73.3498 93.4884 73.3774 93.0187 73.405C92.5767 73.4234 92.3557 73.4327 92.3557 73.4327H92.3833Z" fill="#062B6B" stroke="#062B6B"/>
<g clip-path="url(#clip1_6525_83522)">
<path d="M117.164 38.3515C116.511 38.1503 116.021 37.8328 115.74 37.2501C115.459 36.6643 115.155 36.0879 114.888 35.4959C113.764 32.9975 112.062 30.9109 110.122 28.9944C108.489 27.3805 107.381 25.4897 106.939 23.2363C106.674 21.8837 106.69 20.5233 106.783 19.1591C106.897 17.4859 107.032 15.8112 106.641 14.1529C105.777 10.4774 101.953 8.89868 98.5687 10.8277C96.9974 11.7231 96.0573 13.1311 95.4174 14.7535C94.425 17.2699 94.463 19.8283 95.1394 22.4079C95.6106 24.2043 96.2782 25.9437 96.721 27.7487C97.0132 28.9374 97.193 30.1418 97.235 31.3508C97.1185 31.4678 96.9942 31.4187 96.8809 31.4164C94.5066 31.3594 92.1322 31.2198 89.757 31.3758C88.3077 31.471 86.8798 31.6745 85.4898 32.1316C81.9932 33.2822 81.3992 36.6628 82.5064 38.9935C82.7305 39.4646 82.9737 39.9248 83.2802 40.3484C83.3831 40.4903 83.418 40.5972 83.2849 40.7556C81.3937 43.0005 81.8728 45.7438 84.1838 47.7562C84.4579 47.9949 84.7572 48.2055 85.0487 48.4333C84.0072 49.952 84.1197 51.4863 84.9513 53.0354C85.3647 53.8053 86.0244 54.2733 86.8481 54.5222C87.1506 54.6134 87.233 54.7624 87.1973 55.0534C87.1451 55.4785 87.1348 55.9083 87.0904 56.3341C87.0477 56.7491 87.1625 57.1095 87.4492 57.4082C87.9933 57.9745 88.5358 58.5416 89.0997 59.0884C89.4775 59.455 89.9614 59.6321 90.4841 59.6968C90.7272 59.7272 90.8539 59.8169 90.9276 60.0861C91.3632 61.6828 92.6708 62.7569 94.3474 62.9604C96.7804 63.2568 99.1951 63.0899 101.597 62.6843C103.991 62.2795 106.388 61.9144 108.827 61.9589C110.162 61.9831 111.484 62.125 112.792 62.3965C112.995 62.4386 113.059 62.5143 113.1 62.7139C113.338 63.8653 113.92 64.7935 115.013 65.3356C117.752 66.6944 120.614 67.6772 123.691 67.9307C125.845 68.1086 127.71 67.4089 129.329 66.0244C130.07 65.391 130.726 64.6819 131.32 63.9144C131.569 63.5923 131.838 63.2958 132.19 63.0735C132.719 62.7397 133.247 62.7069 133.789 63.0306C133.936 63.118 134.073 63.2233 134.225 63.2974C134.567 63.4628 134.9 63.3005 134.914 62.9316C134.963 61.5283 135.645 60.4378 136.63 59.4964C136.9 59.2382 136.915 58.9979 136.791 58.6617C136.289 57.2975 136.436 56.0089 137.332 54.8295C137.516 54.5877 137.749 54.3974 137.985 54.2078C138.602 53.7117 138.652 53.4785 138.265 52.7757C137.932 52.1696 137.627 51.5557 137.464 50.8787C137.123 49.4598 137.29 48.0675 137.656 46.6822C137.853 45.9419 138.044 45.2009 138.151 44.4404C138.347 43.0465 137.645 42.1183 136.224 42.0769C135.295 42.0496 134.788 41.6526 134.555 40.8086C134.462 40.4716 134.353 40.1354 134.214 39.8148C133.988 39.2899 133.593 38.995 132.985 39.0099C132.367 39.0247 131.825 38.8578 131.288 38.5044C129.706 37.4631 127.894 36.9896 126.058 36.6043C124.623 36.3032 123.169 36.1495 121.705 36.0801C121.109 36.052 120.515 36.0676 119.928 36.1589C118.596 36.3656 117.659 37.0778 117.164 38.3523V38.3515ZM122.281 56.7405L122.289 56.7304C122.261 56.8115 122.298 56.9129 122.207 56.973L122.214 56.9675C122.188 57.246 122.076 57.4956 121.956 57.7436L121.96 57.739C121.939 57.9075 121.889 58.0666 121.797 58.2101L121.799 58.2062C121.766 58.3084 121.733 58.4106 121.699 58.512C121.086 60.253 120.241 61.8676 119.034 63.2873C118.557 63.9175 117.974 64.4347 117.299 64.8504C116.671 65.2373 116.456 65.2225 115.821 64.7615C116.663 64.3746 117.258 63.7178 117.838 63.0455C118.472 62.214 119.028 61.3356 119.495 60.402C120.309 58.7686 120.909 57.0564 121.433 55.3162C122.058 52.9013 122.607 50.4738 122.768 47.977C122.972 44.8109 122.884 41.6721 121.89 38.616C121.809 38.4389 121.727 38.2618 121.646 38.0848C121.455 37.7657 121.265 37.4467 121.042 37.0731C121.213 37.0731 121.326 37.0668 121.439 37.0738C122.717 37.1597 122.324 36.9022 122.877 38.0824C122.936 38.2618 122.997 38.4412 123.056 38.6206C123.626 40.3078 123.855 42.0527 123.932 43.8195C124.045 46.4224 123.83 49.0074 123.44 51.5799C123.262 52.7577 123.058 53.9325 122.737 55.083C122.736 55.1095 122.735 55.1368 122.734 55.1633C122.717 55.1961 122.7 55.2296 122.684 55.2624L122.693 55.2546C122.674 55.4106 122.657 55.5658 122.578 55.7062C122.584 55.7663 122.595 55.8271 122.54 55.8732C122.489 56.1079 122.474 56.3529 122.342 56.565C122.34 56.5916 122.339 56.6189 122.338 56.6454C122.349 56.6937 122.328 56.7242 122.283 56.7413L122.281 56.7405ZM119.486 66.1679L119.491 66.1726C119.303 66.1726 119.13 66.1242 118.978 66.0127L118.961 66.0236L118.942 66.0142C118.916 66.0088 118.889 66.0033 118.862 65.9986C118.428 65.8699 117.999 65.7303 117.52 65.5095C118.478 64.9495 119.152 64.1944 119.814 63.4261C120.125 62.9604 120.457 62.5072 120.743 62.0283C122.14 59.6898 122.943 57.1337 123.53 54.5042C123.766 53.4434 123.945 52.3693 124.151 51.3014C124.159 51.2094 124.169 51.1174 124.178 51.0253C124.166 50.9996 124.169 50.9746 124.184 50.9512C124.192 50.8951 124.2 50.8389 124.208 50.7827C124.218 50.7484 124.227 50.7149 124.237 50.6806C124.246 50.5604 124.257 50.4411 124.266 50.321C124.255 50.2484 124.258 50.1798 124.316 50.1244C124.323 50.009 124.33 49.8943 124.337 49.7788C124.326 49.6587 124.322 49.5402 124.385 49.4302C124.394 49.3132 124.403 49.1954 124.412 49.0784C124.403 48.9091 124.392 48.7399 124.47 48.58C124.485 48.3272 124.5 48.0745 124.514 47.8218C124.498 47.7516 124.499 47.6845 124.554 47.6283C124.56 47.3834 124.566 47.1393 124.573 46.8943C124.567 46.5683 124.551 46.2414 124.622 45.9185C124.604 45.5808 124.579 45.243 124.637 44.9068C124.545 44.6658 124.581 44.4162 124.586 44.1681C124.573 43.814 124.558 43.4599 124.545 43.105C124.474 42.942 124.486 42.7703 124.494 42.5995C124.485 42.4552 124.476 42.3101 124.467 42.1658C124.402 42.0574 124.403 41.9388 124.414 41.8195L124.359 41.4396C124.354 41.4092 124.349 41.3796 124.345 41.3491C124.331 41.2306 124.318 41.1128 124.305 40.9942C124.123 40.2275 123.941 39.4615 123.759 38.6947C123.636 38.5083 123.587 38.2946 123.53 38.0848C123.355 37.8149 123.253 37.5146 123.117 37.1776C123.526 37.2205 123.89 37.2509 124.253 37.2977C126.227 37.5528 128.168 37.9373 129.988 38.7696C130.68 39.0863 131.331 39.4732 131.853 40.0372C131.931 40.1347 132.01 40.2314 132.089 40.3289C132.139 40.3866 132.195 40.4412 132.239 40.5036C132.756 41.2251 133.06 42.0449 133.361 42.8671C133.435 43.0699 133.47 43.3062 133.714 43.4599C133.793 42.8437 133.745 42.2852 133.548 41.7392C133.358 41.2111 133.116 40.7103 132.775 40.2602C132.702 40.1651 132.649 40.0325 132.706 39.9592C132.765 39.8827 132.901 39.8546 133.03 39.878C133.315 39.9287 133.452 40.1105 133.532 40.3648C133.707 40.9217 133.913 41.4669 134.15 42.0012C134.368 42.4927 134.724 42.7961 135.28 42.8468C135.516 42.8679 135.753 42.8881 135.984 42.9349C136.3 42.9989 136.65 42.9139 136.928 43.1416L136.924 43.1393C136.959 43.1713 136.993 43.2025 137.028 43.2345C137.388 43.6409 137.286 44.1221 137.198 44.5691C136.832 46.4216 136.233 48.2406 136.438 50.1681C136.483 50.4083 136.529 50.6478 136.571 50.888C136.709 51.6774 137.047 52.3927 137.42 53.0924C137.548 53.3334 137.551 53.491 137.306 53.6743C136.853 54.0151 136.498 54.4504 136.224 54.9473C135.744 55.8186 135.626 56.7593 135.657 57.7312C135.715 57.994 135.748 58.2663 135.839 58.5182C135.942 58.8014 135.876 59.0042 135.677 59.2171C135.275 59.6492 134.965 60.1461 134.692 60.6672C134.438 61.15 134.276 61.6679 134.111 62.2093C133.498 61.9464 132.889 61.9706 132.205 62.1266C132.887 60.7717 133.357 59.4168 133.766 58.0393C133.801 57.877 133.833 57.7132 133.871 57.5518C134.445 55.1212 134.769 52.6556 134.96 50.1696C134.985 49.8568 134.934 49.5269 135.086 49.2281C135.068 48.243 135.12 47.2563 135.015 46.2734C134.975 45.892 134.899 45.5184 134.633 45.1861C134.534 45.3694 134.556 45.5402 134.549 45.704C134.461 47.8054 134.406 49.9083 134.153 51.9996C133.901 54.0877 133.615 56.1703 133.025 58.1992C132.819 58.8138 132.626 59.4332 132.404 60.0424C131.64 62.1297 130.479 63.9573 128.726 65.384C127.576 66.32 126.294 66.9557 124.768 67.0431C123.761 67.1008 122.78 66.9534 121.798 66.7716C121.742 66.7576 121.686 66.7435 121.63 66.7303C120.982 66.6219 120.34 66.4885 119.727 66.2443L119.732 66.249C119.643 66.2459 119.55 66.2529 119.489 66.1687L119.486 66.1679ZM92.8458 35.2424C92.8664 35.2751 92.887 35.3087 92.9076 35.3414C93.0137 35.4756 93.0517 35.6339 93.0913 35.8157C92.1845 35.6035 91.2943 35.3898 90.4009 35.1878C89.5179 34.9881 88.6324 34.8016 87.7359 34.6066C87.709 34.9015 87.9276 34.9553 87.9933 35.1043C88.021 35.1035 88.0408 35.1152 88.0511 35.141C88.0741 35.1589 88.097 35.1776 88.12 35.1956C89.1931 35.8929 90.3819 36.3281 91.6055 36.6807C93.1871 37.1362 94.8202 37.3172 96.4438 37.5489C96.7503 37.5395 97.0433 37.6206 97.3348 37.6908C98.4024 37.949 98.9932 38.5387 99.1326 39.4662C99.4319 41.4552 97.8812 43.4458 95.8379 43.6962C94.3688 43.8764 92.9171 43.7228 91.4756 43.4568C89.6889 43.1268 87.9299 42.6923 86.285 41.9006C84.6923 41.1346 83.7102 39.8531 83.1321 38.2376C82.4668 36.6495 83.0513 34.6971 84.4848 33.7135C85.2776 33.1691 86.1788 32.8937 87.1094 32.7003C89.1488 32.2759 91.2167 32.2767 93.2877 32.2986C94.0425 32.3064 94.7442 32.4787 95.4158 32.8009C95.4625 32.7868 95.4863 32.8095 95.4973 32.8508C95.6526 32.8992 95.807 32.9475 95.9757 33.0006C96.0066 32.7283 95.792 32.5474 95.7571 32.2978C96.0676 32.3243 96.4691 32.2003 96.6093 32.4171C96.9174 32.8945 97.3609 33.3414 97.3292 33.9748C97.2833 34.8921 97.2619 35.8063 97.5597 36.7408C97.1748 36.6565 96.8406 36.5832 96.5135 36.5115C96.5689 35.5668 96.561 35.499 96.359 35.1254C95.7025 36.187 95.3184 36.3905 94.448 36.137C94.1636 36.1682 94.0749 35.9927 93.9942 35.7626C93.5316 34.4358 92.5797 33.6082 91.2365 33.1831C91.8463 33.8126 92.5298 34.3828 92.8482 35.2299L92.8458 35.2408V35.2424ZM99.6767 58.3435C99.6917 58.3092 99.7075 58.2748 99.7313 58.221C99.7638 58.2998 99.7638 58.3435 99.7155 58.3778C99.7416 58.6485 99.6307 58.9254 99.7234 59.2148C99.9499 59.0845 100.077 58.9004 100.221 58.7366C100.648 58.2538 100.927 57.6844 101.202 57.1118C101.209 57.0853 101.215 57.058 101.222 57.0315C101.238 57.0003 101.255 56.9683 101.272 56.9371C102.501 51.6267 103.28 48.8569 103.74 48.2079C104.257 49.2328 104.868 50.1813 105.628 51.0308C105.953 51.3054 106.222 51.6517 106.709 51.8506C106.567 51.5331 106.456 51.2827 106.344 51.0323C105.905 50.2648 105.596 49.4528 105.447 48.4801C106.369 49.3249 107.328 49.9692 108.327 50.5589C109.089 50.9364 109.368 51.0191 109.765 50.9692C108.444 50.0004 107.275 48.9232 106.395 47.5815C106.421 47.5527 106.447 47.523 106.473 47.4942C106.641 47.5589 106.81 47.6236 106.978 47.6884C108.377 48.0449 109.79 48.2921 111.295 48.204C111.155 47.9723 110.955 47.9084 110.77 47.8327C109.992 47.5176 109.218 47.1962 108.433 46.8974C105.723 45.8663 104.009 43.9123 103.026 41.2727L103.024 41.268C103.009 41.2446 102.993 41.2204 102.977 41.197C102.859 41.1042 102.887 40.857 102.646 40.8928C102.62 41.4256 102.714 41.9412 102.84 42.4568C103.014 43.1728 103.376 43.8195 103.596 44.5192C103.637 44.5309 103.663 44.566 103.633 44.5925C103.595 44.6268 103.582 44.5823 103.574 44.5511C103.482 44.4614 103.384 44.3772 103.299 44.2812C101.892 42.7064 101.006 40.8507 100.327 38.8874C99.9816 37.8898 99.7226 36.8695 99.565 35.7361C99.1619 36.3157 99.2126 36.8999 99.1777 37.4693C98.4324 37.1238 98.4206 37.1246 98.373 36.6823C98.2788 35.8032 98.2091 34.9194 98.3612 34.0427C98.4665 33.4327 98.5536 32.7868 99.2419 32.492C100.223 32.0708 101.236 31.7642 102.316 31.719C102.365 31.7151 102.415 31.7112 102.464 31.7073C102.492 31.7065 102.52 31.705 102.548 31.7042C103.007 31.6628 103.475 31.6956 103.978 31.5747C103.472 31.2167 102.936 31.1106 102.388 31.0334C101.593 30.9889 100.814 31.0833 100.006 31.3134C100.147 30.0794 100.023 28.8984 99.717 27.7362C99.4145 26.5849 99.0993 25.4367 98.7896 24.287C98.4451 26.1309 98.8356 27.9796 98.7176 29.8243C98.617 29.5295 98.5457 29.2307 98.4618 28.9359C97.9446 27.1122 97.1787 25.3735 96.5626 23.5842C95.7793 21.3127 95.3786 19.0132 95.8902 16.624C96.2363 15.007 96.8596 13.525 98.1133 12.3721C98.7651 11.7731 99.5056 11.3121 100.41 11.1678H100.412C100.45 11.1124 100.502 11.0944 100.568 11.11C100.993 10.9852 101.43 11.0008 101.864 11.0242C103.884 11.1327 105.133 12.1522 105.636 14.0788C106.048 15.6544 105.952 17.2504 105.828 18.844C105.7 20.4828 105.692 22.1099 106.07 23.7246C106.61 26.0311 107.803 27.9616 109.497 29.6161C111.374 31.4483 112.976 33.474 114.044 35.8804C114.754 37.4787 115.593 39.0036 116.825 40.2852C117.003 40.4708 117.073 40.7095 117.114 40.9552C117.367 42.481 117.424 44.0231 117.522 45.562C117.543 45.6619 117.575 45.7617 117.583 45.8624C117.705 47.3545 117.675 48.8483 117.659 50.3428C117.639 52.3584 117.206 54.2726 116.335 56.0994C115.627 57.5853 114.836 59.0182 113.745 60.2686C113.116 60.9901 112.352 61.4254 111.323 61.2522C110.254 61.072 109.171 61.0525 108.088 61.0564C105.997 61.0642 103.934 61.3364 101.877 61.6711C101.655 61.7069 101.535 61.6562 101.423 61.4768C101.194 61.1133 101.139 60.7257 101.231 60.3169C101.364 59.7194 101.512 59.1258 101.657 58.512C101.473 58.5642 101.448 58.7335 101.337 58.8201C100.787 59.7881 100.248 60.7577 100.785 61.9269C99.2957 62.1126 97.8305 62.2093 96.3567 62.1757C96.3361 61.9916 96.424 61.8707 96.4865 61.7452C96.8239 61.0728 97.2864 60.4948 97.8733 60.0166C98.5124 59.4964 99.1516 58.9776 99.6767 58.3396V58.3435ZM94.7861 55.7944C95.0079 55.7858 95.236 55.8069 95.4514 55.764C96.3123 55.5947 97.1684 55.4067 98.027 55.225C98.6051 55.0034 99.1967 54.817 99.7559 54.5401C99.7764 54.6002 99.7883 54.6236 99.7923 54.6485C100.001 56.0705 99.2759 57.3958 97.8448 58.1165C95.8933 59.1001 93.8001 59.3006 91.6538 59.0954C90.6369 58.9987 89.6446 58.7756 88.8312 58.1095C88.2649 57.6446 87.8468 57.0908 87.9727 56.2983C88.0305 55.9317 88.0875 55.5643 88.1461 55.1844C89.4981 55.6423 90.8714 55.7827 92.2581 55.8069C93.1008 55.8217 93.9443 55.7998 94.7869 55.7944H94.7861ZM98.8269 49.9364C99.2783 49.626 99.7273 49.3108 100.127 48.9341C101.208 50.2695 101.029 52.2351 99.7321 53.2819C99.2165 53.6977 98.6146 53.959 97.9826 54.1532C95.9393 54.7811 93.8373 54.8357 91.7227 54.7764C90.035 54.7289 88.4027 54.4223 86.8489 53.7562C86.4481 53.5846 86.0632 53.3864 85.7932 53.0284C85.002 51.9816 84.7485 50.232 85.8328 48.9411C85.9341 48.9918 86.0403 49.0409 86.1432 49.0963C87.7319 49.9403 89.4141 50.5097 91.208 50.7383C91.8194 50.8163 92.4332 50.874 93.0454 50.9411C93.1634 50.9411 93.2814 50.9411 93.3994 50.9426C95.2764 50.9606 97.1296 50.8553 98.8276 49.9356L98.8269 49.9364ZM120.759 53.1314C120.751 53.1953 120.751 53.2616 120.735 53.3233C120.275 55.1875 119.552 56.9511 118.625 58.6344C118.04 59.6976 117.391 60.7218 116.568 61.6258C116.18 62.0517 115.714 62.4331 115.097 62.306C114.38 62.1578 113.685 61.9004 112.932 61.6757C113.408 61.3614 113.792 61.0533 114.125 60.6773C115.12 59.5533 115.899 58.2959 116.567 56.9636C116.952 56.1969 117.234 55.3888 117.591 54.6111C117.596 54.5596 117.59 54.5034 117.609 54.4582C118.196 53.0604 118.246 51.5807 118.307 50.1002C118.417 47.4052 118.131 44.7274 117.964 42.0449C117.911 41.1877 117.801 40.3304 117.163 39.6534C117.1 39.5871 116.995 39.5364 117.006 39.3929C117.078 39.4131 117.139 39.4303 117.199 39.4475C118.337 39.7641 119.446 40.2033 120.644 40.2758C120.851 40.2883 120.892 40.4061 120.928 40.5769C121.218 41.9521 121.411 43.3405 121.474 44.743C121.555 46.5753 121.529 48.4068 121.305 50.2297C121.185 51.2071 121.061 52.1868 120.757 53.1322L120.759 53.1314ZM98.6003 43.2867C99.2498 43.5215 99.9832 44.0457 100.365 44.5441C100.761 45.0605 100.882 45.6432 100.765 46.2734C100.629 47.0027 100.248 47.5987 99.7131 48.1057C98.6883 49.076 97.3997 49.4115 96.0399 49.5331C93.0454 49.8007 90.1214 49.4263 87.2662 48.5207C85.9064 48.0893 84.6693 47.445 83.7269 46.3444C83.3301 45.8811 83.1052 45.3507 83.0988 44.7446C83.0854 43.5496 83.7079 42.5847 84.2908 41.5208C84.9109 42.5761 85.8494 43.0886 86.9233 43.4193C89.1931 44.119 91.5065 44.6018 93.8809 44.7711C94.5509 44.8187 95.2257 44.8265 95.8973 44.7586C97.0148 44.6455 97.9287 44.1603 98.6011 43.2867H98.6003ZM97.2286 59.5603C97.1296 59.6882 97.1027 59.7311 97.0679 59.767C96.4279 60.4386 95.7642 61.0946 95.4918 62.0166C95.4617 62.1188 95.3944 62.1594 95.2867 62.1562C94.3925 62.1313 93.5237 62.0143 92.7991 61.4332C92.4339 61.1406 92.1346 60.7943 91.939 60.3177C93.7613 60.4464 95.4554 60.1024 97.2286 59.5595V59.5603Z" fill="#0E0E0E"/>
<path d="M102.388 31.0342C102.935 31.1114 103.471 31.2182 103.977 31.5755C103.474 31.6964 103.007 31.6636 102.547 31.705C102.521 31.7557 102.494 31.758 102.464 31.7081C102.414 31.712 102.365 31.7159 102.315 31.7198C102.017 31.9554 101.63 31.9242 101.295 32.0505C100.819 32.2299 100.331 32.4117 100.204 32.9624C100.115 33.35 100.047 33.7533 100.096 34.1566C100.187 34.9124 100.219 35.6761 100.406 36.4194C100.79 37.9381 101.292 39.4046 102.266 40.6737C102.37 40.8086 102.462 40.9147 102.646 40.8921C102.887 40.8562 102.858 41.1035 102.977 41.1963C102.993 41.2197 103.009 41.2439 103.025 41.2673L103.026 41.2719C103.194 41.2758 103.28 41.4053 103.372 41.5091C104.043 42.261 104.754 42.9755 105.492 43.6604C106.288 44.3983 107.146 45.0613 108.113 45.5792C109.214 46.1689 110.376 46.5605 111.628 46.6471C112.839 46.7313 113.909 46.4396 114.626 45.3866C115.212 44.5254 115.448 43.5434 115.529 42.5254C115.575 41.9404 115.536 41.3531 115.434 40.7642C115.628 41.0075 115.914 41.1783 115.933 41.5184C116.305 41.942 116.326 42.4802 116.429 42.9911C116.512 43.0754 116.496 43.1705 116.462 43.268C116.458 43.3819 116.455 43.495 116.451 43.6089C116.603 43.6885 116.559 43.832 116.56 43.9552C116.564 44.2649 116.522 44.573 116.499 44.8811C116.358 46.7149 115.27 47.8109 113.619 48.4052C111.873 49.0332 110.093 48.9513 108.331 48.4115C107.834 48.2594 107.335 48.0979 106.977 47.6884C106.81 47.6237 106.641 47.5589 106.473 47.4942C106.447 47.523 106.421 47.5527 106.395 47.5815C107.274 48.9232 108.443 50.0004 109.764 50.9692C109.368 51.0191 109.089 50.9364 108.326 50.5589C107.738 50.6595 107.15 50.7625 106.561 50.86C106.449 50.8787 106.355 50.899 106.344 51.0324C106.455 51.2827 106.566 51.5323 106.708 51.8506C106.22 51.6517 105.952 51.3054 105.628 51.0308C105.135 51.5745 104.719 52.1712 104.373 52.8139C103.806 53.8685 103.472 54.9988 103.352 56.1797C103.286 56.8225 103.305 57.4753 103.499 58.1072C103.619 58.4964 103.868 58.7327 104.291 58.7476C105.372 58.7858 106.452 58.7632 107.503 58.4831C110.131 57.7842 111.9 56.0822 113.114 53.7539C113.293 53.4083 113.27 53.0245 113.192 52.6486C113.162 52.5027 113.108 52.3514 113.243 52.2086C113.838 52.5628 114.292 53.0518 114.722 53.5534C115.158 54.0612 115.549 54.6056 115.971 55.1485C116.022 55.0838 116.057 55.0573 116.066 55.0237C116.904 52.0604 117.586 49.0745 117.439 45.9653C117.432 45.8304 117.384 45.676 117.52 45.5636C117.422 44.0246 117.364 42.4818 117.112 40.9568C117.071 40.7111 117.002 40.4724 116.823 40.2868C115.59 39.0052 114.752 37.4803 114.042 35.882C112.974 33.4764 111.372 31.4507 109.495 29.6176C107.8 27.9632 106.607 26.0327 106.067 23.7261C105.69 22.1115 105.698 20.4844 105.826 18.8455C105.95 17.2512 106.046 15.656 105.634 14.0804C105.131 12.153 103.882 11.1342 101.862 11.0258C101.428 11.0024 100.991 10.9868 100.566 11.1116C100.529 11.1717 100.475 11.1857 100.409 11.1693H100.408C100.41 11.2528 100.371 11.3168 100.314 11.3761C99.4607 12.2544 98.881 13.2809 98.5697 14.4579C98.1507 16.0421 98.0129 17.642 98.363 19.2519C98.5325 20.032 98.7455 20.8104 99.2373 21.4742C99.3854 21.4243 99.5328 21.3705 99.6824 21.3237C100.417 21.092 101.155 20.9797 102 21.3089C101.051 21.5163 100.196 21.7386 99.4559 22.241C99.6801 22.943 99.9066 23.6442 100.128 24.3463C100.562 25.7253 101.008 27.1013 101.306 28.5194C101.475 29.3228 101.609 30.1301 101.709 30.9273C101.948 31.0225 102.188 30.8938 102.387 31.0357L102.388 31.0342Z" fill="#FBFAFA"/>
<path d="M88.0527 35.142C88.0416 35.117 88.0226 35.1045 87.9949 35.1053C87.8516 35.1412 87.7431 35.0757 87.6346 34.9946C87.4524 34.8565 87.1451 34.7442 87.2164 34.4969C87.2916 34.2348 87.614 34.2613 87.8611 34.2574C89.4379 34.2325 90.9617 34.4758 92.3999 35.1428C92.5377 35.2067 92.6827 35.2871 92.8498 35.2317C92.5314 34.3846 91.8479 33.8152 91.2381 33.1849C92.5821 33.61 93.5341 34.4384 93.9958 35.7644C94.0758 35.9946 94.1645 36.1701 94.4496 36.1389C94.5763 36.1077 94.7062 36.085 94.8297 36.0445C95.5805 35.7964 96.0312 35.2637 96.1769 34.5211C96.2902 33.9431 96.0732 33.4337 95.6011 33.0508C95.5354 32.9977 95.4998 32.9353 95.499 32.8526C95.472 32.8362 95.4443 32.8191 95.4174 32.8027C94.7458 32.4806 94.0441 32.309 93.2893 32.3004C91.2183 32.2785 89.1504 32.2777 87.1111 32.7021C86.1813 32.8955 85.28 33.1709 84.4864 33.7153C83.0529 34.6982 82.4684 36.6513 83.1337 38.2395C83.4077 38.2457 83.6358 38.3448 83.8204 38.5507C83.9304 38.6731 84.0397 38.8167 84.2433 38.78C84.195 38.0312 84.3359 37.3346 84.8278 36.7364C85.0123 36.5117 85.2222 36.3159 85.596 36.174C84.8571 37.2168 84.4025 38.241 84.6298 39.45C84.6448 39.5725 84.7193 39.6591 84.7961 39.7504C85.5532 40.6528 86.5392 41.2332 87.6195 41.6622C89.8513 42.5483 92.1718 42.9438 94.5811 42.8424C95.3136 42.8119 96.0106 42.6848 96.6576 42.3369C96.6434 42.3018 96.607 42.2558 96.6188 42.2339C96.9626 41.5662 97.1423 40.8471 97.3166 40.1193C97.4568 40.6123 97.4061 41.0959 97.2603 41.5772C97.5415 41.6138 97.5478 41.3455 97.6579 41.2098C98.6281 40.0148 98.2749 38.1615 96.6774 37.7184C96.584 37.6927 96.4565 37.6919 96.4454 37.5491C94.8218 37.3175 93.1887 37.1365 91.6072 36.681C90.3835 36.3284 89.1948 35.8931 88.1216 35.1958C88.0987 35.1779 88.0757 35.1591 88.0527 35.1412V35.142ZM96.3884 39.9656C96.8564 40.7067 96.5681 41.9251 95.8704 42.3681C96.0732 41.5865 96.3678 40.8486 96.3884 39.9656ZM83.9098 38.0062C83.4885 37.2395 83.875 35.9953 84.6076 35.7473C84.1981 36.4509 84.0524 37.2067 83.9098 38.0062Z" fill="#F9F8F8"/>
<path d="M124.177 51.0259C124.168 51.1179 124.159 51.21 124.15 51.302C124.409 51.2474 124.668 51.1928 124.916 51.1405C124.937 50.9892 124.763 50.9229 124.814 50.816C125.26 50.5204 125.568 50.0586 126.252 50.0118C125.838 49.671 125.858 49.3317 125.96 48.983C126.085 48.5485 126.048 48.0953 126.109 47.664C126.183 47.1468 126.25 46.657 126.176 46.1351C126.158 46.0064 126.278 45.657 126.6 45.7677C126.876 45.8629 127.163 46.6055 126.965 46.7833C126.636 47.0782 126.749 47.3442 126.886 47.6429C126.932 47.7451 126.906 47.8379 126.891 47.9424C126.835 48.334 126.754 48.7154 127.235 48.9752C127.392 49.0594 127.726 49.0836 127.71 49.4323C127.147 49.412 127.402 49.9775 127.096 50.1733C127.918 50.4026 128.028 50.5017 127.875 50.8371C127.683 50.8199 127.778 50.5727 127.59 50.522C127.481 50.717 127.141 50.9346 127.316 51.1132C127.534 51.334 127.442 51.5547 127.568 51.7997C127.206 51.7396 127.238 52.0719 127.096 52.1803C126.807 52.2029 126.917 51.8566 126.662 51.8293C126.563 51.9112 126.414 51.9822 126.498 52.1834C126.566 52.3449 126.704 52.4596 126.866 52.4205C127.375 52.2989 127.433 52.7302 127.608 52.9939C127.789 53.2669 127.424 53.3035 127.345 53.4549C127.415 53.8675 127.793 54.0414 128.048 54.3098C127.908 54.3979 127.815 54.387 127.726 54.3667C127.602 54.3394 127.47 54.2411 127.365 54.3761C127.31 54.4455 127.309 54.5586 127.37 54.6343C127.469 54.7591 127.598 54.7848 127.757 54.7263C128.021 54.6288 128.205 54.7575 128.352 54.9392C128.354 55.1358 128.118 55.1935 128.139 55.3628C128.178 55.6912 128.049 55.9767 127.932 56.2668C127.837 56.5024 128.203 57.2286 128.415 57.1685C128.859 57.0437 129.091 57.2333 129.298 57.5578C129.31 57.5765 129.39 57.5531 129.391 57.5531C129.54 57.433 129.335 57.2988 129.502 57.1958C129.726 57.174 129.835 57.5289 130.106 57.4244C130.122 57.3175 130.069 57.1233 130.215 57.1381C130.502 57.1678 130.712 56.8433 130.995 56.993C131.117 57.0578 131.157 57.1849 131.048 57.3214C130.95 57.4431 130.845 57.5874 130.991 57.7348C131.14 57.8838 131.299 57.8191 131.447 57.7114C131.503 57.6717 131.565 57.6568 131.644 57.6966C131.694 57.8362 131.829 57.9681 131.702 58.1482C131.508 58.422 131.301 58.1381 131.093 58.1638C131.053 58.3433 131.015 58.5172 130.977 58.6911C131.129 58.6576 131.284 58.6342 131.433 58.589C131.955 58.4291 132.479 58.2793 133.021 58.2005C133.612 56.1717 133.898 54.089 134.15 52.0009C134.402 49.9097 134.457 47.8067 134.546 45.7053C134.553 45.5423 134.531 45.3707 134.629 45.1874C134.895 45.5197 134.97 45.8933 135.011 46.2748C135.116 47.2576 135.064 48.2443 135.083 49.2295C135.258 49.2123 135.388 49.3028 135.391 49.458C135.398 49.9292 135.889 50.121 135.94 50.6374C136.142 50.4096 136.14 50.114 136.434 50.1686C136.229 48.2412 136.827 46.4222 137.193 44.5696C137.281 44.1227 137.383 43.6422 137.024 43.235C136.989 43.203 136.954 43.1718 136.919 43.1406L136.923 43.143C136.698 43.2264 136.443 42.9207 136.229 43.1882C136.514 43.7943 136.016 44.3863 135.522 44.5376C135.387 44.579 135.16 44.6437 135.091 44.4035C135.009 44.1242 134.789 44.1258 134.584 44.1749C134.178 44.2709 133.774 44.2592 133.37 44.2046C133.263 44.1905 133.172 44.1882 133.143 44.2919C133.018 44.7428 132.769 45.1866 133.045 45.6671C133.142 45.8364 133.138 46.0158 133.073 46.1944C132.993 46.4198 133.034 46.6039 133.256 46.7264C133.368 46.788 133.499 46.9066 133.398 46.9932C133.161 47.1983 133.209 47.5119 133.031 47.7482C132.803 48.0509 132.572 48.0002 132.264 47.9393C132.371 47.774 132.675 47.8535 132.62 47.6094C132.569 47.3878 132.334 47.4206 132.168 47.3644C132.133 47.3527 132.09 47.3605 132.05 47.3605C131.547 47.3605 131.062 47.061 130.544 47.2716C130.507 47.2864 130.444 47.2482 130.396 47.2272C129.661 46.9097 129.423 46.5158 129.582 45.6991C129.63 45.4565 129.581 45.2295 129.415 45.1476C129.075 44.9791 129.014 44.6749 128.94 44.3863C128.886 44.1757 128.784 44.008 128.617 43.9222C128.186 43.7007 127.712 43.5579 127.401 43.1492C127.346 43.0759 127.217 43.0377 127.112 43.1141C127.008 43.189 127.033 43.2842 127.057 43.3934C127.122 43.6882 127.153 43.9815 126.941 44.2451C126.895 44.3021 126.849 44.4027 126.87 44.4596C127.047 44.955 126.603 45.1531 126.401 45.5259C126.098 45.2311 125.983 44.8988 126.036 44.5712C126.089 44.2451 125.966 44.1562 125.709 44.0985C125.57 44.2436 125.455 44.3957 125.466 44.5571C125.485 44.8231 125.743 44.962 125.912 45.1429C125.321 45.6273 125.276 45.7529 125.485 46.3325C125.196 46.5127 125.043 46.7966 124.976 47.1203C124.93 47.341 124.915 47.5478 125.25 47.6125C125.47 47.6546 125.662 47.8301 125.56 48.1031C125.5 48.2615 125.443 48.4643 125.18 48.4066C124.935 48.3527 124.643 48.3995 124.637 48.0033C124.632 47.6336 124.718 47.2552 124.573 46.8918C124.567 47.1367 124.56 47.3808 124.554 47.6258C124.541 47.6905 124.528 47.7545 124.514 47.8192C124.499 48.0719 124.484 48.3247 124.47 48.5774C124.603 48.6601 124.653 48.3231 124.74 48.4885C124.899 48.7895 125.217 48.809 125.449 48.9729C125.637 49.1055 125.722 49.2911 125.661 49.515C125.623 49.6554 125.527 49.8215 125.361 49.7264C124.953 49.4923 124.834 49.749 124.748 50.0696C124.577 49.9767 124.567 49.7256 124.339 49.7755C124.331 49.8909 124.324 50.0056 124.317 50.121C124.323 50.192 124.33 50.2638 124.267 50.3176C124.258 50.4377 124.248 50.5571 124.238 50.6772C124.229 50.7115 124.219 50.7451 124.21 50.7794C124.202 50.8355 124.194 50.8917 124.186 50.9479C124.194 50.9557 124.21 50.9666 124.209 50.9705C124.202 50.9884 124.19 51.0048 124.179 51.022L124.177 51.0259ZM132.435 58.142C132.399 57.933 132.348 57.7208 132.328 57.5063C132.313 57.3511 132.292 57.2255 132.111 57.1849C131.747 57.1022 131.333 57.0476 131.677 56.5149C131.691 56.4923 131.649 56.4408 131.653 56.4049C131.702 55.8909 131.786 55.3839 132.06 54.9307C132.17 54.7505 132.315 54.7489 132.429 54.926C132.536 55.0929 132.62 55.2746 132.73 55.4806C132.862 55.2325 133.031 55.0367 133.06 54.8222C133.084 54.646 133.218 54.3987 133.012 54.2497C132.69 54.0165 132.628 53.6881 132.589 53.3379C132.555 53.0212 132.456 52.7466 132.194 52.5235C131.994 52.3527 132.028 50.621 132.22 50.4331C132.532 50.1281 132.568 49.7443 132.616 49.3785C132.469 49.242 132.315 49.4845 132.189 49.2981C132.293 49.054 132.621 49.2326 132.749 49.0189C132.811 48.9159 132.923 48.7973 133.077 48.8761C133.24 48.9588 133.196 49.1226 133.192 49.2607C133.19 49.3488 133.168 49.4424 133.131 49.5228C133.019 49.7693 133.017 49.9955 133.214 50.2037C133.376 50.3738 133.378 50.5703 133.321 50.7848C133.269 50.9837 133.235 51.1881 133.203 51.3917C133.185 51.5087 133.187 51.6351 133.318 51.6967C133.437 51.7528 133.549 51.7326 133.638 51.628C133.678 51.5812 133.705 51.511 133.838 51.568C133.853 51.8012 133.907 52.0649 133.877 52.3184C133.771 53.2255 133.659 54.1327 133.503 55.0321C133.429 55.4634 133.435 55.9197 133.285 56.3207C133.15 56.6795 133.05 57.0125 133.087 57.394C133.117 57.7013 132.769 58.103 132.437 58.142H132.435ZM128.313 53.8628C128.182 53.745 128.029 53.7185 128.094 53.5422C128.118 53.4775 128.195 53.4377 128.255 53.4619C128.426 53.5313 128.361 53.6639 128.313 53.862V53.8628ZM128.451 53.912C128.691 54.0095 128.839 54.0992 128.796 54.4041C128.647 54.2396 128.512 54.1413 128.451 53.912ZM130.023 57.0203C129.92 56.9611 129.855 56.9072 129.925 56.8035C129.955 56.759 130.018 56.7294 130.056 56.766C130.127 56.8362 130.126 56.9213 130.023 57.0203ZM124.384 50.8426C124.374 50.8207 124.353 50.795 124.359 50.7794C124.366 50.7638 124.4 50.7591 124.421 50.7505C124.43 50.7724 124.452 50.7981 124.446 50.8137C124.439 50.8293 124.405 50.834 124.384 50.8433V50.8426Z" fill="#1C8BBB"/>
<path d="M117.522 45.5645C117.386 45.6768 117.434 45.832 117.441 45.9662C117.588 49.0746 116.905 52.0613 116.068 55.0246C116.059 55.0581 116.023 55.0846 115.973 55.1494C115.552 54.6065 115.16 54.062 114.724 53.5542C114.293 53.0527 113.84 52.5644 113.245 52.2095C113.11 52.3522 113.164 52.5035 113.194 52.6494C113.272 53.0254 113.296 53.4091 113.116 53.7547C111.902 56.0838 110.133 57.7851 107.505 58.484C106.454 58.764 105.374 58.7866 104.293 58.7484C103.87 58.7336 103.621 58.4972 103.501 58.108C103.307 57.4762 103.288 56.8225 103.354 56.1805C103.474 54.9996 103.808 53.8693 104.375 52.8148C104.721 52.172 105.137 51.5753 105.63 51.0316C104.87 50.1822 104.259 49.2337 103.741 48.2087C103.282 48.8569 102.502 51.6276 101.273 56.938C101.257 56.9692 101.24 57.0011 101.223 57.0323C101.217 57.0589 101.21 57.0862 101.204 57.1127C101.192 57.3459 101.233 57.5885 101.269 57.8046C101.328 58.1478 101.252 58.4902 101.339 58.824C101.449 58.7375 101.474 58.5682 101.659 58.5159C101.513 59.1298 101.366 59.7242 101.232 60.3209C101.14 60.7296 101.196 61.1173 101.424 61.4808C101.537 61.6594 101.657 61.7109 101.878 61.675C103.935 61.3412 105.999 61.0682 108.09 61.0604C109.172 61.0565 110.255 61.076 111.324 61.2562C112.354 61.4301 113.118 60.9941 113.747 60.2725C114.838 59.0229 115.629 57.5893 116.337 56.1033C117.207 54.2765 117.64 52.3623 117.661 50.3468C117.676 48.8522 117.707 47.3577 117.584 45.8663C117.576 45.7649 117.544 45.6659 117.523 45.566L117.522 45.5645ZM105.73 59.1782C106.118 59.2016 106.496 59.2999 106.893 59.3116C108.487 59.3591 109.823 58.6704 111.133 57.906C112.191 57.2897 112.874 56.3802 113.231 55.2289C113.426 54.6002 113.512 53.9528 113.515 53.2492C113.573 53.3148 113.609 53.3374 113.616 53.3662C114.18 55.6891 113.102 57.8607 110.89 58.863C110.096 59.2234 109.262 59.459 108.402 59.5908C107.476 59.7335 106.571 59.661 105.73 59.1774V59.1782Z" fill="#D4D5D6"/>
<path d="M130.976 58.6904C131.014 58.5157 131.052 58.3418 131.092 58.1624C131.3 58.1366 131.508 58.4206 131.701 58.1468C131.828 57.9666 131.693 57.8348 131.643 57.6951C131.564 57.6554 131.502 57.6702 131.446 57.71C131.298 57.8176 131.139 57.8823 130.99 57.7334C130.844 57.5867 130.948 57.4424 131.047 57.3199C131.156 57.1834 131.116 57.0563 130.994 56.9916C130.712 56.8418 130.501 57.1655 130.214 57.1366C130.068 57.1218 130.121 57.3153 130.105 57.4221C130.129 57.4268 130.155 57.426 130.175 57.4369C130.221 57.4603 130.262 57.5134 130.198 57.5352C130.118 57.5617 130.116 57.4775 130.104 57.4221C129.833 57.5259 129.725 57.171 129.501 57.1936C129.333 57.2965 129.539 57.4307 129.389 57.5508C129.389 57.5508 129.308 57.5742 129.296 57.5555C129.089 57.231 128.858 57.0415 128.413 57.1663C128.2 57.2263 127.835 56.4994 127.93 56.2646C128.047 55.9744 128.177 55.6897 128.137 55.3605C128.116 55.1913 128.353 55.1343 128.35 54.937C128.203 54.756 128.02 54.6265 127.755 54.724C127.596 54.7825 127.468 54.7568 127.368 54.632C127.308 54.5563 127.308 54.444 127.363 54.3738C127.468 54.2389 127.601 54.3371 127.724 54.3644C127.814 54.3847 127.906 54.3956 128.047 54.3075C127.791 54.0392 127.413 53.8652 127.343 53.4526C127.422 53.3013 127.788 53.2638 127.606 52.9916C127.43 52.728 127.373 52.2966 126.864 52.4183C126.703 52.4573 126.565 52.3426 126.497 52.1812C126.412 51.9799 126.562 51.9089 126.661 51.827C126.915 51.8535 126.805 52.2007 127.095 52.178C127.236 52.0696 127.204 51.7373 127.566 51.7974C127.441 51.5525 127.533 51.3325 127.315 51.111C127.139 50.9323 127.479 50.7147 127.588 50.5197C127.776 50.5704 127.681 50.8177 127.873 50.8348C128.026 50.4987 127.915 50.4004 127.095 50.171C127.4 49.9753 127.145 49.4097 127.708 49.43C127.724 49.0814 127.389 49.058 127.233 48.9729C126.752 48.7132 126.833 48.3318 126.889 47.9402C126.904 47.8357 126.931 47.7428 126.884 47.6407C126.747 47.3427 126.634 47.0767 126.963 46.7811C127.161 46.6032 126.875 45.8599 126.598 45.7655C126.276 45.6547 126.156 46.0049 126.174 46.1329C126.247 46.6547 126.181 47.1453 126.108 47.6617C126.047 48.0931 126.084 48.5463 125.958 48.9807C125.857 49.3294 125.836 49.6687 126.25 50.0096C125.565 50.0572 125.257 50.5182 124.812 50.8138C124.761 50.9214 124.935 50.9869 124.914 51.1383C124.666 51.1905 124.407 51.2451 124.148 51.2997C123.943 52.3676 123.764 53.4409 123.527 54.5017C122.941 57.1312 122.138 59.6873 120.741 62.0258C120.455 62.5055 120.123 62.9587 119.812 63.4236C120.142 63.4252 120.471 63.4236 120.801 63.4298C121.856 63.4509 122.897 63.3542 123.931 63.1334C125.192 62.8643 126.299 62.2957 127.327 61.55C127.714 61.1834 128.116 60.8316 128.483 60.4463C128.878 60.0321 129.237 59.5804 129.75 59.2989C130.15 59.0797 130.567 58.8901 130.976 58.6881V58.6904Z" fill="#1D8AB9"/>
<path d="M124.572 46.8951C124.717 47.2578 124.63 47.6361 124.636 48.0066C124.641 48.4021 124.934 48.3561 125.179 48.4099C125.443 48.4676 125.499 48.2648 125.558 48.1065C125.661 47.8335 125.47 47.658 125.249 47.6158C124.914 47.5511 124.93 47.3444 124.975 47.1236C125.042 46.7999 125.196 46.516 125.483 46.3358C125.275 45.7563 125.32 45.6307 125.911 45.1463C125.741 44.9653 125.484 44.8265 125.465 44.5605C125.454 44.399 125.569 44.2469 125.707 44.1018C125.965 44.1596 126.088 44.2485 126.034 44.5745C125.981 44.9021 126.096 45.2344 126.4 45.5293C126.602 45.1557 127.045 44.9583 126.868 44.463C126.848 44.4053 126.895 44.3054 126.94 44.2485C127.152 43.9848 127.121 43.6916 127.055 43.3967C127.031 43.2875 127.006 43.1923 127.111 43.1175C127.217 43.0418 127.344 43.08 127.4 43.1526C127.711 43.5613 128.185 43.704 128.616 43.9256C128.782 44.0114 128.884 44.1791 128.939 44.3897C129.012 44.6775 129.074 44.9817 129.414 45.151C129.579 45.2329 129.628 45.4599 129.581 45.7024C129.421 46.5191 129.659 46.913 130.395 47.2305C130.443 47.2508 130.506 47.2898 130.542 47.275C131.06 47.0644 131.546 47.3631 132.049 47.3639C132.088 47.3639 132.131 47.3553 132.167 47.3678C132.332 47.424 132.568 47.3912 132.618 47.6127C132.674 47.8569 132.37 47.7773 132.263 47.9427C132.571 48.0035 132.801 48.0534 133.029 47.7516C133.207 47.516 133.158 47.2024 133.397 46.9965C133.497 46.9099 133.366 46.7914 133.255 46.7297C133.033 46.6073 132.991 46.4232 133.072 46.1978C133.136 46.0184 133.141 45.839 133.044 45.6705C132.768 45.19 133.017 44.7461 133.142 44.2953C133.17 44.1915 133.263 44.1939 133.368 44.2079C133.773 44.2625 134.177 44.2742 134.582 44.1783C134.787 44.1299 135.008 44.1276 135.089 44.4068C135.159 44.6471 135.386 44.5823 135.521 44.541C136.014 44.3905 136.512 43.7984 136.228 43.1916C136.441 42.924 136.697 43.2298 136.922 43.1463C136.644 42.9186 136.294 43.0044 135.979 42.9396C135.747 42.8928 135.51 42.8725 135.275 42.8515C134.718 42.8008 134.362 42.4973 134.144 42.0059C133.907 41.4716 133.702 40.9256 133.527 40.3694C133.447 40.1152 133.31 39.9342 133.025 39.8827C132.895 39.8593 132.759 39.8882 132.7 39.9638C132.644 40.0364 132.696 40.1698 132.769 40.2649C133.11 40.715 133.353 41.2158 133.542 41.7438C133.739 42.2899 133.787 42.8484 133.708 43.4646C133.464 43.3101 133.429 43.0738 133.355 42.8718C133.054 42.0496 132.75 41.2298 132.233 40.5083C132.189 40.4459 132.134 40.3921 132.083 40.3343C131.745 40.3343 131.433 40.1542 131.09 40.1908C131.25 40.488 131.422 40.7797 131.57 41.0824C132.194 42.3632 132.694 43.6806 132.703 45.1276C132.705 45.4138 132.695 45.7063 132.53 45.9801C132.364 45.8483 132.374 45.6783 132.341 45.5355C132.244 45.1096 132.179 44.6767 132.084 44.25C131.756 42.7859 131.216 41.4069 130.35 40.1643C130.161 40.1721 129.973 40.1799 129.785 40.1877C130.277 41.0683 130.934 41.8827 130.989 43.0574C130.561 42.5972 130.345 42.1229 130.052 41.7009C129.756 41.2743 129.461 40.846 129.165 40.4194C128.827 40.3187 128.627 40.0216 128.33 39.8554C126.908 39.0613 125.364 38.7579 123.754 38.7002C123.936 39.467 124.118 40.2329 124.3 40.9997C124.478 41.1003 124.396 41.229 124.34 41.3546C124.344 41.385 124.349 41.4147 124.354 41.4451C124.55 41.5465 124.497 41.6838 124.409 41.825C124.398 41.9443 124.397 42.0629 124.462 42.1713C124.477 42.1276 124.472 42.0707 124.549 42.0621C124.54 42.2454 124.618 42.4342 124.488 42.605C124.481 42.7758 124.467 42.9474 124.539 43.1104C124.577 43.0309 124.505 42.9178 124.605 42.8671C124.763 44.0184 124.706 45.1783 124.653 46.3397C124.641 46.2009 124.628 46.0628 124.616 45.924C124.545 46.2461 124.561 46.573 124.567 46.8998L124.572 46.8951Z" fill="#1D8AB9"/>
<path d="M99.2417 21.474C98.7499 20.8102 98.5368 20.0317 98.3673 19.2517C98.0173 17.6418 98.1551 16.0419 98.574 14.4577C98.8853 13.2799 99.4658 12.2534 100.319 11.3758C100.376 11.3166 100.415 11.2534 100.412 11.1699C99.5078 11.3142 98.7673 11.7752 98.1155 12.3743C96.8618 13.5264 96.2385 15.0092 95.8924 16.6262C95.3808 19.0146 95.7823 21.3141 96.5648 23.5863C97.1817 25.3765 97.9468 27.1143 98.464 28.938C98.5479 29.2329 98.6192 29.5316 98.7198 29.8265C98.8378 27.9817 98.4473 26.1331 98.7918 24.2891C99.1015 25.4389 99.4167 26.5871 99.7193 27.7384C100.025 28.9006 100.149 30.0816 100.008 31.3155C100.816 31.0854 101.596 30.9911 102.391 31.0355C102.191 30.8936 101.951 31.0223 101.713 30.9271C101.613 30.1299 101.478 29.3226 101.31 28.5192C101.011 27.1011 100.565 25.7259 100.131 24.3461C99.9101 23.6433 99.6836 22.942 99.4595 22.2408C98.7998 22.584 98.3317 23.1409 97.8335 23.7041C97.6981 22.832 98.2121 22.0387 99.2409 21.4748L99.2417 21.474Z" fill="#D4D5D6"/>
<path d="M120.761 53.1319C121.065 52.1865 121.189 51.2068 121.309 50.2294C121.533 48.4065 121.558 46.575 121.478 44.7427C121.415 43.3403 121.221 41.9518 120.932 40.5767C120.896 40.4058 120.854 40.288 120.648 40.2756C119.449 40.203 118.341 39.7639 117.203 39.4472C117.142 39.43 117.082 39.4129 117.01 39.3926C116.999 39.5361 117.104 39.5868 117.167 39.6531C117.805 40.3302 117.915 41.1874 117.968 42.0447C118.136 44.7271 118.421 47.4057 118.31 50.0999C118.249 51.5796 118.2 53.0601 117.613 54.4579C117.594 54.5039 117.6 54.5601 117.594 54.6108C118.28 54.6654 118.932 54.5843 119.528 54.2099C119.999 53.9142 120.385 53.5289 120.762 53.1311L120.761 53.1319Z" fill="#1C8BBB"/>
<path d="M98.5983 43.2865C97.9259 44.1609 97.0119 44.6453 95.8944 44.7584C95.2228 44.8262 94.5481 44.8184 93.8781 44.7709C91.5037 44.6016 89.1903 44.1188 86.9205 43.4191C85.8465 43.0884 84.9088 42.5759 84.2879 41.5205C83.705 42.5837 83.0825 43.5486 83.096 44.7443C83.1031 45.3504 83.3272 45.8808 83.724 46.3442C84.6665 47.4448 85.9036 48.0891 87.2634 48.5204C90.1185 49.426 93.0425 49.8004 96.037 49.5329C97.3968 49.4112 98.6846 49.0758 99.7102 48.1054C100.246 47.5984 100.627 47.0025 100.762 46.2732C100.879 45.6421 100.758 45.0602 100.362 44.5439C99.9803 44.0454 99.2469 43.5213 98.5975 43.2865H98.5983ZM98.4431 44.6234C98.5199 44.7935 98.5817 44.9089 98.6252 45.0306C99.0014 46.0883 98.8921 47.0938 97.8546 47.8231C96.9779 48.4393 95.976 48.6405 94.9504 48.6717C93.7806 48.7076 92.6077 48.7357 91.4356 48.6195C90.0147 48.4775 88.6272 48.2201 87.3093 47.671C86.8832 47.4931 86.4928 47.2404 86.3106 46.7833C85.8838 45.7123 86.275 44.7677 87.0456 44.0384C87.3236 43.7748 87.6047 43.749 87.9738 43.8816C89.8643 44.5626 91.7864 45.1382 93.7783 45.4588C94.6273 45.5953 95.4755 45.6211 96.33 45.4978C97.1006 45.3863 97.7841 45.0751 98.4438 44.6242L98.4431 44.6234ZM84.5936 43.0876C84.3616 43.8442 84.2903 44.54 84.3053 45.3005C83.7161 44.7997 83.8816 43.5782 84.5936 43.0876ZM85.0419 45.4518C84.5889 44.8879 84.9294 43.7872 85.643 43.5423C85.3143 44.1562 85.1987 44.7958 85.0419 45.4518Z" fill="#D4D5D6"/>
<path d="M98.8321 49.9365C97.1341 50.8562 95.2809 50.9623 93.4039 50.9435C93.2859 50.9428 93.1679 50.942 93.0498 50.942C92.9382 51.0793 92.7814 51.0223 92.6444 51.0239C91.4865 51.0387 90.3318 50.8905 89.1731 50.9513C88.5007 50.9864 87.8433 51.0964 87.2319 51.3959C86.9135 51.552 86.7971 51.7696 86.9333 52.1237C87.2264 52.8905 87.715 53.4505 88.5023 53.7672C89.1604 54.0324 89.8526 54.1143 90.5408 54.1346C92.09 54.1798 93.643 54.1908 95.1779 53.9131C96.2431 53.7204 97.2854 53.456 98.1827 52.8242C99.1434 52.1479 99.2867 51.3406 99.0753 50.2501C99.0491 50.1144 99.0183 49.9615 98.8321 49.9365Z" fill="#F9F8F8"/>
<path d="M98.8251 49.9351C99.0113 49.9601 99.0421 50.113 99.0683 50.2487C99.2805 51.3384 99.1364 52.1465 98.1757 52.8228C97.2776 53.4546 96.2354 53.719 95.1709 53.9117C93.6353 54.1894 92.083 54.1777 90.5338 54.1332C89.8448 54.1129 89.1534 54.031 88.4953 53.7658C87.708 53.4491 87.2194 52.8891 86.9264 52.1223C86.7909 51.7674 86.9066 51.5506 87.2249 51.3946C87.8364 51.095 88.4937 50.9851 89.1661 50.95C90.3248 50.8891 91.4795 51.0373 92.6374 51.0225C92.7752 51.0209 92.9312 51.0779 93.0429 50.9406C92.4299 50.8735 91.8161 50.8158 91.2055 50.7378C89.4116 50.5092 87.7302 49.9398 86.1407 49.0958C86.0378 49.0412 85.9316 48.9913 85.8303 48.9406C84.746 50.2315 84.9995 51.9819 85.7907 53.0279C86.0607 53.3852 86.4456 53.5841 86.8464 53.7557C88.4002 54.421 90.0325 54.7284 91.7202 54.776C93.8341 54.8352 95.9368 54.7806 97.9801 54.1527C98.6129 53.9585 99.2148 53.6972 99.7296 53.2814C101.027 52.2346 101.206 50.269 100.125 48.9336C99.7248 49.3103 99.2766 49.6255 98.8244 49.9359L98.8251 49.9351ZM86.2413 52.2502C85.8437 52.0974 85.6948 51.8283 85.6719 51.4866C85.6354 50.9359 85.7621 50.4453 86.3078 50.017C86.1114 50.808 85.9015 51.5061 86.2413 52.2502Z" fill="#D4D5D6"/>
<path d="M127.329 61.5527C126.302 62.2984 125.195 62.8671 123.934 63.1362C122.899 63.3569 121.859 63.4544 120.803 63.4326C120.474 63.4263 120.144 63.4287 119.815 63.4263C119.153 64.1939 118.479 64.9497 117.52 65.5098C118 65.7305 118.429 65.8702 118.862 65.9989C118.902 65.9396 118.924 65.9669 118.943 66.0145L118.961 66.0238L118.978 66.0129C119.17 66.0012 119.349 66.0285 119.49 66.1728L119.485 66.1681C119.578 66.1619 119.675 66.1408 119.728 66.2485L119.724 66.2438C120.202 66.2407 120.643 66.4201 121.099 66.5223C121.283 66.5636 121.498 66.5472 121.627 66.7297C121.683 66.7438 121.739 66.7578 121.795 66.7719C121.865 66.6915 121.962 66.6962 122.051 66.7079C122.517 66.768 122.983 66.8304 123.447 66.899C123.968 66.9762 124.485 66.9294 124.962 66.931C125.13 66.6985 124.809 66.4739 125.062 66.3085L125.122 66.179C125.147 66.0971 125.211 66.0847 125.286 66.0909L125.282 66.0956C125.351 65.8897 125.522 65.9263 125.681 65.9349L125.689 65.9435C125.702 65.7797 125.578 65.6635 125.528 65.5137C125.831 65.1065 126.239 64.8889 126.741 64.8351C126.948 64.8132 127.078 64.7298 127.081 64.5192C126.984 64.4162 126.874 64.4536 126.775 64.4435C126.754 64.4622 126.733 64.4802 126.713 64.4989C126.678 64.5761 126.614 64.5987 126.534 64.5917L126.535 64.5862C126.524 64.6416 126.505 64.6596 126.465 64.6042C126.436 64.6174 126.407 64.6307 126.378 64.6447C126.341 64.7742 126.235 64.7524 126.139 64.7485L126.143 64.7438C125.961 64.8273 125.784 65.0917 125.592 64.7555C125.473 64.5964 125.621 64.5644 125.715 64.5075C125.924 64.3795 126.15 64.2766 126.318 64.0917C126.207 63.8749 125.992 64.1681 125.84 63.9568C125.862 63.7797 125.93 63.6112 126.183 63.5644C126.391 63.5254 126.505 63.4123 126.463 63.1869C126.417 62.9303 126.535 62.7469 126.726 62.5824C126.902 62.4303 127.072 62.2665 127.223 62.0894C127.351 61.9381 127.519 61.7743 127.327 61.5535L127.329 61.5527Z" fill="#155E86"/>
<path d="M120.761 53.1318C120.385 53.5304 119.998 53.915 119.528 54.2106C118.932 54.585 118.279 54.6661 117.594 54.6115C117.238 55.3892 116.955 56.1973 116.571 56.9641C115.902 58.2964 115.123 59.5538 114.128 60.6778C113.795 61.0537 113.411 61.3618 112.935 61.6762C113.688 61.9008 114.383 62.1582 115.101 62.3065C115.717 62.4336 116.182 62.0529 116.571 61.6263C117.394 60.7222 118.043 59.6981 118.628 58.6349C119.555 56.9508 120.279 55.188 120.738 53.3237C120.753 53.2613 120.754 53.1958 120.762 53.1318H120.761Z" fill="#155E86"/>
<path d="M125.061 66.3083C124.807 66.4745 125.127 66.6983 124.96 66.9308C124.484 66.93 123.966 66.976 123.446 66.8988C122.981 66.8302 122.516 66.7678 122.05 66.7077C121.96 66.696 121.864 66.6921 121.793 66.7717C122.774 66.9534 123.756 67.1008 124.763 67.0431C126.289 66.9557 127.571 66.3208 128.721 65.384C130.473 63.9573 131.634 62.1297 132.399 60.0424C132.621 59.434 132.814 58.8139 133.02 58.1992C132.477 58.2772 131.954 58.427 131.432 58.5877C131.283 58.6329 131.127 58.6563 130.975 58.6899C130.566 58.8927 130.149 59.0822 129.749 59.3014C129.236 59.5822 128.877 60.0346 128.482 60.4488C128.115 60.8334 127.712 61.1859 127.326 61.5525C127.518 61.7725 127.35 61.9371 127.221 62.0884C127.071 62.2655 126.901 62.4293 126.724 62.5814C126.534 62.7452 126.415 62.9293 126.462 63.1859C126.503 63.4121 126.389 63.5252 126.182 63.5634C125.928 63.611 125.861 63.7795 125.839 63.9558C125.99 64.1672 126.205 63.8739 126.316 64.0907C127.59 63.1391 128.249 61.7374 129.072 60.4496C128.862 62.0947 128.12 63.4378 126.772 64.4433C126.871 64.4534 126.982 64.416 127.078 64.519C127.074 64.7296 126.944 64.813 126.738 64.8349C126.236 64.8887 125.828 65.1055 125.525 65.5135C125.575 65.6632 125.698 65.7795 125.686 65.9433C125.809 65.9004 125.937 65.8668 126.056 65.8138C127.77 65.0478 128.953 63.7764 129.705 62.0939C129.77 61.9496 129.802 61.7764 129.991 61.6766C130.092 62.09 129.984 62.4519 129.851 62.7974C129.064 64.8325 127.526 65.9721 125.391 66.3871C125.276 66.4097 125.153 66.4058 125.06 66.3083H125.061Z" fill="#146087"/>
<path d="M106.979 47.6889C107.337 48.0992 107.835 48.2599 108.332 48.412C110.094 48.9518 111.875 49.0337 113.62 48.4057C115.271 47.8121 116.359 46.7154 116.5 44.8816C116.524 44.5735 116.565 44.2654 116.562 43.9557C116.56 43.8325 116.604 43.689 116.452 43.6094C116.41 43.8512 116.378 44.0953 116.325 44.3348C116.005 45.7732 115.286 46.9065 113.829 47.4643C113.659 47.529 113.485 47.6265 113.275 47.5625C113.348 47.3207 113.538 47.231 113.697 47.1304C114.814 46.4229 115.419 45.3746 115.773 44.1515C116.024 43.2841 115.951 42.4004 115.934 41.5189C115.915 41.1788 115.629 41.008 115.435 40.7646C115.537 41.3536 115.576 41.9409 115.53 42.5259C115.45 43.5439 115.213 44.5251 114.627 45.3871C113.91 46.4401 112.84 46.7318 111.629 46.6476C110.376 46.561 109.214 46.1694 108.114 45.5797C107.147 45.0618 106.29 44.3988 105.494 43.6609C104.755 42.976 104.044 42.2615 103.373 41.5096C103.281 41.4058 103.195 41.2771 103.027 41.2724C104.01 43.9113 105.725 45.866 108.434 46.8972C109.218 47.1959 109.994 47.5173 110.771 47.8324C110.957 47.9073 111.156 47.972 111.296 48.2037C109.792 48.2926 108.38 48.0446 106.979 47.6881L106.979 47.6889Z" fill="#D4D5D6"/>
<path d="M94.7835 55.7943C93.9408 55.7998 93.0973 55.8216 92.2546 55.8068C90.8671 55.7818 89.4946 55.6422 88.1427 55.1843C88.0833 55.565 88.027 55.9316 87.9692 56.2982C87.8433 57.0915 88.2615 57.6453 88.8277 58.1094C89.6411 58.7763 90.6335 58.9986 91.6504 59.0954C93.7966 59.3005 95.8899 59.1 97.8413 58.1164C99.2724 57.3949 99.9979 56.0704 99.7888 54.6485C99.7848 54.6235 99.773 54.6001 99.7524 54.54C99.1932 54.8169 98.6016 55.0041 98.0235 55.2249C97.9688 56.2062 97.4279 56.8832 96.6129 57.3778C95.2183 58.2249 93.6897 58.5423 92.0622 58.5291C91.3257 58.5228 90.7301 58.3146 90.2501 57.7654C90.083 57.5743 89.8834 57.3926 89.9682 57.1227C90.0482 56.8661 90.2802 56.7623 90.5432 56.7132C91.7644 56.4854 92.9857 56.2569 94.2029 56.0104C94.4001 55.9706 94.6583 56.0408 94.7835 55.7951V55.7943ZM88.8602 56.1211C88.7889 56.7436 88.8768 57.2795 89.135 57.8426C88.4246 57.4628 88.2757 56.5868 88.8602 56.1211Z" fill="#D4D5D6"/>
<path d="M96.4421 37.5489C96.454 37.6917 96.5815 37.6924 96.6742 37.7182C98.2716 38.1612 98.624 40.0146 97.6546 41.2096C97.5446 41.3453 97.5382 41.6136 97.2571 41.5769C97.0955 41.8609 97.0179 42.2088 96.6544 42.3367C96.0073 42.6846 95.3104 42.8109 94.5778 42.8421C92.1686 42.9428 89.848 42.5481 87.6162 41.662C86.536 41.233 85.5491 40.6526 84.7928 39.7501C84.716 39.6581 84.6415 39.5715 84.6265 39.4498C84.3366 39.3157 84.3572 39.0091 84.24 38.779C84.0365 38.8157 83.9272 38.6729 83.8171 38.5497C83.6325 38.3438 83.4044 38.2447 83.1304 38.2384C83.7086 39.8539 84.6914 41.1354 86.2833 41.9014C87.9283 42.6924 89.6873 43.1276 91.474 43.4576C92.9154 43.7236 94.3671 43.8772 95.8362 43.697C97.8788 43.4459 99.4303 41.456 99.1309 39.467C98.9915 38.5395 98.4007 37.9506 97.3331 37.6917C97.0409 37.6207 96.7478 37.5396 96.4421 37.5497V37.5489Z" fill="#D4D5D6"/>
<path d="M122.732 55.0803C123.053 53.9298 123.257 52.7551 123.435 51.5772C123.824 49.0055 124.041 46.4205 123.927 43.8168C123.85 42.0501 123.621 40.3051 123.051 38.618C122.663 38.6164 122.274 38.6148 121.886 38.6133C122.88 41.6702 122.968 44.8082 122.763 47.9751C122.602 50.472 122.054 52.8994 121.429 55.3143C121.73 54.915 121.859 54.4579 121.942 53.9313C122.147 53.9009 122.392 53.8502 122.338 54.2348C122.298 54.5249 122.477 54.6146 122.702 54.6576C122.709 54.8167 122.583 54.9594 122.732 55.0811V55.0803Z" fill="#1C8BBB"/>
<path d="M136.436 50.1688C136.142 50.1134 136.145 50.4098 135.942 50.6376C135.891 50.1212 135.399 49.9293 135.393 49.4582C135.391 49.3029 135.259 49.2125 135.085 49.2296C134.933 49.5284 134.984 49.8575 134.959 50.1711C134.767 52.657 134.443 55.1227 133.869 57.5532C133.831 57.7147 133.8 57.8785 133.765 58.0407C134.395 57.9378 135.026 57.8356 135.656 57.7326C135.623 56.7607 135.743 55.82 136.223 54.9487C136.497 54.4519 136.852 54.0166 137.305 53.6757C137.549 53.4917 137.546 53.3349 137.418 53.0938C137.046 52.3934 136.708 51.6781 136.57 50.8895C136.528 50.6493 136.481 50.409 136.437 50.1695L136.436 50.1688Z" fill="#1D8AB9"/>
<path d="M102.65 40.893C102.467 40.9148 102.374 40.8095 102.27 40.6746C101.296 39.4055 100.794 37.939 100.411 36.4203C100.223 35.677 100.192 34.9133 100.1 34.1575C100.051 33.7542 100.119 33.3509 100.209 32.9633C100.335 32.4126 100.823 32.2308 101.299 32.0514C101.634 31.9251 102.022 31.957 102.319 31.7207C101.24 31.7652 100.227 32.0725 99.2456 32.4937C98.5574 32.7886 98.4703 33.4344 98.365 34.0444C98.2129 34.9219 98.2834 35.8049 98.3768 36.684C98.4244 37.127 98.4362 37.1255 99.1815 37.471C99.2163 36.9008 99.1664 36.3174 99.5688 35.7378C99.7264 36.8704 99.9861 37.8915 100.331 38.8891C101.01 40.8524 101.896 42.7081 103.303 44.283C103.389 44.3781 103.486 44.4631 103.578 44.5528C103.587 44.5411 103.594 44.5294 103.602 44.5177C103.38 43.8204 103.018 43.1738 102.843 42.4577C102.717 41.9413 102.623 41.4257 102.649 40.8938L102.65 40.893Z" fill="#CDCCCD"/>
<path d="M94.7834 55.7948C94.6583 56.0405 94.4001 55.9703 94.2029 56.0101C92.9856 56.2566 91.7644 56.4851 90.5431 56.7129C90.2802 56.762 90.0481 56.8658 89.9682 57.1224C89.8842 57.3923 90.083 57.574 90.2501 57.7651C90.7308 58.3143 91.3264 58.5233 92.0622 58.5288C93.6905 58.542 95.2182 58.2246 96.6129 57.3775C97.4279 56.8829 97.9688 56.2059 98.0234 55.2246C97.1657 55.4056 96.3088 55.5943 95.4479 55.7636C95.2325 55.8057 95.0044 55.7854 94.7826 55.794L94.7834 55.7948Z" fill="#F9F8F8"/>
<path d="M101.336 58.8227C101.249 58.4896 101.325 58.1464 101.266 57.8032C101.229 57.5871 101.188 57.3453 101.201 57.1113C100.926 57.6839 100.646 58.2541 100.219 58.7361C100.074 58.8999 99.9484 59.084 99.7219 59.2143C99.6292 58.9241 99.7401 58.648 99.714 58.3773C99.7013 58.3656 99.6878 58.3539 99.6751 58.343C99.1501 58.981 98.5109 59.4998 97.8718 60.02C97.2857 60.4974 96.8224 61.0754 96.485 61.7486C96.4225 61.8734 96.3345 61.9943 96.3551 62.1791C97.8282 62.2127 99.2942 62.116 100.784 61.9303C100.246 60.7611 100.785 59.7907 101.336 58.8235V58.8227Z" fill="#CDCCCD"/>
<path d="M122.738 55.0815C122.59 54.9598 122.715 54.817 122.709 54.6579C122.483 54.615 122.303 54.5261 122.345 54.2351C122.399 53.8506 122.154 53.9013 121.949 53.9317C121.866 54.4582 121.736 54.9153 121.435 55.3147C120.911 57.0549 120.312 58.7671 119.497 60.4004C119.03 61.3349 118.474 62.2132 117.84 63.0439C118.219 63.2194 118.627 63.2553 119.036 63.2857C120.243 61.8661 121.088 60.2514 121.701 58.5104C121.571 58.3568 121.662 58.2733 121.801 58.2047L121.798 58.2086C121.81 58.037 121.723 57.8318 121.961 57.7374L121.957 57.7421C121.942 57.4504 121.961 57.1704 122.216 56.966L122.208 56.9714C122.193 56.8763 122.163 56.7764 122.292 56.7289L122.283 56.739C122.301 56.707 122.319 56.675 122.338 56.6431C122.339 56.6165 122.34 56.5892 122.341 56.5627C122.278 56.2959 122.297 56.0526 122.539 55.8708C122.595 55.8248 122.585 55.764 122.578 55.7039C122.443 55.5105 122.507 55.3662 122.692 55.2523L122.684 55.2601C122.7 55.2273 122.717 55.1938 122.734 55.161C122.734 55.1345 122.736 55.1072 122.737 55.0807L122.738 55.0815ZM122.206 55.2687C122.213 55.2086 122.254 55.1766 122.308 55.1766C122.363 55.1766 122.409 55.2086 122.41 55.2687C122.411 55.3443 122.369 55.3857 122.29 55.3763C122.227 55.3693 122.21 55.3233 122.206 55.2687Z" fill="#1D8AB9"/>
<path d="M135.653 57.7324C135.023 57.8354 134.392 57.9376 133.762 58.0405C133.353 59.4181 132.883 60.7729 132.201 62.1278C132.885 61.9718 133.494 61.9477 134.107 62.2105C134.273 61.6684 134.434 61.1513 134.688 60.6684C134.961 60.1482 135.271 59.6505 135.673 59.2184C135.872 59.0054 135.938 58.8018 135.835 58.5195C135.744 58.2683 135.711 57.9961 135.653 57.7324Z" fill="#146087"/>
<path d="M97.2266 59.5596C95.4533 60.1017 93.7593 60.4465 91.9369 60.3178C92.1317 60.7936 92.4311 61.1407 92.797 61.4332C93.5224 62.0143 94.3905 62.1305 95.2846 62.1563C95.3923 62.1594 95.4596 62.1188 95.4897 62.0166C95.7622 61.0954 96.4259 60.4394 97.0658 59.7671C97.1006 59.7312 97.1276 59.6883 97.2266 59.5604V59.5596Z" fill="#CDCCCD"/>
<path d="M131.852 40.0383C131.329 39.4743 130.679 39.0874 129.987 38.7707C128.167 37.9377 126.226 37.5531 124.252 37.2988C123.889 37.252 123.525 37.2216 123.116 37.1787C123.253 37.5157 123.354 37.816 123.529 38.0859C124.068 38.0336 124.601 38.135 125.136 38.167C125.985 38.2169 126.825 38.3589 127.633 38.6374C127.884 38.7239 128.165 38.7879 128.266 39.0866C128.265 38.9096 128.312 38.7926 128.516 38.9158C128.68 39.0157 128.837 39.1288 128.997 39.2356C129.066 39.1436 129.166 39.1584 129.245 39.1951C129.61 39.3612 130.01 39.4431 130.356 39.6545C130.534 39.6264 130.658 39.7465 130.803 39.8105C130.834 39.8339 130.866 39.8573 130.896 39.8807H130.87C131.219 39.8043 131.521 40.0086 131.851 40.0391L131.852 40.0383Z" fill="#1D8AB9"/>
<path d="M95.4963 32.8519C95.4963 32.9345 95.5327 32.9969 95.5984 33.05C96.0712 33.433 96.2883 33.9423 96.1742 34.5203C96.0285 35.2621 95.5778 35.7957 94.827 36.0437C94.7035 36.0843 94.5744 36.1069 94.4469 36.1381C95.3165 36.3908 95.7014 36.1872 96.3579 35.1264C96.5599 35.4992 96.5678 35.5679 96.5124 36.5125C96.8387 36.5843 97.1737 36.6576 97.5586 36.7418C97.2608 35.8066 97.2822 34.8924 97.3281 33.9759C97.3598 33.3425 96.9163 32.8955 96.6082 32.4182C96.468 32.2013 96.0665 32.3253 95.756 32.2988C95.7917 32.5484 96.0055 32.7302 95.9746 33.0016C95.8059 32.9486 95.6515 32.9002 95.4963 32.8519Z" fill="#CDCCCD"/>
<path d="M128.265 39.0858C128.164 38.787 127.883 38.7231 127.632 38.6365C126.824 38.358 125.985 38.2168 125.134 38.1661C124.599 38.1342 124.067 38.0328 123.527 38.085C123.584 38.2956 123.634 38.5093 123.757 38.695C125.367 38.7535 126.912 39.0561 128.332 39.8502C128.629 40.0163 128.829 40.3135 129.168 40.4142C128.918 39.9376 128.501 39.571 128.265 39.085V39.0858Z" fill="#7ECAEB"/>
<path d="M92.8467 35.2318C92.6796 35.2872 92.5347 35.2069 92.3969 35.1429C90.9578 34.4752 89.4348 34.2326 87.858 34.2576C87.6109 34.2615 87.2886 34.235 87.2133 34.4971C87.142 34.7451 87.4485 34.8566 87.6315 34.9947C87.7392 35.0766 87.8485 35.1414 87.9918 35.1055C87.9261 34.9565 87.7083 34.9027 87.7344 34.6078C88.631 34.8028 89.5164 34.9893 90.3995 35.1889C91.2928 35.391 92.183 35.6047 93.0898 35.8169C93.051 35.6359 93.0122 35.4768 92.9061 35.3426C92.861 35.3247 92.8237 35.3013 92.8443 35.2435L92.8467 35.2326V35.2318Z" fill="#D4D5D6"/>
<path d="M119.034 63.2867C118.625 63.2563 118.217 63.2204 117.838 63.0449C117.259 63.7181 116.664 64.3741 115.822 64.761C116.457 65.222 116.672 65.2368 117.3 64.8499C117.975 64.4341 118.558 63.917 119.035 63.2867H119.034Z" fill="#146087"/>
<path d="M106.346 51.0327C106.357 50.8993 106.451 50.879 106.563 50.8603C107.152 50.7636 107.74 50.6606 108.328 50.5592C107.33 49.9687 106.37 49.3245 105.448 48.4805C105.597 49.4532 105.906 50.2652 106.346 51.0327Z" fill="#D4D5D6"/>
<path d="M122.875 38.0816C122.323 36.9014 122.715 37.1588 121.437 37.073C121.324 37.0652 121.211 37.0722 121.04 37.0722C121.263 37.4459 121.453 37.7649 121.643 38.0839C122.054 38.0839 122.465 38.0824 122.875 38.0816Z" fill="#1C8BBB"/>
<path d="M124.338 49.7787C124.567 49.728 124.576 49.9799 124.747 50.0727C124.833 49.7521 124.952 49.4947 125.36 49.7295C125.526 49.8255 125.622 49.6585 125.66 49.5181C125.721 49.2943 125.636 49.1086 125.448 48.976C125.216 48.8114 124.898 48.7927 124.739 48.4916C124.652 48.3263 124.602 48.6632 124.469 48.5806C124.391 48.7405 124.403 48.9097 124.411 49.079C124.54 49.2264 124.469 49.3801 124.422 49.5345C124.409 49.5002 124.397 49.4651 124.384 49.4308C124.322 49.5408 124.326 49.6593 124.337 49.7794L124.338 49.7787Z" fill="#1D8AB9"/>
<path d="M122.876 38.082C122.466 38.082 122.055 38.0836 121.645 38.0844C121.727 38.2614 121.808 38.4385 121.89 38.6156C122.278 38.6171 122.667 38.6187 123.055 38.6202C122.995 38.4408 122.935 38.2614 122.876 38.082H122.876Z" fill="#6EC0DF"/>
<path d="M124.619 45.9192C124.632 46.0581 124.644 46.1961 124.656 46.335C124.709 45.1735 124.765 44.0136 124.608 42.8623C124.508 42.913 124.58 43.0261 124.542 43.1057C124.555 43.4598 124.57 43.8147 124.583 44.1688C124.697 44.4083 124.617 44.661 124.634 44.9075C124.576 45.2437 124.601 45.5815 124.619 45.9192Z" fill="#1C8BBB"/>
<path d="M131.851 40.0384C131.52 40.008 131.219 39.8029 130.87 39.8809C130.911 40.0072 131.001 40.0977 131.093 40.1866C131.437 40.15 131.748 40.3301 132.086 40.3301C132.008 40.2326 131.928 40.1359 131.85 40.0384H131.851Z" fill="#6EC0DF"/>
<path d="M121.629 66.7301C121.5 66.5476 121.285 66.564 121.101 66.5226C120.645 66.4205 120.204 66.2411 119.726 66.2442C120.338 66.4883 120.98 66.6217 121.629 66.7301Z" fill="#146087"/>
<path d="M122.215 56.9678C121.96 57.1721 121.942 57.4529 121.957 57.7439C122.076 57.4958 122.189 57.2455 122.215 56.9678Z" fill="#1C8BBB"/>
<path d="M122.539 55.8711C122.297 56.0528 122.278 56.2962 122.341 56.563C122.473 56.3508 122.488 56.1059 122.539 55.8711Z" fill="#1C8BBB"/>
<path d="M122.691 55.2539C122.506 55.3686 122.442 55.5129 122.577 55.7055C122.656 55.5651 122.673 55.4091 122.691 55.2539Z" fill="#1C8BBB"/>
<path d="M124.637 44.9076C124.62 44.6611 124.7 44.4084 124.586 44.1689C124.58 44.417 124.545 44.6666 124.637 44.9076Z" fill="#1D8AB9"/>
<path d="M124.495 42.5995C124.625 42.4287 124.545 42.2399 124.555 42.0566C124.478 42.0652 124.483 42.1222 124.468 42.1658C124.477 42.3101 124.486 42.4552 124.496 42.5995H124.495Z" fill="#1C8BBB"/>
<path d="M121.961 57.7393C121.722 57.8344 121.809 58.0388 121.798 58.2104C121.891 58.0661 121.94 57.9077 121.961 57.7393Z" fill="#1C8BBB"/>
<path d="M124.388 49.4299C124.401 49.4642 124.413 49.4993 124.426 49.5337C124.473 49.3792 124.544 49.2255 124.415 49.0781C124.407 49.1951 124.397 49.3129 124.388 49.4299Z" fill="#1C8BBB"/>
<path d="M119.488 66.1719C119.347 66.0275 119.168 66.001 118.977 66.012C119.129 66.1235 119.301 66.1719 119.488 66.1719Z" fill="#146087"/>
<path d="M121.797 58.207C121.658 58.2757 121.567 58.3591 121.697 58.5128C121.73 58.4106 121.764 58.3084 121.797 58.207Z" fill="#1C8BBB"/>
<path d="M124.345 41.35C124.401 41.2244 124.484 41.0957 124.306 40.9951C124.319 41.1137 124.332 41.2315 124.345 41.35Z" fill="#1C8BBB"/>
<path d="M124.413 41.8203C124.501 41.6783 124.555 41.5418 124.358 41.4404C124.376 41.5668 124.394 41.6939 124.413 41.8203Z" fill="#1C8BBB"/>
<path d="M122.289 56.7305C122.161 56.7781 122.19 56.8779 122.206 56.9731C122.297 56.913 122.261 56.8108 122.289 56.7305Z" fill="#1C8BBB"/>
<path d="M119.734 66.2483C119.681 66.1407 119.584 66.1617 119.491 66.168C119.552 66.253 119.645 66.2452 119.734 66.2483Z" fill="#146087"/>
<path d="M124.263 50.3216C124.326 50.267 124.318 50.196 124.313 50.125C124.256 50.1804 124.252 50.249 124.263 50.3216Z" fill="#1D8AB9"/>
<path d="M124.515 47.8214C124.529 47.7566 124.541 47.6927 124.555 47.6279C124.5 47.6841 124.499 47.7512 124.515 47.8214Z" fill="#1D8AB9"/>
<path d="M100.41 11.1686C100.476 11.185 100.53 11.1709 100.566 11.1109C100.501 11.0953 100.448 11.1132 100.41 11.1686Z" fill="#D4D5D6"/>
<path d="M99.719 58.3785C99.7673 58.3441 99.7681 58.2997 99.7348 58.2217C99.7111 58.2755 99.6952 58.3098 99.6802 58.3441C99.6928 58.3558 99.7063 58.3668 99.719 58.3785Z" fill="#CDCCCD"/>
<path d="M102.465 31.7091C102.494 31.7585 102.521 31.7562 102.547 31.7061C102.519 31.7068 102.492 31.7084 102.465 31.7091Z" fill="#CDCCCD"/>
<path d="M124.207 50.7828C124.216 50.7485 124.226 50.715 124.234 50.6807C124.225 50.715 124.215 50.7485 124.207 50.7828Z" fill="#1D8AB9"/>
<path d="M103.578 44.5527C103.586 44.5835 103.598 44.6275 103.636 44.5936C103.665 44.5673 103.64 44.5319 103.6 44.5195C103.594 44.5303 103.586 44.5419 103.578 44.5527Z" fill="#CDCCCD"/>
<path d="M122.337 56.6445C122.319 56.6762 122.301 56.7078 122.283 56.7394C122.328 56.7224 122.348 56.6923 122.337 56.6445Z" fill="#1C8BBB"/>
<path d="M118.945 66.0139C118.927 65.9661 118.905 65.9399 118.865 65.9985C118.892 66.0039 118.919 66.0093 118.945 66.0139Z" fill="#146087"/>
<path d="M124.182 51.0244C124.192 51.0075 124.204 50.9913 124.211 50.9735C124.212 50.9697 124.196 50.9589 124.188 50.9512C124.173 50.9743 124.172 50.999 124.182 51.0244Z" fill="#1D8AB9"/>
<path d="M92.8445 35.2422C92.8239 35.2999 92.8611 35.3233 92.9062 35.3413C92.8857 35.3085 92.8651 35.2749 92.8445 35.2422Z" fill="#F9F8F8"/>
<path d="M95.4115 32.802C95.4382 32.8182 95.4656 32.8352 95.4922 32.8514C95.4812 32.8098 95.4577 32.7882 95.4115 32.802Z" fill="#CDCCCD"/>
<path d="M115.936 41.5186C115.953 42.4 116.025 43.2837 115.774 44.1511C115.42 45.3742 114.816 46.4218 113.698 47.13C113.539 47.2307 113.349 47.3204 113.276 47.5622C113.487 47.6261 113.661 47.5294 113.831 47.4639C115.288 46.9062 116.006 45.7728 116.326 44.3344C116.379 44.095 116.412 43.8508 116.454 43.609C116.458 43.4951 116.461 43.382 116.465 43.2681C116.41 43.1808 116.413 43.0872 116.432 42.9912C116.328 42.4803 116.308 41.9421 115.936 41.5186Z" fill="#171818"/>
<path d="M99.2336 21.4737C98.2049 22.0384 97.6909 22.8309 97.8263 23.703C98.3237 23.1406 98.7925 22.5828 99.4522 22.2396C100.193 21.7373 101.047 21.5158 101.996 21.3075C101.151 20.9791 100.413 21.0914 99.6787 21.3223C99.5291 21.3691 99.3818 21.4222 99.2336 21.4729V21.4737Z" fill="#171818"/>
<path d="M116.428 42.9922C116.41 43.0881 116.406 43.1817 116.461 43.2691C116.495 43.1716 116.51 43.0756 116.428 42.9922Z" fill="#D4D5D6"/>
<path d="M84.241 38.7791C84.3583 39.0092 84.3377 39.3165 84.6275 39.4499C84.4002 38.2409 84.8556 37.2159 85.5938 36.1738C85.2199 36.315 85.0101 36.5116 84.8255 36.7362C84.3337 37.3337 84.1927 38.0311 84.241 38.7799V38.7791Z" fill="#171818"/>
<path d="M96.388 39.9648C96.3674 40.8478 96.0728 41.5857 95.8701 42.3673C96.5678 41.9243 96.8569 40.7051 96.388 39.9648Z" fill="#171818"/>
<path d="M83.9077 38.006C84.0503 37.2065 84.196 36.4514 84.6055 35.7471C83.8737 35.9951 83.4864 37.2393 83.9077 38.006Z" fill="#171818"/>
<path d="M96.6565 42.3367C97.02 42.208 97.0976 41.8601 97.2592 41.577C97.4057 41.0957 97.4556 40.6121 97.3154 40.1191C97.1412 40.8469 96.9606 41.5661 96.6177 42.2338C96.6066 42.2556 96.6422 42.3024 96.6565 42.3367Z" fill="#171818"/>
<path d="M132.438 58.1418C132.77 58.1028 133.118 57.7003 133.088 57.3937C133.05 57.0123 133.151 56.6792 133.286 56.3204C133.436 55.9195 133.43 55.4632 133.504 55.0318C133.66 54.1325 133.772 53.2253 133.878 52.3181C133.907 52.0646 133.854 51.8018 133.839 51.5678C133.706 51.5108 133.679 51.581 133.639 51.6278C133.55 51.7323 133.438 51.7526 133.319 51.6965C133.188 51.6341 133.186 51.5085 133.204 51.3915C133.236 51.1879 133.27 50.9835 133.322 50.7846C133.378 50.5701 133.377 50.3735 133.215 50.2035C133.018 49.9952 133.02 49.769 133.132 49.5225C133.169 49.4422 133.191 49.3486 133.193 49.2605C133.197 49.1232 133.241 48.9586 133.078 48.8759C132.924 48.7979 132.812 48.9157 132.75 49.0186C132.622 49.2324 132.294 49.053 132.19 49.2979C132.316 49.4843 132.47 49.2417 132.617 49.3782C132.569 49.7441 132.533 50.1278 132.221 50.4328C132.03 50.6208 131.995 52.3525 132.194 52.5233C132.457 52.7464 132.556 53.0209 132.59 53.3376C132.628 53.6879 132.691 54.0162 133.012 54.2495C133.218 54.3985 133.085 54.6457 133.061 54.822C133.031 55.0365 132.863 55.2323 132.731 55.4803C132.621 55.2744 132.537 55.0927 132.43 54.9258C132.316 54.7487 132.171 54.7495 132.061 54.9304C131.787 55.3828 131.703 55.8899 131.653 56.4047C131.65 56.4406 131.692 56.4928 131.678 56.5147C131.333 57.0474 131.748 57.102 132.112 57.1847C132.293 57.2253 132.315 57.3508 132.329 57.5061C132.35 57.7206 132.399 57.9327 132.436 58.1418H132.438Z" fill="#1D8AB9"/>
<path d="M128.318 53.8624C128.366 53.6642 128.431 53.5316 128.26 53.4622C128.2 53.438 128.123 53.4778 128.099 53.5426C128.034 53.7181 128.187 53.7454 128.318 53.8632V53.8624Z" fill="#1D8AB9"/>
<path d="M128.452 53.9111C128.513 54.1405 128.649 54.2387 128.798 54.4033C128.84 54.0983 128.692 54.0086 128.452 53.9111Z" fill="#1D8AB9"/>
<path d="M130.024 57.0192C130.126 56.9201 130.127 56.8351 130.056 56.7649C130.018 56.7275 129.955 56.7579 129.925 56.8024C129.855 56.9061 129.92 56.9607 130.024 57.0192Z" fill="#1D8AB9"/>
<path d="M124.387 50.8408C124.409 50.8315 124.442 50.8269 124.448 50.8115C124.454 50.7961 124.433 50.7706 124.424 50.749C124.402 50.7583 124.368 50.7629 124.363 50.7776C124.356 50.793 124.378 50.8192 124.387 50.84V50.8408Z" fill="#1D8AB9"/>
<path d="M105.732 59.1782C106.573 59.6618 107.477 59.7335 108.403 59.5916C109.263 59.4598 110.097 59.2242 110.892 58.8638C113.104 57.8615 114.182 55.6899 113.618 53.367C113.611 53.3374 113.574 53.3155 113.516 53.25C113.513 53.9544 113.428 54.601 113.233 55.2297C112.876 56.381 112.192 57.2905 111.135 57.9067C109.824 58.6712 108.489 59.3599 106.895 59.3123C106.498 59.3006 106.119 59.2023 105.732 59.1789V59.1782Z" fill="#171818"/>
<path d="M130.104 57.4229C130.115 57.4782 130.118 57.5625 130.197 57.536C130.261 57.5141 130.221 57.4611 130.174 57.4377C130.154 57.4275 130.128 57.4275 130.104 57.4236V57.4229Z" fill="#1C8BBB"/>
<path d="M131.093 40.1864C131.002 40.0975 130.911 40.007 130.871 39.8806L130.897 39.8798C130.842 39.8884 130.82 39.8517 130.804 39.8096C130.659 39.7449 130.534 39.6255 130.356 39.6536C130.244 39.8221 130.313 39.9906 130.354 40.1599C131.22 41.4032 131.76 42.7815 132.087 44.2464C132.182 44.6731 132.247 45.106 132.345 45.5319C132.377 45.6746 132.368 45.8447 132.533 45.9765C132.699 45.7027 132.709 45.4102 132.707 45.1239C132.698 43.677 132.198 42.3595 131.574 41.0787C131.427 40.7753 131.254 40.4836 131.093 40.1872V40.1864Z" fill="#0E0E0E"/>
<path d="M128.265 39.0872C128.502 39.5724 128.918 39.9398 129.168 40.4164C129.464 40.8438 129.759 41.2713 130.055 41.6979C130.348 42.1199 130.564 42.5942 130.992 43.0544C130.937 41.8797 130.279 41.0653 129.788 40.1847C129.524 39.8688 129.26 39.5521 128.996 39.2362C128.836 39.1293 128.68 39.0162 128.515 38.9164C128.311 38.7931 128.264 38.9094 128.265 39.0872Z" fill="#0E0E0E"/>
<path d="M128.996 39.2347C129.26 39.5506 129.524 39.8673 129.788 40.1832C129.976 40.1754 130.165 40.1676 130.353 40.1598C130.313 39.9906 130.243 39.8213 130.355 39.6536C130.01 39.4422 129.609 39.3603 129.245 39.1942C129.166 39.1583 129.066 39.1427 128.997 39.2347H128.996Z" fill="#6EC0DF"/>
<path d="M98.4413 44.6235C97.7816 45.0744 97.0981 45.3864 96.3275 45.4971C95.473 45.6204 94.6247 45.5947 93.7757 45.4581C91.7839 45.1376 89.8617 44.5611 87.9713 43.8809C87.6022 43.7483 87.3211 43.7741 87.0431 44.0377C86.2725 44.767 85.8804 45.7117 86.3081 46.7826C86.4903 47.2397 86.8807 47.4924 87.3068 47.6703C88.6247 48.2194 90.0122 48.4776 91.433 48.6188C92.606 48.7358 93.7789 48.7077 94.9479 48.6711C95.9743 48.6391 96.9754 48.4386 97.8521 47.8224C98.8896 47.0931 98.9981 46.0876 98.6227 45.0299C98.5791 44.9082 98.5173 44.7928 98.4405 44.6227L98.4413 44.6235Z" fill="#FBFAFA"/>
<path d="M84.5938 43.0879C83.8818 43.5785 83.7154 44.8 84.3055 45.3008C84.2904 44.5403 84.3617 43.8445 84.5938 43.0879Z" fill="#171818"/>
<path d="M85.0434 45.4525C85.2002 44.7965 85.3159 44.1568 85.6445 43.543C84.931 43.7879 84.5904 44.8885 85.0434 45.4525Z" fill="#171818"/>
<path d="M86.2421 52.2518C85.9023 51.5076 86.1122 50.8095 86.3086 50.0186C85.7629 50.4468 85.637 50.9374 85.6726 51.4881C85.6948 51.8298 85.8445 52.0989 86.2421 52.2518Z" fill="#171818"/>
<path d="M125.064 66.3076C125.157 66.4051 125.28 66.409 125.395 66.3863C127.53 65.9714 129.068 64.8317 129.855 62.7967C129.989 62.4511 130.097 62.0892 129.995 61.6758C129.806 61.7756 129.774 61.9488 129.709 62.0931C128.958 63.7756 127.774 65.0478 126.06 65.813C125.941 65.8661 125.813 65.8996 125.69 65.9425L125.682 65.9339C125.573 66.047 125.438 66.0954 125.283 66.0946L125.287 66.0899C125.253 66.1562 125.186 66.164 125.124 66.1781L125.064 66.3076Z" fill="#0E0E0E"/>
<path d="M126.777 64.4429C128.125 63.4375 128.867 62.0943 129.078 60.4492C128.255 61.737 127.596 63.1387 126.322 64.0904C126.154 64.2752 125.928 64.379 125.719 64.5061C125.625 64.5631 125.477 64.595 125.596 64.7542C125.78 64.7503 125.963 64.7464 126.147 64.7425L126.142 64.7471C126.2 64.6637 126.299 64.6723 126.381 64.6434C126.411 64.6301 126.439 64.6169 126.469 64.6028C126.49 64.5888 126.514 64.5826 126.539 64.5849L126.537 64.5904C126.575 64.5194 126.646 64.5077 126.716 64.4975C126.737 64.4788 126.758 64.4609 126.778 64.4422L126.777 64.4429Z" fill="#0E0E0E"/>
<path d="M126.145 64.7422C125.961 64.7461 125.777 64.75 125.593 64.7539C125.784 65.0901 125.962 64.8256 126.145 64.7422Z" fill="#146087"/>
<path d="M125.281 66.0955C125.437 66.0955 125.571 66.0479 125.68 65.9348C125.52 65.9262 125.35 65.8895 125.281 66.0955Z" fill="#146087"/>
<path d="M126.375 64.6436C126.293 64.6724 126.194 64.6646 126.136 64.7473C126.233 64.7512 126.338 64.773 126.375 64.6436Z" fill="#146087"/>
<path d="M126.711 64.498C126.64 64.5082 126.57 64.5199 126.532 64.5909C126.612 64.5979 126.676 64.5753 126.711 64.498Z" fill="#146087"/>
<path d="M125.122 66.1774C125.185 66.1634 125.252 66.1556 125.285 66.0893C125.211 66.083 125.147 66.0955 125.122 66.1774Z" fill="#146087"/>
<path d="M126.535 64.5854C126.51 64.5831 126.487 64.5893 126.465 64.6032C126.505 64.6579 126.525 64.6402 126.535 64.5854Z" fill="#146087"/>
<path d="M88.8658 56.1211C88.2821 56.5868 88.431 57.4627 89.1406 57.8426C88.8816 57.2794 88.7945 56.7436 88.8658 56.1211Z" fill="#171818"/>
<path d="M122.207 55.2688C122.211 55.3226 122.227 55.3686 122.291 55.3764C122.371 55.3858 122.412 55.3445 122.41 55.2688C122.409 55.2087 122.363 55.1768 122.309 55.1768C122.254 55.1768 122.214 55.2087 122.207 55.2688Z" fill="#1C8BBB"/>
<path d="M130.806 39.8105C130.822 39.8522 130.843 39.8884 130.898 39.88C130.868 39.8568 130.837 39.8337 130.806 39.8105Z" fill="#6EC0DF"/>
</g>
<defs>
<clipPath id="clip0_6525_83522">
<rect width="128" height="135" fill="white" transform="translate(31 51)"/>
</clipPath>
<clipPath id="clip1_6525_83522">
<rect width="56.5105" height="57.9595" fill="white" transform="matrix(-1 0 0 1 138.512 10)"/>
</clipPath>
</defs>
</svg>
