<svg width="550" height="234" viewBox="0 0 550 234" fill="none" xmlns="http://www.w3.org/2000/svg">
<g clip-path="url(#clip0_2365_103258)">
<path d="M25.0117 134.449C26.3617 136.529 27.9717 138.479 29.8717 140.229L59.7817 167.859L77.4417 131.169C78.1717 129.639 78.7617 128.079 79.2217 126.499L67.4917 132.639C65.8117 133.519 63.7317 132.869 62.8417 131.179C61.9517 129.489 62.6117 127.419 64.3017 126.529L80.2817 118.169C80.2817 118.169 80.3817 118.129 80.4217 118.109C80.4217 113.999 79.5717 109.929 77.9517 106.169L69.6217 110.519C67.9417 111.399 65.8617 110.749 64.9717 109.069C64.0917 107.389 64.7417 105.309 66.4317 104.419L74.5117 100.189C72.5417 97.5193 70.1117 95.1493 67.2317 93.1893C53.4817 83.8393 34.7517 87.4093 25.3917 101.159C20.0617 108.989 18.8917 118.549 21.5517 127.069L36.6917 128.929C38.5817 129.159 39.9217 130.879 39.6917 132.769C39.4617 134.659 37.7417 135.999 35.8517 135.769L24.9917 134.439L25.0117 134.449ZM37.5017 120.099L27.5017 119.039C25.5517 118.829 24.1717 117.039 24.4617 115.099C24.7317 113.279 26.3917 111.999 28.2317 112.189L38.2317 113.249C40.1217 113.449 41.4917 115.139 41.2917 117.039C41.0917 118.929 39.4017 120.299 37.5017 120.099Z" fill="#91CBE9" fill-opacity="0.5"/>
<path d="M67.3905 215.72C67.9705 215.58 68.3505 215.02 68.2505 214.43L49.6205 101.93C49.5205 101.31 48.9305 100.89 48.3105 101C47.7005 101.1 47.2705 101.69 47.3805 102.31L66.0105 214.81C66.1105 215.43 66.7005 215.85 67.3205 215.74C67.3505 215.74 67.3705 215.74 67.4005 215.72H67.3905Z" fill="#BBE2FF"/>
<path d="M79.393 147.368V150.238C79.393 151.828 80.683 153.118 82.273 153.118C83.863 153.118 85.153 151.828 85.153 150.238V144.018C88.453 142.608 92.083 141.818 95.903 141.818C106.273 141.818 114.683 150.228 114.683 160.598V160.678H102.183C100.593 160.678 99.303 161.968 99.303 163.558C99.303 165.148 100.593 166.438 102.183 166.438H114.683V167.448C114.683 170.348 114.223 173.148 113.393 175.778H106.583C104.993 175.778 103.703 177.068 103.703 178.658C103.703 180.248 104.993 181.538 106.583 181.538H110.783C105.993 189.488 97.283 194.808 87.323 194.808H68.543V169.168C68.543 160.258 72.803 152.348 79.393 147.348V147.368Z" fill="#91CBE9"/>
<path d="M61.4521 226.838C61.9121 226.838 62.3121 226.498 62.3721 226.028C66.0621 197.508 78.4421 174.278 101.322 152.908C101.692 152.558 101.722 151.968 101.372 151.588C101.022 151.208 100.442 151.188 100.062 151.538C76.8421 173.218 64.2821 196.808 60.5321 225.778C60.4621 226.288 60.8221 226.758 61.3321 226.818C61.3721 226.818 61.4121 226.818 61.4521 226.818V226.838Z" fill="#DDF6FF"/>
<path d="M0.631719 157.979C2.67172 168.269 9.54172 176.829 18.7817 181.169L29.0817 172.449C30.5317 171.219 32.7017 171.399 33.9317 172.849C35.1617 174.299 34.9817 176.469 33.5317 177.699L26.4817 183.679C28.4917 184.069 30.5517 184.269 32.6717 184.269H55.0817V175.269C55.0817 151.909 36.1417 132.969 12.7817 132.969C8.80172 132.969 5.01172 133.769 1.56172 135.219C0.561719 137.759 0.0117188 140.519 0.0117188 143.419V150.879L11.3817 146.699C13.1617 146.039 15.1417 146.959 15.8017 148.739C16.4617 150.519 15.5417 152.499 13.7617 153.159L0.641719 157.979H0.631719ZM9.45172 168.639C8.66172 166.979 9.32172 164.979 10.9517 164.119L19.8317 159.409C21.5117 158.519 23.5917 159.159 24.4817 160.839C25.3717 162.519 24.7317 164.599 23.0517 165.489L14.1717 170.199C12.4417 171.119 10.2917 170.409 9.45172 168.639Z" fill="#91CBE9"/>
<path d="M57.9798 214.658C58.6098 214.658 59.1098 214.138 59.1098 213.508C58.7498 174.418 43.1598 148.628 12.7598 136.838C12.1698 136.618 11.5198 136.898 11.2898 137.488C11.0598 138.078 11.3498 138.728 11.9398 138.958C41.7998 150.538 56.4898 174.928 56.8398 213.528C56.8398 214.148 57.3498 214.658 57.9798 214.658Z" fill="#DDF6FF"/>
<path d="M51.5901 233.299H84.5401L91.2501 213.849C92.7801 209.409 89.4801 204.779 84.7801 204.779H51.3601C46.6601 204.779 43.3601 209.409 44.8901 213.849L51.6001 233.299H51.5901Z" fill="#258BC0"/>
<path d="M214.499 228.281C212.789 230.491 210.219 231.761 207.459 231.761H133.469C127.869 231.761 123.039 227.881 121.719 222.341L89.3793 85.9106L86.5793 74.0906L83.6293 61.6606C82.9793 58.9206 83.5893 56.0806 85.2993 53.8706C87.0093 51.6606 89.5793 50.3906 92.3393 50.3906H166.329C171.929 50.3906 176.759 54.2706 178.079 59.8106L216.169 220.491C216.819 223.231 216.209 226.071 214.499 228.281Z" fill="#91CBE9" fill-opacity="0.5"/>
<path d="M140.38 70.5706L112.89 80.6406C109.65 81.8206 105.71 82.8306 102.85 83.3706C101.63 83.6006 96.6203 84.5406 91.2703 85.5506C90.6403 85.6706 90.0003 85.7906 89.3703 85.9106L86.5703 74.0906L88.3803 73.6006L100.05 70.4306C101.55 70.0006 103.03 69.5006 104.48 68.9406L120.18 62.8806C123.85 61.4606 127.96 61.7106 131.44 63.5506L140.54 68.3806C141.46 68.8706 141.37 70.2106 140.39 70.5706H140.38Z" fill="#474E6D"/>
<path d="M218.51 221.75L178.7 56.9102C177.33 51.2202 172.28 47.2402 166.42 47.2402H89.0902C86.2002 47.2402 83.5202 48.5402 81.7302 50.8102C79.9402 53.0802 79.3102 55.9902 79.9802 58.8002L83.8502 74.8302L86.6502 86.4302L119.79 223.65C121.16 229.34 126.21 233.32 132.07 233.32H209.4C212.29 233.32 214.97 232.02 216.76 229.75C218.55 227.48 219.18 224.57 218.51 221.76V221.75ZM85.5702 53.5302C85.5702 53.5302 85.5802 53.5102 85.5902 53.5002C86.4802 52.5002 87.7302 51.9302 89.0802 51.9302H117.61C119 51.9302 120.36 52.4002 121.45 53.2702L124.16 55.4202C125.54 56.5102 127.25 56.9902 128.99 56.7802C130.73 56.5702 132.29 55.7002 133.37 54.3102C134.55 52.8002 136.33 51.9302 138.25 51.9302H166.4C170.08 51.9302 173.26 54.4302 174.12 58.0102L213.93 222.85C214.27 224.25 213.95 225.7 213.06 226.84C212.17 227.97 210.83 228.62 209.39 228.62H132.06C128.38 228.62 125.2 226.12 124.34 222.54L91.2502 85.5502L88.3602 73.6002L84.5202 57.7002C84.1802 56.3002 84.5002 54.8402 85.3902 53.7102C85.4402 53.6502 85.4902 53.5802 85.5402 53.5202L85.5702 53.5302Z" fill="#156BA8"/>
<path d="M179.661 204.44C181.261 210.75 178.201 215.86 172.841 215.86C167.481 215.86 161.831 210.75 160.241 204.44C158.651 198.13 161.701 193.02 167.061 193.02C172.421 193.02 178.071 198.13 179.661 204.44Z" fill="white"/>
<path d="M166.79 72.4199C166.79 72.4199 180.27 77.2199 185.53 77.8599C189.7 78.3699 211.1 72.8899 211.1 72.8899L216.4 79.8699C216.4 79.8699 193.93 88.8099 187.16 91.0699C180.39 93.3299 158.77 87.7899 158.77 87.7899L166.79 72.4299V72.4199Z" fill="#474E6D"/>
<path d="M117.759 195.01C125.769 180.76 150.959 138.59 150.959 138.59L126.839 128.1C121.709 137.35 116.059 154.76 110.539 165.11L117.759 195.01Z" fill="#333A59"/>
<path d="M109.279 159.901L116.049 152.891C119.999 148.741 123.029 143.911 126.459 142.681C130.379 141.271 134.969 140.111 137.179 136.581L140.929 129.171L114.509 119.461C110.469 121.491 107.829 131.681 103.699 136.841L109.279 159.901Z" fill="#333A59"/>
<path d="M228.069 60.1908L211.009 45.9008C210.259 45.2708 209.129 45.3708 208.499 46.1208L194.129 63.2808L190.989 64.3308C189.929 64.6808 188.989 65.3208 188.269 66.1808L186.309 68.5108C185.489 69.4908 185.619 70.9508 186.599 71.7708L205.269 87.4108C205.859 87.9008 206.739 87.8308 207.229 87.2408L228.249 62.1508C228.739 61.5608 228.669 60.6808 228.079 60.1908H228.069Z" fill="#FFCF47"/>
<path d="M226.883 59.1773L224.836 57.4629L202.034 84.685L204.081 86.3995L226.883 59.1773Z" fill="#FFAD1F"/>
<path d="M220.189 68.5205L223.559 71.3405C225.259 72.7605 225.409 75.3105 223.889 76.9205L219.529 81.5505C217.999 83.1805 215.499 83.4405 213.659 82.1605C210.749 80.1405 210.189 76.0705 212.429 73.3405L216.059 68.9105C217.089 67.6605 218.929 67.4905 220.169 68.5205H220.189Z" fill="#FFA895"/>
<path d="M168.02 73.3105C168.67 74.0205 168.24 74.9005 168.2 75.8605C167.74 85.1505 163.54 92.6605 161.56 103.7C159.85 113.18 155.56 135.71 150.65 142.25C148.18 145.54 136.16 143.52 136.19 129.13C130.14 141.29 116.53 135.3 111.01 130.79C109.58 129.62 107.37 126.24 108.46 123.52L117.98 104.37C120.22 98.2405 121.9 91.9305 123.04 85.5105C123.78 81.3505 123.37 77.0605 121.89 73.1105L120.16 68.4905C119.3 66.2005 120.24 63.6205 122.38 62.4205L152.27 56.2305L168.04 73.3305L168.02 73.3105Z" fill="#474E6D"/>
<path d="M145.492 101.479C145.172 101.389 144.902 101.159 144.772 100.829L133.522 72.6494C133.342 72.2094 133.472 71.6994 133.842 71.3894L136.862 68.8694L134.142 65.1894C133.962 64.9494 133.892 64.6494 133.942 64.3494C133.992 64.0494 134.162 63.7894 134.412 63.6194L141.422 58.8594C141.922 58.5194 142.612 58.6494 142.952 59.1494C143.292 59.6494 143.162 60.3394 142.662 60.6794L136.602 64.7894L139.252 68.3794C139.602 68.8494 139.522 69.5094 139.072 69.8794L135.862 72.5594L146.822 99.9994C147.052 100.569 146.772 101.209 146.202 101.429C145.962 101.519 145.712 101.529 145.492 101.469V101.479Z" fill="#333A59"/>
<path d="M145.671 101.531C145.571 101.501 145.471 101.451 145.371 101.391C144.861 101.061 144.721 100.371 145.061 99.8608L158.481 79.4809L156.071 74.9809C155.791 74.4509 155.981 73.7908 156.501 73.5008L159.811 71.6508L156.451 63.8808C156.211 63.3208 156.461 62.6708 157.021 62.4308C157.581 62.1908 158.231 62.4408 158.471 63.0008L162.231 71.6808C162.451 72.2008 162.251 72.8008 161.761 73.0808L158.531 74.8908L160.741 79.0208C160.931 79.3808 160.911 79.8108 160.691 80.1508L146.911 101.081C146.641 101.491 146.131 101.661 145.681 101.531H145.671Z" fill="#333A59"/>
<path d="M153.992 57.9697L156.672 60.9997C158.192 62.7197 158.462 65.0797 157.812 67.2797C154.162 79.4797 144.552 96.8097 144.552 96.8097C141.132 76.9197 136.852 60.3697 144.832 56.9297L154.002 57.9697H153.992Z" fill="#DDF0FF"/>
<path d="M163.262 46.1694L146.782 50.6294C134.542 30.2694 145.472 24.7494 149.552 25.8494C151.052 26.2594 154.322 24.7994 157.262 24.9994L159.232 26.1794L163.272 46.1694H163.262Z" fill="#23253E"/>
<path d="M148.422 66.7893L143.992 60.9393C143.292 60.0093 143.002 58.8293 143.212 57.6793C143.602 55.4993 143.992 53.3693 144.192 52.0393C144.852 47.6693 147.872 47.6793 152.132 49.4193C154.212 50.2693 156.662 52.7093 157.212 55.0893L155.852 61.7193C155.662 62.6293 155.242 63.4793 154.622 64.1693L152.142 66.9493C151.132 68.0793 149.332 68.0093 148.422 66.7993V66.7893Z" fill="#FFA895"/>
<path d="M144.112 42.1996L144.242 36.0296C144.532 28.2996 165.032 30.0296 165.102 36.1896C165.432 41.0296 166.352 52.2196 163.142 56.4496C161.462 58.6596 158.952 59.4896 156.312 59.5496C152.562 59.6396 143.722 58.1796 144.422 51.2896L144.102 42.1996H144.112Z" fill="#FFA895"/>
<path d="M144.399 51.9896C135.889 47.3396 144.329 34.1196 145.599 46.2396L144.399 51.9896Z" fill="#FFA895"/>
<path d="M147.162 28.8594L147.672 32.4994C147.962 34.5394 147.672 36.5994 146.992 38.5494C146.712 39.3594 146.572 40.2094 146.562 41.0694V43.0594C146.542 43.7494 146.042 44.3794 145.352 44.4494C144.562 44.5194 143.892 43.8994 143.892 43.1194L143.912 39.2694C143.622 39.1194 143.332 38.9094 143.042 38.6194C140.622 36.1394 143.662 28.9294 147.142 28.8594H147.162Z" fill="#23253E"/>
<path d="M166.812 27.4507C166.072 26.7407 165.142 26.2607 164.172 25.9507C162.102 25.2907 158.602 24.8207 156.282 24.9807C151.782 25.3007 147.402 28.0807 145.762 32.8107C153.642 32.7207 158.562 34.8907 163.422 35.0307C165.222 35.0807 166.872 34.0107 167.542 32.3407C168.252 30.5707 168.442 29.0307 166.802 27.4507H166.812Z" fill="#23253E"/>
<path d="M154.439 51.0494C154.589 51.2494 154.769 51.4694 154.979 51.7394C155.629 52.5794 156.729 53.1894 157.979 53.3294C160.129 53.5794 161.479 52.4894 161.969 51.5394C162.229 51.0394 161.759 50.4594 161.029 50.3694L155.599 49.7094C154.589 49.5894 153.909 50.3794 154.439 51.0494Z" fill="white"/>
<path d="M146.232 73.4801L145.752 72.6501C145.152 71.6301 145.572 70.3101 146.642 69.8101L148.692 68.8701C149.472 68.5101 150.402 68.7401 150.932 69.4201L152.272 71.1601C152.952 72.0401 152.782 73.3101 151.892 73.9801L151.252 74.4601C149.622 75.7001 147.272 75.2401 146.232 73.4701V73.4801Z" fill="#B6C4DE"/>
<path d="M136.462 130.681C136.462 130.681 136.452 130.681 136.442 130.681C135.862 130.501 135.522 129.941 135.672 129.431L144.812 99.9909C144.972 99.4809 145.572 99.2109 146.152 99.3809C146.732 99.5609 147.072 100.121 146.922 100.631L137.782 130.071C137.622 130.581 137.032 130.851 136.462 130.681Z" fill="#333A59"/>
<path d="M149.909 74.2398C149.979 73.6098 150.339 73.0698 150.839 72.6898C150.839 72.6898 150.839 72.6898 150.849 72.6798L151.289 72.3498C151.899 71.8898 152.009 71.0198 151.549 70.4198L150.629 69.2298C150.269 68.7598 149.629 68.5998 149.089 68.8498L147.689 69.4998C146.949 69.8398 146.669 70.7398 147.079 71.4498L147.409 72.0198C147.739 72.5698 147.859 73.2198 147.679 73.8298L143.129 88.9398C143.489 91.9298 143.899 94.7298 144.429 97.1898C145.619 95.0898 146.869 92.6298 148.159 89.9598L149.899 74.2498L149.909 74.2398Z" fill="#23253E"/>
<path d="M121.281 117.959L118.601 117.179C116.661 116.619 115.461 114.689 115.821 112.699L116.241 110.369C116.351 109.769 116.921 109.369 117.521 109.479C118.121 109.589 118.521 110.159 118.411 110.759L117.991 113.089C117.831 113.969 118.361 114.809 119.211 115.059L121.891 115.839C123.641 116.349 125.491 115.399 126.111 113.689L126.151 113.569C126.361 112.999 126.991 112.699 127.561 112.909C128.131 113.119 128.431 113.749 128.221 114.319L128.181 114.439C127.161 117.239 124.131 118.779 121.271 117.949L121.281 117.959Z" fill="#333A59"/>
<path d="M154.769 127.661L153.469 127.281C151.529 126.721 150.329 124.791 150.689 122.801L151.109 120.471C151.219 119.871 151.789 119.471 152.389 119.581C152.989 119.691 153.389 120.261 153.279 120.861L152.859 123.191C152.699 124.071 153.229 124.911 154.079 125.161L155.379 125.541C155.959 125.711 156.299 126.321 156.129 126.911C155.959 127.501 155.349 127.831 154.759 127.661H154.769Z" fill="#333A59"/>
<path d="M216.272 0H191.262C187.132 0 183.792 3.78 183.792 8.43V13.93C183.792 15.94 182.992 17.85 181.602 19.12L175.912 24.33C175.552 24.66 175.792 25.33 176.262 25.27L183.172 24.37C183.922 24.27 184.662 24.65 185.092 25.35C186.442 27.57 188.702 29.02 191.262 29.02H216.272C220.402 29.02 223.742 25.24 223.742 20.59V8.43C223.742 3.77 220.402 0 216.272 0Z" fill="#91CBE9"/>
<path d="M216.79 12.9697H192.01C191.27 12.9697 190.66 12.2897 190.66 11.4497C190.66 10.6097 191.26 9.92969 192.01 9.92969H216.79C217.53 9.92969 218.14 10.6097 218.14 11.4497C218.14 12.2897 217.54 12.9697 216.79 12.9697Z" fill="white"/>
<path d="M210.23 18.9404H192.01C191.27 18.9404 190.66 18.2604 190.66 17.4204C190.66 16.5804 191.26 15.9004 192.01 15.9004H210.23C210.97 15.9004 211.58 16.5804 211.58 17.4204C211.58 18.2604 210.98 18.9404 210.23 18.9404Z" fill="white"/>
<path d="M508.67 206.59H261.84L285.67 53.4298C286.09 50.7198 288.39 48.7598 291.13 48.7598H531.75C531.89 48.7598 532.33 48.7598 532.71 49.1998C533.09 49.6398 533.02 50.0798 533 50.2198L508.67 206.6V206.59Z" fill="#91CBE9" fill-opacity="0.5"/>
<path d="M251.879 216.399H515.579L540.719 54.7992C542.019 46.4692 535.569 38.9492 527.139 38.9492H294.779C285.979 38.9492 278.489 45.3592 277.139 54.0592L251.879 216.409V216.399ZM504.849 203.879H266.499L289.509 55.9792C289.919 53.3592 292.129 51.4692 294.779 51.4692H527.139C527.279 51.4692 527.699 51.4692 528.069 51.8992C528.439 52.3292 528.369 52.7492 528.349 52.8792L504.859 203.889L504.849 203.879Z" fill="#156BA8"/>
<path d="M219.887 233.36H498.627C507.987 233.36 515.577 225.77 515.577 216.41H219.887V233.36Z" fill="#258BC0"/>
<path d="M198.198 233.36H421.328C430.688 233.36 438.278 225.77 438.278 216.41H181.238C181.238 225.77 188.828 233.36 198.188 233.36H198.198Z" fill="#91CBE9"/>
<path d="M295.27 74.51C295.25 67.34 298.62 64.02 298.06 57.2C297.37 48.62 298.08 34.17 310.7 32.88C311.77 32.77 312.82 32.48 313.81 32.08C322.15 28.74 330.8 36.91 329.7 44.84C328.82 51.2 327.8 51.41 331.17 57.04C334.59 62.76 331.23 65.26 332.38 70.59C332.97 73.36 334.19 76.55 334.27 79.69C334.4 87.63 325.34 92.57 317.05 91.26C307.45 89.75 300.12 84.3 295.27 74.53V74.51Z" fill="#9D5151"/>
<path d="M245.277 87.5793L244.877 87.6093C243.237 87.7493 241.597 87.4393 240.127 86.7193L237.137 85.2593C235.947 84.6793 235.427 83.2593 235.967 82.0493L237.307 79.0093C238.057 77.3093 239.737 76.1893 241.597 76.1993C243.047 76.1993 244.767 76.4293 246.697 77.2293L251.557 79.2293V80.7793C251.547 84.3293 248.817 87.2893 245.277 87.5793Z" fill="#FFA895"/>
<path d="M252.897 88.2094C249.427 86.6794 246.877 85.5494 246.477 85.3794L249.157 78.3594C250.487 78.7494 252.847 79.5594 255.657 80.5594L252.897 88.2094Z" fill="#FFA895"/>
<path d="M256.218 89.6688C255.048 89.1488 253.938 88.6588 252.898 88.1988L255.658 80.5488C256.788 80.9488 257.978 81.3888 259.208 81.8388L256.218 89.6688Z" fill="#DDF0FF"/>
<path d="M342.337 203.899H329.217L318.627 155.339C317.627 151.129 315.687 147.209 312.967 143.849V143.889C312.967 143.889 312.967 143.939 312.977 143.989V144.099L312.997 144.239C312.997 144.259 312.997 144.289 312.997 144.319L313.017 144.499C313.017 144.569 313.027 144.639 313.037 144.729L313.067 145.079C313.067 145.169 313.087 145.259 313.097 145.359L313.137 145.819C313.137 145.819 313.137 145.829 313.137 145.839L313.167 146.179L313.197 146.549L313.237 146.949L313.277 147.369C313.277 147.439 313.287 147.519 313.297 147.589L313.357 148.289L313.407 148.779C313.427 148.949 313.437 149.119 313.457 149.299L313.587 150.689C313.607 150.879 313.627 151.079 313.637 151.279L313.697 151.889C313.717 152.099 313.737 152.309 313.757 152.529L313.817 153.179L313.877 153.849C313.877 153.959 313.897 154.079 313.907 154.189L314.067 155.979C314.077 156.099 314.087 156.229 314.097 156.349L314.167 157.109C314.177 157.239 314.187 157.359 314.197 157.489L314.307 158.659L314.417 159.869C314.427 160.009 314.447 160.139 314.457 160.279L314.567 161.529L314.647 162.379L314.807 164.119C314.817 164.269 314.837 164.419 314.847 164.569L314.967 165.919C314.997 166.219 315.027 166.529 315.047 166.829L315.137 167.759C315.167 168.069 315.197 168.379 315.227 168.699L315.437 171.039C315.447 171.209 315.467 171.389 315.487 171.559L315.577 172.529L315.707 173.999C315.767 174.659 315.827 175.319 315.887 175.989L315.977 176.939C315.997 177.129 316.007 177.309 316.027 177.499L316.117 178.509L316.207 179.529C316.227 179.699 316.237 179.869 316.257 180.039L316.397 181.579C316.697 184.829 316.997 188.139 317.297 191.419L317.427 192.799C317.457 193.089 317.477 193.379 317.507 193.669L317.627 195.039C317.717 196.069 317.817 197.089 317.907 198.109L317.997 199.119C318.127 200.529 318.257 201.929 318.377 203.299C318.397 203.479 318.407 203.669 318.427 203.849H306.777L303.427 182.949C299.377 168.809 291.577 146.269 295.467 124.949C295.657 123.899 295.827 122.839 295.977 121.779L327.297 120.189C327.757 121.359 328.307 122.499 328.947 123.599C333.567 131.589 334.517 141.119 336.287 166.139C336.787 173.179 337.977 180.149 340.047 186.899C340.797 189.349 341.477 194.049 342.297 203.839L342.337 203.899Z" fill="#333A59"/>
<path d="M318.54 68.1602C329.33 69.0202 337.34 71.3302 332.93 83.2902C332.93 83.2902 329.65 95.3102 327.03 104.91C325.6 110.14 331.98 126.51 333.71 131.59C331.89 135.88 313.61 137.64 307.21 123.02C303.33 133.76 292.93 137.53 292.93 131.36C293.68 127.52 297.35 113.01 297.56 109.1C297.74 105.85 297.33 102.59 296.38 99.4702L295.15 95.4402C294.28 92.6002 294.43 89.5402 295.56 86.8002L295.82 86.1702C297.73 81.5602 298.26 76.4701 298.12 71.5201C302.29 69.0601 310.19 68.5102 318.52 68.1702L318.54 68.1602Z" fill="#474E6D"/>
<path d="M298.12 71.509C295.76 72.059 287.97 79.199 283.24 80.939C279.49 82.319 258.46 81.739 258.46 81.739L255.09 89.489C255.09 89.489 275.53 91.919 282.3 92.599C289.07 93.279 306.67 80.229 306.67 80.229C306.67 80.229 301.1 70.809 298.12 71.499V71.509Z" fill="#474E6D"/>
<path d="M322.249 68.7587C321.839 69.5487 321.289 70.6087 320.549 71.7787C317.369 73.5487 311.899 74.1687 308.199 72.1487C308.549 71.1987 308.949 69.9887 309.409 68.3287L310.939 55.6287C311.159 52.2787 314.059 49.6187 317.439 49.6487H317.979L322.429 55.6187C321.429 57.9487 320.799 62.8487 320.709 64.4787C320.619 66.1887 321.459 67.9087 322.229 68.7487L322.249 68.7587Z" fill="#FFA895"/>
<path d="M308.207 72.1591C311.907 74.1791 317.377 73.5591 320.557 71.7891L305.287 93.7091C305.057 87.6991 306.207 80.3491 308.207 72.1591Z" fill="#DDF0FF"/>
<path d="M303.48 45.4099L303.31 47.9399C303.26 48.6399 303.04 49.7599 302.89 50.4499C302.35 52.9499 302.55 55.5699 303.48 57.9699L304.19 59.8199C305.03 61.9799 307.07 63.4499 309.39 63.5499C313.9 63.7599 318.11 61.2699 320.11 57.2199L321.66 54.0699L322.19 49.2799C320.28 48.1599 320.23 46.2299 320.23 46.2299C320.11 44.7099 318.66 43.2499 317.14 43.3399C315.2 43.4499 313.42 42.9099 311.65 40.5499C310.16 38.5599 307.28 38.3299 305.68 40.2299L305.51 40.4299C304.32 41.8499 303.6 43.5899 303.48 45.4099Z" fill="#FFA895"/>
<path d="M319.066 54.1094C323.306 60.8494 329.966 49.0994 325.746 47.3094C324.526 46.7894 323.936 47.6994 322.976 48.6894C322.606 49.0794 322.026 49.1994 321.526 48.9994L320.116 48.4294L319.076 54.1094H319.066Z" fill="#FFA895"/>
<path d="M310.078 58.6895C311.098 58.4895 311.958 57.8795 312.498 57.0595C313.028 56.2395 312.448 55.1495 311.468 55.1095L307.478 54.9595C306.898 54.9395 306.438 55.4695 306.558 56.0395L306.618 56.3695C306.928 57.9695 308.478 59.0095 310.078 58.6895Z" fill="white"/>
<path d="M304.418 97.0887C304.668 97.0887 304.908 96.9887 305.098 96.8187L323.008 79.3987C323.388 79.0387 323.398 78.4387 323.048 78.0487L321.448 76.2787L325.168 74.2387C325.628 73.9887 325.808 73.4187 325.568 72.9487L323.738 69.3487C323.498 68.8687 322.908 68.6787 322.428 68.9187C321.948 69.1587 321.758 69.7487 321.998 70.2287L323.398 72.9887L319.428 75.1687C319.168 75.3087 318.988 75.5687 318.938 75.8587C318.888 76.1487 318.978 76.4487 319.178 76.6687L320.978 78.6487L305.088 94.1087L302.568 77.8587L305.968 76.0187C306.238 75.8787 306.418 75.6187 306.468 75.3187C306.518 75.0187 306.418 74.7187 306.218 74.4987L304.828 73.0387L308.558 70.5487C309.008 70.2487 309.128 69.6487 308.828 69.1987C308.528 68.7487 307.928 68.6287 307.478 68.9287L302.788 72.0487C302.548 72.2087 302.398 72.4687 302.358 72.7487C302.328 73.0287 302.418 73.3187 302.618 73.5287L303.928 74.9087L301.038 76.4787C300.678 76.6787 300.478 77.0787 300.538 77.4787L303.448 96.2687C303.508 96.6287 303.758 96.9287 304.098 97.0387C304.198 97.0687 304.298 97.0887 304.408 97.0887H304.418Z" fill="#333A59"/>
<path d="M307.278 128.219C307.808 128.219 308.238 127.789 308.248 127.259C308.328 121.389 307.548 116.099 306.788 110.989C306.048 105.999 305.348 101.289 305.508 96.439C305.528 95.899 305.108 95.449 304.568 95.439C304.028 95.409 303.578 95.839 303.568 96.379C303.398 101.399 304.108 106.199 304.868 111.279C305.618 116.319 306.388 121.519 306.308 127.239C306.308 127.779 306.728 128.219 307.268 128.219H307.278Z" fill="#333A59"/>
<path d="M319.58 116.969H324.04C324.87 116.969 325.66 116.599 326.19 115.959C326.72 115.319 326.94 114.479 326.79 113.659L326.31 111.109C326.21 110.579 325.71 110.229 325.18 110.339C324.65 110.439 324.31 110.949 324.41 111.469L324.89 114.019C324.95 114.359 324.8 114.609 324.71 114.719C324.61 114.839 324.4 115.029 324.05 115.029H319.59C318.15 115.029 316.92 114.009 316.65 112.599L316.41 111.299C316.31 110.769 315.8 110.429 315.28 110.519C314.75 110.619 314.41 111.129 314.51 111.649L314.75 112.949C315.19 115.279 317.23 116.969 319.59 116.969H319.58Z" fill="#333A59"/>
<path d="M304.148 144.369L320.358 129.119C321.078 128.449 321.108 127.319 320.438 126.599L305.098 110.299L304.428 107.059C304.198 105.969 303.678 104.959 302.908 104.139L300.818 101.919C299.938 100.989 298.478 100.939 297.548 101.819L279.818 118.509C279.258 119.039 279.228 119.919 279.758 120.479L302.188 144.309C302.718 144.869 303.598 144.899 304.158 144.369H304.148Z" fill="#FFCF47"/>
<path d="M305.29 143.324L307.234 141.494L282.899 115.634L280.955 117.464L305.29 143.324Z" fill="#FFAD1F"/>
<path d="M307.618 117.899L302.988 121.019C300.128 122.799 304.268 128.769 308.958 126.789L310.528 125.789C311.538 125.139 312.648 124.659 313.828 124.369L316.068 123.809C318.248 122.889 319.258 120.289 318.408 117.769L317.748 115.809L314.098 115.649C311.228 115.529 309.858 116.269 307.608 117.899H307.618Z" fill="#FFA895"/>
<path d="M320.908 119.511L314.767 122.941L312.188 117.751C313.758 116.501 315.327 115.271 316.867 114.061L320.908 119.511Z" fill="#FFA895"/>
<path d="M323.669 118.01L320.529 119.81L316.879 114.06C317.719 113.4 318.549 112.74 319.369 112.09L323.669 118.01Z" fill="#DDF0FF"/>
<path d="M319.359 112.09C323.929 108.44 328.159 104.85 331.469 100.89L325.699 86.1202C323.719 78.5902 332.729 70.1202 333.669 73.9602C335.709 80.7602 341.389 100.85 341.879 103.12C342.409 105.6 341.269 108.14 339.049 109.38L325.209 120.25L319.369 112.09H319.359Z" fill="#474E6D"/>
<path d="M328.787 114.44C328.487 114.03 327.897 113.94 327.487 114.24C327.077 114.54 326.987 115.13 327.287 115.54C327.587 115.95 328.177 116.04 328.587 115.74C328.997 115.44 329.087 114.85 328.787 114.44Z" fill="#333A59"/>
<path d="M326.568 116.071C326.268 115.661 325.678 115.571 325.268 115.871C324.858 116.171 324.768 116.761 325.068 117.171C325.368 117.581 325.958 117.671 326.368 117.371C326.778 117.071 326.868 116.481 326.568 116.071Z" fill="#333A59"/>
<path d="M402.367 22.7695L380.867 166.12H486.287L507.787 22.7695H402.367Z" fill="#A0BAD8"/>
<path d="M390.27 33.0488L368.77 176.389H474.19L495.69 33.0488H390.27Z" fill="#A0BAD8"/>
<path d="M462.459 187.35H357.039L378.529 44.0098H483.949L462.459 187.35Z" fill="white"/>
<path d="M470.37 55.2305H393.82C391.62 55.2305 389.74 56.8005 389.35 58.9605C388.99 60.9405 390.51 62.7605 392.52 62.7605H469.07C471.27 62.7605 473.15 61.1905 473.54 59.0305C473.9 57.0505 472.38 55.2305 470.37 55.2305Z" fill="#A0BAD8"/>
<path d="M466.128 77.5488H389.578C387.378 77.5488 385.498 79.1188 385.108 81.2788C384.748 83.2588 386.268 85.0788 388.278 85.0788H464.828C467.028 85.0788 468.908 83.5088 469.298 81.3488C469.658 79.3688 468.138 77.5488 466.128 77.5488Z" fill="#A0BAD8"/>
<path d="M463.8 90.0098H387.25C385.05 90.0098 383.17 91.5798 382.78 93.7398C382.42 95.7198 383.94 97.5398 385.95 97.5398H462.5C464.7 97.5398 466.58 95.9698 466.97 93.8098C467.33 91.8298 465.81 90.0098 463.8 90.0098Z" fill="#A0BAD8"/>
<path d="M461.928 102.471H385.378C383.178 102.471 381.298 104.041 380.908 106.201C380.548 108.181 382.068 110.001 384.078 110.001H460.628C462.828 110.001 464.708 108.431 465.098 106.271C465.458 104.291 463.938 102.471 461.928 102.471Z" fill="#A0BAD8"/>
<path d="M459.78 114.93H383.23C381.03 114.93 379.15 116.5 378.76 118.66C378.4 120.64 379.92 122.46 381.93 122.46H458.48C460.68 122.46 462.56 120.89 462.95 118.73C463.31 116.75 461.79 114.93 459.78 114.93Z" fill="#A0BAD8"/>
<path d="M457.639 127.379H381.089C378.889 127.379 377.009 128.949 376.619 131.109C376.259 133.089 377.779 134.909 379.789 134.909H456.339C458.539 134.909 460.419 133.339 460.809 131.179C461.169 129.199 459.649 127.379 457.639 127.379Z" fill="#A0BAD8"/>
<path d="M455.491 139.84H378.941C376.741 139.84 374.861 141.41 374.471 143.57C374.111 145.55 375.631 147.37 377.641 147.37H454.191C456.391 147.37 458.271 145.8 458.661 143.64C459.021 141.66 457.501 139.84 455.491 139.84Z" fill="#A0BAD8"/>
<path d="M447.728 166.13C449.078 157.59 443.248 150.66 434.708 150.66C426.168 150.66 418.138 157.59 416.788 166.13C415.438 174.67 421.268 181.6 429.808 181.6C438.348 181.6 446.378 174.67 447.728 166.13Z" fill="#062B6B"/>
<path d="M239.989 24.3691H268.229C272.889 24.3691 276.659 28.1491 276.659 32.7991V38.2991C276.659 40.3091 277.569 42.2191 279.129 43.4891L285.549 48.6991C285.959 49.0291 285.679 49.6991 285.159 49.6391L277.349 48.7391C276.499 48.6391 275.669 49.0191 275.189 49.7191C273.669 51.9391 271.119 53.3891 268.229 53.3891H239.989C235.329 53.3891 231.559 49.6091 231.559 44.9591V32.7991C231.559 28.1391 235.339 24.3691 239.989 24.3691Z" fill="#91CBE9"/>
<path d="M239.399 40.2598H267.379C268.219 40.2598 268.899 40.9398 268.899 41.7798C268.899 42.6198 268.219 43.2998 267.379 43.2998H239.399C238.559 43.2998 237.879 42.6198 237.879 41.7798C237.879 40.9398 238.559 40.2598 239.399 40.2598Z" fill="white"/>
<path d="M246.809 34.2988H267.379C268.219 34.2988 268.899 34.9788 268.899 35.8188C268.899 36.6588 268.219 37.3388 267.379 37.3388H246.809C245.969 37.3388 245.289 36.6588 245.289 35.8188C245.289 34.9788 245.969 34.2988 246.809 34.2988Z" fill="white"/>
</g>
<defs>
<clipPath id="clip0_2365_103258">
<rect width="549.25" height="233.37" fill="white"/>
</clipPath>
</defs>
</svg>
