<svg width="48" height="48" viewBox="0 0 48 48" fill="none" xmlns="http://www.w3.org/2000/svg">
<g filter="url(#filter0_d_2887_105759)">
<circle cx="24" cy="20" r="20" fill="white"/>
</g>
<path d="M23.5 23.3124C25.0648 23.3124 26.3333 22.0463 26.3333 20.4843C26.3333 18.9224 25.0648 17.6562 23.5 17.6562C21.9351 17.6562 20.6667 18.9224 20.6667 20.4843C20.6667 22.0463 21.9351 23.3124 23.5 23.3124Z" stroke="#9E9E9E" stroke-width="2" stroke-linecap="round" stroke-linejoin="round"/>
<path d="M15 24.0665V16.902C15 15.8461 15 15.3181 15.2059 14.9148C15.387 14.5601 15.6759 14.2716 16.0314 14.0909C16.4354 13.8854 16.9643 13.8854 18.0222 13.8854H19.0183C19.1344 13.8854 19.1924 13.8854 19.246 13.8793C19.5255 13.8473 19.7761 13.6927 19.9297 13.4575C19.9591 13.4124 19.9851 13.3606 20.037 13.2569C20.1409 13.0496 20.1928 12.946 20.2517 12.8558C20.5589 12.3854 21.0602 12.0762 21.6191 12.0122C21.7262 12 21.8423 12 22.0745 12H24.9254C25.1577 12 25.2738 12 25.3809 12.0122C25.9398 12.0762 26.4411 12.3854 26.7483 12.8558C26.8072 12.946 26.8591 13.0496 26.963 13.2569C27.0148 13.3606 27.0408 13.4124 27.0703 13.4575C27.2239 13.6927 27.4745 13.8473 27.754 13.8793C27.8076 13.8854 27.8656 13.8854 27.9818 13.8854H28.9778C30.0356 13.8854 30.5646 13.8854 30.9687 14.0909C31.3241 14.2716 31.6131 14.5601 31.7941 14.9148C32 15.3181 32 15.8461 32 16.902V24.0665C32 25.1225 32 25.6505 31.7941 26.0538C31.6131 26.4085 31.3241 26.697 30.9687 26.8777C30.5646 27.0832 30.0356 27.0832 28.9778 27.0832H18.0222C16.9643 27.0832 16.4354 27.0832 16.0314 26.8777C15.6759 26.697 15.387 26.4085 15.2059 26.0538C15 25.6505 15 25.1225 15 24.0665Z" stroke="#9E9E9E" stroke-width="2" stroke-linecap="round" stroke-linejoin="round"/>
<defs>
<filter id="filter0_d_2887_105759" x="0" y="0" width="48" height="48" filterUnits="userSpaceOnUse" color-interpolation-filters="sRGB">
<feFlood flood-opacity="0" result="BackgroundImageFix"/>
<feColorMatrix in="SourceAlpha" type="matrix" values="0 0 0 0 0 0 0 0 0 0 0 0 0 0 0 0 0 0 127 0" result="hardAlpha"/>
<feOffset dy="4"/>
<feGaussianBlur stdDeviation="2"/>
<feComposite in2="hardAlpha" operator="out"/>
<feColorMatrix type="matrix" values="0 0 0 0 0 0 0 0 0 0 0 0 0 0 0 0 0 0 0.25 0"/>
<feBlend mode="normal" in2="BackgroundImageFix" result="effect1_dropShadow_2887_105759"/>
<feBlend mode="normal" in="SourceGraphic" in2="effect1_dropShadow_2887_105759" result="shape"/>
</filter>
</defs>
</svg>
