<svg width="380" height="368" viewBox="0 0 380 368" fill="none" xmlns="http://www.w3.org/2000/svg">
<g clip-path="url(#clip0_2085_61554)">
<path d="M187.238 255C187.238 260.974 192.069 265.81 198.035 265.81H287.824C293.781 265.81 298.62 260.974 298.62 255.009V221.179C298.62 215.215 293.79 210.378 287.833 210.378H198.044C192.087 210.378 187.247 215.215 187.247 221.179V255.009L187.238 255Z" fill="#3D8DCF"/>
<path d="M286.878 246.391H256.129C254.542 246.391 253.055 245.769 251.929 244.65C250.802 243.531 250.189 242.033 250.189 240.445V222.695C250.189 219.42 252.857 216.749 256.129 216.749H286.878C290.15 216.749 292.817 219.42 292.817 222.695V240.445C292.817 243.72 290.15 246.391 286.878 246.391ZM256.129 219.194C254.209 219.194 252.641 220.764 252.641 222.686V240.436C252.641 241.365 253.001 242.24 253.659 242.908C254.317 243.567 255.191 243.928 256.129 243.928H286.878C288.798 243.928 290.366 242.367 290.366 240.436V222.686C290.366 220.764 288.798 219.194 286.878 219.194H256.129Z" fill="white"/>
<path d="M271.125 234.453C270.864 234.453 270.594 234.363 270.368 234.191L252.299 220.078C251.767 219.663 251.668 218.887 252.083 218.355C252.497 217.822 253.272 217.723 253.804 218.138L271.107 231.656L288.429 217.624C288.952 217.2 289.727 217.281 290.15 217.804C290.574 218.328 290.493 219.104 289.97 219.528L271.892 234.173C271.666 234.354 271.396 234.444 271.125 234.444V234.453Z" fill="white"/>
<path d="M246.223 227.135H194.89C194.214 227.135 193.664 226.584 193.664 225.907C193.664 225.231 194.214 224.68 194.89 224.68H246.223C246.899 224.68 247.449 225.231 247.449 225.907C247.449 226.584 246.899 227.135 246.223 227.135Z" fill="white"/>
<path d="M246.223 237.169H219.601C218.925 237.169 218.375 236.618 218.375 235.942C218.375 235.265 218.925 234.714 219.601 234.714H246.223C246.899 234.714 247.448 235.265 247.448 235.942C247.448 236.618 246.899 237.169 246.223 237.169Z" fill="white"/>
<path fill-rule="evenodd" clip-rule="evenodd" d="M195.052 13.9777C195.052 6.25341 201.586 0 209.634 0H350.684C358.741 0 365.266 6.26243 365.266 13.9777V25.7445H195.043V13.9777H195.052Z" fill="#114875"/>
<path fill-rule="evenodd" clip-rule="evenodd" d="M365.274 25.7534V117.154C365.274 124.878 358.74 131.141 350.692 131.141H209.642C201.585 131.141 195.061 124.878 195.061 117.154V25.7534H365.283H365.274Z" fill="#AFCCE3"/>
<path d="M348.691 13.2559C348.691 15.6382 350.62 17.5783 353.008 17.5783C355.397 17.5783 357.325 15.6472 357.325 13.2559C357.325 10.8647 355.397 8.93359 353.008 8.93359C350.62 8.93359 348.691 10.8647 348.691 13.2559Z" fill="white"/>
<path d="M335.156 13.2559C335.156 15.6382 337.085 17.5783 339.473 17.5783C341.861 17.5783 343.79 15.6472 343.79 13.2559C343.79 10.8647 341.861 8.93359 339.473 8.93359C337.085 8.93359 335.156 10.8647 335.156 13.2559Z" fill="white"/>
<path d="M321.619 13.2559C321.619 15.6382 323.548 17.5783 325.936 17.5783C328.324 17.5783 330.253 15.6472 330.253 13.2559C330.253 10.8647 328.324 8.93359 325.936 8.93359C323.548 8.93359 321.619 10.8647 321.619 13.2559Z" fill="white"/>
<path d="M356.947 53.8353C356.947 42.6279 347.872 33.541 336.679 33.541C325.485 33.541 316.41 42.6279 316.41 53.8353C316.41 65.0427 325.485 74.1295 336.679 74.1295C347.872 74.1295 356.947 65.0427 356.947 53.8353Z" fill="white"/>
<mask id="mask0_2085_61554" style="mask-type:luminance" maskUnits="userSpaceOnUse" x="316" y="33" width="41" height="42">
<path d="M356.947 53.8353C356.947 42.6279 347.872 33.541 336.679 33.541C325.485 33.541 316.41 42.6279 316.41 53.8353C316.41 65.0427 325.485 74.1295 336.679 74.1295C347.872 74.1295 356.947 65.0427 356.947 53.8353Z" fill="white"/>
</mask>
<g mask="url(#mask0_2085_61554)">
<path fill-rule="evenodd" clip-rule="evenodd" d="M354.729 74.9415C341.229 74.8242 332.1 74.8152 318.635 74.9415C318.536 69.8341 319.537 66.8022 323.331 65.1509C326.098 63.9507 329.991 64.0951 330.847 61.767C332.064 58.4553 329.297 55.288 328.405 52.3553C326.467 46.0026 329.829 38.5852 335.921 38.0528C342.293 37.4933 346.564 44.7844 344.942 51.4168C344.104 54.8368 341.337 58.0312 342.311 61.388C342.887 63.3732 345.24 63.9146 347.574 64.5914C352.612 66.0442 354.684 67.9843 354.72 74.9415H354.729Z" fill="#104774"/>
</g>
<path fill-rule="evenodd" clip-rule="evenodd" d="M233.634 68.0298V175.357C233.634 184.426 225.973 191.78 216.511 191.78H50.8752C41.4123 191.78 33.752 184.435 33.752 175.357V68.0298H233.634Z" fill="#AFCCE3"/>
<path fill-rule="evenodd" clip-rule="evenodd" d="M33.7422 54.2053C33.7422 45.1365 41.4116 37.7822 50.8654 37.7822H216.501C225.964 37.7822 233.624 45.1365 233.624 54.2053V68.0206H33.7422V54.2053Z" fill="#114875"/>
<path d="M64.5469 52.4096C64.5469 56.0281 67.4758 58.9788 71.0988 58.9788C74.7217 58.9788 77.6596 56.0371 77.6596 52.4096C77.6596 48.7821 74.7307 45.8403 71.0988 45.8403C67.4668 45.8403 64.5469 48.7821 64.5469 52.4096Z" fill="#FBFCFF"/>
<path d="M55.0821 58.9245H47.584L51.3331 52.4275L55.0821 45.9214L58.8312 52.4275L62.5803 58.9245H55.0821Z" fill="#FBFCFF"/>
<path opacity="0.3" d="M144.224 78.5332H216.529C219.638 78.5332 222.17 81.0598 222.17 84.182V172.641C222.17 175.754 219.647 178.29 216.529 178.29H144.224C141.114 178.29 138.582 175.763 138.582 172.641V84.182C138.582 81.0689 141.105 78.5332 144.224 78.5332Z" fill="white"/>
<path opacity="0.3" d="M51.5772 78.5332H123.882C126.991 78.5332 129.524 81.0598 129.524 84.182V172.641C129.524 175.754 127 178.29 123.882 178.29H51.5772C48.468 178.29 45.9355 175.763 45.9355 172.641V84.182C45.9355 81.0689 48.459 78.5332 51.5772 78.5332Z" fill="white"/>
<path d="M95.9443 146.301C95.9443 134.471 86.3643 124.879 74.5493 124.879C62.7343 124.879 53.1543 134.471 53.1543 146.301C53.1543 158.131 62.7343 167.723 74.5493 167.723C86.3643 167.723 95.9443 158.131 95.9443 146.301Z" fill="white"/>
<path d="M51.2891 141.808C53.3889 130.853 63.0049 122.578 74.5586 122.578C76.5773 122.578 78.533 122.831 80.4075 123.309L74.5586 148.151L51.2891 141.808Z" fill="#114875"/>
<path d="M55.8394 118.49H121.854C122.611 118.49 123.215 117.877 123.215 117.128C123.215 116.379 122.602 115.765 121.854 115.765H55.8394C55.0823 115.765 54.4785 116.379 54.4785 117.128C54.4785 117.877 55.0913 118.49 55.8394 118.49Z" fill="white"/>
<path d="M55.8394 103.655H121.854C122.611 103.655 123.215 103.042 123.215 102.293C123.215 101.544 122.602 100.93 121.854 100.93H55.8394C55.0823 100.93 54.4785 101.544 54.4785 102.293C54.4785 103.042 55.0913 103.655 55.8394 103.655Z" fill="white"/>
<path d="M55.8394 88.8204H121.854C122.611 88.8204 123.215 88.2067 123.215 87.4578C123.215 86.7088 122.602 86.0952 121.854 86.0952H55.8394C55.0823 86.0952 54.4785 86.7088 54.4785 87.4578C54.4785 88.2067 55.0913 88.8204 55.8394 88.8204Z" fill="white"/>
<path d="M101.279 148.196H121.854C122.611 148.196 123.215 147.583 123.215 146.834C123.215 146.085 122.602 145.471 121.854 145.471H101.279C100.522 145.471 99.918 146.085 99.918 146.834C99.918 147.583 100.531 148.196 101.279 148.196Z" fill="white"/>
<path d="M101.279 133.361H121.854C122.611 133.361 123.215 132.748 123.215 131.999C123.215 131.25 122.602 130.636 121.854 130.636H101.279C100.522 130.636 99.918 131.25 99.918 131.999C99.918 132.748 100.531 133.361 101.279 133.361Z" fill="white"/>
<path d="M101.279 163.058H121.854C122.611 163.058 123.215 162.445 123.215 161.696C123.215 160.947 122.602 160.333 121.854 160.333H101.279C100.522 160.333 99.918 160.947 99.918 161.696C99.918 162.445 100.531 163.058 101.279 163.058Z" fill="white"/>
<path d="M147.367 118.49H213.381C214.138 118.49 214.742 117.877 214.742 117.128C214.742 116.379 214.129 115.765 213.381 115.765H147.367C146.61 115.765 146.006 116.379 146.006 117.128C146.006 117.877 146.619 118.49 147.367 118.49Z" fill="white"/>
<path d="M147.367 103.655H213.381C214.138 103.655 214.742 103.042 214.742 102.293C214.742 101.544 214.129 100.93 213.381 100.93H147.367C146.61 100.93 146.006 101.544 146.006 102.293C146.006 103.042 146.619 103.655 147.367 103.655Z" fill="white"/>
<path d="M147.367 88.8204H213.381C214.138 88.8204 214.742 88.2067 214.742 87.4578C214.742 86.7088 214.129 86.0952 213.381 86.0952H147.367C146.61 86.0952 146.006 86.7088 146.006 87.4578C146.006 88.2067 146.619 88.8204 147.367 88.8204Z" fill="white"/>
<path d="M147.367 148.196H213.381C214.138 148.196 214.742 147.583 214.742 146.834C214.742 146.085 214.129 145.471 213.381 145.471H147.367C146.61 145.471 146.006 146.085 146.006 146.834C146.006 147.583 146.619 148.196 147.367 148.196Z" fill="white"/>
<path d="M147.367 133.361H213.381C214.138 133.361 214.742 132.748 214.742 131.999C214.742 131.25 214.129 130.636 213.381 130.636H147.367C146.61 130.636 146.006 131.25 146.006 131.999C146.006 132.748 146.619 133.361 147.367 133.361Z" fill="white"/>
<path d="M302.991 61.1084C302.991 67.443 297.854 72.5685 291.528 72.5594L175.712 72.4602C169.385 72.4602 164.266 67.3167 164.275 60.9911V59.6014C164.275 53.2668 169.412 48.1414 175.73 48.1504L291.546 48.2497C297.872 48.2497 302.991 53.3932 302.982 59.7188V61.1084H302.991Z" fill="#3D8ECF"/>
<path d="M187.78 66.0623H175.784C174.261 66.0533 173.018 64.808 173.018 63.283V56.3619C173.018 54.8369 174.27 53.5916 175.793 53.6006H187.789C189.312 53.6097 190.555 54.8549 190.546 56.3799V63.3011C190.546 64.8261 189.303 66.0623 187.771 66.0623H187.78ZM175.802 55.4505C175.298 55.4505 174.892 55.8566 174.892 56.3619V63.283C174.892 63.7884 175.298 64.1944 175.793 64.1944H187.789C188.293 64.2035 188.699 63.7974 188.699 63.2921V56.3709C188.699 55.8656 188.293 55.4595 187.798 55.4595H175.802V55.4505Z" fill="white"/>
<path d="M181.931 61.4062C181.724 61.4062 181.517 61.334 181.346 61.1986L174.298 55.4776C173.902 55.1528 173.839 54.5662 174.163 54.1692C174.487 53.7721 175.064 53.709 175.47 54.0338L181.94 59.2856L188.411 54.2414C188.817 53.9255 189.394 53.9977 189.709 54.4038C190.024 54.8099 189.952 55.3874 189.547 55.7032L182.499 61.1986C182.328 61.3249 182.13 61.3971 181.931 61.3971V61.4062Z" fill="white"/>
<path d="M232.084 66.0986L193.268 66.0625C192.754 66.0625 192.34 65.6474 192.34 65.1331C192.34 64.6187 192.754 64.2036 193.268 64.2036L232.084 64.2397C232.597 64.2397 233.012 64.6548 233.012 65.1691C233.012 65.6835 232.597 66.0986 232.084 66.0986Z" fill="white"/>
<path d="M248.007 54.8549C246.61 53.4563 244.898 52.7344 242.933 52.7344C240.959 52.7344 239.247 53.4472 237.841 54.8459C236.444 56.2536 235.732 57.9591 235.732 59.9353C235.732 61.9115 236.435 63.6169 237.832 65.0246C239.229 66.4233 240.941 67.1362 242.915 67.1452C243.97 67.1452 244.97 66.9376 245.862 66.5316C246.015 66.4865 246.151 66.3782 246.259 66.2338C246.358 66.0894 246.412 65.918 246.412 65.7465C246.412 65.5119 246.331 65.3134 246.169 65.1419C246.006 64.9795 245.808 64.8893 245.574 64.8893C245.439 64.8893 245.303 64.9254 245.186 64.9975C244.483 65.3044 243.726 65.4668 242.915 65.4668C241.401 65.4668 240.085 64.9163 239.013 63.8425C237.949 62.7777 237.409 61.4693 237.409 59.9443C237.409 58.4193 237.949 57.1109 239.022 56.0461C240.094 54.9722 241.41 54.4218 242.924 54.4218C243.69 54.4218 244.402 54.5572 245.042 54.8279C245.673 55.0986 246.277 55.5137 246.817 56.0461C247.349 56.5785 247.764 57.174 248.025 57.8147C248.286 58.4554 248.431 59.1683 248.422 59.9443C248.422 61.8483 247.989 62.8048 247.142 62.8048C246.989 62.8048 246.935 62.7507 246.935 62.5882V59.9353C246.935 58.8344 246.538 57.8688 245.754 57.0928C244.979 56.3078 244.024 55.9107 242.924 55.9107C241.825 55.9107 240.869 56.3078 240.085 57.0928C239.301 57.8779 238.905 58.8344 238.905 59.9353C238.905 61.0362 239.301 62.0017 240.076 62.7777C240.86 63.5628 241.816 63.9598 242.915 63.9598C243.798 63.9598 244.6 63.6981 245.303 63.1748C245.493 64.0501 246.105 64.4922 247.142 64.4922C249.107 64.4922 250.098 62.9582 250.107 59.9443C250.107 57.9771 249.395 56.2626 247.998 54.8549H248.007ZM244.573 61.5776C244.366 61.7851 244.114 61.9566 243.834 62.0829C243.267 62.3265 242.582 62.3265 242.023 62.0829C241.735 61.9656 241.491 61.7941 241.275 61.5866C241.068 61.3791 240.896 61.1264 240.779 60.8467C240.653 60.5669 240.59 60.2601 240.599 59.9353C240.599 59.6194 240.662 59.3126 240.788 59.0239C240.914 58.7351 241.077 58.4915 241.284 58.2839C241.491 58.0764 241.744 57.914 242.032 57.7876C242.311 57.6703 242.618 57.6072 242.942 57.6072C243.258 57.6072 243.564 57.6703 243.852 57.7967C244.141 57.923 244.384 58.0854 244.591 58.302C244.799 58.5095 244.961 58.7622 245.087 59.0419C245.204 59.3217 245.267 59.6194 245.267 59.9353C245.267 60.2511 245.204 60.5489 245.087 60.8286C244.97 61.1083 244.799 61.361 244.591 61.5686L244.573 61.5776Z" fill="white"/>
<path d="M291.455 65.7377L252.639 65.7016C252.125 65.7016 251.711 65.2866 251.711 64.7722C251.711 64.2579 252.125 63.8428 252.639 63.8428L291.455 63.8789C291.969 63.8789 292.383 64.294 292.383 64.8083C292.383 65.3227 291.969 65.7377 291.455 65.7377Z" fill="white"/>
<path fill-rule="evenodd" clip-rule="evenodd" d="M72.693 202.717C72.6749 202.636 72.729 202.627 72.7921 202.618C76.8115 203.042 79.0466 205.722 81.8043 207.915C88.0948 212.914 93.7185 218.788 99.243 224.302C105.57 218.698 112.13 213.329 118.745 208.014C120.863 210.107 122.747 212.444 124.72 214.682C118.25 222.777 111.5 231.593 102.776 238.036C100.36 239.813 97.1791 241.681 93.5653 239.894C91.9521 239.1 90.6363 237.548 89.1583 236.267C84.9856 232.648 81.3537 227.821 77.7939 223.805C79.2178 215.296 76.9107 207.111 72.702 202.708L72.693 202.717Z" fill="#C987B6"/>
<path fill-rule="evenodd" clip-rule="evenodd" d="M147.873 226.097C146.648 224.401 146.143 222.425 146.224 220.484L144.232 217.714L149.892 213.617C153.894 210.739 159.481 211.65 162.356 215.657L199.432 267.2C202.307 271.207 201.406 276.783 197.404 279.68L191.745 283.758L189.744 280.979C187.879 280.447 186.166 279.337 184.941 277.649L147.882 226.106L147.873 226.097Z" fill="#114875"/>
<path fill-rule="evenodd" clip-rule="evenodd" d="M179.993 281.214C182.868 285.22 188.456 286.132 192.457 283.244C196.458 280.348 197.36 274.771 194.485 270.764L157.417 219.212C154.552 215.215 148.955 214.294 144.963 217.191C140.961 220.079 140.051 225.655 142.926 229.653L180.002 281.214H179.993Z" fill="#3577AC"/>
<path d="M133.328 192.99C123.307 177.343 120.684 161.127 127.47 156.733C127.47 156.733 127.488 156.733 127.497 156.714H127.506C127.597 156.651 127.705 156.606 127.795 156.552C134.698 152.618 148.099 161.723 157.986 177.153C168.007 192.818 170.63 209.043 163.835 213.419C163.564 213.6 163.303 213.735 163.024 213.861C155.985 217.092 142.989 208.068 133.328 192.99Z" fill="#114875"/>
<path fill-rule="evenodd" clip-rule="evenodd" d="M99.892 204.324C99.7749 212.932 106.958 220.007 115.961 220.133C124.955 220.268 132.336 213.383 132.462 204.766C132.579 196.148 125.388 189.074 116.393 188.938C107.39 188.812 100.009 195.697 99.892 204.315" fill="#3577AC"/>
<path d="M104.633 171.712C104.633 171.712 104.633 171.694 104.642 171.694C104.642 171.694 104.705 171.649 104.804 171.585C104.886 171.522 104.967 171.45 105.075 171.396C105.129 171.36 105.183 171.342 105.246 171.297C108.319 169.275 122.513 159.882 127.47 156.732C120.684 161.118 123.307 177.342 133.328 192.99C142.989 208.059 155.985 217.092 163.023 213.861L142.448 227.252C142.133 227.577 141.791 227.866 141.403 228.101C141.034 228.335 140.664 228.507 140.277 228.669C133.157 231.466 120.423 222.479 110.933 207.653C101.118 192.358 98.4058 176.485 104.66 171.712" fill="#A8D4F8"/>
<path d="M150.459 211.136L129.199 226.513C126.333 224.861 123.332 222.515 120.367 219.546L141.212 203.231C144.286 206.543 147.44 209.214 150.459 211.136Z" fill="#3577AC"/>
<path d="M134.129 194.19C135.12 195.697 136.148 197.132 137.202 198.494L115.825 214.475C114.744 213.131 113.671 211.75 112.635 210.261L134.12 194.19H134.129Z" fill="#3577AC"/>
<path d="M238.518 192.078C238.761 192.06 239.004 192.033 239.248 192.006C240.185 191.663 241.194 191.455 242.123 191.14C242.339 191.04 242.555 190.95 242.771 190.86C243.186 190.625 243.592 190.364 243.979 190.066C254.668 181.872 250.225 151.381 234.066 121.955C217.907 92.5469 196.142 75.3658 185.463 83.5503C184.183 84.5339 183.381 85.8784 182.534 87.4575C176.252 99.062 181.137 125.754 195.376 151.652C209.138 176.684 226.946 192.854 238.518 192.069V192.078Z" fill="#114875"/>
<path d="M187.924 136.79C189.762 134.904 192.646 134.281 196.008 135.048C208.805 137.972 218.295 162.679 207.138 172.208C203.353 167.001 199.658 161.118 196.197 154.675C192.989 148.701 190.231 142.682 187.924 136.79Z" fill="#D5E7F7"/>
<path d="M238.923 192.051C238.968 192.051 239.05 192.051 239.158 192.033C240.05 191.699 241.005 191.491 241.906 191.194C231.903 188.523 220.511 180.78 210.021 169.329C205.443 164.33 201.027 158.627 196.99 152.338C193.24 146.49 189.897 140.652 187.554 134.732C179.83 115.223 176.793 95.0914 184.084 85.03C184.084 84.8586 184.571 84.4164 184.526 84.4254C181.461 88.5402 180.47 92.4385 179.389 96.7066C174.937 114.357 167.592 129.842 157.543 142.7C151.361 150.587 144.98 156.976 136.301 163.112C134.436 164.42 131.858 166.46 131.858 166.46C131.849 166.478 131.84 166.496 131.84 166.514C127.767 170.087 129.704 180.979 136.454 191.5C143.223 202.058 152.334 208.384 157.273 206.119C158.336 205.74 159.4 205.072 160.715 204.332C176.739 195.281 200.883 189.723 225.901 191.239C230.073 191.5 234.138 191.861 238.202 192.114C238.437 192.087 238.671 192.069 238.914 192.06L238.923 192.051Z" fill="#A8D4F8"/>
<path d="M137.852 168.977C135.995 170.286 133.4 172.334 133.4 172.334C133.4 172.361 133.4 172.361 133.4 172.388C131.462 174.076 130.894 177.46 131.552 181.647C129.101 174.816 129.065 168.932 131.85 166.496C131.85 166.478 131.85 166.451 131.868 166.442C131.868 166.442 134.445 164.402 136.311 163.094C144.99 156.967 151.361 150.569 157.544 142.664C167.601 129.824 174.946 114.33 179.398 96.6888C180.48 92.4206 181.408 87.6651 184.544 84.4076C184.571 84.3805 183.994 85.0122 183.994 85.1836C180.308 90.2549 179.56 97.0498 180.155 105.839C175.64 122.072 168.493 136.537 159.094 148.548C152.92 156.453 146.549 162.841 137.861 168.959" fill="#3577AC"/>
<path d="M238.923 192.051C238.968 192.051 239.049 192.051 239.157 192.033C240.059 191.699 241.032 191.482 241.942 191.185C237.571 190.02 232.939 187.891 228.226 184.904C224.197 184.651 220.151 184.299 216.023 184.047C191.014 182.513 164.915 190.363 148.882 199.423C147.584 200.163 146.512 200.831 145.457 201.21C145.259 201.309 145.034 201.354 144.809 201.417C149.54 205.613 154.226 207.535 157.291 206.11C158.354 205.731 159.417 205.063 160.724 204.323C176.757 195.272 200.901 189.714 225.919 191.23C230.091 191.491 234.156 191.852 238.22 192.105C238.455 192.078 238.698 192.06 238.932 192.051H238.923Z" fill="#3577AC"/>
<path fill-rule="evenodd" clip-rule="evenodd" d="M12.906 341.528L17.9258 348.377L9.941 355.415L4.00195 347.032L12.906 341.528Z" fill="#F2A8A0"/>
<path fill-rule="evenodd" clip-rule="evenodd" d="M14.1312 352.004C13.8788 351.679 13.0767 350.497 12.3377 350.362C11.5717 350.227 10.9318 350.858 9.98553 351.481C8.51654 349.189 10.2919 347.05 7.73248 344.424C5.22708 345.652 2.61354 347.483 0 349.369C4.09155 355.388 8.5616 361.47 12.7973 367.516C13.311 366.965 13.7436 366.415 13.996 365.883C14.753 364.258 14.5277 362.607 14.005 360.911C13.302 358.619 12.3287 356.047 13.1218 353.899C13.3381 353.304 13.7166 352.726 14.1312 352.004Z" fill="#114875"/>
<path d="M13.3826 358.898C13.5809 359.584 13.7972 360.261 14.0044 360.911C14.5272 362.607 14.7525 364.249 13.9954 365.883C13.7431 366.415 13.3105 366.975 12.7968 367.516C10.8952 364.8 8.93958 362.075 7.00195 359.35C9.5434 357.77 11.7965 358.149 13.3916 358.889L13.3826 358.898Z" fill="#072F50"/>
<path d="M2.54144 353.06C1.68528 351.824 0.829124 350.596 0 349.369C1.65825 348.169 3.31649 346.996 4.9477 345.985C5.25412 347.555 5.32622 350.524 2.55046 353.06H2.54144Z" fill="#072F50"/>
<path fill-rule="evenodd" clip-rule="evenodd" d="M100.287 353.15L108.083 349.767L113.148 359.133L103.667 363.068L100.287 353.15Z" fill="#F2A8A0"/>
<path fill-rule="evenodd" clip-rule="evenodd" d="M110.76 354.278C110.391 354.459 109.057 354.973 108.759 355.659C108.453 356.372 108.931 357.139 109.327 358.204C106.768 359.133 105.082 356.922 101.955 358.835C102.595 361.56 103.794 364.511 105.055 367.489C111.823 364.836 118.745 361.831 125.576 359.043C125.153 358.411 124.711 357.87 124.251 357.509C122.836 356.399 121.178 356.264 119.412 356.39C117.033 356.57 114.311 356.949 112.391 355.695C111.86 355.343 111.382 354.856 110.769 354.287L110.76 354.278Z" fill="#114875"/>
<path d="M117.311 356.543C118.023 356.507 118.726 356.435 119.411 356.381C121.177 356.254 122.835 356.399 124.25 357.5C124.71 357.861 125.161 358.402 125.575 359.034C122.511 360.288 119.42 361.578 116.338 362.869C115.364 360.035 116.229 357.924 117.311 356.534V356.543Z" fill="#072F50"/>
<path d="M109.21 365.829C107.822 366.388 106.434 366.948 105.055 367.489C104.262 365.603 103.487 363.717 102.865 361.903C104.46 361.957 107.362 362.544 109.21 365.829Z" fill="#072F50"/>
<path fill-rule="evenodd" clip-rule="evenodd" d="M112.283 349.415C106.938 351.977 101.396 354.36 95.3216 356.264C92.8702 350.85 90.6442 345.3 88.292 339.489C84.8674 331.034 83.0019 320.828 81.3076 310.532C80.7398 307.085 80.2712 303.71 79.2888 300.506C77.4233 294.461 74.3952 289.254 72.2683 283.831C72.8992 288.288 73.7643 293.134 74.3682 297.881C74.7106 300.579 75.0711 303.087 74.8999 305.415C74.4222 312.093 70.4659 316.541 66.7528 320.611C64.2474 323.354 61.2103 325.728 58.3535 328.056C52.5496 332.793 46.1149 337.016 39.7162 341.266C33.2995 345.535 26.8197 349.848 20.1597 353.539C19.5018 353.105 19.1503 352.347 18.7087 351.743C15.6536 347.628 12.3822 343.306 9.6875 338.595C11.2376 336.881 13.04 335.392 14.7704 333.849C26.7747 323.201 39.1574 312.535 52.5226 302.988C50.1253 295.255 48.1066 286.168 46.2771 277.442C44.5648 269.275 41.8791 258.041 45.5831 250.858C53.7572 249.902 62.8415 248.909 70.8534 247.962C71.0246 247.944 71.0607 247.835 71.2409 247.844C71.8898 247.889 72.8181 249.09 73.494 250.001C75.3054 252.437 77.1619 255.704 78.5678 258.222C80.6947 262.02 82.7135 266.054 84.7682 269.727C89.1031 277.469 93.5191 284.652 96.7996 293.152C103.397 310.252 107.767 330.14 112.265 349.424L112.283 349.415Z" fill="#114875"/>
<path d="M30.3078 327.948C33.6603 325.114 37.157 322.398 40.5276 319.537C42.2039 318.112 43.8982 316.74 45.6375 315.378C49.0261 312.743 52.8653 309.693 54.7309 305.939C56.9298 301.499 55.5239 295.047 54.5055 289.841C52.9284 281.801 51.117 274.212 49.8012 265.792C49.3506 262.896 49.0081 259.873 49.1162 256.985C49.2064 254.396 49.702 252.221 50.2698 250.317C48.6927 250.497 47.1336 250.678 45.6105 250.858C41.9065 258.032 44.6011 269.276 46.3044 277.442C48.1339 286.177 50.1436 295.255 52.5499 302.988C39.1848 312.535 26.793 323.201 14.7977 333.849C13.0674 335.383 11.2649 336.881 9.71484 338.596C10.7062 340.328 11.7696 342.006 12.8781 343.64C15.4556 341.357 17.979 339.029 20.5205 336.737C23.7829 333.804 26.9642 330.79 30.3258 327.948H30.3078Z" fill="#072F50"/>
<path d="M81.3165 310.541C83.0108 320.828 84.8763 331.034 88.301 339.498C90.6532 345.3 92.8702 350.85 95.3305 356.273C97.0518 355.731 98.7191 355.154 100.359 354.549C98.3586 348.332 95.7721 342.223 93.7263 335.699C91.4012 328.299 89.067 320.593 87.8594 311.903C87.2736 307.662 86.5796 303.295 85.345 299.64C84.1554 296.112 82.6053 292.692 81.0552 289.227C78.8292 284.237 76.8014 278.868 74.3861 273.914C73.7102 272.524 72.4845 269.781 71.2589 269.736C71.0877 269.736 70.9254 269.835 70.8804 269.952C70.0152 270.909 70.7903 274.356 71.0606 276.233C71.4572 278.931 71.8176 281.557 72.3223 283.957C74.4492 289.344 77.4593 294.524 79.3068 300.543C80.2891 303.746 80.7578 307.121 81.3255 310.568L81.3165 310.541Z" fill="#072F50"/>
<path fill-rule="evenodd" clip-rule="evenodd" d="M76.415 253.15C72.1342 255.271 67.1955 257.635 61.716 258.844C58.8862 259.467 55.7499 259.665 52.6047 259.927C49.4774 260.18 46.2511 260.261 42.9977 259.828C40.6365 246.545 41.9432 231.385 46.1339 221.071C48.2788 215.783 51.0726 211.614 54.9569 207.725C58.6429 204.034 63.1129 200.542 69.4575 200.172C76.9467 199.73 80.0289 206.687 80.4344 213.518C80.6507 217.182 79.8847 220.945 79.0645 224.41C77.4514 231.214 75.1893 237.982 75.1442 245.011C75.1262 248.25 75.685 250.696 76.415 253.15Z" fill="#DBA2C8"/>
<path fill-rule="evenodd" clip-rule="evenodd" d="M71.5388 191.428C70.6556 193.558 67.6455 200.371 67.6455 200.371C67.0057 202.536 77.3968 208.609 78.5143 205.649C79.3074 203.538 80.4158 201.011 81.2269 198.972C83.6332 200.163 86.2017 200.253 87.6346 198.746C88.0222 198.34 88.4187 197.564 88.626 196.617C88.9504 195.065 88.7161 193.323 88.5449 191.78C88.2114 188.82 87.6797 185.761 86.7875 182.856C85.8953 179.923 84.9039 178.028 81.4703 176.422C79.5597 175.528 77.6131 175.357 76.081 175.601C72.9808 176.088 70.2861 178.705 69.2497 182.522C68.2403 186.248 69.8716 188.739 71.5388 191.428Z" fill="#F2A8A0"/>
<path fill-rule="evenodd" clip-rule="evenodd" d="M81.2268 198.972L78.3789 196.996L80.1453 201.706L81.2268 198.972Z" fill="#D16E66"/>
<path fill-rule="evenodd" clip-rule="evenodd" d="M88.4908 185.472C88.4817 185.743 87.6436 185.915 86.6252 185.869C85.6069 185.824 84.7957 185.572 84.8048 185.301C84.8228 185.039 85.6609 184.859 86.6703 184.904C87.6887 184.949 88.4998 185.202 88.4908 185.472Z" fill="#104774"/>
<path fill-rule="evenodd" clip-rule="evenodd" d="M83.7226 185.4C83.7857 185.662 83.0286 186.059 82.0373 186.294C81.046 186.528 80.1988 186.501 80.1267 186.249C80.0636 185.987 80.8207 185.59 81.812 185.355C82.8033 185.121 83.6505 185.139 83.7136 185.4" fill="#104774"/>
<path fill-rule="evenodd" clip-rule="evenodd" d="M87.7236 188.306C87.7597 188.766 87.5164 189.154 87.1829 189.172C86.8495 189.199 86.5521 188.847 86.525 188.387C86.489 187.936 86.7323 187.548 87.0658 187.521C87.3992 187.494 87.6876 187.846 87.7236 188.297" fill="#104774"/>
<path fill-rule="evenodd" clip-rule="evenodd" d="M82.4429 188.955C82.47 189.407 82.2356 189.795 81.9022 189.822C81.5687 189.84 81.2713 189.497 81.2443 189.037C81.2173 188.586 81.4516 188.197 81.785 188.17C82.1185 188.143 82.4159 188.495 82.4429 188.955Z" fill="#104774"/>
<path d="M85.0377 193.883C85.0377 193.883 85.0738 193.883 85.0918 193.883C85.5695 193.765 85.8849 193.549 86.0742 193.215C86.4527 192.556 86.1913 191.636 85.8579 190.463C85.6416 189.723 85.4072 188.875 85.2991 187.963C85.2721 187.801 85.1189 187.674 84.9566 187.701C84.7854 187.719 84.6682 187.873 84.6953 188.044C84.8124 189.001 85.0558 189.867 85.2721 190.634C85.5514 191.627 85.7948 192.484 85.5514 192.917C85.4523 193.098 85.254 193.215 84.9476 193.296C84.7854 193.332 84.6863 193.504 84.7223 193.666C84.7584 193.81 84.8936 193.91 85.0377 193.892" fill="#D16E66"/>
<path d="M85.2087 196.463C85.5061 196.445 85.8486 196.373 86.2271 196.247C86.3803 196.192 86.4704 196.012 86.4163 195.85C86.3623 195.696 86.182 195.606 86.0288 195.66C84.3345 196.256 83.7037 195.29 83.6766 195.245C83.5865 195.101 83.3972 195.055 83.2531 195.146C83.1089 195.236 83.0638 195.416 83.1539 195.561C83.181 195.606 83.7758 196.553 85.2087 196.454" fill="#D16E66"/>
<path fill-rule="evenodd" clip-rule="evenodd" d="M85.8777 175.222C86.7879 174.798 88.0046 174.509 89.1762 174.22C90.2396 173.949 91.6275 173.264 92.5738 174.085C92.4656 175.303 91.4112 175.492 90.7443 176.097C92.006 176.052 93.5471 175.357 95.0972 175.646C96.9447 175.998 96.0074 177.568 95.0431 178.389C93.4389 179.761 91.0597 180.907 88.9689 181.511C85.4902 182.522 81.2905 181.899 77.6856 181.782C77.3882 182.892 77.0547 186.149 76.7483 187.259C76.6582 187.548 76.478 187.115 76.4689 187.106C76.1896 186.853 75.7299 186.474 75.1261 186.465C72.6297 186.402 73.3237 191.194 75.8651 190.842C75.1712 192.448 74.6395 194.379 72.1791 194C71.4491 193.892 70.4127 193.468 69.9261 192.809C66.6006 188.351 67.0512 179.463 69.3853 177.216C70.3587 176.268 71.5753 175.79 73.5039 175.673C73.9996 175.195 74.2249 174.653 74.8017 174.211C77.6225 172.036 83.7688 172.966 85.8777 175.231V175.222Z" fill="#104774"/>
<path fill-rule="evenodd" clip-rule="evenodd" d="M58.3642 196.996C65.574 195.886 77.6684 205.397 77.6233 206.443C77.5783 207.526 68.1605 203.772 60.2298 207.977C57.1926 209.593 54.0924 211.434 50.6227 213.076C49.7215 213.509 47.7568 214.493 46.9998 213.861C44.4133 211.704 53.5877 197.718 58.3642 196.987V196.996Z" fill="#C987B6"/>
<path d="M70.4138 200.732C66.5476 198.44 61.8792 196.454 58.3645 196.996C58.1572 197.032 57.9409 197.095 57.7246 197.167C58.8692 198.079 62.3028 199.261 66.4574 200.1C67.8543 200.38 69.1972 200.587 70.4048 200.732H70.4138Z" fill="#DBA2C8"/>
<path fill-rule="evenodd" clip-rule="evenodd" d="M77.6232 206.453C77.2176 205.92 78.6776 204.17 79.0832 204.197C79.5338 204.224 79.3445 205.631 79.0832 206.001C78.8579 206.308 77.8485 206.768 77.6232 206.462V206.453Z" fill="#C987B6"/>
<path fill-rule="evenodd" clip-rule="evenodd" d="M121.43 226.377C121.204 226.422 117.987 228.362 115.058 230.095C115.446 228.109 115.103 225.989 113.977 224.211C116.978 222.758 120.402 220.981 121.565 219.663C122.439 218.671 123.331 217.525 124.314 216.74C125.089 216.117 126.053 215.864 127.08 215.169C127.819 214.664 129.234 213.283 129.847 213.78C130.496 214.303 129.748 215.449 128.937 216.27C127.982 217.254 127.261 217.849 126.819 218.824C127.206 218.95 127.63 219.077 128.036 219.212C129 219.519 129.523 219.6 130.469 219.537C132.56 219.402 134.515 219.059 136.534 218.95C137.156 218.914 138.481 218.905 138.967 219.095C139.148 219.167 139.418 219.537 138.886 219.997C138.436 220.394 137.507 220.529 136.922 220.656C135.498 220.954 134.245 221.071 132.974 221.251C132.298 221.351 131.595 221.324 131.091 221.739C131.379 222.063 131.83 221.955 132.172 221.991C134.128 222.181 135.804 222.334 137.805 222.406C138.237 222.424 140.418 222.668 140.301 223.318C140.157 224.184 138.364 224.112 137.823 224.112C135.723 224.148 133.299 223.995 131.595 224.112C131.559 224.103 131.523 224.112 131.478 224.076C131.46 224.094 131.451 224.112 131.433 224.13C131.487 224.13 131.541 224.121 131.595 224.112H131.613C133.56 224.554 135.299 225.132 137.48 225.556C138.111 225.673 139.193 226.07 139.337 226.386C139.788 227.36 137.895 227.27 137.192 227.225C134.723 227.09 132.046 226.512 129.892 226.341C131.361 227.658 132.992 228.831 134.398 229.923C134.903 230.311 135.795 230.88 135.678 231.349C135.453 232.269 134.173 231.656 133.605 231.376C132.893 231.033 132.154 230.501 131.514 230.149C130.856 229.788 130.126 229.436 129.423 229.012C128.703 228.57 128.009 227.956 127.333 227.694C126.882 227.514 126.341 227.541 125.891 227.442C124.908 227.234 123.854 226.927 122.908 226.675C122.448 226.557 121.79 226.314 121.421 226.386L121.43 226.377Z" fill="#F2A8A0"/>
<path fill-rule="evenodd" clip-rule="evenodd" d="M90.843 230.789C99.4407 227.081 108.119 223.417 117.898 220.593C119.096 223.309 120.304 226.016 121.358 228.921C113.788 233.199 108.39 237.557 100.342 241.23C97.7734 242.403 94.8174 243.522 91.6271 243.964C86.4991 244.659 82.5698 242.529 79.6318 240.318C76.4325 237.918 73.7739 234.994 71.3045 231.89C68.8262 228.777 66.5551 225.375 64.6445 221.242C63.8334 219.492 62.7429 217.29 62.058 214.872C61.3731 212.471 60.7332 209.566 61.5353 207.716C61.8958 206.886 63.3017 205.731 64.1849 205.451C65.78 204.955 67.6726 205.379 68.8983 205.866C71.2865 206.831 73.4044 208.916 75.2699 211C80.6322 216.992 86.0846 224.608 90.852 230.78L90.843 230.789Z" fill="#EDC0DD"/>
<path fill-rule="evenodd" clip-rule="evenodd" d="M90.8425 230.79L86.9492 231.836L89.5898 229.156L90.8425 230.79Z" fill="#DBA2C8"/>
<path fill-rule="evenodd" clip-rule="evenodd" d="M251.802 134.633C246.827 132.919 241.726 133.217 236.878 133.379C244.34 122.217 254.451 114.944 266.068 109.909C268.267 108.889 267.456 105.821 264.815 106.913C251.829 112.543 240.672 120.863 232.696 133.884C224.134 135.184 212.77 140.418 202.613 146.391C200.549 147.934 202.343 150.19 204.416 149.035C213.554 143.585 223.521 138.802 230.902 137.539C228.064 142.989 227.316 150.326 228.875 154.928C230.488 159.656 234.003 163.816 240.221 164.989C245.701 166.018 250.576 164.348 254.515 161.732C258.417 159.142 261.941 154.783 262.58 149.288C263.437 141.943 258.462 136.925 251.811 134.642L251.802 134.633ZM259.21 149.64C258.453 153.646 255.884 156.931 252.829 159.006C249.846 161.037 245.935 162.363 242.186 161.966C237.977 161.515 235.129 159.539 233.435 157.093C231.741 154.648 230.984 151.417 231.353 147.6C231.732 143.729 233.011 140.282 234.796 136.871C240.275 136.294 248.593 135.906 254.19 139.29C257.678 141.392 260.111 144.767 259.201 149.64H259.21Z" fill="#6E9DC1"/>
<path fill-rule="evenodd" clip-rule="evenodd" d="M322.88 89.5332L272.061 86.7178L281.875 102.753L284.155 119.997L322.88 89.5332Z" fill="white"/>
<path fill-rule="evenodd" clip-rule="evenodd" d="M322.88 89.5332L280.153 99.9195L272.357 105.839L282.208 105.938L322.88 89.5332Z" fill="#3577AC"/>
<path d="M239.869 330.456C240.752 330.889 242.113 330.447 243.456 329.896L243.582 329.842C247.574 328.272 250.783 326.106 253.387 323.228C254.289 322.226 255.109 321.171 255.803 320.088C258.119 316.496 258.993 312.995 259.723 309.593C265.265 311.47 271.033 312.066 276.9 311.362C284.218 310.486 289.887 308.357 294.744 304.657C297.547 302.519 300.341 299.487 302.819 295.877C307.1 289.651 309.443 283.84 310.272 277.388C310.561 275.132 310.507 272.677 310.119 270.457C310.11 270.385 310.092 270.304 310.083 270.223C309.984 269.555 309.759 267.994 308.209 267.841C307.974 267.814 307.74 267.877 307.542 268.012C307.361 268.138 307.199 268.301 307.082 268.481C306.622 269.203 306.848 269.997 306.992 270.485C307.019 270.575 307.046 270.665 307.055 270.737C307.695 274.464 307.235 278.859 305.739 283.443C304.937 285.915 303.757 288.496 302.342 290.914C300.647 293.811 298.809 296.346 296.88 298.458C291.987 303.827 286.327 306.778 278.54 308.032C272.07 309.079 265.887 308.528 260.165 306.417C260.183 306.227 260.21 306.02 260.246 305.803C260.291 305.505 260.345 305.172 260.363 304.811C260.471 302.789 260.363 300.578 260.029 297.853C259.705 295.2 258.957 291.329 256.163 288.397C254.063 286.195 251.143 284.913 248.728 285.139C247.079 285.292 245.727 286.123 244.817 287.53C244.645 287.783 244.501 288.063 244.366 288.36C244.177 288.767 244.096 289.209 244.024 289.606C244.006 289.705 243.988 289.795 243.97 289.885C242.582 296.5 249.638 305.081 256.83 308.384C256.812 308.492 256.776 308.61 256.74 308.736C256.695 308.898 256.659 309.052 256.623 309.205C256.073 311.957 255.235 315.197 253.18 318.373C252.711 319.104 252.18 319.808 251.612 320.485C248.124 324.636 244.267 326.323 240.95 327.415C240.914 327.424 240.86 327.442 240.815 327.451C240.392 327.568 239.68 327.776 239.301 328.362C239.076 328.714 239.013 329.138 239.13 329.563C239.238 329.951 239.5 330.266 239.86 330.447L239.869 330.456ZM246.826 291.771C246.799 291.113 246.962 290.066 247.259 289.525C247.674 288.748 248.25 288.333 249.016 288.234C250.485 288.045 252.315 289.028 253.468 290.084C255.911 292.322 256.542 295.255 256.974 298.07C257.272 300.001 257.353 302.067 257.227 304.377C257.218 304.558 257.218 304.747 257.209 304.937C257.209 305.009 257.209 305.072 257.209 305.144C251.882 302.365 246.989 296.166 246.835 291.78L246.826 291.771Z" fill="#6E9DC1"/>
<path fill-rule="evenodd" clip-rule="evenodd" d="M48.2151 158.348C50.351 156.426 52.1625 158.438 50.4772 160.261C47.0796 163.762 43.7721 167.236 40.762 171.179C34.8049 178.976 30.1546 188.288 26.5047 199.18C24.6842 204.621 23.1612 210.387 22.2149 216.686C20.2682 229.589 21.575 241.934 23.9092 252.374C27.478 268.382 33.6063 281.349 42.3301 292.972C45.196 296.798 48.2331 300.57 51.6308 303.908C62.0308 314.141 74.4857 322.326 91.9154 326.675C97.8454 328.155 104.262 328.967 110.949 329.355C123.855 330.104 135.003 328.796 144.312 324.961C142.618 322.127 140.951 318.662 140.275 314.574C138.815 305.695 142.546 296.256 148.269 292.728C151.315 290.851 155.542 289.804 159.903 291.681C163.472 293.215 165.752 296.166 166.852 299.712C168.114 303.773 167.23 308.411 165.275 311.976C161.661 318.563 155.74 322.912 149.512 326.107C150.738 327.776 152.441 329.256 154.271 330.555C156.046 331.81 157.993 333.028 160.012 334.12C164.121 336.33 168.663 338.244 174.071 339.146C179.829 340.102 185.075 339.48 189.896 338.532C194.619 337.603 198.899 335.789 202.766 334.156C205.668 333.118 206.073 335.979 203.838 337.125C203.451 337.648 202.721 337.702 202.18 337.937C198.485 339.498 194.186 341.086 189.752 341.862C184.507 342.782 178.82 343.414 172.376 342.214C166.798 341.167 161.868 338.857 157.515 336.412C153.099 333.939 149.197 330.961 146.313 327.641C136.67 331.855 125.297 333.217 112.085 332.739C98.3681 332.243 85.6248 329.148 75.5131 324.473C55.8124 315.35 41.8795 300.407 32.0472 283.127C27.0635 274.365 23.3234 264.71 20.9261 253.746C18.5739 242.972 17.3483 230.979 18.9254 217.236C19.6915 210.604 21.3497 204.558 23.2152 198.846C25.0447 193.242 27.1626 187.954 29.5869 183.136C34.6247 173.11 40.5187 165.16 48.2331 158.357L48.2151 158.348ZM157.281 316.758C159.985 314.204 163.202 310.694 163.995 306.219C164.536 303.159 164.058 301.31 163.139 299.324C161.841 296.518 159.714 293.946 155.028 293.937C151.847 293.937 149.296 295.58 147.431 297.781C143.907 301.959 142.158 309.756 143.844 316.054C144.619 318.942 145.881 321.595 147.494 323.535C150.702 322.1 154.172 319.682 157.263 316.767L157.281 316.758Z" fill="#6E9DC1"/>
<path d="M228.188 354.522C228.188 355.704 224.791 356.67 220.6 356.67C216.409 356.67 213.012 355.713 213.012 354.522C213.012 353.331 216.409 352.375 220.6 352.375C224.791 352.375 228.188 353.331 228.188 354.522Z" fill="#072F50"/>
<path d="M233.749 319.258C233.542 311.714 227.702 305.388 220.447 305.388C213.192 305.388 207.352 311.714 207.145 319.258C206.775 332.531 218.951 353.8 220.447 353.863C221.943 353.8 234.119 332.531 233.749 319.258ZM220.447 327.541C216.977 327.541 214.283 324.311 214.364 320.728C214.445 317.236 217.112 314.213 220.447 314.213C223.781 314.213 226.449 317.236 226.53 320.728C226.611 324.32 223.917 327.541 220.447 327.541Z" fill="#104774"/>
<path fill-rule="evenodd" clip-rule="evenodd" d="M362.76 330.339C362.76 330.339 367.203 341.862 366.554 343.586C366.554 343.586 369.618 344.191 372.799 339.119L369.537 327.867L362.76 330.339Z" fill="#F2A8A0"/>
<path fill-rule="evenodd" clip-rule="evenodd" d="M369.618 328.155C369.554 329.807 365.986 332.505 363.057 331.223L369.618 328.155Z" fill="#DBAF91"/>
<path d="M379.612 347.196C377.756 342.621 372.952 332.37 372.457 331.783C370.925 332.189 364.76 334.77 363.246 335.257C363.201 335.293 363.156 335.33 363.111 335.357C364.31 339.147 366.563 343.496 366.139 347.042C365.851 349.443 363.48 351.599 362.543 354.072C362.408 354.433 362.507 355.561 363.129 356.382L375.386 350.661C375.313 349.65 374.953 348.504 374.854 347.899C374.584 346.302 374.187 345.165 375.043 343.722C375.548 344.922 376.152 346.05 376.683 347.241C377.017 348.008 377.314 348.829 377.72 349.578L380.009 348.504C379.955 348.089 379.802 347.647 379.621 347.205L379.612 347.196Z" fill="#114875"/>
<path fill-rule="evenodd" clip-rule="evenodd" d="M326.747 332.956C326.747 332.956 325.782 345.264 324.439 346.537C324.439 346.537 326.936 348.405 332.001 345.219L333.92 333.66L326.738 332.956H326.747Z" fill="#F2A8A0"/>
<path fill-rule="evenodd" clip-rule="evenodd" d="M333.875 333.957C333.1 335.419 328.73 336.304 326.639 333.885L333.875 333.957Z" fill="#DBAF91"/>
<path d="M334.659 355.452C334.965 350.525 335.055 339.2 334.866 338.46C333.307 338.162 326.638 337.82 325.061 337.603C325.007 337.612 324.952 337.63 324.898 337.639C324.34 341.573 324.493 346.473 322.573 349.487C321.275 351.527 318.211 352.447 316.292 354.261C316.003 354.531 315.616 355.587 315.814 356.598L329.341 356.742C329.711 355.804 329.882 354.613 330.053 354.017C330.504 352.456 330.639 351.265 332.027 350.326C331.964 351.626 332.027 352.907 331.982 354.207C331.955 355.037 331.865 355.903 331.91 356.76L334.442 356.787C334.568 356.39 334.623 355.93 334.65 355.452H334.659Z" fill="#114875"/>
<path fill-rule="evenodd" clip-rule="evenodd" d="M356.062 238.983C356.494 239.11 356.242 239.543 356.449 239.895C358.711 243.757 360.505 249.072 360.099 255.488C359.964 257.635 359.64 259.747 359.667 261.949C359.784 270.81 359.459 280.194 360.054 288.514C360.207 290.707 360.514 292.467 361.199 294.199C363.091 298.973 365.155 304.044 367.003 308.872C369.607 315.694 371.689 322.416 373.528 329.635C369.274 330.998 365.128 332.478 360.883 333.867C360.406 333.443 360.171 332.821 359.865 332.279C357.765 328.48 355.62 324.41 353.574 320.458C351.231 315.937 348.978 311.299 346.942 306.417C344.923 301.581 342.751 296.699 342.408 290.382C342.075 284.3 341.075 272.948 340.822 266.127C339.759 267.949 336.803 281.25 336.541 283.732C336.307 285.924 336.469 288.235 336.595 290.454C336.938 296.87 337.659 302.943 338.019 309.35C338.506 318.121 338.083 327.127 338.064 336.322C332.982 336.213 327.962 336.186 323.086 336.304C321.671 320.765 319.382 304.982 318.129 289.11C317.796 284.815 318.129 280.519 318.58 276.341C319.905 264.259 322.167 252.447 323.059 240.156C333.676 239.489 344.652 239.209 355.837 239.128C355.918 239.083 355.927 238.938 356.08 238.965L356.062 238.983Z" fill="#114875"/>
<path d="M366.994 308.889C365.146 304.062 363.083 298.99 361.19 294.217C360.505 292.475 360.199 290.716 360.046 288.532C359.451 280.212 359.775 270.828 359.658 261.966C359.631 259.756 359.955 257.653 360.091 255.505C360.496 249.081 358.712 243.775 356.441 239.912C356.233 239.561 356.495 239.118 356.053 239.001C355.9 238.974 355.891 239.109 355.81 239.164C354.161 239.173 352.511 239.191 350.871 239.209C351.033 239.94 351.313 240.661 351.574 241.41C351.907 242.403 352.196 243.405 352.556 244.307C353.322 246.238 354.188 248.16 354.683 250.028C355.828 254.314 355.882 259.205 355.332 264.394C355.071 266.875 354.674 269.176 354.395 271.495C354.097 274.004 354.278 276.494 354.422 279.039C354.692 283.795 355.233 288.478 355.9 293.098C356.233 295.354 356.621 297.465 357.36 299.369C358.081 301.237 358.919 302.997 359.82 304.766C361.596 308.231 363.416 311.696 365.002 315.323C367.147 320.223 368.923 325.358 370.545 330.637C371.527 330.312 372.518 329.987 373.51 329.662C371.671 322.443 369.58 315.72 366.985 308.898L366.994 308.889Z" fill="#072F50"/>
<path d="M340.697 255.487C340.588 255.523 332.117 280.257 331.333 287.621C330.963 291.194 331.396 295.426 331.838 298.783C332.721 305.605 333.541 312.697 333.757 320.395C333.865 324.004 334.019 327.857 334.343 331.557C334.469 333.037 334.595 334.76 334.911 336.285C335.956 336.303 337.002 336.321 338.056 336.339C338.074 327.144 338.498 318.148 338.011 309.368C337.659 302.961 336.929 296.888 336.587 290.472C336.47 288.252 336.299 285.942 336.533 283.749C336.794 281.259 339.75 267.958 340.814 266.144C340.814 266.144 340.778 255.469 340.706 255.487H340.697Z" fill="#072F50"/>
<path fill-rule="evenodd" clip-rule="evenodd" d="M358 166.099C357.495 166.667 356.765 166.929 356.143 167.326C354.323 168.481 352.601 169.835 350.772 171.287C349.627 172.199 348.483 173.2 347.383 174.365C346.302 175.502 345.157 176.747 344.535 178.353C343.418 181.268 343.048 184.444 342.589 187.232C342.129 190.057 341.841 192.854 341.201 195.76C340.687 196.211 339.894 196.175 339.155 196.112C337.055 195.922 334.189 195.399 332.062 194.93C332.171 193.17 334.117 192.304 334.081 190.472C334.054 189.208 332.405 188.369 332.783 186.646C333.18 184.805 335.199 183.939 335.694 181.935C336.037 180.546 335.433 179.039 336.172 177.162C336.866 175.411 338.623 173.868 340.101 172.542C343.256 169.708 345.788 167.461 349.105 165.431C351.259 164.114 353.962 163.274 356.558 164.935C357.08 165.269 357.414 165.774 357.991 166.117L358 166.099Z" fill="#104774"/>
<path fill-rule="evenodd" clip-rule="evenodd" d="M353.944 184.182C352.52 189.236 351.502 194.072 349.825 199.261C349.762 199.676 349.546 199.162 349.402 199.432C346.662 202.735 344.084 206.083 340.966 209.106C340.552 209.512 339.984 209.981 339.425 210.504C338.921 210.974 338.344 211.777 337.812 211.659C337.109 211.497 336.875 209.801 336.839 208.979C336.694 205.731 337.307 202.365 337.911 198.792C338.299 196.527 338.677 194.099 339.335 191.618C340.011 189.091 340.876 186.547 341.606 184.101C338.957 183.542 336.884 182.008 336.685 179.923C336.631 179.364 336.803 178.497 337.226 177.631C337.929 176.205 339.2 174.969 340.299 173.868C342.408 171.739 344.733 169.663 347.239 167.922C349.771 166.162 351.727 165.287 355.44 166.162C357.504 166.649 359.144 167.723 360.207 168.878C362.343 171.206 362.857 174.942 361.289 178.606C359.766 182.179 356.936 183.127 353.935 184.209L353.944 184.182Z" fill="#F2A8A0"/>
<path d="M335.883 215.323C336.694 215.63 337.776 214.899 338.47 214.394C339.326 213.771 340.164 213.067 340.65 212.598C344.652 208.682 347.968 204.143 351.402 199.586C350.771 199.297 350.104 199.026 349.419 198.756C346.094 202.528 342.958 206.886 339.407 210.062C338.884 210.532 338.271 211.109 337.523 211.127C336.992 210.017 337.046 208.637 337.127 207.274C337.334 203.502 337.794 199.117 338.533 195.173C337.965 195.038 337.649 194.975 337.109 194.875C336.063 200.272 335.162 205.56 335 210.577C334.964 211.759 334.657 214.845 335.874 215.314L335.883 215.323Z" fill="#FCCE7C"/>
<path fill-rule="evenodd" clip-rule="evenodd" d="M341.606 184.101L345.085 184.318L340.75 186.925L341.606 184.101Z" fill="#D16E66"/>
<path fill-rule="evenodd" clip-rule="evenodd" d="M344.112 168.463C343.958 168.68 344.508 169.339 345.337 169.934C346.166 170.53 346.968 170.836 347.131 170.62C347.284 170.403 346.734 169.745 345.905 169.14C345.076 168.544 344.274 168.238 344.112 168.454" fill="#104774"/>
<path fill-rule="evenodd" clip-rule="evenodd" d="M343.094 171.64C342.788 171.982 342.734 172.434 342.986 172.659C343.229 172.885 343.689 172.795 343.995 172.452C344.302 172.109 344.356 171.658 344.104 171.432C343.86 171.206 343.41 171.297 343.094 171.64Z" fill="#104774"/>
<path fill-rule="evenodd" clip-rule="evenodd" d="M346.438 174.915C346.132 175.258 346.077 175.709 346.33 175.935C346.582 176.16 347.033 176.07 347.339 175.727C347.646 175.384 347.7 174.933 347.447 174.707C347.204 174.482 346.753 174.572 346.438 174.915Z" fill="#104774"/>
<path d="M341.571 177.73C341.571 177.73 341.544 177.703 341.535 177.694C341.238 177.306 341.121 176.936 341.175 176.557C341.283 175.799 342.067 175.24 343.058 174.518C343.689 174.058 344.401 173.543 345.059 172.894C345.176 172.776 345.375 172.776 345.492 172.894C345.609 173.011 345.609 173.209 345.492 173.327C344.807 174.004 344.068 174.536 343.419 175.005C342.581 175.61 341.86 176.133 341.779 176.629C341.752 176.837 341.824 177.054 342.022 177.306C342.121 177.442 342.094 177.631 341.968 177.739C341.851 177.83 341.68 177.821 341.571 177.721" fill="#D16E66"/>
<path d="M340.3 179.409C340.074 179.201 339.849 178.94 339.633 178.597C339.543 178.452 339.588 178.263 339.723 178.173C339.867 178.082 340.056 178.127 340.147 178.272C341.111 179.797 342.21 179.427 342.255 179.409C342.418 179.355 342.589 179.436 342.652 179.589C342.706 179.752 342.634 179.923 342.472 179.986C342.418 180.004 341.363 180.383 340.291 179.418" fill="#D16E66"/>
<path fill-rule="evenodd" clip-rule="evenodd" d="M348.258 171.73C348.05 171.892 348.393 172.677 349.033 173.489C349.673 174.292 350.358 174.807 350.565 174.644C350.772 174.482 350.43 173.697 349.79 172.885C349.15 172.082 348.465 171.567 348.258 171.73Z" fill="#104774"/>
<path fill-rule="evenodd" clip-rule="evenodd" d="M371.166 213.599C366.732 212.688 351.988 209.593 351.988 209.593C351.988 209.593 350.853 204.476 348.203 199.874C346.248 196.481 344.004 194.947 344.977 190.941C345.509 188.766 346.734 186.655 347.78 184.633C348.771 182.711 349.826 181.051 351.132 179.463C351.15 179.075 350.835 178.831 350.682 178.506C350.276 177.649 349.835 176.584 349.654 175.51C349.159 172.515 350.222 168.192 352.358 165.819C353.475 165.855 354.557 165.666 355.738 165.729C356.945 165.783 358.405 165.954 359.748 166.27C364.335 167.371 366.291 170.295 366.669 173.67C367.021 176.765 365.173 179.508 363.74 181.881C363.037 183.045 362.064 184.57 362.389 185.87C362.758 187.377 367.688 189.687 368.012 194.541C368.102 195.895 367.625 197.239 367.318 198.801C366.958 200.65 366.949 202.41 367.832 203.502C368.751 204.639 370.265 205.189 371.175 206.236C372.861 208.167 372.599 210.567 371.175 213.617L371.166 213.599Z" fill="#114875"/>
<path fill-rule="evenodd" clip-rule="evenodd" d="M280.964 169.339C281.126 169.501 282.667 172.93 284.091 176.025C284.902 174.175 286.389 172.623 288.327 171.811C286.678 168.905 284.884 165.485 284.677 163.753C284.524 162.445 284.443 160.992 284.082 159.783C283.803 158.835 283.145 158.068 282.703 156.913C282.379 156.083 282.009 154.143 281.216 154.197C280.387 154.251 280.351 155.623 280.549 156.76C280.775 158.113 281.027 159.016 280.838 160.071C280.45 159.954 280.027 159.819 279.612 159.692C278.648 159.394 278.17 159.16 277.422 158.573C275.773 157.265 274.376 155.875 272.772 154.639C272.285 154.26 271.195 153.493 270.69 153.376C270.501 153.331 270.068 153.475 270.239 154.161C270.384 154.738 271.068 155.388 271.483 155.83C272.483 156.886 273.448 157.689 274.394 158.573C274.89 159.043 275.484 159.413 275.674 160.044C275.25 160.143 274.935 159.801 274.637 159.638C272.925 158.682 271.456 157.851 269.78 156.769C269.41 156.534 267.482 155.496 267.202 156.092C266.833 156.886 268.347 157.842 268.788 158.158C270.501 159.385 272.574 160.64 273.907 161.705C273.943 161.714 273.97 161.75 274.025 161.741C274.025 161.759 274.025 161.786 274.034 161.804C273.997 161.768 273.952 161.732 273.907 161.705C273.907 161.705 273.898 161.705 273.889 161.705C272.042 160.965 270.275 160.441 268.239 159.548C267.653 159.286 266.535 158.997 266.238 159.169C265.319 159.719 266.914 160.712 267.527 161.082C269.627 162.372 272.159 163.428 274.034 164.52C272.078 164.764 270.068 164.8 268.293 164.899C267.653 164.935 266.598 164.899 266.436 165.341C266.103 166.234 267.5 166.451 268.122 166.541C268.906 166.659 269.816 166.65 270.537 166.722C271.285 166.803 272.078 166.929 272.898 166.974C273.745 167.019 274.664 166.911 275.367 167.083C275.845 167.191 276.269 167.525 276.692 167.696C277.62 168.084 278.657 168.436 279.576 168.77C280.018 168.933 280.703 169.113 280.964 169.375V169.339Z" fill="#F2A8A0"/>
<path fill-rule="evenodd" clip-rule="evenodd" d="M274.71 165.856C274.53 165.675 274.304 165.179 274.214 164.845C273.727 162.851 274.962 160.162 276.206 159.35C275.404 160.45 274.286 162.544 274.71 165.865V165.856Z" fill="#D16E66"/>
<path fill-rule="evenodd" clip-rule="evenodd" d="M280.838 160.062C280.495 162.589 281.036 164.52 281.928 166.208C280.108 165.45 279.612 161.461 280.838 160.062Z" fill="#D16E66"/>
<path fill-rule="evenodd" clip-rule="evenodd" d="M297.546 156.444C297.69 156.624 298.862 160.198 299.943 163.428C300.944 161.668 302.584 160.297 304.603 159.692C303.278 156.624 301.854 153.042 301.836 151.291C301.818 149.974 301.899 148.521 301.665 147.285C301.485 146.31 300.917 145.48 300.601 144.28C300.367 143.414 300.205 141.446 299.421 141.41C298.583 141.374 298.411 142.737 298.483 143.892C298.565 145.263 298.727 146.184 298.42 147.212C298.042 147.05 297.645 146.879 297.249 146.707C296.321 146.31 295.87 146.021 295.194 145.363C293.698 143.892 292.445 142.349 290.985 140.95C290.535 140.526 289.543 139.642 289.048 139.47C288.858 139.407 288.417 139.506 288.516 140.201C288.597 140.797 289.21 141.51 289.579 141.988C290.463 143.143 291.337 144.045 292.175 145.029C292.626 145.552 293.175 145.985 293.283 146.626C292.851 146.68 292.58 146.301 292.301 146.112C290.697 144.975 289.327 144 287.777 142.737C287.444 142.466 285.632 141.221 285.29 141.789C284.83 142.538 286.236 143.657 286.641 144.018C288.21 145.417 290.138 146.888 291.355 148.088C291.391 148.106 291.409 148.142 291.463 148.133C291.463 148.151 291.463 148.178 291.463 148.196C291.427 148.16 291.391 148.124 291.355 148.088C291.355 148.088 291.346 148.088 291.337 148.088C289.579 147.149 287.885 146.454 285.957 145.336C285.398 145.011 284.325 144.605 284.01 144.749C283.037 145.191 284.524 146.355 285.082 146.788C287.038 148.295 289.444 149.613 291.184 150.903C289.219 150.939 287.209 150.759 285.434 150.66C284.794 150.623 283.749 150.47 283.532 150.894C283.1 151.742 284.47 152.112 285.073 152.275C285.839 152.473 286.75 152.564 287.462 152.708C288.192 152.861 288.976 153.078 289.787 153.213C290.616 153.349 291.544 153.34 292.229 153.583C292.689 153.746 293.076 154.116 293.482 154.341C294.365 154.828 295.356 155.289 296.239 155.713C296.663 155.92 297.321 156.173 297.555 156.471L297.546 156.444Z" fill="#F2A8A0"/>
<path fill-rule="evenodd" clip-rule="evenodd" d="M305.883 152.951C310.272 160.044 316.04 165.855 322.222 171.288C331.496 179.445 341.788 186.456 347.736 197.844C349.682 201.562 351.277 205.704 352.71 210.035C354.837 216.487 356.225 223.517 356.595 231.701C356.658 233.073 356.631 234.453 356.64 235.879C356.64 237.178 356.522 238.749 356.441 239.895C351.413 240.716 345.942 240.779 340.282 240.986C334.659 241.194 328.855 241.086 323.015 240.734C322.961 234.553 322.889 228.389 322.835 222.199C322.817 219.952 320.537 218.003 320.528 215.756C320.528 213.473 322.781 210.892 322.79 208.6C322.79 208.6 320.537 207.491 319.32 206.94C315.922 205.424 312.345 203.818 309.145 201.977C304.928 199.55 301.007 196.698 297.348 193.684C289.994 187.62 284.046 180.329 279.062 172.018C279.702 171.333 280.55 170.881 281.316 170.358C283.533 168.86 285.849 167.236 288.156 165.72C294.681 174.906 303.657 181.764 314.652 186.727C307.271 178.958 300.286 170.096 294.699 160.333C295.51 159.62 296.474 159.051 297.375 158.447C300.025 156.651 302.873 154.702 305.64 153.033C305.685 153.006 305.802 152.816 305.883 152.96V152.951Z" fill="#EDC0DD"/>
<path d="M356.64 235.888C356.64 234.453 356.658 233.073 356.595 231.71C356.234 223.625 354.873 216.677 352.792 210.297C352.792 210.342 352.81 210.396 352.819 210.441C353.99 217.128 354.342 224.293 353.522 232.45C353.386 233.813 353.161 235.175 352.963 236.592C352.783 237.837 352.449 239.326 352.215 240.427C353.657 240.301 355.063 240.138 356.442 239.913C356.514 238.776 356.64 237.196 356.64 235.897V235.888Z" fill="#C987B6"/>
<path d="M314.661 186.736C313.03 185.996 311.443 185.211 309.902 184.39C310.479 185.229 311.038 186.078 311.543 186.971C312.948 189.47 314.336 192.042 315.661 194.794C317.536 198.702 319.275 203.141 320.753 207.617C321.789 208.113 322.799 208.61 322.799 208.61C322.889 207.608 322.925 207.184 322.952 206.236C323.24 196.121 319.978 191.609 314.67 186.736H314.661Z" fill="#C987B6"/>
<path fill-rule="evenodd" clip-rule="evenodd" d="M329.811 221.134C336.462 225.231 341.283 216.893 341.283 216.893C334.83 222.271 329.811 221.134 329.811 221.134Z" fill="#C987B6"/>
</g>
<defs>
<clipPath id="clip0_2085_61554">
<rect width="380" height="367.525" fill="white"/>
</clipPath>
</defs>
</svg>
