<svg width="271" height="324" viewBox="0 0 271 324" fill="none" xmlns="http://www.w3.org/2000/svg">
<g clip-path="url(#clip0_2204_68649)">
<path d="M135.496 292.311C210.329 292.311 270.992 231.752 270.992 157.049C270.992 82.346 210.329 21.7871 135.496 21.7871C60.6637 21.7871 0 82.346 0 157.049C0 231.752 60.6637 292.311 135.496 292.311Z" fill="#D1EAFF"/>
<path d="M104.537 316.665C102.307 314.017 98.5988 312.949 95.1396 313.234C91.688 313.513 88.9221 315.055 85.9001 316.74C83.2623 318.207 82.358 320.6 79.2002 321.691L76.5625 322.466C76.8941 322.616 78.2431 323.316 78.6049 323.368C85.7569 324.339 93.0144 324 100.219 323.654C102.201 323.556 104.53 323.263 105.495 321.533C106.354 319.998 105.668 318.019 104.53 316.665H104.537Z" fill="#172F35"/>
<path d="M115.962 83.4937C116.783 82.937 117.612 82.1019 117.477 81.1163C117.311 79.8825 115.826 79.3785 114.598 79.1753C106.248 77.791 97.6637 78.3553 89.336 79.89C81.0083 81.4248 72.8992 83.915 64.8051 86.4052C63.4109 86.8341 61.7604 87.5714 61.6625 89.0234C61.6022 89.8886 62.19 90.6935 62.9361 91.1449C63.6822 91.5888 64.564 91.7393 65.4231 91.8521C70.5855 92.5217 75.8233 92.1305 80.9932 91.5362C90.4363 90.4453 99.804 88.6773 108.998 86.2548C111.425 85.6153 113.882 84.9081 115.954 83.5088L115.962 83.4937Z" fill="#172F35"/>
<path d="M196.61 126.045C196.187 119.147 195.283 112.18 196.444 105.371C192.156 104.905 187.867 104.438 183.587 103.965C182.637 108.471 181.499 112.947 180.188 117.364C179.871 116.717 179.562 116.062 179.276 115.4C177.527 111.345 176.42 107.049 174.837 102.926C173.254 98.8035 171.114 94.7559 167.753 91.8971C166.517 90.8438 164.912 89.926 163.344 90.3397C162.342 90.6031 161.558 91.3704 160.902 92.1679C159.063 94.4249 157.933 97.1634 157.111 99.9546C155.8 104.408 155.227 109.193 156.313 113.707C158.4 122.434 166.05 128.581 170.586 136.322C171.822 138.436 173.066 140.009 174.234 142.168C176.291 146.155 176.08 146.953 177.196 148.728C179.321 152.114 184.499 153.054 188.402 152.197C191.96 151.414 192.359 149.646 193.934 146.366C196.926 140.137 197.039 132.937 196.617 126.038L196.61 126.045Z" fill="#A6BEBD"/>
<path d="M186.706 107.177C186.766 106.974 186.646 106.755 186.442 106.695C186.239 106.635 186.02 106.755 185.967 106.959C182.96 117.243 181.242 127.896 180.858 138.617C180.775 140.911 180.767 143.334 181.596 145.538C181.694 145.794 181.807 146.057 181.913 146.313C182.26 147.133 182.591 147.908 182.538 148.713C182.501 149.262 182.116 149.857 181.619 150.112C181.483 150.188 181.302 150.248 181.106 150.233C181.325 149.744 181.521 149.202 181.544 148.623C181.566 147.885 181.235 146.983 180.436 146.644C180.172 146.531 179.901 146.501 179.667 146.479C179.524 146.464 179.388 146.449 179.253 146.411C178.137 146.125 177.753 144.628 177.481 143.236C176.396 137.706 173.547 132.809 170.804 128.077L168.491 124.089C168.468 124.413 168.43 124.699 168.362 125.09C168.347 125.165 168.317 125.218 168.287 125.278L170.141 128.468C172.854 133.147 175.665 137.985 176.728 143.387C176.977 144.635 177.383 146.734 179.072 147.156C179.237 147.201 179.418 147.223 179.592 147.238C179.795 147.261 179.991 147.284 180.149 147.351C180.609 147.547 180.805 148.134 180.79 148.593C180.767 149.172 180.504 149.744 180.247 150.293C180.164 150.474 180.225 150.684 180.398 150.782C180.639 150.932 180.911 151 181.182 151C181.453 151 181.724 150.932 181.996 150.789C182.727 150.406 183.277 149.571 183.33 148.751C183.39 147.765 183.013 146.87 182.644 146.005C182.538 145.756 182.433 145.508 182.335 145.26C181.551 143.191 181.566 140.859 181.642 138.639C182.018 127.986 183.729 117.393 186.721 107.169L186.706 107.177Z" fill="#E8E8E8"/>
<path d="M165.402 133.863C167.497 122.961 168.349 111.804 167.603 100.737C169.178 105.116 170.768 109.555 171.205 114.197C171.853 121.171 169.736 128.363 165.402 133.87V133.863Z" fill="#172F35"/>
<path d="M184.415 109.05C185.621 109.87 187.06 110.351 188.515 110.427C190.323 110.517 192.117 109.99 193.737 109.193C194.717 108.711 195.712 108.049 196.043 107.011C196.27 106.304 196.149 105.529 196.021 104.799C195.825 103.663 195.629 102.52 195.441 101.384C195.373 101 195.297 100.594 195.049 100.293C194.71 99.8865 194.144 99.7661 193.624 99.6909C191.499 99.3974 189.329 99.4576 187.226 99.8789C185.892 100.15 184.445 100.676 183.857 101.903C183.586 102.467 183.541 103.106 183.503 103.731L183.307 106.77C183.284 107.146 183.262 107.53 183.382 107.891C183.548 108.388 183.978 108.756 184.407 109.05H184.415Z" fill="#172F35"/>
<path d="M188.719 87.1648C188.915 87.2476 189.141 87.1799 189.337 87.1046C190.656 86.6382 191.974 86.1717 193.301 85.7053C191.786 83.2451 189.97 80.9656 187.92 78.9268C188.063 81.3944 188.206 83.8621 188.342 86.3297C188.357 86.6532 188.425 87.0369 188.719 87.1573V87.1648Z" fill="#FFC088"/>
<path d="M187.399 71.8477H176.004C175.334 71.8477 174.791 72.39 174.791 73.0589V95.9449C174.791 96.6139 175.334 97.1562 176.004 97.1562H187.399C188.069 97.1562 188.613 96.6139 188.613 95.9449V73.0589C188.613 72.39 188.069 71.8477 187.399 71.8477Z" fill="#A6BEBD"/>
<path d="M176.058 95.5011C176.374 96.1105 177.188 96.2158 177.874 96.2233C180.497 96.2685 183.119 96.0353 185.735 95.7945C186.021 95.7719 186.33 95.7343 186.548 95.5538C186.797 95.3506 186.888 95.0196 186.955 94.7036C187.973 90.2197 188.222 85.5628 187.702 80.9961C184.212 80.6576 180.723 80.3265 177.234 79.988C176.781 79.9428 176.269 79.9203 175.945 80.2362C175.636 80.5372 175.621 81.0187 175.628 81.4475C175.719 85.8336 175.809 90.2122 175.9 94.5983C175.9 94.8992 175.915 95.2152 176.058 95.486V95.5011Z" fill="#172F35"/>
<path d="M194.371 99.7145C194.334 96.171 194.273 90.1448 194.243 86.8646C194.228 85.1644 192.909 84.397 191.425 84.0058C190.098 83.6597 175.99 80.7557 175.998 80.7256C175.877 81.4403 176.163 82.1851 176.608 82.7569C177.053 83.3287 177.648 83.7725 178.236 84.2014C177.573 84.6753 176.902 85.1568 176.374 85.7813C175.847 86.4057 175.478 87.2032 175.53 88.0157C175.576 88.8282 176.118 89.6407 176.91 89.8439C176.427 90.4683 175.922 91.1454 175.862 91.9278C175.802 92.7178 176.397 93.6055 177.181 93.5378C176.894 94.4858 176.736 95.4713 176.729 96.4644C178.65 97.3221 180.097 99.1653 180.459 101.227C180.942 101.227 181.379 100.873 181.612 100.452C181.627 100.422 181.642 100.384 181.657 100.354C182.848 101.452 184.129 102.438 185.064 103.777C188.191 104.251 191.477 103.905 194.341 102.596C194.379 101.633 194.379 100.662 194.371 99.707V99.7145Z" fill="#FFC088"/>
<path d="M50.4715 93.891C45.5728 99.2175 43.7867 106.726 43.3345 113.948C42.6789 124.473 44.4574 135.006 46.854 145.275C48.6175 152.829 50.7578 160.375 54.3904 167.228C58.0304 174.082 63.2908 180.259 70.1489 183.915C80.5792 189.467 93.2403 188.55 104.778 186.014C116.317 183.471 127.666 179.439 139.483 179.191C143.485 179.108 148.188 179.145 150.562 175.933C152.182 173.744 152.092 170.772 151.911 168.056C151.278 158.411 150.487 148.781 149.522 139.166C148.572 129.725 147.457 120.23 144.661 111.157C141.865 102.084 137.283 93.3719 130.289 86.9469C126.868 83.8022 122.836 81.2142 118.336 80.0255C113.649 78.7916 108.705 79.1227 103.874 79.5741C93.4513 80.5521 83.0738 82.0492 72.7942 84.0429C64.6624 85.6228 56.071 87.8121 50.4639 93.906L50.4715 93.891Z" fill="#104774"/>
<path d="M44.0737 56.4928L46.3196 83.8476C46.6135 87.3986 49.7863 89.9641 53.2605 89.46L119.776 79.8377C122.979 79.3712 125.27 76.4597 124.999 73.187L122.904 47.9086C122.618 44.4329 119.558 41.89 116.144 42.2737L49.4773 49.8271C46.1914 50.1957 43.8024 53.1524 44.0737 56.4928Z" fill="#172F35"/>
<path d="M48.3779 57.3358L50.5484 83.3515C50.8272 86.7295 53.9021 89.1746 57.2633 88.6931L121.571 79.5447C124.668 79.1008 126.877 76.3322 126.62 73.2176L124.593 49.173C124.314 45.8703 121.36 43.4477 118.059 43.8164L53.6006 50.9936C50.4278 51.3472 48.1141 54.161 48.3779 57.3358Z" fill="#A6BEBD"/>
<path d="M119.859 88.6101C104.975 89.4753 90.1887 91.958 75.847 95.9905C74.92 96.2539 74.6035 97.4275 75.2818 98.1046C76.3218 99.1503 77.3015 100.505 77.6407 100.986C86.3828 113.415 86.1794 130.011 86.6315 144.531C87.0008 156.471 86.5788 168.418 86.1417 180.357C86.0814 181.93 86.1266 183.765 87.3852 184.706C88.2519 185.353 89.42 185.345 90.4977 185.315C111.117 184.661 131.684 182.268 151.904 178.175C152.959 150.407 150.578 125.775 141.911 105.146C140.758 102.393 132.679 91.785 130.131 90.2126C127.139 88.3619 123.379 88.4145 119.859 88.6177V88.6101Z" fill="#172F35"/>
<path d="M75.8831 107.388C74.6698 104.281 72.7103 100.805 70.6529 98.1873C68.5955 95.5617 65.7769 93.4175 62.5212 92.7103C56.8463 91.484 50.8775 95.035 48.0137 100.083C51.6085 96.9685 56.9443 96.3065 61.4736 97.7811C66.003 99.2481 69.741 102.611 72.3712 106.568C75.0089 110.526 76.6368 115.062 77.9406 119.629C83.9018 140.446 83.6456 162.527 81.9198 184.111C85.1981 158.246 85.3789 131.674 75.8907 107.388H75.8831Z" fill="#9CC1E0"/>
<path d="M165.363 164.949H108.652V176.987H165.363V164.949Z" fill="#172F35"/>
<path d="M167.489 92.1978C167.203 91.1521 166.864 90.0762 166.11 89.3013C164.535 87.6913 161.935 87.9923 159.697 87.7365C155.552 87.255 151.987 84.4412 149.621 80.9956C141.451 84.7196 131.933 85.4343 124.615 79.5586C123.846 80.2733 123.04 80.9504 122.203 81.5748C117.9 84.7948 112.828 86.8562 107.666 88.3759C105.872 88.9026 103.958 89.4292 102.684 90.7909C100.438 93.1834 101.056 96.9676 101.727 100.18C106.015 120.854 105.834 142.439 101.237 163.045C100.484 166.438 102.737 169.763 106.166 170.388C126.778 174.172 148.242 173.307 168.477 167.845C162.237 143.259 174.159 116.686 167.497 92.2128L167.489 92.1978Z" fill="#A6BEBD"/>
<path d="M137.893 108.697C133.379 110.141 128.578 110.675 123.853 110.261C123.853 108.433 123.845 106.613 123.838 104.784C128.503 104.401 133.145 103.799 137.75 102.986C137.795 104.89 137.84 106.793 137.893 108.697Z" fill="white"/>
<path d="M137.773 84.7497C141.346 88.5565 141.444 94.357 141.361 99.5707C140.946 124.834 141.105 150.105 141.836 175.361C144.096 175.165 146.35 174.977 148.611 174.781C148.076 151.053 147.541 127.324 147.005 103.603C146.862 97.1557 146.704 90.6254 144.963 84.4111L137.773 84.7497Z" fill="#172F35"/>
<path d="M145.529 144.034C144.904 131.026 144.263 117.574 145.273 104.236C145.823 96.9304 144.399 91.1976 142.771 85.2617C142.515 85.3219 142.266 85.367 142.01 85.4122C143.623 91.303 145.047 96.9831 144.504 104.175C143.494 117.552 144.135 131.034 144.761 144.064C144.964 148.255 145.168 152.588 145.318 156.876C145.507 162.278 145.703 167.86 144.926 173.285C144.896 173.495 145.047 173.691 145.258 173.721C145.273 173.721 145.296 173.721 145.311 173.721C145.499 173.721 145.665 173.586 145.695 173.39C146.479 167.898 146.283 162.278 146.094 156.846C145.944 152.558 145.733 148.217 145.537 144.027L145.529 144.034Z" fill="#A6BEBD"/>
<path d="M122.377 81.3345C126.582 84.6071 131.797 86.5707 137.118 86.8942C142.439 87.2177 147.85 85.8936 152.424 83.1476C151.317 82.2072 150.457 80.9733 149.96 79.6116C146.049 81.3269 141.783 82.4404 137.525 82.0868C133.267 81.7332 129.024 79.7847 126.537 76.3164C125.625 78.3101 124.178 80.063 122.384 81.3269L122.377 81.3345Z" fill="#172F35"/>
<path d="M141.367 235.3H133.371C123.242 235.3 115.027 252.287 115.027 273.24C115.027 294.192 123.242 311.18 133.371 311.18H141.367C151.496 311.18 159.71 294.192 159.71 273.24C159.71 252.287 151.496 235.3 141.367 235.3Z" fill="#172F35"/>
<path d="M129.587 299.978C134.311 299.978 138.141 288.007 138.141 273.24C138.141 258.473 134.311 246.502 129.587 246.502C124.863 246.502 121.033 258.473 121.033 273.24C121.033 288.007 124.863 299.978 129.587 299.978Z" fill="#A6BEBD"/>
<path d="M127.657 290.318C131.616 290.318 134.824 280.294 134.824 267.929C134.824 255.563 131.616 245.539 127.657 245.539C123.699 245.539 120.49 255.563 120.49 267.929C120.49 280.294 123.699 290.318 127.657 290.318Z" fill="#172F35"/>
<path d="M193.563 201.106C186.012 191.597 174.722 185.134 162.687 183.434C150.651 181.734 138.005 184.811 128.102 191.853C124.545 194.381 121.252 197.518 119.511 201.52C116.956 207.396 118.094 214.137 119.277 220.426C122.405 237.06 125.533 253.687 128.668 270.321C129.029 272.255 129.429 274.263 130.597 275.843C132.134 277.92 134.727 278.905 137.214 279.612C155.708 284.909 175.446 281.095 194.294 277.25C198.1 276.475 202.29 275.452 204.461 272.24C205.652 270.479 206.036 268.312 206.33 266.213C207.837 255.598 207.845 244.772 206.352 234.156C204.687 222.322 201.009 210.465 193.571 201.099L193.563 201.106Z" fill="#172F35"/>
<path d="M130.862 220.585C128.149 213.829 124.215 205.35 116.678 203.273C110.318 201.52 103.399 204.846 99.1863 209.916C94.9735 214.987 92.9763 221.495 91.4314 227.897C87.3015 245.05 88.1832 263.453 94.0767 280.087C109.33 281.779 121.637 282.705 137.644 282.035C138.609 281.998 138.684 264.589 138.654 262.911C138.534 256.441 137.923 249.986 136.846 243.606C135.572 236.083 133.929 228.258 131.05 221.036C130.99 220.885 130.929 220.728 130.862 220.577V220.585Z" fill="#104774"/>
<path d="M130.673 225.121C134.049 233.502 133.966 242.959 132.06 251.791C130.153 260.623 126.521 268.982 122.911 277.265C122.308 278.657 121.185 280.312 119.715 279.921C118.622 279.627 118.178 278.356 117.906 277.257C115.834 269.072 113.761 260.842 113.023 252.43C112.292 244.019 112.955 235.345 116.203 227.543C117.258 225.015 118.668 222.495 120.944 220.975C123.227 219.456 126.573 219.237 128.563 221.126L130.666 225.113L130.673 225.121Z" fill="#172F35"/>
<path d="M147.403 278.288C140.997 277.581 133.966 276.565 129.708 271.728C128.879 274.368 130.047 277.325 131.999 279.296C133.951 281.267 136.573 282.418 139.173 283.366C158.067 290.273 178.958 288.843 198.824 285.668C199.803 282.817 196.578 286.549 197.55 283.697C180.035 288.828 165.535 280.289 147.395 278.288H147.403Z" fill="#9CC1E0"/>
<path d="M77.332 285.525C87.0992 292.507 99.6547 295.479 111.14 291.958C100.514 286.955 88.9983 284.156 77.332 285.525Z" fill="#172F35"/>
<path d="M104.297 301.821L105.879 285.134C98.8706 285.45 91.8316 285.021 84.9208 283.848C84.5138 288.986 83.7903 294.094 82.7578 299.143C89.94 300.038 97.1221 300.926 104.304 301.821H104.297Z" fill="#D1EAFF"/>
<path d="M226.001 220.531C221.66 210.24 219.143 199.203 217.734 188.098C216.068 174.978 215.902 161.714 215.736 148.488C205.645 147.412 195.351 148.255 185.568 150.956C192.253 175.685 200.34 201.339 214.87 223.676C218.608 222.819 222.316 221.675 225.993 220.524L226.001 220.531Z" fill="#FFC088"/>
<path d="M96.8571 293.372C99.216 293.763 101.515 294.832 103.044 296.66C105.682 299.812 105.531 304.379 105.011 308.449C104.491 312.519 103.783 316.89 105.644 320.546C96.2316 320.516 86.8187 320.938 77.4434 321.825C76.4712 315.197 76.8707 308.11 80.1867 302.287C83.5027 296.464 90.2326 292.274 96.8496 293.365L96.8571 293.372Z" fill="#3577AC"/>
<path d="M94.3566 292.62C93.1885 292.74 91.9224 293.101 91.2893 294.095C90.9502 294.629 90.8447 295.268 90.7693 295.893C90.2267 300.294 90.709 304.823 92.156 309.013C92.3746 309.653 92.676 310.345 93.294 310.623C93.701 310.804 94.1682 310.766 94.6129 310.744C97.5822 310.563 100.597 311.03 103.37 312.098C103.061 307.719 103.212 303.303 103.83 298.955C103.996 297.781 104.177 296.487 103.543 295.479C103.167 294.877 102.556 294.471 101.938 294.132C99.6396 292.876 96.9491 292.334 94.3491 292.612L94.3566 292.62Z" fill="#3577AC"/>
<path d="M81.4905 303.604C82.1311 302.837 83.0204 302.1 84.0077 302.243C84.8291 302.363 85.4396 303.078 85.8315 303.807C86.6228 305.297 86.8413 307.012 87.2408 308.652C87.6477 310.292 88.3335 311.985 89.7428 312.918C87.1654 315.017 84.083 316.507 80.8349 317.229C80.2018 317.372 79.5386 317.485 78.898 317.364C78.2574 317.244 77.6319 316.853 77.3983 316.251C77.2023 315.747 77.3003 315.19 77.3983 314.656C78.1293 310.751 78.9432 306.659 81.483 303.597L81.4905 303.604Z" fill="#D1EAFF"/>
<path d="M106.377 316.77C106.241 313.79 105.51 310.563 103.174 308.705C100.416 306.515 96.3236 306.989 93.1658 308.562C90.7542 309.765 88.6591 311.496 86.3982 312.97C84.1373 314.437 81.5975 315.679 78.907 315.671C78.0479 315.671 77.1059 315.566 76.42 316.085C75.6438 316.664 75.5534 317.77 75.5232 318.733C75.4931 319.817 75.4931 320.998 76.1789 321.833C76.9024 322.728 78.1685 322.946 79.314 323.067C86.6469 323.857 94.0476 323.375 101.403 322.894C102.481 322.826 103.611 322.736 104.516 322.149C106.189 321.065 106.46 318.756 106.37 316.77H106.377Z" fill="#114875"/>
<path d="M156.462 47.6672C158.836 55.8827 157.276 65.1364 152.347 72.1256C151.315 73.5926 150.086 74.9995 148.459 75.7593C145.452 77.1662 141.925 76.0377 138.804 74.9017C135.293 73.6227 131.645 72.2535 129.075 69.5376C126.656 66.9796 125.48 63.4813 124.892 60.013C124.199 55.8676 124.312 51.3837 126.475 47.7801C129.165 43.2886 134.592 41.0091 139.829 40.7533C145.067 40.4975 150.215 41.942 155.256 43.3789L156.455 47.6672H156.462Z" fill="#172F35"/>
<path d="M150.425 82.0869C150.033 81.5903 149.656 81.0787 149.317 80.5521C146.958 76.9033 145.73 72.6676 144.532 68.4922C140.153 68.5599 135.767 68.6201 131.388 68.6878C130.469 72.1937 128.562 75.361 126.098 78.0468C132.828 83.2454 142.21 83.7796 150.425 82.0869Z" fill="#FFC088"/>
<path d="M155.166 57.1545C155.136 56.9965 155.106 56.8461 155.068 56.6881C154.812 55.537 154.292 54.1678 154.88 53.0242C155.799 51.2412 155.656 50.8048 154.458 47.1184L153.169 44.2445C150.177 41.0095 145.648 39.4672 141.231 39.422C136.815 39.3769 132.489 40.686 128.435 42.4163C127.086 42.9956 125.616 43.763 125.164 45.1623C124.908 45.9598 125.028 46.8175 125.164 47.6375C125.699 50.9102 126.347 54.1678 126.995 57.4179C127.515 60.036 128.05 62.6992 129.294 65.0691C130.869 68.0709 133.454 70.3956 135.994 72.6526C137.026 73.5705 138.081 74.5033 139.34 75.0676C141.744 76.1434 144.653 75.6996 146.929 74.3679C149.205 73.0363 150.916 70.9072 152.235 68.6201C153.644 66.175 154.661 63.5042 155.227 60.7432C155.468 59.562 155.392 58.3357 155.166 57.1545Z" fill="#FFC088"/>
<path d="M135.978 54.0471C137.606 52.3769 139.686 51.6095 141.909 51.7901C141.992 51.4515 142.158 51.128 142.399 50.8722C139.837 50.5638 137.176 51.6772 135.488 53.6333C135.677 53.7311 135.842 53.8816 135.978 54.0546V54.0471Z" fill="#0C4E5F"/>
<path d="M139.702 57.5907C139.468 57.6132 139.22 57.6283 139.016 57.5079C138.828 57.4026 138.715 57.1994 138.647 56.9963C138.504 56.5976 138.496 56.1612 138.609 55.755C138.73 55.3637 138.979 54.9951 139.34 54.792C139.702 54.5888 140.177 54.5813 140.516 54.807C140.938 55.0854 141.081 55.6346 141.134 56.1387C141.164 56.3719 141.179 56.6201 141.089 56.8383C140.991 57.0941 140.757 57.2897 140.501 57.4026C140.245 57.5154 139.966 57.553 139.687 57.5831L139.702 57.5907Z" fill="#0C4E5F"/>
<path d="M140.629 55.936C140.494 55.7027 140.245 55.4846 139.974 55.5372C139.687 55.5974 139.544 55.9134 139.499 56.1993C139.469 56.4024 139.461 56.6131 139.529 56.8087C139.597 57.0043 139.74 57.1773 139.936 57.245C140.237 57.3504 140.592 57.1472 140.72 56.8613C140.848 56.5679 140.787 56.2143 140.629 55.9435V55.936Z" fill="#172F35"/>
<path d="M139.4 56.1687C139.498 56.1687 139.589 56.1235 139.657 56.0483C139.785 55.9053 139.815 55.6571 139.672 55.5367C139.581 55.4615 139.446 55.4539 139.348 55.5066C139.242 55.5593 139.174 55.6646 139.152 55.7775C139.121 55.9505 139.227 56.1536 139.4 56.1687Z" fill="white"/>
<path d="M152 51.7296C152.889 51.7296 153.665 52.2563 154.049 53.0011C154.049 53.0086 154.057 53.0161 154.065 53.0236C154.23 52.9635 154.343 52.7678 154.321 52.5798C154.298 52.3541 154.147 52.166 153.997 52.0005C153.688 51.6619 153.326 51.361 152.911 51.1654C152.497 50.9698 152.015 50.887 151.57 50.9923C151.276 51.06 150.982 51.2256 150.846 51.4964C150.764 51.6694 150.771 51.8801 150.846 52.0456C151.186 51.85 151.578 51.7221 151.992 51.7221L152 51.7296Z" fill="#0C4E5F"/>
<path d="M151.774 55.7852C151.744 55.4993 151.857 55.2059 152.016 54.9651C152.242 54.6191 152.641 54.3257 153.048 54.4159C153.319 54.4761 153.53 54.7018 153.643 54.9576C153.756 55.2134 153.787 55.4993 153.802 55.7777C153.824 56.1162 153.824 56.5074 153.561 56.7181C153.334 56.8986 153.01 56.8685 152.739 56.7858C152.272 56.6353 151.827 56.2742 151.774 55.7852Z" fill="#0C4E5F"/>
<path d="M153.244 55.2961C153.131 55.1682 152.965 55.0553 152.807 55.108C152.686 55.1531 152.611 55.281 152.566 55.4014C152.49 55.5895 152.437 55.7926 152.468 55.9882C152.498 56.1838 152.626 56.3794 152.822 56.4396C153.086 56.5224 153.38 56.3192 153.455 56.0559C153.53 55.7926 153.432 55.4992 153.251 55.2961H153.244Z" fill="#172F35"/>
<path d="M152.589 55.469C152.664 55.469 152.732 55.4314 152.785 55.3787C152.883 55.2734 152.905 55.0778 152.792 54.9875C152.724 54.9348 152.626 54.9273 152.543 54.9649C152.468 55.0025 152.415 55.0853 152.393 55.1681C152.37 55.2959 152.445 55.4539 152.581 55.469H152.589Z" fill="white"/>
<path d="M153.192 57.0195C150.765 55.6202 146.364 56.222 143.742 56.6659C141.119 57.1098 137.976 58.6822 135.61 59.8934C134.947 60.232 134.253 60.6382 133.974 61.3228C133.809 61.7216 133.809 62.1579 133.809 62.5868C133.824 64.7836 133.929 66.9804 134.11 69.1622C134.17 69.8769 134.246 70.5991 134.54 71.2536C134.849 71.9232 135.369 72.4574 135.926 72.9464C136.77 73.6912 137.72 74.3382 138.783 74.7144C140.493 75.3238 145.128 76.3169 146.816 75.6548C148.504 74.9927 148.354 74.925 149.582 73.6009C152.032 70.9678 153.938 68.2669 155.25 64.919C155.83 63.4369 156.478 60.7962 155.89 59.9686C155.445 59.3442 153.848 57.3957 153.185 57.012L153.192 57.0195Z" fill="#172F35"/>
<path d="M145.541 57.2305C141.78 57.5164 138.14 59.0662 135.307 61.5414C135.668 65.1526 135.759 68.365 136.234 71.9763C136.671 72.7737 137.59 74.0376 138.216 74.5041C140.183 75.9787 142.135 76.3172 144.569 76.6934C148.405 77.2802 150.967 74.805 153.07 71.5474C155.172 68.2898 156.077 63.6329 156.484 59.7809C153.055 57.0349 149.935 56.892 145.549 57.223L145.541 57.2305Z" fill="white"/>
<path d="M135.865 62.6619C132.866 61.0594 130.876 59.946 128.954 58.8626L127.764 58.193L128.14 57.5234L129.331 58.193C131.253 59.2764 133.243 60.3898 136.235 61.9848L135.873 62.6619H135.865Z" fill="white"/>
<path d="M129.527 66.2408L129.188 66.9375L136.722 70.601L137.062 69.9043L129.527 66.2408Z" fill="white"/>
<path d="M132.784 52.5882C136.356 49.7293 148.143 50.3989 155.423 49.8572C155.272 49.1425 154.918 48.5331 154.466 47.1262L153.177 44.2523C150.185 41.0173 145.656 39.475 141.239 39.4298C136.823 39.3847 132.497 40.6938 128.443 42.4241C127.094 43.0034 125.624 43.7708 125.172 45.1702C124.916 45.9676 125.036 46.8253 125.172 47.6453C125.707 50.918 126.355 54.1756 127.003 57.4257C127.523 60.0438 128.058 62.707 129.302 65.0769C129.784 65.9947 130.364 66.8449 131.005 67.6499C130.033 61.7365 129.211 56.1617 132.791 52.5882H132.784Z" fill="#172F35"/>
<path d="M132.316 30.1157C128.111 31.2592 124.094 33.4636 121.358 36.8491C118.554 40.3173 117.266 44.7787 116.783 49.2099C116.339 53.2274 116.52 57.3652 117.808 61.2021C119.18 65.2948 121.885 69.0264 125.706 71.0878C126.355 71.4339 127.086 71.6596 127.817 71.5618C129.844 71.2909 130.243 69.222 130.319 67.4916C130.484 63.6021 130.16 59.3363 129.279 55.3264C128.638 52.4299 130.756 49.6388 133.725 49.5033C141.766 49.1272 149.747 49.0444 157.826 48.4726C158.203 48.4425 158.603 48.4049 158.881 48.1567C159.213 47.8557 159.258 47.3592 159.258 46.9153C159.281 40.7988 155.452 34.9983 150.139 31.9664C144.819 28.9345 138.239 28.5057 132.331 30.1157H132.316Z" fill="#114875"/>
<path d="M127.184 71.7121C126.679 71.7121 126.22 71.5466 125.873 71.2382C125.715 71.0952 125.7 70.8545 125.843 70.6965C125.986 70.5385 126.227 70.5234 126.385 70.6664C126.672 70.9222 127.033 70.9598 127.282 70.9448C127.772 70.9147 128.277 70.6589 128.601 70.2827C129.212 69.5755 129.385 68.5749 129.483 67.5969C129.762 64.7681 129.543 61.9393 128.827 59.1933C128.752 58.8999 128.669 58.6065 128.586 58.3131C128.028 56.2968 127.456 54.2129 128.277 52.2643C128.895 50.8048 130.304 49.6161 132.151 49.0067C133.763 48.4725 135.452 48.4124 137.095 48.3522L154.745 47.7052C156.252 47.6525 157.955 47.5848 159.364 46.8851C159.553 46.7873 159.787 46.8701 159.884 47.0582C159.982 47.2462 159.9 47.4795 159.711 47.5773C158.151 48.3522 156.357 48.4199 154.775 48.4801L137.125 49.1271C135.542 49.1873 133.907 49.2475 132.399 49.744C130.772 50.2857 129.528 51.3164 129 52.5728C128.285 54.273 128.82 56.2291 129.34 58.1175C129.423 58.4184 129.505 58.7118 129.581 59.0052C130.319 61.8415 130.545 64.7606 130.259 67.6796C130.154 68.7329 129.95 69.9216 129.189 70.7943C128.729 71.3284 128.036 71.6745 127.335 71.7197C127.282 71.7197 127.237 71.7197 127.184 71.7197V71.7121Z" fill="#A6BEBD"/>
<path d="M142.739 30.7023C135.715 29.1675 127.93 31.7781 123.265 37.2476C118.6 42.7095 117.243 50.7971 119.881 57.4778C118.668 51.7827 119.851 45.6211 123.092 40.776C126.332 35.931 131.593 32.4928 137.328 31.4396L142.739 30.7023Z" fill="#9CC1E0"/>
<path d="M110.679 94.8767C111.614 94.2823 112.902 94.5156 113.799 95.1776C114.688 95.8397 115.254 96.8403 115.721 97.8484C118.223 103.228 118.592 109.397 117.801 115.272C117.002 121.148 115.103 126.813 113.211 132.433C120.363 136.812 127.862 140.619 135.624 143.801C123.174 146.479 109.82 144.764 98.4551 139.024C105.75 126.798 106.971 112.067 109.202 98.0139C109.39 96.8327 109.677 95.5162 110.679 94.8767Z" fill="#172F35"/>
<path d="M119.617 159.336C122.903 160.164 126.483 160.848 129.603 159.524C132.143 158.448 133.967 156.199 135.61 153.987C137.283 151.723 138.948 148.788 137.712 146.261C136.597 143.981 133.733 143.296 131.254 142.732C123.544 140.972 116.158 137.819 109.564 133.456C110.611 128.19 112.812 123.239 114.621 118.191C116.429 113.135 117.869 107.794 117.311 102.46C116.754 97.1257 113.837 91.7616 108.938 89.5497C107.318 88.82 105.457 88.4513 103.761 88.9704C101.364 89.7002 99.8193 91.9798 98.5834 94.1616C91.0319 107.561 92.2378 121.584 87.7989 138.512C87.1432 141.002 87.829 143.801 89.1403 146.02C90.6024 148.495 93.3381 149.894 95.9607 151.083C103.572 154.529 111.501 157.29 119.61 159.329L119.617 159.336Z" fill="#A6BEBD"/>
<path d="M128.781 154.153C128.525 155.688 128.63 157.433 129.708 158.562C130.431 159.314 131.471 159.668 132.466 159.984C133.355 160.27 134.282 160.563 135.202 160.413C136.159 160.255 136.973 159.645 137.674 158.976C139.445 157.283 140.726 155.086 141.329 152.709C141.668 151.369 141.781 149.887 141.125 148.676C140.5 147.518 139.249 146.795 137.96 146.532C135.782 146.088 133.446 146.871 131.795 148.36C130.145 149.842 129.143 151.971 128.781 154.161V154.153Z" fill="#172F35"/>
<path d="M128.435 159.464C128.292 159.464 128.156 159.389 128.088 159.254C127.674 158.449 127.161 158.494 126.129 158.652C125.405 158.765 124.576 158.892 123.68 158.584C120.311 157.433 116.761 156.635 113.332 155.861C109.956 155.101 106.467 154.318 103.12 153.19C96.7974 151.061 90.5422 148.134 87.603 141.19C87.5201 140.994 87.6105 140.769 87.8065 140.686C88.0024 140.603 88.2285 140.693 88.3114 140.889C91.13 147.547 97.2119 150.384 103.369 152.46C106.67 153.573 110.144 154.356 113.498 155.108C116.95 155.883 120.514 156.688 123.921 157.854C124.644 158.102 125.338 157.997 126.001 157.892C126.973 157.741 128.081 157.568 128.767 158.9C128.865 159.088 128.789 159.321 128.601 159.419C128.541 159.449 128.48 159.464 128.427 159.464H128.435Z" fill="#E8E8E8"/>
<path d="M89.9016 300.512C92.1851 299.308 94.7249 298.436 97.34 298.353C99.9626 298.27 102.668 299.03 104.56 300.738C105.185 301.302 105.555 302.242 105.607 303.115C105.622 303.363 105.313 303.491 105.133 303.318C103.053 301.324 100.219 300.038 97.242 300.173C94.039 300.316 90.9717 301.663 88.5903 303.672C87.9798 303.296 87.9195 302.438 88.2662 301.836C88.6129 301.242 89.261 300.851 89.894 300.519L89.9016 300.512Z" fill="#172F35"/>
<path d="M90.0442 303.191C92.3277 301.987 94.8674 301.114 97.4826 301.031C100.105 300.949 102.811 301.709 104.702 303.416C105.328 303.981 105.697 304.921 105.75 305.794C105.765 306.042 105.456 306.17 105.275 305.997C103.195 304.003 100.361 302.717 97.3846 302.852C94.1816 302.995 91.1143 304.342 88.7328 306.35C88.1224 305.974 88.0621 305.117 88.4088 304.515C88.7554 303.92 89.4036 303.529 90.0366 303.198L90.0442 303.191Z" fill="#172F35"/>
<path d="M89.0434 307.922C90.9501 305.793 93.7386 304.499 96.5949 304.289C99.4511 304.078 102.353 304.928 104.727 306.53C105.171 306.831 105.616 307.177 105.812 307.674C106.008 308.171 105.842 308.84 105.345 309.036C103.091 307.388 100.325 306.448 97.5294 306.38C94.7334 306.312 91.9299 307.11 89.5861 308.637C89.375 308.772 89.0962 308.915 88.9002 308.772C88.6365 308.577 88.8324 308.163 89.051 307.922H89.0434Z" fill="#172F35"/>
<path d="M147.043 173.857H121.969C116.792 174.722 110.069 172.202 106.271 175.444C100.302 180.545 99.0209 192.868 99.9629 200.173C100.136 201.49 100.46 202.859 101.402 203.882C103.332 205.974 106.881 205.869 109.926 205.876C115.533 205.891 121.14 206.937 126.28 208.931C129.34 210.119 132.595 211.677 135.828 210.932C138.263 210.375 140.079 208.615 141.744 206.944C145.633 203.025 149.56 199 151.941 194.223C154.323 189.445 154.963 183.705 152.243 179.071C151.022 176.987 149.19 175.249 147.043 173.864V173.857Z" fill="#A6BEBD"/>
<path d="M142.167 182.335C140.584 180.44 138.647 178.431 136.175 178.393C134.329 178.363 132.679 179.469 131.224 180.59C121.065 188.422 113.74 199.308 107.349 210.42C93.8512 233.878 83.6922 259.246 77.2637 285.525C88.6888 286.812 100.016 288.979 111.109 292.003C119.392 263.369 127.803 234.419 142.619 208.547C145.505 203.499 148.754 197.999 147.751 192.274C147.088 188.482 144.639 185.277 142.174 182.328L142.167 182.335Z" fill="#A6BEBD"/>
<path d="M101.17 203.521C102.602 205.47 105.254 206.275 107.643 205.891C110.032 205.507 112.15 204.07 113.793 202.302C115.436 200.534 116.672 198.428 117.893 196.344C113.484 200.722 107.372 203.34 101.162 203.521H101.17Z" fill="#172F35"/>
<path d="M81.1596 286.248C81.1596 286.248 81.0918 286.248 81.0617 286.233C80.8582 286.18 80.7301 285.97 80.7904 285.759C86.4351 264.649 95.1471 242.53 107.409 218.132C110.506 211.97 114.018 205.673 119.866 202.318C120.085 202.197 120.213 201.987 120.236 201.746C120.251 201.513 120.16 201.295 119.972 201.152L119 200.392C118.532 200.023 118.284 199.451 118.344 198.857C118.397 198.278 118.736 197.774 119.248 197.51C121.193 196.502 123.28 195.81 125.436 195.449C124.132 195.171 122.798 195.088 121.464 195.201C121.057 195.231 120.673 194.998 120.522 194.606C120.371 194.215 120.492 193.786 120.824 193.531C122.225 192.462 123.74 191.552 125.33 190.807L111.667 193.403C109.511 193.809 107.281 194.238 105.035 193.892C102.465 193.5 100.596 192.229 99.782 190.311C99.6991 190.115 99.7895 189.889 99.9855 189.807C100.181 189.724 100.408 189.814 100.49 190.01C101.395 192.139 103.52 192.884 105.148 193.132C107.266 193.455 109.429 193.042 111.516 192.643L131.171 188.904C131.382 188.866 131.585 189.002 131.623 189.212C131.661 189.423 131.525 189.626 131.314 189.664C127.697 190.348 124.23 191.898 121.283 194.14C121.2 194.2 121.215 194.283 121.238 194.321C121.253 194.366 121.298 194.433 121.396 194.426C122.806 194.305 124.215 194.396 125.594 194.682C125.963 194.757 126.22 195.08 126.212 195.457C126.204 195.833 125.933 196.141 125.556 196.201C123.476 196.547 121.472 197.217 119.595 198.188C119.316 198.33 119.135 198.601 119.105 198.925C119.075 199.256 119.211 199.579 119.474 199.782L120.447 200.542C120.831 200.843 121.035 201.317 121.004 201.799C120.967 202.295 120.688 202.739 120.251 202.987C114.591 206.23 111.139 212.422 108.102 218.478C95.8631 242.831 87.1737 264.904 81.5365 285.962C81.4912 286.135 81.333 286.248 81.1672 286.248H81.1596Z" fill="#E8E8E8"/>
<path d="M241.389 176.114C239.656 170.517 237.779 164.686 233.642 160.526C228.095 154.958 219.654 153.559 211.801 153.198C196.382 152.483 180.571 154.748 166.809 161.722C162.069 164.122 157.51 167.154 154.405 171.457C150.463 176.919 149.265 183.871 148.813 190.589C147.253 213.934 153.455 237.016 156.093 260.27C156.876 267.199 157.133 274.918 152.747 280.357C151.398 282.028 149.536 284.059 150.493 285.985C151.194 287.399 153.033 287.738 154.608 287.888C177.632 290.145 201.514 290.221 223.144 282.02C235.368 277.386 247.087 269.622 252.86 257.915C256.892 249.73 257.683 240.251 256.665 231.185C255.656 222.119 252.935 213.34 250.237 204.628C247.29 195.126 244.343 185.616 241.397 176.114H241.389Z" fill="#104774"/>
<path d="M244.804 239.024C240.711 231.064 233.348 224.391 224.501 222.947C216.354 221.615 207.875 224.888 201.786 230.44C195.697 235.992 191.793 243.613 189.449 251.52C187.105 259.42 186.224 267.665 185.364 275.858C184.995 279.394 184.852 283.547 187.565 285.857C189.992 287.918 193.594 287.535 196.722 286.918C207.295 284.834 217.62 281.456 227.387 276.897C235.828 272.954 244.487 267.372 247.298 258.502C249.333 252.1 247.871 244.998 244.804 239.024Z" fill="#172F35"/>
<path d="M167.299 173.353C166.342 171.72 164.134 171.397 162.725 172.653C158.399 176.49 155.934 182.366 155.264 188.189C154.427 195.449 155.964 202.754 157.494 209.894C162.612 209.074 160.449 209.42 165.566 208.592C164.993 203.649 164.654 198.609 165.641 193.733C166.485 189.558 168.422 185.473 171.512 182.599C172.462 181.719 172.507 180.259 171.648 179.296C170.005 177.46 168.543 175.459 167.299 173.338V173.353Z" fill="#9CC1E0"/>
<path d="M231.312 167.771C231.229 168.892 231.026 170.006 230.709 171.089C230.461 171.947 230.702 172.872 231.357 173.474C235.201 176.995 238.133 181.509 239.745 186.459C240.507 186.7 241.313 186.053 241.554 185.293C241.795 184.533 241.622 183.713 241.441 182.938C240.273 177.755 237.07 171.397 233.257 167.087C232.593 166.342 231.38 166.786 231.297 167.779L231.312 167.771Z" fill="#9CC1E0"/>
<path d="M157.759 251.881C158.46 241.048 156.192 230.274 154.292 219.584C152.393 208.893 150.848 197.879 152.981 187.233C155.114 176.588 161.565 166.228 171.641 162.128C161.037 165.378 154.541 174.677 151.903 185.435C149.266 196.194 150.366 208.238 152.582 219.087C154.797 229.936 157.217 240.83 157.767 251.889L157.759 251.881Z" fill="#9CC1E0"/>
<path d="M215.857 157.562C215.804 154.553 215.767 151.543 215.729 148.534C204.696 147.36 193.436 148.286 182.742 151.235C183.383 153.597 184.038 155.967 184.702 158.344C187.475 172.691 201.38 227.709 201.38 227.709L215.239 224.399L197.159 161.045C203.46 160.519 209.73 159.322 215.864 157.554L215.857 157.562Z" fill="#172F35"/>
<path d="M215.856 156.742C206.798 159.353 197.437 160.609 188.107 160.105C194.34 181.938 202.125 204.087 214.869 223.685C218.607 222.827 222.315 221.684 225.993 220.533C221.652 210.241 219.135 199.204 217.725 188.099C216.406 177.702 216.03 167.222 215.849 156.742H215.856Z" fill="#9CC2E0"/>
<path d="M242.612 139.017C242.612 141.199 241.315 142.974 239.71 142.974C238.105 142.974 236.809 141.206 236.809 139.017C236.809 136.828 238.105 135.06 239.71 135.06C241.315 135.06 242.612 136.828 242.612 139.017Z" fill="#172F35"/>
<path d="M251.338 140.837C251.067 141.484 250.396 141.89 249.71 142.033C249.024 142.176 248.308 142.094 247.615 142.011C244.186 141.597 240.757 141.183 237.32 140.769C237.403 139.513 237.486 138.264 237.569 137.008C240.787 137.188 243.998 137.376 247.216 137.557C248.248 137.617 249.333 137.685 250.223 138.219C251.112 138.753 251.737 139.882 251.338 140.837Z" fill="#172F35"/>
<path d="M238.872 135.383C234.305 135.796 230.793 134.367 227.5 131.185C225.54 129.296 224.04 126.889 221.719 125.467C217.913 123.135 213.06 124.052 208.621 124.511C202.057 125.188 195.169 124.737 189.147 127.423C184.701 129.409 181.166 132.915 177.383 135.977C170.856 141.251 163.35 145.298 155.369 147.901C156.831 149.519 157.924 151.498 158.708 153.612C165.106 152.31 171.813 152.16 178.37 152.408C188.582 152.792 198.831 154.04 208.99 152.904C213.165 152.438 217.371 151.543 221.033 149.489C223.995 147.834 226.505 145.471 229.391 143.688C232.278 141.898 234.885 141.025 238.133 142.011C240.206 140.551 240.364 137 238.88 135.383H238.872Z" fill="#104774"/>
<path d="M178.754 140.122C179.153 140.039 179.545 139.896 179.884 139.656C181.535 138.482 181.15 135.789 182.537 134.307L174.375 140.528C175.701 139.866 177.307 140.408 178.761 140.122H178.754Z" fill="#9CC1E0"/>
<path d="M165.198 158.953C166.019 158.584 166.464 157.667 166.223 156.801C166.012 156.034 165.952 155.229 166.057 154.447C166.178 153.529 166.524 152.641 166.517 151.716C166.509 150.377 165.771 149.15 164.987 148.059C164.407 147.254 163.759 146.457 162.854 146.043C161.498 145.434 159.923 145.847 158.491 146.269C157.564 146.547 156.501 146.953 156.245 147.886C156.132 148.315 156.222 148.774 156.343 149.203C156.848 150.918 157.895 152.476 159.297 153.581C160.171 154.274 161.256 154.913 161.475 156.004C161.633 156.809 161.249 157.637 160.676 158.223C160.103 158.81 159.365 159.201 158.656 159.6C152.868 162.895 148.038 167.68 143.953 172.939C143.847 173.074 143.742 173.217 143.652 173.368C143.636 173.383 143.621 173.398 143.614 173.421C143.38 173.767 143.192 174.165 143.222 174.579C143.275 175.286 143.96 175.79 144.654 175.956C145.166 176.076 145.822 176.001 146.041 175.52C146.191 175.189 146.071 174.805 145.995 174.451C145.92 174.105 145.882 173.744 145.89 173.39C151.165 167.244 157.805 162.271 165.19 158.931L165.198 158.953Z" fill="white"/>
<path d="M223.031 144.155C224.704 141.484 224.523 138.084 223.973 134.984C223.574 132.735 222.956 130.357 221.245 128.845C219.662 127.453 217.454 127.062 215.352 126.851C208.72 126.197 201.959 126.806 195.554 128.649C191.574 129.793 187.384 131.711 185.628 135.458C183.782 139.4 184.95 145.246 188.168 148.18C191.386 151.114 195.787 150.911 200.143 151.009C205.23 151.129 210.754 150.324 215.615 148.812C220.748 147.21 221.479 146.638 223.039 144.155H223.031Z" fill="white"/>
<path d="M217.16 128.033C219.27 130.162 220.499 133.036 221.117 135.97C221.735 138.904 221.78 141.921 221.833 144.915C223.619 140.65 223.619 135.677 221.84 131.418C221.433 130.44 220.921 129.477 220.114 128.778C219.316 128.086 218.17 127.702 217.16 128.025V128.033Z" fill="#172F35"/>
<path d="M239.378 144.922C239.898 145.11 240.471 144.952 241.021 144.975C245.286 145.185 248.806 144.832 252.28 146.472C252.062 146.577 251.941 147.322 252.077 147.525C252.468 147.977 253.313 147.683 253.493 147.111C253.674 146.54 253.328 145.915 252.838 145.569C252.348 145.231 251.413 144.779 250.826 144.666C247.389 144.027 244.276 143.726 240.84 143.086C239.936 142.8 239.649 141.634 239.815 140.701C239.981 139.769 240.448 138.888 240.463 137.94C240.478 136.413 239.054 135.082 237.554 135.006C237.185 134.991 236.898 135.352 237.034 135.706C237.78 137.655 237.577 139.942 236.522 141.747C236.326 142.086 236.431 142.522 236.778 142.703C237.69 143.177 238.315 144.546 239.378 144.922Z" fill="white"/>
<path d="M242.53 119.005C246.973 117.184 249.096 112.111 247.271 107.676C245.446 103.24 240.365 101.122 235.922 102.944C231.479 104.765 229.356 109.838 231.181 114.273C233.006 118.708 238.087 120.827 242.53 119.005Z" fill="white"/>
<path d="M238.63 137.677C238.261 137.677 237.93 137.406 237.869 137.03L236.143 126.317C235.94 125.038 236.046 123.706 236.46 122.48L239.753 112.737C239.889 112.331 240.326 112.12 240.733 112.256C241.14 112.391 241.359 112.828 241.215 113.234L237.922 122.977C237.59 123.97 237.5 125.038 237.666 126.076L239.392 136.789C239.459 137.211 239.173 137.609 238.751 137.677C238.706 137.677 238.668 137.685 238.63 137.685V137.677Z" fill="white"/>
<path d="M141.089 134.292C147.17 134.292 152.099 129.371 152.099 123.3C152.099 117.23 147.17 112.309 141.089 112.309C135.008 112.309 130.078 117.23 130.078 123.3C130.078 129.371 135.008 134.292 141.089 134.292Z" fill="white"/>
<path d="M160.857 148.887C160.511 148.887 160.194 148.646 160.104 148.293L156.743 134.209C156.396 132.749 155.439 131.5 154.12 130.786L142.333 124.368C141.956 124.165 141.821 123.699 142.024 123.323C142.228 122.946 142.702 122.811 143.072 123.014L154.859 129.432C156.562 130.357 157.798 131.974 158.25 133.855L161.611 147.939C161.709 148.353 161.453 148.767 161.038 148.872C160.978 148.887 160.918 148.894 160.857 148.894V148.887Z" fill="white"/>
<path d="M129.881 157.553C130.476 159.005 131.064 160.457 131.659 161.909C140.025 158.388 148.631 155.447 157.404 153.107C156.876 151.482 156.092 149.947 155.082 148.57C146.679 151.565 138.276 154.559 129.881 157.553Z" fill="#172F35"/>
<path d="M152.295 149.007C152.227 147.999 152.988 147.036 153.945 146.705C154.902 146.374 155.995 146.607 156.862 147.141C157.721 147.675 158.376 148.495 158.904 149.361C159.552 150.436 160.034 151.648 160.102 152.904C160.132 153.476 159.914 154.16 159.59 154.823C158.904 156.207 157.065 156.568 155.935 155.515C154.073 153.792 152.415 150.85 152.287 149.007H152.295Z" fill="#172F35"/>
<path d="M133.228 159.405C134.253 161.361 133.808 163.618 132.226 164.453C130.643 165.28 128.525 164.37 127.5 162.406C126.475 160.45 126.92 158.193 128.503 157.358C130.085 156.531 132.203 157.441 133.228 159.405Z" fill="#172F35"/>
<path d="M231.193 235.999C229.701 236.195 223.996 236.94 222.504 237.135C211.493 238.572 204.981 258.208 207.973 280.996C210.965 303.777 222.315 321.081 233.326 319.644C234.818 319.448 240.523 318.703 242.015 318.508C253.026 317.071 259.537 297.435 256.545 274.647C253.553 251.866 242.204 234.562 231.193 235.999Z" fill="#172F35"/>
<path d="M230.825 278.01C232.859 293.501 230.704 306.561 226.016 307.171C221.329 307.78 215.887 295.72 213.853 280.229C211.818 264.739 213.973 251.678 218.661 251.069C223.348 250.46 228.79 262.52 230.825 278.01Z" fill="#A6BEBD"/>
<path d="M248.368 237.602C245.06 233.02 240.787 229.01 235.624 226.7C224.983 221.931 214.997 225.933 209.903 236.09C206.346 243.184 203.293 252.633 203.753 260.623C204.266 269.561 204.461 279.627 206.421 288.362C223.4 286.376 247.765 282.373 262.657 276.821C260.547 263.444 256.304 248.586 248.368 237.602Z" fill="#104774"/>
<path d="M217.235 229.702C214.176 231.35 211.787 234.201 210.709 237.504C212.081 235.894 214.522 235.458 216.535 236.12C218.547 236.782 220.145 238.369 221.245 240.175C222.338 241.988 222.986 244.019 223.626 246.035C226.754 255.906 229.881 265.769 233.017 275.64C233.416 276.911 233.861 278.243 234.84 279.146C236.679 280.846 239.566 280.402 242.007 279.845C240.749 280.116 239.445 279.401 238.646 278.401C237.847 277.4 237.448 276.144 237.064 274.918C232.964 261.654 229.301 248.255 226.076 234.75C225.563 232.606 224.877 230.199 222.925 229.161C221.177 228.228 218.984 228.762 217.243 229.702H217.235Z" fill="#9CC2E0"/>
<path d="M208.003 253.266C207.068 264.837 211.108 276.144 213.851 287.429C214.401 289.679 214.921 291.988 216.195 293.922C217.476 295.848 219.714 297.337 222.005 297.006C224.522 296.645 226.324 294.215 226.783 291.717C227.235 289.22 226.64 286.669 226.045 284.202C222.962 271.419 219.887 258.63 216.805 245.848C215.102 244.11 211.959 244.712 210.316 246.502C208.673 248.293 208.191 250.843 207.995 253.266H208.003Z" fill="#172F35"/>
<path d="M219.526 283.758C219.526 288.873 218.102 293.011 216.338 293.011C214.575 293.011 213.15 288.866 213.15 283.758C213.15 278.649 214.575 274.504 216.338 274.504C218.102 274.504 219.526 278.649 219.526 283.758Z" fill="#A6BEBD"/>
<path d="M222.291 293.99C222.736 294.524 223.557 294.637 224.198 294.366C224.838 294.102 225.313 293.531 225.63 292.906C226.624 290.943 226.195 288.595 225.705 286.459C222.932 274.451 218.658 262.798 216.541 250.663C216.367 249.655 216.187 248.601 215.576 247.774C214.966 246.946 213.775 246.457 212.886 246.969C212.275 247.315 211.959 248.045 211.929 248.752C211.891 249.451 212.087 250.144 212.283 250.821C214.295 257.96 215.863 265.228 216.963 272.563C218.515 272.962 219.51 274.451 220.211 275.896C222.555 280.711 223.241 286.316 222.125 291.552C221.952 292.38 221.756 293.335 222.299 293.99H222.291Z" fill="#A6BEBD"/>
<path d="M214.627 273.526C213.571 274.828 212.788 276.355 212.351 277.973C212.207 276.227 213.127 274.437 214.627 273.526Z" fill="#A6BEBD"/>
<path d="M153.448 156.733C152.913 155.146 151.979 151.068 150.486 150.301C148.625 149.353 146.447 149.248 144.397 149.135C142.227 149.015 140.011 148.729 137.863 149.21C136.25 149.571 134.962 150.278 133.869 151.527C132.708 152.851 132.06 153.882 132.128 155.643C132.196 157.403 135.097 160.465 136.861 160.533C136.341 160.781 136.19 161.496 136.386 162.037C136.582 162.579 137.027 162.985 137.449 163.377C138.398 164.234 139.348 165.099 140.305 165.957C141.006 166.589 141.752 167.244 142.671 167.424C143.847 167.65 145.023 167.055 146.017 166.386C147.804 165.19 149.808 164.355 151.12 162.654C152.687 160.616 154.262 159.171 153.441 156.741L153.448 156.733Z" fill="#FFC088"/>
</g>
<defs>
<clipPath id="clip0_2204_68649">
<rect width="271" height="324" fill="white"/>
</clipPath>
</defs>
</svg>
