<svg width="425" height="345" viewBox="0 0 425 345" fill="none" xmlns="http://www.w3.org/2000/svg">
<path d="M189.332 106.683H255.964C269.514 106.683 280.507 117.653 280.507 131.175V236.104C280.507 244.478 273.692 251.278 265.301 251.278H180.018C171.627 251.278 164.812 244.478 164.812 236.104V131.175C164.812 117.653 175.805 106.683 189.355 106.683H189.332Z" fill="#3577AC"/>
<path d="M286.649 185.282L287.413 185.331C290.245 185.516 292.388 187.953 292.204 190.78L289.345 234.535C289.161 237.362 286.718 239.501 283.886 239.317L283.122 239.267C280.29 239.083 278.146 236.645 278.331 233.819L281.189 190.063C281.374 187.236 283.816 185.097 286.649 185.282Z" fill="#114875"/>
<path d="M162.334 239.262L161.57 239.312C158.737 239.496 156.295 237.357 156.11 234.531L153.252 190.775C153.067 187.948 155.211 185.511 158.043 185.327L158.807 185.277C161.64 185.093 164.082 187.232 164.267 190.058L167.125 233.814C167.31 236.641 165.166 239.078 162.334 239.262Z" fill="#114875"/>
<path d="M232.595 300.995H214.078L217.344 247.592H229.328L232.595 300.995Z" fill="#4C4C4C" stroke="#4C4C4C" stroke-miterlimit="10"/>
<path d="M285.35 251.784H159.947C155.881 251.784 152.559 248.469 152.559 244.411C152.559 240.353 155.881 237.037 159.947 237.037H285.35C289.416 237.037 292.739 240.353 292.739 244.411C292.739 248.469 289.416 251.784 285.35 251.784Z" fill="#062A47"/>
<path d="M251.652 299.825H194.007C183.386 299.825 174.736 308.447 174.736 319.046C174.736 320.968 176.302 322.531 178.228 322.531C180.154 322.531 181.719 320.968 181.719 319.046C181.719 312.291 187.227 306.794 193.996 306.794H219.09V326.69H226.085V306.794H251.64C258.41 306.794 263.917 312.291 263.917 319.046C263.917 320.968 265.483 322.531 267.409 322.531C269.335 322.531 270.9 320.968 270.9 319.046C270.9 308.447 262.262 299.825 251.629 299.825H251.652Z" fill="#D6D7D9" stroke="#4C4C4C" stroke-miterlimit="10"/>
<path d="M180.307 335.448C185.164 334.307 188.174 329.454 187.032 324.608C185.889 319.761 181.026 316.757 176.17 317.897C171.314 319.038 168.303 323.891 169.446 328.737C170.588 333.583 175.451 336.588 180.307 335.448Z" fill="#4C4C4C" stroke="#4C4C4C" stroke-miterlimit="10"/>
<path d="M231.149 328.78C232.291 323.934 229.281 319.08 224.425 317.94C219.569 316.8 214.706 319.804 213.563 324.651C212.42 329.497 215.431 334.35 220.287 335.49C225.143 336.631 230.006 333.626 231.149 328.78Z" fill="#4C4C4C" stroke="#4C4C4C" stroke-miterlimit="10"/>
<path d="M276.353 328.102C277.15 323.188 273.803 318.559 268.879 317.764C263.954 316.969 259.316 320.308 258.519 325.223C257.722 330.138 261.068 334.767 265.993 335.562C270.918 336.357 275.556 333.017 276.353 328.102Z" fill="#4C4C4C" stroke="#4C4C4C" stroke-miterlimit="10"/>
<path d="M65.9665 213.466H39.7461V224.852H65.9665V213.466Z" fill="#839BAD"/>
<path d="M94.2606 313.819H11.4434V325.835H94.2606V313.819Z" fill="#AFCCE3"/>
<path d="M7.36532 344.438L0.753906 344.427L39.7466 213.465L46.3693 213.432L7.36532 344.438Z" fill="#AFCCE3"/>
<path d="M98.5743 344.438L105.186 344.427L66.193 213.465L59.5703 213.432L98.5743 344.438Z" fill="#AFCCE3"/>
<path d="M385.027 213.466H358.807V224.852H385.027V213.466Z" fill="#839BAD"/>
<path d="M413.321 313.819H330.504V325.835H413.321V313.819Z" fill="#AFCCE3"/>
<path d="M326.426 344.438L319.814 344.427L358.807 213.465L365.43 213.432L326.426 344.438Z" fill="#AFCCE3"/>
<path d="M417.635 344.438L424.246 344.427L385.254 213.465L378.631 213.432L417.635 344.438Z" fill="#AFCCE3"/>
<path d="M415.087 203.787H9.91016V213.465H415.087V203.787Z" fill="#AFCCE3"/>
<path d="M334.062 178.059H331.37V175.193C331.37 174.878 331.111 174.608 330.784 174.608H306.726C306.411 174.608 306.141 174.867 306.141 175.193V203.215C306.141 203.53 306.4 203.8 306.726 203.8H330.784C331.1 203.8 331.37 203.541 331.37 203.215V198.348H334.062C337.598 198.348 340.47 195.819 340.47 192.717V183.702C340.47 180.588 337.598 178.07 334.062 178.07V178.059ZM336.202 192.717C336.202 193.751 335.244 194.594 334.062 194.594H331.37V181.813H334.062C335.244 181.813 336.202 182.656 336.202 183.691V192.705V192.717Z" fill="#1D5C9F" stroke="#4C4C4C" stroke-miterlimit="10"/>
<path d="M325.839 153.589C325.839 149.823 322.776 146.766 319.003 146.766C315.23 146.766 312.166 149.823 312.166 153.589C312.166 155.668 313.101 157.534 314.576 158.782C314.272 159.411 314.103 160.119 314.103 160.861C314.103 162.94 315.41 164.716 317.246 165.425C316.367 165.998 315.781 166.987 315.781 168.122C315.781 169.898 317.223 171.348 319.014 171.348C320.805 171.348 322.246 169.91 322.246 168.122C322.246 166.987 321.661 165.998 320.782 165.425C322.618 164.716 323.925 162.94 323.925 160.861C323.925 160.119 323.756 159.411 323.452 158.782C324.927 157.534 325.862 155.668 325.862 153.589H325.839Z" fill="#D1EAFF" stroke="#4C4C4C" stroke-miterlimit="10"/>
<path d="M238.574 76.0186H89.1698C86.2089 76.0186 83.8086 78.414 83.8086 81.369V185.949C83.8086 188.904 86.2089 191.3 89.1698 191.3H238.574C241.535 191.3 243.935 188.904 243.935 185.949V81.369C243.935 78.414 241.535 76.0186 238.574 76.0186Z" fill="#D1EAFF"/>
<path d="M238.574 76.0186H89.1698C86.2089 76.0186 83.8086 78.414 83.8086 81.369V185.949C83.8086 188.904 86.2089 191.3 89.1698 191.3H238.574C241.535 191.3 243.935 188.904 243.935 185.949V81.369C243.935 78.414 241.535 76.0186 238.574 76.0186Z" stroke="#4C4C4C" stroke-miterlimit="10"/>
<path d="M178.419 134.581H150.115C147.84 134.581 145.936 136.323 145.733 138.583L140.012 203.484H188.51L182.789 138.583C182.586 136.323 180.694 134.581 178.407 134.581H178.419Z" fill="#BDD4E7" stroke="#4C4C4C" stroke-miterlimit="10"/>
<path d="M94.8689 135.626H72.3203V203.787H94.8689V135.626Z" fill="#114875" stroke="#4C4C4C" stroke-miterlimit="10"/>
<path d="M83.5954 193.435C85.0386 193.435 86.2085 192.268 86.2085 190.827C86.2085 189.387 85.0386 188.22 83.5954 188.22C82.1523 188.22 80.9824 189.387 80.9824 190.827C80.9824 192.268 82.1523 193.435 83.5954 193.435Z" fill="#4C4C4C" stroke="#4C4C4C" stroke-miterlimit="10"/>
<path d="M72.3201 135.626H49.7715V203.787H72.3201V135.626Z" fill="#3577AC" stroke="#4C4C4C" stroke-miterlimit="10"/>
<path d="M61.0466 193.435C62.4898 193.435 63.6596 192.268 63.6596 190.827C63.6596 189.387 62.4898 188.22 61.0466 188.22C59.6035 188.22 58.4336 189.387 58.4336 190.827C58.4336 192.268 59.6035 193.435 61.0466 193.435Z" fill="#4C4C4C" stroke="#4C4C4C" stroke-miterlimit="10"/>
<path d="M49.5018 135.626H26.9531V203.787H49.5018V135.626Z" fill="#D1EAFF" stroke="#4C4C4C" stroke-miterlimit="10"/>
<path d="M38.2283 193.435C39.6714 193.435 40.8413 192.268 40.8413 190.827C40.8413 189.387 39.6714 188.22 38.2283 188.22C36.7851 188.22 35.6152 189.387 35.6152 190.827C35.6152 192.268 36.7851 193.435 38.2283 193.435Z" fill="#4C4C4C" stroke="#4C4C4C" stroke-miterlimit="10"/>
<path d="M380.554 163.02H374.945V182.263H380.554V163.02Z" fill="#3577AC" stroke="#4C4C4C" stroke-linecap="round" stroke-linejoin="round"/>
<path d="M374.945 163.019H380.554L377.75 158.512L374.945 163.019Z" fill="#FFB37D" stroke="#4C4C4C" stroke-linecap="round" stroke-linejoin="round"/>
<path d="M361.006 162.883L358.271 163.504L365.201 193.92L367.936 193.299L361.006 162.883Z" fill="#062A47" stroke="#4C4C4C" stroke-linecap="round" stroke-linejoin="round"/>
<path d="M358.266 163.525L361.003 162.906L358.525 158.32L358.266 163.525Z" fill="#FFB37D" stroke="#4C4C4C" stroke-linecap="round" stroke-linejoin="round"/>
<path d="M372.891 167.785L370.104 168.092L373.528 199.096L376.315 198.789L372.891 167.785Z" fill="#D1EAFF" stroke="#4C4C4C" stroke-linejoin="round"/>
<path d="M370.115 168.066L372.897 167.751L370.96 162.918L370.115 168.066Z" fill="#FFB37D" stroke="#4C4C4C" stroke-linejoin="round"/>
<path d="M382.854 173.495H359.73V203.833H382.854V173.495Z" fill="#D6D7D9" stroke="#4C4C4C" stroke-miterlimit="10"/>
<path d="M391.233 197.347L405.672 145.281L380.758 108.941L377.729 111.01L401.685 145.945L387.696 196.369L391.233 197.347Z" fill="#4C4C4C" stroke="#4C4C4C" stroke-miterlimit="10"/>
<path d="M368.83 203.664C368.83 199.606 377.559 196.324 388.315 196.324C399.071 196.324 407.8 199.606 407.8 203.664H368.83Z" fill="#3577AC" stroke="#4C4C4C" stroke-miterlimit="10"/>
<path d="M397.562 146.147C397.562 149.092 399.962 151.486 402.912 151.486C405.863 151.486 408.262 149.092 408.262 146.147C408.262 143.202 405.863 140.808 402.912 140.808C399.962 140.808 397.562 143.202 397.562 146.147Z" fill="#4C4C4C" stroke="#4C4C4C" stroke-miterlimit="10"/>
<path d="M399.781 146.146C399.781 147.866 401.178 149.271 402.912 149.271C404.647 149.271 406.044 147.877 406.044 146.146C406.044 144.415 404.647 143.021 402.912 143.021C401.178 143.021 399.781 144.415 399.781 146.146Z" fill="#D6D7D9" stroke="#4C4C4C" stroke-miterlimit="10"/>
<path d="M376.152 86.0786L367.13 92.1934L341.326 99.7244L362.703 131.141L379.238 109.976L388.259 103.861L376.152 86.0674V86.0786ZM373.606 92.0585C373.381 91.7213 373.471 91.2492 373.809 91.0244L375.994 89.5519C376.332 89.3271 376.805 89.417 377.03 89.7542C377.255 90.0914 377.165 90.5635 376.827 90.7883L374.642 92.2608C374.304 92.4856 373.831 92.3957 373.606 92.0585ZM375.498 94.981C375.273 94.6438 375.363 94.1717 375.701 93.9469L377.886 92.4744C378.224 92.2496 378.697 92.3395 378.922 92.6767C379.148 93.0139 379.057 93.486 378.72 93.7108L376.534 95.1833C376.197 95.4081 375.724 95.3182 375.498 94.981ZM378.731 98.0946C378.393 98.3194 377.92 98.2294 377.695 97.8922C377.469 97.555 377.559 97.0829 377.897 96.8581L380.082 95.3856C380.42 95.1608 380.893 95.2507 381.119 95.588C381.344 95.9252 381.254 96.3973 380.916 96.6221L378.731 98.0946ZM379.576 100.815C379.35 100.478 379.44 100.005 379.778 99.7806L381.963 98.3081C382.301 98.0833 382.774 98.1732 382.999 98.5104C383.225 98.8477 383.135 99.3198 382.797 99.5446L380.612 101.017C380.274 101.242 379.801 101.152 379.576 100.815ZM382.493 103.94C382.155 104.164 381.682 104.074 381.456 103.737C381.231 103.4 381.321 102.928 381.659 102.703L383.844 101.231C384.182 101.006 384.655 101.096 384.88 101.433C385.106 101.77 385.016 102.242 384.678 102.467L382.493 103.94Z" fill="#3577AC" stroke="#4C4C4C" stroke-miterlimit="10"/>
</svg>
