<svg width="479" height="329" viewBox="0 0 479 329" fill="none" xmlns="http://www.w3.org/2000/svg">
<g clip-path="url(#clip0_2754_110655)">
<path d="M90.5706 300.513H10.7031" stroke="#303030" stroke-width="1.5" stroke-linecap="round" stroke-linejoin="round"/>
<path d="M3.3197 300.513H0.851562" stroke="#303030" stroke-width="1.5" stroke-linecap="round" stroke-linejoin="round"/>
<path d="M80.059 286.98H35.4961" stroke="#303030" stroke-width="1.5" stroke-linecap="round" stroke-linejoin="round"/>
<path d="M73.3017 273.436H60.0625" stroke="#303030" stroke-width="1.5" stroke-linecap="round" stroke-linejoin="round"/>
<path d="M361.336 300.513H281.469" stroke="#303030" stroke-width="1.5" stroke-linecap="round" stroke-linejoin="round"/>
<path d="M274.074 300.513H271.617" stroke="#303030" stroke-width="1.5" stroke-linecap="round" stroke-linejoin="round"/>
<path d="M350.825 286.98H306.262" stroke="#303030" stroke-width="1.5" stroke-linecap="round" stroke-linejoin="round"/>
<path d="M182.372 295.244C204.649 272.833 204.523 236.625 182.089 214.37C159.656 192.115 123.411 192.242 101.134 214.652C78.8562 237.063 78.9827 273.272 101.416 295.526C123.849 317.781 160.095 317.655 182.372 295.244Z" fill="#062B6B" stroke="#303030" stroke-width="1.5" stroke-linecap="round" stroke-linejoin="round"/>
<path d="M190.911 294.994C213.035 272.432 212.662 236.225 190.078 214.123C167.493 192.022 131.25 192.394 109.126 214.956C87.0015 237.518 87.3748 273.725 109.959 295.826C132.544 317.928 168.787 317.555 190.911 294.994Z" fill="#258BC0" stroke="#303030" stroke-width="1.5" stroke-linecap="round" stroke-linejoin="round"/>
<path d="M178.054 282.969C193.538 267.501 193.538 242.421 178.054 226.953C162.57 211.485 137.466 211.485 121.982 226.953C106.498 242.421 106.498 267.501 121.982 282.969C137.466 298.437 162.57 298.437 178.054 282.969Z" fill="#062B6B" stroke="#303030" stroke-width="1.5" stroke-linecap="round" stroke-linejoin="round"/>
<path d="M163.108 267.426C170.006 260.21 169.742 248.774 162.519 241.883C155.296 234.992 143.848 235.256 136.951 242.471C130.053 249.687 130.317 261.123 137.54 268.014C144.763 274.905 156.21 274.642 163.108 267.426Z" fill="#D1EAFF"/>
<path d="M157.305 254.96C157.305 258.971 154.04 262.232 150.025 262.232C146.01 262.232 142.746 258.971 142.746 254.96C142.746 250.949 146.01 247.688 150.025 247.688C154.04 247.688 157.305 250.949 157.305 254.96Z" fill="#062B6B"/>
<path d="M152.616 265.937C138.592 269.743 131.983 249.95 145.018 243.962C151.524 240.894 160.066 245.2 161.021 252.37C158.348 243.382 145.973 241.496 141.151 249.473C136.146 257.335 143.369 267.573 152.616 265.937Z" fill="#062B6B"/>
<path d="M148.09 258.562C148.477 258.903 148.863 259.176 149.307 259.415C150.569 260.085 152.003 260.267 153.379 259.983C171.611 256.063 200.592 244.268 210.453 240.121L206.756 213.113C185.396 232.213 160.01 244.689 149.887 248.484V248.507C149.068 248.836 148.283 249.336 147.635 250.052C145.417 252.518 145.622 256.335 148.101 258.562H148.09Z" fill="white" stroke="#303030" stroke-width="1.5" stroke-linecap="round" stroke-linejoin="round"/>
<path d="M154.141 254.268C154.141 255.54 153.106 256.586 151.82 256.586C150.535 256.586 149.5 255.552 149.5 254.268C149.5 252.984 150.535 251.95 151.82 251.95C153.106 251.95 154.141 252.984 154.141 254.268Z" fill="#303030"/>
<path d="M453.517 295.006C475.641 272.444 475.268 236.237 452.683 214.136C430.099 192.034 393.855 192.407 371.731 214.968C349.607 237.53 349.98 273.737 372.565 295.839C395.149 317.94 431.393 317.567 453.517 295.006Z" fill="#062B6B" stroke="#303030" stroke-width="1.5" stroke-linecap="round" stroke-linejoin="round"/>
<path d="M461.497 295.229C483.774 272.819 483.648 236.61 461.214 214.355C438.781 192.101 402.536 192.227 380.258 214.638C357.981 237.048 358.108 273.257 380.541 295.512C402.974 317.767 439.22 317.64 461.497 295.229Z" fill="#258BC0" stroke="#303030" stroke-width="1.5" stroke-linecap="round" stroke-linejoin="round"/>
<path d="M448.642 283.234C464.28 267.92 464.529 242.842 449.2 227.221C433.871 211.599 408.768 211.35 393.13 226.664C377.493 241.977 377.243 267.055 392.572 282.677C407.902 298.298 433.005 298.548 448.642 283.234Z" fill="#062B6B" stroke="#303030" stroke-width="1.5" stroke-linecap="round" stroke-linejoin="round"/>
<path d="M433.806 267.58C440.792 260.45 440.67 249.012 433.533 242.032C426.396 235.052 414.946 235.174 407.959 242.304C400.973 249.434 401.094 260.872 408.232 267.852C415.369 274.832 426.819 274.71 433.806 267.58Z" fill="#D1EAFF"/>
<path d="M428.172 254.96C428.172 258.971 424.908 262.232 420.893 262.232C416.878 262.232 413.613 258.971 413.613 254.96C413.613 250.949 416.878 247.688 420.893 247.688C424.908 247.688 428.172 250.949 428.172 254.96Z" fill="#062B6B"/>
<path d="M423.483 265.937C409.459 269.743 402.851 249.95 415.885 243.962C422.391 240.894 430.933 245.2 431.888 252.37C429.215 243.382 416.841 241.496 412.018 249.473C407.013 257.335 414.236 267.573 423.483 265.937Z" fill="#062B6B"/>
<path d="M421.813 260.131C421.312 260.244 420.835 260.312 420.346 260.312C418.912 260.312 417.559 259.801 416.49 258.903C402.238 246.882 382.197 222.873 375.441 214.59L391.41 192.49C401.294 219.385 417.832 242.303 424.986 250.404L424.963 250.427C425.543 251.097 425.998 251.916 426.237 252.847C427.033 256.063 425.066 259.347 421.824 260.131H421.813Z" fill="white" stroke="#303030" stroke-width="1.5" stroke-linecap="round" stroke-linejoin="round"/>
<path d="M422.687 254.268C422.687 255.54 421.652 256.586 420.367 256.586C419.082 256.586 418.047 255.552 418.047 254.268C418.047 252.984 419.082 251.95 420.367 251.95C421.652 251.95 422.687 252.984 422.687 254.268Z" fill="#303030"/>
<path d="M364.182 227.964C367.173 230.668 371.848 230.225 374.248 226.987C383.495 214.488 397.644 205.319 415 205.319C429.752 205.319 438.669 207.989 442.65 209.568C444.356 210.238 446.256 210.193 447.939 209.432L455.378 206.091C459.7 204.148 460.792 198.524 457.504 195.115C450.953 188.343 439.011 179.446 421.893 180.162C398.69 181.117 383.881 187.048 370.801 205.5C367.321 210.409 364.614 215.34 362.533 220.135C361.361 222.839 362.009 225.975 364.193 227.964H364.182Z" fill="#156BA8"/>
<path d="M402.261 182.787C389.522 186.094 379.741 192.854 370.778 205.512C367.297 210.42 364.59 215.352 362.509 220.147C361.338 222.851 361.986 225.987 364.17 227.975C364.989 228.714 365.921 229.191 366.911 229.475L402.249 182.787H402.261Z" fill="#062B6B"/>
<path d="M423.371 185.991C432.937 184.912 446.744 190.991 453.648 198.831" stroke="white" stroke-width="1.5" stroke-linecap="round" stroke-linejoin="round"/>
<path d="M357.787 99.6708L354.477 92.4557C353.317 89.9219 350.337 88.7857 347.778 89.8878L336.086 94.91C333.481 96.0349 332.287 99.0459 333.402 101.648L337.803 111.885L390.851 113.351V104.602C390.851 104.602 382.264 99.7276 357.799 99.6936L357.787 99.6708Z" fill="#062B6B" stroke="#303030" stroke-width="1.5" stroke-linecap="round" stroke-linejoin="round"/>
<path d="M362.18 93.6147L360.246 103.33C364.875 103.409 369.277 103.92 373.428 104.943L376.317 93.9556C371.358 93.9897 366.308 94.1488 362.18 93.6147Z" fill="#062B6B"/>
<path d="M337.491 74.8992L332.879 76.897L341.625 97.048L346.237 95.0502L337.491 74.8992Z" fill="#062B6B" stroke="#303030" stroke-width="1.5" stroke-linecap="round" stroke-linejoin="round"/>
<path d="M108.302 164.607L95.8251 158.392L90.5703 174.595L97.6676 175.64L108.302 164.607Z" fill="#303030" stroke="#303030" stroke-width="1.5" stroke-linecap="round" stroke-linejoin="round"/>
<path d="M85.6 167.198L87.5108 161.335C88.4662 158.392 91.685 156.847 94.5854 157.926L95.8479 158.392L90.5818 174.595L88.8757 173.958C86.1459 172.947 84.7128 169.959 85.6114 167.198H85.6Z" fill="#FF4C51" stroke="#303030" stroke-width="1.5" stroke-linecap="round" stroke-linejoin="round"/>
<path d="M314.204 234.747H237.316V241.178H314.204V234.747Z" fill="#303030" stroke="#303030" stroke-width="1.5" stroke-linecap="round" stroke-linejoin="round"/>
<path d="M215.534 241.178L196.574 210.647L239.613 180.128V241.178H215.534Z" fill="#303030" stroke="#303030" stroke-width="1.5" stroke-linecap="round" stroke-linejoin="round"/>
<path d="M421.174 172.64L404.307 171.277C398.165 170.777 393.434 165.664 393.434 159.506C393.434 153.358 398.165 148.234 404.307 147.734L421.174 146.371C427.214 155.12 427.214 163.869 421.174 172.629V172.64Z" fill="#062B6B"/>
<path d="M419.401 169.823C424.144 162.949 424.144 156.074 419.401 149.211C416.33 156.086 416.33 162.96 419.401 169.823Z" fill="white"/>
<path d="M97.1756 200.23L97.7521 200.636C98.6541 201.271 98.8713 202.521 98.236 203.422L74.6109 236.929C73.9755 237.83 72.7235 238.047 71.8215 237.412L71.245 237.007C70.343 236.372 70.1259 235.121 70.7612 234.22L94.3863 200.714C95.0216 199.812 96.2737 199.596 97.1756 200.23Z" fill="#062B6B" stroke="#303030" stroke-width="1.5" stroke-linecap="round" stroke-linejoin="round"/>
<path d="M137.693 166.209C137.215 166.209 136.726 166.005 136.397 165.619L100.557 123.964C99.9432 123.248 100.023 122.169 100.739 121.544C101.456 120.93 102.536 121.01 103.162 121.726L139.001 163.38C139.615 164.096 139.536 165.175 138.819 165.8C138.501 166.073 138.103 166.209 137.705 166.209H137.693Z" fill="#062B6B" stroke="#303030" stroke-width="1.5" stroke-linecap="round" stroke-linejoin="round"/>
<path d="M115.717 166.209C115.239 166.209 114.75 166.005 114.42 165.619L78.5808 123.964C77.9666 123.248 78.0463 122.169 78.7628 121.544C79.4794 120.93 80.5599 121.01 81.1854 121.726L117.025 163.38C117.639 164.096 117.559 165.175 116.843 165.8C116.524 166.073 116.126 166.209 115.728 166.209H115.717Z" fill="#062B6B" stroke="#303030" stroke-width="1.5" stroke-linecap="round" stroke-linejoin="round"/>
<path d="M54.0505 119.998H127.094C128.663 119.998 129.937 121.271 129.937 122.839C129.937 124.407 128.663 125.679 127.094 125.679H54.0505C52.4809 125.679 51.207 124.407 51.207 122.839C51.207 121.271 52.4809 119.998 54.0505 119.998Z" fill="#062B6B" stroke="#303030" stroke-width="1.5" stroke-linecap="round" stroke-linejoin="round"/>
<path d="M132.155 119.998H33.3272C29.3236 119.998 26.082 117.317 26.082 113.999V44.6087C26.082 41.3023 29.335 38.6094 33.3386 38.6094H132.166C136.17 38.6094 139.411 41.2909 139.411 44.6087V113.999C139.411 117.305 136.159 119.998 132.155 119.998Z" fill="#156BA8" stroke="#303030" stroke-width="1.5" stroke-linecap="round" stroke-linejoin="round"/>
<path d="M122.178 37.4503H42.0721C38.8305 37.4503 36.2031 34.7687 36.2031 31.4509V8.74886C36.2031 5.4424 38.8419 2.74951 42.0834 2.74951H122.19C125.431 2.74951 128.059 5.43104 128.059 8.74886V31.4623C128.059 34.7687 125.42 37.4616 122.178 37.4616V37.4503Z" fill="#258BC0" stroke="#303030" stroke-width="1.5" stroke-linecap="round" stroke-linejoin="round"/>
<path d="M96.4414 0.852051H100.82C103.766 0.852051 106.166 3.23815 106.166 6.19238V120.884" stroke="white" stroke-width="1.5" stroke-linecap="round" stroke-linejoin="round"/>
<path d="M89.4219 0.852051H93.8008C96.7467 0.852051 99.1465 3.23815 99.1465 6.19238V120.884" stroke="white" stroke-width="1.5" stroke-linecap="round" stroke-linejoin="round"/>
<path d="M422.176 135.713L350.304 250.416C342.047 263.596 327.522 271.55 311.951 271.414L224.827 270.652C219.675 270.584 215.523 266.392 215.523 261.244V241.178H298.018C303.626 241.178 308.641 237.713 310.643 232.486L340.238 154.722C341.819 150.563 341.83 145.961 340.272 141.791L334.13 125.43C332.47 120.998 332.709 115.976 335.154 111.92C336.496 109.693 338.532 107.602 341.626 106.318C350.93 102.489 363.782 102.841 373.359 104.58C382.936 106.318 386.757 108.5 387.588 106.591C388.407 104.682 382.185 101.534 377.533 100.444L378.568 98.3984C378.568 98.3984 391.694 100.853 406.195 110.965C414.885 117.021 419.742 123.373 422.233 127.498C423.768 130.031 423.768 133.201 422.198 135.724L422.176 135.713Z" fill="white" stroke="#303030" stroke-width="1.5" stroke-linecap="round" stroke-linejoin="round"/>
<path d="M406.183 110.965C391.682 100.853 376.543 96.876 376.543 96.876L375.952 99.2734C380.603 100.364 389.839 104.227 387.587 106.591C386.154 108.091 382.935 106.318 373.358 104.58C363.781 102.841 350.929 102.489 341.625 106.318C338.52 107.591 336.484 109.693 335.153 111.92C334.88 112.386 334.642 112.852 334.414 113.34C352.464 121.294 367.887 128.884 381.24 144.768C391.659 157.165 399.234 168.823 392.717 182.73L422.175 135.724C423.756 133.213 423.756 130.031 422.209 127.498C419.707 123.373 414.85 117.033 406.172 110.977L406.183 110.965Z" fill="#258BC0" stroke="#303030" stroke-width="1.5" stroke-linecap="round" stroke-linejoin="round"/>
<path d="M368.23 107.216C378.285 111.034 389.318 118.396 399.929 129.577C413.089 125.305 418.037 121.692 418.037 121.692" stroke="#303030" stroke-width="1.5" stroke-linecap="round" stroke-linejoin="round"/>
<path d="M350.371 111.863C350.371 112.749 349.655 113.465 348.768 113.465C347.881 113.465 347.164 112.749 347.164 111.863C347.164 110.977 347.881 110.261 348.768 110.261C349.655 110.261 350.371 110.977 350.371 111.863Z" fill="#303030" stroke="#303030" stroke-width="1.5" stroke-linecap="round" stroke-linejoin="round"/>
<path d="M359.903 111.863C359.903 112.749 359.186 113.465 358.299 113.465C357.412 113.465 356.695 112.749 356.695 111.863C356.695 110.977 357.412 110.261 358.299 110.261C359.186 110.261 359.903 110.977 359.903 111.863Z" fill="#303030" stroke="#303030" stroke-width="1.5" stroke-linecap="round" stroke-linejoin="round"/>
<path d="M367.344 146.393C381.254 166.209 376.522 177.651 369.334 185.866C358.893 197.797 340.934 215.363 340.934 215.363" stroke="#303030" stroke-width="1.5" stroke-linecap="round" stroke-linejoin="round"/>
<path d="M419.105 131.066C416.603 126.941 411.746 120.601 403.068 114.545C399.735 112.227 396.482 110.306 393.445 108.727" stroke="white" stroke-width="1.5" stroke-linecap="round" stroke-linejoin="round"/>
<path d="M73.636 202.546L156.529 234.156C159.327 235.224 162.477 234.827 164.923 233.088L239.615 180.117C243.198 177.572 245.12 173.277 244.631 168.914L244.46 167.391C243.846 161.948 239.638 157.597 234.213 156.801L151.923 144.666C141.845 143.178 131.586 145.746 123.397 151.802L81.0632 183.128C79.8007 184.06 79.721 185.923 80.9039 186.957L83.4858 189.229L72.8967 197.07C70.8949 198.547 71.3271 201.66 73.6474 202.546H73.636Z" fill="white" stroke="#303030" stroke-width="1.5" stroke-linecap="round" stroke-linejoin="round"/>
<path d="M87.125 196.115L163.398 225.192" stroke="#303030" stroke-width="1.5" stroke-linecap="round" stroke-linejoin="round"/>
<path d="M244.459 167.391C243.844 161.948 239.636 157.597 234.211 156.801L151.921 144.666C141.843 143.178 131.584 145.746 123.395 151.802L81.0613 183.128C79.7988 184.06 79.7192 185.923 80.9021 186.957L83.484 189.229L121.746 160.926C124.419 158.949 127.569 157.722 130.868 157.369C133.722 157.063 136.589 157.426 139.284 158.415C148.531 161.823 171.097 170.163 181.948 174.208C210.894 185.003 208.927 201.876 193.106 213.091L239.625 180.105C243.219 177.56 245.13 173.265 244.641 168.902L244.47 167.38L244.459 167.391Z" fill="#258BC0" stroke="#303030" stroke-width="1.5" stroke-linecap="round" stroke-linejoin="round"/>
<path d="M128.835 141.257L246.953 158.676C250.729 159.233 254.118 156.313 254.118 152.506V135.088C254.118 131.645 251.32 128.85 247.874 128.85H129.756C126.31 128.85 123.512 131.645 123.512 135.088C123.512 138.178 125.786 140.814 128.846 141.257H128.835Z" fill="#062B6B" stroke="#303030" stroke-width="1.5" stroke-linecap="round" stroke-linejoin="round"/>
<path d="M147.668 151.143L231.676 163.528" stroke="white" stroke-width="1.5" stroke-linecap="round" stroke-linejoin="round"/>
<path d="M183.246 167.22C205.095 170.993 224.522 174.219 228.833 175.299C233.143 176.378 236.84 182.071 228.833 187.695" stroke="#303030" stroke-width="1.5" stroke-linecap="round" stroke-linejoin="round"/>
<path d="M363.955 56.1075C349.351 56.7665 337.021 60.5274 337.169 76.3325C337.317 92.1263 353.787 93.6261 366.901 93.8988C383.427 94.251 393.095 92.9784 398.509 87.9449C404.434 82.4455 400.181 68.4016 391.639 62.2545C384.701 57.2664 375.75 55.5734 363.955 56.1075Z" fill="#258BC0" stroke="#303030" stroke-width="1.5" stroke-linecap="round" stroke-linejoin="round"/>
<path d="M383.791 58.2549C383.097 58.5503 382.471 58.9366 381.96 59.4593C380.515 60.9137 380.333 63.2657 380.913 65.2314C382.96 72.1284 390.638 78.1959 389.193 85.9337C388.625 89.0129 386.27 91.5354 383.541 93.0693C383.268 93.2284 382.983 93.3647 382.71 93.501C390.069 92.7738 395.119 91.0922 398.509 87.9448C404.434 82.4454 400.181 68.4015 391.639 62.2544C389.273 60.5501 386.657 59.2434 383.779 58.2662L383.791 58.2549Z" fill="white" stroke="#303030" stroke-width="1.5" stroke-linecap="round" stroke-linejoin="round"/>
<path d="M345.961 65.3335C354.071 60.9476 363.647 59.3455 372.746 60.8567C373.167 60.9249 373.611 61.0158 373.895 61.3226C374.191 61.6294 374.339 62.0725 374.339 62.5043C374.339 70.2989 377.057 71.9351 381.015 78.0935C383.21 81.5136 383.21 84.7518 380.606 87.297" stroke="#303030" stroke-width="1.5" stroke-linecap="round" stroke-linejoin="round"/>
<path d="M215.536 254.268C222.773 254.268 228.639 248.407 228.639 241.178C228.639 233.949 222.773 228.089 215.536 228.089C208.3 228.089 202.434 233.949 202.434 241.178C202.434 248.407 208.3 254.268 215.536 254.268Z" fill="white" stroke="#303030" stroke-width="1.5" stroke-linecap="round" stroke-linejoin="round"/>
<path d="M221.984 241.178C221.984 244.735 219.095 247.621 215.535 247.621C211.975 247.621 209.086 244.735 209.086 241.178C209.086 237.622 211.975 234.736 215.535 234.736C219.095 234.736 221.984 237.622 221.984 241.178Z" fill="#F55571" stroke="#F55571" stroke-width="1.5" stroke-linecap="round" stroke-linejoin="round"/>
<path d="M125.262 159.982C131.028 159.982 135.703 155.312 135.703 149.552C135.703 143.791 131.028 139.121 125.262 139.121C119.495 139.121 114.82 143.791 114.82 149.552C114.82 155.312 119.495 159.982 125.262 159.982Z" fill="white" stroke="#303030" stroke-width="1.5" stroke-linecap="round" stroke-linejoin="round"/>
<path d="M130.403 149.552C130.403 152.392 128.106 154.688 125.262 154.688C122.419 154.688 120.121 152.392 120.121 149.552C120.121 146.711 122.419 144.416 125.262 144.416C128.106 144.416 130.403 146.711 130.403 149.552Z" fill="#258BC0" stroke="#062B6B" stroke-width="1.5" stroke-linecap="round" stroke-linejoin="round"/>
<path d="M320.957 79.355V72.4126H344.831C346.457 72.4126 347.788 73.7306 347.788 75.3668V76.4008C347.788 78.0256 346.469 79.355 344.831 79.355H320.957Z" fill="#062B6B" stroke="#303030" stroke-width="1.5" stroke-linecap="round" stroke-linejoin="round"/>
<path d="M320.594 66.6064H319.889C318.796 66.6064 317.91 67.4916 317.91 68.5835V83.1728C317.91 84.2647 318.796 85.1499 319.889 85.1499H320.594C321.687 85.1499 322.573 84.2647 322.573 83.1728V68.5835C322.573 67.4916 321.687 66.6064 320.594 66.6064Z" fill="#156BA8"/>
<path d="M293.308 70.856H317.91V80.9117H293.308C292.091 80.9117 291.113 79.9345 291.113 78.7187V73.0489C291.113 71.8331 292.091 70.856 293.308 70.856Z" fill="#156BA8"/>
<path d="M317.91 70.856V80.9003" stroke="#303030" stroke-width="1.5" stroke-linecap="round" stroke-linejoin="round"/>
<path d="M334.371 50.2559C338.42 56.2098 336.668 63.584 331.004 74.8895" stroke="#303030" stroke-width="1.5" stroke-linecap="round" stroke-linejoin="round"/>
<path d="M328.649 40.9728C328.421 41.3591 328.239 41.7455 328.08 42.1204C326.977 44.7111 326.169 47.688 325.828 50.4945C325.305 54.6872 327.75 58.1528 331.515 54.4373C334.654 51.3467 343.276 37.2573 335.121 36.5642C332.414 36.337 329.991 38.6663 328.66 40.9728H328.649Z" fill="#303030" stroke="#303030" stroke-width="1.5" stroke-linecap="round" stroke-linejoin="round"/>
</g>
<g clip-path="url(#clip1_2754_110655)">
<path d="M246.203 173.337C247.86 172.94 249.441 172.283 251.117 171.912C251.072 171.953 251.029 171.995 250.984 172.036C250.301 172.653 248.653 173.538 247.806 174.105C244.07 176.585 240.306 179.023 236.517 181.421C233.744 183.201 231.034 185.073 228.287 186.893L211.629 197.767C209.438 199.151 207.257 200.552 205.087 201.968C203.428 203.041 201.541 204.062 200.157 205.493C198.656 207.044 197.899 208.936 197.734 211.081C197.559 213.352 198.098 215.628 199.028 217.689C200.477 220.897 202.346 224 203.995 227.116C205.568 230.091 207.083 233.091 208.695 236.047C211.142 240.474 213.64 244.871 216.19 249.238L236.743 285.276C241.552 293.732 246.254 302.253 251.231 310.609C252.644 312.982 253.841 315.777 255.652 317.868C257.389 319.875 260.194 321.702 262.897 321.878C263.531 321.919 264.529 321.793 265.073 322.096C262.357 323.017 259.93 322.884 257.294 321.82C255.962 321.101 254.684 320.136 253.821 318.867C252.745 317.285 251.844 315.49 250.883 313.828L244.27 302.311L217.875 256.269L202.73 229.785L198.799 222.816C197.957 221.327 197.034 219.86 196.35 218.288C196.261 218.082 196.176 217.874 196.097 217.664C196.017 217.454 195.943 217.242 195.874 217.028C195.805 216.814 195.741 216.599 195.683 216.382C195.625 216.165 195.572 215.947 195.524 215.727C195.477 215.508 195.435 215.287 195.398 215.066C195.361 214.844 195.33 214.621 195.304 214.398C195.279 214.174 195.259 213.951 195.244 213.727C195.229 213.502 195.22 213.278 195.216 213.053C195.213 212.828 195.215 212.604 195.222 212.379C195.23 212.154 195.243 211.93 195.261 211.706C195.279 211.482 195.304 211.259 195.333 211.036C195.363 210.813 195.398 210.591 195.438 210.37C195.479 210.149 195.524 209.929 195.576 209.71C195.627 209.491 195.683 209.274 195.746 209.058C195.808 208.842 195.875 208.628 195.948 208.416C196.02 208.203 196.098 207.992 196.181 207.784C196.276 207.535 196.378 207.29 196.489 207.048C196.599 206.807 196.717 206.568 196.843 206.334C196.968 206.1 197.101 205.869 197.241 205.643C197.381 205.418 197.528 205.196 197.683 204.98C197.837 204.764 197.997 204.553 198.165 204.346C198.333 204.14 198.506 203.939 198.686 203.744C198.867 203.549 199.053 203.36 199.245 203.177C199.437 202.994 199.635 202.817 199.838 202.646C201.065 201.636 202.473 200.804 203.807 199.942L210.08 195.922L231.88 182.285L241.403 176.313C242.942 175.337 244.542 174.062 246.203 173.336V173.337Z" fill="white"/>
<path d="M254.517 325.502C252.836 324.218 251.642 322.924 250.52 321.136C248.699 318.234 247.075 315.188 245.341 312.232C241.092 305.069 236.914 297.865 232.808 290.618L209.33 249.826L197.137 228.628C195.524 225.762 193.469 222.77 192.259 219.724C190.861 216.206 190.654 212.247 191.505 208.573C191.557 208.354 191.613 208.136 191.674 207.919C191.733 207.702 191.797 207.487 191.865 207.272C191.932 207.057 192.004 206.843 192.079 206.631C192.154 206.419 192.234 206.209 192.316 206C192.399 205.791 192.486 205.583 192.576 205.377C192.666 205.171 192.76 204.966 192.858 204.764C192.955 204.561 193.057 204.36 193.162 204.161C193.267 203.963 193.375 203.765 193.487 203.57C193.599 203.376 193.714 203.182 193.834 202.991C193.952 202.8 194.075 202.612 194.2 202.425C194.326 202.239 194.454 202.055 194.587 201.873C194.719 201.691 194.854 201.512 194.993 201.336C195.132 201.159 195.274 200.984 195.418 200.813C195.563 200.641 195.711 200.472 195.862 200.306C196.013 200.139 196.167 199.976 196.324 199.815C196.481 199.654 196.641 199.497 196.804 199.342C198.904 197.363 201.526 195.942 203.963 194.424L212.225 189.252L248.099 166.861C252.255 164.242 256.63 163.349 261.466 164.483C264.696 165.24 267.748 167.194 270.71 168.66L284.147 175.276L293.089 179.686C294.606 180.439 296.279 181.123 297.692 182.047C299.333 183.119 300.611 184.491 301.636 186.158C303.19 188.689 304.613 191.323 306.092 193.9L314.049 207.758L332.706 240.344L342.209 256.894L344.747 261.353C345.548 262.75 346.427 264.145 347.007 265.652C348.12 268.539 348.285 271.956 347.57 274.96C347.523 275.157 347.474 275.354 347.421 275.549C347.367 275.744 347.31 275.939 347.249 276.132C347.188 276.324 347.124 276.516 347.056 276.707C346.988 276.898 346.916 277.087 346.841 277.275C346.766 277.463 346.687 277.649 346.606 277.835C346.523 278.02 346.438 278.203 346.349 278.385C346.26 278.566 346.168 278.746 346.072 278.924C345.975 279.103 345.876 279.279 345.774 279.453C345.672 279.628 345.566 279.8 345.457 279.97C345.348 280.141 345.236 280.309 345.121 280.475C345.006 280.642 344.887 280.805 344.766 280.967C344.644 281.128 344.52 281.288 344.392 281.445C344.265 281.602 344.134 281.756 344.001 281.908C343.868 282.06 343.732 282.209 343.593 282.356C343.454 282.503 343.313 282.647 343.168 282.789C343.024 282.931 342.877 283.069 342.727 283.205C341.086 284.674 339.057 285.757 337.194 286.919L327.312 293.049C320.931 297.094 314.441 300.933 308.017 304.905L277.696 323.772C274.693 325.599 271.829 327.813 268.368 328.677C266.103 329.186 263.734 329.016 261.457 328.704C258.856 328.017 256.732 327.03 254.518 325.503L254.517 325.502Z" fill="#062B6B"/>
<path d="M246.205 173.337C246.869 172.697 247.744 172.199 248.515 171.696C251.273 169.898 253.822 168.564 257.192 168.621C258.877 168.649 260.435 168.94 262.007 169.553C263.816 170.259 265.566 171.235 267.312 172.09C270.811 173.794 274.296 175.528 277.766 177.292C283.224 180.036 289.028 182.615 294.337 185.584C295.215 186.075 296.433 186.747 297.099 187.503C298.199 188.751 299.028 190.449 299.852 191.89C301.126 194.106 302.381 196.334 303.617 198.573C306.455 203.672 309.407 208.73 312.312 213.793C319.57 226.226 326.715 238.725 333.747 251.289L339.884 262.109C340.823 263.793 341.844 265.444 342.656 267.194C343.746 269.541 343.49 273.194 342.585 275.562C341.991 277.117 340.92 278.694 339.608 279.725C338.131 280.885 336.453 281.807 334.861 282.799C332.156 284.475 329.46 286.166 326.774 287.873L296.194 307.125C289.884 311.155 283.543 315.134 277.169 319.06L272.868 321.744C271.705 322.482 270.515 323.333 269.25 323.883C266.419 325.114 262.947 324.826 260.143 323.686C259.214 323.308 258.034 322.819 257.35 322.064L257.295 321.82C259.931 322.884 262.358 323.018 265.074 322.096C266.667 321.563 268.231 320.229 269.636 319.301C271.218 318.266 272.805 317.24 274.399 316.223L303.113 297.696L322.305 285.508C325.555 283.457 329.28 281.363 332.324 279.103C333.801 278.006 334.994 276.509 335.834 274.873C337.452 271.718 337.777 267.766 336.665 264.397C335.717 261.522 332.938 257.205 331.342 254.458L322.562 239.296L305.665 210.01L298.702 197.74C297.632 195.841 296.638 193.886 295.515 192.019C295.021 191.199 294.444 190.278 293.753 189.613C291.75 187.682 286.034 185.172 283.304 183.773L265.812 174.904C261.059 172.519 256.606 170.072 251.118 171.912C249.442 172.283 247.86 172.94 246.203 173.337H246.205Z" fill="#D1EAFF"/>
<path d="M272.18 307.157C269.464 307.995 268.671 307.755 266.034 306.787C264.702 306.133 262.934 306.216 262.071 305.062C260.995 303.624 260.093 301.991 259.133 300.48L261.182 300.427L234.787 258.556L224.293 239.31" fill="#FCC95C"/>
<path d="M298.057 290.864L272.934 307.157L298.057 290.864Z" fill="#FCC95C"/>
<path d="M282.444 196.975C285.525 196.989 288.496 198.032 290.763 200.162C292.765 202.043 294.023 204.9 295.377 207.26C296.805 209.712 298.222 212.171 299.625 214.639C304.316 222.712 308.959 230.813 313.555 238.941C316.793 244.542 320.131 250.089 323.311 255.723C324.393 257.641 325.632 259.515 326.593 261.496C326.783 261.895 326.952 262.303 327.1 262.719C327.249 263.135 327.375 263.558 327.48 263.988C327.584 264.417 327.666 264.851 327.726 265.289C327.786 265.727 327.823 266.168 327.837 266.61C327.923 269.573 326.828 272.645 324.778 274.798C323.213 276.442 320.853 277.568 318.929 278.765C315.718 280.779 312.49 282.763 309.245 284.72C304.463 287.626 299.738 290.673 295.031 293.7C290.066 296.894 285.195 300.234 280.235 303.437C278.554 304.523 276.919 305.814 275.163 306.763C273.472 307.675 271.793 308.025 269.889 308.08C266.653 307.945 263.861 306.829 261.417 304.681C260.492 303.867 259.753 302.975 259.086 301.939C258.085 300.388 257.204 298.742 256.282 297.143L251.596 289.025L238.932 267.029C235.565 261.156 232.057 255.363 228.72 249.474C227.682 247.641 226.48 245.858 225.551 243.97C225.372 243.605 225.211 243.232 225.069 242.852C224.927 242.471 224.803 242.084 224.699 241.691C224.595 241.298 224.51 240.901 224.445 240.5C224.38 240.098 224.334 239.695 224.309 239.289C224.144 236.365 225.268 233.09 227.219 230.909C228.88 229.052 231.305 227.792 233.385 226.456L239.813 222.305L262.607 207.575L271.678 201.683C273.341 200.596 274.981 199.387 276.738 198.462C278.563 197.501 280.399 197.092 282.445 196.975H282.444Z" fill="#040303"/>
<path d="M300.715 279.446C301.96 281.535 303.267 283.606 304.439 285.736C301.366 287.795 298.2 289.727 295.078 291.709C293.431 292.754 291.826 293.902 290.16 294.909C288.892 292.796 287.57 290.699 286.355 288.555C291.139 285.519 295.974 282.548 300.715 279.446H300.715Z" fill="#DC8906"/>
<path d="M284.904 289.671C286.154 291.747 287.386 293.834 288.602 295.931C285.118 298.179 281.654 300.457 278.209 302.764C276.646 303.79 274.76 305.363 273.013 305.95C271.456 306.473 269.657 306.478 268.065 306.131C266.254 305.736 264.414 304.863 263.004 303.647C265.489 301.691 268.329 300.067 270.999 298.371C275.611 295.433 280.246 292.534 284.904 289.671H284.904Z" fill="#DC8906"/>
<path d="M280.102 199.17C283.118 198.686 286.042 198.844 288.603 200.72C289.46 201.347 290.189 202.13 290.81 202.99C292.226 204.946 293.333 207.206 294.536 209.301C296.293 212.364 298.129 215.405 299.844 218.488C297.633 219.828 295.47 221.268 293.242 222.577C292.536 221.002 291.101 218.837 290.223 217.268L283.133 204.536C282.655 203.671 280.566 199.521 280.102 199.17Z" fill="#DC8906"/>
<path d="M300.732 220.046L308.119 232.93C309.644 235.596 311.137 238.273 312.756 240.883C310.302 242.18 308.048 243.82 305.644 245.197C304.778 243.087 303.389 241.079 302.284 239.08L293.996 224.235C296.19 222.807 298.435 221.293 300.732 220.047V220.046Z" fill="#DC8906"/>
<path d="M273.734 267.074L288.149 258.141C292.332 265.244 296.618 272.293 300.715 279.446C295.975 282.548 291.14 285.519 286.356 288.555L273.734 267.074Z" fill="#FCC95C"/>
<path d="M306.569 246.709C309.789 253.46 315.278 259.656 312.471 267.67C310.519 273.247 306.731 275.28 302.346 278.555C299.352 273.663 296.415 268.737 293.538 263.776C292.267 261.587 290.93 259.428 289.715 257.208C291.384 255.974 293.31 254.953 295.079 253.852L306.569 246.709Z" fill="#FCC95C"/>
<path d="M259.9 211.441C260.537 212.043 262.425 215.68 263.006 216.664C265.356 220.576 267.672 224.509 269.954 228.461C271.199 230.581 272.634 232.704 273.66 234.935C271.036 236.685 268.307 238.318 265.621 239.973C263.769 241.114 261.943 242.311 260.071 243.416C259.914 243.286 247.282 221.781 246.367 220.183L254.425 214.987C256.246 213.8 258.043 212.568 259.9 211.44V211.441Z" fill="#FCC95C"/>
<path d="M306.571 246.71C308.863 245.244 311.278 243.92 313.482 242.323C314.473 243.86 315.362 245.47 316.284 247.05C317.912 249.788 319.506 252.545 321.066 255.322C322.6 258.006 324.625 260.774 325.58 263.726C326.142 265.466 326.216 267.405 325.835 269.192C325.18 272.271 323.651 273.802 321.093 275.44C318.486 277.109 315.801 278.657 313.177 280.302C311.535 281.337 309.884 282.357 308.224 283.362C307.495 283.807 306.766 284.315 306.009 284.707L303.468 280.487C303.111 279.893 302.592 279.196 302.348 278.555C306.733 275.281 310.52 273.246 312.473 267.67C315.279 259.657 309.791 253.461 306.57 246.71H306.571Z" fill="#DC8906"/>
<path d="M261.461 210.434C264.84 208.157 268.298 205.986 271.725 203.782C273.589 202.584 275.435 201.205 277.395 200.179C278.276 199.717 279.13 199.379 280.102 199.17C280.566 199.522 282.656 203.672 283.134 204.536L290.224 217.268C291.102 218.838 292.536 221.002 293.243 222.577C291.962 223.443 290.606 224.23 289.298 225.059C284.621 228.025 279.871 230.874 275.23 233.897C270.594 226.103 266.004 218.282 261.461 210.434Z" fill="#FCC95C"/>
<path d="M249.641 282.028C252.574 280.074 255.671 278.295 258.666 276.437L272.15 268.03C274.047 270.912 275.738 273.986 277.478 276.968L284.904 289.67C280.246 292.533 275.611 295.433 270.999 298.37C268.329 300.066 265.488 301.69 263.003 303.646C262.3 303.071 261.652 302.374 261.118 301.637C260.51 300.796 260.01 299.855 259.478 298.962C258.49 297.317 257.522 295.661 256.575 293.992C254.287 289.989 251.976 286.001 249.641 282.027L249.641 282.028Z" fill="#FCC95C"/>
<path d="M244.755 221.228C245.278 221.598 257.946 243.121 258.534 244.505C251.792 248.657 245.08 252.858 238.398 257.108C237.599 257.56 236.826 258.071 236.046 258.557C234.009 254.828 231.772 251.185 229.636 247.509C228.571 245.678 227.198 243.727 226.535 241.708C226.471 241.513 226.413 241.316 226.362 241.117C226.311 240.918 226.266 240.718 226.228 240.516C226.189 240.315 226.157 240.112 226.131 239.908C226.105 239.704 226.086 239.5 226.073 239.295C226.061 239.09 226.054 238.885 226.055 238.679C226.055 238.474 226.062 238.269 226.075 238.064C226.088 237.859 226.108 237.655 226.134 237.451C226.16 237.248 226.193 237.045 226.232 236.844C226.575 235.14 227.386 233.42 228.559 232.134C230.1 230.445 232.814 228.98 234.755 227.723C238.089 225.563 241.463 223.452 244.755 221.228L244.755 221.228Z" fill="#FCC95C"/>
<path d="M236.922 260.143L293.997 224.234L302.286 239.079C303.391 241.079 304.779 243.086 305.645 245.196C304.85 245.752 303.968 246.231 303.142 246.743L297.133 250.443L278.691 261.84L256.189 275.828C253.723 277.342 251.301 278.955 248.793 280.395C244.843 273.643 240.983 266.827 236.922 260.143Z" fill="#FCC95C"/>
</g>
<defs>
<clipPath id="clip0_2754_110655">
<rect width="479" height="313" fill="white"/>
</clipPath>
<clipPath id="clip1_2754_110655">
<rect width="157" height="165" fill="white" transform="translate(191 164)"/>
</clipPath>
</defs>
</svg>
