<svg width="471" height="299" viewBox="0 0 471 299" fill="none" xmlns="http://www.w3.org/2000/svg">
<path d="M60.1074 107.858C60.1074 107.858 60.6899 84.5906 31.8203 86.6907C32.3664 97.7723 35.9414 108.868 60.1074 107.858Z" fill="#D1EAFF"/>
<path d="M116.811 93.7402C116.811 93.7402 81.5119 79.8391 69.0977 117.291C86.3612 122.879 105.277 124.667 116.811 93.7402Z" fill="#E7DFEB"/>
<path d="M62.4848 66.1478C62.4848 66.1478 64.7128 53.1624 49.1386 46.8477C46.7285 60.0947 52.0146 63.6772 62.4848 66.1478Z" fill="#D1EAFF"/>
<path d="M40.4538 190.11C40.4538 190.11 35.641 149.954 0 158.471C8.46064 187.595 24.6684 192.144 40.4538 190.11Z" fill="#BDD4E6"/>
<path opacity="0.5" d="M40.4538 190.109L0 158.463C8.46064 187.588 24.6684 192.136 40.4538 190.102V190.109Z" fill="#062A47"/>
<path d="M54.4283 102.909C55.8845 103.694 57.2971 104.573 58.4766 105.692C59.6562 106.797 60.7483 108.003 61.6075 109.333C62.4885 110.648 63.2312 112.043 63.8355 113.482C64.4326 114.928 64.9131 116.389 65.2189 117.944C65.2699 118.206 65.0733 118.46 64.7821 118.503C64.4908 118.547 64.2141 118.373 64.1632 118.104C64.1632 118.104 64.1632 118.097 64.1632 118.089V118.06C63.9302 116.629 63.5079 115.154 62.9836 113.751C62.4521 112.341 61.775 110.968 60.9668 109.667C60.1804 108.352 59.1683 107.16 58.0616 106.056C56.9549 104.937 55.6151 104.05 54.2245 103.244H54.2099C54.108 103.178 54.0788 103.055 54.1444 102.967C54.2099 102.88 54.3337 102.851 54.4356 102.902L54.4283 102.909Z" fill="#E2D8E7"/>
<path d="M51.063 90.5195C52.5337 93.9929 53.7424 97.5463 54.8564 101.114C55.9704 104.682 56.9534 108.286 57.8417 111.912C58.7227 115.538 59.5018 119.179 60.0842 122.856C60.2153 123.779 60.3609 124.702 60.4701 125.625C60.5575 126.555 60.6813 127.478 60.7395 128.408C60.7759 129.345 60.8706 130.268 60.8196 131.213C60.7978 131.685 60.8269 132.15 60.7541 132.63L60.5575 134.054C60.5211 134.323 60.2517 134.504 59.9605 134.468C59.6692 134.432 59.4581 134.192 59.4945 133.923V133.85L59.6983 132.528C59.7712 132.092 59.7493 131.627 59.7784 131.176C59.844 130.275 59.7639 129.352 59.742 128.444C59.7056 127.528 59.5891 126.613 59.5163 125.697C59.4144 124.782 59.2833 123.866 59.1741 122.95C58.6499 119.295 57.9218 115.655 57.099 112.036C56.2689 108.417 55.3442 104.813 54.2812 101.238C53.2182 97.6698 52.0677 94.1092 50.6552 90.643C50.6115 90.5413 50.6698 90.425 50.779 90.3887C50.8882 90.3523 51.012 90.4032 51.063 90.5049V90.5195Z" fill="#062A47"/>
<path d="M65.9752 68.5745C67.4168 72.1497 67.9556 75.9283 68.327 79.6706C68.6765 83.4202 68.7347 87.1843 68.6692 90.9412C68.6036 94.698 68.3998 98.4548 68.0648 102.197C67.7226 105.939 67.3003 109.675 66.5504 113.402C66.4994 113.664 66.2154 113.838 65.9242 113.787C65.633 113.737 65.4364 113.482 65.4946 113.221V113.206C66.281 109.573 66.7615 105.845 67.1474 102.124C67.526 98.404 67.7882 94.6689 67.9047 90.9266C68.0212 87.1916 68.0139 83.442 67.7226 79.7069C67.4095 75.9864 66.929 72.2296 65.5601 68.7125C65.5237 68.6035 65.582 68.4873 65.6912 68.4582C65.8004 68.4219 65.9242 68.48 65.9679 68.5745H65.9752Z" fill="#062A47"/>
<path d="M82.3442 40.2998C83.5383 43.0539 84.2446 45.946 84.696 48.8527C85.1474 51.7666 85.3295 54.7023 85.3513 57.638C85.3731 63.5095 84.7834 69.3664 83.5966 75.1361C83.5456 75.3977 83.2616 75.5721 82.9704 75.5212C82.6791 75.4703 82.4898 75.216 82.5408 74.9471C83.815 69.2646 84.5067 63.4513 84.5941 57.6308C84.6232 54.7241 84.4921 51.8102 84.1062 48.9253C83.7131 46.0405 83.065 43.1702 81.9365 40.4379C81.8928 40.3362 81.951 40.2199 82.0602 40.1836C82.1695 40.1472 82.2932 40.1981 82.3369 40.2998H82.3442Z" fill="#062A47"/>
<path d="M105.576 75.274C102.183 76.4585 99.0234 78.1225 96.0017 79.9537C92.9801 81.7922 90.1186 83.8341 87.3372 85.9632C81.8036 90.2433 76.6121 94.9012 71.8212 99.8498C71.6246 100.053 71.2896 100.075 71.0639 99.8934C70.8382 99.7117 70.8164 99.4065 71.013 99.2103C75.9277 94.2835 81.2138 89.6765 86.8566 85.4473C89.6817 83.34 92.6014 81.3271 95.6741 79.5177C98.7467 77.7156 101.972 76.0806 105.431 74.918C105.54 74.8816 105.671 74.9325 105.707 75.0342C105.751 75.136 105.693 75.245 105.584 75.2886L105.576 75.274Z" fill="#7A4B90"/>
<path d="M76.1915 111.266C73.2062 113.366 70.7233 116.011 68.6701 118.896C66.6022 121.774 64.9203 124.877 63.4932 128.074C62.0588 131.264 60.8939 134.556 59.9036 137.891C58.928 141.219 58.1198 144.627 57.581 147.999V148.021C57.5009 148.486 57.0276 148.806 56.5179 148.733C56.0082 148.66 55.6515 148.232 55.7243 147.766C55.7243 147.766 55.7243 147.752 55.7243 147.745C56.3796 144.242 57.2897 140.856 58.3673 137.484C59.4595 134.127 60.7264 130.806 62.2773 127.594C63.8136 124.382 65.612 121.258 67.8036 118.366C69.9807 115.466 72.6019 112.807 75.7327 110.714C75.9002 110.605 76.1405 110.634 76.2643 110.787C76.388 110.939 76.3589 111.15 76.1987 111.259L76.1915 111.266Z" fill="#E7DFEB"/>
<path d="M39.77 189.119L50.8227 196.466C51.245 196.742 51.3397 197.28 51.0339 197.658C50.7281 198.036 50.1456 198.116 49.7233 197.839C49.7014 197.825 49.6796 197.81 49.665 197.796L39.304 189.664C39.1438 189.541 39.1293 189.323 39.2603 189.178C39.3914 189.04 39.6098 189.025 39.77 189.127V189.119Z" fill="#062A47"/>
<path d="M62.2463 183.685C60.6808 185.16 59.21 186.715 58.0014 188.452C56.7854 190.174 55.686 191.962 54.7977 193.851C53.8948 195.726 53.1303 197.659 52.5041 199.628C51.8925 201.59 51.3829 203.617 51.0843 205.594V205.63C51.0115 206.095 50.5382 206.415 50.0213 206.35C49.5043 206.284 49.1476 205.848 49.2204 205.383C49.2204 205.376 49.2204 205.361 49.2204 205.347C49.6427 203.21 50.247 201.198 50.9751 199.192C51.7105 197.194 52.5842 195.239 53.5963 193.342C54.5938 191.438 55.8098 189.636 57.1349 187.914C58.4601 186.185 60.0474 184.637 61.7147 183.184C61.8676 183.053 62.1079 183.06 62.2535 183.198C62.3919 183.329 62.3919 183.54 62.2535 183.67L62.239 183.685H62.2463Z" fill="#062A47"/>
<path d="M41.5119 153.616C43.0846 155.186 44.5772 156.85 45.7786 158.674C46.9945 160.491 48.0867 162.38 48.9531 164.357C49.8342 166.326 50.5768 168.346 51.1666 170.395C51.7491 172.459 52.2151 174.515 52.4772 176.688C52.5354 177.153 52.1641 177.575 51.6472 177.618C51.1302 177.662 50.6715 177.327 50.6132 176.855C50.6132 176.848 50.6132 176.833 50.6132 176.826V176.79C50.4603 174.799 50.0963 172.728 49.623 170.722C49.1352 168.709 48.5017 166.718 47.7299 164.778C46.9727 162.831 45.997 160.956 44.8903 159.146C43.7981 157.33 42.422 155.666 40.9585 154.074L40.9439 154.06C40.8129 153.914 40.8274 153.696 40.9876 153.58C41.1405 153.464 41.3735 153.478 41.5119 153.616Z" fill="#062A47"/>
<path d="M71.8438 136.735C68.8585 138.835 66.3757 141.48 64.3224 144.365C62.2546 147.242 60.5727 150.345 59.1456 153.543C57.7112 156.733 56.5462 160.024 55.556 163.36C54.5803 166.688 53.7721 170.096 53.2333 173.468V173.49C53.1532 173.955 52.6799 174.274 52.1703 174.202C51.6606 174.129 51.3038 173.7 51.3766 173.235C51.3766 173.235 51.3766 173.221 51.3766 173.213C52.0319 169.711 52.9421 166.325 54.0197 162.953C55.1118 159.596 56.3787 156.275 57.9296 153.063C59.4659 149.851 61.2644 146.727 63.456 143.834C65.633 140.935 68.2542 138.275 71.3851 136.183C71.5526 136.074 71.7928 136.103 71.9166 136.255C72.0404 136.408 72.0113 136.619 71.8511 136.728L71.8438 136.735Z" fill="#062A47"/>
<path d="M49.1861 204.831C49.5865 216.087 51.2248 227.365 54.4576 238.316C56.3943 244.9 58.9063 251.367 62.0008 257.602L66.1656 257.972C62.6707 251.418 59.8383 244.565 57.6758 237.539C54.3848 226.871 52.6227 215.826 52.0912 204.752C51.8364 199.207 51.8728 193.655 52.1931 188.111C52.2951 186.723 52.3606 185.342 52.4917 183.954L52.8703 179.798C53.096 177.022 53.4455 174.261 53.7731 171.492C56.489 149.373 61.8188 127.529 69.6824 106.456C71.6264 101.18 73.7889 95.9774 76.0752 90.8181C78.3614 85.6587 80.8152 80.5576 83.4509 75.5436C86.0867 70.5224 88.8753 65.5665 91.8824 60.7269C94.8968 55.8946 98.0495 51.1059 101.588 46.5933H101.595C101.712 46.4335 101.676 46.2155 101.508 46.1065C101.341 45.9975 101.1 46.0265 100.977 46.1791C97.336 50.7063 94.125 55.4586 91.0305 60.2909C87.9506 65.1232 85.0892 70.0646 82.3733 75.0785C79.6575 80.0852 77.1309 85.1791 74.7718 90.3385C72.4055 95.4905 70.1702 100.701 68.146 105.976C59.9694 127.057 54.3192 148.973 51.3048 171.216C50.9335 173.999 50.5476 176.775 50.2855 179.573L49.8486 183.758C49.703 185.153 49.6156 186.556 49.4919 187.958C49.0987 193.568 48.9895 199.2 49.1715 204.831H49.1861Z" fill="#062A47"/>
<path d="M39.7535 72.6445C39.7535 72.6445 34.7441 94.3064 53.6459 97.8307C57.8252 84.6127 53.2017 76.6775 39.7535 72.6445Z" fill="#BDD4E6"/>
<path opacity="0.5" d="M53.6381 97.8307C47.2088 88.6675 39.7457 72.6445 39.7457 72.6445C39.7457 72.6445 34.7363 94.3064 53.6381 97.8307Z" fill="#062A47"/>
<path d="M62.924 51.1504C62.924 51.1504 51.0485 67.5003 67.8169 75.9514C76.1247 66.3086 74.3481 58.417 62.924 51.1504Z" fill="#BDD4E6"/>
<path opacity="0.5" d="M67.8169 75.9514C64.7297 66.5193 62.924 51.1504 62.924 51.1504C62.924 51.1504 51.0485 67.5003 67.8169 75.9514Z" fill="#062A47"/>
<path d="M72.547 30.6797C72.547 30.6797 69.7874 45.1621 84.0438 46.4846C86.5704 37.5903 82.7624 32.6199 72.547 30.6797Z" fill="#BDD4E6"/>
<path opacity="0.5" d="M84.0438 46.4768C78.8306 40.8016 72.547 30.6719 72.547 30.6719C72.547 30.6719 69.7874 45.1543 84.0438 46.4768Z" fill="#062A47"/>
<path d="M99.1328 77.9267C99.1328 77.9267 125.847 87.0608 133.485 59.3677C112.304 56.2358 103.596 66.2056 99.1328 77.9267Z" fill="#BDD4E6"/>
<path opacity="0.5" d="M99.1328 77.9267L133.485 59.3677C112.304 56.2358 103.596 66.2056 99.1328 77.9267Z" fill="#062A47"/>
<path d="M99.8889 48.9117C99.8889 48.9117 114.553 48.9408 113.905 28.1582C98.7822 30.5126 93.5616 38.2297 99.8889 48.9117Z" fill="#D1EAFF"/>
<path d="M60.1914 185.14C60.1914 185.14 107.438 189.013 105.997 141.395C70.567 144.926 61.5457 164.481 60.1914 185.14Z" fill="#B69CC2"/>
<path opacity="0.5" d="M60.1914 185.14L105.997 141.395C70.567 144.926 61.553 164.481 60.1914 185.14Z" fill="#7A4B90"/>
<path d="M43.192 156.705C43.192 156.705 56.9314 126.28 11.3008 114.479C13.1138 142.114 16.0189 150.296 43.192 156.705Z" fill="#BDD4E6"/>
<path d="M281.84 78.7992C283.878 80.3761 285.56 82.3453 286.944 84.4744C288.335 86.6108 289.463 88.8998 290.417 91.2615C291.371 93.6159 292.135 96.0429 292.783 98.499C293.417 100.948 293.941 103.455 294.276 105.94V105.962C294.327 106.303 294.647 106.543 295.004 106.492C295.361 106.449 295.608 106.129 295.565 105.795V105.78C295.15 103.208 294.56 100.715 293.854 98.2302C293.133 95.7522 292.295 93.3107 291.262 90.9417C290.235 88.5728 289.026 86.262 287.548 84.1111C286.077 81.9602 284.301 79.9837 282.16 78.4068C282.044 78.3196 281.883 78.3414 281.796 78.4577C281.709 78.5667 281.731 78.7193 281.84 78.8065V78.7992Z" fill="#541970"/>
<path d="M228.984 49.2383C240.037 75.9286 258.502 82.9918 284.532 80.4558C284.532 80.4558 282.617 46.1282 228.984 49.2383Z" fill="#BDD4E6"/>
<path d="M294.236 54.2173C293.224 54.7768 292.234 55.4017 291.411 56.2083C290.581 57.0004 289.816 57.8724 289.212 58.8388C288.593 59.798 288.062 60.8081 287.632 61.8545C287.202 62.9082 286.853 63.9763 286.627 65.1099C286.591 65.3061 286.722 65.4878 286.918 65.5241C287.122 65.5605 287.312 65.4297 287.355 65.2407C287.355 65.2407 287.355 65.2407 287.355 65.2335V65.2117C287.53 64.1653 287.843 63.0898 288.222 62.0652C288.608 61.0406 289.088 60.0451 289.656 59.1004C290.217 58.1485 290.923 57.2838 291.702 56.4917C292.474 55.6851 293.413 55.0529 294.382 54.4789H294.389C294.462 54.428 294.483 54.3408 294.44 54.2754C294.396 54.21 294.309 54.1882 294.236 54.2245V54.2173Z" fill="#062A47"/>
<path d="M286.643 28.9147C285.609 31.5234 285.194 34.2847 284.903 37.017C284.619 39.7637 284.539 42.5251 284.539 45.2791C284.539 48.0332 284.641 50.7872 284.83 53.534C285.027 56.2808 285.274 59.0203 285.748 61.7598C285.784 61.956 285.973 62.0868 286.177 62.0505C286.381 62.0142 286.512 61.8325 286.483 61.6363V61.6218C285.981 58.9476 285.689 56.2081 285.464 53.4831C285.245 50.7509 285.107 48.0114 285.063 45.2646C285.02 42.5251 285.063 39.7783 285.311 37.046C285.566 34.321 285.944 31.5743 286.927 29.0164C286.956 28.9365 286.913 28.8565 286.84 28.8275C286.76 28.7984 286.68 28.842 286.651 28.9147H286.643Z" fill="#062A47"/>
<path d="M279.735 21.3267C279.087 23.0852 278.708 24.9527 278.468 26.8275C278.227 28.7096 278.133 30.6062 278.133 32.51C278.14 36.3177 278.49 40.1327 279.167 43.9041C279.196 44.0785 279.356 44.1947 279.516 44.1657C279.676 44.1366 279.786 43.9767 279.749 43.8023C279.021 40.0818 278.621 36.2959 278.555 32.5245C278.526 30.6352 278.592 28.7532 278.795 26.8856C279.007 25.0254 279.349 23.1724 279.968 21.4284C279.99 21.363 279.96 21.2903 279.895 21.2613C279.837 21.2322 279.764 21.2613 279.742 21.3267H279.735Z" fill="#062A47"/>
<path d="M259.23 33.3609C261.56 34.2693 263.723 35.5264 265.79 36.8998C267.858 38.2804 269.81 39.8137 271.703 41.4051C275.474 44.6097 279.006 48.0831 282.26 51.76C282.391 51.9126 282.624 51.9272 282.785 51.8036C282.937 51.6728 282.959 51.4476 282.828 51.3022C279.486 47.6326 275.889 44.1955 272.045 41.0272C270.115 39.4504 268.128 37.9389 266.023 36.5728C263.919 35.2139 261.713 33.9786 259.339 33.0921C259.259 33.063 259.172 33.0993 259.143 33.172C259.114 33.2447 259.15 33.3319 259.23 33.3609Z" fill="#062A47"/>
<path d="M296.728 128.976C296.327 137.223 295.075 145.471 292.723 153.457C291.31 158.26 289.505 162.969 287.298 167.503L284.415 167.729C286.905 162.962 288.929 157.977 290.502 152.854C292.898 145.071 294.23 136.998 294.718 128.888C294.951 124.826 294.987 120.757 294.834 116.695C294.783 115.678 294.747 114.66 294.674 113.643L294.456 110.591C294.332 108.556 294.121 106.522 293.924 104.494C292.293 88.2535 288.857 72.1797 283.658 56.6436C282.369 52.756 280.942 48.9119 279.42 45.1042C277.899 41.2965 276.26 37.5324 274.498 33.8191C272.736 30.1132 270.865 26.4435 268.841 22.8611C266.817 19.2859 264.691 15.7398 262.295 12.3899C262.215 12.2663 262.244 12.1137 262.361 12.0338C262.477 11.9539 262.645 11.9829 262.725 12.0919C265.186 15.4564 267.356 18.9734 269.431 22.5486C271.506 26.1238 273.428 29.7789 275.241 33.4849C277.061 37.1909 278.75 40.9477 280.323 44.7554C281.896 48.5631 283.381 52.4072 284.721 56.2948C290.131 71.8454 293.793 87.9701 295.628 104.305C295.854 106.347 296.087 108.389 296.24 110.438L296.495 113.512C296.582 114.537 296.626 115.569 296.691 116.593C296.902 120.706 296.917 124.841 296.728 128.968V128.976Z" fill="#062A47"/>
<path d="M251.135 0C251.135 0 250.232 16.4371 265.544 15.8122C266.971 5.5953 262.239 0.653997 251.135 0Z" fill="#BDD4E6"/>
<path opacity="0.5" d="M265.544 15.8122C259.224 10.2895 251.135 0 251.135 0C251.135 0 250.232 16.4371 265.544 15.8122Z" fill="#062A47"/>
<path d="M290.539 21.248C290.539 21.248 277.95 28.3984 285.042 38.7243C293.247 34.8802 294.864 29.2631 290.539 21.248Z" fill="#BDD4E6"/>
<path opacity="0.5" d="M285.042 38.7243C286.403 31.7265 290.539 21.248 290.539 21.248C290.539 21.248 277.95 28.3984 285.042 38.7243Z" fill="#062A47"/>
<path d="M264.611 35.5839C264.611 35.5839 262.23 14.2418 232.305 19.2194C238.159 34.6392 251.425 36.8628 264.611 35.5839Z" fill="#BDD4E6"/>
<path opacity="0.5" d="M264.611 35.5832L232.305 19.2188C238.159 34.6385 251.425 36.8621 264.611 35.5832Z" fill="#062A47"/>
<path d="M278.626 27.6641C278.626 27.6641 270.908 21.0151 281.954 7.33203C288.689 15.7904 287.451 23.3549 278.626 27.6641Z" fill="#D1EAFF"/>
<path d="M290.262 57.7264C290.262 57.7264 290.087 24.9321 323.347 28.4564C322.481 44.0579 318.119 59.623 290.262 57.7264Z" fill="#BDD4E6"/>
<path d="M384.151 126.919C412.778 126.919 435.985 103.758 435.985 75.1882C435.985 46.6179 412.778 23.457 384.151 23.457C355.523 23.457 332.316 46.6179 332.316 75.1882C332.316 103.758 355.523 126.919 384.151 126.919Z" fill="white"/>
<path style="mix-blend-mode:multiply" opacity="0.5" d="M433.975 89.4515C393.398 118.213 362.256 100.773 354.706 83.5001C349.201 70.8998 347.701 45.7137 357.058 31.0859C342.219 40.1838 332.316 56.5337 332.316 75.1944C332.316 103.767 355.521 126.926 384.151 126.926C407.821 126.926 427.764 111.092 433.975 89.4588V89.4515Z" fill="url(#paint0_linear_2301_116621)"/>
<path d="M384.557 74.4321L368.488 58.5691C367.781 57.8642 366.813 57.9151 366.332 58.6853C365.852 59.4556 366.041 60.6619 366.748 61.3667L382.817 77.2298C383.523 77.9346 384.492 77.8838 384.972 77.1135C385.453 76.3433 385.263 75.137 384.557 74.4321Z" fill="url(#paint1_linear_2301_116621)"/>
<path opacity="0.5" d="M413.326 59.0044C412.955 58.1324 411.943 57.7254 411.069 58.096L380.801 70.9725C379.928 71.3431 379.52 72.3532 379.891 73.2252C380.263 74.0971 381.275 74.5041 382.148 74.1335L412.416 61.257C413.29 60.8864 413.697 59.8764 413.326 59.0044Z" fill="url(#paint2_linear_2301_116621)"/>
<path d="M384.149 23.457C376.788 23.457 369.783 24.9976 363.441 27.7661C368.138 26.371 373.103 25.6152 378.251 25.6152C406.88 25.6152 430.085 48.774 430.085 77.3464C430.085 98.5649 417.278 116.797 398.959 124.776C420.365 118.417 435.983 98.6303 435.983 75.1954C435.983 46.6231 412.778 23.4643 384.149 23.4643V23.457Z" fill="#BDD4E6"/>
<path d="M385.657 74.6783L373.723 56.9404C373.199 56.1556 372.129 55.9376 371.342 56.4536C370.556 56.9768 370.338 58.045 370.855 58.8298L382.788 76.5676C383.312 77.3524 384.383 77.5704 385.169 77.0545C385.956 76.5313 386.174 75.4631 385.657 74.6783Z" fill="#104774"/>
<path d="M414.926 57.6893C414.453 56.8682 413.397 56.5921 412.574 57.0644L384.076 73.487C383.253 73.9593 382.976 75.013 383.45 75.8341C383.923 76.6552 384.979 76.9313 385.801 76.459L414.3 60.0364C415.122 59.5641 415.399 58.5104 414.926 57.6893Z" fill="#104774"/>
<path d="M387.915 75.1865C387.915 77.2575 386.233 78.9434 384.151 78.9434C382.069 78.9434 380.387 77.2648 380.387 75.1865C380.387 73.1083 382.069 71.4297 384.151 71.4297C386.233 71.4297 387.915 73.1083 387.915 75.1865Z" fill="#072F50"/>
<g style="mix-blend-mode:multiply">
<path d="M382.302 76.684C381.509 75.623 381.319 73.3558 382.55 71.8008C381.276 72.4039 380.395 73.6901 380.395 75.1943C380.395 77.2653 382.076 78.9511 384.159 78.9511C385.469 78.9511 386.62 78.2826 387.297 77.2726C385.382 77.8902 383.147 77.8103 382.309 76.6912L382.302 76.684Z" fill="#062A47"/>
</g>
<path d="M384.15 128.751C354.56 128.751 330.488 104.727 330.488 75.1957C330.488 45.6641 354.56 21.6406 384.15 21.6406C413.74 21.6406 437.812 45.6641 437.812 75.1957C437.812 104.727 413.74 128.751 384.15 128.751ZM384.15 25.2812C356.576 25.2812 334.143 47.6697 334.143 75.1884C334.143 102.707 356.576 125.096 384.15 125.096C411.724 125.096 434.157 102.707 434.157 75.1884C434.157 47.6697 411.724 25.2812 384.15 25.2812Z" fill="#104774"/>
<path d="M352.158 36.8711C340.086 45.9907 332.266 60.4368 332.266 76.6777C332.266 104.196 354.699 126.585 382.272 126.585C394.432 126.585 405.594 122.225 414.273 114.995C405.892 121.324 395.458 125.095 384.158 125.095C356.584 125.095 334.151 102.707 334.151 75.188C334.151 59.8046 341.163 46.0343 352.158 36.8711Z" fill="#BDD4E6"/>
<path d="M384.151 21.6323C371.103 21.6323 359.133 26.3047 349.828 34.0582C358.842 27.2058 370.091 23.1219 382.273 23.1219C411.863 23.1219 435.934 47.1454 435.934 76.677C435.934 93.1868 428.406 107.974 416.596 117.806C429.483 108.018 437.82 92.5546 437.82 75.1801C437.82 45.6485 413.749 21.625 384.159 21.625L384.151 21.6323Z" fill="#3577AC"/>
<path d="M386.088 75.1868C386.088 76.255 385.222 77.1198 384.152 77.1198C383.081 77.1198 382.215 76.255 382.215 75.1868C382.215 74.1186 383.081 73.2539 384.152 73.2539C385.222 73.2539 386.088 74.1186 386.088 75.1868Z" fill="#B69CC2"/>
<path d="M386.088 29.7845C386.088 30.8527 385.222 31.7174 384.152 31.7174C383.081 31.7174 382.215 30.8527 382.215 29.7845C382.215 28.7163 383.081 27.8516 384.152 27.8516C385.222 27.8516 386.088 28.7163 386.088 29.7845Z" fill="#104774"/>
<path d="M386.088 121.439C386.088 122.507 385.222 123.372 384.152 123.372C383.081 123.372 382.215 122.507 382.215 121.439C382.215 120.371 383.081 119.506 384.152 119.506C385.222 119.506 386.088 120.371 386.088 121.439Z" fill="#B69CC2"/>
<path d="M386.088 75.1868C386.088 76.255 385.222 77.1198 384.152 77.1198C383.081 77.1198 382.215 76.255 382.215 75.1868C382.215 74.1186 383.081 73.2539 384.152 73.2539C385.222 73.2539 386.088 74.1186 386.088 75.1868Z" fill="#AFCCE3"/>
<path d="M430.202 77.1198C431.272 77.1198 432.139 76.2544 432.139 75.1868C432.139 74.1193 431.272 73.2539 430.202 73.2539C429.133 73.2539 428.266 74.1193 428.266 75.1868C428.266 76.2544 429.133 77.1198 430.202 77.1198Z" fill="#104774"/>
<path d="M337.937 77.1198C339.006 77.1198 339.874 76.2544 339.874 75.1868C339.874 74.1193 339.006 73.2539 337.937 73.2539C336.867 73.2539 336 74.1193 336 75.1868C336 76.2544 336.867 77.1198 337.937 77.1198Z" fill="#B69CC2"/>
<path d="M142.243 279.636C214.07 279.636 272.298 278.185 272.298 276.395C272.298 274.605 214.07 273.154 142.243 273.154C70.4151 273.154 12.1875 274.605 12.1875 276.395C12.1875 278.185 70.4151 279.636 142.243 279.636Z" fill="url(#paint3_linear_2301_116621)"/>
<path d="M270.457 276.366C270.457 277.42 224.616 278.277 168.07 278.277C111.525 278.277 65.6836 277.42 65.6836 276.366C65.6836 275.313 111.525 274.455 168.07 274.455C224.616 274.455 270.457 275.313 270.457 276.366Z" fill="url(#paint4_linear_2301_116621)"/>
<path d="M235.549 247.561H188.579C188.579 247.561 191.586 267.689 168.41 267.689H255.711C232.542 267.689 235.542 247.561 235.542 247.561H235.549Z" fill="#062B6B"/>
<g style="mix-blend-mode:multiply">
<path d="M232.362 253.57C231.925 251.44 231.808 249.369 231.845 247.553H188.581C188.581 247.553 189.884 256.316 184.117 262.282L232.369 253.57H232.362Z" fill="#3577AC"/>
</g>
<path d="M343.186 69.9277H80.9429C75.7514 69.9277 71.543 74.1278 71.543 79.309V244.189C71.543 249.37 75.7514 253.57 80.9429 253.57H343.186C348.378 253.57 352.586 249.37 352.586 244.189V79.309C352.586 74.1278 348.378 69.9277 343.186 69.9277Z" fill="#3577AC"/>
<g style="mix-blend-mode:multiply">
<path d="M85.348 79.9336C77.6591 81.0236 76.9893 83.705 76.9893 101.465C76.9893 119.224 75.9845 235.098 75.6495 244.857C75.5476 247.727 75.5112 250.016 75.5039 251.811C77.0475 252.908 78.9187 253.57 80.9502 253.57H158.749L337.558 244.857V214.395L204.591 153.406L85.348 79.9336Z" fill="#1D5C9F"/>
</g>
<path d="M88.6038 79.3159H335.535C340.421 79.3159 344.389 83.2762 344.389 88.1521V236.028C344.389 240.904 340.421 244.864 335.535 244.864H88.6038C83.7182 244.864 79.75 240.904 79.75 236.028V88.1448C79.75 83.2689 83.7182 79.3086 88.6038 79.3086V79.3159Z" fill="white"/>
<path d="M212.068 76.0467C212.824 76.0467 213.437 75.4351 213.437 74.6806C213.437 73.9261 212.824 73.3145 212.068 73.3145C211.312 73.3145 210.699 73.9261 210.699 74.6806C210.699 75.4351 211.312 76.0467 212.068 76.0467Z" fill="white"/>
<path d="M270.325 277.062H153.813C151.228 277.062 149.109 274.948 149.109 272.368C149.109 269.788 151.228 267.674 153.813 267.674H270.325C272.91 267.674 275.029 269.788 275.029 272.368C275.029 274.948 272.91 277.062 270.325 277.062Z" fill="#3577AC"/>
<path opacity="0.5" d="M343.188 69.9277H183.434C218.354 71.6427 333.162 71.2503 342.591 72.6673C351.947 74.077 350.054 81.1474 349.639 158.094C349.377 207.565 349.945 236.777 349.042 251.499C351.197 249.777 352.588 247.132 352.588 244.182V79.3162C352.588 74.1569 348.358 69.935 343.188 69.935V69.9277Z" fill="white"/>
<path opacity="0.5" d="M266.53 270.137C271.59 269.985 273.265 272.862 272.77 276.365C274.117 275.536 275.02 274.054 275.02 272.368C275.02 269.788 272.901 267.674 270.316 267.674H184.246C184.246 267.674 258.739 270.37 266.523 270.13L266.53 270.137Z" fill="white"/>
<path d="M141.267 177.061H140.539V180.149H141.267V177.061Z" fill="#104774"/>
<path d="M141.267 205.793H140.539V212.202H141.267V205.793Z" fill="#104774"/>
<path d="M141.267 184.422H140.539V190.831H141.267V184.422Z" fill="#104774"/>
<path d="M141.267 195.104H140.539V201.513H141.267V195.104Z" fill="#104774"/>
<path d="M141.267 216.475H140.539V219.926H143.998V219.2H141.267V216.475Z" fill="#104774"/>
<path d="M184.475 219.199H178.402V219.926H184.475V219.199Z" fill="#104774"/>
<path d="M194.588 219.199H188.516V219.926H194.588V219.199Z" fill="#104774"/>
<path d="M174.354 219.199H168.281V219.926H174.354V219.199Z" fill="#104774"/>
<path d="M154.119 219.199H148.047V219.926H154.119V219.199Z" fill="#104774"/>
<path d="M164.233 219.199H158.16V219.926H164.233V219.199Z" fill="#104774"/>
<path d="M204.709 219.199H198.637V219.926H204.709V219.199Z" fill="#104774"/>
<path d="M255.295 219.199H249.223V219.926H255.295V219.199Z" fill="#104774"/>
<path d="M275.537 219.199H269.465V219.926H275.537V219.199Z" fill="#104774"/>
<path d="M285.651 219.199H279.578V219.926H285.651V219.199Z" fill="#104774"/>
<path d="M295.772 219.199H289.699V219.926H295.772V219.199Z" fill="#104774"/>
<path d="M214.826 219.199H208.754V219.926H214.826V219.199Z" fill="#104774"/>
<path d="M305.893 219.199H299.82V219.926H305.893V219.199Z" fill="#104774"/>
<path d="M224.944 219.199H218.871V219.926H224.944V219.199Z" fill="#104774"/>
<path d="M265.416 219.199H259.344V219.926H265.416V219.199Z" fill="#104774"/>
<path d="M235.061 219.199H228.988V219.926H235.061V219.199Z" fill="#104774"/>
<path d="M245.182 219.199H239.109V219.926H245.182V219.199Z" fill="#104774"/>
<path d="M313.028 219.199H309.934V219.926H313.028V219.199Z" fill="#104774"/>
<path d="M180.54 96.1016H100.484V175.998H180.54V96.1016Z" fill="white"/>
<path d="M150.964 166.515C127.693 166.515 108.828 147.687 108.828 124.463C108.828 113.534 113.007 103.579 119.852 96.1016H100.477V175.998H180.532V154.409C172.924 161.894 162.482 166.515 150.964 166.515Z" fill="#FFEA92"/>
<path d="M181.495 176.951H99.5391V95.1582H181.495V176.951ZM101.439 175.055H179.588V97.0621H101.439V175.055Z" fill="#104774"/>
<path opacity="0.5" d="M219.137 103.479H188.797V110.854H219.137V103.479Z" fill="#104774"/>
<path opacity="0.5" d="M231.496 103.479H223.254V110.854H231.496V103.479Z" fill="#104774"/>
<g opacity="0.3">
<path d="M254.721 119.123H249.66V120.671H254.721V119.123Z" fill="#104774"/>
<path d="M245.728 119.123H226.906V120.671H245.728V119.123Z" fill="#104774"/>
<path d="M222.503 119.123H207.023V120.671H222.503V119.123Z" fill="#104774"/>
<path d="M200.41 119.123H188.797V120.671H200.41V119.123Z" fill="#104774"/>
<path d="M265.014 124.879H248.719V126.427H265.014V124.879Z" fill="#104774"/>
<path d="M243.477 124.879H222.5V126.427H243.477V124.879Z" fill="#104774"/>
<path d="M220.258 124.879H212.016V126.427H220.258V124.879Z" fill="#104774"/>
<path d="M206.212 124.879H197.504V126.427H206.212V124.879Z" fill="#104774"/>
<path d="M193.107 124.879H188.797V126.427H193.107V124.879Z" fill="#104774"/>
<path d="M241.732 130.633H208.574V132.181H241.732V130.633Z" fill="#104774"/>
<path d="M196.478 130.633H188.797V132.181H196.478V130.633Z" fill="#104774"/>
<path d="M251.72 136.381H241.73V137.929H251.72V136.381Z" fill="#104774"/>
<path d="M236.321 136.381H225.254V137.929H236.321V136.381Z" fill="#104774"/>
<path d="M219.137 136.381H188.797V137.929H219.137V136.381Z" fill="#104774"/>
<path d="M212.018 142.137H205.086V143.685H212.018V142.137Z" fill="#104774"/>
<path d="M200.41 142.137H188.797V143.685H200.41V142.137Z" fill="#104774"/>
<path d="M225.248 147.893H213.227V149.44H225.248V147.893Z" fill="#104774"/>
<path d="M207.023 147.893H196.473V149.44H207.023V147.893Z" fill="#104774"/>
<path d="M193.107 147.893H188.797V149.44H193.107V147.893Z" fill="#104774"/>
<path d="M235.237 153.639H209.957V155.186H235.237V153.639Z" fill="#104774"/>
<path d="M205.092 153.639H188.797V155.186H205.092V153.639Z" fill="#104774"/>
</g>
<path d="M173.923 173.709C171.615 168.964 168.761 163.267 167.749 161.952C165.957 159.605 156.674 160.702 153.259 160.404C149.844 160.106 145.279 157.236 145.476 150.224C145.672 143.204 134.904 148.421 134.904 148.421C134.904 148.421 130.695 155.419 129.355 158.101C128.016 160.782 110.89 161.952 109.041 162.962C108.051 163.5 106.194 168.862 104.68 173.717H173.923V173.709Z" fill="#258BC0"/>
<path d="M136.048 149.803C134.235 152.07 132.152 154.301 136.048 156.619L138.596 158.101L140.511 168.151L142.972 158.973C142.972 158.973 145.862 156.481 144.639 151.06C143.416 145.639 139.972 146.554 139.972 146.554" fill="#FDC4BF"/>
<path d="M127.695 126.477C127.695 126.477 127.979 144.476 133.353 150.333C138.726 156.19 145.796 155.042 149.473 146.881C153.15 138.721 153.995 125.06 153.995 125.06C153.995 125.06 129.952 113.092 127.695 126.477Z" fill="#FDC4BF"/>
<g style="mix-blend-mode:multiply">
<path d="M127.695 126.477C127.695 126.477 127.979 144.477 133.353 150.334C136.12 153.349 139.331 154.505 142.301 153.807C131.168 152.732 130.134 135.553 131.613 131.179C133.229 126.39 135.763 124.079 137.219 124.159C138.675 124.239 136.76 121.078 136.76 121.078H138.304L151.075 126.383L152.116 135.146L152.808 134.827C153.725 129.5 154.002 125.067 154.002 125.067C154.002 125.067 129.96 113.099 127.703 126.484L127.695 126.477Z" fill="#FDC4BF"/>
</g>
<path d="M128.242 134.164C128.242 134.164 127.973 129.368 125.431 130.32C122.883 131.272 125.897 136.853 129.057 139.505C128.985 139.128 128.242 134.164 128.242 134.164Z" fill="#FDC4BF"/>
<g style="mix-blend-mode:multiply">
<path d="M128.242 134.164C128.242 134.164 127.973 129.368 125.431 130.32C122.883 131.272 125.897 136.853 129.057 139.505C128.985 139.128 128.242 134.164 128.242 134.164Z" fill="#FDC4BF"/>
</g>
<path d="M152.108 135.139C152.108 135.139 152.45 130.343 155.697 131.295C158.945 132.247 155.1 137.828 151.066 140.48C151.161 140.102 152.108 135.139 152.108 135.139Z" fill="#FDC4BF"/>
<path opacity="0.8" d="M155.697 131.294C154.394 130.908 153.564 131.461 153.032 132.246C155.741 131.78 156.323 134.535 151.176 139.948C151.125 140.224 151.081 140.42 151.066 140.479C155.1 137.826 158.945 132.246 155.697 131.294Z" fill="#FFEA92"/>
<path d="M152.11 135.139L152.794 125.518L138.298 121.07C138.298 121.07 139.521 123.076 138.968 123.076C138.414 123.076 133.055 121.07 133.055 121.07L128.49 135.829C128.49 135.829 126.255 120.184 127.26 117.292C128.264 114.4 135.844 111.842 138.851 111.282C141.858 110.723 150.952 113.949 153.989 117.292C157.025 120.634 152.103 135.146 152.103 135.146L152.11 135.139Z" fill="#C36357"/>
<g style="mix-blend-mode:multiply" opacity="0.6">
<path d="M152.11 135.139L152.794 125.518L138.298 121.07C138.298 121.07 139.521 123.076 138.968 123.076C138.414 123.076 133.055 121.07 133.055 121.07L128.49 135.829C128.49 135.829 126.255 120.184 127.26 117.292C128.264 114.4 135.844 111.842 138.851 111.282C141.858 110.723 150.952 113.949 153.989 117.292C157.025 120.634 152.103 135.146 152.103 135.146L152.11 135.139Z" fill="#541970"/>
</g>
<path d="M135.961 142.762C135.961 142.762 138.189 144.208 145.215 142.762C142.427 147.1 138.859 148.546 135.961 142.762Z" fill="white"/>
<g style="mix-blend-mode:multiply">
<path d="M140.349 140.9C140.349 140.9 137.822 140.115 137.844 138.495C137.873 136.874 140.043 136.642 140.043 130.356C140.043 128.213 141.397 135.494 140.181 137.223C138.965 138.96 140.349 140.9 140.349 140.9Z" fill="#FDC4BF"/>
</g>
<g style="mix-blend-mode:multiply" opacity="0.6">
<path d="M140.99 118.011C142.439 118.781 139.272 115.25 139.272 115.25C139.272 115.25 143.677 116.093 145.214 115.708C146.75 115.322 143.983 113.331 143.983 113.331L149.262 114.051C145.468 112.183 140.845 110.904 138.857 111.275C135.85 111.835 128.263 114.392 127.266 117.284C126.37 119.879 128.067 132.704 128.431 135.342C128.605 133.794 130.098 120.489 130.462 118.396C130.848 116.173 139.549 117.248 140.998 118.011H140.99Z" fill="#541970"/>
</g>
<g style="mix-blend-mode:multiply">
<path d="M137.169 132.225C137.213 132.567 136.565 132.937 135.72 133.046C134.875 133.162 134.147 132.974 134.104 132.632C134.06 132.29 134.708 131.92 135.553 131.811C136.397 131.702 137.125 131.884 137.169 132.225Z" fill="#FDC4BF"/>
</g>
<g style="mix-blend-mode:multiply">
<path d="M146.787 132.966C146.721 133.307 145.993 133.453 145.156 133.3C144.319 133.148 143.685 132.748 143.751 132.406C143.816 132.065 144.544 131.92 145.382 132.072C146.219 132.225 146.853 132.624 146.787 132.966Z" fill="#FDC4BF"/>
</g>
<path opacity="0.3" d="M150.66 115.787C150.66 115.787 155.473 117.379 153.988 125.059C153.427 119.929 152.772 117.858 150.66 115.787Z" fill="#FFEA92"/>
<path opacity="0.8" d="M151.176 139.941C151.176 139.941 147.994 151.859 142.293 153.799C145.096 153.138 147.681 150.841 149.465 146.881C150.397 144.817 151.14 142.405 151.744 139.949H151.176V139.941Z" fill="#FFEA92"/>
<g style="mix-blend-mode:multiply" opacity="0.5">
<path d="M143.305 169.524L148.133 163.122L143.91 160.128L140.895 171.05L139.665 170.49L137.64 159.365L134.284 165.404C134.284 165.404 130.811 163.725 129.697 160.128C121.862 162.112 109.776 163.682 109.776 163.682L106.863 172.285H171.112L143.305 169.524Z" fill="#258BC0"/>
</g>
<path opacity="0.5" d="M191.541 201.73C191.541 203.902 189.772 205.668 187.595 205.668C185.418 205.668 183.648 203.902 183.648 201.73C183.648 199.557 185.418 197.791 187.595 197.791C189.772 197.791 191.541 199.557 191.541 201.73Z" fill="#104774"/>
<path d="M203.779 201.73C203.779 203.902 202.01 205.668 199.833 205.668C197.656 205.668 195.887 203.902 195.887 201.73C195.887 199.557 197.656 197.791 199.833 197.791C202.01 197.791 203.779 199.557 203.779 201.73Z" fill="#062A47"/>
<path opacity="0.5" d="M216.014 201.73C216.014 203.902 214.245 205.668 212.067 205.668C209.89 205.668 208.121 203.902 208.121 201.73C208.121 199.557 209.89 197.791 212.067 197.791C214.245 197.791 216.014 199.557 216.014 201.73Z" fill="#104774"/>
<path opacity="0.5" d="M228.244 201.73C228.244 203.902 226.475 205.668 224.298 205.668C222.121 205.668 220.352 203.902 220.352 201.73C220.352 199.557 222.121 197.791 224.298 197.791C226.475 197.791 228.244 199.557 228.244 201.73Z" fill="#104774"/>
<path opacity="0.5" d="M240.479 201.73C240.479 203.902 238.709 205.668 236.532 205.668C234.355 205.668 232.586 203.902 232.586 201.73C232.586 199.557 234.355 197.791 236.532 197.791C238.709 197.791 240.479 199.557 240.479 201.73Z" fill="#104774"/>
<path style="mix-blend-mode:multiply" opacity="0.5" d="M325.414 117.77L310.699 244.071H328.283L330.613 117.98L325.414 117.77Z" fill="url(#paint5_linear_2301_116621)"/>
<path d="M357.816 291.514C418.268 291.514 467.273 288.775 467.273 285.396C467.273 282.017 418.268 279.277 357.816 279.277C297.365 279.277 248.359 282.017 248.359 285.396C248.359 288.775 297.365 291.514 357.816 291.514Z" fill="url(#paint6_linear_2301_116621)"/>
<path d="M358.283 111.093C334.517 111.514 325.518 107.888 325.416 117.771C325.314 127.653 320.574 276.816 320.348 282.97C320.122 289.125 324.447 288.544 345.49 288.173C366.532 287.803 458.602 286.168 466.094 286.037C473.586 285.906 470.98 265.865 468.227 244.261C465.475 222.657 457.888 142.724 455.704 126.483C453.519 110.243 455.733 110.918 441.032 110.831C426.332 110.744 358.29 111.1 358.29 111.1L358.283 111.093Z" fill="#062A47"/>
<g style="mix-blend-mode:multiply" opacity="0.5">
<path d="M379.863 122.653L384.013 110.969C378.705 110.991 373.827 111.012 369.772 111.034C369.327 112.211 368.665 113.759 368.133 114.122C367.245 114.726 330.621 117.981 330.621 117.981L379.87 122.653H379.863Z" fill="#826160"/>
</g>
<path d="M466.691 240.299C464.04 219.495 456.73 142.512 454.626 126.867C452.522 111.222 454.655 111.876 440.493 111.789C435.644 111.76 424.773 111.782 412.57 111.818L413.16 112.639C413.16 112.639 443.398 112.661 446.311 112.639C449.223 112.617 452.034 111.774 453.527 121.25C455.449 133.458 467.783 254.149 468.81 263.872C469.661 271.916 469.421 278.456 468.176 282.489C471.707 277.461 468.89 257.63 466.683 240.299H466.691Z" fill="white"/>
<g style="mix-blend-mode:multiply" opacity="0.7">
<path d="M469.429 283.733C468.671 283.747 344.689 286.523 333.454 286.138C322.19 285.753 323.144 285.782 322.853 276.205C322.562 266.62 326.697 131.235 326.857 121.164C326.952 115.045 326.945 113.338 327.476 112.451C326.1 113.498 325.445 115.162 325.416 117.77C325.314 127.653 320.574 276.815 320.348 282.97C320.122 289.125 324.447 288.543 345.49 288.173C366.532 287.802 458.602 286.167 466.094 286.036C467.579 286.007 468.664 285.186 469.436 283.733H469.429Z" fill="#826160"/>
</g>
<g style="mix-blend-mode:multiply" opacity="0.5">
<path d="M332.275 117.98H330.615L324.754 281.879C324.754 281.879 420.224 278.588 427.687 278.195C435.157 277.803 438.536 280.615 445.642 274.148C452.756 267.68 460.991 254.877 460.991 254.877L436.57 145.07L332.261 117.98H332.275Z" fill="#826160"/>
</g>
<path d="M374.709 117.98H332.275L328.285 277.621C328.285 277.621 434.684 275.884 438.244 275.572C441.798 275.259 461.005 254.884 461.005 254.884C460.059 232.197 448.678 117.988 448.678 117.988H374.717L374.709 117.98Z" fill="white"/>
<g style="mix-blend-mode:multiply">
<path d="M348.512 117.98C355.116 120.088 367.807 124.048 370.799 124.31C374.891 124.666 413.292 120.938 413.292 120.938L405.195 117.98H348.512Z" fill="#E7DFEB"/>
</g>
<path d="M460.998 254.884C460.947 253.583 460.852 251.977 460.736 250.117C459.265 251.527 451.168 256.534 439.191 255.858C433.737 268.633 410.234 271.59 395.672 273.072C384.386 274.221 345.33 275.899 328.314 276.597L328.285 277.629C328.285 277.629 434.684 275.892 438.244 275.579C441.805 275.267 461.005 254.891 461.005 254.891L460.998 254.884Z" fill="#D1EAFF"/>
<g style="mix-blend-mode:multiply">
<path d="M449.616 259.877L438.236 260.945C438.236 260.945 433.976 271.002 420.965 275.994C430.678 275.798 437.384 275.646 438.236 275.573C440.216 275.398 447.046 269.004 452.71 263.365L449.609 259.877H449.616Z" fill="#BDD4E6"/>
</g>
<path d="M438.242 275.573C438.242 275.573 442.749 270.057 445.115 257.988C453.889 255.619 460.995 254.885 460.995 254.885C460.995 254.885 442.989 275.42 438.234 275.573H438.242Z" fill="white"/>
<path d="M383.957 93.964C382.923 94.8941 382.18 100.177 382.712 101.42C383.243 102.662 387.692 106.39 386.622 108.875C385.551 111.36 396.065 106.957 396.065 106.957L389.323 100.693C389.323 100.693 386.265 95.8824 392.49 95.9187C398.716 95.9551 399.495 96.4129 398.752 100.693C400.849 99.2904 400.849 96.7326 400.849 96.7326C400.849 96.7326 401.737 94.6035 398.002 92.7723C394.267 90.9411 385.733 92.3653 383.957 93.964Z" fill="#072F50"/>
<path d="M413.293 106.921C413.293 106.921 404.759 107.807 401.737 105.504C398.716 103.2 408.494 100.177 401.912 92.9035C395.337 85.6296 385.908 91.4865 383.957 93.9717C381.998 96.4569 386.447 101.958 387.867 103.375C389.287 104.792 388.224 106.921 384.132 106.921C380.04 106.921 373.771 106.405 373.64 107.633C373.494 109.043 371.506 120.052 371.863 120.938C372.22 121.825 409.914 120.764 413.293 120.938C416.671 121.113 413.293 106.921 413.293 106.921ZM398.359 97.8739C397.645 100.89 391.427 102.307 389.294 97.8739C387.161 93.4412 392.01 91.8934 397.099 93.2595C398.905 93.7464 399.073 94.8582 398.359 97.8739Z" fill="#104774"/>
<g style="mix-blend-mode:multiply" opacity="0.4">
<path d="M413.289 120.937C414.301 120.988 414.702 119.76 414.775 118.009C408.542 118.133 382.745 118.612 377.91 118.452C372.42 118.278 374.787 107.036 374.809 106.949C374.117 107.065 373.68 107.269 373.644 107.625C373.498 109.035 371.51 120.044 371.867 120.93C372.224 121.817 409.918 120.756 413.296 120.93L413.289 120.937Z" fill="#541970"/>
</g>
<path d="M401.378 94.3203C401.378 94.3203 404.225 96.7546 401.378 100.773C398.531 104.792 398.728 106.034 402.012 107.451C405.288 108.868 411.958 108.425 411.958 108.425L413.378 116.672L410.531 110.285C410.531 110.285 404.75 109.755 401.371 108.425C397.993 107.095 397.214 105.852 399.383 102.481C401.553 99.109 402.339 97.1398 401.371 94.3203H401.378Z" fill="#BDD4E6"/>
<path d="M338.973 223.42L339.351 207.986L356.025 207.645L356.236 222.556L338.973 223.42ZM340.363 208.996L340.036 222.338L355.195 221.582L355.013 208.698L340.363 208.996Z" fill="#3577AC"/>
<path d="M356.526 244.776H338.52L338.898 229.4L356.3 228.717L356.526 244.769V244.776ZM339.575 243.744H355.477L355.281 229.792L339.903 230.395L339.575 243.751V243.744Z" fill="#3577AC"/>
<path d="M339.453 202.093L339.795 187.938H355.77L355.967 201.635L339.453 202.1V202.093ZM340.807 188.962L340.516 201.032L354.925 200.632L354.758 188.969H340.807V188.962Z" fill="#3577AC"/>
<path d="M355.231 143.537H340.727L341.011 131.838H355.063L355.231 143.537ZM341.79 142.513H354.189L354.051 132.87H342.023L341.79 142.513Z" fill="#3577AC"/>
<path d="M355.479 162.54H340.312L340.626 149.627H355.29L355.472 162.54H355.479ZM341.368 161.508H354.431L354.278 150.652H341.638L341.376 161.508H341.368Z" fill="#3577AC"/>
<path d="M355.703 181.971H339.91L340.245 168.404H355.514L355.71 181.971H355.703ZM340.973 180.946H354.662L354.501 169.436H341.257L340.973 180.946Z" fill="#3577AC"/>
<path d="M345.187 135.668H343.898L345.187 140.995H348.507L358.344 127.508L346.789 137.688L345.187 135.668Z" fill="#3577AC"/>
<path d="M343.574 193.606H342.125L343.574 199.579H347.295L358.347 184.436L345.372 195.873L343.574 193.606Z" fill="#3577AC"/>
<path d="M343.574 214.366H342.125L343.574 220.339H347.295L358.347 205.195L345.372 216.633L343.574 214.366Z" fill="#3577AC"/>
<path d="M420.77 131.64L419.738 131.709L424.339 200.48L425.371 200.411L420.77 131.64Z" fill="#3577AC"/>
<path d="M391.969 134.658H364.512V136.206H391.969V134.658Z" fill="#87A3B9"/>
<path d="M384.719 139.047H365.461V140.595H384.719V139.047Z" fill="#87A3B9"/>
<path d="M399.456 139.047H389.48V140.595H399.456V139.047Z" fill="#87A3B9"/>
<path d="M393.754 151.691H364.746V153.239H393.754V151.691Z" fill="#87A3B9"/>
<path d="M379.25 155.311H364.746V156.858H379.25V155.311Z" fill="#87A3B9"/>
<path d="M399.834 168.143H365.934V169.69H399.834V168.143Z" fill="#87A3B9"/>
<path d="M389.874 174.414H365.934V175.962H389.874V174.414Z" fill="#87A3B9"/>
<path d="M405.775 174.414H394.883V175.962H405.775V174.414Z" fill="#87A3B9"/>
<path d="M380.896 180.146H365.934V181.694H380.896V180.146Z" fill="#87A3B9"/>
<path d="M384.011 191.236H367.359V192.784H384.011V191.236Z" fill="#87A3B9"/>
<path d="M388.773 195.465H367.359V197.013H388.773V195.465Z" fill="#87A3B9"/>
<path d="M386.8 210.842H367.359V212.39H386.8V210.842Z" fill="#87A3B9"/>
<path d="M405.776 210.842H391.73V212.39H405.776V210.842Z" fill="#87A3B9"/>
<path d="M398.755 215.244H367.359V216.792H398.755V215.244Z" fill="#87A3B9"/>
<path d="M381.819 232.605H367.832V234.153H381.819V232.605Z" fill="#87A3B9"/>
<path d="M390.026 237.336H368.066V238.884H390.026V237.336Z" fill="#87A3B9"/>
<path d="M407.18 248.562V247.531C408.345 247.531 452.257 246.593 452.701 246.586L452.723 247.618C450.91 247.654 408.359 248.562 407.18 248.562Z" fill="#3577AC"/>
<path d="M410.224 248.083L409.008 228.746H416.427V229.771H410.107L411.258 248.017L410.224 248.083Z" fill="#3577AC"/>
<path d="M417.554 247.843L416.426 222.882L427.093 222.504L428.789 247.61L417.554 247.843Z" fill="#FDE0DD"/>
<path d="M417.059 248.366L415.887 222.381L427.573 221.967L429.342 248.112L417.059 248.366ZM416.964 223.377L418.042 247.32L428.235 247.109L426.612 223.035L416.964 223.377Z" fill="#3577AC"/>
<path d="M441.227 247.348L440.135 215.527H426.621L428.791 247.61L441.227 247.348Z" fill="#FFEA92"/>
<path d="M428.31 248.133L426.074 215.012H440.636L441.765 247.85L428.317 248.133H428.31ZM427.174 216.044L429.271 247.087L440.695 246.847L439.639 216.044H427.174Z" fill="#3577AC"/>
<path d="M450.8 247.101L449.613 231.311H440.672L441.225 247.348L450.8 247.101Z" fill="#FDC4BF"/>
<path d="M440.731 247.872L440.148 230.795H450.102L451.361 247.595L440.731 247.864V247.872ZM441.211 231.827L441.728 246.818L450.247 246.6L449.141 231.827H441.211Z" fill="#3577AC"/>
<path d="M389.488 260.038L339.988 260.719L340.003 261.751L389.502 261.069L389.488 260.038Z" fill="#87A3B9"/>
<path d="M394.865 264.63L339.715 265.312L339.728 266.344L394.878 265.662L394.865 264.63Z" fill="#87A3B9"/>
<path d="M440.674 142.514H429.949V143.546H440.674V142.514Z" fill="#87A3B9"/>
<path d="M437.555 146.037H430.66V147.069H437.555V146.037Z" fill="#87A3B9"/>
<path d="M440.682 172.771H432.316V173.803H440.682V172.771Z" fill="#87A3B9"/>
<path d="M442.894 176.318H432.496V177.35H442.894V176.318Z" fill="#87A3B9"/>
<path opacity="0.6" d="M64.567 280.935C64.4578 282.744 78.7288 285.106 97.332 286.21C115.935 287.315 131.109 286.741 131.218 284.931C131.327 283.122 116.328 280.76 97.7252 279.656C79.122 278.551 64.6762 279.125 64.567 280.935Z" fill="url(#paint7_linear_2301_116621)"/>
<path d="M61.3494 287.584C60.9125 289.764 71.1716 293.783 85.1659 296.558C99.1529 299.334 110.846 299.821 111.283 297.641C111.72 295.461 100.733 291.443 86.7386 288.667C72.7516 285.891 61.7862 285.404 61.3494 287.584Z" fill="url(#paint8_linear_2301_116621)"/>
<path d="M94.7837 200.116C94.7837 200.116 87.9904 202.42 82.4131 202.151C76.8358 201.882 71.1856 186.033 70.1954 182.211C69.2125 178.389 69.3581 169.771 70.1954 167.779C71.0327 165.796 78.2483 176.71 80.3744 181.237C82.5005 185.764 86.5633 192.457 86.5633 192.457L94.4633 190.648C94.4633 190.648 96.8078 197.129 94.7764 200.109L94.7837 200.116Z" fill="#205972"/>
<g style="mix-blend-mode:multiply" opacity="0.85">
<path d="M94.7837 200.116C94.7837 200.116 87.9904 202.42 82.4131 202.151C76.8358 201.882 71.1856 186.033 70.1954 182.211C69.2125 178.389 69.3581 169.771 70.1954 167.779C71.0327 165.796 78.2483 176.71 80.3744 181.237C82.5005 185.764 86.5633 192.457 86.5633 192.457L94.4633 190.648C94.4633 190.648 96.8078 197.129 94.7764 200.109L94.7837 200.116Z" fill="#205972"/>
</g>
<path d="M79.1301 224.72C80.2441 223.942 84.5472 223.07 84.5472 223.07C84.5472 223.07 83.9502 198.589 83.1055 191.547C82.2609 184.506 82.2973 171.462 71.8999 166.725C68.5797 171.819 72.3441 224.727 72.3441 224.727H79.1228L79.1301 224.72Z" fill="#205972"/>
<g style="mix-blend-mode:multiply" opacity="0.9">
<path d="M79.1301 224.72C80.2441 223.942 84.5472 223.07 84.5472 223.07C84.5472 223.07 83.9502 198.589 83.1055 191.547C82.2609 184.506 82.2973 171.462 71.8999 166.725C68.5797 171.819 72.3441 224.727 72.3441 224.727H79.1228L79.1301 224.72Z" fill="#205972"/>
</g>
<path d="M76.8719 278.843C76.8719 278.843 81.5682 280.703 82.1871 281.699C82.806 282.701 68.6879 282.665 65.375 279.824C67.4283 278.378 76.8791 278.843 76.8791 278.843H76.8719Z" fill="black"/>
<path d="M71.217 288.121C71.217 288.121 76.6195 291.057 76.8889 291.965C77.1583 292.873 70.1321 292.685 66.3677 291.515C62.6034 290.345 58.1328 285.963 58.1328 285.963C58.1328 285.963 68.7123 286.675 71.217 288.121Z" fill="black"/>
<path d="M80.3827 220.229C80.3827 220.229 79.691 240.481 78.7954 250.967C77.8998 261.445 76.4873 275.085 76.8805 278.842C74.8927 280.702 68.2378 280.855 65.3763 279.823C67.0656 264.439 67.9757 252.449 68.1577 246.549C68.3398 240.648 63.7891 218.754 63.7891 218.754L80.3827 220.229Z" fill="#205972"/>
<g style="mix-blend-mode:multiply" opacity="0.8">
<path d="M80.3827 220.229C80.3827 220.229 79.691 240.481 78.7954 250.967C77.8998 261.445 76.4873 275.085 76.8805 278.842C74.8927 280.702 68.2378 280.855 65.3763 279.823C67.0656 264.439 67.9757 252.449 68.1577 246.549C68.3398 240.648 63.7891 218.754 63.7891 218.754L80.3827 220.229Z" fill="#205972"/>
</g>
<path d="M57.957 217.039C57.957 217.039 62.5732 231.95 62.3985 241.092C62.2165 250.226 57.7532 275.862 58.1318 285.956C62.0563 288.419 71.2159 288.114 71.2159 288.114C71.2159 288.114 75.2205 238.098 75.1623 231.645C75.104 225.192 74.7109 217.039 74.7109 217.039H57.9643H57.957Z" fill="#205972"/>
<g style="mix-blend-mode:multiply" opacity="0.4">
<path d="M58.124 285.694C59.8496 285.28 62.9149 284.364 63.7814 282.933C65.0119 280.898 68.7398 266.074 69.2058 263.713C69.6718 261.351 70.5601 241.368 69.5116 237.916C68.6088 234.93 61.4077 225.141 59.4855 222.562C58.6482 219.284 57.9492 217.039 57.9492 217.039H74.6958C74.6958 217.039 75.0889 225.192 75.1472 231.645C75.2054 238.098 71.2008 288.114 71.2008 288.114C71.2008 288.114 62.0412 288.419 58.1167 285.956C58.1167 285.876 58.1167 285.781 58.1167 285.694H58.124Z" fill="#205972"/>
</g>
<g style="mix-blend-mode:multiply" opacity="0.4">
<path d="M74.7008 217.039C74.7008 217.039 75.0358 223.971 75.1377 230.119L59.5124 222.591C59.5124 222.591 59.4979 222.569 59.4906 222.562C59.1921 221.406 58.9154 220.374 58.6824 219.532C58.5877 218.732 58.4931 217.86 58.3984 217.039H74.7008Z" fill="#205972"/>
</g>
<path d="M71.7042 219.931C71.7042 219.931 78.4902 221.311 81.1478 219.931C80.5362 212.846 80.1867 200.856 80.6236 194.41C81.1478 186.744 79.3785 178.489 77.6092 174.064C75.8399 169.638 72.7964 168.221 72.7964 168.221L66.3672 164.799L71.7042 219.938V219.931Z" fill="white"/>
<path opacity="0.5" d="M71.7773 186.998C71.7773 186.998 73.6267 177.261 72.5272 168.076L72.7966 168.222C72.7966 168.222 75.8401 169.638 77.6094 174.064C79.3787 178.489 81.1481 186.744 80.6238 194.41C80.187 200.863 80.5364 212.846 81.1481 219.931C78.4905 221.312 71.7045 219.931 71.7045 219.931L70.1172 203.508L71.7773 186.991V186.998Z" fill="#B69CC2"/>
<path d="M73.7564 206.671C81.2996 194.346 78.5837 176.972 78.5692 176.885C79.9453 181.521 81.0447 188.163 80.6152 194.412C80.1783 200.865 80.5278 212.847 81.1394 219.932C78.4818 221.313 71.6958 219.932 71.6958 219.932L70.9531 212.244C71.623 210.522 72.5258 208.662 73.7491 206.671H73.7564Z" fill="#B69CC2"/>
<path d="M75.8609 225.274C75.8609 225.274 77.3609 210.057 76.7128 198.518C76.0648 186.978 73.8805 176.347 72.3515 172.511C70.8224 168.681 67.6187 166.414 67.6187 166.414L65.7839 163.18L65.7038 162.562C65.7038 162.562 59.4639 163.064 57.0102 174.327C54.5856 185.452 55.9617 214.475 54.6875 220.376C58.5101 226.371 67.9173 224.518 75.8609 225.266V225.274Z" fill="#205972"/>
<path opacity="0.3" d="M55.082 216.625C55.6427 206.662 54.9218 183.896 57.0042 174.333C59.458 163.07 65.6979 162.568 65.6979 162.568L65.7561 162.997L64.4164 164.16C64.4164 164.16 60.1497 165.206 57.9581 175.605C55.7665 186.003 57.5139 209.518 55.2131 216.298C55.1694 216.414 55.1257 216.523 55.082 216.625Z" fill="white"/>
<g style="mix-blend-mode:multiply" opacity="0.2">
<path d="M54.6797 220.39C54.9564 219.111 55.1093 216.756 55.1966 213.734C55.5534 216.895 56.1505 219.903 57.148 220.542C70.7418 224.546 73.7707 214.845 73.7489 210.791C73.7271 206.743 73.13 199.099 67.5818 197.82C63.2932 196.831 62.2448 186.731 62.2448 186.731C62.2448 186.731 59.092 165.178 64.2034 166.355C67.1595 167.031 70.9238 172.277 73.5814 176.587C74.8702 181.739 76.2172 189.87 76.705 198.517C77.3603 210.057 75.8531 225.273 75.8531 225.273C67.9022 224.532 58.5023 226.377 54.6797 220.383V220.39Z" fill="#205972"/>
</g>
<path d="M82.1668 147.389C82.1668 147.389 82.1668 151.19 81.9702 152.411C81.7809 153.624 82.8731 156.654 83.0842 156.981C83.2954 157.308 82.2688 157.628 81.1402 158.02C80.7106 160.23 79.7058 163.151 79.1743 163.739C78.6428 164.328 73.1674 162.969 73.1674 162.969L72.7087 167.184L65.3984 162.969C65.3984 162.969 67.3571 160.186 67.1532 158.936C66.942 157.679 64.4883 149.816 68.6749 146.852C72.8616 143.887 79.9534 144.076 82.1668 147.404V147.389Z" fill="#E8A6A3"/>
<g style="mix-blend-mode:multiply" opacity="0.7">
<path d="M65.7023 162.569C72.7941 164.677 72.0805 161.596 72.0805 161.596C72.0805 161.596 77.7816 163.005 78.284 162.322C78.7864 161.639 80.0606 156.56 80.0606 156.56L81.91 156.836C81.91 156.836 81.1819 155.143 81.1455 153.203C81.1091 151.263 81.1819 148.479 78.2913 147.993C77.5778 150.536 74.7964 151.866 74.7964 151.866L73.1436 154.714L71.8475 145.333C75.8012 144.127 80.4538 144.81 82.1721 147.397C82.1721 147.397 82.1721 151.197 81.9755 152.418C81.7862 153.631 82.8784 156.662 83.0896 156.989C83.3007 157.316 82.2741 157.635 81.1455 158.028C80.7159 160.237 79.7111 163.158 79.1796 163.747C78.6481 164.335 73.1727 162.976 73.1727 162.976L72.714 167.191L65.4766 163.013C65.5567 162.867 65.6295 162.722 65.7168 162.577L65.7023 162.569Z" fill="#E8A6A3"/>
</g>
<path d="M73.129 154.714C73.129 154.714 74.2867 153.166 74.2358 150.702C76.857 150.702 77.4977 148.61 77.5996 147.396C80.3737 147.091 83.3954 147.265 84.2182 146.662C85.0482 146.059 79.0267 141.997 75.4226 141.699C71.8184 141.401 67.8138 142.418 65.8698 144.758C63.9257 147.636 67.326 159.328 67.326 159.328C67.326 159.328 69.4594 155.971 70.1219 155.382C70.7845 154.786 73.129 154.728 73.129 154.728V154.714Z" fill="#C36357"/>
<g style="mix-blend-mode:multiply" opacity="0.4">
<path d="M78.2852 152.766H80.3748C80.3748 152.766 79.5885 154.699 78.2852 152.766Z" fill="black"/>
</g>
<path d="M64.4219 164.159L65.5577 161.602L73.7053 166.158L74.2514 171.114L64.4219 164.159Z" fill="white"/>
<path d="M63.0897 165.918C64.8372 166.122 69.883 169.908 73.407 186.534C78.1397 187.653 91.9156 187.929 91.9156 187.929C91.9156 187.929 93.6776 193.946 91.9156 198.524C83.6006 197.586 66.1478 195.951 65.041 195.951C63.7523 195.828 59.005 179.667 59.0196 175.561C59.0341 171.448 59.988 165.555 63.0824 165.918H63.0897Z" fill="#205972"/>
<g style="mix-blend-mode:multiply" opacity="0.4">
<path d="M63.0897 165.918C64.8372 166.122 69.883 169.908 73.407 186.534C78.1397 187.653 91.9156 187.929 91.9156 187.929C91.9156 187.929 93.6776 193.946 91.9156 198.524C83.6006 197.586 66.1478 195.951 65.041 195.951C63.7523 195.828 59.005 179.667 59.0196 175.561C59.0341 171.448 59.988 165.555 63.0824 165.918H63.0897Z" fill="#205972"/>
</g>
<g style="mix-blend-mode:multiply" opacity="0.4">
<path d="M87.2481 195.166C90.7648 193.662 90.8668 190.167 90.5027 187.893C91.3837 187.914 91.9153 187.929 91.9153 187.929C91.9153 187.929 93.6773 193.946 91.9153 198.524C85.3914 197.79 73.2611 196.627 67.793 196.162C72.7805 196.482 83.1925 196.903 87.2481 195.166Z" fill="#205972"/>
</g>
<g style="mix-blend-mode:multiply" opacity="0.2">
<path d="M73.3997 186.534L71.776 186.999L92.4179 190.327C92.7601 192.5 92.9786 195.77 91.9155 198.524C89.44 198.248 86.1635 197.906 82.7486 197.565C77.2441 191.991 65.2813 187.479 65.2813 187.479C65.2813 187.479 64.8007 186.752 67.7131 186.541C67.7131 186.222 66.7884 169.893 64.2109 166.369C66.4681 167.75 70.4654 172.677 73.3997 186.541V186.534Z" fill="#205972"/>
</g>
<g style="mix-blend-mode:multiply" opacity="0.8">
<path d="M90.6777 195.792C91.3258 194.724 91.6388 192.137 91.7917 190.219L92.4179 190.32C92.7601 192.493 92.9786 195.763 91.9155 198.517C89.44 198.241 86.1635 197.9 82.7486 197.558C82.6758 197.478 82.5884 197.405 82.5156 197.333C86.1853 197.137 90.1171 196.715 90.685 195.792H90.6777Z" fill="#205972"/>
</g>
<path d="M91.9141 187.93H94.7027C94.7027 187.93 95.4308 193.045 92.7004 195.167C92.6713 192.74 92.7732 190.073 91.9141 187.93Z" fill="white"/>
<path d="M94.697 187.93L98.505 186.745C98.505 186.745 99.1312 184.994 99.9175 184.209C100.704 183.424 102.342 183.962 103.311 184.209C104.279 184.456 106.223 184.275 106.463 184.638C106.704 185.001 107.009 187.239 106.463 187.937C105.917 188.635 99.4224 191.556 99.4224 191.556L94.2383 192.922C94.2383 192.922 95.112 190.815 94.6897 187.937L94.697 187.93Z" fill="#E8A6A3"/>
<g style="mix-blend-mode:multiply" opacity="0.7">
<path d="M104.141 184.318C105.117 184.391 106.282 184.355 106.471 184.631C106.711 184.994 107.017 187.232 106.471 187.93C105.925 188.627 99.4302 191.549 99.4302 191.549L94.2461 192.915C94.2461 192.915 94.7412 191.723 94.8067 189.906C96.3649 189.579 98.2944 189.063 99.2919 188.359C100.683 187.378 103.049 185.299 104.141 184.326V184.318Z" fill="#E8A6A3"/>
</g>
<path d="M101.161 183.794C101.161 183.794 100.346 182.45 99.9164 180.997C99.4868 179.543 102.523 182.203 103.309 184.201C102.057 183.896 101.154 183.794 101.154 183.794H101.161Z" fill="#258BC0"/>
<g style="mix-blend-mode:multiply">
<path d="M89.9648 200.349L94.4718 190.655L109.988 187L110.41 188.773L98.8842 196.694L89.9648 200.349Z" fill="black"/>
</g>
<path d="M91.9141 199.709C91.9141 199.709 92.8679 200.436 95.7585 200.007C98.6418 199.586 99.4282 197.064 99.2825 196.178C99.1296 195.284 96.1735 197.805 96.1735 197.805C96.1735 197.805 96.4647 195.829 96.2172 195.531C95.9769 195.226 93.8654 199.07 91.9141 199.709Z" fill="#E8A6A3"/>
<path opacity="0.5" d="M91.0133 199.92L89.9648 200.349L94.4718 190.655L109.988 187L110.41 188.773L95.0543 191.956L91.0133 199.92Z" fill="#B69CC2"/>
<g style="mix-blend-mode:multiply" opacity="0.4">
<path d="M71.9956 141.801C73.1315 141.634 74.2965 141.597 75.425 141.692C79.0292 141.99 85.0434 146.052 84.2206 146.655C83.3906 147.258 80.3762 147.084 77.6021 147.389C77.5001 148.602 76.8594 150.695 74.2382 150.695C74.2892 153.159 73.1315 154.706 73.1315 154.706C73.1315 154.706 72.265 154.728 71.435 154.881L70.5977 150.47C70.5977 150.47 71.6753 151.051 73.1315 151.378C73.3354 149.438 74.5003 148.595 75.1556 147.389C75.8109 146.183 77.5366 146.175 77.5293 144.889C77.5293 143.792 76.4517 142.288 71.9883 141.794L71.9956 141.801Z" fill="#7A4B90"/>
</g>
<path d="M72.3453 156.835C72.3453 156.835 69.0906 155.984 69.2144 152.475C69.3382 148.965 72.7457 150.295 73.1316 154.713C73.037 155.861 72.3453 156.835 72.3453 156.835Z" fill="#E8A6A3"/>
<path opacity="0.2" d="M63.0902 165.919C63.3087 165.948 63.5781 166.028 63.8839 166.181C61.6413 167.321 60.3234 172.03 62.2529 182.211C63.9057 190.923 64.8377 194.586 65.2382 195.959C65.1581 195.959 65.0853 195.959 65.0488 195.959C63.7601 195.836 59.0128 179.675 59.0274 175.569C59.0419 171.456 59.9958 165.563 63.0902 165.926V165.919Z" fill="white"/>
<path opacity="0.3" d="M61.0359 229.291C62.3247 233.695 63.8974 239.435 63.7809 240.881C63.5843 243.301 62.6888 259.048 62.099 260.501C61.6184 261.7 59.1137 279.729 58.2473 286.029C58.2036 286.007 58.1599 285.985 58.1235 285.956C57.7522 275.863 62.2155 250.226 62.3902 241.092C62.4558 237.619 61.8296 233.302 61.0287 229.291H61.0359Z" fill="white"/>
<defs>
<linearGradient id="paint0_linear_2301_116621" x1="386.138" y1="73.058" x2="323.335" y2="140.61" gradientUnits="userSpaceOnUse">
<stop stop-opacity="0"/>
<stop offset="1" stop-opacity="0.5"/>
</linearGradient>
<linearGradient id="paint1_linear_2301_116621" x1="370.274" y1="62.7474" x2="387.368" y2="79.1129" gradientUnits="userSpaceOnUse">
<stop stop-opacity="0"/>
<stop offset="1" stop-opacity="0.5"/>
</linearGradient>
<linearGradient id="paint2_linear_2301_116621" x1="379.753" y1="66.1111" x2="413.464" y2="66.1111" gradientUnits="userSpaceOnUse">
<stop stop-opacity="0"/>
<stop offset="1" stop-opacity="0.5"/>
</linearGradient>
<linearGradient id="paint3_linear_2301_116621" x1="12.1875" y1="276.395" x2="272.298" y2="276.395" gradientUnits="userSpaceOnUse">
<stop stop-opacity="0"/>
<stop offset="1" stop-opacity="0.5"/>
</linearGradient>
<linearGradient id="paint4_linear_2301_116621" x1="65.6836" y1="276.366" x2="270.457" y2="276.366" gradientUnits="userSpaceOnUse">
<stop stop-opacity="0"/>
<stop offset="1" stop-opacity="0.5"/>
</linearGradient>
<linearGradient id="paint5_linear_2301_116621" x1="320.099" y1="237.226" x2="327.888" y2="148.861" gradientUnits="userSpaceOnUse">
<stop stop-opacity="0"/>
<stop offset="1" stop-opacity="0.5"/>
</linearGradient>
<linearGradient id="paint6_linear_2301_116621" x1="248.359" y1="285.396" x2="467.273" y2="285.396" gradientUnits="userSpaceOnUse">
<stop stop-opacity="0"/>
<stop offset="1" stop-opacity="0.5"/>
</linearGradient>
<linearGradient id="paint7_linear_2301_116621" x1="131.233" y1="285.037" x2="64.577" y2="281.057" gradientUnits="userSpaceOnUse">
<stop stop-opacity="0"/>
<stop offset="1" stop-opacity="0.5"/>
</linearGradient>
<linearGradient id="paint8_linear_2301_116621" x1="117.744" y1="299.771" x2="67.4827" y2="289.753" gradientUnits="userSpaceOnUse">
<stop stop-opacity="0"/>
<stop offset="1" stop-opacity="0.5"/>
</linearGradient>
</defs>
</svg>
