<svg width="442" height="317" viewBox="0 0 442 317" fill="none" xmlns="http://www.w3.org/2000/svg">
<g clip-path="url(#clip0_2370_113310)">
<path d="M376.829 51.9297L360.949 79.4397H392.709L376.829 51.9297Z" fill="#062B6B"/>
<path d="M36.5487 306.14C43.4965 306.14 49.1288 300.508 49.1288 293.56C49.1288 286.613 43.4965 280.98 36.5487 280.98C29.601 280.98 23.9688 286.613 23.9688 293.56C23.9688 300.508 29.601 306.14 36.5487 306.14Z" fill="#062B6B"/>
<path d="M24.9412 214.31C28.4814 214.31 31.3512 211.44 31.3512 207.9C31.3512 204.36 28.4814 201.49 24.9412 201.49C21.4011 201.49 18.5312 204.36 18.5312 207.9C18.5312 211.44 21.4011 214.31 24.9412 214.31Z" fill="#062B6B"/>
<path d="M26.6 210.27C9.69 194.59 0 172.39 0 149.35C0 132.5 5.02 116.28 14.51 102.43L15.33 103C5.95 116.68 1 132.71 1 149.35C1 172.11 10.58 194.05 27.28 209.54L26.6 210.27Z" fill="#062B6B"/>
<path d="M414.659 164.32L413.979 163.59C430.739 148.03 440.059 126.88 440.219 104.02C440.509 63.9697 412.149 29.7497 372.789 22.6597L372.969 21.6797C412.809 28.8497 441.509 63.4797 441.219 104.03C441.049 127.16 431.619 148.57 414.659 164.32Z" fill="#062B6B"/>
<path d="M374.489 27.4004C377.109 27.4004 379.609 25.1004 379.489 22.4004C379.369 19.7004 377.289 17.4004 374.489 17.4004C371.869 17.4004 369.369 19.7004 369.489 22.4004C369.609 25.1004 371.689 27.4004 374.489 27.4004Z" fill="#062B6B"/>
<path d="M26.9394 123.029C31.1194 123.029 31.1294 116.529 26.9394 116.529C22.7494 116.529 22.7494 123.029 26.9394 123.029Z" fill="#062B6B"/>
<path d="M110.611 245.98C114.791 245.98 114.801 239.48 110.611 239.48C106.421 239.48 106.421 245.98 110.611 245.98Z" fill="#C42A28"/>
<path d="M280.842 18.3203C285.022 18.3203 285.032 11.8203 280.842 11.8203C276.652 11.8203 276.652 18.3203 280.842 18.3203Z" fill="#062B6B"/>
<path d="M269.991 4.89062C272.401 4.89062 272.411 1.14062 269.991 1.14062C267.571 1.14062 267.571 4.89062 269.991 4.89062Z" fill="#062B6B"/>
<path d="M18.5298 269.619C20.9398 269.619 20.9498 265.869 18.5298 265.869C16.1098 265.869 16.1098 269.619 18.5298 269.619Z" fill="#062B6B"/>
<path d="M396.471 47.8105C398.881 47.8105 398.891 44.0605 396.471 44.0605C394.051 44.0605 394.051 47.8105 396.471 47.8105Z" fill="#062B6B"/>
<path d="M312.01 189.24C316.19 189.24 316.2 182.74 312.01 182.74C307.82 182.74 307.82 189.24 312.01 189.24Z" fill="#C42A28"/>
<path d="M95.9088 46.6191C98.3188 46.6191 98.3288 42.8691 95.9088 42.8691C93.4887 42.8691 93.4887 46.6191 95.9088 46.6191Z" fill="#062B6B"/>
<path d="M420.792 217.289C423.202 217.289 423.212 213.539 420.792 213.539C418.372 213.539 418.372 217.289 420.792 217.289Z" fill="#062B6B"/>
<path d="M255.103 291.891C255.103 291.891 252.953 304.111 263.693 311.621H168.703C168.703 311.621 180.483 305.181 178.363 291.891H255.103Z" fill="#156BA8"/>
<path d="M265.282 312.121H166.762L168.472 311.181C168.582 311.121 179.912 304.741 177.882 291.961L177.792 291.381H255.712L255.612 291.971C255.592 292.091 253.652 303.971 263.992 311.211L265.292 312.121H265.282ZM170.372 311.121H262.192C253.922 304.461 254.282 294.841 254.532 292.391H178.942C180.292 302.671 173.432 308.891 170.362 311.121H170.372Z" fill="#2A49A8"/>
<path d="M269.331 316.241H164.171C162.771 316.241 161.621 315.091 161.621 313.691C161.621 312.291 162.771 311.141 164.171 311.141H269.331C270.731 311.141 271.881 312.291 271.881 313.691C271.881 315.091 270.731 316.241 269.331 316.241Z" fill="#FFFEFF"/>
<path d="M269.331 316.741H164.171C162.491 316.741 161.121 315.371 161.121 313.691C161.121 312.011 162.491 310.641 164.171 310.641H269.331C271.011 310.641 272.381 312.011 272.381 313.691C272.381 315.371 271.011 316.741 269.331 316.741ZM164.171 311.651C163.041 311.651 162.121 312.571 162.121 313.701C162.121 314.831 163.041 315.751 164.171 315.751H269.331C270.461 315.751 271.381 314.831 271.381 313.701C271.381 312.571 270.461 311.651 269.331 311.651H164.171Z" fill="#2A49A8"/>
<path d="M368.12 61.5H65.3795C59.3817 61.5 54.5195 66.3622 54.5195 72.36V284.69C54.5195 290.688 59.3817 295.55 65.3795 295.55H368.12C374.117 295.55 378.98 290.688 378.98 284.69V72.36C378.98 66.3622 374.117 61.5 368.12 61.5Z" fill="#FFFEFF"/>
<path d="M368.12 296.05H65.3795C59.1195 296.05 54.0195 290.95 54.0195 284.69V72.36C54.0195 66.1 59.1195 61 65.3795 61H368.12C374.38 61 379.48 66.1 379.48 72.36V284.69C379.48 290.95 374.38 296.05 368.12 296.05ZM65.3795 62C59.6695 62 55.0195 66.65 55.0195 72.36V284.69C55.0195 290.4 59.6695 295.05 65.3795 295.05H368.12C373.83 295.05 378.48 290.4 378.48 284.69V72.36C378.48 66.65 373.83 62 368.12 62H65.3795Z" fill="#2A49A8"/>
<path d="M54.5195 260.82V72.36C54.5195 66.39 59.4095 61.5 65.3795 61.5H368.12C374.09 61.5 378.98 66.39 378.98 72.36V260.82H54.5195Z" fill="#156BA8"/>
<path d="M379.48 261.32H54.0195V72.36C54.0195 66.1 59.1195 61 65.3795 61H368.12C374.38 61 379.48 66.1 379.48 72.36V261.32ZM55.0195 260.32H378.48V72.36C378.48 66.65 373.83 62 368.12 62H65.3795C59.6695 62 55.0195 66.65 55.0195 72.36V260.32Z" fill="#2A49A8"/>
<path d="M366.289 246.919V74.1895L67.2091 74.1895V246.919L366.289 246.919Z" fill="#C3E3F4"/>
<path d="M366.791 247.419H66.7109V73.6895H366.791V247.419ZM67.7109 246.419H365.791V74.6895H67.7109V246.419Z" fill="#2A49A8"/>
<path d="M223.701 278.03C223.701 274.19 220.591 271.08 216.751 271.08C212.911 271.08 209.801 274.19 209.801 278.03C209.801 281.87 212.911 284.98 216.751 284.98C220.591 284.98 223.701 281.87 223.701 278.03Z" fill="#156BA8"/>
<path d="M413.601 197.659C413.371 197.659 413.141 197.579 412.961 197.419L394.801 182.109L376.641 197.419C376.271 197.729 375.721 197.729 375.351 197.419L357.191 182.109L339.041 197.419C338.671 197.729 338.121 197.729 337.751 197.419L319.591 182.109L301.431 197.419C301.061 197.729 300.511 197.729 300.141 197.419L281.341 181.559C280.921 181.199 280.861 180.569 281.221 180.149C281.581 179.729 282.211 179.669 282.631 180.029L300.781 195.339L318.941 180.029C319.311 179.719 319.861 179.719 320.231 180.029L338.391 195.339L356.541 180.029C356.911 179.719 357.461 179.719 357.831 180.029L375.991 195.339L394.151 180.029C394.521 179.719 395.071 179.719 395.441 180.029L414.241 195.889C414.661 196.249 414.721 196.879 414.361 197.299C414.161 197.529 413.881 197.659 413.591 197.659H413.601Z" fill="#062B6B"/>
<path d="M87.8495 135.33H101.16C103.13 143.65 109.56 145.15 113.29 145.29C114.03 145.32 114.39 144.36 113.8 143.91C109.69 140.72 111.24 135.33 111.24 135.33H117.43C123.94 135.33 129.26 130.01 129.26 123.5V111.67C129.26 105.16 123.94 99.8398 117.43 99.8398H87.8495C81.3395 99.8398 76.0195 105.16 76.0195 111.67V123.5C76.0195 130.01 81.3395 135.33 87.8495 135.33Z" fill="#062B6B"/>
<path d="M111.699 117.181C111.699 115.311 113.219 113.801 115.079 113.801C116.939 113.801 118.459 115.321 118.459 117.181C118.459 119.041 116.939 120.561 115.079 120.561C113.219 120.561 111.699 119.041 111.699 117.181Z" fill="#FFFEFF"/>
<path d="M99.2617 117.181C99.2617 115.311 100.782 113.801 102.642 113.801C104.502 113.801 106.022 115.321 106.022 117.181C106.022 119.041 104.502 120.561 102.642 120.561C100.782 120.561 99.2617 119.041 99.2617 117.181Z" fill="#FFFEFF"/>
<path d="M86.8281 117.181C86.8281 115.311 88.3481 113.801 90.2081 113.801C92.0681 113.801 93.5881 115.321 93.5881 117.181C93.5881 119.041 92.0681 120.561 90.2081 120.561C88.3481 120.561 86.8281 119.041 86.8281 117.181Z" fill="#FFFEFF"/>
<path d="M291.201 28.9902H142.301V225.02H270.481L291.201 204.3V28.9902Z" fill="#FFFEFF"/>
<path d="M270.481 225.52H142.301C142.021 225.52 141.801 225.3 141.801 225.02V28.9902C141.801 28.7102 142.021 28.4902 142.301 28.4902H291.201C291.481 28.4902 291.701 28.7102 291.701 28.9902V204.29C291.701 204.42 291.651 204.55 291.551 204.64L270.831 225.36C270.741 225.45 270.611 225.51 270.481 225.51V225.52ZM142.801 224.52H270.271L290.701 204.09V29.4902H142.801V224.52Z" fill="#2A49A8"/>
<path d="M271.61 219.051H148.77C148.49 219.051 148.27 218.831 148.27 218.551V35.4707C148.27 35.1907 148.49 34.9707 148.77 34.9707H284.72C285 34.9707 285.22 35.1907 285.22 35.4707V204.961C285.22 205.241 285 205.461 284.72 205.461C284.44 205.461 284.22 205.241 284.22 204.961V35.9707H149.27V218.051H271.61C271.89 218.051 272.11 218.271 272.11 218.551C272.11 218.831 271.89 219.051 271.61 219.051Z" fill="#FFCF47"/>
<path d="M270.48 225.021L291.2 204.301H270.48V225.021Z" fill="#2A49A8"/>
<path d="M270.48 225.521C270.42 225.521 270.35 225.511 270.29 225.481C270.1 225.401 269.98 225.221 269.98 225.021V204.301C269.98 204.021 270.2 203.801 270.48 203.801H291.2C291.4 203.801 291.58 203.921 291.66 204.111C291.74 204.301 291.69 204.511 291.55 204.651L270.83 225.371C270.73 225.471 270.61 225.521 270.48 225.521ZM270.98 204.801V223.821L290 204.801H270.98Z" fill="#2A49A8"/>
<path d="M270.48 225.021L291.2 204.301H270.48V225.021Z" fill="#698099"/>
<path d="M270.48 225.521C270.42 225.521 270.35 225.511 270.29 225.481C270.1 225.401 269.98 225.221 269.98 225.021V204.301C269.98 204.021 270.2 203.801 270.48 203.801H291.2C291.4 203.801 291.58 203.921 291.66 204.111C291.74 204.301 291.69 204.511 291.55 204.651L270.83 225.371C270.73 225.471 270.61 225.521 270.48 225.521ZM270.98 204.801V223.821L290 204.801H270.98Z" fill="#2A49A8"/>
<path d="M270.002 109.76H163.512V110.76H270.002V109.76Z" fill="#2A49A8"/>
<path d="M270.002 119.061H163.512V120.061H270.002V119.061Z" fill="#2A49A8"/>
<path d="M270.002 100.461H163.512V101.461H270.002V100.461Z" fill="#2A49A8"/>
<path d="M270.002 128.461H163.512V129.461H270.002V128.461Z" fill="#2A49A8"/>
<path d="M270.002 137.76H163.512V138.76H270.002V137.76Z" fill="#2A49A8"/>
<path d="M254.142 147.061H179.352V148.061H254.142V147.061Z" fill="#2A49A8"/>
<path d="M213.982 50.1895H163.512V51.1895H213.982V50.1895Z" fill="#2A49A8"/>
<path d="M203.432 56.5801H163.512V57.5801H203.432V56.5801Z" fill="#2A49A8"/>
<path d="M211.874 208.661L207.194 203.781L200.434 204.131L207.824 185.871L219.254 190.401L211.874 208.661Z" fill="#062B6B"/>
<path d="M212.042 209.56L206.982 204.29L199.672 204.67L207.542 185.23L219.902 190.13L212.042 209.57V209.56ZM207.392 203.27L211.692 207.76L218.602 190.69L208.102 186.53L201.202 203.6L207.402 203.28L207.392 203.27Z" fill="#2A49A8"/>
<path d="M221.46 208.661L226.14 203.781L232.9 204.131L225.68 185.871L214.25 190.401L221.46 208.661Z" fill="#062B6B"/>
<path d="M221.292 209.571L213.602 190.121L225.962 185.221L233.642 204.671L226.342 204.291L221.282 209.571H221.292ZM214.902 190.681L221.652 207.751L225.952 203.271L232.152 203.591L225.402 186.521L214.902 190.681Z" fill="#2A49A8"/>
<path d="M234.828 177.909L235.508 174.599L233.748 171.719L233.238 168.379L230.598 166.289L228.988 163.319L225.788 162.249L223.268 160.009L219.888 160.099L216.748 158.869L213.608 160.099L210.228 160.009L207.708 162.249L204.508 163.319L202.898 166.289L200.258 168.389L199.748 171.719L197.988 174.599L198.668 177.909L197.988 181.219L199.748 184.099L200.258 187.429L202.898 189.529L204.508 192.499L207.708 193.569L210.238 195.809L213.608 195.719L216.748 196.949L219.888 195.719L223.268 195.809L225.788 193.569L228.988 192.499L230.598 189.529L233.248 187.429L233.748 184.099L235.508 181.219L234.828 177.909Z" fill="#91CBE9"/>
<path d="M216.749 197.49L213.519 196.22L210.049 196.31L207.449 194.01L204.159 192.91L202.499 189.86L199.779 187.7L199.259 184.27L197.449 181.31L198.139 177.91L197.449 174.51L199.259 171.55L199.779 168.12L202.499 165.96L204.159 162.91L207.449 161.81L210.049 159.51L213.519 159.6L216.749 158.33L219.979 159.6L223.449 159.51L226.049 161.81L229.339 162.91L230.999 165.96L233.719 168.12L234.239 171.55L236.049 174.51L235.359 177.91L236.049 181.31L234.239 184.27L233.719 187.7L230.999 189.86L229.339 192.91L226.049 194.01L223.449 196.31L219.979 196.22L216.749 197.49ZM213.699 195.22L216.749 196.42L219.799 195.22L223.079 195.31L225.629 193.1L228.639 192.09L230.289 189.14L232.779 187.16L233.319 183.83L234.979 181.12L234.319 177.91L234.979 174.69L233.249 171.79L232.779 168.65L230.159 166.52L228.639 163.73L225.459 162.62L223.079 160.51L219.799 160.6L216.749 159.4L213.699 160.6L210.419 160.51L207.869 162.72L204.859 163.73L203.209 166.67L200.719 168.65L200.179 171.98L198.519 174.69L199.179 177.9L198.519 181.12L200.249 184.02L200.719 187.16L203.339 189.29L204.859 192.08L208.039 193.19L210.419 195.3L213.699 195.21V195.22Z" fill="#2A49A8"/>
<path d="M216.751 191.039C209.511 191.039 203.621 185.149 203.621 177.909C203.621 170.669 209.511 164.779 216.751 164.779C223.991 164.779 229.881 170.669 229.881 177.909C229.881 185.149 223.991 191.039 216.751 191.039ZM216.751 165.529C209.921 165.529 204.371 171.079 204.371 177.909C204.371 184.739 209.921 190.289 216.751 190.289C223.581 190.289 229.131 184.739 229.131 177.909C229.131 171.079 223.581 165.529 216.751 165.529Z" fill="#2A49A8"/>
<path d="M160.86 85.3493H158.59V75.5293H166.01V77.3493H160.86V85.3493ZM160.69 79.9493H165.4V81.7693H160.69V79.9493Z" fill="#2A49A8"/>
<path d="M173.618 85.5194C172.838 85.5194 172.128 85.3894 171.468 85.1394C170.808 84.8894 170.238 84.5294 169.758 84.0694C169.278 83.6094 168.898 83.0694 168.638 82.4594C168.378 81.8494 168.238 81.1694 168.238 80.4394C168.238 79.7094 168.368 79.0394 168.638 78.4194C168.908 77.7994 169.278 77.2594 169.768 76.8094C170.258 76.3494 170.828 75.9994 171.478 75.7394C172.128 75.4894 172.848 75.3594 173.608 75.3594C174.368 75.3594 175.098 75.4894 175.748 75.7394C176.398 75.9894 176.968 76.3494 177.448 76.8094C177.928 77.2694 178.308 77.7994 178.578 78.4194C178.848 79.0294 178.988 79.7094 178.988 80.4494C178.988 81.1894 178.848 81.8594 178.578 82.4794C178.308 83.0994 177.928 83.6394 177.448 84.0894C176.968 84.5394 176.398 84.8994 175.748 85.1494C175.098 85.3994 174.388 85.5294 173.618 85.5294V85.5194ZM173.608 83.5794C174.048 83.5794 174.448 83.5094 174.818 83.3594C175.188 83.2094 175.508 82.9994 175.788 82.7094C176.068 82.4294 176.288 82.0994 176.438 81.7094C176.588 81.3294 176.668 80.8994 176.668 80.4294C176.668 79.9594 176.588 79.5394 176.438 79.1494C176.288 78.7694 176.068 78.4294 175.788 78.1494C175.508 77.8694 175.188 77.6494 174.818 77.4994C174.448 77.3494 174.038 77.2794 173.598 77.2794C173.158 77.2794 172.758 77.3594 172.388 77.4994C172.018 77.6494 171.698 77.8594 171.418 78.1494C171.138 78.4294 170.918 78.7594 170.768 79.1494C170.618 79.5294 170.538 79.9594 170.538 80.4294C170.538 80.8994 170.618 81.3094 170.768 81.6994C170.918 82.0894 171.138 82.4194 171.418 82.6994C171.698 82.9794 172.018 83.1994 172.388 83.3494C172.758 83.4994 173.168 83.5694 173.608 83.5694V83.5794Z" fill="#2A49A8"/>
<path d="M186.868 85.5194C186.088 85.5194 185.378 85.3894 184.718 85.1394C184.058 84.8894 183.488 84.5294 183.008 84.0694C182.528 83.6094 182.148 83.0694 181.888 82.4594C181.628 81.8494 181.488 81.1694 181.488 80.4394C181.488 79.7094 181.618 79.0394 181.888 78.4194C182.158 77.7994 182.528 77.2594 183.018 76.8094C183.508 76.3494 184.078 75.9994 184.728 75.7394C185.378 75.4894 186.098 75.3594 186.858 75.3594C187.618 75.3594 188.348 75.4894 188.998 75.7394C189.648 75.9894 190.218 76.3494 190.698 76.8094C191.178 77.2694 191.558 77.7994 191.828 78.4194C192.098 79.0294 192.238 79.7094 192.238 80.4494C192.238 81.1894 192.098 81.8594 191.828 82.4794C191.558 83.0994 191.178 83.6394 190.698 84.0894C190.218 84.5394 189.648 84.8994 188.998 85.1494C188.348 85.3994 187.638 85.5294 186.868 85.5294V85.5194ZM186.848 83.5794C187.288 83.5794 187.688 83.5094 188.058 83.3594C188.428 83.2094 188.748 82.9994 189.028 82.7094C189.308 82.4294 189.528 82.0994 189.678 81.7094C189.828 81.3294 189.908 80.8994 189.908 80.4294C189.908 79.9594 189.828 79.5394 189.678 79.1494C189.528 78.7694 189.308 78.4294 189.028 78.1494C188.748 77.8694 188.428 77.6494 188.058 77.4994C187.688 77.3494 187.278 77.2794 186.838 77.2794C186.398 77.2794 185.998 77.3594 185.628 77.4994C185.258 77.6494 184.938 77.8594 184.658 78.1494C184.378 78.4294 184.158 78.7594 184.008 79.1494C183.858 79.5294 183.778 79.9594 183.778 80.4294C183.778 80.8994 183.858 81.3094 184.008 81.6994C184.158 82.0894 184.378 82.4194 184.658 82.6994C184.938 82.9794 185.258 83.1994 185.628 83.3494C185.998 83.4994 186.408 83.5694 186.848 83.5694V83.5794Z" fill="#2A49A8"/>
<path d="M195.34 85.3493V75.5293H199.8C200.87 75.5293 201.81 75.7293 202.62 76.1393C203.43 76.5493 204.07 77.1193 204.53 77.8393C204.99 78.5593 205.22 79.4293 205.22 80.4393C205.22 81.4493 204.99 82.2893 204.53 83.0293C204.07 83.7693 203.44 84.3293 202.62 84.7393C201.81 85.1493 200.87 85.3493 199.8 85.3493H195.34ZM197.62 83.4793H199.7C200.35 83.4793 200.92 83.3593 201.4 83.1093C201.88 82.8593 202.26 82.5093 202.52 82.0493C202.79 81.5893 202.92 81.0493 202.92 80.4393C202.92 79.8293 202.79 79.2693 202.52 78.8193C202.25 78.3693 201.88 78.0193 201.4 77.7693C200.92 77.5193 200.35 77.3993 199.7 77.3993H197.62V83.4893V83.4793Z" fill="#2A49A8"/>
<path d="M213.711 85.3493V75.5293H217.961C218.841 75.5293 219.601 75.6693 220.231 75.9593C220.871 76.2493 221.361 76.6493 221.701 77.1893C222.051 77.7193 222.221 78.3593 222.221 79.0993C222.221 79.8393 222.051 80.4593 221.701 80.9893C221.351 81.5193 220.861 81.9293 220.231 82.2193C219.601 82.5093 218.841 82.6493 217.961 82.6493H214.971L215.981 81.6293V85.3593H213.711V85.3493ZM215.981 81.8693L214.971 80.7893H217.831C218.531 80.7893 219.051 80.6393 219.401 80.3393C219.751 80.0393 219.921 79.6193 219.921 79.0893C219.921 78.5593 219.751 78.1293 219.401 77.8293C219.051 77.5293 218.531 77.3793 217.831 77.3793H214.971L215.981 76.2993V81.8693Z" fill="#2A49A8"/>
<path d="M227.5 83.5195H232.85V85.3395H225.25V75.5195H232.67V77.3395H227.51V83.5095L227.5 83.5195ZM227.33 79.4795H232.06V81.2495H227.33V79.4795Z" fill="#2A49A8"/>
<path d="M236.051 85.3493V75.5293H240.301C241.181 75.5293 241.941 75.6693 242.571 75.9593C243.211 76.2493 243.701 76.6493 244.041 77.1893C244.391 77.7193 244.561 78.3593 244.561 79.0993C244.561 79.8393 244.391 80.4593 244.041 80.9893C243.691 81.5193 243.201 81.9193 242.571 82.1993C241.931 82.4793 241.181 82.6193 240.301 82.6193H237.311L238.321 81.6193V85.3493H236.051ZM238.331 81.8693L237.321 80.7993H240.181C240.881 80.7993 241.401 80.6493 241.751 80.3393C242.101 80.0393 242.271 79.6193 242.271 79.0793C242.271 78.5393 242.101 78.1193 241.751 77.8193C241.401 77.5193 240.881 77.3693 240.181 77.3693H237.321L238.331 76.2893V81.8593V81.8693ZM242.301 85.3493L239.841 81.7893H242.271L244.751 85.3493H242.291H242.301Z" fill="#2A49A8"/>
<path d="M247.77 85.3493V75.5293H249.65L253.83 82.4593H252.83L256.94 75.5293H258.81L258.84 85.3493H256.71V78.7993H257.09L253.81 84.3093H252.79L249.44 78.7993H249.92V85.3493H247.79H247.77Z" fill="#2A49A8"/>
<path d="M262.57 85.3493V75.5293H264.84V85.3493H262.57Z" fill="#2A49A8"/>
<path d="M270.609 85.3493V77.3793H267.469V75.5293H276.029V77.3793H272.889V85.3493H270.619H270.609Z" fill="#2A49A8"/>
<path d="M186.612 193.66H163.512V194.66H186.612V193.66Z" fill="#2A49A8"/>
<path d="M270.479 193.66H247.379V194.66H270.479V193.66Z" fill="#2A49A8"/>
<path d="M198.322 -0.0100961L197.375 0.3125L203.262 17.5868L204.209 17.2642L198.322 -0.0100961Z" fill="#2A49A8"/>
<path d="M235.171 -0.00784449L229.293 17.2695L230.24 17.5916L236.118 0.314256L235.171 -0.00784449Z" fill="#2A49A8"/>
<path d="M217.25 1.33984H216.25V16.4498H217.25V1.33984Z" fill="#2A49A8"/>
<path d="M110.611 181.301H40.7812V182.301H110.611V181.301Z" fill="#2A49A8"/>
<path d="M128.04 174.301H93.8203V175.301H128.04V174.301Z" fill="#2A49A8"/>
<path d="M405.971 96.4297H327.711V97.4297H405.971V96.4297Z" fill="#2A49A8"/>
<path d="M356.679 89.4297H311.449V90.4297H356.679V89.4297Z" fill="#2A49A8"/>
<path d="M356.091 213.779H321.871V214.779H356.091V213.779Z" fill="#2A49A8"/>
</g>
<defs>
<clipPath id="clip0_2370_113310">
<rect width="441.22" height="316.74" fill="white"/>
</clipPath>
</defs>
</svg>
