<svg width="386" height="306" viewBox="0 0 386 306" fill="none" xmlns="http://www.w3.org/2000/svg">
<g clip-path="url(#clip0_2376_99438)">
<path d="M0 304.204C0 304.084 86.4133 303.98 192.996 303.98C299.578 303.98 386.009 304.084 386.009 304.204C386.009 304.324 299.612 304.428 192.996 304.428C86.379 304.428 0 304.324 0 304.204Z" fill="#263238"/>
<path d="M345.652 286.449H377.535V274.412H345.652V286.449Z" fill="#EBEBEB"/>
<path d="M278.722 274.859H378.855V272.34H278.722V274.859Z" fill="#455A64"/>
<path d="M278.724 288.426H378.395V285.907H278.724V288.426Z" fill="#455A64"/>
<path d="M345.652 272.941L345.498 287.945H278.73V272.941H345.652Z" fill="#455A64"/>
<path d="M329.422 280.431C329.422 282.494 331.034 284.162 333.032 284.162C335.03 284.162 336.642 282.486 336.642 280.431C336.642 278.376 335.03 276.699 333.032 276.699C331.034 276.699 329.422 278.367 329.422 280.431Z" fill="#263238"/>
<path d="M328.863 280.431C328.863 278.076 330.733 276.158 333.031 276.158C335.329 276.158 337.198 278.076 337.198 280.431C337.198 282.787 335.329 284.705 333.031 284.705C330.733 284.705 328.863 282.787 328.863 280.431ZM329.987 280.431C329.987 282.194 331.359 283.63 333.039 283.63C334.72 283.63 336.084 282.194 336.084 280.431C336.084 278.669 334.72 277.233 333.039 277.233C331.359 277.233 329.987 278.669 329.987 280.431Z" fill="#E0E0E0"/>
<path d="M348.047 283.491C348.047 283.646 354.598 283.766 362.676 283.766C370.754 283.766 377.306 283.637 377.306 283.491C377.306 283.345 370.754 283.207 362.676 283.207C354.598 283.207 348.047 283.336 348.047 283.491Z" fill="#263238"/>
<path d="M348.047 281.393C348.047 281.548 354.598 281.668 362.676 281.668C370.754 281.668 377.306 281.539 377.306 281.393C377.306 281.247 370.754 281.109 362.676 281.109C354.598 281.109 348.047 281.238 348.047 281.393Z" fill="#263238"/>
<path d="M348.047 279.295C348.047 279.45 354.598 279.579 362.676 279.579C370.754 279.579 377.306 279.45 377.306 279.295C377.306 279.141 370.754 279.012 362.676 279.012C354.598 279.012 348.047 279.141 348.047 279.295Z" fill="#263238"/>
<path d="M348.047 277.198C348.047 277.353 354.598 277.482 362.676 277.482C370.754 277.482 377.306 277.353 377.306 277.198C377.306 277.043 370.754 276.914 362.676 276.914C354.598 276.914 348.047 277.043 348.047 277.198Z" fill="#263238"/>
<path d="M286.132 284.162H316.223V276.132H286.132V284.162Z" fill="white"/>
<path d="M311.542 283.344C311.704 283.344 311.833 281.908 311.833 280.146C311.833 278.383 311.704 276.947 311.542 276.947C311.379 276.947 311.25 278.383 311.25 280.146C311.25 281.908 311.379 283.344 311.542 283.344Z" fill="#E0E0E0"/>
<path d="M307.561 283.344C307.724 283.344 307.853 281.908 307.853 280.146C307.853 278.383 307.724 276.947 307.561 276.947C307.398 276.947 307.27 278.383 307.27 280.146C307.27 281.908 307.398 283.344 307.561 283.344Z" fill="#E0E0E0"/>
<path d="M303.585 283.344C303.747 283.344 303.876 281.908 303.876 280.146C303.876 278.383 303.747 276.947 303.585 276.947C303.422 276.947 303.293 278.383 303.293 280.146C303.293 281.908 303.422 283.344 303.585 283.344Z" fill="#E0E0E0"/>
<path d="M299.604 283.344C299.767 283.344 299.896 281.908 299.896 280.146C299.896 278.383 299.767 276.947 299.604 276.947C299.441 276.947 299.312 278.383 299.312 280.146C299.312 281.908 299.441 283.344 299.604 283.344Z" fill="#E0E0E0"/>
<path d="M295.627 283.344C295.79 283.344 295.919 281.908 295.919 280.146C295.919 278.383 295.79 276.947 295.627 276.947C295.465 276.947 295.336 278.383 295.336 280.146C295.336 281.908 295.465 283.344 295.627 283.344Z" fill="#E0E0E0"/>
<path d="M291.647 283.344C291.81 283.344 291.939 281.908 291.939 280.146C291.939 278.383 291.81 276.947 291.647 276.947C291.484 276.947 291.355 278.383 291.355 280.146C291.355 281.908 291.484 283.344 291.647 283.344Z" fill="#E0E0E0"/>
<path d="M345.198 288.392C345.361 288.392 345.489 284.824 345.489 280.421C345.489 276.019 345.361 272.451 345.198 272.451C345.035 272.451 344.906 276.019 344.906 280.421C344.906 284.824 345.035 288.392 345.198 288.392Z" fill="#263238"/>
<path d="M341.418 302.098H373.301V290.061H341.418V302.098Z" fill="#EBEBEB"/>
<path d="M274.487 290.508H374.621V287.989H274.487V290.508Z" fill="#156BA8"/>
<path d="M274.489 304.074H374.16V301.555H274.489V304.074Z" fill="#156BA8"/>
<path d="M341.418 288.59L341.263 303.593H274.496V288.59H341.418Z" fill="#156BA8"/>
<path d="M325.188 296.079C325.188 298.143 326.8 299.811 328.798 299.811C330.796 299.811 332.408 298.134 332.408 296.079C332.408 294.024 330.796 292.348 328.798 292.348C326.8 292.348 325.188 294.024 325.188 296.079Z" fill="#263238"/>
<path d="M324.629 296.08C324.629 293.724 326.498 291.807 328.797 291.807C331.095 291.807 332.964 293.724 332.964 296.08C332.964 298.436 331.095 300.353 328.797 300.353C326.498 300.353 324.629 298.436 324.629 296.08ZM325.752 296.08C325.752 297.842 327.124 299.278 328.805 299.278C330.486 299.278 331.858 297.842 331.858 296.08C331.858 294.317 330.486 292.881 328.805 292.881C327.124 292.881 325.752 294.317 325.752 296.08Z" fill="#E0E0E0"/>
<path d="M343.812 299.14C343.812 299.295 350.364 299.424 358.442 299.424C366.52 299.424 373.071 299.295 373.071 299.14C373.071 298.986 366.52 298.865 358.442 298.865C350.364 298.865 343.812 298.994 343.812 299.14Z" fill="#263238"/>
<path d="M343.812 297.042C343.812 297.196 350.364 297.325 358.442 297.325C366.52 297.325 373.071 297.196 373.071 297.042C373.071 296.887 366.52 296.758 358.442 296.758C350.364 296.758 343.812 296.887 343.812 297.042Z" fill="#263238"/>
<path d="M343.812 294.944C343.812 295.099 350.364 295.228 358.442 295.228C366.52 295.228 373.071 295.099 373.071 294.944C373.071 294.789 366.52 294.66 358.442 294.66C350.364 294.66 343.812 294.789 343.812 294.944Z" fill="#263238"/>
<path d="M343.812 292.846C343.812 293.001 350.364 293.13 358.442 293.13C366.52 293.13 373.071 293.001 373.071 292.846C373.071 292.691 366.52 292.562 358.442 292.562C350.364 292.562 343.812 292.691 343.812 292.846Z" fill="#263238"/>
<path d="M281.898 299.811H311.988V291.78H281.898V299.811Z" fill="white"/>
<path d="M307.307 298.993C307.47 298.993 307.599 297.557 307.599 295.794C307.599 294.032 307.47 292.596 307.307 292.596C307.144 292.596 307.016 294.032 307.016 295.794C307.016 297.557 307.144 298.993 307.307 298.993Z" fill="#E0E0E0"/>
<path d="M303.327 298.993C303.49 298.993 303.618 297.557 303.618 295.794C303.618 294.032 303.49 292.596 303.327 292.596C303.164 292.596 303.035 294.032 303.035 295.794C303.035 297.557 303.164 298.993 303.327 298.993Z" fill="#E0E0E0"/>
<path d="M299.35 298.993C299.513 298.993 299.642 297.557 299.642 295.794C299.642 294.032 299.513 292.596 299.35 292.596C299.187 292.596 299.059 294.032 299.059 295.794C299.059 297.557 299.187 298.993 299.35 298.993Z" fill="#E0E0E0"/>
<path d="M295.37 298.993C295.533 298.993 295.661 297.557 295.661 295.794C295.661 294.032 295.533 292.596 295.37 292.596C295.207 292.596 295.078 294.032 295.078 295.794C295.078 297.557 295.207 298.993 295.37 298.993Z" fill="#E0E0E0"/>
<path d="M291.393 298.993C291.556 298.993 291.685 297.557 291.685 295.794C291.685 294.032 291.556 292.596 291.393 292.596C291.23 292.596 291.102 294.032 291.102 295.794C291.102 297.557 291.23 298.993 291.393 298.993Z" fill="#E0E0E0"/>
<path d="M287.413 298.993C287.576 298.993 287.704 297.557 287.704 295.794C287.704 294.032 287.576 292.596 287.413 292.596C287.25 292.596 287.121 294.032 287.121 295.794C287.121 297.557 287.25 298.993 287.413 298.993Z" fill="#E0E0E0"/>
<path d="M340.963 304.04C341.126 304.04 341.255 300.472 341.255 296.07C341.255 291.668 341.126 288.1 340.963 288.1C340.801 288.1 340.672 291.668 340.672 296.07C340.672 300.472 340.801 304.04 340.963 304.04Z" fill="#263238"/>
<path d="M282.12 248.918V245.006L367.702 245.169H372.65V248.978H367.702V272.45H275.277V248.918H282.12Z" fill="#EBEBEB"/>
<path d="M372.651 248.977C372.651 249.098 352.404 249.175 327.433 249.141C302.453 249.106 282.207 248.977 282.207 248.857C282.207 248.737 302.453 248.659 327.433 248.694C352.404 248.728 372.651 248.857 372.651 248.977Z" fill="#263238"/>
<path d="M367.702 254.231C367.702 254.352 347.01 254.438 321.49 254.429C295.961 254.412 275.277 254.3 275.277 254.171C275.277 254.042 295.97 253.965 321.498 253.973C347.018 253.991 367.71 254.102 367.71 254.231H367.702Z" fill="#263238"/>
<path d="M367.702 259.579C367.702 259.699 347.01 259.785 321.49 259.777C295.961 259.759 275.277 259.648 275.277 259.519C275.277 259.398 295.97 259.312 321.498 259.321C347.018 259.338 367.71 259.45 367.71 259.579H367.702Z" fill="#263238"/>
<path d="M367.702 264.927C367.702 265.047 347.01 265.133 321.49 265.124C295.961 265.107 275.277 264.995 275.277 264.866C275.277 264.737 295.97 264.66 321.498 264.669C347.018 264.686 367.71 264.798 367.71 264.927H367.702Z" fill="#263238"/>
<path d="M367.702 270.274C367.702 270.395 347.01 270.481 321.49 270.472C295.961 270.455 275.277 270.343 275.277 270.214C275.277 270.085 295.97 270.008 321.498 270.016C347.018 270.033 367.71 270.145 367.71 270.274H367.702Z" fill="#263238"/>
<g opacity="0.3">
<path d="M303.104 272.45V245.006H282.12V248.918H275.277V272.45H303.104Z" fill="black"/>
</g>
<path d="M304.817 46.3936L246.728 37.0476C243.795 36.5748 241.034 38.5781 240.562 41.5186L231.241 99.7523C230.769 102.693 232.767 105.461 235.7 105.934L237.432 106.218L253.597 108.823L293.78 115.289C296.713 115.762 299.474 113.758 299.946 110.818L309.267 52.5841C309.739 49.6436 307.741 46.8751 304.808 46.4022L304.817 46.3936Z" fill="white"/>
<path d="M306.645 69L237.936 57.9409L240.66 40.9285C241.078 38.3138 243.535 36.5322 246.143 36.952L305.199 46.4574C307.917 46.8949 309.772 49.4663 309.336 52.1913L306.645 69Z" fill="#156BA8"/>
<path d="M266.329 71.5695L262.582 94.9903L257.179 94.1219L260.232 75.0517L255.559 74.3037L256.253 69.9531L266.329 71.5781V71.5695Z" fill="#263238"/>
<path d="M288.685 75.1725L288.119 78.6891L276.259 97.2004L270.385 96.2546L281.799 78.6031L274.056 77.3564L273.447 81.1739L268.645 80.4001L269.965 72.1719L288.685 75.1811V75.1725Z" fill="#263238"/>
<path d="M264.196 52.5161C264.179 52.6365 268.878 53.4962 274.701 54.4334C280.523 55.3706 285.257 56.0326 285.283 55.9123C285.3 55.7919 280.601 54.9321 274.769 53.9949C268.947 53.0577 264.213 52.3957 264.188 52.5161H264.196Z" fill="#263238"/>
<path d="M304.818 46.394C304.818 46.394 305.058 46.4198 305.496 46.5315C305.941 46.6519 306.593 46.9013 307.314 47.4515C308.017 48.0018 308.788 48.896 309.174 50.1771C309.363 50.8133 309.449 51.5355 309.372 52.3007C309.286 53.0574 309.14 53.8484 309.011 54.691C307.948 61.4403 306.405 71.199 304.501 83.2447C303.54 89.2718 302.494 95.875 301.371 102.96C301.088 104.731 300.805 106.536 300.513 108.368C300.359 109.288 300.239 110.199 300.059 111.145C299.862 112.099 299.39 112.993 298.73 113.724C298.061 114.438 297.203 115.005 296.243 115.289C295.291 115.607 294.236 115.564 293.276 115.384C291.338 115.074 289.374 114.756 287.393 114.438C271.495 111.884 254.027 109.081 235.684 106.132C233.283 105.78 231.294 103.699 231.036 101.317C230.951 100.733 231.002 100.122 231.088 99.5463L231.362 97.8525C231.542 96.7262 231.722 95.5999 231.902 94.4821C232.623 90.0026 233.326 85.5919 234.02 81.2585C235.41 72.5832 236.756 64.2261 238.034 56.2558C238.677 52.275 239.303 48.3887 239.903 44.6142C240.057 43.6684 240.203 42.7313 240.358 41.8027C240.426 41.3384 240.538 40.8569 240.701 40.4098C240.889 39.9713 241.095 39.5328 241.387 39.1459C241.935 38.3635 242.707 37.7617 243.548 37.349C244.397 36.9621 245.34 36.7815 246.257 36.8503C253.358 37.9508 259.918 39.0514 265.938 40.0143C277.952 41.9746 287.668 43.5567 294.399 44.6572C297.752 45.2161 300.359 45.646 302.134 45.9383C303.009 46.0845 303.678 46.2048 304.141 46.2822C304.595 46.3596 304.827 46.4112 304.827 46.4112C304.827 46.4112 304.595 46.3854 304.141 46.3166C303.678 46.2478 303 46.1446 302.125 46.0071C300.342 45.7319 297.735 45.3192 294.382 44.7948C287.65 43.7286 277.917 42.181 265.903 40.2723C259.901 39.3265 253.298 38.2345 246.249 37.1598C245.383 37.0996 244.499 37.2716 243.693 37.6413C242.904 38.0282 242.176 38.5957 241.661 39.3351C241.387 39.6962 241.198 40.1089 241.018 40.5216C240.864 40.9515 240.761 41.3814 240.692 41.8543C240.546 42.7828 240.392 43.72 240.246 44.6658C239.646 48.4403 239.028 52.3265 238.394 56.316C237.125 64.2862 235.787 72.652 234.398 81.3273C233.703 85.6607 233 90.08 232.28 94.5595C232.1 95.6773 231.919 96.8036 231.739 97.9299C231.594 99.0648 231.268 100.191 231.414 101.283C231.654 103.51 233.506 105.444 235.744 105.771C254.087 108.729 271.555 111.549 287.453 114.111C289.443 114.429 291.398 114.747 293.336 115.066C294.296 115.246 295.24 115.281 296.149 114.988C297.049 114.73 297.855 114.197 298.49 113.527C299.107 112.839 299.553 112.005 299.742 111.111C299.922 110.208 300.05 109.262 300.196 108.359C300.488 106.528 300.779 104.731 301.062 102.96C302.203 95.875 303.266 89.2718 304.244 83.2533C306.199 71.2076 307.777 61.4661 308.874 54.7168C309.003 53.8742 309.157 53.0746 309.252 52.3351C309.337 51.5957 309.252 50.8821 309.071 50.263C308.711 48.9991 307.965 48.1222 307.279 47.5633C306.576 47.013 305.933 46.7465 305.496 46.6175C305.281 46.5401 305.11 46.5229 304.998 46.4886C304.887 46.4628 304.827 46.4456 304.827 46.4456L304.818 46.394Z" fill="#263238"/>
<path d="M262.296 46.3744L264.095 35.1519C264.287 33.955 265.407 33.1427 266.601 33.3351L266.745 33.3583C267.939 33.5507 268.749 34.6739 268.557 35.8709L266.758 47.0933C266.566 48.2903 265.446 49.1025 264.252 48.9101L264.108 48.887C262.914 48.6946 262.104 47.5713 262.296 46.3744Z" fill="#E0E0E0"/>
<path d="M264.114 48.878C264.14 48.8264 263.548 48.8178 262.93 48.1472C262.639 47.8204 262.373 47.296 262.399 46.6597C262.467 46.0407 262.63 45.2755 262.759 44.4587C263.042 42.7907 263.368 40.8389 263.728 38.6894C263.908 37.5975 264.097 36.4626 264.285 35.2761C264.354 34.7172 264.637 34.2185 265.091 33.8832C265.546 33.5479 266.12 33.4275 266.712 33.5565C267.278 33.6425 267.784 33.995 268.076 34.4679C268.384 34.9494 268.436 35.4996 268.307 36.0757C268.118 37.2622 267.947 38.3971 267.775 39.4891C267.45 41.6471 267.149 43.6075 266.901 45.2755C266.841 45.6882 266.781 46.0751 266.729 46.4534C266.669 46.8231 266.644 47.1842 266.541 47.4679C266.326 48.0612 265.889 48.4481 265.494 48.6458C264.663 49.0327 264.114 48.8092 264.122 48.878C264.122 48.8952 264.242 48.9296 264.491 48.9726C264.74 48.9984 265.126 48.9984 265.572 48.8092C266.009 48.62 266.515 48.2245 266.781 47.5625C266.918 47.2272 266.944 46.8661 267.021 46.505C267.089 46.1352 267.149 45.7397 267.227 45.3356C267.51 43.6676 267.835 41.7159 268.196 39.5664C268.376 38.4745 268.564 37.3396 268.753 36.1531C268.89 35.5684 268.839 34.8118 268.47 34.2357C268.118 33.6511 267.492 33.2298 266.806 33.118C266.155 32.9804 265.4 33.118 264.86 33.5307C264.311 33.9262 263.959 34.5796 263.882 35.2159C263.694 36.4024 263.522 37.5373 263.351 38.6293C263.025 40.7873 262.725 42.7477 262.476 44.4157C262.364 45.2497 262.227 45.9633 262.176 46.6597C262.176 47.3647 262.493 47.9322 262.827 48.2675C263.17 48.6114 263.531 48.7576 263.762 48.8264C264.002 48.8952 264.14 48.8866 264.14 48.878H264.114Z" fill="#263238"/>
<path d="M283.273 49.7455L285.072 38.523C285.263 37.3261 286.384 36.5138 287.578 36.7062L287.73 36.7308C288.924 36.9231 289.734 38.0464 289.542 39.2434L287.743 50.4658C287.551 51.6628 286.431 52.475 285.237 52.2826L285.093 52.2594C283.899 52.067 283.089 50.9438 283.281 49.7468L283.273 49.7455Z" fill="#E0E0E0"/>
<path d="M285.086 52.2569C285.112 52.1967 284.52 52.1967 283.903 51.5261C283.612 51.1993 283.346 50.6749 283.371 50.0386C283.44 49.4196 283.603 48.6544 283.732 47.8376C284.015 46.1696 284.34 44.2178 284.701 42.0684C284.881 40.9764 285.069 39.8415 285.258 38.655C285.327 38.0961 285.61 37.5974 286.064 37.2621C286.519 36.9268 287.093 36.8064 287.685 36.9354C288.251 37.0214 288.757 37.3739 289.048 37.8468C289.357 38.3283 289.408 38.8785 289.28 39.4546C289.091 40.6411 288.92 41.776 288.748 42.868C288.422 45.026 288.122 46.9864 287.873 48.6544C287.813 49.0671 287.753 49.454 287.702 49.8323C287.642 50.202 287.616 50.5631 287.513 50.8468C287.299 51.4401 286.862 51.827 286.467 52.0247C285.635 52.4116 285.086 52.1881 285.095 52.2569C285.095 52.2741 285.215 52.3085 285.464 52.3515C285.712 52.3773 286.098 52.3773 286.544 52.1881C286.982 51.999 287.488 51.6034 287.753 50.9414C287.891 50.6061 287.916 50.245 287.993 49.8839C288.062 49.5142 288.122 49.1186 288.199 48.7145C288.482 47.0465 288.808 45.0948 289.168 42.9453C289.348 41.8534 289.537 40.7185 289.726 39.532C289.863 38.9473 289.811 38.1907 289.443 37.6146C289.091 37.03 288.465 36.6087 287.779 36.4969C287.127 36.3593 286.373 36.4969 285.833 36.9096C285.284 37.3051 284.932 37.9585 284.855 38.5948C284.666 39.7727 284.495 40.9162 284.323 42.0082C283.997 44.1662 283.697 46.1266 283.449 47.7946C283.337 48.6286 283.2 49.3422 283.148 50.0386C283.148 50.7437 283.466 51.3111 283.8 51.6464C284.143 51.9904 284.503 52.1365 284.735 52.2053C284.975 52.2741 285.112 52.2655 285.112 52.2569H285.086Z" fill="#263238"/>
<path d="M369.52 206.797V127.791C369.52 125.122 367.362 122.959 364.7 122.959L243.068 122.959C240.407 122.959 238.249 125.122 238.249 127.791V206.797C238.249 209.466 240.407 211.629 243.068 211.629H364.7C367.362 211.629 369.52 209.466 369.52 206.797Z" fill="white"/>
<path d="M238.043 154.488H369.708V206.299C369.708 209.369 367.221 211.862 364.16 211.862H243.017C240.273 211.862 238.052 209.627 238.052 206.884V154.488H238.043Z" fill="#E0E0E0"/>
<path d="M347.688 175.434H369.52V207.495C369.52 209.903 367.565 211.863 365.164 211.863H347.688V175.434Z" fill="#156BA8"/>
<path d="M327.595 196.086H262.414V211.872H327.595V196.086Z" fill="#F5F5F5"/>
<path d="M298.885 182.783V183.48L296.003 189.937H294.923L297.744 183.669H294.485V184.95H293.508V182.783H298.893H298.885Z" fill="#263238"/>
<path d="M320.227 187.917C320.227 189.216 319.129 190.024 317.38 190.024C315.63 190.024 314.559 189.216 314.559 187.917C314.559 187.101 315.005 186.499 315.811 186.189C315.159 185.88 314.816 185.355 314.816 184.65C314.816 183.455 315.845 182.707 317.388 182.707C318.932 182.707 319.978 183.455 319.978 184.65C319.978 185.355 319.618 185.888 318.966 186.189C319.781 186.507 320.227 187.101 320.227 187.917ZM319.206 187.883C319.206 187.092 318.512 186.602 317.38 186.602C316.248 186.602 315.579 187.092 315.579 187.883C315.579 188.674 316.248 189.19 317.38 189.19C318.512 189.19 319.206 188.691 319.206 187.883ZM315.819 184.685C315.819 185.39 316.402 185.828 317.38 185.828C318.357 185.828 318.966 185.39 318.966 184.685C318.966 183.98 318.332 183.532 317.38 183.532C316.428 183.532 315.819 183.971 315.819 184.685Z" fill="#263238"/>
<path d="M252.467 202.775C252.467 205.217 251.095 206.523 249.097 206.523C248.428 206.523 247.785 206.395 247.322 206.102L247.708 205.303C248.085 205.543 248.565 205.638 249.08 205.638C250.529 205.638 251.447 204.727 251.447 202.938V202.68C251.026 203.299 250.272 203.617 249.389 203.617C247.974 203.617 246.953 202.766 246.953 201.451C246.953 200.135 248.051 199.189 249.474 199.189C251.387 199.189 252.467 200.479 252.467 202.758V202.775ZM251.215 201.416C251.215 200.677 250.623 200.041 249.517 200.041C248.591 200.041 247.948 200.582 247.948 201.434C247.948 202.285 248.565 202.809 249.569 202.809C250.572 202.809 251.224 202.207 251.224 201.416H251.215Z" fill="#263238"/>
<path d="M320.287 168.83H318.932V170.584H317.946V168.83H313.984V168.117L317.629 163.439H318.727L315.228 167.953H317.972V166.397H318.932V167.953H320.287V168.83Z" fill="#263238"/>
<path d="M252.371 186.395C252.371 187.633 251.497 188.622 249.67 188.622C248.658 188.622 247.664 188.296 247.055 187.754L247.526 186.946C248.007 187.393 248.804 187.711 249.67 187.711C250.751 187.711 251.359 187.212 251.359 186.43C251.359 185.647 250.854 185.123 249.199 185.123H247.578L247.955 181.383H251.977V182.268H248.804L248.607 184.229H249.404C251.531 184.229 252.371 185.114 252.371 186.387V186.395Z" fill="#263238"/>
<path d="M276.05 186.335C276.05 187.711 274.935 188.596 273.52 188.596C271.608 188.596 270.527 187.306 270.527 185.028C270.527 182.586 271.899 181.279 273.897 181.279C274.566 181.279 275.209 181.408 275.673 181.701L275.287 182.5C274.918 182.259 274.429 182.165 273.923 182.165C272.474 182.165 271.548 183.076 271.548 184.865C271.548 184.942 271.548 185.028 271.556 185.123C271.968 184.512 272.714 184.185 273.606 184.185C275.021 184.185 276.05 185.037 276.05 186.352V186.335ZM275.064 186.378C275.064 185.544 274.429 185.002 273.434 185.002C272.44 185.002 271.796 185.604 271.796 186.395C271.796 187.134 272.388 187.771 273.486 187.771C274.412 187.771 275.064 187.229 275.064 186.378Z" fill="#263238"/>
<path d="M250.89 163.01V170.163H249.878V163.895H248.266V163.01H250.881H250.89Z" fill="#263238"/>
<path d="M276.434 169.741V170.626H271.306V169.93L274.213 167.118C274.967 166.379 275.113 165.932 275.113 165.485C275.113 164.745 274.59 164.298 273.595 164.298C272.832 164.298 272.206 164.547 271.769 165.072L271.074 164.47C271.623 163.782 272.575 163.387 273.681 163.387C275.173 163.387 276.125 164.152 276.125 165.381C276.125 166.078 275.919 166.697 274.95 167.626L272.772 169.732H276.434V169.741Z" fill="#263238"/>
<path d="M297.977 168.443C297.977 169.647 297.094 170.627 295.276 170.627C294.255 170.627 293.26 170.301 292.66 169.759L293.132 168.951C293.612 169.398 294.41 169.716 295.284 169.716C296.356 169.716 296.965 169.226 296.965 168.452C296.965 167.678 296.425 167.205 295.198 167.205H294.624V166.492L296.416 164.282H292.977V163.396H297.685V164.093L295.816 166.406C297.239 166.535 297.968 167.343 297.968 168.452L297.977 168.443Z" fill="#263238"/>
<path d="M292.695 204.881C292.695 202.551 293.939 201.227 295.611 201.227C297.283 201.227 298.518 202.559 298.518 204.881C298.518 207.202 297.275 208.543 295.611 208.543C293.947 208.543 292.695 207.211 292.695 204.881ZM297.497 204.881C297.497 203.049 296.726 202.129 295.611 202.129C294.496 202.129 293.716 203.049 293.716 204.881C293.716 206.712 294.488 207.632 295.611 207.632C296.734 207.632 297.497 206.712 297.497 204.881Z" fill="#263238"/>
<path d="M338.27 205.078C338.27 204.872 338.312 204.717 338.441 204.339L338.921 202.92H339.564L339.187 204.442C339.444 204.536 339.616 204.768 339.616 205.078C339.616 205.491 339.324 205.774 338.93 205.774C338.535 205.774 338.27 205.474 338.27 205.078Z" fill="#263238"/>
<path d="M362.084 190.42H355.121V191.151H362.084V190.42Z" fill="#263238"/>
<path d="M362.084 192.629H355.121V193.36H362.084V192.629Z" fill="#263238"/>
<path d="M362.026 166.74H356.812V167.291H362.026V166.74Z" fill="#263238"/>
<path d="M362.292 167.557H356.547V166.465H362.292V167.557Z" fill="#263238"/>
<path d="M359.145 164.401V169.629H359.693V164.401H359.145Z" fill="#263238"/>
<path d="M359.959 169.895H358.879V164.135H359.959V169.895ZM359.411 169.354H359.419V164.668L359.411 169.354Z" fill="#263238"/>
<path d="M340.516 185.072L339.744 184.307L338.098 185.957L336.451 184.307L335.68 185.08L337.326 186.731L335.68 188.382L336.451 189.147L338.098 187.496L339.744 189.147L340.516 188.382L338.861 186.731L340.516 185.072Z" fill="#263238"/>
<path d="M341.085 166.74H335.871V167.291H341.085V166.74Z" fill="#263238"/>
<path d="M341.351 167.557H335.605V166.465H341.351V167.557Z" fill="#263238"/>
<path d="M322.116 133.879V147.292H321.138V134.764H317.871V133.887H322.116V133.879Z" fill="#263238"/>
<path d="M334.686 133.879V134.567L328.932 147.283H327.86L333.554 134.756H326.042V137.327H325.09V133.879H334.677H334.686Z" fill="#263238"/>
<path d="M345.02 143.519C345.02 145.737 343.416 147.388 340.338 147.388C338.374 147.388 336.556 146.657 335.621 145.591L336.118 144.843C336.942 145.78 338.502 146.494 340.338 146.494C342.747 146.494 344.025 145.341 344.025 143.527C344.025 141.713 342.799 140.561 340.132 140.561H339.291V139.856L343.245 134.783H336.118V133.906H344.505V134.594L340.492 139.744C343.528 139.822 345.02 141.352 345.02 143.536V143.519Z" fill="#263238"/>
<path d="M357.127 143.613C357.127 145.951 355.198 147.387 352.042 147.387C348.887 147.387 347 145.951 347 143.613C347 141.927 348.029 140.758 349.847 140.277C348.321 139.778 347.48 138.729 347.48 137.25C347.48 135.109 349.272 133.785 352.042 133.785C354.812 133.785 356.647 135.109 356.647 137.25C356.647 138.729 355.79 139.778 354.238 140.277C356.073 140.758 357.119 141.945 357.119 143.613H357.127ZM356.15 143.613C356.15 141.833 354.623 140.698 352.042 140.698C349.461 140.698 347.969 141.824 347.969 143.613C347.969 145.401 349.461 146.544 352.042 146.544C354.623 146.544 356.15 145.418 356.15 143.613ZM352.042 139.898C354.315 139.898 355.67 138.884 355.67 137.293C355.67 135.702 354.255 134.628 352.042 134.628C349.83 134.628 348.449 135.642 348.449 137.267C348.449 138.892 349.77 139.89 352.042 139.89V139.898Z" fill="#263238"/>
<path d="M248.015 129.459C248.393 131.041 247.003 132.434 245.426 132.056C244.68 131.875 244.071 131.265 243.891 130.517C243.513 128.935 244.903 127.542 246.48 127.92C247.226 128.101 247.835 128.711 248.015 129.459Z" fill="#E0E0E0"/>
<path d="M255.183 129.459C255.561 131.041 254.171 132.443 252.594 132.056C251.848 131.875 251.239 131.265 251.059 130.517C250.681 128.935 252.071 127.542 253.648 127.92C254.394 128.101 255.003 128.711 255.183 129.459Z" fill="#E0E0E0"/>
<path d="M261.761 129.459C262.139 131.041 260.75 132.443 259.172 132.056C258.426 131.875 257.817 131.265 257.637 130.517C257.259 128.935 258.649 127.542 260.226 127.92C260.973 128.101 261.581 128.711 261.761 129.459Z" fill="#E0E0E0"/>
<path d="M238.178 206.91C238.178 206.91 238.187 207.004 238.204 207.202C238.204 207.391 238.247 207.684 238.333 208.053C238.504 208.776 238.924 209.911 240.048 210.813C240.605 211.26 241.325 211.63 242.183 211.75C242.603 211.819 243.058 211.802 243.538 211.802C244.009 211.802 244.507 211.802 245.021 211.802C247.079 211.802 249.455 211.793 252.122 211.785C262.815 211.768 278.276 211.75 297.382 211.725C316.496 211.716 339.247 211.699 364.51 211.682C366.053 211.776 367.614 211.054 368.514 209.696C368.977 209.042 369.243 208.243 369.337 207.426C369.398 206.618 369.355 205.732 369.363 204.881C369.363 201.45 369.363 197.985 369.363 194.477C369.363 187.47 369.363 180.308 369.363 173.025C369.363 158.452 369.363 143.363 369.363 127.912C369.389 126.038 368.257 124.241 366.645 123.527C366.242 123.355 365.822 123.226 365.384 123.175C364.956 123.132 364.501 123.14 364.047 123.14C363.146 123.14 362.246 123.14 361.345 123.14C357.744 123.14 354.168 123.14 350.618 123.14C343.517 123.14 336.52 123.14 329.642 123.14C315.896 123.14 302.63 123.14 289.99 123.132C277.359 123.132 265.353 123.123 254.111 123.115C251.298 123.115 248.537 123.115 245.827 123.115C245.15 123.115 244.473 123.115 243.804 123.115C243.126 123.115 242.466 123.072 241.84 123.235C240.579 123.536 239.482 124.43 238.873 125.608C238.573 126.193 238.393 126.855 238.341 127.517C238.307 128.179 238.333 128.875 238.324 129.546C238.324 130.896 238.324 132.237 238.324 133.561C238.324 136.209 238.324 138.806 238.324 141.334C238.298 161.59 238.281 177.978 238.264 189.31C238.247 194.967 238.238 199.369 238.23 202.353C238.23 203.84 238.213 204.975 238.213 205.749C238.213 206.514 238.195 206.901 238.195 206.901C238.195 206.901 238.187 206.506 238.178 205.749C238.178 204.975 238.17 203.84 238.161 202.353C238.161 199.361 238.144 194.967 238.127 189.31C238.11 177.978 238.093 161.582 238.067 141.334C238.067 138.797 238.067 136.209 238.067 133.561C238.067 132.237 238.067 130.896 238.067 129.546C238.067 128.867 238.05 128.196 238.084 127.491C238.135 126.786 238.324 126.098 238.65 125.47C239.293 124.215 240.459 123.261 241.797 122.943C242.474 122.762 243.161 122.822 243.821 122.814C244.49 122.814 245.167 122.814 245.845 122.814C248.554 122.814 251.316 122.814 254.128 122.814C265.362 122.814 277.367 122.805 290.007 122.796C302.639 122.796 315.905 122.796 329.66 122.788C336.537 122.788 343.534 122.788 350.635 122.788C354.185 122.788 357.761 122.788 361.362 122.788C362.263 122.788 363.163 122.788 364.064 122.788C364.518 122.788 364.964 122.779 365.436 122.822C365.899 122.882 366.362 123.011 366.791 123.201C368.54 123.966 369.758 125.909 369.732 127.938C369.732 143.388 369.732 158.478 369.732 173.051C369.732 180.334 369.732 187.496 369.732 194.503C369.732 198.011 369.732 201.476 369.732 204.907C369.715 205.775 369.758 206.6 369.698 207.486C369.595 208.363 369.303 209.214 368.806 209.919C367.854 211.372 366.139 212.155 364.535 212.043C339.272 212.026 316.514 212.017 297.408 212C278.302 211.974 262.841 211.957 252.147 211.94C249.481 211.94 247.105 211.931 245.047 211.922C244.533 211.922 244.035 211.922 243.564 211.922C243.092 211.922 242.629 211.94 242.2 211.862C241.325 211.733 240.597 211.346 240.039 210.891C238.907 209.962 238.496 208.81 238.333 208.079C238.255 207.701 238.23 207.417 238.221 207.219C238.221 207.022 238.221 206.927 238.221 206.927L238.178 206.91Z" fill="#263238"/>
<path d="M262.414 212.043C262.294 212.043 262.191 199.301 262.191 183.575C262.191 167.85 262.294 155.107 262.414 155.107C262.534 155.107 262.637 167.85 262.637 183.575C262.637 199.301 262.534 212.043 262.414 212.043Z" fill="#263238"/>
<path d="M284.606 196.085C284.486 196.085 284.383 186.911 284.383 175.596C284.383 164.281 284.486 155.107 284.606 155.107C284.726 155.107 284.829 164.281 284.829 175.596C284.829 186.911 284.726 196.085 284.606 196.085Z" fill="#263238"/>
<path d="M306.672 196.085C306.552 196.085 306.449 186.911 306.449 175.596C306.449 164.281 306.552 155.107 306.672 155.107C306.792 155.107 306.895 164.281 306.895 175.596C306.895 186.911 306.792 196.085 306.672 196.085Z" fill="#263238"/>
<path d="M327.594 212.008C327.474 212.008 327.371 199.266 327.371 183.558C327.371 167.85 327.474 155.107 327.594 155.107C327.714 155.107 327.817 167.841 327.817 183.558C327.817 199.275 327.714 212.008 327.594 212.008Z" fill="#263238"/>
<path d="M347.688 212.008C347.568 212.008 347.465 199.266 347.465 183.558C347.465 167.85 347.568 155.107 347.688 155.107C347.808 155.107 347.911 167.841 347.911 183.558C347.911 199.275 347.808 212.008 347.688 212.008Z" fill="#263238"/>
<path d="M238.516 175.776C238.516 175.656 267.775 175.553 303.868 175.553C339.961 175.553 369.22 175.656 369.22 175.776C369.22 175.897 339.961 176 303.868 176C267.775 176 238.516 175.897 238.516 175.776Z" fill="#263238"/>
<path d="M238.516 196.267C238.516 196.146 262.955 196.043 293.097 196.043C323.24 196.043 347.688 196.146 347.688 196.267C347.688 196.387 323.248 196.49 293.097 196.49C262.947 196.49 238.516 196.387 238.516 196.267Z" fill="#263238"/>
<path d="M89.561 172.492C88.7978 173.326 94.972 183.36 97.4588 189.679C99.9456 196.007 112.311 225.395 122.833 225.584C133.346 225.773 141.381 220.984 148.259 211.208C155.145 201.433 166.61 149.673 166.61 149.673L147.873 130.887L126.272 192.035C126.272 192.035 108.821 170.334 105.314 167.952C101.806 165.579 89.5695 172.475 89.5695 172.475L89.561 172.492Z" fill="#AE7461"/>
<path d="M264.385 264.032L259.652 228.703L161.216 231.48C161.216 231.48 152.649 282.767 153.087 304.09H209.984L210.455 296.945L213.491 297.607C213.491 297.607 214.194 300.47 215 304.09L270.191 304.193L264.385 264.023V264.032Z" fill="#062B6B"/>
<path d="M162.699 172.138L134.023 162.336C134.023 162.336 149.751 99.9844 171.703 99.9844L162.699 172.138Z" fill="#C3E3F4"/>
<path d="M255.226 190.882L251.822 97.5261C246.454 95.0671 223.463 92.1094 223.463 92.1094L193.553 96.331L168.641 100.613L161.961 164.375L159.148 252.564C191.16 264.412 230.221 260.422 264.573 251.661L255.235 190.882H255.226Z" fill="#C3E3F4"/>
<g opacity="0.3">
<path d="M198.406 137.446C198.406 137.446 215.12 173.084 229.929 186.317C244.747 199.557 257.001 202.438 257.001 202.438L255.226 190.874L198.406 137.438V137.446Z" fill="black"/>
</g>
<path d="M162.776 124.73C162.896 124.73 162.605 134.481 162.125 146.492C161.644 158.512 161.147 168.245 161.027 168.236C160.907 168.227 161.198 158.486 161.679 146.475C162.159 134.463 162.656 124.722 162.776 124.73Z" fill="#263238"/>
<path d="M245.973 95.9004C245.973 95.9004 272.47 98.2734 275.995 125.976C277.624 138.787 280.643 159.009 280.643 159.009L254.617 161.288L251.024 158.622C249.025 152.638 245.561 140.309 246.05 139.87C246.71 139.277 245.973 95.909 245.973 95.909V95.9004Z" fill="#C3E3F4"/>
<path d="M188.906 217.27C188.906 217.27 189.301 216.917 190.064 216.358C190.827 215.791 191.942 215 193.34 214.046C196.135 212.137 200.08 209.601 204.565 207.03C209.05 204.459 213.234 202.344 216.296 200.899C217.831 200.177 219.074 199.61 219.949 199.24C220.824 198.87 221.304 198.673 221.321 198.707C221.329 198.733 220.866 198.982 220.026 199.403C219.108 199.859 217.899 200.461 216.442 201.183C213.414 202.696 209.273 204.854 204.796 207.417C200.32 209.979 196.358 212.464 193.528 214.304C192.156 215.198 191.033 215.937 190.175 216.496C189.386 217.012 188.941 217.287 188.923 217.261L188.906 217.27Z" fill="#263238"/>
<path d="M203.774 212.24C203.748 212.189 204.494 211.664 205.772 210.942C207.058 210.211 208.885 209.309 210.986 208.509C213.095 207.709 215.059 207.168 216.5 206.858C217.94 206.549 218.849 206.445 218.858 206.497C218.867 206.566 217.983 206.772 216.577 207.168C215.162 207.555 213.233 208.139 211.149 208.93C209.065 209.73 207.23 210.572 205.918 211.226C204.606 211.879 203.808 212.301 203.774 212.249V212.24Z" fill="#263238"/>
<path d="M249.595 157.669C249.475 157.669 249.809 149.277 250.358 138.934C250.907 128.59 251.447 120.216 251.567 120.225C251.687 120.225 251.353 128.616 250.804 138.959C250.264 149.294 249.715 157.677 249.595 157.669Z" fill="#263238"/>
<path d="M165.882 41.2086C162.709 42.5069 158.704 41.2946 156.775 38.4573C156.191 37.5975 155.788 36.5829 155.866 35.5512C155.943 34.5194 156.603 33.4963 157.589 33.1953C156.02 32.6107 154.656 31.4328 153.996 29.8937C153.344 28.3547 153.482 26.4632 154.485 25.1219C155.488 23.7806 157.375 23.1272 158.944 23.7032C158.472 21.9579 159.107 19.9631 160.496 18.811L168.034 18.6562L165.873 41.2086H165.882Z" fill="#263238"/>
<path d="M191.429 97.3367L190.117 92.2124C190.117 92.2124 174.596 93.5365 170.763 78.5933C168.91 71.371 166.312 56.1957 164.117 42.439C161.758 27.642 171.123 13.507 185.641 9.96468L187.081 9.61216C202.86 6.72326 214.128 18.5368 216.572 34.4344L224.658 92.6681L200.853 110.612L191.429 97.3367Z" fill="#AE7461"/>
<path d="M190.105 92.2196C190.105 92.2196 199.727 90.7063 208.594 83.2949C208.594 83.2949 206.33 93.7328 191.083 96.0284L190.105 92.211V92.2196Z" fill="#6F4439"/>
<path d="M171.883 57.0641C172.115 58.2076 173.272 58.947 174.464 58.7235C175.656 58.4999 176.428 57.3994 176.197 56.2559C175.965 55.1124 174.807 54.3729 173.615 54.5965C172.424 54.82 171.643 55.9292 171.883 57.0641Z" fill="#263238"/>
<path d="M169.106 48.9911C169.44 49.206 170.761 47.6068 173.068 47.0566C175.357 46.4719 177.329 47.2457 177.51 46.9018C177.604 46.747 177.209 46.3085 176.343 45.956C175.494 45.5949 174.131 45.38 172.699 45.7325C171.267 46.0936 170.195 46.9104 169.637 47.624C169.063 48.3377 168.943 48.9051 169.106 48.9997V48.9911Z" fill="#263238"/>
<path d="M191.454 52.6696C191.685 53.8131 192.843 54.5525 194.035 54.329C195.227 54.1054 195.998 53.0049 195.767 51.8614C195.535 50.7178 194.378 49.9784 193.186 50.202C191.994 50.4255 191.213 51.5346 191.454 52.6696Z" fill="#263238"/>
<path d="M191.794 43.8915C192.129 44.1064 193.458 42.5072 195.756 41.957C198.046 41.3723 200.018 42.1461 200.198 41.8022C200.292 41.6474 199.898 41.2089 199.032 40.8564C198.183 40.4953 196.819 40.2804 195.387 40.6329C193.955 40.994 192.883 41.8108 192.317 42.5244C191.743 43.238 191.631 43.8055 191.786 43.9001L191.794 43.8915Z" fill="#263238"/>
<path d="M187.611 63.0229C187.594 62.8853 186.102 62.9885 183.718 63.2636C183.118 63.3496 182.535 63.3668 182.338 62.9885C182.098 62.6016 182.183 61.9051 182.303 61.1485C182.509 59.5923 182.724 57.9587 182.947 56.2477C183.804 49.2834 184.276 43.6088 183.993 43.5744C183.71 43.54 182.792 49.163 181.935 56.1273C181.737 57.8383 181.549 59.4805 181.369 61.0368C181.309 61.759 181.111 62.6102 181.626 63.4184C181.892 63.8225 182.398 64.0374 182.801 64.046C183.204 64.0718 183.538 63.9944 183.83 63.9429C186.188 63.4958 187.637 63.1604 187.611 63.0229Z" fill="#263238"/>
<path d="M189.764 40.4185C190.261 40.8914 192.242 39.5759 194.883 38.6473C197.499 37.6672 199.865 37.4092 199.943 36.73C199.968 36.4119 199.351 36.0336 198.262 35.8788C197.181 35.7154 195.638 35.8186 194.06 36.3861C192.482 36.9621 191.23 37.8735 190.51 38.6903C189.781 39.5071 189.541 40.1949 189.764 40.4185Z" fill="#263238"/>
<path d="M168.335 42.1117C168.867 42.533 170.316 41.6044 172.212 41.1143C174.09 40.5555 175.813 40.6071 176.053 39.9708C176.148 39.6613 175.77 39.2056 174.947 38.8789C174.132 38.5522 172.872 38.4318 171.577 38.7929C170.282 39.154 169.262 39.902 168.73 40.6071C168.19 41.3121 168.095 41.9054 168.335 42.1117Z" fill="#263238"/>
<path d="M163.875 35.2071C163.875 35.2071 165.539 24.8552 169.518 21.5622C174.337 17.5728 178.153 23.0153 183.007 20.2811C187.86 17.547 192.457 13.7295 198.768 16.4637C205.671 19.4557 203.69 23.2302 205.671 29.7905C213.689 56.401 220.455 62.8323 218.766 49.7806C218.577 48.3534 222.161 46.3071 221.304 40.2799C220.189 32.473 218.234 23.1443 215.215 18.1489C212.677 13.9359 209.316 11.4167 203.819 9.08666C195.141 5.39815 185.03 7.74538 178.35 10.1098C171.67 12.4742 160.385 23.5999 163.867 35.2071H163.875Z" fill="#263238"/>
<path d="M217.709 49.6091C217.238 47.2704 218.79 44.9576 221.14 44.6137C223.995 44.201 227.485 45.0264 228.703 50.8472C230.873 61.1733 220.076 61.2249 219.999 60.9325C219.948 60.7348 218.576 53.9338 217.709 49.6005V49.6091Z" fill="#AE7461"/>
<path d="M221.424 56.5812C221.424 56.5812 221.63 56.6672 221.964 56.7446C222.29 56.822 222.813 56.8048 223.311 56.4866C224.314 55.859 224.871 53.933 224.528 52.0587C224.357 51.1129 223.971 50.2617 223.482 49.5911C223.01 48.9033 222.41 48.4734 221.844 48.4906C221.27 48.482 220.952 48.8861 220.892 49.2042C220.815 49.5223 220.927 49.7115 220.875 49.7459C220.849 49.7803 220.618 49.6169 220.609 49.1784C220.609 48.9635 220.678 48.6969 220.875 48.4476C221.081 48.1896 221.424 48.0177 221.81 47.9747C222.616 47.8629 223.482 48.4476 224.022 49.1784C224.605 49.9092 225.06 50.8636 225.249 51.9297C225.617 54.0276 224.966 56.1943 223.568 56.9423C222.882 57.2862 222.23 57.1917 221.87 57.0197C221.501 56.8305 221.398 56.6156 221.424 56.5898V56.5812Z" fill="#6F4439"/>
<path d="M177.405 29.9023C177.405 29.9023 177.362 29.9195 177.336 29.9281C177.276 29.9453 177.216 29.9625 177.156 29.9883L177.405 29.9023Z" fill="#FF725E"/>
<path d="M154.348 16.5846C154.631 13.7645 156.663 11.3227 159.167 9.9986C161.671 8.67452 164.578 8.3306 167.408 8.39938C166.336 4.71088 169.818 0.97078 173.591 0.291545C177.355 -0.387691 181.146 1.06536 184.696 2.49261C188.64 -1.29047 195.861 -0.688618 199.128 3.69632C201.521 1.60703 205.036 0.927791 208.038 1.95954C211.031 2.99129 213.389 5.70823 213.989 8.82928C216.527 8.77769 219.031 10.2135 220.275 12.4318C221.51 14.6501 221.424 17.5476 220.052 19.6885C222.007 20.4107 223.379 22.4914 223.285 24.5807C223.19 26.67 221.63 28.6131 219.614 29.1548L210.756 24.125C206.837 25.7242 201.786 23.2222 200.689 19.121C197.833 21.0039 193.829 20.9437 191.024 18.9834C190.75 21.0555 189.395 22.9471 187.534 23.8756C185.665 24.7956 183.341 24.7182 181.54 23.6779C181.875 26.5066 180.442 29.4643 178.016 30.9517C175.597 32.4392 172.313 32.3704 169.946 30.7884C167.828 33.4967 163.541 34.1588 160.702 32.2156C157.864 30.2811 156.912 26.0337 158.653 23.0674C155.891 22.457 154.082 19.4047 154.365 16.5846H154.348Z" fill="#263238"/>
<path d="M201.562 20.7278C201.562 20.7278 201.614 21.0546 201.94 21.536C202.266 22.0175 202.849 22.671 203.801 23.1696C204.735 23.6683 206.09 24.0036 207.531 23.6339C208.946 23.2814 210.412 22.2841 211.201 20.6848L210.601 20.7966C211.27 21.4329 212.102 21.9401 213.028 22.2497C214.991 22.8945 217.118 22.6022 218.636 21.6306C220.179 20.6677 221.003 19.1544 221.346 17.8819C221.697 16.5836 221.586 15.4831 221.414 14.7695C221.226 14.0559 221.003 13.7119 220.968 13.7291C220.814 13.7463 221.586 15.3197 220.831 17.7272C220.445 18.8793 219.648 20.212 218.267 21.0288C216.912 21.8542 215.017 22.0949 213.268 21.5188C212.445 21.2437 211.716 20.8052 211.124 20.255L210.747 19.9024L210.524 20.3667C209.872 21.7424 208.603 22.6624 207.359 23.0063C206.107 23.376 204.898 23.1439 204.015 22.7398C202.206 21.8972 201.665 20.6419 201.562 20.7364V20.7278Z" fill="#455A64"/>
<path d="M195.816 67.3555C195.816 67.4844 194.556 67.493 193.312 68.327C192.052 69.1266 191.529 70.2873 191.409 70.2272C191.357 70.21 191.409 69.8832 191.666 69.4276C191.914 68.9719 192.395 68.3958 193.064 67.9573C193.741 67.5188 194.453 67.3211 194.976 67.2781C195.499 67.2351 195.816 67.3125 195.816 67.3727V67.3555Z" fill="#263238"/>
<path d="M186.933 131.169L184.969 133.74C183.58 134.531 182.379 133.921 181.711 132.167L165.555 102.091L170.348 99.5977L188.554 128.676C188.554 128.676 188.717 130.146 186.933 131.169Z" fill="#455A64"/>
<path d="M146.276 99.9062C142.811 97.5246 140.025 94.0683 138.49 89.8123C136.594 84.5676 136.852 78.9015 139.218 73.8459C141.577 68.799 145.761 64.9729 150.992 63.0727C161.789 59.1521 173.751 64.7751 177.661 75.5999C179.557 80.8446 179.299 86.5107 176.933 91.5663C174.574 96.6132 170.39 100.439 165.159 102.339C158.607 104.712 151.627 103.578 146.276 99.9062ZM169.078 66.6581C164.087 63.2275 157.57 62.17 151.455 64.3882C146.576 66.1594 142.674 69.7275 140.47 74.4392C138.267 79.1509 138.026 84.4386 139.793 89.3308C141.559 94.223 145.118 98.1351 149.818 100.345C154.517 102.554 159.791 102.795 164.67 101.024C169.549 99.2528 173.451 95.6847 175.655 90.973C177.859 86.2613 178.099 80.9736 176.332 76.0814C174.9 72.1092 172.302 68.8849 169.069 66.6667L169.078 66.6581Z" fill="#263238"/>
<path d="M147.237 99.1152C143.772 96.7336 140.985 93.2772 139.45 89.0213C137.555 83.7765 137.813 78.1105 140.179 73.0549C142.538 68.0079 146.722 64.1819 151.953 62.2817C162.75 58.3611 174.712 63.9841 178.622 74.8089C180.518 80.0536 180.26 85.7197 177.894 90.7752C175.527 95.8308 171.351 99.6483 166.12 101.548C159.568 103.921 152.588 102.787 147.237 99.1152ZM170.039 65.8671C165.048 62.4365 158.531 61.3789 152.416 63.5972C147.537 65.3684 143.635 68.9365 141.431 73.6482C139.228 78.3598 138.987 83.6476 140.754 88.5398C142.52 93.432 146.079 97.3441 150.778 99.5537C155.478 101.763 160.752 102.004 165.631 100.233C170.51 98.4618 174.412 94.8936 176.616 90.182C178.82 85.4703 179.06 80.1826 177.293 75.2904C175.861 71.3181 173.263 68.0939 170.03 65.8757L170.039 65.8671Z" fill="#455A64"/>
<path d="M153.135 98.7533C153.152 98.7017 154.07 99.1402 155.648 99.5013C155.845 99.5443 156.051 99.5873 156.265 99.6302C156.48 99.6732 156.711 99.6904 156.943 99.7334C157.414 99.8108 157.92 99.8366 158.452 99.871C159.515 99.8968 160.699 99.8452 161.908 99.6302C163.117 99.4067 164.249 99.0542 165.235 98.6587C165.724 98.4437 166.196 98.246 166.607 98.0138C166.813 97.9021 167.027 97.7989 167.207 97.6871C167.396 97.5667 167.576 97.455 167.748 97.3518C169.103 96.4662 169.814 95.744 169.849 95.787C169.857 95.7956 169.686 95.9761 169.351 96.2857C169.188 96.449 168.982 96.6382 168.717 96.8273C168.459 97.0251 168.176 97.2658 167.833 97.4808C167.662 97.5925 167.482 97.7129 167.293 97.8333C167.104 97.9537 166.899 98.0568 166.684 98.1772C166.273 98.4265 165.801 98.6243 165.304 98.8564C164.3 99.2691 163.16 99.6302 161.934 99.8624C160.699 100.077 159.507 100.129 158.426 100.086C157.886 100.043 157.372 100.017 156.9 99.9312C156.66 99.8882 156.428 99.8624 156.214 99.8194C155.999 99.7678 155.785 99.7162 155.588 99.6732C155.185 99.5959 154.842 99.4583 154.533 99.3637C154.224 99.2691 153.967 99.166 153.753 99.0714C153.333 98.8908 153.101 98.7876 153.11 98.7705L153.135 98.7533Z" fill="white"/>
<path d="M216.362 133.395C211.388 128.615 187.832 104.928 187.257 104.592C186.537 104.171 175.355 99.0468 173.022 100.173C170.698 101.299 164.121 108.238 164.121 108.238C164.121 108.238 164.275 112.924 169.738 110.061C173.906 107.877 174.549 107.533 174.626 107.499L180.011 109.27C180.011 109.27 173.065 111.488 171.513 112.838C169.969 114.188 167.234 119.647 168.52 121.066C169.807 122.493 171.419 122.743 171.419 122.743C171.419 122.743 168.306 126.44 173.005 129.251C173.005 129.251 173.434 132.63 175.741 134.135C178.047 135.648 182.601 135.579 182.601 135.579C182.601 135.579 184.805 134.522 183.424 132.329C182.052 130.137 179.205 129.604 179.205 129.604L182.944 127.841C182.944 127.841 184.745 128.572 187.3 130.936C187.3 130.936 194.786 139.01 198.234 136.946L203.104 142.759C206.818 140.489 216.37 133.395 216.37 133.395H216.362Z" fill="#AE7461"/>
<path d="M182.104 121.144C182.104 121.144 181.916 121.118 181.573 121.127C181.23 121.144 180.741 121.196 180.141 121.333C178.949 121.591 177.328 122.262 175.93 123.543C174.532 124.824 173.726 126.38 173.357 127.541C173.169 128.125 173.066 128.616 173.023 128.951C172.98 129.286 172.972 129.484 172.989 129.484C173.04 129.484 173.117 128.736 173.529 127.601C173.932 126.475 174.747 124.97 176.102 123.732C177.456 122.494 179.017 121.815 180.175 121.514C181.341 121.204 182.096 121.196 182.096 121.144H182.104Z" fill="#6F4439"/>
<path d="M182.866 115.167C182.866 115.167 182.661 115.15 182.3 115.159C182.12 115.159 181.897 115.176 181.64 115.21C181.383 115.245 181.083 115.27 180.765 115.339C180.122 115.451 179.368 115.657 178.553 115.958C177.747 116.276 176.881 116.689 176.04 117.222C175.2 117.772 174.463 118.383 173.837 118.985C173.228 119.595 172.722 120.197 172.344 120.739C172.147 120.997 172.001 121.263 171.864 121.478C171.727 121.693 171.624 121.899 171.538 122.063C171.375 122.39 171.29 122.579 171.307 122.587C171.35 122.613 171.71 121.882 172.49 120.85C172.876 120.335 173.391 119.759 173.999 119.157C174.625 118.572 175.354 117.979 176.178 117.446C177.009 116.921 177.961 116.328 178.75 116.01C179.548 115.7 180.165 115.657 180.8 115.52C182.06 115.245 182.866 115.219 182.866 115.167Z" fill="#6F4439"/>
<path d="M184.47 108.368C184.47 108.368 184.212 108.204 183.741 108.135C183.269 108.058 182.592 108.075 181.888 108.299C180.945 108.608 180.585 108.961 180.293 109.253C179.95 109.589 179.813 109.855 179.839 109.872C179.899 109.932 180.619 108.969 181.966 108.548C183.303 108.092 184.452 108.445 184.47 108.368Z" fill="#6F4439"/>
<g opacity="0.1">
<path d="M173.47 73.9068C173.041 73.09 172.449 72.2302 171.549 72.0496C170.605 71.8519 169.654 72.4967 169.173 73.3307C168.693 74.1647 168.582 75.1535 168.479 76.1164C168.213 78.5582 167.921 81.0258 167.03 83.3129C166.138 85.5999 164.551 87.7064 162.322 88.721C160.521 89.5378 158.471 89.5808 156.49 89.6668C154.51 89.7527 152.443 89.9419 150.762 90.9994C150.745 91.008 150.728 91.0166 150.711 91.0338C148.344 92.5471 148.678 96.1324 151.242 97.2759C157.142 99.9155 164.603 99.0213 169.525 94.7567C175.288 89.7699 177.011 80.6733 173.47 73.9154V73.9068Z" fill="black"/>
</g>
<path d="M278.877 158.647L254.514 160.702C248.898 156.979 209.734 126.534 208.594 125.734L198.406 137.445C219.776 163.419 234.748 182.386 252.739 195.713C261.632 202.299 276.116 198.739 279.863 186.728C281.698 180.847 278.877 158.647 278.877 158.647Z" fill="#AE7461"/>
<g opacity="0.3">
<path d="M155.789 304.519C155.789 304.519 164.544 305.74 165.17 305.938C165.376 305.998 188.907 305.998 188.907 305.998L188.289 295.07L161.535 295.664L155.789 304.519Z" fill="black"/>
</g>
<g opacity="0.3">
<path d="M156.406 294.444C156.406 294.444 165.29 296.284 165.788 295.862C166.285 295.433 188.289 295.071 188.289 295.071L187.672 286.302L160.883 285.416L156.406 294.444Z" fill="black"/>
</g>
<g opacity="0.3">
<path d="M156.406 284.865C156.406 284.865 164.561 285.939 165.059 285.518C165.556 285.088 187.672 286.3 187.672 286.3L186.48 266.869L160.737 273.851L156.415 284.865H156.406Z" fill="black"/>
</g>
<path d="M73.3203 130.894C73.3203 130.894 132.181 222.281 128.048 284.453L163.164 305.99H188.915C187.509 289.844 187.706 263.422 179.843 226.357C159.622 130.997 123.7 130.73 123.7 130.73L73.3203 130.885V130.894Z" fill="#E0E0E0"/>
<path d="M186.444 276.249L127.643 286.326C128.132 288.209 127.198 290.573 125.903 291.863C124.608 293.161 122.79 293.763 121.023 294.227C117.559 295.138 113.992 295.672 110.407 295.809C108.521 295.886 106.608 295.852 104.79 296.342C102.972 296.832 101.206 297.959 100.468 299.695C99.7309 301.432 100.365 305.912 104.842 305.912H164.552C160.075 305.912 159.441 301.441 160.178 299.695C160.916 297.959 162.682 296.832 164.5 296.342C166.318 295.852 168.239 295.878 170.117 295.809C173.701 295.672 177.26 295.138 180.733 294.227C182.5 293.763 184.318 293.152 185.612 291.863C186.907 290.564 186.719 278.424 186.444 276.24V276.249Z" fill="#E0E0E0"/>
<path d="M186.392 267.531L128.577 276.129C129.066 278.012 128.131 280.377 126.836 281.666C125.541 282.965 123.723 283.566 121.957 284.031C118.492 284.942 114.925 285.475 111.341 285.613C109.454 285.69 107.542 285.656 105.724 286.146C103.906 286.636 102.139 287.762 101.402 289.499C100.664 291.236 101.299 295.715 105.775 295.715H165.485C161.009 295.715 160.374 291.244 161.112 289.499C161.849 287.762 163.616 286.636 165.434 286.146C167.252 285.656 169.173 285.681 171.051 285.613C174.635 285.475 178.194 284.942 181.667 284.031C183.433 283.566 185.251 282.956 186.546 281.666C187.841 280.368 186.666 269.707 186.392 267.531Z" fill="#E0E0E0"/>
<path d="M186.161 265.424L127.651 267.358C128.14 269.138 127.205 271.356 125.91 272.577C124.616 273.798 122.798 274.366 121.031 274.813C117.567 275.673 113.999 276.171 110.415 276.309C108.528 276.378 106.616 276.352 104.798 276.816C102.98 277.28 101.214 278.338 100.476 279.98C99.7387 281.622 100.373 285.835 104.85 285.835L164.379 285.165C159.903 285.165 159.448 281.614 160.186 279.98C160.923 278.338 162.69 277.28 164.508 276.816C166.326 276.352 168.247 276.378 170.125 276.309C173.709 276.18 177.268 275.673 180.741 274.813C182.507 274.374 184.325 273.798 185.62 272.577C186.915 271.356 186.435 267.47 186.161 265.424Z" fill="#E0E0E0"/>
<path d="M94.9967 175.628C94.9967 175.628 88.1107 160.685 86.7729 156.558C85.4352 152.431 88.8739 150.126 92.1239 147.633C95.374 145.14 107.234 144.185 107.808 146.292C108.383 148.398 108.194 151.468 106.47 151.657C104.747 151.846 98.2467 151.476 94.4221 156.549C94.4221 156.549 110.295 153.007 114.12 156.549C117.944 160.091 110.87 161.433 110.87 161.433C110.87 161.433 112.97 164.88 111.058 165.843C109.146 166.798 98.624 168.913 98.624 168.913L98.4354 170.443C98.4354 170.443 103.598 170.056 107.045 171.019C110.484 171.982 112.019 175.619 112.019 175.619C111.255 178.5 109.918 178.5 108.005 177.15C106.093 175.808 104.755 175.619 104.755 175.619C104.755 175.619 101.694 179.454 99.593 179.643C97.4921 179.832 95.0052 175.619 95.0052 175.619L94.9967 175.628Z" fill="#AE7461"/>
<g opacity="0.3">
<path d="M120.817 130.73C120.817 130.73 108.675 144.152 110.784 165.122C112.894 186.084 112.859 209.367 112.859 209.367L105.81 192.274L100.871 143.068L110.844 132.098L120.817 130.73Z" fill="black"/>
</g>
<path d="M120.819 130.729H70.7311C70.7311 130.729 50.0474 131.168 50.0474 172.042C50.0474 224.988 62.1729 243.07 29.9727 273.291L81.9475 279.834C81.9475 279.834 106.533 277.461 106.507 233.354C106.499 213.226 105.581 177.493 104.483 160.28C103.686 147.736 112.913 131.58 120.819 130.721V130.729Z" fill="white"/>
<path d="M120.819 130.73C120.708 130.756 120.493 130.799 120.022 130.893C119.499 131.031 118.727 131.271 117.801 131.787C115.94 132.793 113.547 134.926 111.249 138.27C108.968 141.615 106.696 146.146 105.375 151.812C103.831 157.504 105.049 164.21 105.212 171.596C105.855 186.393 106.395 204.173 106.644 224.206C106.67 229.21 106.816 234.36 106.516 239.648C106.215 244.919 105.521 250.327 104.012 255.666C102.537 260.988 100.23 266.302 96.6025 270.824C94.776 273.06 92.6493 275.106 90.1796 276.714C87.7099 278.313 84.9744 279.594 81.9645 280.05H81.9473H81.9216C66.9148 278.158 51.1277 276.181 34.9204 274.134C33.2224 273.92 31.5245 273.705 29.9553 273.507L29.4922 273.447L29.8352 273.12C32.4335 270.627 34.989 268.107 37.3129 265.408C39.6368 262.716 41.8063 259.922 43.7015 256.973C47.5003 251.083 50.0043 244.515 51.1019 237.817C52.2253 231.119 52.191 224.404 51.9252 217.887C51.6593 211.352 51.1534 204.973 50.7847 198.739C50.3988 192.506 50.1072 186.418 49.9786 180.512C49.91 177.554 49.8757 174.639 49.8843 171.776C49.9357 170.34 49.9786 168.922 50.0215 167.503C50.0729 166.093 50.0815 164.692 50.2701 163.307C50.4159 161.923 50.5617 160.556 50.6989 159.197C50.7504 158.518 50.8961 157.848 51.0162 157.186C51.1362 156.524 51.2649 155.861 51.3849 155.199C51.505 154.537 51.6336 153.884 51.7537 153.23C51.8909 152.586 52.1053 151.949 52.2682 151.313C52.4483 150.677 52.6283 150.049 52.7999 149.422C52.9714 148.794 53.1343 148.166 53.4001 147.573C55.0723 142.707 57.6621 138.279 61.1951 135.115C62.9187 133.49 64.9339 132.26 67.0349 131.452C68.081 131.039 69.1701 130.756 70.2592 130.618C71.374 130.532 72.4287 130.592 73.5006 130.575C77.7454 130.575 81.7415 130.592 85.4803 130.601C92.9408 130.627 99.3723 130.652 104.62 130.67C114.962 130.695 120.219 130.704 120.819 130.704C120.219 130.704 114.911 130.721 104.475 130.747C99.2351 130.764 92.8294 130.79 85.3946 130.824C81.6815 130.833 77.7025 130.842 73.4921 130.85C69.2644 130.369 64.8139 132.166 61.4095 135.338C57.9279 138.468 55.3724 142.844 53.726 147.676C53.4687 148.261 53.3058 148.889 53.1343 149.516C52.9628 150.135 52.7827 150.763 52.6112 151.399C52.4483 152.027 52.2339 152.654 52.0967 153.299C51.9766 153.953 51.8566 154.598 51.7365 155.26C51.6165 155.913 51.4964 156.575 51.3678 157.237C51.2477 157.899 51.1019 158.561 51.0505 159.24C50.9133 160.59 50.7675 161.957 50.6303 163.333C50.4502 164.709 50.4416 166.102 50.3902 167.512C50.3473 168.922 50.3044 170.34 50.253 171.768C50.253 174.631 50.2873 177.545 50.3559 180.494C50.5017 186.401 50.7932 192.48 51.1791 198.713C51.5564 204.947 52.0624 211.327 52.3368 217.87C52.6112 224.404 52.6455 231.145 51.5136 237.894C50.4159 244.635 47.8862 251.273 44.0616 257.214C42.1493 260.18 39.9712 263 37.6301 265.7C35.2891 268.408 32.7337 270.936 30.1268 273.438L29.9981 273.051C31.5674 273.249 33.2653 273.464 34.9632 273.679C51.1705 275.725 66.9577 277.711 81.9645 279.603H81.913C84.7857 279.164 87.5212 277.9 89.9309 276.336C92.3577 274.754 94.4587 272.742 96.2595 270.532C99.844 266.078 102.134 260.816 103.6 255.537C105.101 250.241 105.795 244.859 106.104 239.605C106.404 234.352 106.267 229.193 106.25 224.189C106.027 204.165 105.529 186.384 104.921 171.587C104.758 167.89 104.595 164.373 104.389 161.063C104.123 157.736 104.492 154.58 105.143 151.743C106.49 146.051 108.805 141.512 111.112 138.167C113.436 134.822 115.863 132.69 117.749 131.701C118.692 131.194 119.473 130.97 119.996 130.833C120.253 130.781 120.45 130.764 120.596 130.738C120.708 130.721 120.759 130.713 120.811 130.704L120.819 130.73Z" fill="#263238"/>
<g opacity="0.3">
<path d="M67.1289 268.46H75.5413C75.5413 268.46 75.9958 279.663 84.9998 278.898C84.9998 278.898 83.0961 280.153 80.5235 279.826C77.9509 279.499 69.933 281.477 67.1289 268.451V268.46Z" fill="black"/>
</g>
<path d="M5.88168 262.811C5.88168 262.811 4.55251 278.863 24.4901 279.826C44.4191 280.789 80.5725 279.826 80.5725 279.826C80.5725 279.826 68.0183 277.556 68.0183 263.868L5.88168 262.819V262.811Z" fill="#E0E0E0"/>
<path d="M5.88282 262.811C5.88282 262.811 5.97714 262.81 6.17438 262.802C6.38876 262.802 6.68032 262.802 7.05763 262.802C7.86371 262.802 9.0128 262.819 10.5049 262.828C13.5406 262.862 17.9311 262.922 23.4365 262.982C34.5243 263.146 50.0713 263.378 68.028 263.636H68.2424V263.851C68.2424 267.273 69.1428 270.893 71.3638 273.79C73.5591 276.688 76.9635 278.734 80.6166 279.585L82.323 279.981L80.5823 280.024C80.5823 280.024 80.5136 280.024 80.4708 280.024C68.8341 280.307 57.7462 280.445 47.6617 280.428C42.6194 280.419 37.8258 280.376 33.3409 280.273C28.856 280.127 24.6799 280.11 20.8724 279.585C17.0907 278.975 13.7807 277.573 11.4139 275.63C9.02138 273.704 7.6579 271.322 6.90328 269.328C6.14865 267.307 5.95142 265.631 5.87424 264.513C5.83994 263.954 5.83994 263.516 5.84851 263.232C5.84851 262.948 5.88282 262.785 5.88282 262.793C5.88282 262.802 5.88282 262.939 5.89139 263.232C5.89139 263.516 5.90854 263.945 5.95999 264.504C6.0629 265.613 6.28585 267.281 7.05763 269.268C7.82083 271.236 9.18431 273.558 11.5597 275.441C13.9007 277.332 17.1679 278.699 20.9153 279.284C24.6713 279.783 28.8646 279.791 33.3409 279.92C37.8258 280.006 42.6108 280.032 47.6531 280.032C57.7377 280.024 68.8255 279.877 80.4536 279.594C80.4879 279.594 80.5308 279.594 80.5651 279.594L80.5308 280.041C78.6099 279.611 76.8263 278.854 75.2055 277.848C73.5848 276.842 72.127 275.578 71.0036 274.074C68.714 271.082 67.7879 267.35 67.8051 263.868L68.0194 264.083C50.1228 263.739 34.6186 263.447 23.5737 263.232C18.0512 263.111 13.6435 263.017 10.5992 262.948C9.08998 262.914 7.92374 262.879 7.10908 262.862C6.72319 262.853 6.42306 262.836 6.2001 262.836C5.99429 262.836 5.89139 262.819 5.88282 262.819V262.811Z" fill="#263238"/>
<path d="M94.1824 202.376C94.1824 202.609 89.6632 202.798 84.0892 202.798C78.5153 202.798 73.9961 202.609 73.9961 202.376C73.9961 202.144 78.5153 201.955 84.0892 201.955C89.6632 201.955 94.1824 202.144 94.1824 202.376Z" fill="#263238"/>
<path d="M59.2891 202.445C59.2891 202.213 60.5496 202.023 62.1018 202.023C63.6539 202.023 64.9145 202.213 64.9145 202.445C64.9145 202.677 63.6539 202.866 62.1018 202.866C60.5496 202.866 59.2891 202.677 59.2891 202.445Z" fill="#263238"/>
<path d="M95.4245 194.999C95.4245 195.232 90.9054 195.421 85.3314 195.421C79.7575 195.421 75.2383 195.232 75.2383 194.999C75.2383 194.767 79.7575 194.578 85.3314 194.578C90.9054 194.578 95.4245 194.767 95.4245 194.999Z" fill="#263238"/>
<path d="M59.2891 195.412C59.2891 195.179 60.5496 194.99 62.1018 194.99C63.6539 194.99 64.9145 195.179 64.9145 195.412C64.9145 195.644 63.6539 195.833 62.1018 195.833C60.5496 195.833 59.2891 195.644 59.2891 195.412Z" fill="#263238"/>
<path d="M95.2019 188.749C95.2019 188.982 90.6827 189.171 85.1088 189.171C79.5348 189.171 75.0156 188.982 75.0156 188.749C75.0156 188.517 79.5348 188.328 85.1088 188.328C90.6827 188.328 95.2019 188.517 95.2019 188.749Z" fill="#263238"/>
<path d="M59.2891 188.808C59.2891 188.576 60.5496 188.387 62.1018 188.387C63.6539 188.387 64.9145 188.576 64.9145 188.808C64.9145 189.04 63.6539 189.229 62.1018 189.229C60.5496 189.229 59.2891 189.04 59.2891 188.808Z" fill="#263238"/>
<path d="M94.4128 181.406C94.4128 181.638 89.8936 181.827 84.3197 181.827C78.7457 181.827 74.2266 181.638 74.2266 181.406C74.2266 181.174 78.7457 180.984 84.3197 180.984C89.8936 180.984 94.4128 181.174 94.4128 181.406Z" fill="#263238"/>
<path d="M58.2695 181.828C58.2695 181.595 59.5301 181.406 61.0822 181.406C62.6344 181.406 63.8949 181.595 63.8949 181.828C63.8949 182.06 62.6344 182.249 61.0822 182.249C59.5301 182.249 58.2695 182.06 58.2695 181.828Z" fill="#263238"/>
<path d="M94.1824 175.163C94.1824 175.396 89.6632 175.585 84.0892 175.585C78.5153 175.585 73.9961 175.396 73.9961 175.163C73.9961 174.931 78.5153 174.742 84.0892 174.742C89.6632 174.742 94.1824 174.931 94.1824 175.163Z" fill="#263238"/>
<path d="M58.2695 175.224C58.2695 174.992 59.5301 174.803 61.0822 174.803C62.6344 174.803 63.8949 174.992 63.8949 175.224C63.8949 175.456 62.6344 175.645 61.0822 175.645C59.5301 175.645 58.2695 175.456 58.2695 175.224Z" fill="#263238"/>
<path d="M93.4636 167.822C93.4636 168.054 88.9444 168.243 83.3705 168.243C77.7965 168.243 73.2773 168.054 73.2773 167.822C73.2773 167.59 77.7965 167.4 83.3705 167.4C88.9444 167.4 93.4636 167.59 93.4636 167.822Z" fill="#263238"/>
<path d="M57.3242 168.242C57.3242 168.009 58.5848 167.82 60.1369 167.82C61.689 167.82 62.9496 168.009 62.9496 168.242C62.9496 168.474 61.689 168.663 60.1369 168.663C58.5848 168.663 57.3242 168.474 57.3242 168.242Z" fill="#263238"/>
<path d="M93.2409 161.579C93.2409 161.812 88.7218 162.001 83.1478 162.001C77.5739 162.001 73.0547 161.812 73.0547 161.579C73.0547 161.347 77.5739 161.158 83.1478 161.158C88.7218 161.158 93.2409 161.347 93.2409 161.579Z" fill="#263238"/>
<path d="M94.4831 155.173C94.4831 155.405 89.964 155.595 84.39 155.595C78.8161 155.595 74.2969 155.405 74.2969 155.173C74.2969 154.941 78.8161 154.752 84.39 154.752C89.964 154.752 94.4831 154.941 94.4831 155.173Z" fill="#263238"/>
<path d="M57.3242 161.64C57.3242 161.408 58.5848 161.219 60.1369 161.219C61.689 161.219 62.9496 161.408 62.9496 161.64C62.9496 161.872 61.689 162.061 60.1369 162.061C58.5848 162.061 57.3242 161.872 57.3242 161.64Z" fill="#263238"/>
<path d="M58.2695 154.761C58.2695 154.529 59.5301 154.34 61.0822 154.34C62.6344 154.34 63.8949 154.529 63.8949 154.761C63.8949 154.993 62.6344 155.182 61.0822 155.182C59.5301 155.182 58.2695 154.993 58.2695 154.761Z" fill="#263238"/>
<path d="M95.7878 148.913C95.7878 149.146 91.2686 149.335 85.6947 149.335C80.1207 149.335 75.6016 149.146 75.6016 148.913C75.6016 148.681 80.1207 148.492 85.6947 148.492C91.2686 148.492 95.7878 148.681 95.7878 148.913Z" fill="#263238"/>
<path d="M59.5742 148.501C59.5742 148.269 60.8348 148.08 62.3869 148.08C63.939 148.08 65.1996 148.269 65.1996 148.501C65.1996 148.734 63.939 148.923 62.3869 148.923C60.8348 148.923 59.5742 148.734 59.5742 148.501Z" fill="#263238"/>
<path d="M97.0886 142.646C97.0886 142.878 92.5694 143.067 86.9955 143.067C81.4215 143.067 76.9023 142.878 76.9023 142.646C76.9023 142.414 81.4215 142.225 86.9955 142.225C92.5694 142.225 97.0886 142.414 97.0886 142.646Z" fill="#263238"/>
<path d="M60.875 142.242C60.875 142.009 62.1356 141.82 63.6877 141.82C65.2398 141.82 66.5004 142.009 66.5004 142.242C66.5004 142.474 65.2398 142.663 63.6877 142.663C62.1356 142.663 60.875 142.474 60.875 142.242Z" fill="#263238"/>
<path d="M101.807 137.015C101.807 137.247 97.2882 137.436 91.7142 137.436C86.1403 137.436 81.6211 137.247 81.6211 137.015C81.6211 136.783 86.1403 136.594 91.7142 136.594C97.2882 136.594 101.807 136.783 101.807 137.015Z" fill="#263238"/>
<path d="M65.6016 136.603C65.6016 136.371 66.8621 136.182 68.4143 136.182C69.9664 136.182 71.227 136.371 71.227 136.603C71.227 136.835 69.9664 137.024 68.4143 137.024C66.8621 137.024 65.6016 136.835 65.6016 136.603Z" fill="#263238"/>
<path d="M94.1824 210.441C94.1824 210.673 89.6632 210.862 84.0892 210.862C78.5153 210.862 73.9961 210.673 73.9961 210.441C73.9961 210.209 78.5153 210.02 84.0892 210.02C89.6632 210.02 94.1824 210.209 94.1824 210.441Z" fill="#263238"/>
<path d="M59.2891 210.509C59.2891 210.277 60.5496 210.088 62.1018 210.088C63.6539 210.088 64.9145 210.277 64.9145 210.509C64.9145 210.741 63.6539 210.93 62.1018 210.93C60.5496 210.93 59.2891 210.741 59.2891 210.509Z" fill="#263238"/>
<path d="M95.2019 218.351C95.2019 218.583 90.6827 218.772 85.1088 218.772C79.5348 218.772 75.0156 218.583 75.0156 218.351C75.0156 218.119 79.5348 217.93 85.1088 217.93C90.6827 217.93 95.2019 218.119 95.2019 218.351Z" fill="#263238"/>
<path d="M60.3086 218.412C60.3086 218.179 61.5692 217.99 63.1213 217.99C64.6734 217.99 65.934 218.179 65.934 218.412C65.934 218.644 64.6734 218.833 63.1213 218.833C61.5692 218.833 60.3086 218.644 60.3086 218.412Z" fill="#263238"/>
<path d="M95.5222 225.177C95.5222 225.409 91.003 225.598 85.4291 225.598C79.8551 225.598 75.3359 225.409 75.3359 225.177C75.3359 224.945 79.8551 224.756 85.4291 224.756C91.003 224.756 95.5222 224.945 95.5222 225.177Z" fill="#263238"/>
<path d="M60.6289 225.238C60.6289 225.006 61.8895 224.816 63.4416 224.816C64.9937 224.816 66.2543 225.006 66.2543 225.238C66.2543 225.47 64.9937 225.659 63.4416 225.659C61.8895 225.659 60.6289 225.47 60.6289 225.238Z" fill="#263238"/>
<path d="M95.8386 232.005C95.8386 232.237 91.3194 232.427 85.7455 232.427C80.1715 232.427 75.6523 232.237 75.6523 232.005C75.6523 231.773 80.1715 231.584 85.7455 231.584C91.3194 231.584 95.8386 231.773 95.8386 232.005Z" fill="#263238"/>
<path d="M60.9531 232.074C60.9531 231.842 62.2137 231.652 63.7658 231.652C65.318 231.652 66.5785 231.842 66.5785 232.074C66.5785 232.306 65.318 232.495 63.7658 232.495C62.2137 232.495 60.9531 232.306 60.9531 232.074Z" fill="#263238"/>
<path d="M96.1628 238.831C96.1628 239.064 91.6436 239.253 86.0697 239.253C80.4957 239.253 75.9766 239.064 75.9766 238.831C75.9766 238.599 80.4957 238.41 86.0697 238.41C91.6436 238.41 96.1628 238.599 96.1628 238.831Z" fill="#263238"/>
<path d="M61.2695 238.9C61.2695 238.668 62.5301 238.479 64.0822 238.479C65.6344 238.479 66.8949 238.668 66.8949 238.9C66.8949 239.132 65.6344 239.321 64.0822 239.321C62.5301 239.321 61.2695 239.132 61.2695 238.9Z" fill="#263238"/>
<path d="M96.2761 245.468C96.2761 245.7 91.7569 245.889 86.183 245.889C80.609 245.889 76.0898 245.7 76.0898 245.468C76.0898 245.236 80.609 245.047 86.183 245.047C91.7569 245.047 96.2761 245.236 96.2761 245.468Z" fill="#263238"/>
<path d="M61.3906 245.538C61.3906 245.306 62.6512 245.117 64.2033 245.117C65.7555 245.117 67.016 245.306 67.016 245.538C67.016 245.771 65.7555 245.96 64.2033 245.96C62.6512 245.96 61.3906 245.771 61.3906 245.538Z" fill="#263238"/>
<path d="M95.2019 252.081C95.2019 252.314 90.6827 252.503 85.1088 252.503C79.5348 252.503 75.0156 252.314 75.0156 252.081C75.0156 251.849 79.5348 251.66 85.1088 251.66C90.6827 251.66 95.2019 251.849 95.2019 252.081Z" fill="#263238"/>
<path d="M60.3086 252.14C60.3086 251.908 61.5692 251.719 63.1213 251.719C64.6734 251.719 65.934 251.908 65.934 252.14C65.934 252.372 64.6734 252.561 63.1213 252.561C61.5692 252.561 60.3086 252.372 60.3086 252.14Z" fill="#263238"/>
<path d="M92.612 259.097C92.612 259.329 88.0929 259.518 82.5189 259.518C76.945 259.518 72.4258 259.329 72.4258 259.097C72.4258 258.865 76.945 258.676 82.5189 258.676C88.0929 258.676 92.612 258.865 92.612 259.097Z" fill="#263238"/>
<path d="M57.7188 259.158C57.7188 258.926 58.9793 258.736 60.5314 258.736C62.0836 258.736 63.3442 258.926 63.3442 259.158C63.3442 259.39 62.0836 259.579 60.5314 259.579C58.9793 259.579 57.7188 259.39 57.7188 259.158Z" fill="#263238"/>
<path d="M90.6589 265.486C90.6589 265.718 86.1397 265.907 80.5658 265.907C74.9918 265.907 70.4727 265.718 70.4727 265.486C70.4727 265.254 74.9918 265.064 80.5658 265.064C86.1397 265.064 90.6589 265.254 90.6589 265.486Z" fill="#263238"/>
<path d="M187.673 286.292C187.673 286.292 187.604 286.3 187.458 286.3C187.295 286.3 187.089 286.292 186.841 286.283C186.266 286.257 185.477 286.223 184.483 286.18C182.433 286.077 179.475 285.948 175.804 285.81C168.481 285.535 158.354 285.337 147.163 285.389C135.972 285.44 125.845 285.638 118.513 285.741C114.877 285.784 111.918 285.819 109.826 285.844C108.831 285.844 108.042 285.844 107.468 285.844C107.219 285.844 107.022 285.844 106.85 285.836C106.713 285.836 106.645 285.827 106.645 285.819C106.645 285.819 106.713 285.801 106.85 285.793C107.013 285.784 107.219 285.776 107.468 285.758C108.042 285.741 108.831 285.707 109.826 285.673C111.918 285.612 114.868 285.535 118.504 285.432C125.836 285.251 135.963 285.002 147.163 284.95C158.354 284.899 168.49 285.139 175.813 285.501C179.475 285.681 182.442 285.853 184.483 286.016C185.477 286.094 186.266 286.154 186.841 286.206C187.089 286.231 187.287 286.249 187.45 286.266C187.587 286.283 187.655 286.292 187.655 286.3L187.673 286.292Z" fill="#263238"/>
<path d="M185.114 295.501C185.114 295.622 168.607 295.776 148.249 295.845C127.882 295.914 111.375 295.862 111.375 295.742C111.375 295.622 127.882 295.467 148.249 295.398C168.607 295.329 185.114 295.381 185.114 295.501Z" fill="#263238"/>
<path d="M178.083 268.46C178.083 268.46 178.297 268.503 178.701 268.615C179.138 268.752 179.721 268.933 180.441 269.156C180.827 269.277 181.239 269.414 181.702 269.552C182.131 269.715 182.748 269.792 183.091 270.386C183.245 270.687 183.143 271.108 182.877 271.323C182.628 271.555 182.319 271.675 182.002 271.77C181.376 271.916 180.716 272.071 180.021 272.234C177.243 272.828 173.898 273.361 170.16 273.696C166.421 274.04 162.296 274.212 157.974 274.298C149.347 274.41 141.535 274.521 135.824 274.599C133.028 274.616 130.747 274.624 129.11 274.633C128.355 274.633 127.746 274.624 127.283 274.624C126.863 274.624 126.648 274.607 126.648 274.59C126.648 274.573 126.863 274.556 127.283 274.538C127.746 274.521 128.346 274.496 129.11 274.47C130.747 274.427 133.02 274.367 135.824 274.289C141.535 274.177 149.339 274.031 157.974 273.859C162.296 273.773 166.412 273.619 170.134 273.292C173.864 272.974 177.2 272.484 179.97 271.933C180.656 271.787 181.316 271.641 181.933 271.503C182.225 271.426 182.508 271.306 182.705 271.134C182.911 270.962 182.971 270.704 182.877 270.489C182.654 270.059 182.088 269.913 181.65 269.749C181.196 269.595 180.784 269.449 180.407 269.311C179.695 269.053 179.121 268.847 178.692 268.692C178.297 268.546 178.1 268.46 178.1 268.451L178.083 268.46Z" fill="#263238"/>
</g>
<defs>
<clipPath id="clip0_2376_99438">
<rect width="386" height="306" fill="white"/>
</clipPath>
</defs>
</svg>
