<svg width="340" height="326" viewBox="0 0 340 326" fill="none" xmlns="http://www.w3.org/2000/svg">
<g clip-path="url(#clip0_2711_80781)">
<g style="mix-blend-mode:multiply">
<path d="M15.3804 63.2188H112.44C120.15 63.2188 126.42 69.4787 126.42 77.1987V187.469C126.42 195.179 120.16 201.449 112.44 201.449H15.3804C7.67039 201.449 1.40039 195.189 1.40039 187.469V77.2087C1.40039 69.4987 7.66039 63.2287 15.3804 63.2287V63.2188Z" fill="#CCCDD2"/>
</g>
<path d="M13.98 61.4688H111.04C118.75 61.4688 125.02 67.7287 125.02 75.4487V185.709C125.02 193.429 118.76 199.689 111.04 199.689H13.98C6.26 199.689 0 193.429 0 185.709V75.4487C0 67.7387 6.26 61.4688 13.98 61.4688Z" fill="white"/>
<path d="M125.02 82.4388V75.4487C125.02 67.7287 118.76 61.4688 111.04 61.4688H13.98C6.26 61.4688 0 67.7287 0 75.4487V82.4388H125.02Z" fill="#004A7C"/>
<path d="M98.2301 76.5373C98.2301 77.1673 97.7201 77.6773 97.0901 77.6773H89.4701C88.8401 77.6773 88.3301 77.1573 88.3301 76.5373V68.9173C88.3301 68.2873 88.8401 67.7773 89.4701 67.7773H97.0901C97.7201 67.7773 98.2301 68.2873 98.2301 68.9173V76.5373Z" fill="white"/>
<path d="M112.589 76.5373C112.589 77.1673 112.079 77.6773 111.449 77.6773H103.839C103.209 77.6773 102.699 77.1573 102.699 76.5373V68.9173C102.699 68.2873 103.209 67.7773 103.839 67.7773H111.449C112.079 67.7773 112.589 68.2873 112.589 68.9173V76.5373Z" fill="white"/>
<path d="M81.7295 72.7273C81.7295 75.4573 79.5195 77.6773 76.7795 77.6773H12.7195C9.97953 77.6773 7.76953 75.4573 7.76953 72.7273C7.76953 69.9873 9.97953 67.7773 12.7195 67.7773H76.7795C79.5095 67.7773 81.7295 69.9873 81.7295 72.7273Z" fill="white"/>
<path d="M69.4998 125.209C69.4998 141.779 56.0698 155.209 39.5098 155.209C22.9498 155.209 9.50977 141.779 9.50977 125.209C9.50977 108.639 22.9398 95.2188 39.5098 95.2188C56.0798 95.2188 69.4998 108.649 69.4998 125.209Z" fill="#D8DADE"/>
<mask id="mask0_2711_80781" style="mask-type:luminance" maskUnits="userSpaceOnUse" x="9" y="95" width="61" height="61">
<path d="M69.4998 125.209C69.4998 141.779 56.0698 155.209 39.5098 155.209C22.9498 155.209 9.50977 141.779 9.50977 125.209C9.50977 108.639 22.9398 95.2188 39.5098 95.2188C56.0798 95.2188 69.4998 108.649 69.4998 125.209Z" fill="white"/>
</mask>
<g mask="url(#mask0_2711_80781)">
<path d="M54.5097 142.447C55.4597 146.877 24.2597 146.387 24.2597 142.447C29.1297 134.037 24.4197 128.417 23.8497 117.337C23.2797 106.257 53.6997 109.247 54.3397 117.337C54.9697 125.427 50.2597 136.557 54.5097 142.447Z" fill="#732313"/>
<path d="M49.0605 163.168H53.5405L53.4205 161.588C53.4205 161.588 52.9305 147.698 52.4005 143.798C51.8605 139.898 48.7905 139.938 48.7905 139.938L46.5605 146.478C46.5605 146.478 48.5405 158.828 48.7805 161.468C48.8205 161.848 48.9105 162.438 49.0605 163.178V163.168Z" fill="#F5BA93"/>
<path d="M28.1297 163.167C28.2897 162.357 28.3997 161.717 28.4397 161.307C28.6797 158.667 30.6697 146.317 30.6697 146.317L28.4397 139.777C28.4397 139.777 25.3697 139.737 24.8297 143.637C24.2897 147.537 23.8097 161.427 23.8097 161.427L23.6797 163.167H28.1397H28.1297Z" fill="#F5BA93"/>
<path d="M28.9488 157.76L30.1588 163.17H47.0988L48.8988 157.76C48.8988 157.76 51.7388 155.66 51.7088 153.71C51.6788 151.77 48.0888 146.47 48.0888 146.47L49.3388 139.79L43.9888 137.27H33.5888L28.3588 139.68L29.4388 146.48C29.4388 146.48 26.5288 151.61 26.4888 153.72C26.4488 155.83 28.9688 157.77 28.9688 157.77L28.9488 157.76Z" fill="#E55747"/>
<path d="M43.98 137.267C43.98 137.267 45.87 144.657 44.85 146.547C43.7 148.677 34.4 148.497 33.15 146.547C31.9 144.597 33.58 137.267 33.58 137.267L35.18 137.187V129.387H42.33V136.857L43.98 137.267Z" fill="#F5BA93"/>
<path d="M41.1297 136.117C41.5497 135.997 41.9397 135.857 42.3297 135.697V129.387H35.1797V135.077C37.0797 135.967 38.9197 136.737 41.1297 136.117Z" fill="#DA9B7E"/>
<path d="M54.4002 125.087C53.4202 125.497 52.2802 124.797 52.2802 124.797C52.2802 124.797 47.2402 125.057 47.2402 123.747V119.347C47.2402 116.217 52.2802 116.527 52.2802 116.527C52.2802 116.527 53.4202 114.937 54.9402 116.017C57.3502 117.737 56.2802 124.287 54.3902 125.077L54.4002 125.087Z" fill="#F5BA93"/>
<path d="M24.6299 125.087C25.6099 125.497 26.7499 124.797 26.7499 124.797C26.7499 124.797 31.7899 125.057 31.7899 123.747V119.347C31.7899 116.217 26.7499 116.527 26.7499 116.527C26.7499 116.527 25.6099 114.937 24.0899 116.017C21.6799 117.737 22.7499 124.287 24.6399 125.077L24.6299 125.087Z" fill="#F5BA93"/>
<path d="M52.3988 123.289C52.3988 129.119 43.9588 135.579 39.4288 135.579C34.4588 135.579 26.4688 128.699 26.4688 122.919V110.729C26.4688 93.5087 52.3988 92.3687 52.3988 110.729V123.279V123.289Z" fill="#F5BA93"/>
<path d="M27.2497 116.708C27.1597 115.068 29.8797 113.748 30.1497 107.768C32.4097 109.018 43.3397 115.438 51.5997 116.678C51.5097 120.148 52.3297 121.278 52.5697 122.278C52.5697 122.278 52.5897 119.278 52.5697 117.738C52.5497 116.198 54.5097 115.648 54.5097 115.648V110.338C54.5097 107.488 51.5897 94.2379 39.3597 97.3379C27.7097 94.6379 22.4397 106.868 22.6797 109.868C22.9197 112.878 23.2497 116.948 23.2497 116.948C23.2497 116.948 25.9197 114.468 26.2797 117.888C26.4797 119.728 26.3197 121.668 27.6497 121.968C27.4797 120.318 27.3597 118.798 27.2497 116.708Z" fill="#732313"/>
<path d="M39.1895 117.598V126.138L40.6895 124.958L39.1895 117.598Z" fill="#DA9B7E"/>
<path d="M36.9395 115.917C36.9395 115.917 34.6495 114.377 33.1795 114.857C31.7195 115.347 29.8895 116.927 29.8895 116.927L29.6895 116.177C29.6895 116.177 31.0595 114.517 33.0395 114.367C35.0295 114.197 36.9395 115.927 36.9395 115.927V115.917Z" fill="#732313"/>
<path d="M35.6699 129.138C35.6699 129.138 36.8799 130.298 37.5699 130.348C38.2599 130.398 40.7799 130.508 41.6299 130.218C41.9199 130.118 42.9299 129.158 42.9299 129.158C42.9299 129.158 40.0299 129.018 39.4999 128.988C38.9799 128.958 35.6699 129.128 35.6699 129.128V129.138Z" fill="#CB4639"/>
<path d="M33.7402 128.237C33.7402 128.237 35.5202 128.877 36.2302 128.807C36.9402 128.727 38.1402 127.717 38.4202 127.847C38.7002 127.967 39.4202 128.267 39.4202 128.267C39.4202 128.267 40.3502 127.797 40.6302 127.847C40.9102 127.897 42.3902 128.877 42.9102 128.807C43.4202 128.737 44.6302 128.237 44.6302 128.237C44.6302 128.237 43.1402 129.227 42.5502 129.397C41.4502 129.727 40.2802 129.377 39.5002 129.327C38.5602 129.267 37.2002 129.927 36.1302 129.357C35.0602 128.797 33.7502 128.227 33.7502 128.227L33.7402 128.237Z" fill="#E44E40"/>
<path d="M42.0801 115.78C42.0801 115.78 44.3801 114.23 45.8401 114.72C47.3001 115.21 49.1301 116.79 49.1301 116.79L49.3301 116.03C49.3301 116.03 47.9701 114.37 45.9701 114.21C43.9801 114.05 42.0801 115.77 42.0801 115.77V115.78Z" fill="#732313"/>
<path d="M45.2698 117.206C46.9398 117.206 46.6898 118.446 47.2198 118.786C47.3698 118.696 48.2898 118.386 48.2898 118.386C48.2898 118.386 47.4098 116.906 45.2698 116.906C43.1298 116.906 42.3398 118.356 42.3398 118.356C42.3398 118.356 42.6698 118.356 42.8198 118.446C43.3598 118.106 43.5998 117.206 45.2698 117.206Z" fill="#2D120E"/>
<path d="M47.8806 118.385C47.8806 118.385 47.5406 119.645 45.4006 119.645C43.2606 119.645 42.3906 118.355 42.3906 118.355C42.3906 118.355 43.2706 117.125 45.4006 117.125C47.5306 117.125 47.8806 118.385 47.8806 118.385Z" fill="white"/>
<path d="M43.9395 118.358C43.9395 118.858 44.1895 119.308 44.5595 119.578C44.8295 119.618 45.1095 119.648 45.3995 119.648C45.6895 119.648 45.9695 119.618 46.2395 119.578C46.6195 119.308 46.8595 118.858 46.8595 118.358C46.8595 117.858 46.6095 117.408 46.2395 117.138C45.9695 117.098 45.6895 117.078 45.3995 117.078C45.1095 117.078 44.8295 117.098 44.5595 117.138C44.1795 117.408 43.9395 117.858 43.9395 118.358Z" fill="#2D120E"/>
<path d="M46.0005 118.385C46.0005 118.715 45.7305 118.985 45.4005 118.985C45.0705 118.985 44.8105 118.715 44.8105 118.385C44.8105 118.055 45.0805 117.785 45.4005 117.785C45.7205 117.785 46.0005 118.055 46.0005 118.385Z" fill="#170000"/>
<path d="M45.249 117.817C45.249 117.967 45.129 118.077 44.979 118.077C44.829 118.077 44.709 117.957 44.709 117.817C44.709 117.677 44.829 117.547 44.979 117.547C45.129 117.547 45.249 117.667 45.249 117.817Z" fill="white"/>
<path d="M45.4206 118.398C45.4206 118.478 45.3606 118.538 45.2806 118.538C45.2006 118.538 45.1406 118.478 45.1406 118.398C45.1406 118.328 45.2006 118.258 45.2806 118.258C45.3606 118.258 45.4206 118.328 45.4206 118.398Z" fill="white"/>
<path d="M33.7505 117.206C32.0805 117.206 32.3305 118.446 31.8005 118.786C31.6505 118.696 30.7305 118.386 30.7305 118.386C30.7305 118.386 31.6105 116.906 33.7505 116.906C35.8905 116.906 36.6805 118.356 36.6805 118.356C36.6805 118.356 36.3505 118.356 36.2005 118.446C35.6605 118.106 35.4205 117.206 33.7505 117.206Z" fill="#2D120E"/>
<path d="M31.1406 118.385C31.1406 118.385 31.4806 119.645 33.6206 119.645C35.7606 119.645 36.6306 118.355 36.6306 118.355C36.6306 118.355 35.7506 117.125 33.6206 117.125C31.4906 117.125 31.1406 118.385 31.1406 118.385Z" fill="white"/>
<path d="M35.0802 118.358C35.0802 118.858 34.8302 119.308 34.4602 119.578C34.1902 119.618 33.9102 119.648 33.6202 119.648C33.3302 119.648 33.0502 119.618 32.7802 119.578C32.4002 119.308 32.1602 118.858 32.1602 118.358C32.1602 117.858 32.4002 117.408 32.7802 117.138C33.0502 117.098 33.3302 117.078 33.6202 117.078C33.9102 117.078 34.1902 117.098 34.4602 117.138C34.8402 117.408 35.0802 117.858 35.0802 118.358Z" fill="#2D120E"/>
<path d="M33.0195 118.385C33.0195 118.715 33.2795 118.985 33.6095 118.985C33.9395 118.985 34.1995 118.715 34.1995 118.385C34.1995 118.055 33.9395 117.785 33.6095 117.785C33.2795 117.785 33.0195 118.055 33.0195 118.385Z" fill="#170000"/>
<path d="M33.7812 117.817C33.7812 117.967 33.9013 118.077 34.0513 118.077C34.2013 118.077 34.3213 117.957 34.3213 117.817C34.3213 117.677 34.2013 117.547 34.0513 117.547C33.9013 117.547 33.7812 117.667 33.7812 117.817Z" fill="white"/>
<path d="M33.6113 118.398C33.6113 118.478 33.6713 118.538 33.7513 118.538C33.8313 118.538 33.8913 118.478 33.8913 118.398C33.8913 118.328 33.8213 118.258 33.7513 118.258C33.6713 118.258 33.6113 118.328 33.6113 118.398Z" fill="white"/>
</g>
<path d="M114.731 97.4375H74.4609V105.057H114.731V97.4375Z" fill="#B0AFB5"/>
<path d="M114.731 110.5H74.4609V114.31H114.731V110.5Z" fill="#D8DADE"/>
<path d="M114.731 118.297H74.4609V122.107H114.731V118.297Z" fill="#D8DADE"/>
<path d="M114.731 126.098H74.4609V129.908H114.731V126.098Z" fill="#D8DADE"/>
<path d="M114.731 133.891H74.4609V137.701H114.731V133.891Z" fill="#D8DADE"/>
<path d="M114.731 141.699H74.4609V145.509H114.731V141.699Z" fill="#D8DADE"/>
<path d="M114.731 149.488H74.4609V153.298H114.731V149.488Z" fill="#D8DADE"/>
<path d="M114.731 165.457H14.9609V169.267H114.731V165.457Z" fill="#D8DADE"/>
<path d="M114.731 174.898H14.9609V178.708H114.731V174.898Z" fill="#D8DADE"/>
<g style="mix-blend-mode:multiply">
<path d="M332.03 116.97C329.96 113.86 326.42 111.82 322.41 111.82H242.13C235.74 111.82 230.57 117 230.57 123.38V214.58C230.57 217.62 231.75 220.38 233.67 222.44C235.74 225.54 239.28 227.59 243.29 227.59H323.57C329.95 227.59 335.13 222.42 335.13 216.03V124.83C335.13 121.79 333.95 119.04 332.03 116.97Z" fill="#C3C5CA"/>
</g>
<g style="mix-blend-mode:multiply">
<path d="M247.951 110.598H328.231C334.611 110.598 339.791 115.778 339.791 122.158V213.358C339.791 219.738 334.611 224.918 328.231 224.918H247.941C241.561 224.918 236.381 219.738 236.381 213.358V122.158C236.381 115.778 241.561 110.598 247.941 110.598H247.951Z" fill="#CCCDD2"/>
</g>
<path d="M246.8 109.148H327.08C333.46 109.148 338.64 114.328 338.64 120.708V211.908C338.64 218.288 333.46 223.468 327.08 223.468H246.8C240.42 223.468 235.24 218.288 235.24 211.908V120.708C235.24 114.328 240.42 109.148 246.8 109.148Z" fill="white"/>
<path d="M338.64 126.488V120.708C338.64 114.318 333.46 109.148 327.08 109.148H246.8C240.41 109.148 235.24 114.328 235.24 120.708V126.488H338.64Z" fill="#004A7C"/>
<path d="M316.481 121.607C316.481 122.127 316.061 122.557 315.531 122.557H309.231C308.711 122.557 308.291 122.127 308.291 121.607V115.307C308.291 114.787 308.711 114.367 309.231 114.367H315.531C316.051 114.367 316.481 114.787 316.481 115.307V121.607Z" fill="white"/>
<path d="M328.36 121.607C328.36 122.127 327.94 122.557 327.41 122.557H321.11C320.59 122.557 320.17 122.127 320.17 121.607V115.307C320.17 114.787 320.59 114.367 321.11 114.367H327.41C327.93 114.367 328.36 114.787 328.36 115.307V121.607Z" fill="white"/>
<path d="M302.83 118.457C302.83 120.717 301 122.547 298.74 122.547H245.76C243.5 122.547 241.66 120.717 241.66 118.457C241.66 116.197 243.49 114.367 245.76 114.367H298.74C301 114.367 302.83 116.197 302.83 118.457Z" fill="white"/>
<path d="M292.72 161.869C292.72 175.569 281.61 186.679 267.91 186.679C254.21 186.679 243.1 175.569 243.1 161.869C243.1 148.169 254.2 137.059 267.91 137.059C281.62 137.059 292.72 148.169 292.72 161.869Z" fill="#D8DADE"/>
<mask id="mask1_2711_80781" style="mask-type:luminance" maskUnits="userSpaceOnUse" x="243" y="137" width="50" height="50">
<path d="M292.72 161.869C292.72 175.569 281.61 186.679 267.91 186.679C254.21 186.679 243.1 175.569 243.1 161.869C243.1 148.169 254.2 137.059 267.91 137.059C281.62 137.059 292.72 148.169 292.72 161.869Z" fill="white"/>
</mask>
<g mask="url(#mask1_2711_80781)">
<path d="M272.718 184.752C273.578 188.762 260.318 185.892 260.318 182.322C264.738 174.692 254.038 174.112 253.708 157.552C253.508 147.482 281.288 150.192 281.368 157.552C281.528 172.212 268.858 179.402 272.718 184.752Z" fill="#51361D"/>
<path d="M276.579 199.131H280.639L280.529 197.691C280.529 197.691 280.089 185.091 279.599 181.551C279.119 178.011 276.329 178.051 276.329 178.051L274.299 183.981C274.299 183.981 276.099 195.181 276.319 197.581C276.349 197.921 276.439 198.461 276.569 199.131H276.579Z" fill="#9D6B3F"/>
<path d="M257.589 199.13C257.729 198.4 257.839 197.81 257.869 197.44C258.089 195.04 259.889 183.84 259.889 183.84L257.859 177.91C257.859 177.91 255.069 177.87 254.589 181.41C254.099 184.95 253.659 197.55 253.659 197.55L253.539 199.13H257.589Z" fill="#9D6B3F"/>
<path d="M258.329 194.219L259.419 199.129H274.789L276.419 194.219C276.419 194.219 278.989 192.309 278.969 190.549C278.939 188.779 275.689 183.979 275.689 183.979L276.819 177.919L271.959 175.629H262.519L257.769 177.819L258.759 183.989C258.759 183.989 256.119 188.639 256.079 190.559C256.039 192.469 258.329 194.229 258.329 194.229V194.219Z" fill="#5AB9BD"/>
<path d="M271.969 175.62C271.969 175.62 273.679 182.33 272.749 184.05C271.709 185.98 263.269 185.82 262.139 184.05C261.009 182.28 262.529 175.62 262.529 175.62L263.979 175.55V168.48H270.469V175.26L271.969 175.63V175.62Z" fill="#9D6B3F"/>
<path d="M269.388 174.58C269.768 174.47 270.128 174.34 270.478 174.2V168.48H263.988V173.65C265.708 174.45 267.378 175.15 269.388 174.59V174.58Z" fill="#815931"/>
<path d="M281.418 164.579C280.528 164.949 279.498 164.309 279.498 164.309C279.498 164.309 274.928 164.549 274.928 163.359V159.369C274.928 156.529 279.498 156.809 279.498 156.809C279.498 156.809 280.528 155.369 281.918 156.349C284.098 157.909 283.138 163.849 281.418 164.569V164.579Z" fill="#9D6B3F"/>
<path d="M254.408 164.579C255.298 164.949 256.328 164.309 256.328 164.309C256.328 164.309 260.898 164.549 260.898 163.359V159.369C260.898 156.529 256.328 156.809 256.328 156.809C256.328 156.809 255.288 155.369 253.908 156.349C251.728 157.909 252.688 163.849 254.408 164.569V164.579Z" fill="#9D6B3F"/>
<path d="M279.608 162.941C279.608 168.231 271.948 174.101 267.848 174.101C263.328 174.101 256.088 167.861 256.088 162.621V151.561C256.088 135.931 279.618 134.901 279.618 151.561V162.941H279.608Z" fill="#9D6B3F"/>
<path d="M256.789 156.98C256.709 155.49 265.089 153.44 267.369 146.93C269.579 152.53 271.389 155.82 278.879 156.94C278.799 160.09 279.539 161.11 279.759 162.02C279.759 162.02 279.779 159.3 279.759 157.9C279.739 156.5 281.519 156 281.519 156V151.18C281.519 148.6 278.869 136.57 267.769 139.39C257.199 136.94 252.629 147.15 252.639 150.76C252.639 153.5 253.159 157.19 253.159 157.19C253.159 157.19 255.579 154.94 255.909 158.04C256.089 159.71 255.949 161.47 257.149 161.74C256.989 160.25 256.889 158.87 256.779 156.97L256.789 156.98Z" fill="#51361D"/>
<path d="M267.619 157.789V165.529L268.979 164.459L267.619 157.789Z" fill="#815931"/>
<path d="M265.578 156.26C265.578 156.26 263.498 154.86 262.168 155.3C260.848 155.74 259.178 157.18 259.178 157.18L258.998 156.49C258.998 156.49 260.238 154.99 262.038 154.85C263.848 154.7 265.578 156.26 265.578 156.26Z" fill="#51361D"/>
<path d="M264.418 168.249C264.418 168.249 265.518 169.309 266.138 169.349C266.768 169.389 269.048 169.489 269.818 169.229C270.078 169.149 270.988 168.269 270.988 168.269C270.988 168.269 268.358 168.139 267.878 168.119C267.408 168.099 264.408 168.249 264.408 168.249H264.418Z" fill="#843921"/>
<path d="M262.678 167.44C262.678 167.44 264.298 168.02 264.938 167.95C265.578 167.88 266.668 166.97 266.928 167.08C267.188 167.19 267.828 167.46 267.828 167.46C267.828 167.46 268.668 167.03 268.928 167.08C269.188 167.13 270.528 168.02 270.998 167.95C271.468 167.89 272.558 167.44 272.558 167.44C272.558 167.44 271.208 168.33 270.668 168.49C269.678 168.79 268.608 168.49 267.898 168.43C267.048 168.37 265.808 168.97 264.848 168.46C263.878 167.95 262.678 167.43 262.678 167.43V167.44Z" fill="#843921"/>
<path d="M270.248 156.131C270.248 156.131 272.328 154.731 273.658 155.171C274.988 155.611 276.648 157.051 276.648 157.051L276.828 156.361C276.828 156.361 275.588 154.861 273.788 154.721C271.988 154.571 270.248 156.131 270.248 156.131Z" fill="#51361D"/>
<path d="M273.138 157.418C274.658 157.418 274.418 158.548 274.908 158.848C275.038 158.768 275.878 158.488 275.878 158.488C275.878 158.488 275.078 157.148 273.148 157.148C271.218 157.148 270.488 158.468 270.488 158.468C270.488 158.468 270.788 158.468 270.918 158.548C271.408 158.248 271.628 157.418 273.148 157.418H273.138Z" fill="#2D120E"/>
<path d="M275.507 158.498C275.507 158.498 275.197 159.638 273.257 159.638C271.317 159.638 270.527 158.468 270.527 158.468C270.527 158.468 271.317 157.348 273.257 157.348C275.197 157.348 275.507 158.488 275.507 158.488V158.498Z" fill="white"/>
<path d="M271.928 158.469C271.928 158.929 272.158 159.329 272.498 159.579C272.738 159.619 272.998 159.639 273.258 159.639C273.518 159.639 273.778 159.619 274.018 159.579C274.358 159.339 274.588 158.929 274.588 158.469C274.588 158.009 274.368 157.609 274.018 157.369C273.768 157.329 273.518 157.309 273.258 157.309C272.998 157.309 272.738 157.329 272.498 157.369C272.158 157.619 271.928 158.019 271.928 158.469Z" fill="#2D120E"/>
<path d="M273.799 158.497C273.799 158.797 273.559 159.037 273.259 159.037C272.959 159.037 272.719 158.797 272.719 158.497C272.719 158.197 272.959 157.957 273.259 157.957C273.559 157.957 273.799 158.197 273.799 158.497Z" fill="#170000"/>
<path d="M273.119 157.978C273.119 158.118 273.009 158.218 272.879 158.218C272.749 158.218 272.639 158.108 272.639 157.978C272.639 157.848 272.749 157.738 272.879 157.738C273.009 157.738 273.119 157.848 273.119 157.978Z" fill="white"/>
<path d="M273.268 158.509C273.268 158.579 273.208 158.639 273.138 158.639C273.068 158.639 273.008 158.579 273.008 158.509C273.008 158.439 273.068 158.379 273.138 158.379C273.208 158.379 273.268 158.439 273.268 158.509Z" fill="white"/>
<path d="M262.689 157.418C261.169 157.418 261.409 158.548 260.919 158.848C260.789 158.768 259.959 158.488 259.959 158.488C259.959 158.488 260.759 157.148 262.689 157.148C264.619 157.148 265.349 158.468 265.349 158.468C265.349 158.468 265.049 158.468 264.919 158.548C264.429 158.248 264.219 157.418 262.699 157.418H262.689Z" fill="#2D120E"/>
<path d="M260.318 158.498C260.318 158.498 260.628 159.638 262.568 159.638C264.508 159.638 265.298 158.468 265.298 158.468C265.298 158.468 264.498 157.348 262.568 157.348C260.638 157.348 260.318 158.488 260.318 158.488V158.498Z" fill="white"/>
<path d="M263.888 158.469C263.888 158.929 263.668 159.329 263.328 159.579C263.078 159.619 262.828 159.639 262.568 159.639C262.308 159.639 262.048 159.619 261.808 159.579C261.458 159.339 261.238 158.929 261.238 158.469C261.238 158.009 261.458 157.609 261.808 157.369C262.048 157.329 262.308 157.309 262.568 157.309C262.828 157.309 263.088 157.329 263.328 157.369C263.668 157.619 263.888 158.019 263.888 158.469Z" fill="#2D120E"/>
<path d="M262.029 158.497C262.029 158.797 262.269 159.037 262.569 159.037C262.869 159.037 263.109 158.797 263.109 158.497C263.109 158.197 262.869 157.957 262.569 157.957C262.269 157.957 262.029 158.197 262.029 158.497Z" fill="#170000"/>
<path d="M262.709 157.978C262.709 158.118 262.819 158.218 262.949 158.218C263.079 158.218 263.189 158.108 263.189 157.978C263.189 157.848 263.079 157.738 262.949 157.738C262.819 157.738 262.709 157.848 262.709 157.978Z" fill="white"/>
<path d="M262.549 158.509C262.549 158.579 262.609 158.639 262.669 158.639C262.739 158.639 262.799 158.579 262.799 158.509C262.799 158.439 262.749 158.379 262.669 158.379C262.599 158.379 262.549 158.439 262.549 158.509Z" fill="white"/>
</g>
<path d="M330.13 138.887H296.82V145.187H330.13V138.887Z" fill="#B0AFB5"/>
<path d="M330.13 149.699H296.82V152.849H330.13V149.699Z" fill="#D8DADE"/>
<path d="M330.13 159.298H320.52H296.82V156.148H330.13V159.298Z" fill="#D8DADE"/>
<path d="M330.13 162.598H296.82V165.748H330.13V162.598Z" fill="#D8DADE"/>
<path d="M330.13 169.047H296.82V172.197H330.13V169.047Z" fill="#D8DADE"/>
<path d="M330.13 175.5H296.82V178.65H330.13V175.5Z" fill="#D8DADE"/>
<path d="M330.13 181.949H296.82V185.099H330.13V181.949Z" fill="#D8DADE"/>
<path d="M330.129 195.16H247.609V198.31H330.129V195.16Z" fill="#D8DADE"/>
<path d="M330.129 202.957H247.609V206.107H330.129V202.957Z" fill="#D8DADE"/>
<g style="mix-blend-mode:multiply">
<path d="M264.561 8.02172C262.851 5.45172 259.921 3.76172 256.611 3.76172H190.261C184.981 3.76172 180.711 8.04172 180.711 13.3117V88.6917C180.711 91.2017 181.691 93.4817 183.271 95.1817C184.981 97.7517 187.901 99.4417 191.221 99.4417H257.571C262.851 99.4417 267.121 95.1617 267.121 89.8817V14.5117C267.121 12.0017 266.141 9.73172 264.561 8.02172Z" fill="#D8DADE"/>
</g>
<g style="mix-blend-mode:multiply">
<path d="M194.97 1.20141H261.32C266.59 1.20141 270.87 5.48141 270.87 10.7514V86.1214C270.87 91.3914 266.59 95.6814 261.31 95.6814H194.96C189.69 95.6814 185.41 91.4014 185.41 86.1314V10.7514C185.41 5.48141 189.69 1.19141 194.97 1.19141V1.20141Z" fill="#CCCDD2"/>
</g>
<path d="M194.011 0H260.361C265.631 0 269.911 4.28 269.911 9.55V84.93C269.911 90.2 265.631 94.48 260.361 94.48H194.011C188.741 94.48 184.461 90.2 184.461 84.93V9.55C184.461 4.28 188.741 0 194.011 0Z" fill="white"/>
<path d="M269.921 14.33V9.55C269.921 4.27 265.641 0 260.371 0H194.021C188.741 0 184.471 4.28 184.471 9.55V14.33H269.931H269.921Z" fill="#004A7C"/>
<path d="M245.622 4.30859H250.832C251.262 4.30859 251.612 4.65859 251.612 5.08859V10.2986C251.612 10.7286 251.262 11.0786 250.832 11.0786H245.622C245.192 11.0786 244.842 10.7286 244.842 10.2986V5.08859C244.842 4.65859 245.192 4.30859 245.622 4.30859Z" fill="white"/>
<path d="M255.44 4.30859H260.65C261.08 4.30859 261.43 4.65859 261.43 5.08859V10.2986C261.43 10.7286 261.08 11.0786 260.65 11.0786H255.44C255.01 11.0786 254.66 10.7286 254.66 10.2986V5.08859C254.66 4.65859 255.01 4.30859 255.44 4.30859Z" fill="white"/>
<path d="M240.321 7.70031C240.321 9.57031 238.801 11.0803 236.941 11.0803H193.151C191.281 11.0803 189.771 9.57031 189.771 7.70031C189.771 5.83031 191.281 4.32031 193.151 4.32031H236.941C238.811 4.32031 240.321 5.84031 240.321 7.70031Z" fill="white"/>
<path d="M231.961 43.5703C231.961 54.9003 222.781 64.0703 211.461 64.0703C200.141 64.0703 190.961 54.8903 190.961 43.5703C190.961 32.2503 200.141 23.0703 211.461 23.0703C222.781 23.0703 231.961 32.2503 231.961 43.5703Z" fill="#D8DADE"/>
<mask id="mask2_2711_80781" style="mask-type:luminance" maskUnits="userSpaceOnUse" x="190" y="23" width="42" height="42">
<path d="M231.961 43.5703C231.961 54.9003 222.781 64.0703 211.461 64.0703C200.141 64.0703 190.961 54.8903 190.961 43.5703C190.961 32.2503 200.141 23.0703 211.461 23.0703C222.781 23.0703 231.961 32.2503 231.961 43.5703Z" fill="white"/>
</mask>
<g mask="url(#mask2_2711_80781)">
<path d="M218.252 51.4001C214.902 54.4501 207.422 53.9301 205.172 52.2101C202.932 50.5001 198.712 47.9801 200.322 39.7001C201.922 31.5001 221.572 33.6101 222.022 39.7001C222.472 45.7901 221.452 48.4801 218.252 51.3901V51.4001Z" fill="#DE8021"/>
<path d="M218.263 72.0322H221.453L221.363 70.9122C221.363 70.9122 221.023 61.0222 220.633 58.2422C220.253 55.4722 218.063 55.4922 218.063 55.4922L216.473 60.1522C216.473 60.1522 217.883 68.9422 218.053 70.8222C218.073 71.0922 218.143 71.5122 218.253 72.0322H218.263Z" fill="#F2D4B6"/>
<path d="M203.371 72.0328C203.481 71.4628 203.561 71.0028 203.591 70.7128C203.761 68.8328 205.171 60.0428 205.171 60.0428L203.581 55.3828C203.581 55.3828 201.391 55.3528 201.011 58.1328C200.631 60.9028 200.281 70.7928 200.281 70.7928L200.191 72.0228H203.361L203.371 72.0328Z" fill="#F2D4B6"/>
<path d="M203.952 68.1916L204.812 72.0416H216.862L218.142 68.1916C218.142 68.1916 220.162 66.7016 220.142 65.3116C220.122 63.9216 217.562 60.1516 217.562 60.1516L218.452 55.4016L214.642 53.6016H207.242L203.512 55.3216L204.282 60.1616C204.282 60.1616 202.212 63.8116 202.182 65.3216C202.152 66.8216 203.942 68.2016 203.942 68.2016L203.952 68.1916Z" fill="#B3211B"/>
<path d="M214.652 53.6022C214.652 53.6022 215.992 58.8622 215.272 60.2122C214.452 61.7222 207.832 61.6022 206.942 60.2122C206.052 58.8222 207.252 53.6022 207.252 53.6022L208.392 53.0622V47.9922H213.482V52.8322L214.652 53.6022Z" fill="#F2D4B6"/>
<path d="M212.623 52.7822C212.913 52.7022 213.203 52.5922 213.473 52.4822V47.9922H208.383V52.0422C209.733 52.6722 211.053 53.2222 212.623 52.7822Z" fill="#DA9B7E"/>
<path d="M222.061 44.9321C221.361 45.2221 220.551 44.7221 220.551 44.7221C220.551 44.7221 216.961 44.9121 216.961 43.9721V40.8421C216.961 38.6121 220.551 38.8321 220.551 38.8321C220.551 38.8321 221.361 37.6921 222.441 38.4721C224.151 39.6921 223.401 44.3621 222.051 44.9221L222.061 44.9321Z" fill="#F2D4B6"/>
<path d="M200.871 44.9321C201.571 45.2221 202.381 44.7221 202.381 44.7221C202.381 44.7221 205.971 44.9121 205.971 43.9721V40.8421C205.971 38.6121 202.381 38.8321 202.381 38.8321C202.381 38.8321 201.571 37.6921 200.491 38.4721C198.781 39.6921 199.531 44.3621 200.881 44.9221L200.871 44.9321Z" fill="#F2D4B6"/>
<path d="M220.642 43.6499C220.642 47.7999 214.632 52.3999 211.412 52.3999C207.872 52.3999 202.182 47.5099 202.182 43.3899V34.7199C202.182 22.4599 220.642 21.6499 220.642 34.7199V43.6499Z" fill="#F2D4B6"/>
<path d="M202.742 38.9709C202.672 37.8009 204.612 36.8609 204.802 32.6109C206.412 33.5009 214.192 38.0709 220.072 38.9509C220.002 41.4209 220.592 42.2209 220.762 42.9309C220.762 42.9309 220.782 40.8009 220.762 39.7009C220.752 38.6009 222.152 38.2109 222.152 38.2109V34.4309C222.152 32.4009 220.072 22.9709 211.362 25.1809C203.072 23.2609 199.322 31.9609 199.492 34.1009C199.662 36.2409 199.902 39.1409 199.902 39.1409C199.902 39.1409 201.802 37.3809 202.062 39.8109C202.202 41.1209 202.092 42.5009 203.032 42.7209C202.912 41.5509 202.822 40.4709 202.742 38.9709Z" fill="#DE8021"/>
<path d="M211.242 39.6016V45.6816L212.312 44.8416L211.242 39.6016Z" fill="#DA9B7E"/>
<path d="M209.632 38.4112C209.632 38.4112 208.002 37.3112 206.962 37.6612C205.922 38.0112 204.622 39.1312 204.622 39.1312L204.482 38.5912C204.482 38.5912 205.452 37.4112 206.872 37.3012C208.292 37.1812 209.642 38.4112 209.642 38.4112H209.632Z" fill="#DE8021"/>
<path d="M208.732 47.8093C208.732 47.8093 209.592 48.6393 210.082 48.6693C210.572 48.6993 212.372 48.7793 212.972 48.5793C213.172 48.5093 213.892 47.8293 213.892 47.8293C213.892 47.8293 211.822 47.7293 211.452 47.7093C211.082 47.6893 208.732 47.8093 208.732 47.8093Z" fill="#E24E70"/>
<path d="M207.362 47.1707C207.362 47.1707 208.632 47.6307 209.132 47.5707C209.642 47.5107 210.492 46.8007 210.692 46.8907C210.892 46.9707 211.402 47.1907 211.402 47.1907C211.402 47.1907 212.062 46.8607 212.262 46.8907C212.462 46.9307 213.512 47.6207 213.882 47.5707C214.252 47.5207 215.102 47.1707 215.102 47.1707C215.102 47.1707 214.042 47.8707 213.622 48.0007C212.842 48.2307 212.002 48.0007 211.452 47.9507C210.782 47.9107 209.812 48.3707 209.052 47.9807C208.292 47.5807 207.352 47.1707 207.352 47.1707H207.362Z" fill="#E56681"/>
<path d="M213.301 38.3006C213.301 38.3006 214.931 37.2006 215.971 37.5506C217.011 37.9006 218.311 39.0206 218.311 39.0206L218.451 38.4806C218.451 38.4806 217.481 37.3006 216.061 37.1906C214.641 37.0806 213.291 38.3006 213.291 38.3006H213.301Z" fill="#DE8021"/>
<path d="M215.572 39.3216C216.762 39.3216 216.582 40.2016 216.962 40.4416C217.062 40.3716 217.722 40.1616 217.722 40.1616C217.722 40.1616 217.092 39.1016 215.572 39.1016C214.052 39.1016 213.482 40.1416 213.482 40.1416C213.482 40.1416 213.722 40.1416 213.822 40.2016C214.202 39.9616 214.382 39.3216 215.572 39.3216Z" fill="#2D120E"/>
<path d="M217.421 40.1617C217.421 40.1617 217.171 41.0617 215.661 41.0617C214.151 41.0617 213.521 40.1417 213.521 40.1417C213.521 40.1417 214.151 39.2617 215.661 39.2617C217.171 39.2617 217.421 40.1617 217.421 40.1617Z" fill="white"/>
<path d="M214.623 40.1405C214.623 40.5005 214.793 40.8205 215.063 41.0105C215.253 41.0405 215.453 41.0605 215.663 41.0605C215.873 41.0605 216.073 41.0405 216.263 41.0105C216.533 40.8205 216.703 40.5005 216.703 40.1405C216.703 39.7805 216.523 39.4605 216.263 39.2705C216.073 39.2405 215.873 39.2305 215.663 39.2305C215.453 39.2305 215.263 39.2505 215.063 39.2705C214.793 39.4605 214.623 39.7805 214.623 40.1405Z" fill="#2D120E"/>
<path d="M216.082 40.1622C216.082 40.3922 215.892 40.5822 215.662 40.5822C215.432 40.5822 215.242 40.3922 215.242 40.1622C215.242 39.9322 215.432 39.7422 215.662 39.7422C215.892 39.7422 216.082 39.9322 216.082 40.1622Z" fill="#170000"/>
<path d="M215.552 39.7603C215.552 39.8703 215.462 39.9503 215.362 39.9503C215.262 39.9503 215.172 39.8603 215.172 39.7603C215.172 39.6603 215.262 39.5703 215.362 39.5703C215.462 39.5703 215.552 39.6503 215.552 39.7603Z" fill="white"/>
<path d="M215.673 40.1703C215.673 40.2303 215.633 40.2703 215.573 40.2703C215.523 40.2703 215.473 40.2303 215.473 40.1703C215.473 40.1103 215.513 40.0703 215.573 40.0703C215.633 40.0703 215.673 40.1103 215.673 40.1703Z" fill="white"/>
<path d="M207.361 39.3216C206.171 39.3216 206.361 40.2016 205.971 40.4416C205.861 40.3716 205.211 40.1616 205.211 40.1616C205.211 40.1616 205.841 39.1016 207.361 39.1016C208.881 39.1016 209.441 40.1416 209.441 40.1416C209.441 40.1416 209.211 40.1416 209.101 40.2016C208.721 39.9616 208.551 39.3216 207.351 39.3216H207.361Z" fill="#2D120E"/>
<path d="M205.512 40.1617C205.512 40.1617 205.762 41.0617 207.272 41.0617C208.782 41.0617 209.412 40.1417 209.412 40.1417C209.412 40.1417 208.792 39.2617 207.272 39.2617C205.752 39.2617 205.512 40.1617 205.512 40.1617Z" fill="white"/>
<path d="M208.311 40.1405C208.311 40.5005 208.131 40.8205 207.861 41.0105C207.671 41.0405 207.471 41.0605 207.261 41.0605C207.051 41.0605 206.861 41.0405 206.661 41.0105C206.391 40.8205 206.211 40.5005 206.211 40.1405C206.211 39.7805 206.391 39.4605 206.661 39.2705C206.851 39.2405 207.051 39.2305 207.261 39.2305C207.471 39.2305 207.671 39.2505 207.861 39.2705C208.131 39.4605 208.311 39.7805 208.311 40.1405Z" fill="#2D120E"/>
<path d="M206.852 40.1622C206.852 40.3922 207.042 40.5822 207.272 40.5822C207.502 40.5822 207.692 40.3922 207.692 40.1622C207.692 39.9322 207.502 39.7422 207.272 39.7422C207.042 39.7422 206.852 39.9322 206.852 40.1622Z" fill="#170000"/>
<path d="M207.381 39.7603C207.381 39.8703 207.461 39.9503 207.571 39.9503C207.681 39.9503 207.761 39.8603 207.761 39.7603C207.761 39.6603 207.671 39.5703 207.571 39.5703C207.471 39.5703 207.381 39.6503 207.381 39.7603Z" fill="white"/>
<path d="M207.262 40.1703C207.262 40.2303 207.302 40.2703 207.362 40.2703C207.422 40.2703 207.462 40.2303 207.462 40.1703C207.462 40.1103 207.412 40.0703 207.362 40.0703C207.312 40.0703 207.262 40.1103 207.262 40.1703Z" fill="white"/>
</g>
<path d="M262.882 24.5781H235.352V29.7881H262.882V24.5781Z" fill="#B0AFB5"/>
<path d="M262.882 33.5117H235.352V36.1217H262.882V33.5117Z" fill="#D8DADE"/>
<path d="M262.882 38.8398H235.352V41.4498H262.882V38.8398Z" fill="#D8DADE"/>
<path d="M262.882 44.1797H235.352V46.7797H262.882V44.1797Z" fill="#D8DADE"/>
<path d="M262.882 49.5117H235.352V52.1117H262.882V49.5117Z" fill="#D8DADE"/>
<path d="M262.882 54.8398H235.352V57.4398H262.882V54.8398Z" fill="#D8DADE"/>
<path d="M262.882 60.1719H235.352V62.7719H262.882V60.1719Z" fill="#D8DADE"/>
<path d="M262.882 71.0898H194.682V73.6898H262.882V71.0898Z" fill="#D8DADE"/>
<path d="M262.882 77.5312H194.682V80.1312H262.882V77.5312Z" fill="#D8DADE"/>
<path d="M74.8794 288.919C77.3894 294.359 82.1094 298.649 86.9394 301.559C88.0394 302.219 89.1294 302.879 90.2294 303.539C92.3794 304.839 94.5294 306.129 96.6794 307.429C97.9494 308.189 99.2094 308.949 100.469 309.719C101.479 310.329 103.139 310.119 103.439 308.779C103.759 307.329 102.629 306.339 101.649 305.539C100.769 304.819 99.9694 303.999 99.1094 303.269C97.3094 301.719 95.5994 300.079 93.8094 298.519C93.4094 298.179 93.0394 297.789 92.6194 297.459C93.0894 297.799 93.5594 298.139 94.0294 298.479C95.1794 299.309 96.3294 300.139 97.4694 300.969C98.9194 302.019 100.359 303.059 101.809 304.109C103.179 305.099 104.549 306.099 105.919 307.089C106.919 307.809 107.889 308.569 108.929 309.229C109.819 309.799 111.329 310.109 112.119 309.179C112.539 308.679 112.499 307.989 112.429 307.369C112.359 306.699 111.769 305.729 111.269 305.269C110.769 304.809 110.289 304.339 109.819 303.849C108.559 302.509 107.089 301.269 105.689 300.079C104.139 298.759 102.599 297.429 101.039 296.129C99.7294 295.049 98.4294 293.969 97.1294 292.879C96.5194 292.369 95.9094 291.839 95.2694 291.369C95.2594 291.369 95.2394 291.349 95.2294 291.349C95.2294 291.349 113.519 305.709 113.579 305.749C114.799 306.709 117.799 308.319 119.089 306.219C119.539 305.479 119.279 303.889 118.899 303.179C118.479 302.389 117.749 301.839 117.099 301.249C115.749 300.019 114.459 298.749 113.059 297.569C110.189 295.149 107.339 292.719 104.379 290.399C103.729 289.889 103.089 289.339 102.419 288.849C104.509 290.699 107.019 292.389 109.339 293.959C112.079 295.829 113.829 297.379 115.979 298.649C116.539 298.979 117.299 299.569 117.969 299.569C118.929 299.579 120.189 299.339 120.669 298.609C121.359 297.579 120.619 295.659 119.689 294.849C114.289 290.179 110.489 287.049 105.519 283.969C105.519 283.969 101.289 281.399 100.939 280.969C100.939 280.969 109.069 285.419 114.399 284.429C114.399 284.429 121.409 280.899 110.019 278.519C110.019 278.519 103.589 275.649 99.5894 273.689C99.5894 273.689 91.8794 269.539 82.6194 272.309C82.6194 272.309 75.1794 267.729 73.2494 266.109L66.1094 275.349C66.1094 275.349 73.0494 284.889 74.8994 288.899L74.8794 288.919Z" fill="#E1AB81"/>
<path d="M254.909 279.839C255.409 285.799 253.419 291.869 250.659 296.779C250.029 297.899 249.399 299.009 248.779 300.119C247.549 302.309 246.319 304.499 245.089 306.689C244.359 307.979 243.639 309.259 242.919 310.549C242.339 311.579 240.789 312.219 239.869 311.199C238.879 310.099 239.369 308.669 239.829 307.499C240.239 306.449 240.529 305.339 240.909 304.269C241.709 302.039 242.388 299.759 243.178 297.529C243.358 297.039 243.489 296.509 243.689 296.019C243.449 296.549 243.209 297.069 242.969 297.599C242.379 298.889 241.789 300.179 241.199 301.469C240.459 303.089 239.709 304.719 238.979 306.339C238.279 307.879 237.579 309.419 236.869 310.959C236.359 312.079 235.889 313.219 235.309 314.299C234.819 315.229 233.659 316.249 232.509 315.829C231.899 315.599 231.589 314.979 231.349 314.409C231.079 313.789 231.119 312.649 231.319 312.009C231.529 311.359 231.709 310.719 231.869 310.059C232.309 308.269 232.969 306.469 233.599 304.739C234.299 302.829 234.979 300.909 235.699 299.009C236.299 297.429 236.909 295.839 237.499 294.259C237.779 293.519 238.049 292.759 238.369 292.029C238.369 292.019 238.379 291.999 238.389 291.989C238.389 291.989 229.568 313.499 229.538 313.569C228.948 315.009 227.129 317.889 224.979 316.699C224.219 316.279 223.669 314.759 223.649 313.959C223.628 313.069 223.989 312.229 224.259 311.389C224.829 309.659 225.319 307.919 225.959 306.199C227.269 302.679 228.539 299.149 229.969 295.679C230.289 294.909 230.559 294.119 230.909 293.369C229.999 296.019 228.649 298.719 227.409 301.229C225.939 304.209 225.199 306.419 223.939 308.589C223.619 309.149 223.239 310.039 222.669 310.369C221.839 310.849 220.629 311.269 219.839 310.869C218.729 310.309 218.429 308.269 218.839 307.109C221.239 300.389 222.999 295.789 225.799 290.649C225.799 290.649 228.209 286.329 228.309 285.779C228.309 285.779 223.429 293.669 218.309 295.429C218.309 295.429 210.469 295.819 219.209 288.129C219.209 288.129 223.389 282.459 225.899 278.789C225.899 278.789 230.559 271.369 239.989 269.209C239.989 269.209 244.199 261.549 245.079 259.199L260.529 265.679C260.529 265.679 254.519 275.439 254.889 279.839H254.909Z" fill="#E1AB81"/>
<path d="M145.369 150.811C145.369 150.811 149.029 161.141 138.529 168.961C138.529 168.961 162.529 193.611 194.029 168.961C194.029 168.961 182.029 167.761 186.529 144.301L145.369 150.801V150.811Z" fill="#CE966D"/>
<path d="M267.529 256.308L245.739 199.348C240.899 185.158 228.489 176.578 215.529 171.268C208.479 168.388 201.429 165.518 194.379 162.648C170.729 188.488 141.089 162.648 141.089 162.648C136.709 165.058 132.349 167.508 127.969 169.938C115.799 176.708 101.419 181.758 93.8692 194.228L59.1992 254.978C59.1992 254.978 62.3692 277.808 71.3192 283.598C71.3192 283.598 73.8692 269.648 92.4792 271.598L89.5292 257.188L120.199 225.968L125.059 278.968H206.789L213.189 225.998L239.019 255.808L227.479 276.478C246.809 268.478 254.969 281.648 254.969 281.648C254.969 281.648 264.649 269.948 267.519 256.308" fill="#062A47"/>
<path d="M201.889 112.16C201.839 81.6105 185.129 64.9805 164.529 64.9805C143.929 64.9805 127.219 81.6105 127.169 112.16C125.989 112.18 119.819 112.6 123.329 119.61C123.329 119.61 127.089 124.19 127.359 130.07C127.359 130.07 128.689 133.23 130.669 131.78C135.269 144.12 143.739 153.54 151.949 159.44C151.949 159.44 165.889 168.58 176.229 160.45C186.109 154.37 194.639 145.26 198.929 132.07C200.599 132.63 201.689 130.06 201.689 130.06C201.959 124.18 205.719 119.6 205.719 119.6C209.229 112.59 203.059 112.17 201.879 112.15L201.889 112.16Z" fill="#E1AB81"/>
<path d="M202.279 112.309C201.059 114.909 195.419 118.479 196.029 121.849C196.029 121.976 196.029 121.976 196.029 121.849C195.269 120.669 196.139 117.009 196.029 115.559C195.829 113.059 195.359 110.749 194.779 108.299C193.569 103.189 192.069 98.6091 189.099 94.2391C185.599 89.0891 181.629 85.7091 174.779 86.0491C170.659 86.2591 164.469 87.2491 163.789 92.2291C160.279 83.8791 145.259 83.9991 140.279 90.9191C137.359 94.9691 136.169 99.5191 135.479 104.359C135.069 107.279 134.899 110.239 134.339 113.109C133.999 114.839 133.739 118.389 132.789 119.549C132.789 119.549 131.819 114.499 127.179 112.149C122.599 109.839 126.739 87.3091 127.719 83.9591C132.439 67.8791 146.499 58.4891 162.619 56.7891C170.719 55.9291 178.739 53.8091 187.019 54.3991C185.219 55.7091 183.359 57.4691 181.809 59.2391C186.519 58.4791 190.969 56.9991 195.989 57.3791C193.329 59.3291 194.549 62.3091 193.219 65.2291C199.049 64.8791 203.369 72.0891 206.379 76.2391C203.589 75.4991 200.949 74.0591 198.179 73.2691C210.459 76.7991 205.969 104.459 202.279 112.309Z" fill="#40290F"/>
<path d="M141.08 162.651L131.6 167.911C131.6 167.911 148.41 183.231 165.72 183.311C165.91 183.311 166.09 183.311 166.28 183.311C183.78 183.061 195.92 178.081 202.48 165.941L194.38 162.641C194.38 162.641 181.09 174.431 169.69 174.121C169.69 174.121 157.54 174.721 141.09 162.641L141.08 162.651Z" fill="#AFCCE3"/>
<path d="M101.59 207.051H227.06C230.34 207.051 233 209.711 233 212.991V304.501C233 307.781 230.34 310.441 227.06 310.441H101.6C98.3202 310.441 95.6602 307.781 95.6602 304.501V212.991C95.6602 209.711 98.3202 207.051 101.6 207.051H101.59Z" fill="#1F140F"/>
<path d="M97.2793 214.25V265.44C97.2793 288.75 99.8693 307.65 103.069 307.65H225.459C228.659 307.65 231.249 288.75 231.249 265.44V214.25H97.2793Z" fill="#89878C"/>
<path d="M135.179 308.902H116.209V313.372H135.179V308.902Z" fill="#89878C"/>
<path d="M209.07 308.902H190.1V313.372H209.07V308.902Z" fill="#89878C"/>
<path d="M81.6895 315.18H247.369C247.369 315.18 245.079 322.43 240.939 325.19H96.6895C96.6895 325.19 83.1395 323.81 81.6895 315.18Z" fill="#1F140F"/>
<path d="M182.77 109.797C180.72 109.957 178.76 110.307 176.99 110.847C176.53 110.987 176.07 111.147 175.63 111.317C167.09 114.077 160.31 112.597 157.06 111.487C156.4 111.167 155.7 110.877 154.96 110.627C153.02 109.967 150.84 109.557 148.55 109.377C132.48 108.127 129.88 114.837 132.58 122.777C134.98 129.817 138.79 133.427 147.66 133.427C156.53 133.427 161.04 131.027 162.74 122.777C163.02 121.407 163.08 120.157 162.94 119.017C165.08 117.127 167.21 118.037 168.46 118.937C168.24 120.217 168.26 121.637 168.58 123.207C170.28 131.457 174.79 133.857 183.66 133.857C192.53 133.857 196.34 130.247 198.74 123.207C201.45 115.267 198.84 108.547 182.78 109.797H182.77ZM160.6 122.887C159.19 129.317 155.46 131.187 148.12 131.187C140.78 131.187 137.62 128.377 135.64 122.887C133.4 116.687 135.56 111.447 148.86 112.427C156.18 112.967 162.07 116.177 160.61 122.887H160.6ZM195.67 123.317C193.69 128.807 190.53 131.617 183.19 131.617C175.85 131.617 172.12 129.747 170.71 123.317C169.24 116.607 175.13 113.397 182.46 112.857C195.76 111.877 197.91 117.117 195.68 123.317H195.67Z" fill="#1F140F"/>
<path d="M134.409 120.747L130.519 121.747L129.029 111.688H135.229L134.409 120.747Z" fill="#1F140F"/>
<path d="M197.029 120.747L200.919 121.747L202.409 111.688H196.209L197.029 120.747Z" fill="#1F140F"/>
<g clip-path="url(#clip1_2711_80781)">
<g style="mix-blend-mode:multiply">
<path d="M15.3804 63.2188H112.44C120.15 63.2188 126.42 69.4787 126.42 77.1987V187.469C126.42 195.179 120.16 201.449 112.44 201.449H15.3804C7.67039 201.449 1.40039 195.189 1.40039 187.469V77.2087C1.40039 69.4987 7.66039 63.2287 15.3804 63.2287V63.2188Z" fill="#CCCDD2"/>
</g>
<path d="M13.98 61.4688H111.04C118.75 61.4688 125.02 67.7287 125.02 75.4487V185.709C125.02 193.429 118.76 199.689 111.04 199.689H13.98C6.26 199.689 0 193.429 0 185.709V75.4487C0 67.7387 6.26 61.4688 13.98 61.4688Z" fill="white"/>
<path d="M125.02 82.4388V75.4487C125.02 67.7287 118.76 61.4688 111.04 61.4688H13.98C6.26 61.4688 0 67.7287 0 75.4487V82.4388H125.02Z" fill="#3577AC"/>
<path d="M98.2301 76.5413C98.2301 77.1713 97.7201 77.6813 97.0901 77.6813H89.4701C88.8401 77.6813 88.3301 77.1613 88.3301 76.5413V68.9212C88.3301 68.2912 88.8401 67.7812 89.4701 67.7812H97.0901C97.7201 67.7812 98.2301 68.2912 98.2301 68.9212V76.5413Z" fill="white"/>
<path d="M112.589 76.5413C112.589 77.1713 112.079 77.6813 111.449 77.6813H103.839C103.209 77.6813 102.699 77.1613 102.699 76.5413V68.9212C102.699 68.2912 103.209 67.7812 103.839 67.7812H111.449C112.079 67.7812 112.589 68.2912 112.589 68.9212V76.5413Z" fill="white"/>
<path d="M81.7295 72.7313C81.7295 75.4613 79.5195 77.6813 76.7795 77.6813H12.7195C9.97953 77.6813 7.76953 75.4613 7.76953 72.7313C7.76953 69.9913 9.97953 67.7812 12.7195 67.7812H76.7795C79.5095 67.7812 81.7295 69.9913 81.7295 72.7313Z" fill="white"/>
<path d="M69.4998 125.209C69.4998 141.779 56.0698 155.209 39.5098 155.209C22.9498 155.209 9.50977 141.779 9.50977 125.209C9.50977 108.639 22.9398 95.2188 39.5098 95.2188C56.0798 95.2188 69.4998 108.649 69.4998 125.209Z" fill="#D8DADE"/>
<path d="M114.731 97.4414H74.4609V105.061H114.731V97.4414Z" fill="#B0AFB5"/>
<path d="M114.731 110.5H74.4609V114.31H114.731V110.5Z" fill="#D8DADE"/>
<path d="M114.731 118.301H74.4609V122.111H114.731V118.301Z" fill="#D8DADE"/>
<path d="M114.731 126.102H74.4609V129.912H114.731V126.102Z" fill="#D8DADE"/>
<path d="M114.731 133.891H74.4609V137.701H114.731V133.891Z" fill="#D8DADE"/>
<path d="M114.731 141.699H74.4609V145.509H114.731V141.699Z" fill="#D8DADE"/>
<path d="M114.731 149.488H74.4609V153.298H114.731V149.488Z" fill="#D8DADE"/>
<path d="M114.731 165.461H14.9609V169.271H114.731V165.461Z" fill="#D8DADE"/>
<path d="M114.731 174.898H14.9609V178.708H114.731V174.898Z" fill="#D8DADE"/>
<g style="mix-blend-mode:multiply">
<path d="M332.03 116.97C329.96 113.86 326.42 111.82 322.41 111.82H242.13C235.74 111.82 230.57 117 230.57 123.38V214.58C230.57 217.62 231.75 220.38 233.67 222.44C235.74 225.54 239.28 227.59 243.29 227.59H323.57C329.95 227.59 335.13 222.42 335.13 216.03V124.83C335.13 121.79 333.95 119.04 332.03 116.97Z" fill="#C3C5CA"/>
</g>
<g style="mix-blend-mode:multiply">
<path d="M247.951 110.598H328.231C334.611 110.598 339.791 115.778 339.791 122.158V213.358C339.791 219.738 334.611 224.918 328.231 224.918H247.941C241.561 224.918 236.381 219.738 236.381 213.358V122.158C236.381 115.778 241.561 110.598 247.941 110.598H247.951Z" fill="#CCCDD2"/>
</g>
<path d="M246.8 109.148H327.08C333.46 109.148 338.64 114.328 338.64 120.708V211.908C338.64 218.288 333.46 223.468 327.08 223.468H246.8C240.42 223.468 235.24 218.288 235.24 211.908V120.708C235.24 114.328 240.42 109.148 246.8 109.148Z" fill="white"/>
<path d="M338.64 126.488V120.708C338.64 114.318 333.46 109.148 327.08 109.148H246.8C240.41 109.148 235.24 114.328 235.24 120.708V126.488H338.64Z" fill="#3577AC"/>
<path d="M316.481 121.607C316.481 122.127 316.061 122.557 315.531 122.557H309.231C308.711 122.557 308.291 122.127 308.291 121.607V115.307C308.291 114.787 308.711 114.367 309.231 114.367H315.531C316.051 114.367 316.481 114.787 316.481 115.307V121.607Z" fill="white"/>
<path d="M328.36 121.607C328.36 122.127 327.94 122.557 327.41 122.557H321.11C320.59 122.557 320.17 122.127 320.17 121.607V115.307C320.17 114.787 320.59 114.367 321.11 114.367H327.41C327.93 114.367 328.36 114.787 328.36 115.307V121.607Z" fill="white"/>
<path d="M302.83 118.457C302.83 120.717 301 122.547 298.74 122.547H245.76C243.5 122.547 241.66 120.717 241.66 118.457C241.66 116.197 243.49 114.367 245.76 114.367H298.74C301 114.367 302.83 116.197 302.83 118.457Z" fill="white"/>
<path d="M292.72 161.869C292.72 175.569 281.61 186.679 267.91 186.679C254.21 186.679 243.1 175.569 243.1 161.869C243.1 148.169 254.2 137.059 267.91 137.059C281.62 137.059 292.72 148.169 292.72 161.869Z" fill="#D8DADE"/>
<path d="M330.13 138.887H296.82V145.187H330.13V138.887Z" fill="#B0AFB5"/>
<path d="M330.13 149.699H296.82V152.849H330.13V149.699Z" fill="#D8DADE"/>
<path d="M330.13 159.298H320.52H296.82V156.148H330.13V159.298Z" fill="#D8DADE"/>
<path d="M330.13 162.598H296.82V165.748H330.13V162.598Z" fill="#D8DADE"/>
<path d="M330.13 169.047H296.82V172.197H330.13V169.047Z" fill="#D8DADE"/>
<path d="M330.13 175.5H296.82V178.65H330.13V175.5Z" fill="#D8DADE"/>
<path d="M330.13 181.949H296.82V185.099H330.13V181.949Z" fill="#D8DADE"/>
<path d="M330.129 195.16H247.609V198.31H330.129V195.16Z" fill="#D8DADE"/>
<path d="M330.129 202.957H247.609V206.107H330.129V202.957Z" fill="#D8DADE"/>
<g style="mix-blend-mode:multiply">
<path d="M264.561 8.02172C262.851 5.45172 259.921 3.76172 256.611 3.76172H190.261C184.981 3.76172 180.711 8.04172 180.711 13.3117V88.6917C180.711 91.2017 181.691 93.4817 183.271 95.1817C184.981 97.7517 187.901 99.4417 191.221 99.4417H257.571C262.851 99.4417 267.121 95.1617 267.121 89.8817V14.5117C267.121 12.0017 266.141 9.73172 264.561 8.02172Z" fill="#D8DADE"/>
</g>
<g style="mix-blend-mode:multiply">
<path d="M194.97 1.20141H261.32C266.59 1.20141 270.87 5.48141 270.87 10.7514V86.1214C270.87 91.3914 266.59 95.6814 261.31 95.6814H194.96C189.69 95.6814 185.41 91.4014 185.41 86.1314V10.7514C185.41 5.48141 189.69 1.19141 194.97 1.19141V1.20141Z" fill="#CCCDD2"/>
</g>
<path d="M194.011 0H260.361C265.631 0 269.911 4.28 269.911 9.55V84.93C269.911 90.2 265.631 94.48 260.361 94.48H194.011C188.741 94.48 184.461 90.2 184.461 84.93V9.55C184.461 4.28 188.741 0 194.011 0Z" fill="white"/>
<path d="M269.921 14.33V9.55C269.921 4.27 265.641 0 260.371 0H194.021C188.741 0 184.471 4.28 184.471 9.55V14.33H269.931H269.921Z" fill="#3577AC"/>
<path d="M245.622 4.30859H250.832C251.262 4.30859 251.612 4.65859 251.612 5.08859V10.2986C251.612 10.7286 251.262 11.0786 250.832 11.0786H245.622C245.192 11.0786 244.842 10.7286 244.842 10.2986V5.08859C244.842 4.65859 245.192 4.30859 245.622 4.30859Z" fill="white"/>
<path d="M255.44 4.30859H260.65C261.08 4.30859 261.43 4.65859 261.43 5.08859V10.2986C261.43 10.7286 261.08 11.0786 260.65 11.0786H255.44C255.01 11.0786 254.66 10.7286 254.66 10.2986V5.08859C254.66 4.65859 255.01 4.30859 255.44 4.30859Z" fill="white"/>
<path d="M240.321 7.70031C240.321 9.57031 238.801 11.0803 236.941 11.0803H193.151C191.281 11.0803 189.771 9.57031 189.771 7.70031C189.771 5.83031 191.281 4.32031 193.151 4.32031H236.941C238.811 4.32031 240.321 5.84031 240.321 7.70031Z" fill="white"/>
<path d="M231.961 43.5703C231.961 54.9003 222.781 64.0703 211.461 64.0703C200.141 64.0703 190.961 54.8903 190.961 43.5703C190.961 32.2503 200.141 23.0703 211.461 23.0703C222.781 23.0703 231.961 32.2503 231.961 43.5703Z" fill="#D8DADE"/>
<path d="M262.882 24.5781H235.352V29.7881H262.882V24.5781Z" fill="#B0AFB5"/>
<path d="M262.882 33.5117H235.352V36.1217H262.882V33.5117Z" fill="#D8DADE"/>
<path d="M262.882 38.8398H235.352V41.4498H262.882V38.8398Z" fill="#D8DADE"/>
<path d="M262.882 44.1797H235.352V46.7797H262.882V44.1797Z" fill="#D8DADE"/>
<path d="M262.882 49.5117H235.352V52.1117H262.882V49.5117Z" fill="#D8DADE"/>
<path d="M262.882 54.8398H235.352V57.4398H262.882V54.8398Z" fill="#D8DADE"/>
<path d="M262.882 60.1719H235.352V62.7719H262.882V60.1719Z" fill="#D8DADE"/>
<path d="M262.882 71.0898H194.682V73.6898H262.882V71.0898Z" fill="#D8DADE"/>
<path d="M262.882 77.5312H194.682V80.1312H262.882V77.5312Z" fill="#D8DADE"/>
<path d="M74.8794 288.919C77.3894 294.359 82.1094 298.649 86.9394 301.559C88.0394 302.219 89.1294 302.879 90.2294 303.539C92.3794 304.839 94.5294 306.129 96.6794 307.429C97.9494 308.189 99.2094 308.949 100.469 309.719C101.479 310.329 103.139 310.119 103.439 308.779C103.759 307.329 102.629 306.339 101.649 305.539C100.769 304.819 99.9694 303.999 99.1094 303.269C97.3094 301.719 95.5994 300.079 93.8094 298.519C93.4094 298.179 93.0394 297.789 92.6194 297.459C93.0894 297.799 93.5594 298.139 94.0294 298.479C95.1794 299.309 96.3294 300.139 97.4694 300.969C98.9194 302.019 100.359 303.059 101.809 304.109C103.179 305.099 104.549 306.099 105.919 307.089C106.919 307.809 107.889 308.569 108.929 309.229C109.819 309.799 111.329 310.109 112.119 309.179C112.539 308.679 112.499 307.989 112.429 307.369C112.359 306.699 111.769 305.729 111.269 305.269C110.769 304.809 110.289 304.339 109.819 303.849C108.559 302.509 107.089 301.269 105.689 300.079C104.139 298.759 102.599 297.429 101.039 296.129C99.7294 295.049 98.4294 293.969 97.1294 292.879C96.5194 292.369 95.9094 291.839 95.2694 291.369C95.2594 291.369 95.2394 291.349 95.2294 291.349C95.2294 291.349 113.519 305.709 113.579 305.749C114.799 306.709 117.799 308.319 119.089 306.219C119.539 305.479 119.279 303.889 118.899 303.179C118.479 302.389 117.749 301.839 117.099 301.249C115.749 300.019 114.459 298.749 113.059 297.569C110.189 295.149 107.339 292.719 104.379 290.399C103.729 289.889 103.089 289.339 102.419 288.849C104.509 290.699 107.019 292.389 109.339 293.959C112.079 295.829 113.829 297.379 115.979 298.649C116.539 298.979 117.299 299.569 117.969 299.569C118.929 299.579 120.189 299.339 120.669 298.609C121.359 297.579 120.619 295.659 119.689 294.849C114.289 290.179 110.489 287.049 105.519 283.969C105.519 283.969 101.289 281.399 100.939 280.969C100.939 280.969 109.069 285.419 114.399 284.429C114.399 284.429 121.409 280.899 110.019 278.519C110.019 278.519 103.589 275.649 99.5894 273.689C99.5894 273.689 91.8794 269.539 82.6194 272.309C82.6194 272.309 75.1794 267.729 73.2494 266.109L66.1094 275.349C66.1094 275.349 73.0494 284.889 74.8994 288.899L74.8794 288.919Z" fill="#E1AB81"/>
<path d="M254.909 279.839C255.409 285.799 253.419 291.869 250.659 296.779C250.029 297.899 249.399 299.009 248.779 300.119C247.549 302.309 246.319 304.499 245.089 306.689C244.359 307.979 243.639 309.259 242.919 310.549C242.339 311.579 240.789 312.219 239.869 311.199C238.879 310.099 239.369 308.669 239.829 307.499C240.239 306.449 240.529 305.339 240.909 304.269C241.709 302.039 242.388 299.759 243.178 297.529C243.358 297.039 243.489 296.509 243.689 296.019C243.449 296.549 243.209 297.069 242.969 297.599C242.379 298.889 241.789 300.179 241.199 301.469C240.459 303.089 239.709 304.719 238.979 306.339C238.279 307.879 237.579 309.419 236.869 310.959C236.359 312.079 235.889 313.219 235.309 314.299C234.819 315.229 233.659 316.249 232.509 315.829C231.899 315.599 231.589 314.979 231.349 314.409C231.079 313.789 231.119 312.649 231.319 312.009C231.529 311.359 231.709 310.719 231.869 310.059C232.309 308.269 232.969 306.469 233.599 304.739C234.299 302.829 234.979 300.909 235.699 299.009C236.299 297.429 236.909 295.839 237.499 294.259C237.779 293.519 238.049 292.759 238.369 292.029C238.369 292.019 238.379 291.999 238.389 291.989C238.389 291.989 229.568 313.499 229.538 313.569C228.948 315.009 227.129 317.889 224.979 316.699C224.219 316.279 223.669 314.759 223.649 313.959C223.628 313.069 223.989 312.229 224.259 311.389C224.829 309.659 225.319 307.919 225.959 306.199C227.269 302.679 228.539 299.149 229.969 295.679C230.289 294.909 230.559 294.119 230.909 293.369C229.999 296.019 228.649 298.719 227.409 301.229C225.939 304.209 225.199 306.419 223.939 308.589C223.619 309.149 223.239 310.039 222.669 310.369C221.839 310.849 220.629 311.269 219.839 310.869C218.729 310.309 218.429 308.269 218.839 307.109C221.239 300.389 222.999 295.789 225.799 290.649C225.799 290.649 228.209 286.329 228.309 285.779C228.309 285.779 223.429 293.669 218.309 295.429C218.309 295.429 210.469 295.819 219.209 288.129C219.209 288.129 223.389 282.459 225.899 278.789C225.899 278.789 230.559 271.369 239.989 269.209C239.989 269.209 244.199 261.549 245.079 259.199L260.529 265.679C260.529 265.679 254.519 275.439 254.889 279.839H254.909Z" fill="#E1AB81"/>
<path d="M145.369 150.811C145.369 150.811 149.029 161.141 138.529 168.961C138.529 168.961 162.529 193.611 194.029 168.961C194.029 168.961 182.029 167.761 186.529 144.301L145.369 150.801V150.811Z" fill="#CE966D"/>
<path d="M267.529 256.308L245.739 199.348C240.899 185.158 228.489 176.578 215.529 171.268C208.479 168.388 201.429 165.518 194.379 162.648C170.729 188.488 141.089 162.648 141.089 162.648C136.709 165.058 132.349 167.508 127.969 169.938C115.799 176.708 101.419 181.758 93.8692 194.228L59.1992 254.978C59.1992 254.978 62.3692 277.808 71.3192 283.598C71.3192 283.598 73.8692 269.648 92.4792 271.598L89.5292 257.188L120.199 225.968L125.059 278.968H206.789L213.189 225.998L239.019 255.808L227.479 276.478C246.809 268.478 254.969 281.648 254.969 281.648C254.969 281.648 264.649 269.948 267.519 256.308" fill="#062A47"/>
<path d="M201.889 112.16C201.839 81.6105 185.129 64.9805 164.529 64.9805C143.929 64.9805 127.219 81.6105 127.169 112.16C125.989 112.18 119.819 112.6 123.329 119.61C123.329 119.61 127.089 124.19 127.359 130.07C127.359 130.07 128.689 133.23 130.669 131.78C135.269 144.12 143.739 153.54 151.949 159.44C151.949 159.44 165.889 168.58 176.229 160.45C186.109 154.37 194.639 145.26 198.929 132.07C200.599 132.63 201.689 130.06 201.689 130.06C201.959 124.18 205.719 119.6 205.719 119.6C209.229 112.59 203.059 112.17 201.879 112.15L201.889 112.16Z" fill="#E1AB81"/>
<path d="M202.279 112.309C201.059 114.909 195.419 118.479 196.029 121.849C196.029 121.976 196.029 121.976 196.029 121.849C195.269 120.669 196.139 117.009 196.029 115.559C195.829 113.059 195.359 110.749 194.779 108.299C193.569 103.189 192.069 98.6091 189.099 94.2391C185.599 89.0891 181.629 85.7091 174.779 86.0491C170.659 86.2591 164.469 87.2491 163.789 92.2291C160.279 83.8791 145.259 83.9991 140.279 90.9191C137.359 94.9691 136.169 99.5191 135.479 104.359C135.069 107.279 134.899 110.239 134.339 113.109C133.999 114.839 133.739 118.389 132.789 119.549C132.789 119.549 131.819 114.499 127.179 112.149C122.599 109.839 126.739 87.3091 127.719 83.9591C132.439 67.8791 146.499 58.4891 162.619 56.7891C170.719 55.9291 178.739 53.8091 187.019 54.3991C185.219 55.7091 183.359 57.4691 181.809 59.2391C186.519 58.4791 190.969 56.9991 195.989 57.3791C193.329 59.3291 194.549 62.3091 193.219 65.2291C199.049 64.8791 203.369 72.0891 206.379 76.2391C203.589 75.4991 200.949 74.0591 198.179 73.2691C210.459 76.7991 205.969 104.459 202.279 112.309Z" fill="#2D2D2D"/>
<path d="M141.08 162.651L131.6 167.911C131.6 167.911 148.41 183.231 165.72 183.311C165.91 183.311 166.09 183.311 166.28 183.311C183.78 183.061 195.92 178.081 202.48 165.941L194.38 162.641C194.38 162.641 181.09 174.431 169.69 174.121C169.69 174.121 157.54 174.721 141.09 162.641L141.08 162.651Z" fill="#D1EAFF"/>
<path d="M101.59 207.051H227.06C230.34 207.051 233 209.711 233 212.991V304.501C233 307.781 230.34 310.441 227.06 310.441H101.6C98.3202 310.441 95.6602 307.781 95.6602 304.501V212.991C95.6602 209.711 98.3202 207.051 101.6 207.051H101.59Z" fill="#3577AC"/>
<path d="M97.2793 214.25V265.44C97.2793 288.75 99.8693 307.65 103.069 307.65H225.459C228.659 307.65 231.249 288.75 231.249 265.44V214.25H97.2793Z" fill="#D1EAFF"/>
<path d="M135.179 308.902H116.209V313.372H135.179V308.902Z" fill="#89878C"/>
<path d="M209.07 308.902H190.1V313.372H209.07V308.902Z" fill="#89878C"/>
<path d="M81.6895 315.18H247.369C247.369 315.18 245.079 322.43 240.939 325.19H96.6895C96.6895 325.19 83.1395 323.81 81.6895 315.18Z" fill="#3577AC"/>
<path d="M182.77 109.797C180.72 109.957 178.76 110.307 176.99 110.847C176.53 110.987 176.07 111.147 175.63 111.317C167.09 114.077 160.31 112.597 157.06 111.487C156.4 111.167 155.7 110.877 154.96 110.627C153.02 109.967 150.84 109.557 148.55 109.377C132.48 108.127 129.88 114.837 132.58 122.777C134.98 129.817 138.79 133.427 147.66 133.427C156.53 133.427 161.04 131.027 162.74 122.777C163.02 121.407 163.08 120.157 162.94 119.017C165.08 117.127 167.21 118.037 168.46 118.937C168.24 120.217 168.26 121.637 168.58 123.207C170.28 131.457 174.79 133.857 183.66 133.857C192.53 133.857 196.34 130.247 198.74 123.207C201.45 115.267 198.84 108.547 182.78 109.797H182.77ZM160.6 122.887C159.19 129.317 155.46 131.187 148.12 131.187C140.78 131.187 137.62 128.377 135.64 122.887C133.4 116.687 135.56 111.447 148.86 112.427C156.18 112.967 162.07 116.177 160.61 122.887H160.6ZM195.67 123.317C193.69 128.807 190.53 131.617 183.19 131.617C175.85 131.617 172.12 129.747 170.71 123.317C169.24 116.607 175.13 113.397 182.46 112.857C195.76 111.877 197.91 117.117 195.68 123.317H195.67Z" fill="#1F140F"/>
<path d="M134.409 120.747L130.519 121.747L129.029 111.688H135.229L134.409 120.747Z" fill="#1F140F"/>
<path d="M197.029 120.747L200.919 121.747L202.409 111.688H196.209L197.029 120.747Z" fill="#1F140F"/>
</g>
</g>
<defs>
<clipPath id="clip0_2711_80781">
<rect width="339.8" height="325.2" fill="white"/>
</clipPath>
<clipPath id="clip1_2711_80781">
<rect width="339.8" height="325.2" fill="white"/>
</clipPath>
</defs>
</svg>
