<svg width="22" height="23" viewBox="0 0 22 23" fill="none" xmlns="http://www.w3.org/2000/svg">
<path d="M12.832 3.5625V7.22917C12.832 7.73543 13.2424 8.14583 13.7487 8.14583H17.4154" stroke="#F2F2F2" stroke-width="1.5" stroke-linecap="round" stroke-linejoin="round"/>
<path d="M3.83203 12.7292C3.83203 13.1434 4.16782 13.4792 4.58203 13.4792C4.99625 13.4792 5.33203 13.1434 5.33203 12.7292H3.83203ZM12.832 3.5625L13.3624 3.03217C13.2217 2.89152 13.0309 2.8125 12.832 2.8125V3.5625ZM17.4154 8.14583H18.1654C18.1654 7.94692 18.0863 7.75616 17.9457 7.6155L17.4154 8.14583ZM10.5404 19.3125C10.1262 19.3125 9.79036 19.6483 9.79036 20.0625C9.79036 20.4767 10.1262 20.8125 10.5404 20.8125V19.3125ZM1.83203 17.4792C1.41782 17.4792 1.08203 17.815 1.08203 18.2292C1.08203 18.6434 1.41782 18.9792 1.83203 18.9792V17.4792ZM8.2487 18.9792C8.66291 18.9792 8.9987 18.6434 8.9987 18.2292C8.9987 17.815 8.66291 17.4792 8.2487 17.4792V18.9792ZM6.02903 14.9488C5.73613 14.6559 5.26126 14.6559 4.96837 14.9488C4.67547 15.2417 4.67547 15.7166 4.96837 16.0095L6.02903 14.9488ZM8.2487 18.2292L8.77903 18.7595C8.91968 18.6188 8.9987 18.4281 8.9987 18.2292C8.9987 18.0303 8.91968 17.8395 8.77903 17.6988L8.2487 18.2292ZM4.96837 20.4488C4.67547 20.7417 4.67547 21.2166 4.96837 21.5095C5.26126 21.8024 5.73613 21.8024 6.02903 21.5095L4.96837 20.4488ZM5.33203 12.7292V5.39583H3.83203V12.7292H5.33203ZM5.33203 5.39583C5.33203 4.79752 5.81706 4.3125 6.41536 4.3125V2.8125C4.98863 2.8125 3.83203 3.9691 3.83203 5.39583H5.33203ZM6.41536 4.3125H12.832V2.8125H6.41536V4.3125ZM12.3017 4.09283L16.885 8.67616L17.9457 7.6155L13.3624 3.03217L12.3017 4.09283ZM16.6654 8.14583V18.2292H18.1654V8.14583H16.6654ZM16.6654 18.2292C16.6654 18.8275 16.1803 19.3125 15.582 19.3125V20.8125C17.0088 20.8125 18.1654 19.6559 18.1654 18.2292H16.6654ZM15.582 19.3125H10.5404V20.8125H15.582V19.3125ZM1.83203 18.9792H8.2487V17.4792H1.83203V18.9792ZM4.96837 16.0095L7.71837 18.7595L8.77903 17.6988L6.02903 14.9488L4.96837 16.0095ZM7.71837 17.6988L4.96837 20.4488L6.02903 21.5095L8.77903 18.7595L7.71837 17.6988Z" fill="#F2F2F2"/>
</svg>
