<svg width="22" height="23" viewBox="0 0 22 23" fill="none" xmlns="http://www.w3.org/2000/svg">
<rect x="2.75" y="15.4795" width="2.75" height="4.58333" rx="1" stroke="#F2F2F2" stroke-width="1.5" stroke-linecap="round" stroke-linejoin="round"/>
<path fill-rule="evenodd" clip-rule="evenodd" d="M5.5 19.1459C5.5 19.6522 5.91041 20.0626 6.41667 20.0626H9.85967C10.2646 20.0626 10.6216 19.797 10.7378 19.409L11.8378 16.659C11.9203 16.3813 11.9597 16.0815 11.7865 15.8487C11.6142 15.6159 11.2897 15.4793 11 15.4793H9.16667V13.2179C9.16644 12.7737 8.87561 12.382 8.45049 12.2533C8.02538 12.1246 7.56612 12.2892 7.31958 12.6587L5.5 15.4793V19.1459H5.5Z" stroke="#F2F2F2" stroke-width="1.5" stroke-linecap="round" stroke-linejoin="round"/>
<path d="M12.832 3.5625V7.22917C12.832 7.73543 13.2424 8.14583 13.7487 8.14583H17.4154" stroke="#F2F2F2" stroke-width="1.5" stroke-linecap="round" stroke-linejoin="round"/>
<path d="M4.58203 11.9042V5.39583C4.58203 4.38331 5.40284 3.5625 6.41536 3.5625H12.832L17.4154 8.14583V18.2292C17.4154 19.2417 16.5946 20.0625 15.582 20.0625H13.4737" stroke="#F2F2F2" stroke-width="1.5" stroke-linecap="round" stroke-linejoin="round"/>
</svg>
