<svg width="20" height="20" viewBox="0 0 20 20" fill="none" xmlns="http://www.w3.org/2000/svg">
<g id="lead-icon">
<path id="Vector" fill-rule="evenodd" clip-rule="evenodd" d="M5.83398 1.66797C4.45327 1.66797 3.33398 2.78726 3.33398 4.16797V15.8346C3.33398 17.2153 4.45327 18.3346 5.83398 18.3346H14.1673C15.548 18.3346 16.6673 17.2153 16.6673 15.8346V4.16797C16.6673 2.78726 15.548 1.66797 14.1673 1.66797H5.83398ZM5.83398 5.0013C5.37375 5.0013 5.00065 5.3744 5.00065 5.83464C5.00065 6.29487 5.37375 6.66797 5.83398 6.66797H13.334C13.7942 6.66797 14.1673 6.29487 14.1673 5.83464C14.1673 5.3744 13.7942 5.0013 13.334 5.0013H5.83398ZM5.00065 9.16797C5.00065 8.70773 5.37375 8.33464 5.83398 8.33464H14.1673C14.6276 8.33464 15.0007 8.70773 15.0007 9.16797C15.0007 9.62821 14.6276 10.0013 14.1673 10.0013H5.83398C5.37375 10.0013 5.00065 9.62821 5.00065 9.16797ZM5.83398 11.668C5.37375 11.668 5.00065 12.0411 5.00065 12.5013C5.00065 12.9615 5.37375 13.3346 5.83398 13.3346H11.6673C12.1276 13.3346 12.5007 12.9615 12.5007 12.5013C12.5007 12.0411 12.1276 11.668 11.6673 11.668H5.83398Z" fill="#E6483D"/>
</g>
</svg>
