<svg width="22" height="23" viewBox="0 0 22 23" fill="none" xmlns="http://www.w3.org/2000/svg">
<path opacity="0.2" d="M12.375 19.375V4.25C12.375 4.06766 12.3026 3.8928 12.1736 3.76386C12.0447 3.63493 11.8698 3.5625 11.6875 3.5625H3.4375C3.25516 3.5625 3.0803 3.63493 2.95136 3.76386C2.82243 3.8928 2.75 4.06766 2.75 4.25V19.375" fill="#23567F"/>
<path d="M1.375 19.375H20.625M12.375 19.375V4.25C12.375 4.06766 12.3026 3.8928 12.1736 3.76386C12.0447 3.63493 11.8698 3.5625 11.6875 3.5625H3.4375C3.25516 3.5625 3.0803 3.63493 2.95136 3.76386C2.82243 3.8928 2.75 4.06766 2.75 4.25V19.375M19.25 19.375V9.75C19.25 9.56766 19.1776 9.3928 19.0486 9.26386C18.9197 9.13493 18.7448 9.0625 18.5625 9.0625H12.375M5.5 7H8.25M6.875 12.5H9.625M5.5 15.9375H8.25M15.125 15.9375H16.5M15.125 12.5H16.5" stroke="white" stroke-opacity="0.9" stroke-width="1.5" stroke-linecap="round" stroke-linejoin="round"/>
</svg>
