<svg width="22" height="23" viewBox="0 0 22 23" fill="none" xmlns="http://www.w3.org/2000/svg">
<path fill-rule="evenodd" clip-rule="evenodd" d="M9.46458 4.76975C9.85508 3.16008 12.1449 3.16008 12.5354 4.76975C12.6543 5.26022 13.0002 5.66444 13.4664 5.8576C13.9327 6.05076 14.4631 6.00963 14.894 5.74692C16.3084 4.88525 17.9282 6.50408 17.0665 7.91942C16.8042 8.35012 16.7631 8.88016 16.9561 9.3461C17.149 9.81204 17.5527 10.1579 18.0428 10.2771C19.6524 10.6676 19.6524 12.9574 18.0428 13.3479C17.5523 13.4668 17.1481 13.8127 16.9549 14.2789C16.7617 14.7452 16.8029 15.2756 17.0656 15.7065C17.9272 17.1209 16.3084 18.7407 14.8931 17.879C14.4624 17.6167 13.9323 17.5756 13.4664 17.7686C13.0005 17.9615 12.6546 18.3652 12.5354 18.8553C12.1449 20.4649 9.85508 20.4649 9.46458 18.8553C9.34574 18.3648 8.9998 17.9606 8.53357 17.7674C8.06734 17.5742 7.53689 17.6154 7.106 17.8781C5.69158 18.7397 4.07183 17.1209 4.9335 15.7056C5.19584 15.2749 5.23687 14.7448 5.04393 14.2789C4.851 13.813 4.44727 13.4671 3.95725 13.3479C2.34758 12.9574 2.34758 10.6676 3.95725 10.2771C4.44772 10.1582 4.85194 9.8123 5.0451 9.34607C5.23826 8.87984 5.19713 8.34939 4.93442 7.9185C4.07275 6.50408 5.69158 4.88433 7.10692 5.746C8.02358 6.30333 9.21158 5.81017 9.46458 4.76975Z" stroke="#F2F2F2" stroke-width="1.5" stroke-linecap="round" stroke-linejoin="round"/>
<circle cx="11" cy="11.8125" r="2.75" stroke="#F2F2F2" stroke-width="1.5" stroke-linecap="round" stroke-linejoin="round"/>
</svg>
