<svg width="22" height="23" viewBox="0 0 22 23" fill="none" xmlns="http://www.w3.org/2000/svg">
<path opacity="0.2" d="M17.1875 3.5625H4.8125C4.63016 3.5625 4.4553 3.63493 4.32636 3.76386C4.19743 3.8928 4.125 4.06766 4.125 4.25V19.375C4.125 19.5573 4.19743 19.7322 4.32636 19.8611C4.4553 19.9901 4.63016 20.0625 4.8125 20.0625H17.1875C17.3698 20.0625 17.5447 19.9901 17.6736 19.8611C17.8026 19.7322 17.875 19.5573 17.875 19.375V4.25C17.875 4.06766 17.8026 3.8928 17.6736 3.76386C17.5447 3.63493 17.3698 3.5625 17.1875 3.5625ZM11 15.25C10.4561 15.25 9.92442 15.0887 9.47218 14.7865C9.01995 14.4844 8.66747 14.0549 8.45933 13.5524C8.25119 13.0499 8.19673 12.4969 8.30284 11.9635C8.40895 11.4301 8.67086 10.9401 9.05546 10.5555C9.44005 10.1709 9.93005 9.90895 10.4635 9.80284C10.9969 9.69673 11.5499 9.75119 12.0524 9.95933C12.5549 10.1675 12.9844 10.5199 13.2865 10.9722C13.5887 11.4244 13.75 11.9561 13.75 12.5C13.75 13.2293 13.4603 13.9288 12.9445 14.4445C12.4288 14.9603 11.7293 15.25 11 15.25Z" fill="#23567F"/>
<path d="M11 15.25C12.5188 15.25 13.75 14.0188 13.75 12.5C13.75 10.9812 12.5188 9.75 11 9.75C9.48122 9.75 8.25 10.9812 8.25 12.5C8.25 14.0188 9.48122 15.25 11 15.25ZM11 15.25C10.1995 15.25 9.41003 15.4364 8.69405 15.7944C7.97808 16.1523 7.35529 16.6721 6.875 17.3125M11 15.25C11.8005 15.25 12.59 15.4364 13.3059 15.7944C14.0219 16.1523 14.6447 16.6721 15.125 17.3125M8.25 6.3125H13.75M17.875 4.25V19.375C17.875 19.7547 17.5672 20.0625 17.1875 20.0625H4.8125C4.4328 20.0625 4.125 19.7547 4.125 19.375V4.25C4.125 3.8703 4.4328 3.5625 4.8125 3.5625H17.1875C17.5672 3.5625 17.875 3.8703 17.875 4.25Z" stroke="white" stroke-opacity="0.9" stroke-width="1.5" stroke-linecap="round" stroke-linejoin="round"/>
</svg>
