<svg width="22" height="19" viewBox="0 0 22 19" fill="none" xmlns="http://www.w3.org/2000/svg">
<path d="M1.375 17.375H20.625M12.375 17.375V2.25C12.375 2.06766 12.3026 1.8928 12.1736 1.76386C12.0447 1.63493 11.8698 1.5625 11.6875 1.5625H3.4375C3.25516 1.5625 3.0803 1.63493 2.95136 1.76386C2.82243 1.8928 2.75 2.06766 2.75 2.25V17.375M19.25 17.375V7.75C19.25 7.56766 19.1776 7.3928 19.0486 7.26386C18.9197 7.13493 18.7448 7.0625 18.5625 7.0625H12.375M5.5 5H8.25M6.875 10.5H9.625M5.5 13.9375H8.25M15.125 13.9375H16.5M15.125 10.5H16.5" stroke="white" stroke-opacity="0.9" stroke-width="1.5" stroke-linecap="round" stroke-linejoin="round"/>
</svg>
